<svg xmlns="http://www.w3.org/2000/svg" viewBox="0 0 47.77 65.47"><defs><style>.cls-1{fill:#5880a8;}.cls-2{fill:#406889;}.cls-3{fill:#80a2cc;}.cls-4{fill:#9abfe2;}.cls-5{fill:#2d4560;}</style></defs><title>seed-locked</title><g id="Layer_2" data-name="Layer 2"><g id="Слой_5" data-name="Слой 5"><path class="cls-1" d="M42.75,52.24H5V18.72A18.74,18.74,0,0,1,23.74,0H24A18.74,18.74,0,0,1,42.75,18.72ZM12.44,44.82H35.33V18.72A11.31,11.31,0,0,0,24,7.42h-.29a11.31,11.31,0,0,0-11.3,11.3Z"/><path class="cls-1" d="M42.75,52.24H5V18.72A18.74,18.74,0,0,1,23.74,0H24A18.74,18.74,0,0,1,42.75,18.72ZM12.44,44.82H35.33V18.72A11.31,11.31,0,0,0,24,7.42h-.29a11.31,11.31,0,0,0-11.3,11.3Z"/><path class="cls-2" d="M24,3.8h-.23C15.79,3.8,9.3,10.63,9.3,19V46.31H38.47V19C38.47,10.63,32,3.8,24,3.8Zm11.33,41H12.44V18.72a11.31,11.31,0,0,1,11.3-11.3H24a11.31,11.31,0,0,1,11.3,11.3Z"/><path class="cls-3" d="M0,27.84H47.77a0,0,0,0,1,0,0V53.53A11.93,11.93,0,0,1,35.84,65.47H11.93A11.93,11.93,0,0,1,0,53.53V27.84a0,0,0,0,1,0,0Z"/><path class="cls-4" d="M0,27.84V53.53a11.94,11.94,0,0,0,8.1,11.3l39.63-37Z"/><path class="cls-5" d="M31,55.83,26.89,45.4a5.18,5.18,0,1,0-4.8,0L18,55.83Z"/></g></g></svg>