<svg xmlns="http://www.w3.org/2000/svg" width="768px" height="256px" viewBox="0 0 2005.31 659.86" class="sc-eJocfa ilWrFa">
    <g id="Layer_2" data-name="Layer 2">
        <g id="gates">
            <polygon class="GoalBackground_cls-1__2oq7r"
                     points="213.75 566.37 124.39 592.03 124.39 592.03 213.75 566.37 213.75 566.37"></polygon>
            <path class="GoalBackground_cls-2__2AgPo"
                  d="M116.37,513.49c0-38.36,142.49-72.37,362-93.47H441.48C175.1,443.59,0,483.48,0,528.71c0,23,45.13,44.55,124.39,63.32l89.36-25.66C151.5,550.52,116.37,532.54,116.37,513.49Z"></path>
            <path class="GoalBackground_cls-2__2AgPo"
                  d="M1888.94,513.49c0,14.23-19.6,27.85-55.44,40.44L1925,580.21c51.67-15.81,80.28-33.21,80.28-51.5,0-45.23-175.1-85.12-441.48-108.69h-36.9C1746.45,441.12,1888.94,475.13,1888.94,513.49Z"></path>
            <path class="GoalBackground_cls-2__2AgPo"
                  d="M1002.66,629.42c-114,0-223-2.82-323.11-7.95l-36.94,29.68c111.75,5.62,233.14,8.71,360,8.71,159.14,0,309.62-4.85,443.28-13.48l-37.46-29.81C1286.89,624.78,1148.91,629.42,1002.66,629.42Z"></path>
            <path class="GoalBackground_cls-3__3zbGg"
                  d="M1408.48,616.57l37.46,29.81C1660,632.56,1830.83,609,1925,580.21l-91.53-26.28C1756.23,581.08,1603.42,603.42,1408.48,616.57Z"></path>
            <path class="GoalBackground_cls-3__3zbGg"
                  d="M679.55,621.47c-201.81-10.34-367.58-30.08-465.8-55.1L124.39,592c113.47,26.87,296.93,48,518.22,59.12Z"></path>
            <polygon class="GoalBackground_cls-1__2oq7r"
                     points="292.51 543.76 213.75 566.37 213.75 566.37 292.51 543.76 292.51 543.76"></polygon>
            <path class="GoalBackground_cls-4__36gwv"
                  d="M218.34,500.15c0-32.42,115-61.33,294.62-80.13H478.39c-219.53,21.1-362,55.11-362,93.47,0,19,35.13,37,97.38,52.88l78.76-22.61C244.94,530.52,218.34,515.75,218.34,500.15Z"></path>
            <path class="GoalBackground_cls-4__36gwv"
                  d="M1787,500.15c0,10.58-12.24,20.79-35,30.39l81.5,23.39c35.84-12.59,55.44-26.21,55.44-40.44,0-38.36-142.49-72.37-362-93.47h-34.58C1671.94,438.82,1787,467.73,1787,500.15Z"></path>
            <path class="GoalBackground_cls-4__36gwv"
                  d="M1408.48,616.57l-32.87-26.15c-110.92,7.86-237.95,12.32-372.95,12.32-102.73,0-200.83-2.58-290.74-7.28l-32.37,26c100.11,5.13,209.09,7.95,323.11,7.95C1148.91,629.42,1286.89,624.78,1408.48,616.57Z"></path>
            <path class="GoalBackground_cls-5__3641Y"
                  d="M1375.61,590.42l32.87,26.15c194.94-13.15,347.75-35.49,425-62.64L1752,530.54C1690.93,556.33,1554.15,577.78,1375.61,590.42Z"></path>
            <path class="GoalBackground_cls-5__3641Y"
                  d="M292.51,543.76l-78.76,22.61c98.22,25,264,44.76,465.8,55.1l32.37-26C527,585.8,376.82,567.21,292.51,543.76Z"></path>
            <polygon class="GoalBackground_cls-1__2oq7r"
                     points="359.76 524.45 292.51 543.76 292.51 543.76 359.76 524.45 359.76 524.45"></polygon>
            <path class="GoalBackground_cls-6__BLdjl"
                  d="M218.34,500.15c0,15.6,26.6,30.37,74.17,43.61l67.25-19.31c-35.44-10.94-55-23-55-35.59,0-27.47,92.76-52.11,239.54-68.84H513C333.37,438.82,218.34,467.73,218.34,500.15Z"></path>
            <path class="GoalBackground_cls-6__BLdjl"
                  d="M1700.6,488.86c0,7.36-6.68,14.52-19.27,21.38l70.67,20.3c22.73-9.6,35-19.81,35-30.39,0-32.42-115-61.33-294.62-80.13h-31.3C1607.83,436.75,1700.6,461.39,1700.6,488.86Z"></path>
            <path class="GoalBackground_cls-6__BLdjl"
                  d="M1002.66,580.15c-93.16,0-182.06-2.39-263.31-6.72l-27.43,22c89.91,4.7,188,7.28,290.74,7.28,135,0,262-4.46,372.95-12.32l-27.9-22.19C1245.94,575.81,1128.17,580.15,1002.66,580.15Z"></path>
            <path class="GoalBackground_cls-7__1IqjJ"
                  d="M1681.33,510.24c-45.54,24.81-168.51,45.68-333.62,58l27.9,22.19c178.54-12.64,315.32-34.09,376.39-59.88Z"></path>
            <path class="GoalBackground_cls-7__1IqjJ"
                  d="M359.76,524.45l-67.25,19.31c84.31,23.45,234.52,42,419.41,51.7l27.43-22C568.6,564.32,431.62,546.63,359.76,524.45Z"></path>
            <polygon class="GoalBackground_cls-1__2oq7r"
                     points="359.76 524.45 723.48 420.02 359.76 524.45 359.76 524.45"></polygon>
            <path class="GoalBackground_cls-8__36UkF"
                  d="M304.72,488.86c0,12.62,19.6,24.65,55,35.59L723.48,420H544.26C397.48,436.75,304.72,461.39,304.72,488.86Z"></path>
            <path class="GoalBackground_cls-8__36UkF"
                  d="M1700.6,488.86c0-27.47-92.77-52.11-239.55-68.84h-94l314.25,90.22C1693.92,503.38,1700.6,496.22,1700.6,488.86Z"></path>
            <path class="GoalBackground_cls-8__36UkF"
                  d="M1002.66,580.15c125.51,0,243.28-4.34,345.05-11.92L1161.42,420H930.28L739.35,573.43C820.6,577.76,909.5,580.15,1002.66,580.15Z"></path>
            <path class="GoalBackground_cls-9__j2cSV"
                  d="M1681.33,510.24,1367.08,420H1161.42l186.29,148.21C1512.82,555.92,1635.79,535.05,1681.33,510.24Z"></path>
            <path class="GoalBackground_cls-9__j2cSV"
                  d="M739.35,573.43,930.28,420H723.48L359.76,524.45C431.62,546.63,568.6,564.32,739.35,573.43Z"></path>
            <g class="GoalBackground_cls-10__1c_X2">
                <polyline class="GoalBackground_cls-11__2gjlw"
                          points="538.86 2.9 682.86 98.71 1323.78 98.71 1463.11 6"></polyline>
                <line class="GoalBackground_cls-11__2gjlw" x1="682.86" y1="98.71" x2="682.86" y2="420.02"></line>
                <line class="GoalBackground_cls-11__2gjlw" x1="1324.27" y1="98.71" x2="1324.27" y2="420.02"></line>
                <rect class="GoalBackground_cls-12__3zExr" x="682.86" y="98.71" width="641.91" height="321.31"></rect>
                <g class="GoalBackground_cls-13__3ojoI">
                    <polyline class="GoalBackground_cls-14__1XEWv"
                              points="1004.54 420.02 1004.54 98.71 1004.54 23.66"></polyline>
                    <polyline class="GoalBackground_cls-14__1XEWv"
                              points="974.87 420.02 974.87 160.71 974.87 98.71 962.08 11.83"></polyline>
                    <polyline class="GoalBackground_cls-14__1XEWv"
                              points="945.2 420.02 945.2 160.71 945.2 98.71 929.11 8.67"></polyline>
                    <polyline class="GoalBackground_cls-14__1XEWv"
                              points="915.53 420.02 915.53 160.71 915.53 98.71 894.17 11.83"></polyline>
                    <polyline class="GoalBackground_cls-14__1XEWv"
                              points="885.86 420.02 885.86 160.71 885.86 98.71 856.19 8.67"></polyline>
                    <polyline class="GoalBackground_cls-14__1XEWv"
                              points="856.19 420.02 856.19 160.71 856.19 98.71 818.57 11.83"></polyline>
                    <polyline class="GoalBackground_cls-14__1XEWv"
                              points="826.52 420.02 826.52 160.71 826.52 98.71 774.17 18.67"></polyline>
                    <polyline class="GoalBackground_cls-14__1XEWv"
                              points="796.85 420.02 796.85 160.71 796.85 98.71 724.06 8.67"></polyline>
                    <polyline class="GoalBackground_cls-14__1XEWv"
                              points="767.18 420.02 767.18 160.71 767.18 98.71 677.47 8.67"></polyline>
                    <polyline class="GoalBackground_cls-14__1XEWv"
                              points="737.51 420.02 737.51 160.71 737.51 98.71 634.4 6"></polyline>
                    <polyline class="GoalBackground_cls-14__1XEWv"
                              points="707.84 420.02 707.84 160.71 707.84 98.71 588.68 8.67"></polyline>
                    <polyline class="GoalBackground_cls-14__1XEWv"
                              points="1032.72 420.02 1032.72 160.71 1032.72 98.71 1045.51 11.83"></polyline>
                    <polyline class="GoalBackground_cls-14__1XEWv"
                              points="1062.39 420.02 1062.39 160.71 1062.39 98.71 1078.47 8.67"></polyline>
                    <polyline class="GoalBackground_cls-14__1XEWv"
                              points="1092.06 420.02 1092.06 160.71 1092.06 98.71 1113.42 11.83"></polyline>
                    <polyline class="GoalBackground_cls-14__1XEWv"
                              points="1121.73 420.02 1121.73 160.71 1121.73 98.71 1151.4 8.67"></polyline>
                    <polyline class="GoalBackground_cls-14__1XEWv"
                              points="1151.4 420.02 1151.4 160.71 1151.4 98.71 1189.02 11.83"></polyline>
                    <polyline class="GoalBackground_cls-14__1XEWv"
                              points="1181.07 420.02 1181.07 160.71 1181.07 98.71 1233.41 18.67"></polyline>
                    <polyline class="GoalBackground_cls-14__1XEWv"
                              points="1210.74 420.02 1210.74 160.71 1210.74 98.71 1283.52 8.67"></polyline>
                    <polyline class="GoalBackground_cls-14__1XEWv"
                              points="1240.41 420.02 1240.41 160.71 1240.41 98.71 1330.12 8.67"></polyline>
                    <polyline class="GoalBackground_cls-14__1XEWv"
                              points="1270.08 420.02 1270.08 160.71 1270.08 98.71 1373.19 6"></polyline>
                    <polyline class="GoalBackground_cls-14__1XEWv"
                              points="1299.74 420.02 1299.74 160.71 1299.74 98.71 1418.9 8.67"></polyline>
                </g>
                <g class="GoalBackground_cls-13__3ojoI">
                    <line class="GoalBackground_cls-14__1XEWv" x1="682.86" y1="115.33" x2="1324.76" y2="115.33"></line>
                    <line class="GoalBackground_cls-14__1XEWv" x1="682.86" y1="139.74" x2="1324.76" y2="139.74"></line>
                    <line class="GoalBackground_cls-14__1XEWv" x1="682.86" y1="164.15" x2="1324.76" y2="164.15"></line>
                    <line class="GoalBackground_cls-14__1XEWv" x1="682.86" y1="188.56" x2="1324.76" y2="188.56"></line>
                    <line class="GoalBackground_cls-14__1XEWv" x1="682.86" y1="212.97" x2="1324.76" y2="212.97"></line>
                    <line class="GoalBackground_cls-14__1XEWv" x1="682.86" y1="237.38" x2="1324.76" y2="237.38"></line>
                    <line class="GoalBackground_cls-14__1XEWv" x1="682.86" y1="261.79" x2="1324.76" y2="261.79"></line>
                    <line class="GoalBackground_cls-14__1XEWv" x1="682.86" y1="286.21" x2="1324.76" y2="286.21"></line>
                    <line class="GoalBackground_cls-14__1XEWv" x1="682.86" y1="310.62" x2="1324.76" y2="310.62"></line>
                    <line class="GoalBackground_cls-14__1XEWv" x1="682.86" y1="335.03" x2="1324.76" y2="335.03"></line>
                    <line class="GoalBackground_cls-14__1XEWv" x1="682.86" y1="359.44" x2="1324.76" y2="359.44"></line>
                    <line class="GoalBackground_cls-14__1XEWv" x1="682.86" y1="383.85" x2="1324.76" y2="383.85"></line>
                    <line class="GoalBackground_cls-14__1XEWv" x1="682.86" y1="408.26" x2="1324.76" y2="408.26"></line>
                </g>
                <line class="GoalBackground_cls-15__3DFdB" x1="588.98" y1="36.25" x2="596.14" y2="445.07"></line>
                <line class="GoalBackground_cls-15__3DFdB" x1="607.33" y1="48.45" x2="612.24" y2="440.45"></line>
                <line class="GoalBackground_cls-15__3DFdB" x1="625.67" y1="60.66" x2="629.04" y2="435.04"></line>
                <line class="GoalBackground_cls-15__3DFdB" x1="644.02" y1="72.87" x2="647.28" y2="430.06"></line>
                <polyline class="GoalBackground_cls-15__3DFdB"
                          points="663.9 425.22 662.36 85.07 1345.15 85.07"></polyline>
                <line class="GoalBackground_cls-15__3DFdB" x1="682.46" y1="139.56" x2="554.9" y2="85.07"></line>
                <line class="GoalBackground_cls-15__3DFdB" x1="682.68" y1="188.67" x2="552.24" y2="161.33"></line>
                <line class="GoalBackground_cls-15__3DFdB" x1="682.68" y1="236.89" x2="553.79" y2="227.63"></line>
                <line class="GoalBackground_cls-15__3DFdB" x1="683.13" y1="213.11" x2="558.9" y2="196.89"></line>
                <line class="GoalBackground_cls-15__3DFdB" x1="683.13" y1="164.22" x2="549.35" y2="124.89"></line>
                <line class="GoalBackground_cls-15__3DFdB" x1="682.86" y1="115.33" x2="554.9" y2="48.45"></line>
                <line class="GoalBackground_cls-15__3DFdB" x1="683.24" y1="261.83" x2="564.24" y2="261.83"></line>
                <line class="GoalBackground_cls-15__3DFdB" x1="683.24" y1="286.5" x2="564.24" y2="286.5"></line>
                <line class="GoalBackground_cls-15__3DFdB" x1="682.46" y1="139.56" x2="554.9" y2="85.07"></line>
                <line class="GoalBackground_cls-15__3DFdB" x1="682.68" y1="188.67" x2="552.24" y2="161.33"></line>
                <line class="GoalBackground_cls-15__3DFdB" x1="682.68" y1="236.89" x2="553.79" y2="227.63"></line>
                <line class="GoalBackground_cls-16__1F5TM" x1="683.13" y1="213.11" x2="558.9" y2="196.89"></line>
                <line class="GoalBackground_cls-15__3DFdB" x1="683.13" y1="164.22" x2="549.35" y2="124.89"></line>
                <line class="GoalBackground_cls-15__3DFdB" x1="682.86" y1="115.33" x2="554.9" y2="48.45"></line>
                <line class="GoalBackground_cls-15__3DFdB" x1="683.24" y1="261.83" x2="564.24" y2="261.83"></line>
                <line class="GoalBackground_cls-15__3DFdB" x1="683.24" y1="286.5" x2="564.24" y2="286.5"></line>
                <line class="GoalBackground_cls-15__3DFdB" x1="683.24" y1="310.58" x2="564.24" y2="317.58"></line>
                <line class="GoalBackground_cls-15__3DFdB" x1="683.24" y1="334.83" x2="564.24" y2="347.83"></line>
                <line class="GoalBackground_cls-15__3DFdB" x1="683.24" y1="359.33" x2="564.24" y2="378.33"></line>
                <line class="GoalBackground_cls-15__3DFdB" x1="683.24" y1="383.92" x2="564.24" y2="408.92"></line>
                <line class="GoalBackground_cls-15__3DFdB" x1="683.24" y1="408.25" x2="564.24" y2="437.25"></line>
                <polyline class="GoalBackground_cls-15__3DFdB"
                          points="1395.27 440.45 1400.18 48.45 607.33 48.45 588.98 36.25 1418.53 36.25 1411.37 445.07"></polyline>
                <polyline class="GoalBackground_cls-15__3DFdB"
                          points="1360.23 430.06 1363.49 72.87 644.02 72.87 625.67 60.66 1381.84 60.66 1378.47 435.04"></polyline>
                <line class="GoalBackground_cls-15__3DFdB" x1="1345.15" y1="85.07" x2="1343.6" y2="425.22"></line>
                <line class="GoalBackground_cls-15__3DFdB" x1="1325.05" y1="139.56" x2="1452.6" y2="85.07"></line>
                <line class="GoalBackground_cls-15__3DFdB" x1="1324.83" y1="188.67" x2="1455.27" y2="161.33"></line>
                <line class="GoalBackground_cls-15__3DFdB" x1="1324.83" y1="236.89" x2="1453.71" y2="227.63"></line>
                <line class="GoalBackground_cls-15__3DFdB" x1="1324.38" y1="213.11" x2="1448.6" y2="196.89"></line>
                <line class="GoalBackground_cls-15__3DFdB" x1="1324.38" y1="164.22" x2="1458.16" y2="124.89"></line>
                <line class="GoalBackground_cls-15__3DFdB" x1="1324.65" y1="115.33" x2="1452.6" y2="48.45"></line>
                <line class="GoalBackground_cls-15__3DFdB" x1="1324.27" y1="261.83" x2="1443.27" y2="261.83"></line>
                <line class="GoalBackground_cls-15__3DFdB" x1="1324.27" y1="286.5" x2="1443.27" y2="286.5"></line>
                <line class="GoalBackground_cls-15__3DFdB" x1="1325.05" y1="139.56" x2="1452.6" y2="85.07"></line>
                <line class="GoalBackground_cls-15__3DFdB" x1="1324.83" y1="188.67" x2="1455.27" y2="161.33"></line>
                <line class="GoalBackground_cls-15__3DFdB" x1="1324.83" y1="236.89" x2="1453.71" y2="227.63"></line>
                <line class="GoalBackground_cls-15__3DFdB" x1="1324.38" y1="213.11" x2="1448.6" y2="196.89"></line>
                <line class="GoalBackground_cls-15__3DFdB" x1="1324.38" y1="164.22" x2="1458.16" y2="124.89"></line>
                <line class="GoalBackground_cls-15__3DFdB" x1="1324.65" y1="115.33" x2="1452.6" y2="48.45"></line>
                <line class="GoalBackground_cls-15__3DFdB" x1="1324.27" y1="261.83" x2="1443.27" y2="261.83"></line>
                <line class="GoalBackground_cls-15__3DFdB" x1="1324.27" y1="286.5" x2="1443.27" y2="286.5"></line>
                <line class="GoalBackground_cls-15__3DFdB" x1="1324.27" y1="310.58" x2="1443.27" y2="317.58"></line>
                <line class="GoalBackground_cls-15__3DFdB" x1="1324.27" y1="334.83" x2="1443.27" y2="347.83"></line>
                <line class="GoalBackground_cls-15__3DFdB" x1="1324.27" y1="359.33" x2="1443.27" y2="378.33"></line>
                <line class="GoalBackground_cls-15__3DFdB" x1="1324.27" y1="383.92" x2="1443.27" y2="408.92"></line>
                <line class="GoalBackground_cls-15__3DFdB" x1="1324.27" y1="408.25" x2="1443.27" y2="437.25"></line>
            </g>
            <polygon class="GoalBackground_cls-17__2OgH6"
                     points="353.06 504.71 406.9 504.71 576.9 454.67 553.06 454.67 353.06 504.71"></polygon>
            <polygon class="GoalBackground_cls-17__2OgH6"
                     points="1652.17 504.71 1598.33 504.71 1428.33 454.67 1452.17 454.67 1652.17 504.71"></polygon>
            <polygon class="GoalBackground_cls-17__2OgH6"
                     points="1592.17 496 403.06 496 353.06 504.71 1652.17 504.71 1592.17 496"></polygon>
            <polygon class="GoalBackground_cls-18__1DmxR"
                     points="241.28 453.89 231.47 456.32 293.07 456.32 301.59 453.89 241.28 453.89"></polygon>
            <polygon class="GoalBackground_cls-19__2ZMf5"
                     points="357.02 453.89 301.59 453.89 293.07 456.32 350.35 456.32 357.02 453.89"></polygon>
            <polygon class="GoalBackground_cls-17__2OgH6"
                     points="357.02 453.89 350.35 456.32 1654.59 456.32 1648.75 453.89 357.02 453.89"></polygon>
            <polygon class="GoalBackground_cls-19__2ZMf5"
                     points="1648.75 453.89 1654.59 456.32 1711.94 456.32 1702.42 453.89 1648.75 453.89"></polygon>
            <polygon class="GoalBackground_cls-18__1DmxR"
                     points="1762.41 453.89 1702.42 453.89 1711.94 456.32 1773.82 456.32 1762.41 453.89"></polygon>
            <polyline class="GoalBackground_cls-11__2gjlw"
                      points="403.43 500.35 683.24 420.02 1324.69 420.02 1606.64 500.35"></polyline>
            <path class="GoalBackground_cls-20__2kzVT"
                  d="M1466.8,0H539.49a4.78,4.78,0,0,0-4.78,5l18.35,450.29h24.15l-8-431.6h867.22l-8,431.6h24.14L1471,4.39A4.22,4.22,0,0,0,1466.8,0Z"></path>
            <polygon class="GoalBackground_cls-21__1QdUs"
                     points="552.92 11.33 565.05 455.26 577.21 455.26 569.24 23.66 1436.46 23.66 1428.49 455.26 1441.98 455.26 1453.38 11.33 552.92 11.33"></polygon>
        </g>
    </g>
</svg>