<svg xmlns="http://www.w3.org/2000/svg" viewBox="0 0 66 66"><defs><style>.cls-1{fill:#56718d;}</style></defs><title>ano</title><g id="Layer_2" data-name="Layer 2"><g id="characters"><path class="cls-1" d="M33,0A33,33,0,1,0,66,33,33,33,0,0,0,33,0Zm-.67,50.73a4.87,4.87,0,1,1,4.87-4.87A4.87,4.87,0,0,1,32.33,50.73Zm4.24-13.91v.41a1.7,1.7,0,0,1-1.69,1.69h-5.1a1.68,1.68,0,0,1-1.68-1.69v-.69c0-4.34,3.29-6.08,5.78-7.48,2.14-1.2,3.45-2,3.45-3.6,0-2.1-2.68-3.49-4.84-3.49-2.75,0-4.06,1.27-5.82,3.48a1.7,1.7,0,0,1-2.34.29l-3-2.3a1.69,1.69,0,0,1-.36-2.31A13.62,13.62,0,0,1,33,14.73c6,0,12.34,4.66,12.34,10.8C45.37,33.68,36.57,33.81,36.57,36.82Z"/></g></g></svg>