<svg xmlns="http://www.w3.org/2000/svg" viewBox="0 0 66 66"><defs><style>.cls-1{fill:#dadada;}.cls-2{fill:#540700;}.cls-3{fill:#bdc800;}.cls-4{fill:#abb200;}.cls-5{fill:#979c04;}.cls-6{fill:#fff;}.cls-7{fill:#797901;}.cls-8{fill:#ffde00;}</style></defs><title>m1</title><g id="Layer_2" data-name="Layer 2"><g id="characters"><circle class="cls-1" cx="33" cy="33" r="33"/><path class="cls-2" d="M48.93,18.71a10.62,10.62,0,0,0,.16-1.86,5.41,5.41,0,0,0-1.27-3.63c1.06.44,2.1.9,3.14,1.39a16.07,16.07,0,0,0-14.4-8,13.73,13.73,0,0,0,4.12-1.48A28.8,28.8,0,0,0,25.09,7.8a3.48,3.48,0,0,0-.36.22c.41-.65.82-1.29,1.24-1.93a23,23,0,0,0-4.89,4.12,10.63,10.63,0,0,0-2.51,5.25,21.34,21.34,0,0,1,6.63-2.41C35,11,44.38,13.68,48.93,18.71Z"/><path class="cls-3" d="M50.63,57.18c0,.31-.07.61-.1.91C50.56,57.79,50.6,57.49,50.63,57.18Z"/><path class="cls-3" d="M14.93,60.42c-.36-3-.81-6.85-1.21-11.14C14.12,53.57,14.57,57.47,14.93,60.42Z"/><path class="cls-3" d="M50.28,60.15c0,.27-.07.54-.11.79C50.21,60.69,50.24,60.43,50.28,60.15Z"/><path class="cls-3" d="M15,60.63h0l0-.15Z"/><path class="cls-3" d="M50.45,58.72c0,.29-.07.57-.1.85C50.38,59.29,50.42,59,50.45,58.72Z"/><path class="cls-3" d="M51.46,48.26c0,.42-.07.84-.1,1.26C51.39,49.1,51.42,48.68,51.46,48.26Z"/><path class="cls-3" d="M51.75,43.92l-.12,1.82Z"/><path class="cls-3" d="M51.93,28.63c-.21-3.65-.68-6.54-1.53-8a11.8,11.8,0,0,0-1.47-2C44.38,13.68,35,11,25.2,13.05a21.34,21.34,0,0,0-6.63,2.41C14.43,18,13,22.18,12.72,29.24a4.28,4.28,0,0,1,1.44,2.63,6.28,6.28,0,0,1-1.36,4.38c.12,3,.32,6,.56,8.91,3.08,6.54,7.51,12.46,14.08,14.65,6.75,2.25,11.87,0,15.93-4.15a1,1,0,0,1-.17-.86,2,2,0,0,1,.47-.85,4.47,4.47,0,0,1,2.38-1.54,61.51,61.51,0,0,0,5.81-10.56c0,.66-.07,1.31-.11,2,.11-1.94.2-3.89.25-5.79A6.89,6.89,0,0,1,51.93,28.63ZM36.79,13.22c3,.54,5.3,1.61,5.16,2.4s-2.69,1-5.68.43-5.3-1.61-5.15-2.4S33.8,12.67,36.79,13.22ZM31.73,40c-3.31,2.25-10.7,1.44-11.61-5s.44-11.68,3.9-13c4.26-1.69,7.31,1.57,9,4.82S35,37.73,31.73,40ZM21.59,18.85l-3.08-.74A15.52,15.52,0,0,1,28,19s-8.6,1.32-11.56,7.32A9.24,9.24,0,0,1,18.51,21l-3.32.64S19.54,19.1,21.59,18.85ZM45.55,47a5.66,5.66,0,0,0-.6-.6,3.79,3.79,0,0,0-.35-.25,82.75,82.75,0,0,1-9.05,7.1c-3.39,2-6.32,2-9.41-.68-1.16-1-2.65-2.48-4.05-4h0l-.05,0-.74-.78a2.73,2.73,0,0,1-.23-.25L20.54,47l-.25-.27-.49-.53L19.61,46l-1.1-1.21-.17-.19-.25-.28-.1-.11,0,0c-.69.19-1.37.4-2.08.62a6.07,6.07,0,0,1,5.05-1.3c-.79.17-1.55.31-2.3.5l.17.12h0l.94.65c2,1.35,5.63,3.83,7.29,4.9s8.74.41,13.75-1.49h0c.41-.15.81-.32,1.19-.49h0c.37-.17.72-.34,1.06-.52l.17-.11c.28-.16.55-.31.79-.47l.54-.42-.32-.23a7.68,7.68,0,0,0-.81-.42,2.27,2.27,0,0,1,1.82.54,2.43,2.43,0,0,1,.61.78c.14.29.17.58.45.75C46,47.58,45.72,47.19,45.55,47ZM39.14,42.2c-6.5-.71-5-6.56-3.37-9.73s3.17-5.55,7.39-4.28c2.08.63,2.79,2.67,3.12,6S45.64,42.91,39.14,42.2Zm8.49-13.48c-1.65-4.38-7-6.12-7-6.12a10.52,10.52,0,0,1,8.16.46l-2,.57,2.66,2.19-2.22-.16Z"/><path class="cls-3" d="M50.81,55.54c0,.33-.07.67-.11,1C50.74,56.21,50.77,55.87,50.81,55.54Z"/><path class="cls-3" d="M51.6,46.24c0,.47-.06.94-.1,1.4C51.54,47.18,51.57,46.71,51.6,46.24Z"/><path class="cls-3" d="M51.14,52.05c0,.36-.06.73-.1,1.09C51.08,52.78,51.11,52.41,51.14,52.05Z"/><path class="cls-3" d="M13.71,49.23l-.09-.95Z"/><path class="cls-3" d="M51.3,50.18c0,.39-.06.79-.1,1.18C51.24,51,51.27,50.57,51.3,50.18Z"/><path class="cls-3" d="M51,53.83c0,.36-.07.7-.11,1.05C50.91,54.53,50.94,54.19,51,53.83Z"/><path class="cls-3" d="M13.62,48.19c-.09-1-.18-2-.26-3C13.44,46.19,13.53,47.2,13.62,48.19Z"/><path class="cls-4" d="M46.05,52.41a1.14,1.14,0,0,1,1.23.66,1.64,1.64,0,0,1,0,1.51,2.63,2.63,0,0,1-1.14,1.05,3.69,3.69,0,0,1-1.85.38,1.23,1.23,0,0,1-.85-.3s0,0,0-.05c-4.06,4.19-9.18,6.4-15.93,4.15-6.57-2.19-11-8.11-14.08-14.65h0c.08,1,.17,2,.26,3v.09l.09.95v.05c.4,4.29.85,8.19,1.21,11.14v.06l0,.15a32.94,32.94,0,0,0,35.18.56l0-.25c0-.25.07-.52.11-.79s0-.38.07-.58.07-.56.1-.85,0-.42.08-.63.07-.6.1-.91,0-.43.07-.65.07-.66.11-1l.06-.66c0-.35.07-.69.11-1.05s0-.45.06-.69.07-.73.1-1.09l.06-.69c0-.39.07-.79.1-1.18l.06-.66c0-.42.06-.84.1-1.26,0-.21,0-.41,0-.62,0-.46.07-.93.1-1.4l0-.5.12-1.82v-.1c0-.66.07-1.31.11-2A61.51,61.51,0,0,1,46.05,52.41Zm1,6.25a2.8,2.8,0,0,1-1.7.8,2,2,0,0,1-1-.09.94.94,0,0,1-.59-.83,1.11,1.11,0,0,1,.39-.74A3,3,0,0,1,46.66,57a1,1,0,0,1,.64.45A1.13,1.13,0,0,1,47,58.66Z"/><path class="cls-5" d="M24,21.92c-3.46,1.37-4.81,6.58-3.9,13s8.3,7.27,11.61,5,3-10,1.28-13.25S28.28,20.23,24,21.92Zm9,10.17c.11,2.68-.46,5.51-2.15,6.66-2.84,1.94-9.18,1.25-10-4.3a23.62,23.62,0,0,1-.23-3.85c-.11-3.71,1.1-6.55,3.57-7.4,3.66-1.27,6.28,1.18,7.72,3.6A10.1,10.1,0,0,1,33,32.09Z"/><path class="cls-1" d="M30.88,36.7C28,38.39,21.7,37.79,20.92,33a19.85,19.85,0,0,1-.23-2.35,23.62,23.62,0,0,0,.23,3.85c.78,5.55,7.12,6.24,10,4.3,1.69-1.15,2.26-4,2.15-6.66C32.92,34,32.28,35.87,30.88,36.7Z"/><path class="cls-6" d="M24.26,23.2c-2.47.85-3.68,3.69-3.57,7.4A19.85,19.85,0,0,0,20.92,33c.78,4.84,7.12,5.44,10,3.75,1.4-.83,2-2.67,2.15-4.61A10.1,10.1,0,0,0,32,26.8C30.54,24.38,27.92,21.93,24.26,23.2Zm5.81,13.21a2.07,2.07,0,1,1,2.08-2.07A2.07,2.07,0,0,1,30.07,36.41Z"/><path class="cls-5" d="M43.16,28.19c-4.22-1.27-5.8,1.1-7.39,4.28s-3.13,9,3.37,9.73,7.46-4.73,7.14-8S45.24,28.82,43.16,28.19ZM39.3,41.24c-5.62-.61-4.29-5.68-2.91-8.43,1.15-2.28,2.29-4.08,4.75-4a5.87,5.87,0,0,1,1.85.23c1.64.45,2.19,1.9,2.45,4.24,0,.3,0,.63,0,1v0C45.76,37.14,44.92,41.85,39.3,41.24Z"/><path class="cls-1" d="M45.48,34.26c0,2.3-1.2,5.19-5.64,4.75-5.09-.5-3.89-4.66-2.64-6.91,1-1.77,2-3.18,3.94-3.27-2.46-.1-3.6,1.7-4.75,4-1.38,2.75-2.71,7.82,2.91,8.43s6.46-4.1,6.18-7Z"/><path class="cls-6" d="M37.2,32.1C36,34.35,34.75,38.51,39.84,39c4.44.44,5.59-2.45,5.64-4.75,0-.33,0-.66,0-1-.26-2.34-.81-3.79-2.45-4.24a5.87,5.87,0,0,0-1.85-.23C39.16,28.92,38.18,30.33,37.2,32.1ZM40,35.26a1.91,1.91,0,1,1-1.9-1.9A1.91,1.91,0,0,1,40,35.26Z"/><path class="cls-2" d="M30.07,32.27a.75.75,0,1,1-.75.75.74.74,0,0,1,.75-.75,2.07,2.07,0,1,0,2.08,2.07A2.07,2.07,0,0,0,30.07,32.27Z"/><path class="cls-6" d="M29.32,33a.75.75,0,1,0,.75-.75A.75.75,0,0,0,29.32,33Z"/><path class="cls-2" d="M36.21,35.26a1.91,1.91,0,1,0,1.91-1.9A1.92,1.92,0,0,0,36.21,35.26Zm2.59-1a.75.75,0,1,1-.75-.75A.75.75,0,0,1,38.8,34.23Z"/><path class="cls-2" d="M16.44,26.35C19.4,20.35,28,19,28,19a15.52,15.52,0,0,0-9.49-.92l3.08.74c-2.05.25-6.4,2.76-6.4,2.76L18.51,21A9.24,9.24,0,0,0,16.44,26.35Z"/><path class="cls-2" d="M46.74,23.63l2-.57a10.52,10.52,0,0,0-8.16-.46s5.35,1.74,7,6.12l-.45-3.06,2.22.16Z"/><path class="cls-6" d="M19.61,46l-1.1-1.21Z"/><path class="cls-6" d="M43.08,47.12l.17-.11Z"/><path class="cls-6" d="M20.29,46.7l-.49-.53Z"/><path class="cls-6" d="M18.81,44.08h0Z"/><path class="cls-6" d="M18.34,44.56l-.25-.28Z"/><path class="cls-6" d="M42,47.65h0Z"/><path class="cls-6" d="M21.07,47.53,20.54,47Z"/><path class="cls-6" d="M40.9,49.29l-1.77.18,1.67-1.33c-5,1.9-12,2.63-13.75,1.49s-5.31-3.55-7.29-4.9l.07,0c1.13,1,2,2.39,3.38,3.79l-1.12,0c1.4,1.47,2.89,3,4.05,4,3.09,2.64,6,2.69,9.41.68a82.75,82.75,0,0,0,9.05-7.1h0C44.05,46.62,42.6,47.9,40.9,49.29Z"/><path class="cls-6" d="M44.58,46.12l-.54.42.54-.42Z"/><path class="cls-6" d="M22,48.56l-.74-.78Z"/><path class="cls-6" d="M18,44.14l0,0,0,0Z"/><path class="cls-2" d="M19.83,44.77l-.07,0-.94-.65h0L18.64,44l-.25.06-.42.12,0,0,.1.11.25.28.17.19L19.61,46l.19.21.49.53.25.27.53.56a2.73,2.73,0,0,0,.23.25l.74.78.05,0h0l1.12,0C21.87,47.16,21,45.79,19.83,44.77Z"/><path class="cls-2" d="M40.9,49.29c1.7-1.39,3.15-2.67,3.7-3.15l0,0-.54.42c-.24.16-.51.31-.79.47l-.17.11c-.34.18-.69.35-1.06.52h0c-.38.17-.78.34-1.19.49h0l-1.67,1.33Z"/><path class="cls-7" d="M18.39,44l.25-.06c.75-.19,1.51-.33,2.3-.5a6.07,6.07,0,0,0-5.05,1.3c.71-.22,1.39-.43,2.08-.62h0Z"/><path class="cls-7" d="M45.88,46.79a2.43,2.43,0,0,0-.61-.78,2.27,2.27,0,0,0-1.82-.54,7.68,7.68,0,0,1,.81.42l.32.23h0l0,0h0a3.79,3.79,0,0,1,.35.25,5.66,5.66,0,0,1,.6.6c.17.2.41.59.78.55C46.05,47.37,46,47.08,45.88,46.79Z"/><path class="cls-7" d="M44.26,56a3.69,3.69,0,0,0,1.85-.38,2.63,2.63,0,0,0,1.14-1.05,1.64,1.64,0,0,0,0-1.51,1.14,1.14,0,0,0-1.23-.66A4.47,4.47,0,0,0,43.67,54a2,2,0,0,0-.47.85,1,1,0,0,0,.17.86s0,0,0,.05A1.23,1.23,0,0,0,44.26,56Z"/><path class="cls-7" d="M46.66,57a3,3,0,0,0-2.59.84,1.11,1.11,0,0,0-.39.74.94.94,0,0,0,.59.83,2,2,0,0,0,1,.09,2.8,2.8,0,0,0,1.7-.8,1.13,1.13,0,0,0,.28-1.25A1,1,0,0,0,46.66,57Z"/><path class="cls-6" d="M37.31,34.23a.75.75,0,1,0,.74-.75A.75.75,0,0,0,37.31,34.23Z"/><path class="cls-8" d="M36.27,16.05c3,.55,5.53.35,5.68-.43s-2.17-1.86-5.16-2.4-5.53-.35-5.67.43S33.28,15.51,36.27,16.05Z"/><path class="cls-3" d="M14.16,31.87a4.28,4.28,0,0,0-1.44-2.63A8.07,8.07,0,0,0,7,27a4.07,4.07,0,0,0-1.93.8A7.65,7.65,0,0,0,2.31,33.2,6,6,0,0,0,2.92,37,5.2,5.2,0,0,0,8,39a7.35,7.35,0,0,0,4.8-2.76A6.28,6.28,0,0,0,14.16,31.87Zm-5-.91a6.22,6.22,0,0,0-1.9.51,6.15,6.15,0,0,0-2.82,2.61,4.11,4.11,0,0,1,5.88-3.77,1.23,1.23,0,0,1,.62.52C10.57,31.14,9.63,30.9,9.15,31Z"/><path class="cls-3" d="M55.58,27.09a5.16,5.16,0,0,0-3.65,1.54A6.89,6.89,0,0,0,52,38a5.8,5.8,0,0,0,.87.68,5.92,5.92,0,0,0,6.66-.41,6.31,6.31,0,0,0-4-11.21ZM58.37,33a3.08,3.08,0,0,0-2.29-1.85c-.43-.11-2.3.09-2.49-.37s1.73-.91,2.1-.92A3.17,3.17,0,0,1,58,30.7,2,2,0,0,1,58.37,33Z"/><path class="cls-5" d="M10.31,30.31a4.11,4.11,0,0,0-5.88,3.77,6.15,6.15,0,0,1,2.82-2.61A6.22,6.22,0,0,1,9.15,31c.48-.06,1.42.18,1.78-.13A1.23,1.23,0,0,0,10.31,30.31Z"/><path class="cls-5" d="M55.69,29.87c-.37,0-2.34.32-2.1.92s2.06.26,2.49.37A3.08,3.08,0,0,1,58.37,33,2,2,0,0,0,58,30.7,3.17,3.17,0,0,0,55.69,29.87Z"/></g></g></svg>