<svg xmlns="http://www.w3.org/2000/svg" viewBox="0 0 66.01 66.01"><defs><style>.cls-1{fill:#dadada;}.cls-2{fill:#3e2b0d;}.cls-3{fill:#f39200;}.cls-4{fill:#ffd69f;}.cls-5{fill:#ffe6c5;}.cls-6{fill:#390205;}.cls-7{fill:#fff;}.cls-8{fill:#b66e00;}.cls-9{fill:#f7ac34;}</style></defs><title>m10</title><g id="Layer_2" data-name="Layer 2"><g id="characters"><circle class="cls-1" cx="33.01" cy="33.01" r="33"/><path class="cls-2" d="M60.77,38.66l-4.69-2c.35,1.68.68,3.47,1,5.37Z"/><path class="cls-2" d="M10.68,41.11,6.17,44.6l4.9,1.52c-.08-.87-.14-1.73-.2-2.55S10.75,41.89,10.68,41.11Z"/><path class="cls-3" d="M57.05,42c-.29-1.9-.62-3.69-1-5.37C54.27,28,51.89,22.38,50.55,21.13c-.72-.67-2.82-1.27-5.86-1.65,0,.16,0,.31,0,.47a13.56,13.56,0,0,1-.16,2.63.75.75,0,0,1,.06.32c-.09,3-1.34,6.73-5.18,7.69s-7.16-2.95-7.16-2.95a6.78,6.78,0,0,1-6.75,3.54,5.88,5.88,0,0,1-5.13-4.87,9.15,9.15,0,0,1-1.15-4.94c-4.58,1.31-7.36,3.07-8.38,5.15-1.48,3-.83,6.5-.19,14.59.07.78.13,1.59.19,2.46s.12,1.68.2,2.55c.34,4.05.86,8.58,1.39,12.7a33.79,33.79,0,0,0,6.28,3.94c2.16-8.28,8.92-14.33,16.93-14.33,7.15,0,13.29,4.82,16.07,11.74a33.15,33.15,0,0,0,6.57-6A118.37,118.37,0,0,0,57.05,42ZM44,45.21c-4.3.14-7.72-3.51-11.38-3.85s-9.63,4-13.51,4.8-3.9-5.64-.15-9.93c2.16-2.48,3.84-3.07,5.32-2.84h0a5.29,5.29,0,0,1,1.52.53l0,0,.69.39.07.05.66.44a11.25,11.25,0,0,0,1.76,1,9.76,9.76,0,0,0,3.16.82,16.37,16.37,0,0,0,2.73,0c.51,0,1-.09,1.62-.17h0a6.11,6.11,0,0,0,.81-.16l.23-.06c.18,0,.36-.1.52-.16l.22-.09a3.69,3.69,0,0,0,.53-.24l.11,0c.2-.11.4-.22.58-.34l.14-.1L40,35l.15-.12.38-.33.08-.08.45-.45h0c.15-.15.29-.31.43-.47h0a15.11,15.11,0,0,1,1.82-1.84c1.85-1.41,3.93-1.64,6.21,3.63S48.25,45.07,44,45.21ZM50.32,51a1.62,1.62,0,1,1,1.36-1.6A1.5,1.5,0,0,1,50.32,51Zm1.36-4.33a1.07,1.07,0,1,1,1,1.32A1.2,1.2,0,0,1,51.68,46.71Zm1.5,5.22a1.17,1.17,0,1,1,.94-1.14A1.05,1.05,0,0,1,53.18,51.93Z"/><path class="cls-4" d="M35.67,48.43c-8,0-14.77,6-16.93,14.33.61.29,1.23.56,1.86.82,2.33-6.86,8.19-11.75,15.07-11.75,6.12,0,11.45,3.86,14.19,9.55.64-.38,1.26-.78,1.88-1.21C49,53.25,42.82,48.43,35.67,48.43Z"/><path class="cls-5" d="M35.67,51.83c-6.88,0-12.74,4.89-15.07,11.75a33,33,0,0,0,29.26-2.2C47.12,55.69,41.79,51.83,35.67,51.83Z"/><path class="cls-6" d="M37.31,36.31l.23-.06Z"/><path class="cls-6" d="M38.06,36.09l.22-.09Z"/><path class="cls-6" d="M40.64,34.44l-.08.08Z"/><path class="cls-6" d="M26.57,34.38l.66.44Z"/><path class="cls-6" d="M29,35.8a9.76,9.76,0,0,0,3.16.82A9.76,9.76,0,0,1,29,35.8Z"/><path class="cls-6" d="M49.56,35.3c-2.28-5.27-4.36-5-6.21-3.63a15.11,15.11,0,0,0-1.82,1.84l-.38,2.05a13.21,13.21,0,0,1-8.38,3.9,9.26,9.26,0,0,1-8.12-3.78l-.41-2.29c-1.48-.23-3.16.36-5.32,2.84-3.75,4.29-3.73,10.77.15,9.93s9.84-5.14,13.51-4.8,7.08,4,11.38,3.85S51.84,40.56,49.56,35.3Z"/><path class="cls-6" d="M36.5,36.47h0c-.57.08-1.11.14-1.62.17.51,0,1-.09,1.62-.17Z"/><path class="cls-6" d="M25.81,33.94l.69.39Z"/><path class="cls-6" d="M40,35l.15-.12Z"/><path class="cls-6" d="M41.09,34h0Z"/><path class="cls-6" d="M24.24,33.39a5.29,5.29,0,0,1,1.52.53A5.29,5.29,0,0,0,24.24,33.39Z"/><path class="cls-6" d="M38.81,35.76l.11,0Z"/><path class="cls-6" d="M39.5,35.37l.14-.1Z"/><path class="cls-7" d="M32.77,39.46a13.21,13.21,0,0,0,8.38-3.9l.38-2.05h0c-.14.16-.28.32-.43.47h0l-.45.45-.08.08-.38.33L40,35l-.39.3-.14.1c-.18.12-.38.23-.58.34l-.11,0a3.69,3.69,0,0,1-.53.24l-.22.09c-.16.06-.34.11-.52.16l-.23.06a6.11,6.11,0,0,1-.81.16h0c-.57.08-1.11.14-1.62.17a16.37,16.37,0,0,1-2.73,0A9.76,9.76,0,0,1,29,35.8a11.25,11.25,0,0,1-1.76-1l-.66-.44-.07-.05-.69-.39,0,0a5.29,5.29,0,0,0-1.52-.53h0l.41,2.29A9.26,9.26,0,0,0,32.77,39.46Z"/><path class="cls-4" d="M50.32,47.85a1.62,1.62,0,1,0,1.36,1.59A1.49,1.49,0,0,0,50.32,47.85Z"/><path class="cls-4" d="M53.75,46.71a1.07,1.07,0,1,0-1,1.32A1.2,1.2,0,0,0,53.75,46.71Z"/><path class="cls-4" d="M53.18,49.64a1.17,1.17,0,1,0,.94,1.15A1.06,1.06,0,0,0,53.18,49.64Z"/><path class="cls-8" d="M38.59,28.34c-3.19.11-5.91-1.94-6.55-6.41-.56,5.18-3.53,7.44-7,7.19a5.8,5.8,0,0,1-4.68-2.81,5.88,5.88,0,0,0,5.13,4.87,6.78,6.78,0,0,0,6.75-3.54s3.32,3.91,7.16,2.95,5.09-4.73,5.18-7.69a.75.75,0,0,0-.06-.32C43.92,26.36,41.52,28.24,38.59,28.34Z"/><path class="cls-1" d="M38.52,26.15a6,6,0,0,1-6.42-5c0,.09,0,.19,0,.29s0,.32-.05.48c.64,4.47,3.36,6.52,6.55,6.41,2.93-.1,5.33-2,6-5.76A13.56,13.56,0,0,0,44.72,20c0-.16,0-.31,0-.47v-.09C44.59,23.83,41.9,26,38.52,26.15Z"/><path class="cls-7" d="M32.18,20.27c0,.15,0,.3,0,.45l0,.44a6,6,0,0,0,6.42,5c3.38-.12,6.07-2.32,6.16-6.76,0-.2,0-.41,0-.62-.17-4.85-4-8.21-7.53-8.09-2.86.1-4.66,2.44-5.16,5.9A13.77,13.77,0,0,1,32.18,20.27Zm6.64.76a2.94,2.94,0,1,1-3-2.83A2.94,2.94,0,0,1,38.82,21Z"/><path class="cls-9" d="M33,21.23a2.94,2.94,0,1,0,2.84-3A3,3,0,0,0,33,21.23Zm3.33-2.34a.65.65,0,0,1,.11.81,1.52,1.52,0,1,1-1.11,0,.66.66,0,0,1,1-.85Z"/><path class="cls-6" d="M35.37,19.86a.54.54,0,0,1-.09-.12,1.53,1.53,0,1,0,1.11,0,.35.35,0,0,1-.08.13A.66.66,0,0,1,35.37,19.86Z"/><path class="cls-7" d="M35.28,19.74a.54.54,0,0,0,.09.12.66.66,0,0,0,.94,0,.35.35,0,0,0,.08-.13.65.65,0,0,0-.11-.81.66.66,0,0,0-1,.85Z"/><path class="cls-1" d="M20.4,26.31a5.8,5.8,0,0,0,4.68,2.81c3.43.25,6.4-2,7-7.19,0-.16,0-.32.05-.48s0-.2,0-.29l0-.44c-.52,4.52-3.47,6.46-6.89,6.21s-6-2.57-5.89-7c0,.19-.05.37-.06.56s0,.59,0,.88A9.15,9.15,0,0,0,20.4,26.31Z"/><path class="cls-7" d="M25.24,26.93c3.42.25,6.37-1.69,6.89-6.21,0-.15,0-.3,0-.45A13.77,13.77,0,0,0,32,16.58c-.58-2.9-2.21-4.86-4.77-5-3.53-.27-7.48,2.94-7.84,7.78,0,.21,0,.42,0,.62C19.26,24.36,21.86,26.67,25.24,26.93Zm3.05-7.83a2.93,2.93,0,1,1-3.15,2.7A2.94,2.94,0,0,1,28.29,19.1Z"/><path class="cls-9" d="M25.14,21.8a2.94,2.94,0,1,0,3.15-2.7A2.94,2.94,0,0,0,25.14,21.8Zm3.57-2a.66.66,0,0,1,0,.82,1.55,1.55,0,0,1,.86,1.49,1.52,1.52,0,1,1-2-1.57.66.66,0,0,1,.15-.81A.68.68,0,0,1,28.71,19.83Z"/><path class="cls-6" d="M27.7,20.7a.35.35,0,0,1-.08-.13,1.52,1.52,0,1,0,2,1.57,1.55,1.55,0,0,0-.86-1.49.38.38,0,0,1-.09.12A.67.67,0,0,1,27.7,20.7Z"/><path class="cls-7" d="M27.77,19.76a.66.66,0,0,0-.15.81.35.35,0,0,0,.08.13.67.67,0,0,0,.94.07.38.38,0,0,0,.09-.12.66.66,0,0,0,0-.82A.68.68,0,0,0,27.77,19.76Z"/><polygon class="cls-2" points="28.81 7.94 27.61 5.61 18.57 12.74 28.81 7.94"/><polygon class="cls-2" points="43.48 9.61 33.92 5.19 33.55 7.26 42.95 10.09 43.48 9.61"/></g></g></svg>