<svg xmlns="http://www.w3.org/2000/svg" viewBox="0 0 66.01 66.01"><defs><style>.cls-1{fill:#dadada;}.cls-2{fill:#993080;}.cls-3{fill:#732460;}.cls-4{fill:#3e5ace;}.cls-5{fill:#fff;}.cls-6{fill:#2441a0;}.cls-7{fill:#5f0b11;}.cls-13,.cls-8{fill:#6789f4;}.cls-9{fill:#f7ac34;}.cls-10{fill:#390205;}.cls-11{fill:#fc72bb;opacity:0.5;}.cls-12{fill:#4d1840;}.cls-13{opacity:0.35;}</style></defs><title>m11</title><g id="Layer_2" data-name="Layer 2"><g id="characters"><circle class="cls-1" cx="33.01" cy="33.01" r="33"/><path class="cls-2" d="M4.69,23.47c0-.15.1-.3.16-.44C4.79,23.17,4.74,23.32,4.69,23.47Z"/><path class="cls-2" d="M4.52,24.06c0-.15.07-.29.11-.43C4.59,23.77,4.55,23.91,4.52,24.06Z"/><path class="cls-2" d="M64.49,24.48a5.92,5.92,0,0,1,.09,1A5.92,5.92,0,0,0,64.49,24.48Z"/><path class="cls-2" d="M64.22,23.43a6.67,6.67,0,0,1,.26,1A6.37,6.37,0,0,0,64.22,23.43Z"/><path class="cls-2" d="M4.34,25.52c0-.22,0-.43,0-.65C4.35,25.09,4.34,25.3,4.34,25.52Z"/><path class="cls-2" d="M5.18,22.37c.09-.15.19-.3.29-.45C5.37,22.07,5.27,22.22,5.18,22.37Z"/><path class="cls-2" d="M9.62,17.43a6.48,6.48,0,0,1-.06-.77A6.48,6.48,0,0,0,9.62,17.43Z"/><path class="cls-2" d="M5.51,21.87c.11-.16.23-.31.35-.46C5.74,21.56,5.62,21.71,5.51,21.87Z"/><path class="cls-2" d="M4.4,24.7c0-.16,0-.31.07-.46C4.44,24.39,4.42,24.54,4.4,24.7Z"/><path class="cls-2" d="M4.91,22.91c.07-.15.14-.3.22-.45C5.05,22.61,5,22.76,4.91,22.91Z"/><path class="cls-2" d="M11.41,29.49c-.51,1.31,0,3.13,0,3.86a6.9,6.9,0,0,0,5.65,3.37,6.66,6.66,0,0,0,5.72,3q.17-.73.36-1.41c-4.94-2.8-14.1-9.86-9.7-9,2.64.54,6.24,2.62,9.18,4.56a9.94,9.94,0,0,1,0-3.05c0-.15.05-.3.08-.45s0-.34.05-.51c.52-3.95,3.9-6.39,6.79-6,2.08.27,3.33,1.95,3.66,4.35.57-2.8,2.16-4.64,4.51-4.58,2.9.06,5.87,3,5.78,7,0,.12,0,.22,0,.34s0,.42,0,.63a11.3,11.3,0,0,1-.21,1.94c2.27-2.39,5.46-5,8.85-5.36,5.77-.61.79,5.75-8.82,8.63a21.06,21.06,0,0,1,1,2.38c2.55-.35,4.89-1.3,6.31-3.77a8.35,8.35,0,0,0,4.88-1.09c1.46-1.45,2.91-2.91,3.2-4.75a8.51,8.51,0,0,0,5.58-6.17,6.34,6.34,0,0,0-5.5-4.23,5.32,5.32,0,0,0,.64-2.54,1.8,1.8,0,0,1,0,.22,7.65,7.65,0,0,0-11.12-2.83,4.38,4.38,0,0,0-2.5-5.63,5.76,5.76,0,0,0-6.22,1.84,5.57,5.57,0,0,0-4.89-6A5.57,5.57,0,0,0,28.83,9.4a5.5,5.5,0,0,0-9.12,5.5,7.39,7.39,0,0,0-6.55-1.19,5.64,5.64,0,0,0-3.54,3.72,5.34,5.34,0,0,0,.58,1.77,6.35,6.35,0,0,0-4.32,2.19,6,6,0,0,1,.42-.45A9,9,0,0,0,11.41,29.49ZM37,18.83l5.83,5-6.65-2.78Zm-7.76-.77L30.11,20l-6.95,3.94Z"/><path class="cls-3" d="M61.34,35.52a5.73,5.73,0,0,0-1.5-3.87,6.33,6.33,0,0,0,4.74-6.13,5.92,5.92,0,0,0-.09-1,.07.07,0,0,0,0-.05,6.67,6.67,0,0,0-.26-1h0a8.51,8.51,0,0,1-5.58,6.17c-.29,1.84-1.74,3.3-3.2,4.75a8.35,8.35,0,0,1-4.88,1.09c-1.42,2.47-3.76,3.42-6.31,3.77a44,44,0,0,1,1.55,6.61c0,.16.05.32.08.48a5.52,5.52,0,0,0,1.68.26,5.78,5.78,0,0,0,5.78-5.71,5.68,5.68,0,0,0,2.22.45A5.78,5.78,0,0,0,61.34,35.52Z"/><path class="cls-3" d="M17.09,36.72a6.9,6.9,0,0,1-5.65-3.37c0-.73-.54-2.55,0-3.86A9,9,0,0,1,6.3,20.94a6,6,0,0,0-.42.45l0,0c-.12.15-.24.3-.35.46l0,.05c-.1.15-.2.3-.29.45a.41.41,0,0,1,0,.09c-.08.15-.15.3-.22.45L4.85,23c-.06.14-.11.29-.16.44l-.06.16c0,.14-.08.28-.11.43a1.21,1.21,0,0,0,0,.18c0,.15,0,.3-.07.46l0,.17c0,.22,0,.43,0,.65a6.33,6.33,0,0,0,4.74,6.13,5.77,5.77,0,0,0,4.28,9.65,5.64,5.64,0,0,0,2.22-.45,5.78,5.78,0,0,0,5.78,5.71,4.9,4.9,0,0,0,.67-.07,40.79,40.79,0,0,1,.78-6.77A6.66,6.66,0,0,1,17.09,36.72Z"/><path class="cls-4" d="M13.47,29.36c-4.4-.91,4.76,6.15,9.7,9a13.73,13.73,0,0,1,.64-1.78,5.71,5.71,0,0,1-1.16-2.61C19.71,32,16.11,29.9,13.47,29.36Z"/><path class="cls-4" d="M52.11,28.2c-3.39.37-6.58,3-8.85,5.36a8,8,0,0,1-.68,2,13.28,13.28,0,0,1,.71,1.3C52.9,34,57.88,27.59,52.11,28.2Z"/><path class="cls-4" d="M44.25,39.21a21.06,21.06,0,0,0-1-2.38,13.28,13.28,0,0,0-.71-1.3,4.81,4.81,0,0,1-4.52,2.67c-2.63-.06-4.75-1.89-5.06-5.61-.68,4.26-3.23,6-6,5.62a4.84,4.84,0,0,1-3.15-1.68,13.73,13.73,0,0,0-.64,1.78q-.2.67-.36,1.41A40.79,40.79,0,0,0,22,46.49c-.05,1.25-.09,2.56-.09,4,0,4.23.09,9.06.22,13.7a33,33,0,0,0,25.56-1.63c-.54-6-1.19-12.13-1.84-16.24,0-.16-.05-.32-.08-.48A44,44,0,0,0,44.25,39.21Zm-1,10.7a.86.86,0,0,1-1.2.27A.85.85,0,0,1,41.77,49,.86.86,0,0,1,43,48.71.87.87,0,0,1,43.24,49.91ZM33.16,38.63c1.31,0,2.38,1.39,2.38,3.11s-1.07,3.11-2.38,3.11-2.38-1.39-2.38-3.11S31.84,38.63,33.16,38.63Zm2.48,18.53a3.39,3.39,0,0,1-2.2.37c-.37-.07-.72-.17-1.07-.27a5.08,5.08,0,0,1-1-.38A2.92,2.92,0,0,1,30,55.16l.05,0a10.52,10.52,0,0,0,1.54,1.39,3.19,3.19,0,0,0,.87.57,2.29,2.29,0,0,0,1,.15,4.79,4.79,0,0,0,1.94-.56A5.35,5.35,0,0,0,37,55.44l0,0A3,3,0,0,1,35.64,57.16Zm-1.72-2c-2,.36-3.55-1.23-4.72-3.43h0c-.12-.22-.23-.45-.34-.68l0-.06-.29-.66,0-.07c-.1-.23-.19-.46-.28-.7v0a31.48,31.48,0,0,1-1-3l0,0c-.06-.22-.11-.44-.17-.66l0-.1c-.06-.2-.1-.4-.15-.59l0-.1c-.05-.2-.09-.39-.14-.58v-.07c-.14-.63-.25-1.19-.33-1.65l0-.07c0-.12,0-.24-.06-.34v-.09c0-.1,0-.18-.05-.26v-.07q0-.12,0-.21c-.51.15-1,.33-1.55.51a3,3,0,0,1,1.54-1,3.11,3.11,0,0,1,1.86,0c-.61.19-1.16.31-1.71.49l-.07,0c.53,1.06,3.25,6,7.15,5.43,2.61-.39,4.76-2.48,6.07-4.09h0a19.7,19.7,0,0,0,1.19-1.64,3.28,3.28,0,0,0-.8-.49,1.51,1.51,0,0,1,1.51.44A2.13,2.13,0,0,1,42,42.65c-.38-.38-.65-.76-1-1.08l-.22-.18C40.55,43.68,39,54.2,33.92,55.11Zm8.23.86a1.74,1.74,0,1,1,1.74-1.74A1.73,1.73,0,0,1,42.15,56Zm2.11-3.36a1.14,1.14,0,1,1,1.14-1.14A1.13,1.13,0,0,1,44.26,52.61Z"/><path class="cls-5" d="M27.22,46.39c-.06-.22-.11-.44-.17-.66C27.11,46,27.16,46.17,27.22,46.39Z"/><path class="cls-5" d="M26.86,44.94c-.05-.2-.09-.39-.14-.58C26.77,44.55,26.81,44.74,26.86,44.94Z"/><path class="cls-5" d="M27,45.63c-.06-.2-.1-.4-.15-.59C26.93,45.23,27,45.43,27,45.63Z"/><path class="cls-5" d="M40.82,41.39a34.23,34.23,0,0,1-2.33,9.1l-1.18-.74c1.32-1.76,1.92-5,2.18-6.84C38.18,44.52,36,46.61,33.42,47c-3.9.58-6.62-4.37-7.15-5.43l-.07,0c0,.11,2.5,7.15,4.28,8.68L29.2,51.68c1.17,2.2,2.72,3.79,4.72,3.43,5.09-.91,6.63-11.43,6.9-13.72Z"/><path class="cls-5" d="M29.2,51.68c-.12-.22-.23-.45-.34-.68C29,51.23,29.08,51.46,29.2,51.68Z"/><path class="cls-5" d="M28.83,50.94l-.29-.66Z"/><path class="cls-5" d="M28.22,49.48a31.48,31.48,0,0,1-1-3A31.48,31.48,0,0,0,28.22,49.48Z"/><path class="cls-5" d="M28.51,50.21c-.1-.23-.19-.46-.28-.7C28.32,49.75,28.41,50,28.51,50.21Z"/><path class="cls-5" d="M26.38,42.64c.08.46.19,1,.33,1.65C26.57,43.66,26.46,43.1,26.38,42.64Z"/><path class="cls-5" d="M26.2,41.6q0,.09,0,.21,0-.12,0-.21Z"/><path class="cls-5" d="M26.29,42.14c0-.1,0-.18-.05-.26C26.26,42,26.27,42,26.29,42.14Z"/><path class="cls-5" d="M26.36,42.57c0-.12,0-.24-.06-.34C26.32,42.33,26.34,42.45,26.36,42.57Z"/><path class="cls-6" d="M35.39,56.69a4.79,4.79,0,0,1-1.94.56,2.29,2.29,0,0,1-1-.15,3.19,3.19,0,0,1-.87-.57A10.52,10.52,0,0,1,30,55.14l-.05,0a2.92,2.92,0,0,0,1.36,1.72,5.08,5.08,0,0,0,1,.38c.35.1.7.2,1.07.27a3.39,3.39,0,0,0,2.2-.37,3,3,0,0,0,1.41-1.7l0,0A5.35,5.35,0,0,1,35.39,56.69Z"/><path class="cls-6" d="M26.2,41.59h0l.07,0,.07,0c.55-.18,1.1-.3,1.71-.49a3.11,3.11,0,0,0-1.86,0,3,3,0,0,0-1.54,1c.55-.18,1-.36,1.55-.51h0Z"/><path class="cls-7" d="M26.2,41.59h0q0,.09,0,.21v.07c0,.08,0,.16.05.26v.09c0,.1,0,.22.06.34l0,.07c.08.46.19,1,.33,1.65v.07c.05.19.09.38.14.58l0,.1c.05.19.09.39.15.59l0,.1c.06.22.11.44.17.66l0,0a31.48,31.48,0,0,0,1,3v0c.09.24.18.47.28.7l0,.07.29.66,0,.06c.11.23.22.46.34.68h0l1.28-1.41C28.7,48.74,26.24,41.7,26.2,41.59Z"/><path class="cls-7" d="M38.49,50.49a34.23,34.23,0,0,0,2.33-9.1l-.14-.12a19.7,19.7,0,0,1-1.19,1.64h0c-.26,1.82-.86,5.08-2.18,6.84Z"/><path class="cls-6" d="M40.82,41.39h0l.22.18c.33.32.6.7,1,1.08a2.13,2.13,0,0,0-.63-1.43,1.51,1.51,0,0,0-1.51-.44,3.28,3.28,0,0,1,.8.49Z"/><path class="cls-8" d="M42.15,52.5a1.74,1.74,0,1,0,1.74,1.73A1.73,1.73,0,0,0,42.15,52.5Z"/><path class="cls-8" d="M44.26,50.34a1.14,1.14,0,1,0,1.14,1.13A1.13,1.13,0,0,0,44.26,50.34Z"/><path class="cls-8" d="M41.77,49A.85.85,0,0,0,42,50.18a.86.86,0,0,0,1.2-.27.87.87,0,0,0-.28-1.2A.86.86,0,0,0,41.77,49Z"/><path class="cls-1" d="M43.47,31.62c0-.21,0-.42,0-.63-.22,3.73-2.54,5.47-5.36,5.41a4.94,4.94,0,0,1-5-4.41c0,.09,0,.17,0,.26l-.06.34c.31,3.72,2.43,5.55,5.06,5.61a4.81,4.81,0,0,0,4.52-2.67,8,8,0,0,0,.68-2A11.3,11.3,0,0,0,43.47,31.62Z"/><path class="cls-5" d="M33.18,31.29c0,.08,0,.15,0,.23l-.06.47a4.94,4.94,0,0,0,5,4.41c2.82.06,5.14-1.68,5.36-5.41,0-.12,0-.22,0-.34.09-4-2.88-6.91-5.78-7-2.35-.06-3.94,1.78-4.51,4.58A11,11,0,0,1,33.18,31.29Zm5.41.94a2.41,2.41,0,1,1-2.35-2.46A2.4,2.4,0,0,1,38.59,32.23Z"/><path class="cls-9" d="M33.78,32.12a2.41,2.41,0,1,0,2.46-2.35A2.4,2.4,0,0,0,33.78,32.12ZM36.66,31a1.24,1.24,0,0,1,.77,1.17,1.25,1.25,0,0,1-2.5-.05A1.26,1.26,0,0,1,35.75,31a.54.54,0,1,1,.91,0Z"/><path class="cls-10" d="M35.82,31.11a.61.61,0,0,1-.07-.1,1.24,1.24,0,0,0,.4,2.41,1.25,1.25,0,0,0,1.28-1.22A1.24,1.24,0,0,0,36.66,31a.61.61,0,0,1-.07.1A.54.54,0,0,1,35.82,31.11Z"/><path class="cls-5" d="M35.84,30.34a.55.55,0,0,0-.09.67.61.61,0,0,0,.07.1.54.54,0,0,0,.77,0,.61.61,0,0,0,.07-.1.54.54,0,0,0,0-.68A.55.55,0,0,0,35.84,30.34Z"/><path class="cls-1" d="M33.08,32l.06-.47c-.6,3.77-3.12,5.27-5.94,4.9s-4.78-2.38-4.5-6c0,.15-.06.3-.08.45a9.94,9.94,0,0,0,0,3.05,5.71,5.71,0,0,0,1.16,2.61A4.84,4.84,0,0,0,27,38.21c2.81.37,5.36-1.36,6-5.62l.06-.34C33.07,32.16,33.07,32.08,33.08,32Z"/><path class="cls-5" d="M27.2,36.42c2.82.37,5.34-1.13,5.94-4.9,0-.08,0-.15,0-.23a11,11,0,0,0,0-3c-.33-2.4-1.58-4.08-3.66-4.35-2.89-.39-6.27,2.05-6.79,6,0,.17,0,.34-.05.51C22.42,34,24.44,36.05,27.2,36.42Zm2.85-6.27a2.41,2.41,0,1,1-2.7,2.07A2.41,2.41,0,0,1,30.05,30.15Z"/><path class="cls-9" d="M27.35,32.22a2.41,2.41,0,1,0,2.7-2.07A2.4,2.4,0,0,0,27.35,32.22Zm2.25-1.55a.54.54,0,0,1,.76.11.53.53,0,0,1,0,.67,1.25,1.25,0,1,1-.9-.12A.54.54,0,0,1,29.6,30.67Z"/><path class="cls-10" d="M28.5,32.37a1.24,1.24,0,0,0,1.07,1.4,1.24,1.24,0,0,0,.77-2.32.73.73,0,0,1-.08.09.55.55,0,0,1-.77-.1,1.17,1.17,0,0,1,0-.11A1.25,1.25,0,0,0,28.5,32.37Z"/><path class="cls-5" d="M30.26,31.54a.73.73,0,0,0,.08-.09.53.53,0,0,0,0-.67.54.54,0,0,0-.92.55,1.17,1.17,0,0,0,0,.11A.55.55,0,0,0,30.26,31.54Z"/><path class="cls-2" d="M13.16,13.71a7.39,7.39,0,0,1,6.55,1.19,5.5,5.5,0,0,1,9.12-5.5,5.57,5.57,0,0,1,5.78-5.13,5.57,5.57,0,0,1,4.89,6,5.76,5.76,0,0,1,6.22-1.84,4.38,4.38,0,0,1,2.5,5.63,7.65,7.65,0,0,1,11.12,2.83,1.8,1.8,0,0,0,0-.22,5.44,5.44,0,0,0-5.44-5.43,6,6,0,0,0-.84.07s0-.05,0-.07A6.91,6.91,0,0,0,42,5.74a6.92,6.92,0,0,0-13.3-.85,6.79,6.79,0,0,0-4-1.3,6.92,6.92,0,0,0-6.93,6.92,6.82,6.82,0,0,0,.19,1.57A5.36,5.36,0,0,0,15,11.23a5.44,5.44,0,0,0-5.44,5.43,6.48,6.48,0,0,0,.06.77h0A5.64,5.64,0,0,1,13.16,13.71Z"/><path class="cls-11" d="M13.16,13.71a7.39,7.39,0,0,1,6.55,1.19,5.5,5.5,0,0,1,9.12-5.5,5.57,5.57,0,0,1,5.78-5.13,5.57,5.57,0,0,1,4.89,6,5.76,5.76,0,0,1,6.22-1.84,4.38,4.38,0,0,1,2.5,5.63,7.65,7.65,0,0,1,11.12,2.83,1.8,1.8,0,0,0,0-.22,5.44,5.44,0,0,0-5.44-5.43,6,6,0,0,0-.84.07s0-.05,0-.07A6.91,6.91,0,0,0,42,5.74a6.92,6.92,0,0,0-13.3-.85,6.79,6.79,0,0,0-4-1.3,6.92,6.92,0,0,0-6.93,6.92,6.82,6.82,0,0,0,.19,1.57A5.36,5.36,0,0,0,15,11.23a5.44,5.44,0,0,0-5.44,5.43,6.48,6.48,0,0,0,.06.77h0A5.64,5.64,0,0,1,13.16,13.71Z"/><polygon class="cls-12" points="29.27 18.06 23.16 23.91 30.11 19.97 29.27 18.06"/><polygon class="cls-12" points="37.03 18.83 36.21 21.09 42.86 23.87 37.03 18.83"/><ellipse class="cls-4" cx="33.16" cy="41.74" rx="2.38" ry="3.11"/><ellipse class="cls-13" cx="33.16" cy="41.74" rx="2.38" ry="3.11"/></g></g></svg>