<svg xmlns="http://www.w3.org/2000/svg" viewBox="0 0 66.01 66.01"><defs><style>.cls-1{fill:#dadada;}.cls-2{fill:#f7ac34;}.cls-3{fill:#01a283;}.cls-4,.cls-8{fill:#015142;}.cls-4{opacity:0.5;}.cls-5{fill:#fff;}.cls-6{fill:#009fe3;}.cls-7{fill:#002839;}.cls-9{fill:#72030a;}.cls-10{fill:#e30613;}.cls-11{fill:#00846b;}.cls-12{fill:#ffc064;}</style></defs><title>m12</title><g id="Layer_2" data-name="Layer 2"><g id="characters"><circle class="cls-1" cx="33.01" cy="33.01" r="33"/><path class="cls-2" d="M2.49,36.44a15.3,15.3,0,0,1,6.73-3.3,25.93,25.93,0,0,1,4-11.28C3.49,26.23,2.49,36.44,2.49,36.44Z"/><path class="cls-2" d="M27.53,13.62,14.12,9.47l7.26,6A27.25,27.25,0,0,1,25.85,14C26.43,13.84,27,13.73,27.53,13.62Z"/><path class="cls-2" d="M46.12,22.87c0,.05,0,.1,0,.15a27,27,0,0,1,11.64,2.8c-1.39-6.31-9.94-9.71-9.94-9.71L52.57,13c-4.89-.83-12.42.6-12.42.6C36.4,9.7,24.46,4.25,24.46,4.25l3.27,9.33C40.54,11.05,47.18,15.83,46.12,22.87Z"/><path class="cls-2" d="M20.71,15.74C15,15.86,5.54,19.53,5.54,19.53l8.7,1A18.65,18.65,0,0,1,20.71,15.74Z"/><path class="cls-3" d="M10.87,56.94c-.18-.59-.35-1.18-.52-1.79C10.52,55.76,10.69,56.35,10.87,56.94Z"/><path class="cls-3" d="M56,43.43c.45.14.92.27,1.4.4C56.94,43.7,56.47,43.57,56,43.43Z"/><path class="cls-3" d="M57.8,43.92c.5.13,1,.24,1.57.35C58.82,44.16,58.3,44.05,57.8,43.92Z"/><path class="cls-3" d="M61.56,44.63c.6.08,1.22.16,1.87.22C62.78,44.79,62.16,44.71,61.56,44.63Z"/><path class="cls-3" d="M59.64,44.32c.49.09,1,.18,1.55.26C60.65,44.5,60.13,44.41,59.64,44.32Z"/><path class="cls-3" d="M52.05,41.76l.86.45Z"/><path class="cls-3" d="M50.86,41c.28.19.58.37.89.55C51.44,41.41,51.14,41.23,50.86,41Z"/><path class="cls-3" d="M53.15,42.33c.36.17.75.33,1.15.49C53.9,42.66,53.51,42.5,53.15,42.33Z"/><path class="cls-3" d="M54.64,43c.41.16.83.31,1.28.45C55.47,43.26,55.05,43.11,54.64,43Z"/><path class="cls-3" d="M17.12,52.35a29.4,29.4,0,0,0,5.95,2.85h0a9.7,9.7,0,0,1,.51-1l.15-.26c.14-.23.28-.47.43-.7l.24-.32a6.31,6.31,0,0,1,.44-.58c.09-.12.19-.23.29-.34s.31-.35.48-.51l.33-.33c.17-.16.35-.31.53-.46l.38-.3c.19-.15.4-.29.61-.43l.39-.25c.24-.15.49-.28.74-.42l.37-.19c.38-.19.79-.37,1.21-.53s1-.33,1.44-.48L32,48c.37-.1.74-.2,1.11-.28l.41-.1q.73-.15,1.47-.27h0c.54-.09,1.08-.15,1.63-.2h.18q.74-.08,1.47-.09h.21a34.14,34.14,0,0,1,5.13.24c1.73-4.55,1.65-9.53,1.94-14.32h0c-.62-3.57.09-7.23.5-9.9,0-.05,0-.1,0-.15,1.06-7-5.58-11.82-18.39-9.29l-.2,0c-.56.11-1.1.22-1.68.36a27.25,27.25,0,0,0-4.47,1.46l-.67.3a18.65,18.65,0,0,0-6.47,4.81c-.35.42-.68.86-1,1.31a25.93,25.93,0,0,0-4,11.28,61.94,61.94,0,0,0-.56,7.52c0-.74,0-1.46.07-2.17C9.65,44.08,11.88,49.08,17.12,52.35Zm6.38-1.28a4.79,4.79,0,0,1-1.18.38A2.43,2.43,0,0,1,21,51.38a2.89,2.89,0,0,1-1-.87,6.29,6.29,0,0,1-.66-1,5.22,5.22,0,0,1-.56-2.32,10.3,10.3,0,0,0,1.07,2,8.23,8.23,0,0,0,.69.87,2.51,2.51,0,0,0,.75.64,2,2,0,0,0,.95.06,5.67,5.67,0,0,0,1.07-.23,6.41,6.41,0,0,0,2-1.05A4.18,4.18,0,0,1,23.5,51.07ZM41.08,36.78a11.87,11.87,0,0,1-2.39,3.15,10.13,10.13,0,0,1-3.32,2.16,15,15,0,0,1-7.74.93l-.08,0c-.43,1-1.89,4.07-3.34,5l0,0a1.35,1.35,0,0,1-.34.17h0a1,1,0,0,1-.34.07h0a1.13,1.13,0,0,1-.32-.05l-.06,0a1.19,1.19,0,0,1-.3-.18s0,0-.05-.05a1.9,1.9,0,0,1-.29-.33c-.11-.16-.23-.35-.34-.55,0,0-.05-.08-.07-.13s-.22-.4-.33-.62c0-.06-.05-.11-.07-.16s-.19-.41-.29-.62a.77.77,0,0,0-.07-.16l-.3-.74-.12-.3c-.09-.24-.19-.48-.28-.73-1.18-3.17-2.19-6.87-2.46-7.87a1.13,1.13,0,0,0-.35,0,1.75,1.75,0,0,0-.81.28,3.87,3.87,0,0,0-1.26,1.37l-.07,0a3.72,3.72,0,0,1,1.12-1.64,2.08,2.08,0,0,1,1-.45,1.36,1.36,0,0,1,.6,0,1.55,1.55,0,0,1,.51.27c1.06.9,1.82,1.91,2.72,2.83a13.62,13.62,0,0,0,6.22,4.15,9.76,9.76,0,0,0,7.42-.88,16.38,16.38,0,0,0,5.53-5c-.31-.47-.63-.94-.92-1.42l.06,0c.42.45.82.91,1.23,1.36l.08.09ZM39.24,15.16a5.13,5.13,0,0,1,2.62,1,3.7,3.7,0,0,1,1.35,3.25,2.78,2.78,0,0,0-2-1.32,3.87,3.87,0,0,1,.44,2.24,6.42,6.42,0,0,0-3.63-3.14,6.3,6.3,0,0,0-2.36-.32c-.84.05-1.58.43-2.37.55C34.1,15.45,37.47,14.94,39.24,15.16Zm-7.27,6a5,5,0,0,1,.75-1.35,4.43,4.43,0,0,1,4.89-1l.13.05.1,0a5.89,5.89,0,0,1,2.45,1.88,10.63,10.63,0,0,1,.87,1.16,9.67,9.67,0,0,1,1.1,4.42,7.93,7.93,0,0,1-1,4.28A4.91,4.91,0,0,1,37.68,33a5.21,5.21,0,0,1-1.92-.18,5.35,5.35,0,0,1-1.55-.67,5.68,5.68,0,0,1-1.63-1.88A10.57,10.57,0,0,1,32,21.12ZM18.86,19.83a4.49,4.49,0,0,1,2.46-1.41l-2.21,0a8.38,8.38,0,0,1,4.81-1.4,8.5,8.5,0,0,1,3.32.78c.22.11,1.19.45,1,.83s-1.2-.05-1.46-.07a11.31,11.31,0,0,0-5.09.92,18.91,18.91,0,0,0-4.44,2.72A9.92,9.92,0,0,1,18.86,19.83Zm-1.8,6.24a11.34,11.34,0,0,1,3-4.43,11.51,11.51,0,0,1,1.42-.92A6.93,6.93,0,0,1,25,19.64h.28a5.22,5.22,0,0,1,5,3.14,6.09,6.09,0,0,1,.29,1.79,12.46,12.46,0,0,1-4.39,9.81,6.64,6.64,0,0,1-2.57,1.42,6,6,0,0,1-2,.11,6.18,6.18,0,0,1-2.2-.58,5.77,5.77,0,0,1-2.95-4.12A9.28,9.28,0,0,1,17.06,26.07Z"/><path class="cls-3" d="M48.35,38.84c.14.15.28.31.43.46C48.63,39.15,48.49,39,48.35,38.84Z"/><path class="cls-3" d="M47.15,37.19l.28.45Z"/><path class="cls-3" d="M47.68,38l.34.45Z"/><path class="cls-3" d="M49.72,40.18c-.24-.2-.45-.4-.66-.6C49.27,39.78,49.48,40,49.72,40.18Z"/><path class="cls-3" d="M46.45,35.8a.64.64,0,0,0,0,.07A.64.64,0,0,1,46.45,35.8Z"/><path class="cls-3" d="M8.64,43.07c0-.74,0-1.47,0-2.2C8.64,41.6,8.64,42.33,8.64,43.07Z"/><path class="cls-3" d="M46.68,36.31c0,.11.11.22.16.32C46.79,36.53,46.73,36.42,46.68,36.31Z"/><path class="cls-3" d="M46,34.59c0,.07,0,.14.07.2S46,34.66,46,34.59Z"/><path class="cls-3" d="M50,40.37c.19.16.4.32.61.47C50.37,40.69,50.16,40.53,50,40.37Z"/><path class="cls-3" d="M19.39,35.33a6.18,6.18,0,0,0,2.2.58,6,6,0,0,0,2-.11,6.64,6.64,0,0,0,2.57-1.42,12.46,12.46,0,0,0,4.39-9.81,6.09,6.09,0,0,0-.29-1.79,5.22,5.22,0,0,0-5-3.14H25a6.93,6.93,0,0,0-3.48,1.08,11.51,11.51,0,0,0-1.42.92,11.34,11.34,0,0,0-3,4.43,9.28,9.28,0,0,0-.62,5.14A5.77,5.77,0,0,0,19.39,35.33Zm-1.5-7.8a9.43,9.43,0,0,1,2.5-3.66,9.51,9.51,0,0,1,1.18-.76,5.7,5.7,0,0,1,2.87-.9h.23a4.33,4.33,0,0,1,4.12,2.61A5.21,5.21,0,0,1,29,26.3a10.28,10.28,0,0,1-3.63,8.1,5.41,5.41,0,0,1-2.12,1.17,4.75,4.75,0,0,1-1.64.09,5,5,0,0,1-1.82-.47,4.81,4.81,0,0,1-2.44-3.41A7.67,7.67,0,0,1,17.89,27.53Z"/><path class="cls-4" d="M19.39,35.33a6.18,6.18,0,0,0,2.2.58,6,6,0,0,0,2-.11,6.64,6.64,0,0,0,2.57-1.42,12.46,12.46,0,0,0,4.39-9.81,6.09,6.09,0,0,0-.29-1.79,5.22,5.22,0,0,0-5-3.14H25a6.93,6.93,0,0,0-3.48,1.08,11.51,11.51,0,0,0-1.42.92,11.34,11.34,0,0,0-3,4.43,9.28,9.28,0,0,0-.62,5.14A5.77,5.77,0,0,0,19.39,35.33Zm-1.5-7.8a9.43,9.43,0,0,1,2.5-3.66,9.51,9.51,0,0,1,1.18-.76,5.7,5.7,0,0,1,2.87-.9h.23a4.33,4.33,0,0,1,4.12,2.61A5.21,5.21,0,0,1,29,26.3a10.28,10.28,0,0,1-3.63,8.1,5.41,5.41,0,0,1-2.12,1.17,4.75,4.75,0,0,1-1.64.09,5,5,0,0,1-1.82-.47,4.81,4.81,0,0,1-2.44-3.41A7.67,7.67,0,0,1,17.89,27.53Z"/><path class="cls-1" d="M19.82,35.19a5,5,0,0,0,1.82.47,4.75,4.75,0,0,0,1.64-.09A5.41,5.41,0,0,0,25.4,34.4,10.28,10.28,0,0,0,29,26.3a5.21,5.21,0,0,0-.24-1.48,4.33,4.33,0,0,0-4.12-2.61h-.12a3.62,3.62,0,0,1,3.37,2.2,4,4,0,0,1,.2,1.25,8.08,8.08,0,0,1-.38,2.76,2.2,2.2,0,0,1,.15,1,2.28,2.28,0,0,1-1.76,2,8.63,8.63,0,0,1-1.08,1.1,4.64,4.64,0,0,1-1.79,1,4.72,4.72,0,0,1-2.93-.33,4,4,0,0,1-2.06-2.88,6.42,6.42,0,0,1,.43-3.59,7.82,7.82,0,0,1,2.12-3.1,8.21,8.21,0,0,1,.75-.51,9.51,9.51,0,0,0-1.18.76,9.43,9.43,0,0,0-2.5,3.66,7.67,7.67,0,0,0-.51,4.25A4.81,4.81,0,0,0,19.82,35.19Z"/><path class="cls-5" d="M18.7,26.72a6.42,6.42,0,0,0-.43,3.59,4,4,0,0,0,2.06,2.88,4.72,4.72,0,0,0,2.93.33,4.64,4.64,0,0,0,1.79-1,8.63,8.63,0,0,0,1.08-1.1,2.19,2.19,0,0,1-.68.06,2.27,2.27,0,1,1,2.29-3.06,8.08,8.08,0,0,0,.38-2.76,4,4,0,0,0-.2-1.25,3.62,3.62,0,0,0-3.37-2.2h-.11a5.7,5.7,0,0,0-2.87.9,8.21,8.21,0,0,0-.75.51A7.82,7.82,0,0,0,18.7,26.72Z"/><path class="cls-3" d="M32.58,30.23a5.68,5.68,0,0,0,1.63,1.88,5.35,5.35,0,0,0,1.55.67,5.21,5.21,0,0,0,1.92.18,4.91,4.91,0,0,0,3.57-2.41,7.93,7.93,0,0,0,1-4.28,9.67,9.67,0,0,0-1.1-4.42,10.63,10.63,0,0,0-.87-1.16,5.89,5.89,0,0,0-2.45-1.88l-.1,0-.13-.05a4.43,4.43,0,0,0-4.89,1A5,5,0,0,0,32,21.12,10.57,10.57,0,0,0,32.58,30.23Zm1-7.11s0-.06,0-.1.07-.22.12-.33a3.22,3.22,0,0,1,.48-.87,2.87,2.87,0,0,1,3.16-.67l.17.08.29.09a5.66,5.66,0,0,1,2.66,2.35A7.28,7.28,0,0,1,41.33,27a6,6,0,0,1-.77,3.22A3.71,3.71,0,0,1,37.88,32a3.94,3.94,0,0,1-1.45-.14,3.82,3.82,0,0,1-1.17-.51A4.15,4.15,0,0,1,34,30,7.92,7.92,0,0,1,33.57,23.12Z"/><path class="cls-4" d="M32.58,30.23a5.68,5.68,0,0,0,1.63,1.88,5.35,5.35,0,0,0,1.55.67,5.21,5.21,0,0,0,1.92.18,4.91,4.91,0,0,0,3.57-2.41,7.93,7.93,0,0,0,1-4.28,9.67,9.67,0,0,0-1.1-4.42,10.63,10.63,0,0,0-.87-1.16,5.89,5.89,0,0,0-2.45-1.88l-.1,0-.13-.05a4.43,4.43,0,0,0-4.89,1A5,5,0,0,0,32,21.12,10.57,10.57,0,0,0,32.58,30.23Zm1-7.11s0-.06,0-.1.07-.22.12-.33a3.22,3.22,0,0,1,.48-.87,2.87,2.87,0,0,1,3.16-.67l.17.08.29.09a5.66,5.66,0,0,1,2.66,2.35A7.28,7.28,0,0,1,41.33,27a6,6,0,0,1-.77,3.22A3.71,3.71,0,0,1,37.88,32a3.94,3.94,0,0,1-1.45-.14,3.82,3.82,0,0,1-1.17-.51A4.15,4.15,0,0,1,34,30,7.92,7.92,0,0,1,33.57,23.12Z"/><path class="cls-1" d="M34,30a4.15,4.15,0,0,0,1.22,1.41,3.82,3.82,0,0,0,1.17.51,3.94,3.94,0,0,0,1.45.14,3.71,3.71,0,0,0,2.68-1.82A6,6,0,0,0,41.33,27a7.28,7.28,0,0,0-.84-3.33,5.66,5.66,0,0,0-2.66-2.35l-.29-.09a5,5,0,0,1,2.11,1.93A6.18,6.18,0,0,1,40.37,26a5.12,5.12,0,0,1-.66,2.77,3.14,3.14,0,0,1-2.29,1.55,3.31,3.31,0,0,1-1.25-.12,3.4,3.4,0,0,1-1-.43,3.25,3.25,0,0,1-.89-1,1.89,1.89,0,0,1-.76-1.67,6.83,6.83,0,0,1,.09-4.1s0,.06,0,.1A7.92,7.92,0,0,0,34,30Z"/><path class="cls-5" d="M33.52,27.12h0a1.92,1.92,0,1,1,.76,1.67,3.25,3.25,0,0,0,.89,1,3.4,3.4,0,0,0,1,.43,3.31,3.31,0,0,0,1.25.12,3.14,3.14,0,0,0,2.29-1.55A5.12,5.12,0,0,0,40.37,26a6.18,6.18,0,0,0-.72-2.85,5,5,0,0,0-2.11-1.93l-.17-.08a2.87,2.87,0,0,0-3.16.67,3.22,3.22,0,0,0-.48.87c0,.11-.08.22-.12.33A6.83,6.83,0,0,0,33.52,27.12Z"/><path class="cls-6" d="M25.79,27a2.27,2.27,0,0,0-.34,4.53,2.19,2.19,0,0,0,.68-.06,2.28,2.28,0,0,0,1.76-2,2.2,2.2,0,0,0-.15-1A2.27,2.27,0,0,0,25.79,27Zm-1.34,2.18a1.16,1.16,0,0,1,.83-1,.51.51,0,0,1,.11-.63.52.52,0,0,1,.73.05.51.51,0,0,1,0,.64,1.17,1.17,0,1,1-1.68,1Z"/><path class="cls-7" d="M26.8,29.31a1.19,1.19,0,0,0-.67-1.14l-.07.09a.52.52,0,0,1-.73-.06l0-.09a1.16,1.16,0,0,0-.83,1,1.18,1.18,0,0,0,2.35.17Z"/><path class="cls-5" d="M26.06,28.26l.07-.09a.51.51,0,0,0,0-.64.52.52,0,0,0-.73-.05.51.51,0,0,0-.11.63l0,.09A.52.52,0,0,0,26.06,28.26Z"/><path class="cls-6" d="M37.32,27.41a1.91,1.91,0,1,0-3.8-.29h0a1.89,1.89,0,0,0,.76,1.67,1.9,1.9,0,0,0,3-1.38Zm-2.89-.22a1,1,0,0,1,.7-.87.44.44,0,0,1,.09-.53.44.44,0,0,1,.61.05.42.42,0,0,1,0,.53,1,1,0,0,1,.56,1,1,1,0,0,1-2-.15Z"/><path class="cls-7" d="M36.41,27.34a1,1,0,0,0-.56-1l-.06.08a.42.42,0,0,1-.61-.05.22.22,0,0,1,0-.08,1,1,0,1,0,1.28,1Z"/><path class="cls-5" d="M35.79,26.45l.06-.08a.42.42,0,0,0,0-.53.44.44,0,0,0-.61-.05.44.44,0,0,0-.09.53.22.22,0,0,0,0,.08A.42.42,0,0,0,35.79,26.45Z"/><path class="cls-8" d="M38.07,17.18a6.42,6.42,0,0,1,3.63,3.14,3.87,3.87,0,0,0-.44-2.24,2.78,2.78,0,0,1,2,1.32,3.7,3.7,0,0,0-1.35-3.25,5.13,5.13,0,0,0-2.62-1c-1.77-.22-5.14.29-5.9,2.25.79-.12,1.53-.5,2.37-.55A6.3,6.3,0,0,1,38.07,17.18Z"/><path class="cls-8" d="M26.8,18.59c.26,0,1.36.3,1.46.07s-.8-.72-1-.83a8.5,8.5,0,0,0-3.32-.78,8.38,8.38,0,0,0-4.81,1.4l2.21,0a4.49,4.49,0,0,0-2.46,1.41,9.92,9.92,0,0,0-1.59,2.4,18.91,18.91,0,0,1,4.44-2.72A11.31,11.31,0,0,1,26.8,18.59Z"/><path class="cls-9" d="M23.45,48.28a1.13,1.13,0,0,1-.32-.05A1.13,1.13,0,0,0,23.45,48.28Z"/><path class="cls-9" d="M22.72,48a1.9,1.9,0,0,1-.29-.33A1.9,1.9,0,0,0,22.72,48Z"/><path class="cls-9" d="M23.07,48.21a1.19,1.19,0,0,1-.3-.18A1.19,1.19,0,0,0,23.07,48.21Z"/><path class="cls-9" d="M23.8,48.21a1,1,0,0,1-.34.07A1,1,0,0,0,23.8,48.21Z"/><path class="cls-9" d="M22.09,47.1S22,47,22,47,22.07,47.06,22.09,47.1Z"/><path class="cls-9" d="M24.17,48a1.35,1.35,0,0,1-.34.17A1.35,1.35,0,0,0,24.17,48Z"/><path class="cls-9" d="M21.33,45.57a.77.77,0,0,0-.07-.16A.77.77,0,0,1,21.33,45.57Z"/><path class="cls-9" d="M21,44.67l-.12-.3Z"/><path class="cls-9" d="M21.69,46.35c0-.06-.05-.11-.07-.16S21.67,46.29,21.69,46.35Z"/><path class="cls-9" d="M20.94,38.92c-.89-1-1.62-2.1-2.5-2.92a1.49,1.49,0,0,0-.32-.23h0c.27,1,1.28,4.7,2.46,7.87h0c1.7,1.06,3.6,1.89,4.73,3.32A4.87,4.87,0,0,1,24.21,48c1.45-.94,2.91-4.06,3.34-5A12.32,12.32,0,0,1,20.94,38.92Z"/><path class="cls-10" d="M25.29,47c-1.13-1.43-3-2.26-4.73-3.32h0c.09.25.19.49.28.73l.12.3.3.74a.77.77,0,0,1,.07.16c.1.21.19.42.29.62s.05.1.07.16c.11.22.22.43.33.62s.05.09.07.13c.11.2.23.39.34.55a1.9,1.9,0,0,0,.29.33s0,0,.05.05a1.19,1.19,0,0,0,.3.18l.06,0a1.13,1.13,0,0,0,.32.05h0a1,1,0,0,0,.34-.07h0a1.35,1.35,0,0,0,.34-.17l0,0A4.87,4.87,0,0,0,25.29,47Z"/><path class="cls-8" d="M39.83,35.21l-.06,0c.29.48.61,1,.92,1.42a16.38,16.38,0,0,1-5.53,5,9.76,9.76,0,0,1-7.42.88,13.62,13.62,0,0,1-6.22-4.15c-.9-.92-1.66-1.93-2.72-2.83a1.55,1.55,0,0,0-.51-.27,1.36,1.36,0,0,0-.6,0,2.08,2.08,0,0,0-1,.45,3.72,3.72,0,0,0-1.12,1.64l.07,0A3.87,3.87,0,0,1,16.94,36a1.75,1.75,0,0,1,.81-.28,1.13,1.13,0,0,1,.35,0h0a1.49,1.49,0,0,1,.32.23c.88.82,1.61,2,2.5,2.92A12.32,12.32,0,0,0,27.55,43l.08,0a15,15,0,0,0,7.74-.93,10.13,10.13,0,0,0,3.32-2.16,11.87,11.87,0,0,0,2.39-3.15l.06-.12-.08-.09C40.65,36.12,40.25,35.66,39.83,35.21Z"/><path class="cls-8" d="M22.21,50.75a2,2,0,0,1-.95-.06,2.51,2.51,0,0,1-.75-.64,8.23,8.23,0,0,1-.69-.87,10.3,10.3,0,0,1-1.07-2,5.22,5.22,0,0,0,.56,2.32,6.29,6.29,0,0,0,.66,1,2.89,2.89,0,0,0,1,.87,2.43,2.43,0,0,0,1.35.07,4.79,4.79,0,0,0,1.18-.38,4.18,4.18,0,0,0,1.78-1.6,6.41,6.41,0,0,1-2,1.05A5.67,5.67,0,0,1,22.21,50.75Z"/><path class="cls-11" d="M10.87,56.94c.07.25.15.49.22.73a33.28,33.28,0,0,0,10.34,6.24,21.73,21.73,0,0,1,1.64-8.71h0a29.4,29.4,0,0,1-5.95-2.85c-5.24-3.27-7.47-8.27-8.39-13.86,0,.71-.05,1.43-.07,2.17v.21c0,.73,0,1.46,0,2.2,0,.49,0,1,0,1.45q.06,1.44.21,2.85c0,.47.11.93.17,1.4a52.16,52.16,0,0,0,1.3,6.38C10.52,55.76,10.69,56.35,10.87,56.94Z"/><path class="cls-11" d="M43.66,47.24a49.69,49.69,0,0,1,16.11,5,33,33,0,0,0,4-7.4l-.37,0c-.65-.06-1.27-.14-1.87-.22l-.37-.05c-.54-.08-1.06-.17-1.55-.26l-.27,0c-.55-.11-1.07-.22-1.57-.35l-.38-.09c-.48-.13-1-.26-1.4-.4l-.1,0c-.45-.14-.87-.29-1.28-.45l-.34-.13c-.4-.16-.79-.32-1.15-.49l-.24-.12-.86-.45-.3-.17c-.31-.18-.61-.36-.89-.55l-.28-.2c-.21-.15-.42-.31-.61-.47l-.25-.19c-.24-.2-.45-.4-.66-.6s-.19-.19-.28-.28-.29-.31-.43-.46l-.33-.4L47.68,38l-.25-.35-.28-.45c-.11-.18-.21-.37-.31-.56s-.11-.21-.16-.32l-.21-.44a.64.64,0,0,1,0-.07,9.48,9.48,0,0,1-.38-1c0-.06,0-.13-.07-.2a14,14,0,0,1-.4-1.67h0C45.31,37.71,45.39,42.69,43.66,47.24Z"/><path class="cls-2" d="M25.13,52c.15-.17.31-.35.48-.51C25.44,51.63,25.28,51.81,25.13,52Z"/><path class="cls-2" d="M24.4,52.9a6.31,6.31,0,0,1,.44-.58A6.31,6.31,0,0,0,24.4,52.9Z"/><path class="cls-2" d="M25.94,51.14c.17-.16.35-.31.53-.46C26.29,50.83,26.11,51,25.94,51.14Z"/><path class="cls-2" d="M23.73,53.92c.14-.23.28-.47.43-.7C24,53.45,23.87,53.69,23.73,53.92Z"/><path class="cls-2" d="M23.07,55.2a9.7,9.7,0,0,1,.51-1A9.7,9.7,0,0,0,23.07,55.2Z"/><path class="cls-2" d="M26.85,50.38c.19-.15.4-.29.61-.43C27.25,50.09,27,50.23,26.85,50.38Z"/><path class="cls-2" d="M29,49.09c.38-.19.79-.37,1.21-.53C29.75,48.72,29.34,48.9,29,49.09Z"/><path class="cls-2" d="M33.55,47.58q.73-.15,1.47-.27Q34.28,47.43,33.55,47.58Z"/><path class="cls-2" d="M27.85,49.7c.24-.15.49-.28.74-.42C28.34,49.42,28.09,49.55,27.85,49.7Z"/><path class="cls-2" d="M35,47.31c.54-.09,1.08-.15,1.63-.2C36.12,47.16,35.58,47.22,35,47.31Z"/><path class="cls-2" d="M38.53,47a34.14,34.14,0,0,1,5.13.24,17.29,17.29,0,0,1-1.54,3.11c-3.86,7-11.91,7.34-19,4.85a21.73,21.73,0,0,0-1.64,8.71A33,33,0,0,0,59.77,52.29a49.69,49.69,0,0,0-16.11-5A34.14,34.14,0,0,0,38.53,47Z"/><path class="cls-2" d="M36.85,47.1q.74-.08,1.47-.09Q37.58,47,36.85,47.1Z"/><path class="cls-2" d="M32,48c.37-.1.74-.2,1.11-.28C32.77,47.76,32.4,47.86,32,48Z"/><path class="cls-2" d="M30.17,48.56c.48-.18,1-.33,1.44-.48C31.13,48.23,30.65,48.38,30.17,48.56Z"/><path class="cls-12" d="M42.12,50.35a17.29,17.29,0,0,0,1.54-3.11A34.14,34.14,0,0,0,38.53,47h-.21q-.74,0-1.47.09h-.18c-.55,0-1.09.11-1.63.2h0q-.74.12-1.47.27l-.41.1c-.37.08-.74.18-1.11.28l-.42.12c-.48.15-1,.3-1.44.48s-.83.34-1.21.53l-.37.19c-.25.14-.5.27-.74.42l-.39.25c-.21.14-.42.28-.61.43l-.38.3c-.18.15-.36.3-.53.46l-.33.33c-.17.16-.33.34-.48.51s-.2.22-.29.34a6.31,6.31,0,0,0-.44.58l-.24.32c-.15.23-.29.47-.43.7l-.15.26a9.7,9.7,0,0,0-.51,1h0C30.21,57.69,38.26,57.31,42.12,50.35Z"/></g></g></svg>