<svg xmlns="http://www.w3.org/2000/svg" viewBox="0 0 66.01 66.01"><defs><style>.cls-1{fill:#dadada;}.cls-2{fill:#021512;}.cls-3{fill:#01a283;}.cls-4{fill:#017a62;}.cls-5{fill:#66c9b6;}.cls-6{fill:#fff;}.cls-7{fill:#00705a;}.cls-8{fill:#cf1a13;}.cls-9{fill:#680d0a;}.cls-10{fill:#2b3082;}.cls-11{fill:#222362;}.cls-12{fill:#1d1d1b;}</style></defs><title>m2</title><g id="Layer_2" data-name="Layer 2"><g id="characters"><circle class="cls-1" cx="33.01" cy="33.01" r="33"/><path class="cls-2" d="M36.21,9.52l3.88-4.1L34.41,7.84V3L32,7.84,28.73,2.53l.57,5.41-7.06-1L27.79,10A59,59,0,0,1,36.21,9.52Z"/><path class="cls-2" d="M54.22,10.92A8,8,0,0,1,49.12,15c.85,1.8,1.87,4.11,3,6.84C57.82,18.05,54.22,10.92,54.22,10.92Z"/><path class="cls-2" d="M9.61,13.38s-3.95,7.82,3,11.41c.71-2.54,1.47-5,2.27-7.3A8,8,0,0,1,9.61,13.38Z"/><path class="cls-3" d="M52.07,21.82c-1.08-2.73-2.1-5-3-6.84-1.39-2.92-2.33-4.52-2.33-4.52a67.19,67.19,0,0,0-10.58-.94,59,59,0,0,0-8.42.5,39.4,39.4,0,0,0-11.1,2.9c-.62,1.41-1.21,2.94-1.78,4.57-.8,2.29-1.56,4.76-2.27,7.3a285.11,285.11,0,0,0-6,28.06,33.16,33.16,0,0,0,14,10.77c2.45-4.49,8-7.62,14.54-7.62,5.71,0,10.69,2.41,13.49,6a32.92,32.92,0,0,0,11.1-9.79A124.58,124.58,0,0,0,52.07,21.82ZM18.19,33.37a19.41,19.41,0,0,1,4.08-12.1l-4.42-4.06,7.06.51L24,12.37s5.65,3.5,5.62,3.44S31,10.47,31,10.47l3.46,4.45,4.78-4-.26,5.41,5.76-1.46-2.72,4,6.27.77L44.35,22A19.53,19.53,0,0,1,47.9,33.37C47.9,43.1,41.25,51,33,51S18.19,43.1,18.19,33.37ZM54.05,45.16c-1,4.2-6.66,2.74-8.19,2.26l-.34.31a14.22,14.22,0,0,1-1.4,1.17c-.47.38-.94.77-1.44,1.11a27.19,27.19,0,0,1-3,2.1A15.6,15.6,0,0,1,36.3,53.5a14.23,14.23,0,0,1-3.6.62V54c2.28-.78,4.47-1.67,6.62-2.65a19,19,0,0,0,3.18-1.62,8.83,8.83,0,0,0,1.41-1.11,10,10,0,0,0,1.23-1.29c.36-.47.76-.91,1.08-1.4s.64-1,1-1.47.53-1,.8-1.56a8.17,8.17,0,0,0,.38-.79l.3-.82a16.2,16.2,0,0,0,.59-1.65l.44-1.7A10.39,10.39,0,0,0,50,36.21c.07-.48.16-1,.25-1.44-.33,0-.67-.07-1-.13a3.05,3.05,0,0,1,1.81-.28,2.07,2.07,0,0,1,1.54,1A5.34,5.34,0,0,0,51,34.85c-.16,0-.34,0-.51-.06a18,18,0,0,1-.23,4.91C51.53,40,55,41.17,54.05,45.16Z"/><path class="cls-2" d="M33,15.75A14,14,0,0,1,44.35,22l3.89-2.36L42,18.83l2.72-4-5.76,1.46.26-5.41-4.78,4L31,10.47s-1.37,5.29-1.35,5.34S24,12.37,24,12.37l.93,5.35-7.06-.51,4.42,4.06A13.79,13.79,0,0,1,33,15.75Z"/><path class="cls-4" d="M47.9,33.37A19.53,19.53,0,0,0,44.35,22,14,14,0,0,0,33,15.75a13.79,13.79,0,0,0-10.77,5.52,19.41,19.41,0,0,0-4.08,12.1C18.19,43.1,24.84,51,33,51S47.9,43.1,47.9,33.37ZM19.58,32.9c0-8.21,5.57-14.93,12.68-15.62a9.44,9.44,0,0,1,1.2-.07,9.66,9.66,0,0,1,1.2.07c7.1.69,12.67,7.41,12.67,15.62,0,8.66-6.21,15.69-13.87,15.69S19.58,41.56,19.58,32.9Z"/><path class="cls-5" d="M35.22,56c-6.5,0-12.09,3.13-14.54,7.62a33,33,0,0,0,28-1.59C45.91,58.41,40.93,56,35.22,56Z"/><path class="cls-1" d="M47.33,32.9c0-8.21-5.57-14.93-12.67-15.62,5.92.68,10.53,6.33,10.53,13.2,0,7.33-5.25,13.27-11.73,13.27S21.72,37.81,21.72,30.48c0-6.87,4.62-12.52,10.54-13.2C25.15,18,19.58,24.69,19.58,32.9c0,8.66,6.21,15.69,13.88,15.69S47.33,41.56,47.33,32.9Z"/><path class="cls-6" d="M21.72,30.48c0,7.33,5.25,13.27,11.74,13.27s11.73-5.94,11.73-13.27c0-6.87-4.61-12.52-10.53-13.2a9.66,9.66,0,0,0-1.2-.07,9.44,9.44,0,0,0-1.2.07C26.34,18,21.72,23.61,21.72,30.48Zm11.74,9.79a7.37,7.37,0,1,1,7.37-7.37A7.37,7.37,0,0,1,33.46,40.27Z"/><path class="cls-7" d="M50.43,34.43l0,.36c.17,0,.35,0,.51.06a5.34,5.34,0,0,1,1.62.51,2.07,2.07,0,0,0-1.54-1,3.05,3.05,0,0,0-1.81.28c.36.06.7.09,1,.13,0-.12,0-.23.06-.34Z"/><path class="cls-8" d="M50.23,39.7a11.5,11.5,0,0,1-.58,2A7,7,0,0,1,49,43.15l2.91,1.13-3.69.26c-.09.15-.19.3-.27.45-.37.49-.76,1-1.15,1.45a7.49,7.49,0,0,1-1,1c1.53.48,7.16,1.94,8.19-2.26C55,41.17,51.53,40,50.23,39.7Z"/><path class="cls-9" d="M51.94,44.28,49,43.15c-.24.47-.51.93-.78,1.39Z"/><path class="cls-7" d="M46.83,46.44c.39-.48.78-1,1.15-1.45.08-.15.18-.3.27-.45.27-.46.54-.92.78-1.39a7,7,0,0,0,.62-1.47,11.5,11.5,0,0,0,.58-2,18,18,0,0,0,.23-4.91l0-.36h-.1c0,.11,0,.22-.06.34-.09.48-.18,1-.25,1.44A10.39,10.39,0,0,1,49.69,38l-.44,1.7a16.2,16.2,0,0,1-.59,1.65l-.3.82a8.17,8.17,0,0,1-.38.79c-.27.52-.5,1-.8,1.56s-.65,1-1,1.47-.72.93-1.08,1.4a10,10,0,0,1-1.23,1.29,8.83,8.83,0,0,1-1.41,1.11,19,19,0,0,1-3.18,1.62c-2.15,1-4.34,1.87-6.62,2.65v.1a14.23,14.23,0,0,0,3.6-.62,15.6,15.6,0,0,0,3.39-1.39,27.19,27.19,0,0,0,3-2.1c.5-.34,1-.73,1.44-1.11a14.22,14.22,0,0,0,1.4-1.17l.34-.31A7.49,7.49,0,0,0,46.83,46.44Z"/><path class="cls-10" d="M33.46,25.53a7.37,7.37,0,1,0,7.37,7.37A7.37,7.37,0,0,0,33.46,25.53Zm0,12.84A5.47,5.47,0,0,1,32,27.63a1.59,1.59,0,0,1,.25-.33,1.67,1.67,0,0,1,2.37,0,1.59,1.59,0,0,1,.25.33,5.46,5.46,0,0,1-1.43,10.74Z"/><path class="cls-11" d="M34.89,27.63a1.66,1.66,0,0,1,0,1.73,3.83,3.83,0,1,1-2.85,0,1.68,1.68,0,0,1,0-1.73,5.48,5.48,0,1,0,2.87,0Z"/><path class="cls-12" d="M32.27,29.67a2.34,2.34,0,0,1-.24-.31,3.83,3.83,0,1,0,2.85,0,2.34,2.34,0,0,1-.24.31A1.68,1.68,0,0,1,32.27,29.67Z"/><path class="cls-6" d="M32,29.36a2.34,2.34,0,0,0,.24.31,1.68,1.68,0,0,0,2.37,0,2.34,2.34,0,0,0,.24-.31,1.66,1.66,0,0,0,0-1.73,1.59,1.59,0,0,0-.25-.33,1.67,1.67,0,0,0-2.37,0,1.59,1.59,0,0,0-.25.33A1.68,1.68,0,0,0,32,29.36Z"/></g></g></svg>