<svg xmlns="http://www.w3.org/2000/svg" viewBox="0 0 66.01 66.01"><defs><style>.cls-1{fill:#dadada;}.cls-2{fill:#ea7100;}.cls-3{fill:#ce5d00;}.cls-4{fill:#993080;}.cls-5{fill:#842572;}.cls-6{fill:#c90794;}.cls-7{fill:#fff;}.cls-8{fill:#021512;}.cls-9{fill:#e30613;}.cls-10{fill:#ff4557;}.cls-11{fill:#d439a9;}.cls-12{fill:#e89400;}</style></defs><title>m3</title><g id="Layer_2" data-name="Layer 2"><g id="characters"><circle class="cls-1" cx="33.01" cy="33.01" r="33"/><path class="cls-2" d="M5.35,34.11a5.22,5.22,0,0,1,.39-.74A5.22,5.22,0,0,0,5.35,34.11Z"/><path class="cls-2" d="M5.11,34.92a4.12,4.12,0,0,1,.23-.78A4.12,4.12,0,0,0,5.11,34.92Z"/><path class="cls-2" d="M8.36,36.26a5.82,5.82,0,0,0,4.93,1.09A4.46,4.46,0,0,0,15.46,42a7.86,7.86,0,0,0,2.91,1A19.4,19.4,0,0,1,11,28a18.72,18.72,0,0,1,.56-4.52,4.56,4.56,0,0,1-2.25-.74A6.22,6.22,0,0,0,7,32a4.9,4.9,0,0,0-1.25,1.32,5,5,0,0,1,.53-.68A5.84,5.84,0,0,0,8.36,36.26Z"/><polygon class="cls-2" points="9.78 40.69 9.78 40.69 9.78 40.69 9.78 40.69"/><path class="cls-2" d="M5,35.91a4.58,4.58,0,0,1,.09-.83A4.58,4.58,0,0,0,5,35.91Z"/><path class="cls-2" d="M10,46.09a4.4,4.4,0,0,0,3.37,1.59,4.18,4.18,0,0,0,1.07-.14,4.18,4.18,0,0,1-1.07.14A4.4,4.4,0,0,1,10,46.09Z"/><path class="cls-2" d="M48.7,53a5.79,5.79,0,0,0,1.13-1.24A5.79,5.79,0,0,1,48.7,53Z"/><path class="cls-2" d="M55.54,22.7a4.48,4.48,0,0,1-1.58.69,18.68,18.68,0,0,1-2.42,14.77,6.72,6.72,0,0,0,8-5.77,4,4,0,0,0-.45-.37,6.23,6.23,0,0,0-3.18-9.62,2.88,2.88,0,0,1-.39.3Z"/><path class="cls-2" d="M48.14,42.22l-.06.42a6.26,6.26,0,0,0,.55-.34,5.38,5.38,0,0,0,1.87-2.66A21.3,21.3,0,0,1,48.14,42.22Z"/><path class="cls-2" d="M56.94,41.88a4.42,4.42,0,0,1-4.21,5.8,3.83,3.83,0,0,1-1-.12,3.83,3.83,0,0,0,1,.12,4.42,4.42,0,0,0,4.21-5.8Z"/><path class="cls-2" d="M50.84,48.47a5.82,5.82,0,0,1-1,3.29,5.82,5.82,0,0,0,1-3.29,6.26,6.26,0,0,0-.15-1.31h0A6.26,6.26,0,0,1,50.84,48.47Z"/><path class="cls-2" d="M46.32,54.18A5.73,5.73,0,0,0,48.7,53a5.73,5.73,0,0,1-2.38,1.18Z"/><path class="cls-2" d="M60.72,34a4.77,4.77,0,0,1,.28.83A4.77,4.77,0,0,0,60.72,34Z"/><path class="cls-2" d="M60.22,33.14a4.33,4.33,0,0,1,.44.75A4,4,0,0,0,60.22,33.14Z"/><path class="cls-2" d="M61,35a4.73,4.73,0,0,1,.1.93A4.73,4.73,0,0,0,61,35Z"/><path class="cls-2" d="M59.56,32.39a4.87,4.87,0,0,1,.61.68A4.87,4.87,0,0,0,59.56,32.39Z"/><path class="cls-3" d="M19.21,43.68c-.29-.21-.56-.43-.84-.65a7.86,7.86,0,0,1-2.91-1,4.46,4.46,0,0,1-2.17-4.65,5.7,5.7,0,0,1-7-4.69,5,5,0,0,0-.53.68l0,0a5.22,5.22,0,0,0-.39.74v0a4.12,4.12,0,0,0-.23.78.9.9,0,0,0,0,.16,4.58,4.58,0,0,0-.09.83,4.78,4.78,0,0,0,4.78,4.78h0a4.44,4.44,0,0,0,3.6,7,4.18,4.18,0,0,0,1.07-.14,4.63,4.63,0,0,0,1-.38,5.66,5.66,0,0,0-.15,1.31,5.92,5.92,0,0,0,1.34,3.74l.38.42a6.58,6.58,0,0,0,.87.71,5.81,5.81,0,0,0,2.55,1c-.08-.69-.16-1.38-.25-2.09C19.86,49.48,19.53,46.57,19.21,43.68Z"/><path class="cls-3" d="M57.16,43.25a4.42,4.42,0,0,0-.22-1.37,4.32,4.32,0,0,0-.61-1.19h0a4.78,4.78,0,0,0,4.78-4.78A4.73,4.73,0,0,0,61,35s0-.09,0-.13a4.77,4.77,0,0,0-.28-.83l-.06-.13a4.33,4.33,0,0,0-.44-.75.18.18,0,0,0,0-.07,4.87,4.87,0,0,0-.61-.68h0a6.72,6.72,0,0,1-8,5.77c-.32.51-.67,1-1,1.48a5.38,5.38,0,0,1-1.87,2.66,6.26,6.26,0,0,1-.55.34c-.38,2.58-.77,5.22-1.17,7.77-.14.92-.29,1.84-.43,2.73,0,.35-.11.7-.16,1A5.73,5.73,0,0,0,48.7,53a5.87,5.87,0,0,0,2.14-4.53,6.26,6.26,0,0,0-.15-1.31h0a4.8,4.8,0,0,0,1.08.4,3.83,3.83,0,0,0,1,.12A4.43,4.43,0,0,0,57.16,43.25Z"/><path class="cls-2" d="M14.49,28.24a11.71,11.71,0,0,0,3.27,1.12c-.07-.78-.12-1.51-.17-2.17s-.07-1.25-.07-1.85,0-.9.06-1.33c0-.11,0-.22,0-.33a15.22,15.22,0,0,1,.53-2.94h0c.06-.17.1-.36.16-.53a5.54,5.54,0,0,1-2-.05,4.58,4.58,0,0,1-4.4,3.36c-.1,0-.2,0-.3,0A18.72,18.72,0,0,0,11,28a19.4,19.4,0,0,0,7.34,15c.28.22.55.44.84.65-.1-.91-.2-1.81-.29-2.7-.06-.53-.12-1.07-.18-1.59-.32-3-.61-5.94-.84-8.42A8.06,8.06,0,0,1,14.49,28.24Z"/><path class="cls-2" d="M54,23.39a4.81,4.81,0,0,1-1,.12,4.59,4.59,0,0,1-4.59-4.59h0l-.41,0h-.16a18.25,18.25,0,0,1,1.46,4.92c0,.19.06.38.08.57.07.5.13,1,.17,1.55,0,.29,0,.58.06.88l0,.9c0,.39,0,.78,0,1.18,0,.15,0,.3,0,.46A12.11,12.11,0,0,0,53,28.24,8.05,8.05,0,0,1,49.53,31l0,.45c0,.19,0,.39,0,.58-.06.68-.12,1.37-.21,2.06h0c-.3,2.42-.67,5.12-1.07,7.91l0,.24a21.3,21.3,0,0,0,2.36-2.58c.37-.48.72-1,1-1.48A18.68,18.68,0,0,0,54,23.39Z"/><path class="cls-4" d="M21.57,64h0c0-.22-.06-.45-.09-.7C21.51,63.51,21.54,63.74,21.57,64Z"/><path class="cls-4" d="M46.07,55.77c-.21,1.27-.4,2.49-.59,3.64C45.67,58.26,45.86,57,46.07,55.77Z"/><path class="cls-4" d="M45.3,60.52c-.12.72-.23,1.4-.34,2C45.07,61.92,45.18,61.24,45.3,60.52Z"/><path class="cls-4" d="M21.28,61.6c-.13-1.08-.27-2.31-.44-3.67C21,59.29,21.15,60.52,21.28,61.6Z"/><path class="cls-4" d="M44.75,63.84l.06-.36-.06.36Z"/><path class="cls-4" d="M20.17,52.21c.09.71.17,1.4.25,2.09.15,1.27.29,2.49.42,3.63C20.64,56.19,20.41,54.25,20.17,52.21Z"/><path class="cls-4" d="M46.48,53.14c-.14.9-.28,1.77-.41,2.63.08-.52.16-1.05.25-1.59h0C46.37,53.84,46.43,53.49,46.48,53.14Z"/><path class="cls-4" d="M17.52,25.34c0-.46,0-.9.06-1.33C17.55,24.44,17.52,24.88,17.52,25.34Z"/><path class="cls-4" d="M17.59,23.68a16,16,0,0,1,.53-2.94A15.22,15.22,0,0,0,17.59,23.68Z"/><path class="cls-4" d="M49.6,29.38c0-.16,0-.31,0-.46,0,.15,0,.31,0,.46Z"/><path class="cls-4" d="M49.45,32c0-.19,0-.39,0-.58C49.48,31.61,49.47,31.81,49.45,32Z"/><path class="cls-4" d="M49.56,26.84c0,.29,0,.6,0,.9Z"/><path class="cls-4" d="M48.17,42c-.4,2.78-.83,5.66-1.26,8.43.4-2.55.79-5.19,1.17-7.77l.06-.42Z"/><path class="cls-4" d="M49.33,24.41c.07.5.13,1,.17,1.55C49.46,25.43,49.4,24.91,49.33,24.41Z"/><path class="cls-4" d="M49.24,34.06h0c-.3,2.42-.67,5.12-1.07,7.91.4-2.79.77-5.49,1.07-7.91Z"/><path class="cls-4" d="M47.62,31.87a10,10,0,0,1-1.86,6h0a6,6,0,0,1-1.38,1.24l0,0a6.94,6.94,0,0,1-.71.38l-.1,0a5,5,0,0,1-.8.28l-.08,0c-.24.06-.48.1-.73.14l-.21,0a7.89,7.89,0,0,1-.84.05h0a6.13,6.13,0,0,1-6.11-4.42c-.09-.26-.17-.53-.24-.82a14.26,14.26,0,0,1-.41-2.92c0-.24,0-.49,0-.75,0-6.4,3-11.58,6.78-11.58,3.49,0,6.36,4.49,6.74,10.28l.53-.11c.34-2.39.67-4.73.94-6.88.07.33.13.67.18,1a18.25,18.25,0,0,0-1.46-4.92,5.48,5.48,0,0,1-4.43-2.46,5.21,5.21,0,0,1-2.23.51,5.13,5.13,0,0,1-2.41-.61,8.52,8.52,0,0,1-13.14-.11,5.78,5.78,0,0,1-1.87.32,5.32,5.32,0,0,1-1.2-.13,5.3,5.3,0,0,1-2.66,3.26,5.42,5.42,0,0,1-1.57.5c-.06.17-.1.36-.16.53.27,2.73.59,5.8.93,8.92l.79.17c.38-5.79,3.25-10.28,6.73-10.28,3.75,0,6.79,5.18,6.79,11.58,0,.26,0,.51,0,.75h0a13.64,13.64,0,0,1-.4,2.92c-.07.29-.16.56-.25.82A6.11,6.11,0,0,1,26.57,40h0A6.49,6.49,0,0,1,25.8,40l-.22,0-.57-.1-.2,0a4.11,4.11,0,0,1-.68-.21h0a6.89,6.89,0,0,1-.73-.34h0a5.21,5.21,0,0,1-.65-.43l-.05,0a6.22,6.22,0,0,1-1.67-2h0a11.17,11.17,0,0,1-1.17-4.92.76.76,0,0,1,0-.15l-.55-.19c1.2,10.89,2.56,21.91,2.56,21.91s1,11.07,11.2,11.07,11.07-9.32,11.07-9.32,2.07-12.08,3.75-23.54l-.21.07A.76.76,0,0,0,47.62,31.87ZM23.91,43.58a2.09,2.09,0,1,1-2.09,2.09A2.1,2.1,0,0,1,23.91,43.58ZM41.83,56.24h0a1.59,1.59,0,0,1-1.41.91,5.78,5.78,0,0,1-6,4.92,9.22,9.22,0,0,1-7.86-4.78,14.54,14.54,0,0,1-2.2.13h0s2-2.19,3.66-4.07c.75-.86,1.42-1.66,1.78-2.16a1.59,1.59,0,0,1,.43-.43l.22-.11.22,0a2.78,2.78,0,0,1,1.32.47c.43.22.85.38,1.25.11,1.26-.86,1.55-1,1.91-.85a5.74,5.74,0,0,1,1,.72l.82.71c.46.39,1,.83,1.48,1.29l1,.93.52.46c.43.39.85.75,1.24,1.08l.64.54,0,0a.33.33,0,0,0,0,.06A.36.36,0,0,1,41.83,56.24Z"/><path class="cls-5" d="M18.12,20.74a16,16,0,0,0-.53,2.94c0,.11,0,.22,0,.33,0,.43-.06.87-.06,1.33s0,1.21.07,1.85.1,1.39.17,2.17c.41.1.84.2,1.29.29-.34-3.12-.66-6.19-.93-8.92h0Z"/><path class="cls-5" d="M46.48,53.14c.14-.89.29-1.81.43-2.73.43-2.77.86-5.65,1.26-8.43s.77-5.49,1.07-7.91h0c.09-.69.15-1.38.21-2.06,0-.19,0-.39,0-.58l0-.45a14.47,14.47,0,0,1-1.69.68c-1.68,11.46-3.75,23.54-3.75,23.54S43.25,64.51,33,64.51s-11.2-11.07-11.2-11.07-1.36-11-2.56-21.91c-.5-.18-1-.37-1.36-.56.23,2.48.52,5.37.84,8.42.06.52.12,1.06.18,1.59.09.89.19,1.79.29,2.7.32,2.89.65,5.8,1,8.53.24,2,.47,4,.67,5.72.17,1.36.31,2.59.44,3.67.08.61.14,1.16.2,1.66,0,.25.06.48.09.7a32.93,32.93,0,0,0,23.18-.12l.06-.36c0-.29.1-.6.15-.92.11-.64.22-1.32.34-2q.09-.54.18-1.11c.19-1.15.38-2.37.59-3.64C46.2,54.91,46.34,54,46.48,53.14Z"/><path class="cls-5" d="M48.13,29.71l1.46-.33c0-.15,0-.31,0-.46,0-.4,0-.79,0-1.18s0-.61,0-.9,0-.59-.06-.88c0-.53-.1-1.05-.17-1.55,0-.19,0-.38-.08-.57s-.11-.68-.18-1C48.8,25,48.47,27.32,48.13,29.71Z"/><path class="cls-6" d="M33.33,31.87c0-.24,0-.49,0-.75,0-6.4-3-11.58-6.79-11.58-3.48,0-6.35,4.49-6.73,10.28C25.49,31,33.33,31.87,33.33,31.87ZM26.45,20.23c1.94,0,3.51,1.11,3.51,2.47s-1.57,2.47-3.51,2.47-3.51-1.1-3.51-2.47S24.51,20.23,26.45,20.23Z"/><path class="cls-6" d="M19.81,31.72a.76.76,0,0,0,0,.15h.53Z"/><path class="cls-7" d="M31.59,32.21v-.05h-.05Z"/><path class="cls-7" d="M25.58,40l-.57-.1Z"/><path class="cls-7" d="M26.57,40A6.49,6.49,0,0,1,25.8,40,6.49,6.49,0,0,0,26.57,40Z"/><path class="cls-7" d="M30.49,35.24l-.21,0a1.81,1.81,0,0,1-1.8-1.81,1.77,1.77,0,0,1,.28-1,24.28,24.28,0,0,1-8.41-.62h-.53A11.17,11.17,0,0,0,21,36.79a6.26,6.26,0,0,0,4.1,1.38A6,6,0,0,0,30.49,35.24Z"/><path class="cls-7" d="M23.36,39.25a5.21,5.21,0,0,1-.65-.43A5.21,5.21,0,0,0,23.36,39.25Z"/><path class="cls-7" d="M21,36.79a6.22,6.22,0,0,0,1.67,2A6.22,6.22,0,0,1,21,36.79Z"/><path class="cls-7" d="M24.1,39.6a6.89,6.89,0,0,1-.73-.34A6.89,6.89,0,0,0,24.1,39.6Z"/><path class="cls-7" d="M24.81,39.81a4.11,4.11,0,0,1-.68-.21A4.11,4.11,0,0,0,24.81,39.81Z"/><path class="cls-1" d="M31.59,32.21a1.8,1.8,0,0,1-1.1,3,6,6,0,0,1-5.4,2.93A6.26,6.26,0,0,1,21,36.79h0a6.22,6.22,0,0,0,1.67,2l.05,0a5.21,5.21,0,0,0,.65.43h0a6.89,6.89,0,0,0,.73.34h0a4.11,4.11,0,0,0,.68.21l.2,0,.57.1.22,0a6.49,6.49,0,0,0,.77.05h0a6.11,6.11,0,0,0,6.11-4.42c.09-.26.18-.53.25-.82a13.64,13.64,0,0,0,.4-2.92h0c-.59.12-1.17.21-1.73.29Z"/><path class="cls-8" d="M20.35,31.87a24.28,24.28,0,0,0,8.41.62,1.8,1.8,0,0,1,2.79-.32h.05c.56-.08,1.14-.17,1.73-.29,0,0-7.84-.92-13.49-2.05l-.79-.17c-.45-.09-.88-.19-1.29-.29a11.71,11.71,0,0,1-3.27-1.12A8.06,8.06,0,0,0,17.9,31c.41.19.86.38,1.36.56l.55.19Z"/><path class="cls-8" d="M30.28,35.26l.21,0a1.8,1.8,0,0,0,1.1-3l0,0a1.8,1.8,0,0,0-2.79.32,1.77,1.77,0,0,0-.28,1A1.81,1.81,0,0,0,30.28,35.26Zm1.29-2.6a.65.65,0,1,1-.64-.65A.65.65,0,0,1,31.57,32.66Z"/><path class="cls-6" d="M40.86,19.54c-3.74,0-6.78,5.18-6.78,11.58,0,.26,0,.51,0,.75,0,0,7.85-.92,13.5-2.05C47.22,24,44.35,19.54,40.86,19.54Zm-3.5,3.16c0-1.36,1.57-2.47,3.5-2.47s3.51,1.11,3.51,2.47-1.57,2.47-3.51,2.47S37.36,24.07,37.36,22.7Z"/><path class="cls-6" d="M47.63,31.72l-.55.15h.54A.76.76,0,0,1,47.63,31.72Z"/><path class="cls-7" d="M35.88,32.17l-.51-.08c0,.22.08.44.13.65A1.73,1.73,0,0,1,35.88,32.17Z"/><path class="cls-7" d="M41.71,40a7.89,7.89,0,0,1-.84.05A7.89,7.89,0,0,0,41.71,40Z"/><path class="cls-7" d="M44.34,39.09a6.94,6.94,0,0,1-.71.38A6.94,6.94,0,0,0,44.34,39.09Z"/><path class="cls-7" d="M39,33.45a1.81,1.81,0,0,1-1.81,1.81,1.85,1.85,0,0,1-.77-.18,6,6,0,0,0,5.53,3.14A6,6,0,0,0,46.81,36a7.24,7.24,0,0,1-1.05,1.82,10,10,0,0,0,1.86-6h-.54a24.19,24.19,0,0,1-8.4.62A1.86,1.86,0,0,1,39,33.45Z"/><path class="cls-7" d="M44.38,39.07a6,6,0,0,0,1.38-1.24A6,6,0,0,1,44.38,39.07Z"/><path class="cls-7" d="M43.53,39.51a6.27,6.27,0,0,1-.8.28A5,5,0,0,0,43.53,39.51Z"/><path class="cls-7" d="M42.65,39.81c-.24.06-.48.1-.73.14C42.17,39.91,42.41,39.87,42.65,39.81Z"/><path class="cls-1" d="M34.75,35.61A6.13,6.13,0,0,0,40.86,40h0a7.89,7.89,0,0,0,.84-.05l.21,0c.25,0,.49-.08.73-.14l.08,0a6.27,6.27,0,0,0,.8-.28l.1,0a6.94,6.94,0,0,0,.71-.38l0,0a6,6,0,0,0,1.38-1.24h0A7.24,7.24,0,0,0,46.81,36a6,6,0,0,1-4.9,2.21,6,6,0,0,1-5.53-3.14,1.8,1.8,0,0,1-1-1.63,1.71,1.71,0,0,1,.15-.71c0-.21-.09-.43-.13-.65C35,32,34.54,32,34.1,31.87a14.26,14.26,0,0,0,.41,2.92C34.58,35.08,34.66,35.35,34.75,35.61Z"/><path class="cls-8" d="M53,28.24a12.11,12.11,0,0,1-3.35,1.14h0l-1.46.33-.53.11C42,31,34.1,31.87,34.1,31.87c.44.09.86.16,1.27.22l.51.08a1.83,1.83,0,0,1,1.27-.52,1.79,1.79,0,0,1,1.53.84,24.19,24.19,0,0,0,8.4-.62l.55-.15.21-.07A14.47,14.47,0,0,0,49.53,31,8.05,8.05,0,0,0,53,28.24Z"/><path class="cls-8" d="M35.5,32.74a1.71,1.71,0,0,0-.15.71,1.8,1.8,0,0,0,1,1.63,1.85,1.85,0,0,0,.77.18A1.81,1.81,0,0,0,39,33.45a1.86,1.86,0,0,0-.28-1,1.79,1.79,0,0,0-1.53-.84,1.83,1.83,0,0,0-1.27.52A1.73,1.73,0,0,0,35.5,32.74Zm1.21-.58a.65.65,0,1,1-.65.65A.65.65,0,0,1,36.71,32.16Z"/><path class="cls-6" d="M23.91,47.76a2.09,2.09,0,1,0-2.09-2.09A2.09,2.09,0,0,0,23.91,47.76Z"/><path class="cls-7" d="M37.43,56.22c-.47-.19-.8-.32-1.33-.5-1-.33-.93.25-2.22.34s-1.76-.84-2.56-.59c-.36.1-.88.51-1.75.92A9.38,9.38,0,0,0,37.43,56.22Z"/><path class="cls-9" d="M39.42,57c-1-.35-1.55-.58-2-.76a9.38,9.38,0,0,1-7.86.17,9.94,9.94,0,0,1-3,.89,9.22,9.22,0,0,0,7.86,4.78,5.78,5.78,0,0,0,6-4.92A2.64,2.64,0,0,1,39.42,57Z"/><path class="cls-9" d="M38.46,53.05l1,.93Z"/><path class="cls-9" d="M33.35,51.94c-1.13.72-2.43-1.61-3.66,0-.92,1.2-3.7,4.09-5,5.47h-.29a14.54,14.54,0,0,0,2.2-.13,9.94,9.94,0,0,0,3-.89c.87-.41,1.39-.82,1.75-.92.8-.25,1.27.67,2.56.59s1.18-.67,2.22-.34c.53.18.86.31,1.33.5s1,.41,2,.76a2.64,2.64,0,0,0,1,.16,1.59,1.59,0,0,0,1.41-.91c-2.36-1.89-5.87-5-6.45-5.14C35,51,34.69,51.08,33.35,51.94Z"/><path class="cls-9" d="M40,54.44c.43.39.85.75,1.24,1.08C40.88,55.19,40.46,54.83,40,54.44Z"/><path class="cls-9" d="M30.23,50.75a1.59,1.59,0,0,0-.43.43A1.59,1.59,0,0,1,30.23,50.75Z"/><path class="cls-9" d="M41.86,56.17a.33.33,0,0,1,0-.06Z"/><path class="cls-9" d="M37,51.76c.46.39,1,.83,1.48,1.29C37.94,52.59,37.44,52.15,37,51.76Z"/><path class="cls-9" d="M30.45,50.64l.22,0Z"/><path class="cls-9" d="M36.16,51.05l.82.71Z"/><path class="cls-10" d="M41.91,56.06l-.64-.54c-.39-.33-.81-.69-1.24-1.08L39.51,54l-1-.93c-.52-.46-1-.9-1.48-1.29l-.82-.71a5.74,5.74,0,0,0-1-.72c-.36-.1-.65,0-1.91.85-.4.27-.82.11-1.25-.11a2.78,2.78,0,0,0-1.32-.47l-.22,0-.22.11a1.59,1.59,0,0,0-.43.43c-.36.5-1,1.3-1.78,2.16-1.64,1.88-3.66,4.07-3.66,4.07h.29c1.34-1.38,4.12-4.27,5-5.47,1.23-1.61,2.53.72,3.66,0,1.34-.86,1.65-.95,2-.85.58.16,4.09,3.25,6.45,5.14h0a.36.36,0,0,0,0-.07l0-.06Z"/><path class="cls-11" d="M26.45,25.17c1.94,0,3.51-1.1,3.51-2.47s-1.57-2.47-3.51-2.47-3.51,1.11-3.51,2.47S24.51,25.17,26.45,25.17Z"/><path class="cls-11" d="M44.37,22.7c0-1.36-1.57-2.47-3.51-2.47s-3.5,1.11-3.5,2.47,1.57,2.47,3.5,2.47S44.37,24.07,44.37,22.7Z"/><path class="cls-2" d="M56.81,21.39l-.08.13Z"/><path class="cls-2" d="M57.19,20.66l-.06.14Z"/><path class="cls-2" d="M56.26,22.08a1.21,1.21,0,0,1-.16.16A1.21,1.21,0,0,0,56.26,22.08Z"/><path class="cls-2" d="M7.54,20.32a6.17,6.17,0,0,1-.17-.65A4.42,4.42,0,0,0,7.54,20.32Z"/><path class="cls-2" d="M57.46,19.74a1.16,1.16,0,0,1,0,.18A1.16,1.16,0,0,0,57.46,19.74Z"/><path class="cls-2" d="M11.89,23.51a4.58,4.58,0,0,0,4.4-3.36,5.54,5.54,0,0,0,2,.05,5.42,5.42,0,0,0,1.57-.5,5.3,5.3,0,0,0,2.66-3.26,5.32,5.32,0,0,0,1.2.13,5.78,5.78,0,0,0,1.87-.32,8.52,8.52,0,0,0,13.14.11,5.13,5.13,0,0,0,2.41.61,5.21,5.21,0,0,0,2.23-.51,5.48,5.48,0,0,0,4.43,2.46H48l.41,0h0A4.59,4.59,0,0,0,53,23.51a4.81,4.81,0,0,0,1-.12,4.48,4.48,0,0,0,1.58-.69,3.63,3.63,0,0,0-1.28,0s2.17-3.44.89-5.22-4.28-1.72-4.28-1.72,1-3.73-1.78-5.06-4.72,1.5-4.72,1.5a3.08,3.08,0,0,0-2.28-3.11,3,3,0,0,0-3.39,1.22S37.48,4.76,33,4.92s-5.2,4.84-5.2,4.84-1.44-2-4.72-1.11-1.22,6.11-1.22,6.11a5.16,5.16,0,0,0-5.17-1.89c-3.22.78-2.16,4.5-2.16,4.5a4.91,4.91,0,0,0-4.56-.5c-1.44.55-2.12,2.14-2.44,3.45a4.46,4.46,0,0,0,4.05,3.16C11.69,23.49,11.79,23.51,11.89,23.51Z"/><path class="cls-12" d="M10,16.87a4.91,4.91,0,0,1,4.56.5s-1.06-3.72,2.16-4.5a5.16,5.16,0,0,1,5.17,1.89s-2.06-5.23,1.22-6.11,4.72,1.11,4.72,1.11.72-4.67,5.2-4.84,5.69,5.39,5.69,5.39a3,3,0,0,1,3.39-1.22,3.08,3.08,0,0,1,2.28,3.11s1.94-2.83,4.72-1.5,1.78,5.06,1.78,5.06,3-.06,4.28,1.72-.89,5.22-.89,5.22a3.63,3.63,0,0,1,1.28,0h0a2.88,2.88,0,0,0,.39-.3l.17-.16a1.21,1.21,0,0,0,.16-.16,4.22,4.22,0,0,0,.47-.56l.08-.13c.12-.19.22-.39.32-.59l.06-.14a4,4,0,0,0,.23-.74,1.16,1.16,0,0,0,0-.18,4.38,4.38,0,0,0,.08-.82,4.58,4.58,0,0,0-4.17-4.55,5.87,5.87,0,0,0,.09-.94A5.5,5.5,0,0,0,45.4,8.55a5.15,5.15,0,0,0-5.83-1.93,8.51,8.51,0,0,0-14.09-1,5.47,5.47,0,0,0-1.77-.29,5.6,5.6,0,0,0-5.46,4.36,5.21,5.21,0,0,0-3.29.51,5.31,5.31,0,0,0-2.85,4.12l-.22,0a4.54,4.54,0,0,0-4.52,5.34,6.17,6.17,0,0,0,.17.65h0C7.86,19,8.54,17.42,10,16.87Z"/><path class="cls-7" d="M30.28,32.66a.65.65,0,1,0,.65-.65A.65.65,0,0,0,30.28,32.66Z"/><path class="cls-7" d="M36.06,32.81a.65.65,0,1,0,.65-.65A.65.65,0,0,0,36.06,32.81Z"/></g></g></svg>