<svg xmlns="http://www.w3.org/2000/svg" viewBox="0 0 66 66"><defs><style>.cls-1{fill:#dadada;}.cls-2{fill:#133340;}.cls-3{fill:#4accff;}.cls-4{fill:#3899bf;}.cls-5{fill:#fff;}.cls-6{fill:#063;}.cls-7{fill:#1d1d1b;}.cls-8{fill:#b7ebff;}</style></defs><title>m4</title><g id="Layer_2" data-name="Layer 2"><g id="characters"><circle class="cls-1" cx="33" cy="33" r="33"/><path class="cls-2" d="M3.54,39.63s6,1,9.82,4.11a166.64,166.64,0,0,1-1.75-16.63A41.81,41.81,0,0,0,3.54,39.63Z"/><path class="cls-2" d="M64,36.36a41.76,41.76,0,0,0-10.72-13,125.35,125.35,0,0,1,1.15,18.2C58,37.92,64,36.36,64,36.36Z"/><path class="cls-3" d="M53.31,23.32c-.67-4.92-1.37-8-1.37-8A39.87,39.87,0,0,0,30.72,6.82c-10.78,3.9-19.06,12.32-19.06,12.32a67.59,67.59,0,0,0-.05,8,166.64,166.64,0,0,0,1.75,16.63c1.06,7,2.35,13.58,3.27,17.91a33,33,0,0,0,35.55-1.8,77.77,77.77,0,0,0,2.28-18.33A125.35,125.35,0,0,0,53.31,23.32ZM21.43,59.7a2.65,2.65,0,0,1,0-5.23,2.65,2.65,0,0,1,0,5.23Zm4.15,2.51a1.72,1.72,0,0,1,0-3.4,1.72,1.72,0,0,1,0,3.4Zm7.9-7.05C30.29,55,25,49.83,25,49.83a18,18,0,0,0,18.19-.36S36.66,55.36,33.48,55.16ZM48.66,41.84c-3.18,3.78-7.5,5-10.39,3.64s-5-1.42-10.38-.21-10.23-2.8-11.18-7.21c-.88-4.07-1-11.22,1.34-14.57l-.16.22c.65-6.43,8.05-8.61,8.05-8.61l.93,4a14.36,14.36,0,0,0-7.41,2.95,10.12,10.12,0,0,1,6.77-1.87c3.74.09,6.35,2.17,10.81.42,3.22-1.26,8,.56,11.05,3.28-.93-1.07-3.51-3.4-8.55-4l.93-4s7.25,2.15,8,8.43a8.74,8.74,0,0,1,2.14,3C52.27,31.56,51.83,38.06,48.66,41.84Z"/><path class="cls-4" d="M48.49,24.27a1.25,1.25,0,0,1,0,.19,4.51,4.51,0,0,0-.43-.54c-3-2.72-7.83-4.54-11.05-3.28-4.46,1.75-7.07-.33-10.81-.42a10.12,10.12,0,0,0-6.77,1.87,9,9,0,0,0-1.41,1.4c-2.38,3.35-2.22,10.5-1.34,14.57.95,4.41,5.82,8.43,11.18,7.21s7.48-1.11,10.38.21,7.21.14,10.39-3.64,3.61-10.28,2-14.53A8.74,8.74,0,0,0,48.49,24.27Zm-15.33,10c0,6.89-3.23,10.14-7.22,10.14s-7.22-3.25-7.22-10.14c0-.23,0-.46,0-.7s0-.5,0-.77c0-6,4.16-10.35,8.15-10.35s6.29,4.33,6.29,10.35c0,.2,0,.38,0,.57S33.16,34,33.16,34.31Zm15.5,0c0,6.89-3.23,10.14-7.22,10.14s-7.22-3.25-7.22-10.14c0-.3,0-.6,0-.9s0-.37,0-.57c0-6,2.3-10.35,6.29-10.35s8.15,4.33,8.15,10.35c0,.27,0,.52,0,.77S48.66,34.08,48.66,34.31Z"/><path class="cls-1" d="M25.94,41.73c-3.81,0-6.92-2.62-7.19-8.12,0,.24,0,.47,0,.7,0,6.89,3.24,10.14,7.22,10.14s7.22-3.25,7.22-10.14c0-.3,0-.6,0-.9C32.94,39,29.8,41.73,25.94,41.73Z"/><path class="cls-1" d="M41.44,41.73c-3.86,0-7-2.69-7.2-8.32,0,.3,0,.6,0,.9,0,6.89,3.23,10.14,7.22,10.14s7.22-3.25,7.22-10.14c0-.23,0-.46,0-.7C48.36,39.11,45.25,41.73,41.44,41.73Z"/><path class="cls-5" d="M26.87,22.49c-4,0-8.15,4.33-8.15,10.35,0,.27,0,.52,0,.77.27,5.5,3.38,8.12,7.19,8.12s7-2.69,7.2-8.32c0-.19,0-.37,0-.57C33.16,26.82,30.86,22.49,26.87,22.49Zm1.44,15.7a4,4,0,1,1,4-4A4,4,0,0,1,28.31,38.19Z"/><path class="cls-5" d="M40.51,22.49c-4,0-6.29,4.33-6.29,10.35,0,.2,0,.38,0,.57.2,5.63,3.34,8.32,7.2,8.32s6.92-2.62,7.19-8.12c0-.25,0-.5,0-.77C48.66,26.82,44.5,22.49,40.51,22.49Zm-1.13,15.7a4,4,0,1,1,4-4A4,4,0,0,1,39.38,38.19Z"/><path class="cls-6" d="M28.31,30.19a4,4,0,1,0,4,4A4,4,0,0,0,28.31,30.19Zm0,6.07a2.07,2.07,0,0,1-.76-4,.88.88,0,0,1,.12-1.11.89.89,0,0,1,1.39,1.11,2.07,2.07,0,0,1-.75,4Z"/><path class="cls-7" d="M29.06,32.26a.62.62,0,0,1-.11.17.89.89,0,0,1-1.28,0,.66.66,0,0,1-.12-.17,2.08,2.08,0,1,0,1.51,0Z"/><path class="cls-5" d="M29,32.43a.62.62,0,0,0,.11-.17.89.89,0,0,0-1.39-1.11.88.88,0,0,0-.12,1.11.66.66,0,0,0,.12.17A.89.89,0,0,0,29,32.43Z"/><path class="cls-6" d="M39.38,30.19a4,4,0,1,0,4,4A4,4,0,0,0,39.38,30.19Zm0,6.07a2.07,2.07,0,0,1-.76-4,.88.88,0,0,1,.12-1.11.89.89,0,0,1,1.39,1.11,2.07,2.07,0,0,1-.75,4Z"/><path class="cls-7" d="M40.13,32.26a.62.62,0,0,1-.11.17.89.89,0,0,1-1.28,0,.66.66,0,0,1-.12-.17,2.08,2.08,0,1,0,1.51,0Z"/><path class="cls-5" d="M40,32.43a.62.62,0,0,0,.11-.17.89.89,0,0,0-1.39-1.11.88.88,0,0,0-.12,1.11.66.66,0,0,0,.12.17A.89.89,0,0,0,40,32.43Z"/><path class="cls-2" d="M19.46,22.09a14.36,14.36,0,0,1,7.41-2.95l-.93-4s-7.4,2.18-8,8.61l.16-.22A9,9,0,0,1,19.46,22.09Z"/><path class="cls-2" d="M48.49,24.27c-.77-6.28-8-8.43-8-8.43l-.93,4c5,.64,7.62,3,8.55,4a4.51,4.51,0,0,1,.43.54A1.25,1.25,0,0,0,48.49,24.27Z"/><path class="cls-2" d="M25,49.83s5.34,5.13,8.53,5.33,9.66-5.69,9.66-5.69A18,18,0,0,1,25,49.83Z"/><path class="cls-8" d="M21.43,54.47a2.65,2.65,0,0,0,0,5.23,2.65,2.65,0,0,0,0-5.23Z"/><path class="cls-8" d="M25.58,58.81a1.72,1.72,0,0,0,0,3.4,1.72,1.72,0,0,0,0-3.4Z"/></g></g></svg>