<svg xmlns="http://www.w3.org/2000/svg" viewBox="0 0 66 66"><defs><style>.cls-1{fill:#dadada;}.cls-2,.cls-4{fill:#9b0707;}.cls-3{fill:#cd1610;}.cls-4{opacity:0.5;}.cls-5{fill:#fff;}.cls-6{fill:#5f0b11;}.cls-7{fill:#1d1d1b;}.cls-8{fill:#630000;}.cls-9{fill:#9a100c;}.cls-10{fill:#320000;}.cls-11{fill:#d74540;}</style></defs><title>m5</title><g id="Layer_2" data-name="Layer 2"><g id="characters"><circle class="cls-1" cx="33" cy="33" r="33"/><path class="cls-2" d="M25.12,29.3a8.23,8.23,0,0,1-2.74,1.28,23.19,23.19,0,0,1,1.22,4.71c1-.09,2-.15,3-.2A26.36,26.36,0,0,0,25.12,29.3Z"/><path class="cls-2" d="M42,29.85a6.41,6.41,0,0,1-2.11-2.19A19.84,19.84,0,0,0,36,35.17c1,.06,2.07.13,3.07.22A17,17,0,0,1,42,29.85Z"/><path class="cls-3" d="M57.11,48c.07.45.13.91.18,1.39C57.24,48.94,57.18,48.48,57.11,48Z"/><path class="cls-3" d="M8.54,55.15h0v0Z"/><path class="cls-3" d="M57.32,49.63c0,.49.09,1,.13,1.51C57.41,50.63,57.37,50.12,57.32,49.63Z"/><path class="cls-3" d="M56.84,46.49c.09.45.17.92.25,1.39C57,47.41,56.93,46.94,56.84,46.49Z"/><path class="cls-3" d="M8.55,53.69c0-1.23.06-2.46.12-3.66C8.61,51.23,8.57,52.46,8.55,53.69Z"/><path class="cls-3" d="M56.47,44.92c.11.43.22.87.31,1.32C56.69,45.79,56.58,45.35,56.47,44.92Z"/><path class="cls-3" d="M55.59,42.36c.16.36.3.73.43,1.11C55.89,43.09,55.75,42.72,55.59,42.36Z"/><path class="cls-3" d="M56.08,43.66c.13.38.26.77.37,1.18C56.34,44.43,56.21,44,56.08,43.66Z"/><path class="cls-3" d="M8.75,48.77,8.81,48Z"/><path class="cls-3" d="M8.69,49.8c0-.25,0-.5,0-.75C8.72,49.3,8.7,49.55,8.69,49.8Z"/><path class="cls-3" d="M8.54,54.67c0-.28,0-.56,0-.84C8.55,54.11,8.54,54.39,8.54,54.67Z"/><path class="cls-3" d="M8.83,47.77c0-.24.05-.49.07-.73C8.88,47.28,8.86,47.53,8.83,47.77Z"/><path class="cls-3" d="M26.66,62.84C39.72,65,47.22,60,51.33,52.44a2.17,2.17,0,0,1-.22-2.15A2,2,0,0,1,53,48.81c.25-.66.49-1.33.7-2a2.06,2.06,0,0,1-2.26.91c-1-.38-1.41-1.82-.88-3.23s1.77-2.25,2.78-1.87a1.83,1.83,0,0,1,1.08,1.54c.24-1,.44-2,.61-3,.18.32.34.67.5,1a8.69,8.69,0,0,0-3.18-4c-1.92-1.17-7.11-2.22-13.22-2.75-1-.09-2-.16-3.07-.22a92.75,92.75,0,0,0-9.43-.08c-1,0-2,.11-3,.2-6.71.59-12.22,2.17-13.37,5.24a27.18,27.18,0,0,0-1.31,6.39c.06-.58.13-1.14.21-1.69C11.72,54.52,17.74,61.35,26.66,62.84ZM48.45,48.61c.27-.72.9-1.14,1.42-1a1.25,1.25,0,0,1,.45,1.65c-.27.71-.9,1.14-1.42.95A1.26,1.26,0,0,1,48.45,48.61ZM31.07,36.24c5,0,9,1.45,9,3.24s-4,3.24-9,3.24-9-1.45-9-3.24S26.12,36.24,31.07,36.24Zm-10.7,2.9a6.68,6.68,0,0,0,.43,2.47c.05.13.1.25.16.38a1.17,1.17,0,0,0,.05.11l.14.3a.83.83,0,0,1,.07.13l.18.3.07.11.28.41,0,0c.1.13.2.25.31.37l.12.12.27.27a.86.86,0,0,0,.14.13,3.88,3.88,0,0,0,.31.26l.14.11c.16.12.32.23.5.34l0,0c.16.1.34.2.52.29l.2.09.43.2.24.09.49.17.23.07a6.36,6.36,0,0,0,.78.2h0c.26.06.54.1.83.14l.29,0,.65.07.35,0,.71,0h.34l1.12,0c.63,0,1.23-.09,1.8-.16l.23,0q.81-.11,1.53-.27l.27,0c.47-.11.93-.23,1.36-.35l.21-.07c.43-.14.85-.28,1.24-.44l.08,0c.38-.15.74-.32,1.08-.49l.12-.06a10.52,10.52,0,0,0,.94-.54l.17-.1c.27-.18.53-.36.77-.54l.17-.13c.23-.18.45-.36.65-.54l.12-.11.51-.51.09-.09h0a8.39,8.39,0,0,0,1.79-2.73,73.09,73.09,0,0,1,.79,11.73,6.5,6.5,0,0,1-2.41,5l-.21.15a8.81,8.81,0,0,1-.84.57l-.23.13a10.41,10.41,0,0,1-1.21.58l-.13,0a13.11,13.11,0,0,1-1.25.4l-.38.1a13.19,13.19,0,0,1-1.31.27l-.28,0c-.54.09-1.12.15-1.71.2l-.44,0c-.48,0-1,.05-1.49.05h-.55c-.66,0-1.34,0-2.05-.07h0c-.52,0-1-.07-1.47-.12l-.38,0L27.27,58,27,58c-.4-.06-.79-.13-1.15-.21l-.32-.07-.8-.2-.29-.08c-.31-.09-.61-.19-.89-.29L23.32,57l-.57-.24-.29-.14c-.21-.11-.42-.23-.61-.35l-.25-.16-.39-.29L21,55.64l-.32-.3a4.12,4.12,0,0,1-.28-.31c-.1-.11-.19-.22-.28-.34s-.13-.19-.19-.28l-.18-.29a9.65,9.65,0,0,1-1.1-4.27C18.27,44.85,20.37,39.14,20.37,39.14Z"/><path class="cls-3" d="M57.56,55h0v0Z"/><path class="cls-3" d="M57.47,51.43c.07,1,.1,2.14.1,3.24C57.57,53.57,57.54,52.48,57.47,51.43Z"/><path class="cls-4" d="M56.78,46.24l.06.25Z"/><path class="cls-4" d="M56.45,44.84a.24.24,0,0,0,0,.08A.24.24,0,0,1,56.45,44.84Z"/><path class="cls-4" d="M56,43.47a1.06,1.06,0,0,1,.06.19A1.06,1.06,0,0,0,56,43.47Z"/><path class="cls-4" d="M55.51,42.18a1.42,1.42,0,0,1,.08.18A1.42,1.42,0,0,0,55.51,42.18Z"/><path class="cls-4" d="M8.55,53.83v0Z"/><path class="cls-4" d="M57.57,54.67c0,.11,0,.21,0,.32C57.57,54.88,57.57,54.78,57.57,54.67Z"/><path class="cls-4" d="M57.45,51.14c0,.1,0,.2,0,.29C57.46,51.34,57.46,51.24,57.45,51.14Z"/><path class="cls-4" d="M57.09,47.88s0,.1,0,.15S57.1,47.93,57.09,47.88Z"/><path class="cls-4" d="M57.29,49.42l0,.21Z"/><path class="cls-4" d="M8.9,47s0-.08,0-.12S8.91,47,8.9,47Z"/><path class="cls-4" d="M8.81,48a2.45,2.45,0,0,0,0-.27A2.45,2.45,0,0,1,8.81,48Z"/><path class="cls-4" d="M8.73,49.05a2.64,2.64,0,0,0,0-.28A2.64,2.64,0,0,1,8.73,49.05Z"/><path class="cls-4" d="M8.54,54.86v0Z"/><path class="cls-4" d="M8.67,50c0-.08,0-.15,0-.23C8.68,49.88,8.68,50,8.67,50Z"/><path class="cls-3" d="M57.57,54.67c0-1.1,0-2.19-.1-3.24,0-.09,0-.19,0-.29,0-.51-.08-1-.13-1.51l0-.21c0-.48-.11-.94-.18-1.39,0-.05,0-.1,0-.15-.08-.47-.16-.94-.25-1.39l-.06-.25c-.09-.45-.2-.89-.31-1.32a.24.24,0,0,1,0-.08c-.11-.41-.24-.8-.37-1.18a1.06,1.06,0,0,0-.06-.19c-.13-.38-.27-.75-.43-1.11a1.42,1.42,0,0,0-.08-.18c-.16-.36-.32-.71-.5-1-.17,1-.37,2-.61,3a3.36,3.36,0,0,1-.19,1.69,4,4,0,0,1-.53,1c-.21.68-.45,1.35-.7,2a1,1,0,0,1,.25,0,1.87,1.87,0,0,1,.68,2.48c-.4,1.07-1.35,1.71-2.13,1.43a1.19,1.19,0,0,1-.45-.33C47.22,60,39.72,65,26.66,62.84c-8.92-1.49-14.94-8.32-17.53-17.61-.08.55-.15,1.11-.21,1.69,0,0,0,.08,0,.12,0,.24,0,.49-.07.73a2.45,2.45,0,0,1,0,.27l-.06.73a2.64,2.64,0,0,1,0,.28c0,.25,0,.5,0,.75,0,.08,0,.15,0,.23-.06,1.2-.1,2.43-.12,3.66v.14c0,.28,0,.56,0,.84v.48a33,33,0,0,0,49-.12v0C57.57,54.88,57.57,54.78,57.57,54.67Z"/><path class="cls-4" d="M57.57,54.67c0-1.1,0-2.19-.1-3.24,0-.09,0-.19,0-.29,0-.51-.08-1-.13-1.51l0-.21c0-.48-.11-.94-.18-1.39,0-.05,0-.1,0-.15-.08-.47-.16-.94-.25-1.39l-.06-.25c-.09-.45-.2-.89-.31-1.32a.24.24,0,0,1,0-.08c-.11-.41-.24-.8-.37-1.18a1.06,1.06,0,0,0-.06-.19c-.13-.38-.27-.75-.43-1.11a1.42,1.42,0,0,0-.08-.18c-.16-.36-.32-.71-.5-1-.17,1-.37,2-.61,3a3.36,3.36,0,0,1-.19,1.69,4,4,0,0,1-.53,1c-.21.68-.45,1.35-.7,2a1,1,0,0,1,.25,0,1.87,1.87,0,0,1,.68,2.48c-.4,1.07-1.35,1.71-2.13,1.43a1.19,1.19,0,0,1-.45-.33C47.22,60,39.72,65,26.66,62.84c-8.92-1.49-14.94-8.32-17.53-17.61-.08.55-.15,1.11-.21,1.69,0,0,0,.08,0,.12,0,.24,0,.49-.07.73a2.45,2.45,0,0,1,0,.27l-.06.73a2.64,2.64,0,0,1,0,.28c0,.25,0,.5,0,.75,0,.08,0,.15,0,.23-.06,1.2-.1,2.43-.12,3.66v.14c0,.28,0,.56,0,.84v.48a33,33,0,0,0,49-.12v0C57.57,54.88,57.57,54.78,57.57,54.67Z"/><path class="cls-3" d="M42,29.85a10.27,10.27,0,0,0,5.5,1.39c4.71,0,8.53-2.25,8.53-7.3s-3.82-11.08-8.53-11.08S39,18.9,39,23.94a7.34,7.34,0,0,0,.91,3.72A6.41,6.41,0,0,0,42,29.85Zm4.77-11.38a5.33,5.33,0,1,1-5.33,5.32A5.32,5.32,0,0,1,46.81,18.47Z"/><path class="cls-3" d="M27.73,23.67c0-5-3.82-11.08-8.52-11.08s-8.53,6-8.53,11.08S14.5,31,19.21,31a12.4,12.4,0,0,0,3.17-.39,8.23,8.23,0,0,0,2.74-1.28A6.63,6.63,0,0,0,27.73,23.67Zm-8.18,5.75a6,6,0,1,1,5.95-6A6,6,0,0,1,19.55,29.42Z"/><path class="cls-5" d="M25.5,23.47a5.95,5.95,0,1,0-5.95,6A6,6,0,0,0,25.5,23.47Zm-8,0a3.76,3.76,0,1,1,3.76,3.76A3.76,3.76,0,0,1,17.45,23.47Z"/><path class="cls-6" d="M25,23.47a3.76,3.76,0,1,0-3.76,3.76A3.76,3.76,0,0,0,25,23.47ZM20.5,21.66a.84.84,0,0,1,1.31-1.05.83.83,0,0,1,.11,1.05,1.93,1.93,0,0,1,1.24,1.81,2,2,0,1,1-2.66-1.81Z"/><path class="cls-7" d="M21.21,25.42a2,2,0,0,0,1.95-2,1.93,1.93,0,0,0-1.24-1.81.76.76,0,0,1-.11.16.85.85,0,0,1-1.2,0,.76.76,0,0,1-.11-.16,1.95,1.95,0,0,0,.71,3.76Z"/><path class="cls-5" d="M21.81,21.82a.76.76,0,0,0,.11-.16.83.83,0,0,0-.11-1.05.84.84,0,0,0-1.31,1.05.76.76,0,0,0,.11.16A.85.85,0,0,0,21.81,21.82Z"/><path class="cls-5" d="M46.81,29.12a5.33,5.33,0,1,0-5.33-5.33A5.33,5.33,0,0,0,46.81,29.12ZM46,20.43a3.36,3.36,0,1,1-3.36,3.36A3.35,3.35,0,0,1,46,20.43Z"/><path class="cls-6" d="M46,27.15a3.36,3.36,0,1,0-3.36-3.36A3.35,3.35,0,0,0,46,27.15Zm-.63-5a.74.74,0,0,1,.09-.93.76.76,0,0,1,1.08,0,.74.74,0,0,1,.1.93,1.75,1.75,0,1,1-1.27,0Z"/><path class="cls-7" d="M46,25.53a1.74,1.74,0,0,0,.64-3.36l-.1.15a.78.78,0,0,1-1.08,0,1.19,1.19,0,0,1-.09-.15A1.74,1.74,0,0,0,46,25.53Z"/><path class="cls-5" d="M46.51,22.32l.1-.15a.74.74,0,0,0-.1-.93.76.76,0,0,0-1.08,0,.74.74,0,0,0-.09.93,1.19,1.19,0,0,0,.09.15A.78.78,0,0,0,46.51,22.32Z"/><path class="cls-8" d="M27.35,46.26l.29,0Z"/><path class="cls-8" d="M24.12,45.29l.2.09Z"/><path class="cls-8" d="M26.49,46.11h0Z"/><path class="cls-8" d="M24.75,45.58l.24.09Z"/><path class="cls-8" d="M25.48,45.84l.23.07Z"/><path class="cls-8" d="M38.07,57.79a13.19,13.19,0,0,1-1.31.27A13.19,13.19,0,0,0,38.07,57.79Z"/><path class="cls-8" d="M21,42a1.17,1.17,0,0,0,.05.11A1.17,1.17,0,0,1,21,42Z"/><path class="cls-8" d="M20.36,55a4.12,4.12,0,0,0,.28.31A4.12,4.12,0,0,1,20.36,55Z"/><path class="cls-8" d="M28.76,58.2l-.38,0Z"/><path class="cls-8" d="M24.76,57.51l-.29-.08Z"/><path class="cls-8" d="M25.88,57.78l-.32-.07Z"/><path class="cls-8" d="M19.71,54.12l-.16-.29C27.3,51.08,35.65,52,43.17,55a8.27,8.27,0,0,1-.85.82,6.5,6.5,0,0,0,2.41-5,73.09,73.09,0,0,0-.79-11.73,8.39,8.39,0,0,1-1.79,2.73v1.72s-1.38,6.55-10.48,6.55-10.56-4.41-10.56-4.41a31.62,31.62,0,0,1-.31-4.12h0a6.68,6.68,0,0,1-.43-2.47s-2.1,5.71-1.76,10.71A9.65,9.65,0,0,0,19.71,54.12Z"/><path class="cls-8" d="M42.06,42l-.51.51Z"/><path class="cls-8" d="M20.08,54.69c-.07-.09-.13-.19-.19-.28C20,54.5,20,54.6,20.08,54.69Z"/><path class="cls-8" d="M22.61,44.26a.86.86,0,0,1-.14-.13A.86.86,0,0,0,22.61,44.26Z"/><path class="cls-8" d="M29.69,46.42h0Z"/><path class="cls-8" d="M28.29,46.37l.35,0Z"/><path class="cls-8" d="M21.85,56.3l-.25-.16Z"/><path class="cls-8" d="M23.56,45l0,0Z"/><path class="cls-8" d="M22.92,44.52l.14.11Z"/><path class="cls-8" d="M22.75,56.79l-.29-.14Z"/><path class="cls-8" d="M21.15,42.4a.83.83,0,0,1,.07.13A.83.83,0,0,0,21.15,42.4Z"/><path class="cls-8" d="M22.08,43.74l.12.12Z"/><path class="cls-8" d="M23.58,57.14,23.32,57Z"/><path class="cls-8" d="M21.4,42.83l.07.11Z"/><path class="cls-8" d="M21.75,43.35l0,0Z"/><path class="cls-8" d="M27.27,58,27,58Z"/><path class="cls-8" d="M41,56.67a10.41,10.41,0,0,1-1.21.58A10.41,10.41,0,0,0,41,56.67Z"/><path class="cls-8" d="M21.21,55.85,21,55.64Z"/><path class="cls-8" d="M39.7,57.29a13.11,13.11,0,0,1-1.25.4A13.11,13.11,0,0,0,39.7,57.29Z"/><path class="cls-8" d="M39.84,43.79c.27-.18.53-.36.77-.54C40.37,43.43,40.11,43.61,39.84,43.79Z"/><path class="cls-8" d="M40.78,43.12c.23-.18.45-.36.65-.54C41.23,42.76,41,42.94,40.78,43.12Z"/><path class="cls-8" d="M42.11,56a8.81,8.81,0,0,1-.84.57A8.81,8.81,0,0,0,42.11,56Z"/><path class="cls-8" d="M32.84,46.2q.81-.11,1.53-.27Q33.65,46.1,32.84,46.2Z"/><path class="cls-8" d="M34.64,45.88c.47-.11.93-.22,1.36-.35C35.57,45.65,35.11,45.77,34.64,45.88Z"/><path class="cls-8" d="M37.53,45c.38-.15.74-.32,1.08-.49C38.27,44.66,37.91,44.83,37.53,45Z"/><path class="cls-8" d="M32.29,58.39c-.66,0-1.34,0-2.05-.07C31,58.37,31.63,58.38,32.29,58.39Z"/><path class="cls-8" d="M34.33,58.33c-.48,0-1,.05-1.49.05C33.35,58.38,33.85,58.36,34.33,58.33Z"/><path class="cls-8" d="M38.73,44.43a10.52,10.52,0,0,0,.94-.54A10.52,10.52,0,0,1,38.73,44.43Z"/><path class="cls-8" d="M36.21,45.46c.43-.14.85-.28,1.24-.44C37.06,45.18,36.64,45.32,36.21,45.46Z"/><path class="cls-8" d="M36.48,58.11c-.54.09-1.12.15-1.71.2C35.36,58.26,35.94,58.2,36.48,58.11Z"/><path class="cls-8" d="M30.81,46.39c.63,0,1.23-.09,1.8-.16C32,46.3,31.44,46.36,30.81,46.39Z"/><path class="cls-5" d="M19.55,53.83l.16.29.18.29c.06.09.12.19.19.28s.18.23.28.34a4.12,4.12,0,0,0,.28.31l.32.3.25.21.39.29.25.16c.19.12.4.24.61.35l.29.14.57.24.26.11c.28.1.58.2.89.29l.29.08.8.2.32.07c.36.08.75.15,1.15.21l.24,0,1.11.14.38,0c.47,0,.95.09,1.47.12h0c.71,0,1.39.06,2.05.07h.55c.51,0,1,0,1.49-.05l.44,0c.59-.05,1.17-.11,1.71-.2l.28,0a13.19,13.19,0,0,0,1.31-.27l.38-.1a13.11,13.11,0,0,0,1.25-.4l.13,0A10.41,10.41,0,0,0,41,56.67l.23-.13a8.81,8.81,0,0,0,.84-.57l.21-.15a8.27,8.27,0,0,0,.85-.82C35.65,52,27.3,51.08,19.55,53.83Z"/><path class="cls-5" d="M21.11,45.73s1.45,4.41,10.56,4.41,10.48-6.55,10.48-6.55V41.87h0l-.09.09-.51.51-.12.11c-.2.18-.42.36-.65.54l-.17.13c-.24.18-.5.36-.77.54l-.17.1a10.52,10.52,0,0,1-.94.54l-.12.06c-.34.17-.7.34-1.08.49l-.08,0c-.39.16-.81.3-1.24.44l-.21.07c-.43.13-.89.24-1.36.35l-.27,0q-.72.16-1.53.27l-.23,0c-.57.07-1.17.13-1.8.16l-1.12,0h-.34l-.71,0-.35,0-.65-.07-.29,0c-.29,0-.57-.08-.83-.14h0a6.36,6.36,0,0,1-.78-.2l-.23-.07L25,45.67l-.24-.09-.43-.2-.2-.09c-.18-.09-.36-.19-.52-.29l0,0c-.18-.11-.34-.22-.5-.34l-.14-.11a3.88,3.88,0,0,1-.31-.26.86.86,0,0,1-.14-.13l-.27-.27-.12-.12c-.11-.12-.21-.24-.31-.37l0,0-.28-.41-.07-.11-.18-.3a.83.83,0,0,0-.07-.13L21,42.1A1.17,1.17,0,0,1,21,42c-.06-.13-.11-.25-.16-.38h0A31.62,31.62,0,0,0,21.11,45.73Z"/><path class="cls-9" d="M53.32,42.61c-1-.38-2.26.46-2.78,1.87s-.13,2.85.88,3.23a2.06,2.06,0,0,0,2.26-.91,4,4,0,0,0,.53-1,3.36,3.36,0,0,0,.19-1.69A1.83,1.83,0,0,0,53.32,42.61Z"/><path class="cls-9" d="M51.11,50.29a2.17,2.17,0,0,0,.22,2.15,1.19,1.19,0,0,0,.45.33c.78.28,1.73-.36,2.13-1.43a1.87,1.87,0,0,0-.68-2.48,1,1,0,0,0-.25,0A2,2,0,0,0,51.11,50.29Z"/><path class="cls-9" d="M48.9,50.26c.52.19,1.15-.24,1.42-.95a1.25,1.25,0,0,0-.45-1.65c-.52-.19-1.15.23-1.42,1A1.26,1.26,0,0,0,48.9,50.26Z"/><path class="cls-10" d="M10.68,13s5.77-3.9,11.22-4.57l-.72-4S15.52,6.15,10.68,13Z"/><path class="cls-10" d="M44.64,8.71c5.06.67,10.42,4.57,10.42,4.57C50.57,6.44,45.31,4.7,45.31,4.7Z"/><ellipse class="cls-11" cx="31.07" cy="39.48" rx="8.96" ry="3.24"/></g></g></svg>