<svg xmlns="http://www.w3.org/2000/svg" viewBox="0 0 66.01 66.01"><defs><style>.cls-1{fill:#dadada;}.cls-2{fill:#4a3b32;}.cls-3{fill:#7b6a58;}.cls-4{fill:#fff;}.cls-5{fill:#c6c6c6;}.cls-6{fill:#ad957f;}.cls-7{fill:#1d1d1b;}</style></defs><title>m6</title><g id="Layer_2" data-name="Layer 2"><g id="characters"><circle class="cls-1" cx="33.01" cy="33.01" r="33"/><path class="cls-2" d="M56.64,17.25a.87.87,0,0,0-1-1.12L49.9,17c1.09,1.53,2.68,4.09,4.56,7.35Z"/><path class="cls-2" d="M37.93,11.7l-5.6-7.34a1.13,1.13,0,0,0-1.91.17L26.64,12c1-.09,2-.16,3.16-.21A79.45,79.45,0,0,1,37.93,11.7Z"/><path class="cls-2" d="M15.53,17.88l-7.7.82a1,1,0,0,0-.77,1.59l3.88,6.27.09-.18A58,58,0,0,1,15.53,17.88Z"/><path class="cls-3" d="M54.46,24.36C52.58,21.1,51,18.54,49.9,17a14,14,0,0,0-1-1.26c-2.35-2.58-5.55-3.76-11-4.05a79.45,79.45,0,0,0-8.13,0c-1.14,0-2.19.12-3.16.21-5.42.52-8.3,1.85-11.11,5.93a58,58,0,0,0-4.5,8.5l-.09.18c-3,6.67-6,14.24-8.12,19.79A33,33,0,0,0,64.4,43.16C60.91,36,57.34,29.34,54.46,24.36ZM43.54,26.59a7.19,7.19,0,0,1-1.06,3.15.57.57,0,0,0-.08.13c-.13.2-.22.31-.24.34h0a4.49,4.49,0,0,1-.79.78,5.68,5.68,0,0,1-1,.64,6.43,6.43,0,0,1-1.18.46,6,6,0,0,1-2.77.18c-1.78-.36-3-1.75-3.49-3.9a2.37,2.37,0,0,1-.06-.52,2.63,2.63,0,0,1,0-.49c0-.16-.17-4.8,4-5.42S43.65,24.6,43.54,26.59ZM31.46,14.92c1.45,0,2.62.69,2.62,1.55S32.91,18,31.46,18s-2.61-.7-2.61-1.55S30,14.92,31.46,14.92Zm.24-2.33c1.1,0,2,.34,2,.76s-.89.76-2,.76-2-.34-2-.76S30.61,12.59,31.7,12.59Zm-5.84.76c1.7,0,3.08.53,3.08,1.18s-1.38,1.18-3.08,1.18-3.08-.53-3.08-1.18S24.16,13.35,25.86,13.35ZM23.43,24.54c4.62-2,7.84,3.76,7.85,3.76a3.7,3.7,0,0,1,.25.43,3.8,3.8,0,0,1,.18.47v0a4.74,4.74,0,0,1-1,4.74l-.16.12a4.58,4.58,0,0,1-1.1.73,6.35,6.35,0,0,1-1.66.57,5.79,5.79,0,0,1-3.25-.22,2.92,2.92,0,0,1-.78-.24C19.8,33.09,18.8,26.53,23.43,24.54ZM40.15,56.17a13.22,13.22,0,0,1-1.91,2.26A6.08,6.08,0,0,1,35.61,60a5,5,0,0,1-3-.33A9.94,9.94,0,0,1,30,58.08a20.34,20.34,0,0,1-3.94-4.3c.67.7,1.34,1.39,2.06,2a19.08,19.08,0,0,0,2.22,1.81A11.41,11.41,0,0,0,32.82,59a4.38,4.38,0,0,0,2.61.26,5.51,5.51,0,0,0,2.33-1.34,15.84,15.84,0,0,0,1.92-2.08A36.45,36.45,0,0,0,42.8,51,22.9,22.9,0,0,1,40.15,56.17Zm4.53-11.49a19.63,19.63,0,0,1-2.14,1.93,16.69,16.69,0,0,1-5.09,2.73,17.09,17.09,0,0,1-5.71.89,16.38,16.38,0,0,1-5.65-1,19.29,19.29,0,0,0,2.82.38c.47,0,.94,0,1.41.07s.94,0,1.4,0a19.68,19.68,0,0,0,5.49-1,19.23,19.23,0,0,0,5-2.48,27.72,27.72,0,0,0,4.28-3.7C45.9,43.19,45.33,44,44.68,44.68Zm2.38-4-.68.62-.26.22c-.3.25-.61.49-.95.73-6,4.23-15.62,6.72-21.44,5.45h0l-.19,0-1-.28h0a15.48,15.48,0,0,1-7.39-4.86,12.74,12.74,0,0,0-2,3.38A6.82,6.82,0,0,1,19,39.52a14.58,14.58,0,0,0-2.05,1.3l.29.07a13.48,13.48,0,0,0,1.67.25c.46,0,1,.07,1.53.07A17.09,17.09,0,0,0,23.21,41a20,20,0,0,0,4.53-1.24c1.27-.52,2.49-1,3.68-1.55l1.95-.85,2.31-1,3.57-1.6c1.5-.66,2.85-1.23,4-1.62l.72-.25.24-.08.47-.15.27-.09.43-.14.27-.08.42-.13.24-.08.45-.13.18-.06.47-.14.13,0,1.08-.31h0l.47-.13c-1.07-.14-2.17-.21-3.29-.33A11.4,11.4,0,0,1,51,30.87a7.41,7.41,0,0,1,2.45,1.06,5.13,5.13,0,0,1,1.78,2,9.08,9.08,0,0,0-3.54-2,16.12,16.12,0,0,1-3.23,7.23l-.28.36-.32.37c-.21.24-.42.47-.65.7Z"/><path class="cls-2" d="M47.06,40.68l.18-.17Z"/><path class="cls-2" d="M16.64,41.05a9.85,9.85,0,0,0-1.21,1.12c-.11.11-.2.24-.3.36a15.48,15.48,0,0,0,7.39,4.86l.89-3A12.24,12.24,0,0,1,16.64,41.05Z"/><path class="cls-2" d="M33.37,37.36l2.31-1Z"/><path class="cls-2" d="M48.21,39.44l-.32.37Z"/><path class="cls-2" d="M20.4,41.21c-.56,0-1.07,0-1.53-.07C19.33,41.18,19.84,41.21,20.4,41.21Z"/><path class="cls-2" d="M17.2,40.89l-.29-.07h0Z"/><path class="cls-2" d="M46.93,31.91l.47-.14Z"/><path class="cls-2" d="M31.42,38.21c-1.19.52-2.41,1-3.68,1.55A20,20,0,0,1,23.21,41a20,20,0,0,0,4.53-1.24C29,39.24,30.23,38.73,31.42,38.21Z"/><path class="cls-2" d="M47.53,31.73l1.08-.31Z"/><path class="cls-2" d="M46.3,32.1l.45-.13Z"/><path class="cls-2" d="M44.94,32.53l.43-.14Z"/><path class="cls-2" d="M45.64,32.31l.42-.13Z"/><path class="cls-2" d="M44.2,32.77l.47-.15Z"/><path class="cls-2" d="M46.38,41.3l-.26.22Z"/><path class="cls-2" d="M44,32.85l-.72.25c-1.14.39-2.49,1-4,1.62,1.5-.66,2.85-1.23,4-1.62Z"/><path class="cls-2" d="M49.62,37.46c-.13.21-.26.42-.41.64h0c-.22.32-.46.66-.72,1a16.12,16.12,0,0,0,3.23-7.23c-.29-.09-.57-.18-.87-.25a12.69,12.69,0,0,0-1.76-.31l-.47.13a16.86,16.86,0,0,1-1.72,5.19Z"/><path class="cls-4" d="M48.21,39.44l.28-.36c.26-.32.5-.66.72-1-1.76.34-3.52.83-5.49,1.33,2.21-1.72,2.74-4.85,3.91-7.73l1-.28h0l-1.08.31-.13,0-.47.14-.18.06-.45.13-.24.08-.42.13-.27.08-.43.14-.27.09-.47.15-.24.08-.72.25c-1.14.39-2.49,1-4,1.62l-3.57,1.6-2.31,1-1.95.85c-1.19.52-2.41,1-3.68,1.55A20,20,0,0,1,23.21,41a17.09,17.09,0,0,1-2.81.21c-.56,0-1.07,0-1.53-.07a13.48,13.48,0,0,1-1.67-.25l-.29-.07-.16.14c4.16,2.51,8.77,2.78,13.52,2.72-2.15,1.25-4.39,2.55-6.54,4C29.55,49,39.2,46.48,45.17,42.25c.34-.24.65-.48.95-.73l.26-.22.68-.62.18-.17c.23-.23.44-.46.65-.7Z"/><path class="cls-4" d="M49.21,38.1c.15-.22.28-.43.41-.64C49.49,37.67,49.36,37.88,49.21,38.1Z"/><path class="cls-5" d="M16.75,41l-.11.09a12.24,12.24,0,0,0,6.77,3.34l-.89,3h0l1,.28.19,0h0c2.15-1.47,4.39-2.77,6.54-4C25.52,43.74,20.91,43.47,16.75,41Z"/><path class="cls-5" d="M47.63,31.7c-1.17,2.88-1.7,6-3.91,7.73,2-.5,3.73-1,5.49-1.33h0c.15-.22.28-.43.41-.64l-2.72-.85a16.86,16.86,0,0,0,1.72-5.19h0Z"/><path class="cls-2" d="M16.64,41.05l.11-.09.16-.14h0A14.58,14.58,0,0,1,19,39.52a6.82,6.82,0,0,0-5.87,6.39,12.74,12.74,0,0,1,2-3.38c.1-.12.19-.25.3-.36A9.85,9.85,0,0,1,16.64,41.05Z"/><path class="cls-2" d="M51.72,31.85a9.08,9.08,0,0,1,3.54,2,5.13,5.13,0,0,0-1.78-2A7.41,7.41,0,0,0,51,30.87,11.4,11.4,0,0,0,45.8,31c1.12.12,2.22.19,3.29.33a12.69,12.69,0,0,1,1.76.31C51.15,31.67,51.43,31.76,51.72,31.85Z"/><path class="cls-6" d="M25.86,15.71c1.7,0,3.08-.53,3.08-1.18s-1.38-1.18-3.08-1.18-3.08.53-3.08,1.18S24.16,15.71,25.86,15.71Z"/><path class="cls-6" d="M31.7,14.11c1.1,0,2-.34,2-.76s-.89-.76-2-.76-2,.34-2,.76S30.61,14.11,31.7,14.11Z"/><path class="cls-6" d="M31.46,18c1.45,0,2.62-.7,2.62-1.55s-1.17-1.55-2.62-1.55-2.61.69-2.61,1.55S30,18,31.46,18Z"/><path class="cls-2" d="M23.8,34.92a2.92,2.92,0,0,0,.78.24,3.33,3.33,0,0,1-2-1.94,2.94,2.94,0,0,1-.14-.53,4.71,4.71,0,0,1,.4-2.62c1.8-4.33,6.83-4.09,8.45-1.77,0,0-3.23-5.74-7.85-3.76S19.8,33.09,23.8,34.92Z"/><path class="cls-4" d="M30.75,34a4.74,4.74,0,0,0,1-4.74v0A4.74,4.74,0,0,1,30.75,34Z"/><path class="cls-4" d="M30.59,34.08a4.58,4.58,0,0,1-1.1.73A4.58,4.58,0,0,0,30.59,34.08Z"/><path class="cls-4" d="M22.83,30.07a5,5,0,0,1,.42-.83c-1.28,3.43,1.61,5.11,4.55,4.52s4.15-2.7,3.48-5.46a3.7,3.7,0,0,1,.25.43,3.7,3.7,0,0,0-.25-.43C29.66,26,24.63,25.74,22.83,30.07Zm8.52.28A1.66,1.66,0,1,1,29.7,28.7,1.65,1.65,0,0,1,31.35,30.35Z"/><path class="cls-5" d="M27.8,33.76c-2.94.59-5.83-1.09-4.55-4.52a5,5,0,0,0-.42.83,4.71,4.71,0,0,0-.4,2.62,2.94,2.94,0,0,0,.14.53,3.33,3.33,0,0,0,2,1.94,5.79,5.79,0,0,0,3.25.22,6.35,6.35,0,0,0,1.66-.57,4.58,4.58,0,0,0,1.1-.73l.16-.12a4.74,4.74,0,0,0,1-4.74v0a3.8,3.8,0,0,0-.18-.47,3.7,3.7,0,0,0-.25-.43C32,31.06,30.79,33.16,27.8,33.76Z"/><path class="cls-7" d="M28,30.35A1.66,1.66,0,1,0,29.7,28.7,1.66,1.66,0,0,0,28,30.35Zm2.11-.91a.62.62,0,1,1-.61-.61A.61.61,0,0,1,30.15,29.44Z"/><path class="cls-4" d="M28.92,29.44a.62.62,0,1,0,.62-.61A.61.61,0,0,0,28.92,29.44Z"/><path class="cls-2" d="M36.88,22c-4.16.62-4,5.26-4,5.42.35-2.62,4.16-5,7.57-2.84h0a5.48,5.48,0,0,1,.76.56c1.85,1.56,2,3.27,1.26,4.64a7.19,7.19,0,0,0,1.06-3.15C43.65,24.6,41.05,21.33,36.88,22Z"/><path class="cls-2" d="M42.4,29.87c-.08.11-.15.23-.24.34S42.27,30.07,42.4,29.87Z"/><polygon class="cls-2" points="42.15 30.23 42.15 30.23 42.15 30.23 42.15 30.23"/><path class="cls-4" d="M38.47,30.65c2.89-.82,4.7-3.63,2-6.11-3.41-2.13-7.22.22-7.57,2.84a2.63,2.63,0,0,0,0,.49,4,4,0,0,1,0-.49C33.55,30.14,35.54,31.47,38.47,30.65Zm-4-3.64A1.65,1.65,0,0,1,36,30,1.65,1.65,0,1,1,34.48,27Z"/><path class="cls-5" d="M41.22,25.1a5.48,5.48,0,0,0-.76-.56h0c2.71,2.48.9,5.29-2,6.11s-4.92-.51-5.58-3.27a4,4,0,0,0,0,.49,2.37,2.37,0,0,0,.06.52c.5,2.15,1.71,3.54,3.49,3.9a6,6,0,0,0,2.77-.18,6.43,6.43,0,0,0,1.18-.46,5.68,5.68,0,0,0,1-.64,4.49,4.49,0,0,0,.79-.78h0c.09-.11.16-.23.24-.34a.57.57,0,0,1,.08-.13C43.25,28.37,43.07,26.66,41.22,25.1Z"/><path class="cls-7" d="M33.76,29.23A1.67,1.67,0,0,0,36,30a1.65,1.65,0,1,0-2.23-.72Zm.6-2a.56.56,0,0,1,.51,1,.56.56,0,1,1-.51-1Z"/><path class="cls-4" d="M34.11,28a.57.57,0,0,0,.76.24.56.56,0,0,0-.51-1A.57.57,0,0,0,34.11,28Z"/><path class="cls-2" d="M37.76,57.91a5.51,5.51,0,0,1-2.33,1.34A4.38,4.38,0,0,1,32.82,59a11.41,11.41,0,0,1-2.45-1.37,19.08,19.08,0,0,1-2.22-1.81c-.72-.64-1.39-1.33-2.06-2A20.34,20.34,0,0,0,30,58.08a9.94,9.94,0,0,0,2.53,1.57,5,5,0,0,0,3,.33,6.08,6.08,0,0,0,2.63-1.55,13.22,13.22,0,0,0,1.91-2.26A22.9,22.9,0,0,0,42.8,51a36.45,36.45,0,0,1-3.12,4.85A15.84,15.84,0,0,1,37.76,57.91Z"/><path class="cls-2" d="M37.21,48.62a19.68,19.68,0,0,1-5.49,1c-.46,0-.93,0-1.4,0s-.94,0-1.41-.07a19.29,19.29,0,0,1-2.82-.38,16.38,16.38,0,0,0,5.65,1,17.09,17.09,0,0,0,5.71-.89,16.69,16.69,0,0,0,5.09-2.73,19.63,19.63,0,0,0,2.14-1.93c.65-.71,1.22-1.49,1.8-2.24a27.72,27.72,0,0,1-4.28,3.7A19.23,19.23,0,0,1,37.21,48.62Z"/></g></g></svg>