<svg xmlns="http://www.w3.org/2000/svg" viewBox="0 0 66.01 66.01"><defs><style>.cls-1{fill:#dadada;}.cls-2{fill:#732460;}.cls-3{fill:#ed5fa3;}.cls-4{fill:#fc72bb;}.cls-5,.cls-8{fill:#ff88c7;}.cls-5{opacity:0.25;}.cls-6{fill:#fff;}.cls-7{fill:#9b346f;}</style></defs><title>m7</title><g id="Layer_2" data-name="Layer 2"><g id="characters"><circle class="cls-1" cx="33.01" cy="33.01" r="33"/><path class="cls-2" d="M14.11,26.07a9.54,9.54,0,0,1-4.25-8.32S4.47,21.83,4.63,28.09A14.14,14.14,0,0,0,7.12,36,26.48,26.48,0,0,1,14.11,26.07Zm-6.69-3a4.13,4.13,0,0,1,2.49-.31,15.24,15.24,0,0,0-2.28.76,6.25,6.25,0,0,0-1.92,1.36A3.14,3.14,0,0,1,7.42,23.08Zm1.25,4.67a14.29,14.29,0,0,0-2.39,2.57,6.52,6.52,0,0,1,2.07-2.95,6.63,6.63,0,0,1,3.29-1.49A14.77,14.77,0,0,0,8.67,27.75Z"/><path class="cls-3" d="M58.86,37.27a7,7,0,0,1-.72.77,5.69,5.69,0,0,1-3.24-1.17,21.62,21.62,0,0,1,.36,3.88c0,12-10.08,21.74-22.51,21.74s-22.5-9.73-22.5-21.74a21.17,21.17,0,0,1,5-13.62,14.8,14.8,0,0,1,0-2c-.36.3-.72.6-1.07.92a26.48,26.48,0,0,0-7,9.92,25.85,25.85,0,0,0-1,16.19A33,33,0,0,0,59,53.28a25.7,25.7,0,0,0-.18-16Z"/><path class="cls-3" d="M51.68,29a11.39,11.39,0,0,1,.16-1.91l.39-.25a27.48,27.48,0,0,0-3.89-3.13,26.7,26.7,0,0,0-3.91-1.53A22.22,22.22,0,0,1,51.68,29Z"/><path class="cls-4" d="M52.94,34.54A11.87,11.87,0,0,1,51.68,29a22.22,22.22,0,0,0-7.25-6.82C27.88,17.22,17,33.31,17,33.31a19.35,19.35,0,0,1-1.76-6.18,21.17,21.17,0,0,0-5,13.62c0,12,10.07,21.74,22.5,21.74s22.51-9.73,22.51-21.74a21.62,21.62,0,0,0-.36-3.88A6.66,6.66,0,0,1,52.94,34.54ZM37.36,25.32l6.29,4.43-7.17-2.13Zm-19,12a4.17,4.17,0,0,1,1.43-2.55,8.13,8.13,0,0,1,3.36-2,11.06,11.06,0,0,1,5,.58,8.11,8.11,0,0,0,1.41.42,5.24,5.24,0,0,0,3.27-.8,24.48,24.48,0,0,1,3-1.66,10.3,10.3,0,0,1,4.31-.5,11.89,11.89,0,0,1,4.46,1A2.81,2.81,0,0,1,46,33,2.47,2.47,0,0,1,46.2,34a2.83,2.83,0,0,1-.39,1.5A3.92,3.92,0,0,1,42.42,37a9.61,9.61,0,0,0-3.79.38c-1.78.8-2.66,3-4.45,3.73a5.46,5.46,0,0,1-3.08.18,6.05,6.05,0,0,1-2-.6c-.38-.2-.73-.48-1.13-.67a5.76,5.76,0,0,0-3.56-.3,18.41,18.41,0,0,1-3.6.47,3,3,0,0,1-1.26-.28A2.52,2.52,0,0,1,18.37,37.36ZM38.62,59.17a5.6,5.6,0,0,1-3.32,1.75,4.55,4.55,0,0,1-1.94-.19,5.51,5.51,0,0,1-1.65-.95,7.24,7.24,0,0,1-2.08-3,11.12,11.12,0,0,0,2.48,2.46,4.44,4.44,0,0,0,3.08.83,5.6,5.6,0,0,0,3-1.39A10.42,10.42,0,0,0,40.33,56,7,7,0,0,1,38.62,59.17Zm6.65-10.75a16.31,16.31,0,0,1-5.56,2.11,32.31,32.31,0,0,1-7,.63,52.36,52.36,0,0,1-7-.52l-.29,0L19,55.83l-1.09-8.61a1.07,1.07,0,0,1-.14-.16,2.46,2.46,0,0,1-.5-1.9c.26-1.32,1.2-2.18,1.1-3.19a2.54,2.54,0,0,0-.6-1.39,3.37,3.37,0,0,0-1.32-.93,7.51,7.51,0,0,0-3.35-.42v-.08a6.9,6.9,0,0,1,3.52.09A3.33,3.33,0,0,1,19,41.91c.11,1.4-.91,2.39-1,3.36s.64,1.85,1.51,2.52a15.79,15.79,0,0,0,1.38,1,13.41,13.41,0,0,0,1.54.7,17.29,17.29,0,0,0,3.34.88,30.16,30.16,0,0,0,6.91.35,40.11,40.11,0,0,0,6.83-1,15.39,15.39,0,0,0,6.12-2.69,5.47,5.47,0,0,0,1.05-1.21,5.67,5.67,0,0,0,.6-1.49A9.12,9.12,0,0,0,47.63,41a10.52,10.52,0,0,0-.3-1.66,5,5,0,0,1-.32-1.8,1,1,0,0,1,.69-.75,3.91,3.91,0,0,1,.88-.22c.58-.08,1.16-.11,1.74-.14v.08c-.57.09-1.15.18-1.7.32s-1.17.36-1.2.78a5.5,5.5,0,0,0,.42,1.57A9.24,9.24,0,0,1,48.29,41a9.53,9.53,0,0,1,.07,1.6l2.91,7.94Z"/><path class="cls-2" d="M44.22,6.56c.3.32.58.63.84,1C44.8,7.19,44.52,6.88,44.22,6.56Z"/><path class="cls-2" d="M27.38,10.65a12.78,12.78,0,0,0-1.48-.09,12.54,12.54,0,0,1,1.48.09Z"/><path class="cls-2" d="M42.91,5.27c.39.35.76.71,1.12,1.08C43.67,6,43.3,5.62,42.91,5.27Z"/><path class="cls-2" d="M39.87,2.94h0c.5.32,1,.66,1.42,1C40.84,3.6,40.37,3.26,39.87,2.94Z"/><path class="cls-2" d="M45.24,7.73a18.86,18.86,0,0,1,1.63,2.36A18.86,18.86,0,0,0,45.24,7.73Z"/><path class="cls-2" d="M41.64,4.21q.55.43,1,.87Q42.2,4.64,41.64,4.21Z"/><path class="cls-2" d="M15.22,27.13A19.35,19.35,0,0,0,17,33.31s10.9-16.09,27.45-11.14a26.7,26.7,0,0,1,3.91,1.53c.34.16.67.31,1,.49a20.67,20.67,0,0,0-2.39-14,19.64,19.64,0,0,1,1.2,2.44,25,25,0,0,0-6.35-6.39v5c-4.07-4-8.9-7-15.34-6.82C29,6.12,30.18,8.71,31,11.33c-3.08-.14-6.17,1.14-9.25,2a9.55,9.55,0,0,1,6.43,2.36C19.93,17.08,17,26.18,16.83,33,11,19.8,22.18,15.53,22.18,15.53h0s-6.55,2.51-7,9.62A14.8,14.8,0,0,0,15.22,27.13Z"/><path class="cls-5" d="M41.29,3.94l.35.27Z"/><polygon class="cls-5" points="39.87 2.94 40.34 8.9 39.87 2.94 39.87 2.94"/><path class="cls-5" d="M23.89,5c-.38-.39-.77-.75-1.12-1.07C23.12,4.24,23.51,4.6,23.89,5Z"/><path class="cls-5" d="M16,15.69l-1.36.19Z"/><path class="cls-5" d="M21.05,11.13a19.94,19.94,0,0,1,4.85-.57A19.94,19.94,0,0,0,21.05,11.13Z"/><path class="cls-5" d="M25.05,6.26c-.38-.45-.77-.87-1.16-1.27C24.28,5.39,24.67,5.81,25.05,6.26Z"/><path class="cls-5" d="M16,15.69a26.11,26.11,0,0,1,6.23-.16h0A26.11,26.11,0,0,0,16,15.69Z"/><path class="cls-5" d="M25.59,6.94a8.67,8.67,0,0,1,1.79,3.71h0A8.67,8.67,0,0,0,25.59,6.94Z"/><path class="cls-5" d="M44,6.35l.19.21Z"/><path class="cls-5" d="M46.87,10.09l.09.14Z"/><path class="cls-5" d="M45.06,7.52l.18.21Z"/><path class="cls-5" d="M42.69,5.08l.22.19Z"/><path class="cls-2" d="M16.83,33c.17-6.77,3.1-15.87,11.31-17.25a9.55,9.55,0,0,0-6.43-2.36c3.08-.87,6.17-2.15,9.25-2-.78-2.62-2-5.21-4.49-6.87,6.44-.2,11.27,2.77,15.34,6.82v-5a25,25,0,0,1,6.35,6.39A19.64,19.64,0,0,0,47,10.23l-.09-.14a18.86,18.86,0,0,0-1.63-2.36l-.18-.21c-.26-.33-.54-.64-.84-1L44,6.35c-.36-.37-.73-.73-1.12-1.08l-.22-.19q-.49-.44-1-.87l-.35-.27c-.45-.34-.92-.68-1.42-1l.47,6S36.12,1,20.87,2.35c0,0,.83.6,1.9,1.57.35.32.74.68,1.12,1.07s.78.82,1.16,1.27c.19.22.37.45.54.68a8.67,8.67,0,0,1,1.79,3.71h0a12.54,12.54,0,0,0-1.48-.09,19.94,19.94,0,0,0-4.85.57,16.51,16.51,0,0,0-8.53,5.11s.83-.17,2.07-.36L16,15.69a26.11,26.11,0,0,1,6.23-.16h0S11,19.8,16.83,33Z"/><path class="cls-5" d="M16.83,33c.17-6.77,3.1-15.87,11.31-17.25a9.55,9.55,0,0,0-6.43-2.36c3.08-.87,6.17-2.15,9.25-2-.78-2.62-2-5.21-4.49-6.87,6.44-.2,11.27,2.77,15.34,6.82v-5a25,25,0,0,1,6.35,6.39A19.64,19.64,0,0,0,47,10.23l-.09-.14a18.86,18.86,0,0,0-1.63-2.36l-.18-.21c-.26-.33-.54-.64-.84-1L44,6.35c-.36-.37-.73-.73-1.12-1.08l-.22-.19q-.49-.44-1-.87l-.35-.27c-.45-.34-.92-.68-1.42-1l.47,6S36.12,1,20.87,2.35c0,0,.83.6,1.9,1.57.35.32.74.68,1.12,1.07s.78.82,1.16,1.27c.19.22.37.45.54.68a8.67,8.67,0,0,1,1.79,3.71h0a12.54,12.54,0,0,0-1.48-.09,19.94,19.94,0,0,0-4.85.57,16.51,16.51,0,0,0-8.53,5.11s.83-.17,2.07-.36L16,15.69a26.11,26.11,0,0,1,6.23-.16h0S11,19.8,16.83,33Z"/><polygon class="cls-2" points="37.36 25.32 36.48 27.63 43.65 29.75 37.36 25.32"/><path class="cls-6" d="M20.65,49.29a13,13,0,0,1-1.53-.94l-.7-.59c-.16-.18-.33-.35-.48-.54L19,55.83l6.43-5.24a27.85,27.85,0,0,1-3.14-.68A11.17,11.17,0,0,1,20.65,49.29Z"/><path class="cls-6" d="M48.1,44.55a5.61,5.61,0,0,1-.66,1.74,6.36,6.36,0,0,1-1.21,1.42,9.13,9.13,0,0,1-1,.71l6,2.08-2.91-7.94A12,12,0,0,1,48.1,44.55Z"/><path class="cls-7" d="M47.44,46.29a5.61,5.61,0,0,0,.66-1.74,12,12,0,0,0,.26-2,9.53,9.53,0,0,0-.07-1.6,9.24,9.24,0,0,0-.44-1.74,5.5,5.5,0,0,1-.42-1.57c0-.42.67-.64,1.2-.78s1.13-.23,1.7-.32v-.08c-.58,0-1.16.06-1.74.14a3.91,3.91,0,0,0-.88.22,1,1,0,0,0-.69.75,5,5,0,0,0,.32,1.8,10.52,10.52,0,0,1,.3,1.66,9.12,9.12,0,0,1-.32,3.32,5.67,5.67,0,0,1-.6,1.49,5.47,5.47,0,0,1-1.05,1.21,15.39,15.39,0,0,1-6.12,2.69,40.11,40.11,0,0,1-6.83,1,30.16,30.16,0,0,1-6.91-.35,17.29,17.29,0,0,1-3.34-.88,13.41,13.41,0,0,1-1.54-.7,15.79,15.79,0,0,1-1.38-1c-.87-.67-1.66-1.57-1.51-2.52s1.12-2,1-3.36a3.33,3.33,0,0,0-2.4-2.67,6.9,6.9,0,0,0-3.52-.09v.08a7.51,7.51,0,0,1,3.35.42,3.37,3.37,0,0,1,1.32.93A2.54,2.54,0,0,1,18.4,42c.1,1-.84,1.87-1.1,3.19a2.46,2.46,0,0,0,.5,1.9,1.07,1.07,0,0,0,.14.16c.15.19.32.36.48.54l.7.59a13,13,0,0,0,1.53.94,11.17,11.17,0,0,0,1.67.62,27.85,27.85,0,0,0,3.14.68l.29,0a52.36,52.36,0,0,0,7,.52,32.31,32.31,0,0,0,7-.63,16.31,16.31,0,0,0,5.56-2.11,9.13,9.13,0,0,0,1-.71A6.36,6.36,0,0,0,47.44,46.29Z"/><path class="cls-7" d="M38.16,58.7a5.6,5.6,0,0,1-3,1.39,4.44,4.44,0,0,1-3.08-.83,11.12,11.12,0,0,1-2.48-2.46,7.24,7.24,0,0,0,2.08,3,5.51,5.51,0,0,0,1.65.95,4.55,4.55,0,0,0,1.94.19,5.6,5.6,0,0,0,3.32-1.75A7,7,0,0,0,40.33,56,10.42,10.42,0,0,1,38.16,58.7Z"/><path class="cls-2" d="M51.68,29a11.87,11.87,0,0,0,1.26,5.55,6.66,6.66,0,0,0,2,2.33A5.69,5.69,0,0,0,58.14,38a7,7,0,0,0,.72-.77,13.69,13.69,0,0,0,2.91-8.46c.17-6.26-5.22-10.34-5.22-10.34a9.53,9.53,0,0,1-4.32,8.36l-.39.25A11.39,11.39,0,0,0,51.68,29Zm6-4.13a3.29,3.29,0,0,0,2.17-.59,2.3,2.3,0,0,1-2.22,1.09A2.75,2.75,0,0,1,55.57,24,4.72,4.72,0,0,0,57.73,24.86Zm-4.15,1.72a4.3,4.3,0,0,0,.85,2.12A7.55,7.55,0,0,0,56,30.34,8,8,0,0,0,60.2,32a5.5,5.5,0,0,1-2.38-.17,6.88,6.88,0,0,1-2.15-1.11A6.3,6.3,0,0,1,54.1,28.9,3.54,3.54,0,0,1,53.58,26.58Z"/><path class="cls-8" d="M55.67,30.74a6.88,6.88,0,0,0,2.15,1.11A5.5,5.5,0,0,0,60.2,32,8,8,0,0,1,56,30.34a7.55,7.55,0,0,1-1.55-1.64,4.3,4.3,0,0,1-.85-2.12,3.54,3.54,0,0,0,.52,2.32A6.3,6.3,0,0,0,55.67,30.74Z"/><path class="cls-8" d="M57.68,25.36a2.3,2.3,0,0,0,2.22-1.09,3.29,3.29,0,0,1-2.17.59A4.72,4.72,0,0,1,55.57,24,2.75,2.75,0,0,0,57.68,25.36Z"/><path class="cls-8" d="M9.91,22.77a4.13,4.13,0,0,0-2.49.31,3.14,3.14,0,0,0-1.71,1.81,6.25,6.25,0,0,1,1.92-1.36A15.24,15.24,0,0,1,9.91,22.77Z"/><path class="cls-8" d="M6.28,30.32a14.29,14.29,0,0,1,2.39-2.57,14.77,14.77,0,0,1,3-1.87,6.63,6.63,0,0,0-3.29,1.49A6.52,6.52,0,0,0,6.28,30.32Z"/><path class="cls-3" d="M19.6,39.88a3,3,0,0,0,1.26.28,18.41,18.41,0,0,0,3.6-.47A5.76,5.76,0,0,1,28,40c.4.19.75.47,1.13.67a6.05,6.05,0,0,0,2,.6,5.46,5.46,0,0,0,3.08-.18c1.79-.77,2.67-2.93,4.45-3.73A9.61,9.61,0,0,1,42.42,37a3.92,3.92,0,0,0,3.39-1.43A2.83,2.83,0,0,0,46.2,34,2.47,2.47,0,0,0,46,33a2.81,2.81,0,0,0-1.38-1.18,11.89,11.89,0,0,0-4.46-1,10.3,10.3,0,0,0-4.31.5,24.48,24.48,0,0,0-3,1.66,5.24,5.24,0,0,1-3.27.8,8.11,8.11,0,0,1-1.41-.42,11.06,11.06,0,0,0-5-.58,8.13,8.13,0,0,0-3.36,2,4.17,4.17,0,0,0-1.43,2.55A2.52,2.52,0,0,0,19.6,39.88Zm14.53-5a5.27,5.27,0,0,1,2.76-2.09,6.82,6.82,0,0,1,3.41-.25,5.19,5.19,0,0,1,3,1.54,7.15,7.15,0,0,0-3-.89,7.72,7.72,0,0,0-3.06.4,5.25,5.25,0,0,0-2.49,1.67,8.06,8.06,0,0,0-.91,1.47,4.59,4.59,0,0,1,1.08-1,4.13,4.13,0,0,1,2.64-.74,9.76,9.76,0,0,0-2.36,1.15,9.9,9.9,0,0,0-1.88,1.68c-.05.09-.09.19-.14.28A8.08,8.08,0,0,1,34.13,34.85ZM21.35,36.28a6.18,6.18,0,0,1,3.1-1,5.65,5.65,0,0,1,5.42,3.24.37.37,0,0,1-.18.49.4.4,0,0,1-.44-.08,5.13,5.13,0,0,0-1.09-.9,5.19,5.19,0,0,0-1.33-.61,6.49,6.49,0,0,0-1.46-.27,7.78,7.78,0,0,0-1.52.07A5.81,5.81,0,0,1,27,37a6.22,6.22,0,0,1,.87.25,4.89,4.89,0,0,0-.6-.41,5.39,5.39,0,0,0-2.76-.75,6.32,6.32,0,0,0-2.86.63,4.15,4.15,0,0,0-2,2.17A3.77,3.77,0,0,1,21.35,36.28Z"/><path class="cls-7" d="M21.6,36.71a6.32,6.32,0,0,1,2.86-.63,5.39,5.39,0,0,1,2.76.75,4.89,4.89,0,0,1,.6.41A6.22,6.22,0,0,0,27,37a5.81,5.81,0,0,0-3.1.27,7.78,7.78,0,0,1,1.52-.07,6.49,6.49,0,0,1,1.46.27,5.19,5.19,0,0,1,1.33.61,5.13,5.13,0,0,1,1.09.9.4.4,0,0,0,.44.08.37.37,0,0,0,.18-.49,5.65,5.65,0,0,0-5.42-3.24,6.18,6.18,0,0,0-3.1,1,3.77,3.77,0,0,0-1.76,2.6A4.15,4.15,0,0,1,21.6,36.71Z"/><path class="cls-7" d="M33.16,37.84a3.77,3.77,0,0,1,.6-1.14,8.06,8.06,0,0,1,.91-1.47,5.25,5.25,0,0,1,2.49-1.67,7.72,7.72,0,0,1,3.06-.4,7.15,7.15,0,0,1,3,.89,5.19,5.19,0,0,0-3-1.54,6.82,6.82,0,0,0-3.41.25,5.27,5.27,0,0,0-2.76,2.09,8.08,8.08,0,0,0-1,3.19c0-.09.09-.19.14-.28Z"/><path class="cls-7" d="M33.24,37.76a9.9,9.9,0,0,1,1.88-1.68,9.76,9.76,0,0,1,2.36-1.15,4.13,4.13,0,0,0-2.64.74,4.59,4.59,0,0,0-1.08,1,3.77,3.77,0,0,0-.6,1.14Z"/></g></g></svg>