<svg xmlns="http://www.w3.org/2000/svg" viewBox="0 0 66 66"><defs><style>.cls-1{fill:#dadada;}.cls-2{fill:#706f6f;}.cls-3{fill:#fff;}.cls-4{fill:#1d1d1b;}.cls-5{fill:#878787;}</style></defs><title>m8</title><g id="Layer_2" data-name="Layer 2"><g id="characters"><circle class="cls-1" cx="33" cy="33" r="33"/><path class="cls-2" d="M40,8l.18.05Z"/><path class="cls-2" d="M41.76,8.44l.66.16Z"/><path class="cls-2" d="M36,7.45l.44,0Z"/><path class="cls-2" d="M34.43,7.38h0a47,47,0,0,0-6.19.43,47,47,0,0,1,6.19-.43Z"/><path class="cls-2" d="M43.57,8.9l.68.19Z"/><path class="cls-2" d="M56.77,19.6a10.89,10.89,0,0,0-7.13-8.78c-1.59-.56-3.39-1.15-5.23-1.68l-4.2,5.06L38.52,7.77c-.64-.11-1.27-.19-1.88-.25l-4,8.73-4.4-8.44a40.75,40.75,0,0,0-7.6,1.77,40.45,40.45,0,0,1,5.19-1.37L25.63,16l-6.7-5.76c.55-.21,1.11-.42,1.67-.61a37.84,37.84,0,0,0-8.79,4.29c-6.75,4.48-6.73,8-6.51,16.55.13,4.92.48,14.41.75,21.61a33.36,33.36,0,0,0,9.78,9.15c-.05-.57-.09-1.14-.09-1.72a18.46,18.46,0,1,1,36.91,0v0a33.17,33.17,0,0,0,8.3-9ZM10.63,16.27,31.4,19.88l21-6v6.71l-5.05.09c.2,2.67.19,10.87-7.38,11.44-5.91.44-7.59-4.66-8-8.24-.22,3.44-1.69,8.29-8.25,8.29-8.14,0-8.83-7.45-8.78-10.43L11,21.94Zm43,15c-.54,2-1,4-1.6,6,.31-1.92.69-3.82,1-5.73-3.31.9-6.61,1.84-9.93,2.68s-6.89,1.8-10.35,2.62-6.91,1.7-10.39,2.46-6.94,1.56-10.44,2.25l3.8-1.11L15.4,36l11.44-.4.23,1.76c1.82-.47,3.64-.93,5.46-1.41,3.44-.91,6.91-1.71,10.36-2.55S49.83,31.81,53.3,31l.4-.1Z"/><path class="cls-1" d="M39.73,29.22c-6.09.34-7.54-4.44-7.88-7.13-.07,2.71-1.14,7.61-8,7.61-7.2,0-8-5.4-7.9-8l-1.1.05c0,3,.64,10.43,8.78,10.43,6.56,0,8-4.85,8.25-8.29.45,3.58,2.13,8.68,8,8.24,7.57-.57,7.58-8.77,7.38-11.44h-1C46.56,23,46.55,28.84,39.73,29.22Z"/><path class="cls-3" d="M23.85,29.7c6.86,0,7.93-4.9,8-7.61.34,2.69,1.79,7.47,7.88,7.13,6.82-.38,6.83-6.27,6.58-8.51L31.8,21,16,21.71C15.9,24.3,16.65,29.7,23.85,29.7Zm11.28-6.4A1.71,1.71,0,1,1,33.42,25,1.71,1.71,0,0,1,35.13,23.3Zm-7,0A1.71,1.71,0,1,1,26.39,25,1.7,1.7,0,0,1,28.1,23.3Z"/><polygon class="cls-4" points="15.95 21.71 31.8 20.96 46.31 20.71 47.3 20.7 52.35 20.61 52.35 13.9 31.4 19.88 10.63 16.27 10.96 21.94 14.85 21.76 15.95 21.71"/><path class="cls-4" d="M28.1,26.72a1.71,1.71,0,0,0,0-3.42.7.7,0,1,1,0,1.39.7.7,0,1,1,0-1.39,1.71,1.71,0,0,0,0,3.42Z"/><circle class="cls-3" cx="28.1" cy="23.99" r="0.7"/><path class="cls-4" d="M35.13,26.72a1.71,1.71,0,1,0,0-3.42.81.81,0,1,1-.81.8.8.8,0,0,1,.81-.8,1.71,1.71,0,0,0,0,3.42Z"/><path class="cls-3" d="M34.32,24.1a.81.81,0,1,0,.81-.8A.81.81,0,0,0,34.32,24.1Z"/><path class="cls-4" d="M44.41,9.14h0l-.16-.05-.68-.19-1.15-.3-.66-.16q-.8-.19-1.59-.36L40,8l-1.47-.27h0l1.69,6.43Z"/><path class="cls-4" d="M36.64,7.52h0l-.24,0-.44,0c-.53,0-1-.07-1.53-.07h0a47,47,0,0,0-6.19.43h0l4.4,8.44Z"/><path class="cls-4" d="M25.63,16l.2-7.75a40.45,40.45,0,0,0-5.19,1.37h0c-.56.19-1.12.4-1.67.61Z"/><path class="cls-3" d="M27.07,37.38l-.23-1.76L15.4,36l.33,4.48c2.15-.62,4.31-1.23,6.47-1.81C23.82,38.23,25.44,37.81,27.07,37.38Z"/><path class="cls-4" d="M42.89,33.42C39.44,34.26,36,35.06,32.53,36c-1.82.48-3.64.94-5.46,1.41-1.63.43-3.25.85-4.87,1.31-2.16.58-4.32,1.19-6.47,1.81l-3.8,1.11c3.5-.69,7-1.45,10.44-2.25s6.93-1.63,10.39-2.46,6.9-1.74,10.35-2.62S49.73,32.5,53,31.6c-.35,1.91-.73,3.81-1,5.73.56-2,1.06-4,1.6-6l.1-.39-.4.1C49.83,31.81,46.34,32.55,42.89,33.42Z"/><path class="cls-5" d="M34.2,41A18.47,18.47,0,0,0,15.74,59.47c0,.58,0,1.15.09,1.72a33,33,0,0,0,36.82-1.68v0A18.46,18.46,0,0,0,34.2,41Z"/><path class="cls-4" d="M32.23,25.82a13.79,13.79,0,0,0,3.07,4.06,5.6,5.6,0,0,0,2,1.07c.18,0,.35.1.53.12l.54.05a9.63,9.63,0,0,0,1.2,0,8,8,0,0,0,4.4-1.44,10.06,10.06,0,0,0,3-4,7.16,7.16,0,0,1-2,5.16,7.94,7.94,0,0,1-5.33,2.27,11.7,11.7,0,0,1-1.45,0,5.89,5.89,0,0,1-4-2.11A8.48,8.48,0,0,1,32.23,25.82Z"/></g></g></svg>