<svg xmlns="http://www.w3.org/2000/svg" viewBox="0 0 66.01 66.01"><defs><style>.cls-1{fill:#dadada;}.cls-2{fill:#4b6110;}.cls-3{fill:#95c11f;}.cls-4{fill:#789911;}.cls-5{fill:#dedc00;}.cls-6{fill:#6a890a;}.cls-7{fill:#fff;}.cls-8{fill:#1d1d1b;}.cls-9{fill:#fcf630;}</style></defs><title>m9</title><g id="Layer_2" data-name="Layer 2"><g id="characters"><circle class="cls-1" cx="33.01" cy="33.01" r="33"/><path class="cls-2" d="M25.88,19.77a25.75,25.75,0,0,1-8.07.16c-4.3-.8-3-7.18-2.15-9.36,0,0-2.74,2.89-4.83,9.09-1.78,5.3,2.26,9.34,11.42,9l2.13-5.64A24.73,24.73,0,0,1,25.88,19.77Z"/><path class="cls-2" d="M45.2,25.55c6.7-1.49,12.62-5.34,8.83-11.09A17.61,17.61,0,0,0,43.89,6.85c3,2.84,4.79,8.14,2.51,9.93-1.47,1.15-4.58,1.67-6.61,1.9.32.35.65.71,1,1.11C41.84,21.1,43.39,23.12,45.2,25.55Z"/><path class="cls-3" d="M45.2,25.55c-1.81-2.43-3.36-4.45-4.44-5.76-.32-.4-.65-.76-1-1.11-5.2-5.64-10.25-5.59-13.91,1.09a24.73,24.73,0,0,0-1.5,3.28l-2.13,5.64c-3.44,9.12-8.5,22.51-11,29.12a33.44,33.44,0,0,0,9.56,5.86,36.45,36.45,0,0,1-2-7.52c-1.16-8.85,2.12-15,5.53-15.5h0l.08-.1a2.54,2.54,0,0,1,1.86-.85,7.9,7.9,0,0,0-1.14.86,3.08,3.08,0,0,1,1.39.74,6.07,6.07,0,0,1,1.16,1.47,9.23,9.23,0,0,1,.42.83c.14.25.23.5.39.73a7.48,7.48,0,0,0,1,1.29,7.32,7.32,0,0,0,2.85,1.88,7.22,7.22,0,0,0,3.45.26,10.07,10.07,0,0,0,3.22-1.1,7.6,7.6,0,0,0,2.44-2.21A8,8,0,0,0,42.41,43a18.14,18.14,0,0,1,.86-1.62A6.47,6.47,0,0,1,44.46,40a3.15,3.15,0,0,1,1.48-.74,4.67,4.67,0,0,0-1.14-.88,2.2,2.2,0,0,1,1.81.86c2.72-.12,5.86,1.51,9.4,17.45A33,33,0,0,0,62,48.85C56.88,41.67,50.07,32.1,45.2,25.55Zm-7.65-7.32c0,.59-.64,1.07-1.43,1.07s-1.43-.48-1.43-1.07.64-1.07,1.43-1.07S37.55,17.64,37.55,18.23Zm-4.84-2.74c1.39,0,2.51.48,2.51,1.07s-1.12,1.07-2.51,1.07-2.51-.48-2.51-1.07S31.32,15.49,32.71,15.49Zm.39,4c-.55,0-1-.33-1-.74a.9.9,0,0,1,1-.75c.55,0,1,.34,1,.75S33.65,19.51,33.1,19.51Zm9.55,19.93a6.46,6.46,0,0,1-1.44.43,8.1,8.1,0,0,1-1.05.37,5.72,5.72,0,0,1-5-.65,3.9,3.9,0,0,1-2.53,1.79,1.92,1.92,0,0,1-.25.12,3.57,3.57,0,0,1-3.36-.25,5.6,5.6,0,0,1-1.21-1.31,13.72,13.72,0,0,1-2.32-4A10.48,10.48,0,0,1,25.16,34a19.22,19.22,0,0,1,.58-7,7.55,7.55,0,0,1,.6-1.57l-.85-1.58a6.6,6.6,0,0,1,5.34-.8,5.64,5.64,0,0,1,3.68,3.18A11.88,11.88,0,0,1,36.36,33c0,.21,0,.4,0,.59s0,.46,0,.7c0,.07,0,.13,0,.2l.34-.09c1-.92,3.91-2.93,8.74-1.41l-.3,1.55a2.39,2.39,0,0,1,.32,1.17A4.31,4.31,0,0,1,42.65,39.44Z"/><path class="cls-4" d="M45.08,34.8a14,14,0,0,0-1.89-.45,2.44,2.44,0,0,1,1,1.36c.41,1.53-.89,3.25-3,4.16a6.46,6.46,0,0,0,1.44-.43,4.31,4.31,0,0,0,2.8-3.75,2.39,2.39,0,0,0-.32-1.17Z"/><path class="cls-4" d="M36.69,34.38l-.34.09v.26A3.23,3.23,0,0,1,36.69,34.38Z"/><path class="cls-4" d="M26.93,34.27c0-.24,0-.47,0-.7s0-.38,0-.59c0-4.65,2.06-8.43,4.62-8.52-3-1.06-4.82,1.71-4.82,1.71l-.39-.74a7.55,7.55,0,0,0-.6,1.57,19.22,19.22,0,0,0-.58,7,10.48,10.48,0,0,0,.36,1.92,13.72,13.72,0,0,0,2.32,4,5.6,5.6,0,0,0,1.21,1.31,3.57,3.57,0,0,0,3.36.25,1.92,1.92,0,0,0,.25-.12,4.9,4.9,0,0,1-1,.1C29,41.48,26.93,39.69,26.93,34.27Z"/><path class="cls-1" d="M44.23,35.71a2.44,2.44,0,0,0-1-1.36,13.63,13.63,0,0,0-6.84.43,9.45,9.45,0,0,1-1.16,4.81,5.72,5.72,0,0,0,5,.65,8.1,8.1,0,0,0,1.05-.37C43.34,39,44.64,37.24,44.23,35.71Zm-6.35.18A1.14,1.14,0,1,1,36.74,37,1.14,1.14,0,0,1,37.88,35.89Z"/><path class="cls-5" d="M46.61,39.21l0,0a2.2,2.2,0,0,1,.37,2,4.57,4.57,0,0,0-.77-1.7c-.05-.07-.12-.12-.18-.19A4.58,4.58,0,0,0,44,41.78c-.25.52-.44,1-.65,1.62a7.59,7.59,0,0,1-7.36,4.91,13.47,13.47,0,0,1-3.59-.5A9,9,0,0,1,29,46.23a5.18,5.18,0,0,1-1.22-1.45,7.49,7.49,0,0,1-.41-.86c-.11-.26-.2-.54-.33-.79a7.33,7.33,0,0,0-.85-1.46,3.29,3.29,0,0,0-1.15-1l-.22.2a7.15,7.15,0,0,0-1.1,1.58,2.52,2.52,0,0,1,.66-1.82h0c-3.41.51-6.69,6.65-5.53,15.5a36.45,36.45,0,0,0,2,7.52c.86.34,1.74.65,2.63.92,0-.59,0-1.15,0-1.66a13.21,13.21,0,0,1,5.7-10.29,15.36,15.36,0,0,1,6.74-2.14,16.45,16.45,0,0,1,7,.69,18.9,18.9,0,0,1,5.3,3.07,18.71,18.71,0,0,1,4.75,5,31.53,31.53,0,0,0,3-2.61C52.47,40.72,49.33,39.09,46.61,39.21Z"/><path class="cls-6" d="M25.06,40.69a3.29,3.29,0,0,1,1.15,1,7.33,7.33,0,0,1,.85,1.46c.13.25.22.53.33.79a7.49,7.49,0,0,0,.41.86A5.18,5.18,0,0,0,29,46.23a9,9,0,0,0,3.33,1.58,13.47,13.47,0,0,0,3.59.5A7.59,7.59,0,0,0,43.3,43.4c.21-.57.4-1.1.65-1.62a4.58,4.58,0,0,1,2.11-2.43l-.12-.12a3.15,3.15,0,0,0-1.48.74,6.47,6.47,0,0,0-1.19,1.43A18.14,18.14,0,0,0,42.41,43a8,8,0,0,1-.86,1.43,7.6,7.6,0,0,1-2.44,2.21,10.07,10.07,0,0,1-3.22,1.1,7.22,7.22,0,0,1-3.45-.26,7.32,7.32,0,0,1-2.85-1.88,7.48,7.48,0,0,1-1-1.29c-.16-.23-.25-.48-.39-.73a9.23,9.23,0,0,0-.42-.83,6.07,6.07,0,0,0-1.16-1.47,3.08,3.08,0,0,0-1.39-.74Z"/><path class="cls-6" d="M24.84,40.89l.22-.2.14-.13a7.9,7.9,0,0,1,1.14-.86,2.54,2.54,0,0,0-1.86.85l-.08.1a2.52,2.52,0,0,0-.66,1.82A7.15,7.15,0,0,1,24.84,40.89Z"/><path class="cls-6" d="M46.06,39.35c.06.07.13.12.18.19a4.57,4.57,0,0,1,.77,1.7,2.2,2.2,0,0,0-.37-2l0,0a2.2,2.2,0,0,0-1.81-.86,4.67,4.67,0,0,1,1.14.88Z"/><path class="cls-1" d="M36.35,34.78l-.06,0,.06-.07v-.26c0-.07,0-.13,0-.2,0-.24,0-.47,0-.7-.17,4.25-2.21,5.68-4.7,5.68s-4.52-1.43-4.7-5.68c0,.23,0,.46,0,.7,0,5.42,2.11,7.21,4.71,7.21a4.9,4.9,0,0,0,1-.1,3.9,3.9,0,0,0,2.53-1.79A9.45,9.45,0,0,0,36.35,34.78Z"/><path class="cls-7" d="M31.55,24.46c-2.56.09-4.62,3.87-4.62,8.52,0,.21,0,.4,0,.59.18,4.25,2.21,5.68,4.7,5.68s4.53-1.43,4.7-5.68c0-.19,0-.38,0-.59a11.88,11.88,0,0,0-1.85-6.75,5.22,5.22,0,0,1,.31.79A7.94,7.94,0,0,0,31.55,24.46Zm3.83,11.8a1.72,1.72,0,1,1-1.72-1.72A1.72,1.72,0,0,1,35.38,36.26Z"/><path class="cls-2" d="M36.35,34.73l-.06.07.06,0a13.63,13.63,0,0,1,6.84-.43,14,14,0,0,1,1.89.45l.05-.28.3-1.55c-4.83-1.52-7.75.49-8.74,1.41A3.23,3.23,0,0,0,36.35,34.73Z"/><path class="cls-2" d="M31.55,24.46A7.94,7.94,0,0,1,34.82,27a5.22,5.22,0,0,0-.31-.79,5.64,5.64,0,0,0-3.68-3.18,6.6,6.6,0,0,0-5.34.8l.85,1.58.39.74S28.59,23.4,31.55,24.46Z"/><path class="cls-8" d="M33.66,34.54a.61.61,0,1,1-.61.61.6.6,0,0,1,.61-.61,1.72,1.72,0,1,0,1.72,1.72A1.72,1.72,0,0,0,33.66,34.54Z"/><path class="cls-7" d="M33.05,35.15a.61.61,0,1,0,.61-.61A.6.6,0,0,0,33.05,35.15Z"/><path class="cls-8" d="M37.88,38.17a1.14,1.14,0,0,0,0-2.28.43.43,0,0,1,.43.43.43.43,0,0,1-.86,0,.43.43,0,0,1,.43-.43,1.14,1.14,0,1,0,0,2.28Z"/><path class="cls-1" d="M37.45,36.32a.43.43,0,0,0,.86,0,.43.43,0,0,0-.86,0Z"/><ellipse class="cls-5" cx="32.71" cy="16.56" rx="2.51" ry="1.07"/><path class="cls-5" d="M34.69,18.23c0,.59.64,1.07,1.43,1.07s1.43-.48,1.43-1.07-.64-1.07-1.43-1.07S34.69,17.64,34.69,18.23Z"/><path class="cls-5" d="M34.1,18.77c0-.41-.45-.75-1-.75a.9.9,0,0,0-1,.75c0,.41.44.74,1,.74S34.1,19.18,34.1,18.77Z"/><path class="cls-9" d="M48.23,54.26a18.9,18.9,0,0,0-5.3-3.07,16.45,16.45,0,0,0-7-.69,15.36,15.36,0,0,0-6.74,2.14,13.21,13.21,0,0,0-5.7,10.29c0,.51,0,1.07,0,1.66A33,33,0,0,0,53,59.27,18.71,18.71,0,0,0,48.23,54.26Z"/></g></g></svg>