<svg xmlns="http://www.w3.org/2000/svg" viewBox="0 0 265.78 265.78"><defs><style>.cls-1{fill:#4a93ff;}.cls-2{fill:#bc8680;}.cls-3{fill:#d8a198;}.cls-4{fill:#f7c0b4;}.cls-5{fill:#fff;}.cls-6{fill:#333;}.cls-7{fill:#eaa918;}.cls-8{fill:#ffbf23;}.cls-9{fill:#575756;}</style></defs><title>commissions</title><g id="Layer_2" data-name="Layer 2"><g id="icon"><path class="cls-1" d="M217.31,100.39v-8H206.88V74.84H196.82a19.41,19.41,0,0,1-3.4,10.59,22.9,22.9,0,0,1-1.57,2.06A28.57,28.57,0,0,1,188,91.18a39.53,39.53,0,0,1-3.25,2.35q-1.77,1.14-3.82,2.25c-11,5.9-13.64,4.5-17.55,10.23-3.5,5.14-9.26,7.4-12,5.32a25.28,25.28,0,0,1,1.31,16.19h0A25.43,25.43,0,1,1,123.4,96.36c-.1-.07-.2-.12-.29-.19-1.17-1-1.34-2.55-1.36-4.16-1.55,4.45-3.39,6-6.49,5.88-4.59-.13-1.41-4.64-1.79-9.23s1.62-14.82,3.21-18.59a40.69,40.69,0,0,1,15.83-19.84c10.55-6.79,21.69-7.09,40.24-7.09h34.13V41.52h22.5A132.92,132.92,0,0,0,6.73,174.73c17.18,3,35.89,6.51,42.33,8.45.94.28,1.86.53,2.77.76v-1.09a3,3,0,0,1,3-3H67.17a3,3,0,0,1,3,3v2.53a17.86,17.86,0,0,0,6.83-1.9c3.68-2.28,7.41-8.57,14.9-11.37s11.45-14.35,14.13-19.47,9.08-6.25,10.8-.72-3.69,15-6.91,21.4c-2.87,5.75-.68,15.54,7.59,19.11,3.6-1.69,12.33-6,17.29-10.39,6.36-5.63,10.6-10.88,12.7-9.75,1.85,1,5.33,5.64-1.57,12.51,6.22-4.78,9.93-10.19,11.83-11.35s4.16-.3,4.64,2.71a8.9,8.9,0,0,1-1.84,7.71c5.09-2.82,9.68-6.2,11.72-5.72,2.35.55,5.18,1.6,4.43,4.08h0c-.05.15-.11.3-.17.46l-.12.22-.2.37a2.39,2.39,0,0,1-.13.21,6.74,6.74,0,0,1-.45.61c-3.09,3.87-5.48,3.46-8.47,8.26,0,0-8.43,9-30,13.5l.29,2-10.63,1.79-.3-1.93c-19.2,2.84-32,2.42-51.29,2.89-1.47,0-3.17,0-5,0v1h5v7.61H46.59v-7.61h5.24v-1.37c-8.77-.28-18.51-.69-27.79-1.13A132.92,132.92,0,0,0,261.77,100.39Z"/><path class="cls-1" d="M145.76,66.06c-.35,1.43-.69,2.86-1,4.29-.68,2.74-1.39,5.48-2.15,8.2-.86,3.11-1.78,6.2-2.8,9.26a16.46,16.46,0,0,1-2.15,4.68,6,6,0,0,1-4.3,2.6A4,4,0,0,1,130,93.57a7.72,7.72,0,0,1-1.56,2.07c-.11.1-.24.19-.37.29a25.45,25.45,0,0,1,21.74,12.26c-.19-2.38,1.72-4.5,3.94-7.63,2.9-4.07,6.1-9.28,11.12-13s5.38-18-.35-22.93c-4.76-4.13-9.89-3.88-17.91-2.21C146.76,63.42,146,65.19,145.76,66.06Z"/><path class="cls-2" d="M124.31,193.83l-.06-.37,5.11-.74c5.06-1.75,11.61-4.34,15.45-7.1l1.09-.82c6.9-6.87,3.42-11.51,1.57-12.51-2.1-1.13-6.34,4.12-12.7,9.75-5,4.38-13.69,8.7-17.29,10.39a15.53,15.53,0,0,0,3.3,1A23.7,23.7,0,0,0,124.31,193.83Z"/><path class="cls-3" d="M129.36,192.72l5.67-.82.11.76c7.42-1.64,14.6-4.52,19-5.88a35.88,35.88,0,0,0,6.43-2.91,8.9,8.9,0,0,0,1.84-7.71c-.48-3-2.63-3.93-4.64-2.71S152.12,180,145.9,184.8l-1.09.82C141,188.38,134.42,191,129.36,192.72Z"/><path class="cls-2" d="M134.4,80.49a77.92,77.92,0,0,1-3.17,10.11,22.24,22.24,0,0,1-1.26,3,4,4,0,0,0,3.34,1.52,6,6,0,0,0,4.3-2.6,16.46,16.46,0,0,0,2.15-4.68c1-3.06,1.94-6.15,2.8-9.26.76-2.72,1.47-5.46,2.15-8.2.36-1.43.7-2.86,1-4.29.21-.87,1-2.64.82-3.6-1.63.34-3.37.73-5.26,1.17A30.37,30.37,0,0,0,137,64.94a85.93,85.93,0,0,1-1.31,9.14C135.15,76.19,134.87,78.36,134.4,80.49Z"/><path class="cls-3" d="M128,95.93c.13-.1.26-.19.37-.29A7.72,7.72,0,0,0,130,93.57a22.24,22.24,0,0,0,1.26-3,77.92,77.92,0,0,0,3.17-10.11c.47-2.13.75-4.3,1.28-6.41A85.93,85.93,0,0,0,137,64.94c-8,3.06-11.22,8.82-13.1,18.47a65.55,65.55,0,0,1-2.14,8.6c0,1.61.19,3.16,1.36,4.16.09.07.19.12.29.19A25.51,25.51,0,0,1,128,95.93Z"/><path class="cls-4" d="M188,91.18a39.53,39.53,0,0,1-3.25,2.35A39.53,39.53,0,0,0,188,91.18Z"/><path class="cls-4" d="M193.42,85.43a22.9,22.9,0,0,1-1.57,2.06A22.9,22.9,0,0,0,193.42,85.43Z"/><path class="cls-4" d="M191.51,67.78c10.93-1.49,14.16-14.63,15.37-24.64H172.75c-18.55,0-29.69.3-40.24,7.09a40.69,40.69,0,0,0-15.83,19.84c-1.59,3.77-3.59,14-3.21,18.59s-2.8,9.1,1.79,9.23c3.1.09,4.94-1.43,6.49-5.88a65.55,65.55,0,0,0,2.14-8.6C125.77,73.76,129,68,137,64.94a30.37,30.37,0,0,1,4.33-1.31c1.89-.44,3.63-.83,5.26-1.17,8-1.67,13.15-1.92,17.91,2.21,5.73,5,5.38,19.25.35,22.93s-8.22,8.89-11.12,13c-2.22,3.13-4.13,5.25-3.94,7.63a23.91,23.91,0,0,1,1.62,3.14c2.7,2.08,8.46-.18,12-5.32,3.91-5.73,6.58-4.33,17.55-10.23l-.33.17C188.57,88.92,192.22,78.73,191.51,67.78Z"/><path class="cls-3" d="M206.88,43.14h0c-1.21,10-4.44,23.15-15.37,24.64.71,11-2.94,21.14-10.93,28.17l.33-.17q2.06-1.11,3.82-2.25A39.53,39.53,0,0,0,188,91.18a28.57,28.57,0,0,0,3.87-3.69,22.9,22.9,0,0,0,1.57-2.06,19.41,19.41,0,0,0,3.4-10.59h10.06Z"/><polygon class="cls-5" points="206.88 41.52 206.88 43.13 206.88 74.84 206.88 92.43 217.31 92.43 217.31 41.52 206.88 41.52"/><path class="cls-6" d="M217.31,92.43v8h44.46c-.34-1.35-.7-2.7-1.08-4a4.71,4.71,0,0,1-2.53-7.88,132.83,132.83,0,0,0-28.78-46.95H217.31ZM245.14,87a4.73,4.73,0,1,1-4.72,4.73A4.73,4.73,0,0,1,245.14,87ZM228.7,87A4.73,4.73,0,1,1,224,91.71,4.72,4.72,0,0,1,228.7,87Z"/><path class="cls-7" d="M134.19,96.69a25.07,25.07,0,0,0-6.15-.76,25.44,25.44,0,1,0,24.67,31.59h0a25.28,25.28,0,0,0-1.31-16.19,23.91,23.91,0,0,0-1.62-3.14A25.32,25.32,0,0,0,134.19,96.69Zm15.39,30.05a22.21,22.21,0,1,1-16.17-26.92,22.21,22.21,0,0,1,16.17,26.92Z"/><path class="cls-8" d="M133.41,99.82a22.21,22.21,0,1,0,16.17,26.92h0A22.2,22.2,0,0,0,133.41,99.82Zm7,28.54c-1.18,5.06-5.19,5.9-10.68,5.46l-.75,5.38-3.24-.45.73-5.3-2.58-.39-.74,5.33-3.24-.44.74-5.39-2.31-.34-4.22-.59,1.18-3.78s2.39.37,2.35.32a1.15,1.15,0,0,0,1.37-.9l2-14.6a1.69,1.69,0,0,0-1.67-1.68s-2.35-.32-2.35-.32l.47-3.47,4.48.62v0l2.06.26.74-5.33,3.24.45-.72,5.22c.87.1,1.74.21,2.59.33l.72-5.19,3.25.45-.74,5.33c4.14.94,7.27,2.69,7.11,6.58h0a5.06,5.06,0,0,1-3.53,5.07C139.64,122.19,141.32,124.29,140.37,128.36Z"/><path class="cls-8" d="M125.45,122l-1,7.14c2.2.3,9,1.71,9.59-2.31h0C134.63,122.64,127.65,122.31,125.45,122Z"/><path class="cls-8" d="M133.93,116.55c.53-3.82-5.3-4-7.13-4.28l-.9,6.47C127.73,119,133.43,120.22,133.93,116.55Z"/><path class="cls-5" d="M136.65,121a5.06,5.06,0,0,0,3.53-5.07h0c.16-3.89-3-5.64-7.11-6.58l.74-5.33-3.25-.45-.72,5.19c-.85-.12-1.72-.23-2.59-.33l.72-5.22-3.24-.45L124,108.1l-2.06-.26v0l-4.48-.62-.47,3.47s2.4.28,2.35.32a1.69,1.69,0,0,1,1.67,1.68l-2,14.6a1.15,1.15,0,0,1-1.37.9c0,.05-2.35-.32-2.35-.32l-1.18,3.78,4.22.59,2.31.34-.74,5.39,3.24.44.74-5.33,2.58.39-.73,5.3,3.24.45.75-5.38c5.49.44,9.5-.4,10.68-5.46C141.32,124.29,139.64,122.19,136.65,121Zm-9.85-8.74c1.83.25,7.66.46,7.13,4.28s-6.2,2.44-8,2.19Zm7.25,14.57h0c-.56,4-7.39,2.61-9.59,2.31l1-7.14C127.65,122.31,134.63,122.64,134.05,126.84Z"/><circle class="cls-9" cx="228.7" cy="91.71" r="4.73"/><circle class="cls-9" cx="245.14" cy="91.71" r="4.73"/><path class="cls-9" d="M260.69,96.35c-.76-2.66-1.61-5.29-2.53-7.88a4.71,4.71,0,0,0,2.53,7.88Z"/><path class="cls-4" d="M125.53,201.68l-1.22-7.85a23.7,23.7,0,0,1-3.53-.37,15.53,15.53,0,0,1-3.3-1c-8.27-3.57-10.46-13.36-7.59-19.11,3.22-6.44,8.63-15.87,6.91-21.4s-8.12-4.4-10.8.72-6.64,16.66-14.13,19.47S80.65,181.2,77,183.48a17.86,17.86,0,0,1-6.83,1.9V204C88.92,205.1,107.55,204.83,125.53,201.68Z"/><path class="cls-4" d="M51.83,183.94c-.91-.23-1.83-.48-2.77-.76-6.44-1.94-25.15-5.43-42.33-8.45A132.31,132.31,0,0,0,17.3,198.49c11.43,1.44,23,2.9,34.53,4Z"/><path class="cls-4" d="M176.19,183.28a2.39,2.39,0,0,1-.13.21A2.39,2.39,0,0,0,176.19,183.28Z"/><path class="cls-4" d="M176.51,182.69l-.12.22Z"/><path class="cls-4" d="M135.14,192.66l1,6.79a133.11,133.11,0,0,0,40.52-17.22c.75-2.48-2.08-3.53-4.43-4.08-2-.48-6.63,2.9-11.72,5.72a35.88,35.88,0,0,1-6.43,2.91C149.74,188.14,142.56,191,135.14,192.66Z"/><path class="cls-3" d="M70.14,204v6.65c1.87,0,3.57,0,5,0,19.32-.47,32.09-.05,51.29-2.89l-.94-6C107.55,204.83,88.92,205.1,70.14,204Z"/><path class="cls-3" d="M51.83,202.52c-11.56-1.13-23.1-2.59-34.53-4Q20.42,204,24,209.12c9.28.44,19,.85,27.79,1.13Z"/><path class="cls-3" d="M137.11,205.86c21.6-4.48,30-13.5,30-13.5,3-4.8,5.38-4.39,8.47-8.26a6.74,6.74,0,0,0,.45-.61,2.39,2.39,0,0,0,.13-.21l.2-.37.12-.22c.06-.16.12-.31.17-.46h0a133.11,133.11,0,0,1-40.52,17.22Z"/><path class="cls-5" d="M51.83,210.25v1.37H70.14V182.85a3,3,0,0,0-3-3H54.8a3,3,0,0,0-3,3v27.4Z"/><polygon class="cls-9" points="46.59 211.62 46.59 219.22 75.18 219.22 75.18 211.62 70.14 211.62 51.83 211.62 46.59 211.62"/><polygon class="cls-8" points="135.15 192.66 135.03 191.9 129.37 192.72 124.25 193.46 124.31 193.83 125.53 201.68 126.47 207.69 126.77 209.62 137.41 207.84 137.11 205.86 136.16 199.45 135.15 192.66"/></g></g></svg>