<svg xmlns="http://www.w3.org/2000/svg" viewBox="0 0 38.04 38.05" ><defs><style>.cls-1{fill:#ffbf23;}.cls-2{fill:#000;}</style></defs><title>bitcoin-icon</title><g id="Layer_2" data-name="Layer 2"><g id="Слой_5" data-name="Слой 5"><path class="cls-1" d="M37.47,23.63A19,19,0,1,1,23.62.57,19,19,0,0,1,37.47,23.63Z"/><path class="cls-2" d="M28.1,15c.12-2.91-2.22-4.22-5.31-4.93l.55-4-2.43-.34L20.38,9.6c-.64-.09-1.3-.16-1.94-.24L19,5.46l-2.43-.34L16,9.1l-1.55-.19h0l-3.35-.47L10.75,11s1.8.22,1.76.25a1.25,1.25,0,0,1,1.25,1.25L12.25,23.44a.85.85,0,0,1-1,.67s-1.76-.24-1.76-.24L8.59,26.7l3.15.43,1.73.26-.55,4,2.42.33.55-4,1.93.28-.55,4,2.43.34.56-4c4.11.33,7.1-.31,8-4.09.72-3-.54-4.62-2.78-5.49A3.78,3.78,0,0,0,28.1,15Zm-4.58,8.14c-.42,3-5.52,2-7.17,1.73l.74-5.34c1.64.23,6.86.47,6.43,3.61Zm-.09-7.69c-.38,2.74-4.63,1.83-6,1.64l.67-4.84C19.47,12.41,23.83,12.57,23.43,15.42Z"/></g></g></svg>