<svg xmlns="http://www.w3.org/2000/svg" viewBox="0 0 71.74 66.35"><defs><style>.cls-1{fill:#f39200;}.cls-2{fill:#b66e00;}.cls-3{fill:#ffb600;}.cls-4{fill:#ffde00;}.cls-5{fill:#ffeb66;}</style></defs><title>mines-bitcoin</title><g id="Layer_2" data-name="Layer 2"><g id="coins"><path class="cls-1" d="M59.89,39.6a43.09,43.09,0,0,0-13.34-1.9,43.09,43.09,0,0,0-13.34,1.9H27.08v5.08c0,3.86,8.71,7,19.47,7S66,48.54,66,44.68V39.6Z"/><path class="cls-2" d="M27.59,39.6v6.68a5,5,0,0,0,.68.82V39.6Z"/><path class="cls-2" d="M30.31,40.6v7.94l.9.45V40.6Z"/><path class="cls-2" d="M64.87,39.6v7.46a4.66,4.66,0,0,0,.67-.84V39.6Z"/><path class="cls-2" d="M61.92,40.6V49l.91-.45V40.6Z"/><path class="cls-2" d="M33.57,41.63v8.26c.37.12.76.23,1.16.34v-8.6Z"/><path class="cls-2" d="M37.45,41.63v9.23l1.16.2V41.63Z"/><path class="cls-2" d="M41.72,41.63v9.82c.38,0,.77.07,1.16.09V41.63Z"/><path class="cls-2" d="M46,41.63v10h1.17v-10Z"/><path class="cls-2" d="M50.25,41.63v9.91l1.16-.09V41.63Z"/><path class="cls-2" d="M54.52,41.63v9.43c.39-.07.78-.13,1.16-.21V41.63Z"/><path class="cls-2" d="M58.4,41.63v8.6l1.16-.35V41.63Z"/><ellipse class="cls-3" cx="46.55" cy="39.21" rx="19.47" ry="6.98"/><ellipse class="cls-4" cx="46.55" cy="39.86" rx="17.67" ry="6.34"/><path class="cls-5" d="M46.55,33.52c-1,0-2,0-3,.09L33.18,44a36.75,36.75,0,0,0,13.37,2.19h1.13l11-11A39.31,39.31,0,0,0,46.55,33.52Z"/><path class="cls-1" d="M55.63,38.6c.41-1-1.68-1.47-4.53-1.82l.93-1.3-2.26-.19-.9,1.26-1.81-.15.9-1.27-2.25-.2-.93,1.3-1.44-.12h0l-3.11-.27-.61.84,1.65.14c.91.08,1.08.3,1,.46l-2.54,3.57a1.37,1.37,0,0,1-1,.19l-1.64-.15L36,41.8l2.94.26,1.61.14-.93,1.32,2.26.2.92-1.31,1.8.17-.92,1.29,2.26.2.93-1.31c3.86.25,6.75.15,8-1.07,1-1,0-1.55-2.07-1.92,1.47-.12,2.58-.46,2.88-1.17Zm-5.16,2.54c-.7,1-5.42.45-6.95.32l1.24-1.74c1.53.13,6.44.4,5.71,1.42Zm.7-2.55c-.64.9-4.57.44-5.85.33l1.13-1.58C47.72,37.45,51.83,37.66,51.17,38.59Z"/><path class="cls-1" d="M59.89,39.6a43.09,43.09,0,0,0-13.34-1.9,43.09,43.09,0,0,0-13.34,1.9H27.08v5.08c0,3.86,8.71,7,19.47,7S66,48.54,66,44.68V39.6Z"/><path class="cls-2" d="M27.59,39.6v6.68a5,5,0,0,0,.68.82V39.6Z"/><path class="cls-2" d="M30.31,40.6v7.94l.9.45V40.6Z"/><path class="cls-2" d="M64.87,39.6v7.46a4.66,4.66,0,0,0,.67-.84V39.6Z"/><path class="cls-2" d="M61.92,40.6V49l.91-.45V40.6Z"/><path class="cls-2" d="M33.57,41.63v8.26c.37.12.76.23,1.16.34v-8.6Z"/><path class="cls-2" d="M37.45,41.63v9.23l1.16.2V41.63Z"/><path class="cls-2" d="M41.72,41.63v9.82c.38,0,.77.07,1.16.09V41.63Z"/><path class="cls-2" d="M46,41.63v10h1.17v-10Z"/><path class="cls-2" d="M50.25,41.63v9.91l1.16-.09V41.63Z"/><path class="cls-2" d="M54.52,41.63v9.43c.39-.07.78-.13,1.16-.21V41.63Z"/><path class="cls-2" d="M58.4,41.63v8.6l1.16-.35V41.63Z"/><ellipse class="cls-3" cx="46.55" cy="39.21" rx="19.47" ry="6.98"/><ellipse class="cls-4" cx="46.55" cy="39.86" rx="17.67" ry="6.34"/><path class="cls-5" d="M46.55,33.52c-1,0-2,0-3,.09L33.18,44a36.75,36.75,0,0,0,13.37,2.19h1.13l11-11A39.31,39.31,0,0,0,46.55,33.52Z"/><path class="cls-1" d="M55.63,38.6c.41-1-1.68-1.47-4.53-1.82l.93-1.3-2.26-.19-.9,1.26-1.81-.15.9-1.27-2.25-.2-.93,1.3-1.44-.12h0l-3.11-.27-.61.84,1.65.14c.91.08,1.08.3,1,.46l-2.54,3.57a1.37,1.37,0,0,1-1,.19l-1.64-.15L36,41.8l2.94.26,1.61.14-.93,1.32,2.26.2.92-1.31,1.8.17-.92,1.29,2.26.2.93-1.31c3.86.25,6.75.15,8-1.07,1-1,0-1.55-2.07-1.92,1.47-.12,2.58-.46,2.88-1.17Zm-5.16,2.54c-.7,1-5.42.45-6.95.32l1.24-1.74c1.53.13,6.44.4,5.71,1.42Zm.7-2.55c-.64.9-4.57.44-5.85.33l1.13-1.58C47.72,37.45,51.83,37.66,51.17,38.59Z"/><path class="cls-1" d="M58.33,33A43.3,43.3,0,0,0,45,31.11,43.41,43.41,0,0,0,31.66,33H25.52v5.09c0,3.86,8.72,7,19.48,7s19.47-3.12,19.47-7V33Z"/><path class="cls-2" d="M26,33v6.68a4.62,4.62,0,0,0,.68.82V33Z"/><path class="cls-2" d="M28.76,34v7.94c.28.16.58.3.9.45V34Z"/><path class="cls-2" d="M63.31,33v7.47a5,5,0,0,0,.68-.84V33Z"/><path class="cls-2" d="M60.37,34v8.37c.32-.14.62-.29.91-.45V34Z"/><path class="cls-2" d="M32,35v8.25c.37.12.76.24,1.16.35V35Z"/><path class="cls-2" d="M35.9,35v9.22c.38.08.77.14,1.16.21V35Z"/><path class="cls-2" d="M40.16,35v9.82l1.17.09V35Z"/><path class="cls-2" d="M44.43,35v10H45.6V35Z"/><path class="cls-2" d="M48.7,35V45l1.16-.1V35Z"/><path class="cls-2" d="M53,35v9.42l1.16-.2V35Z"/><path class="cls-2" d="M56.85,35v8.59c.4-.11.79-.22,1.16-.35V35Z"/><ellipse class="cls-3" cx="45" cy="32.62" rx="19.47" ry="6.98"/><ellipse class="cls-4" cx="45" cy="33.26" rx="17.67" ry="6.34"/><path class="cls-5" d="M45,26.92c-1,0-2,0-3,.1L31.63,37.4A36.48,36.48,0,0,0,45,39.6l1.13,0L57.07,28.64A39.17,39.17,0,0,0,45,26.92Z"/><path class="cls-1" d="M54.08,32c.41-1-1.68-1.48-4.53-1.82l.93-1.3-2.26-.2L47.32,30l-1.81-.15.9-1.28-2.25-.19-.93,1.3-1.44-.12h0l-3.12-.27-.6.85s1.68.13,1.64.14c.92.08,1.08.29,1.06.46l-2.54,3.56a1.32,1.32,0,0,1-1,.19l-1.65-.14-1.12.9,2.94.26,1.61.15-.93,1.31,2.25.2.93-1.3L43,36l-.92,1.3,2.26.2.93-1.32c3.85.26,6.75.15,8-1.07,1-1-.05-1.55-2.08-1.92,1.48-.12,2.59-.46,2.89-1.16Zm-5.16,2.54c-.7,1-5.42.45-7,.32l1.24-1.75c1.54.14,6.45.4,5.72,1.43Zm.7-2.55c-.64.89-4.57.44-5.85.32l1.13-1.58C46.17,30.85,50.28,31.06,49.62,32Z"/><path class="cls-1" d="M60.74,27.65a43,43,0,0,0-13.33-1.9,43,43,0,0,0-13.34,1.9H27.93v5.08c0,3.86,8.72,7,19.48,7s19.47-3.13,19.47-7V27.65Z"/><path class="cls-2" d="M28.45,27.65v6.68a4.55,4.55,0,0,0,.68.82v-7.5Z"/><path class="cls-2" d="M31.16,28.65v7.94c.29.15.59.3.91.44V28.65Z"/><path class="cls-2" d="M65.72,27.65v7.46a4.32,4.32,0,0,0,.68-.84V27.65Z"/><path class="cls-2" d="M62.78,28.65V37c.32-.15.62-.3.9-.46V28.65Z"/><path class="cls-2" d="M34.43,29.68v8.26c.37.12.76.23,1.16.34v-8.6Z"/><path class="cls-2" d="M38.3,29.68v9.23l1.17.2V29.68Z"/><path class="cls-2" d="M42.57,29.68V39.5l1.17.09V29.68Z"/><path class="cls-2" d="M46.84,29.68v10H48v-10Z"/><path class="cls-2" d="M51.11,29.68v9.91l1.16-.09V29.68Z"/><path class="cls-2" d="M55.37,29.68v9.43l1.17-.21V29.68Z"/><path class="cls-2" d="M59.25,29.68v8.59l1.17-.34V29.68Z"/><ellipse class="cls-3" cx="47.41" cy="27.26" rx="19.47" ry="6.98"/><ellipse class="cls-4" cx="47.41" cy="27.91" rx="17.67" ry="6.34"/><path class="cls-5" d="M47.41,21.57c-1,0-2,0-3,.09L34,32.05a36.71,36.71,0,0,0,13.37,2.19h1.13L59.48,23.28A39.24,39.24,0,0,0,47.41,21.57Z"/><path class="cls-1" d="M56.49,26.65c.41-1-1.68-1.47-4.53-1.82l.92-1.3-2.26-.2-.9,1.27-1.81-.15.91-1.27L46.56,23l-.92,1.3-1.45-.12h0l-3.12-.28-.6.85,1.64.14c.92.08,1.08.3,1.05.46L40.64,28.9a1.4,1.4,0,0,1-1,.19L38,28.94l-1.12.91,2.94.26,1.61.14-.93,1.32,2.25.19.93-1.3,1.8.17-.92,1.29,2.25.2.94-1.31c3.85.25,6.75.15,8-1.07,1-1,0-1.55-2.08-1.92,1.48-.12,2.59-.46,2.89-1.17Zm-5.17,2.54c-.69,1-5.42.45-7,.32l1.24-1.74c1.53.13,6.44.4,5.72,1.42Zm.7-2.55c-.63.89-4.57.44-5.84.33l1.12-1.58C48.58,25.5,52.69,25.71,52,26.64Z"/><path class="cls-1" d="M32.57,21.05a43.27,43.27,0,0,1,13.33-1.9,43.3,43.3,0,0,1,13.34,1.9h6.14v5.09c0,3.86-8.72,7-19.48,7s-19.47-3.12-19.47-7V21.05Z"/><path class="cls-2" d="M64.86,21.05v6.68a4.23,4.23,0,0,1-.68.82v-7.5Z"/><path class="cls-2" d="M62.15,22.05V30l-.91.45V22.05Z"/><path class="cls-2" d="M27.59,21.05v7.46a4.59,4.59,0,0,1-.68-.83V21.05Z"/><path class="cls-2" d="M30.53,22.05v8.37c-.32-.14-.62-.29-.91-.45V22.05Z"/><path class="cls-2" d="M58.88,23.09v8.25c-.37.12-.76.24-1.16.35v-8.6Z"/><path class="cls-2" d="M55,23.09v9.22c-.38.08-.77.14-1.16.21V23.09Z"/><path class="cls-2" d="M50.74,23.09v9.82L49.57,33V23.09Z"/><path class="cls-2" d="M46.47,23.09v10H45.31v-10Z"/><path class="cls-2" d="M42.2,23.09V33c-.39,0-.78-.05-1.16-.09V23.09Z"/><path class="cls-2" d="M37.93,23.09v9.42l-1.16-.2V23.09Z"/><path class="cls-2" d="M34.06,23.09v8.59l-1.17-.35V23.09Z"/><ellipse class="cls-3" cx="45.9" cy="20.66" rx="19.47" ry="6.98"/><ellipse class="cls-4" cx="45.9" cy="21.31" rx="17.67" ry="6.34"/><path class="cls-5" d="M45.9,15c1,0,2,0,3,.1L59.27,25.45a36.48,36.48,0,0,1-13.37,2.2l-1.13,0L33.83,16.69A39.22,39.22,0,0,1,45.9,15Z"/><path class="cls-1" d="M36.82,20.06c.3.7,1.41,1,2.89,1.16-2,.37-3.06.94-2.08,1.92,1.22,1.22,4.12,1.33,8,1.07l.93,1.31,2.26-.19L47.87,24l1.8-.16.93,1.3,2.25-.2-.93-1.31,1.61-.15,2.94-.26-1.12-.9-1.64.14a1.35,1.35,0,0,1-1-.19l-2.54-3.56c0-.17.14-.38,1.06-.46,0,0,1.64-.14,1.64-.14l-.6-.85-3.12.27h0l-1.44.12-.92-1.31-2.26.2.91,1.28c-.61.05-1.22.09-1.81.15l-.9-1.27-2.26.2.92,1.3c-2.85.34-4.94.86-4.53,1.82ZM42,22.6c-.72-1,4.19-1.29,5.72-1.43l1.24,1.74c-1.53.14-6.26.67-7-.31Zm4-3.81,1.12,1.58c-1.28.11-5.21.57-5.84-.33S44.73,18.9,46,18.79Z"/><path class="cls-1" d="M60.48,14.39a43,43,0,0,0-13.33-1.9,43.09,43.09,0,0,0-13.34,1.9H27.67v5.08c0,3.86,8.72,7,19.48,7s19.47-3.13,19.47-7V14.39Z"/><path class="cls-2" d="M28.19,14.39v6.68a5,5,0,0,0,.68.82v-7.5Z"/><path class="cls-2" d="M30.91,15.39v7.94q.42.23.9.45V15.39Z"/><path class="cls-2" d="M65.46,14.39v7.46a4.32,4.32,0,0,0,.68-.84V14.39Z"/><path class="cls-2" d="M62.52,15.39v8.37l.91-.45V15.39Z"/><path class="cls-2" d="M34.17,16.42v8.26c.37.12.76.23,1.16.34v-8.6Z"/><path class="cls-2" d="M38.05,16.42v9.23l1.16.2V16.42Z"/><path class="cls-2" d="M42.31,16.42v9.82q.59.06,1.17.09V16.42Z"/><path class="cls-2" d="M46.58,16.42v10h1.17v-10Z"/><path class="cls-2" d="M50.85,16.42v9.91L52,26.24V16.42Z"/><path class="cls-2" d="M55.12,16.42v9.43c.39-.07.78-.13,1.16-.21V16.42Z"/><path class="cls-2" d="M59,16.42V25c.4-.11.78-.23,1.16-.35V16.42Z"/><ellipse class="cls-3" cx="47.15" cy="14" rx="19.47" ry="6.98"/><ellipse class="cls-4" cx="47.15" cy="14.65" rx="17.67" ry="6.34"/><path class="cls-5" d="M47.15,8.31c-1,0-2,0-3,.09L33.78,18.79A36.71,36.71,0,0,0,47.15,21h1.13L59.22,10A39.24,39.24,0,0,0,47.15,8.31Z"/><path class="cls-1" d="M56.23,13.39c.41-1-1.68-1.47-4.53-1.82l.93-1.3-2.26-.19-.91,1.26-1.8-.15.9-1.27-2.25-.2L45.38,11l-1.44-.12h0l-3.12-.27-.6.84,1.64.14c.92.08,1.08.3,1.06.46l-2.54,3.57a1.37,1.37,0,0,1-1,.19l-1.65-.15-1.12.91,2.94.26,1.61.14-.93,1.32,2.25.2.93-1.31,1.8.17-.92,1.29,2.26.2.93-1.31c3.85.25,6.75.15,8-1.07,1-1-.05-1.55-2.08-1.92,1.48-.12,2.59-.46,2.89-1.17Zm-5.16,2.54c-.7,1-5.42.45-7,.32l1.24-1.74c1.54.13,6.45.4,5.72,1.42Zm.69-2.55c-.63.9-4.56.44-5.84.33l1.13-1.58C48.32,12.24,52.43,12.45,51.76,13.38Z"/><path class="cls-1" d="M60.07,7.37a43.39,43.39,0,0,0-13.34-1.9,43.39,43.39,0,0,0-13.34,1.9H27.26v5.09c0,3.85,8.71,7,19.47,7s19.47-3.13,19.47-7V7.37Z"/><path class="cls-2" d="M27.77,7.37v6.68a4.62,4.62,0,0,0,.68.82V7.37Z"/><path class="cls-2" d="M30.49,8.37v7.94q.42.23.9.45V8.37Z"/><path class="cls-2" d="M65.05,7.37v7.46a4.66,4.66,0,0,0,.67-.84V7.37Z"/><path class="cls-2" d="M62.1,8.37v8.37c.32-.14.62-.3.91-.45V8.37Z"/><path class="cls-2" d="M33.75,9.41v8.25c.37.12.76.24,1.16.35V9.41Z"/><path class="cls-2" d="M37.63,9.41v9.22l1.16.2V9.41Z"/><path class="cls-2" d="M41.9,9.41v9.81l1.16.1V9.41Z"/><path class="cls-2" d="M46.16,9.41v10h1.17v-10Z"/><path class="cls-2" d="M50.43,9.41v9.9c.39,0,.78,0,1.16-.09V9.41Z"/><path class="cls-2" d="M54.7,9.41v9.42l1.16-.2V9.41Z"/><path class="cls-2" d="M58.58,9.41V18c.4-.11.79-.23,1.16-.35V9.41Z"/><ellipse class="cls-3" cx="46.73" cy="6.98" rx="19.47" ry="6.98"/><ellipse class="cls-4" cx="46.73" cy="7.63" rx="17.67" ry="6.34"/><path class="cls-5" d="M46.73,1.29c-1,0-2,0-3,.09L33.36,11.77A36.51,36.51,0,0,0,46.73,14l1.13,0L58.81,3A39,39,0,0,0,46.73,1.29Z"/><path class="cls-1" d="M55.81,6.38c.41-1-1.68-1.48-4.53-1.82l.93-1.3L50,3.06l-.9,1.27c-.6-.06-1.21-.11-1.81-.15l.9-1.28-2.25-.2L45,4l-1.44-.11h0l-3.11-.27-.61.84s1.68.14,1.65.15c.91.08,1.08.29,1,.46L40,8.62a1.32,1.32,0,0,1-1,.19l-1.64-.14-1.13.9,2.94.26,1.61.15-.93,1.31,2.26.2.92-1.3,1.8.16-.92,1.3,2.26.19L47,10.53c3.86.26,6.75.15,8-1.07,1-1,0-1.55-2.07-1.92,1.47-.12,2.58-.46,2.88-1.16ZM50.65,8.92c-.7,1-5.42.45-6.95.31l1.24-1.74c1.53.13,6.44.4,5.71,1.43Zm.7-2.56c-.64.9-4.57.44-5.85.33l1.13-1.58C47.9,5.22,52,5.43,51.35,6.36Z"/><path class="cls-1" d="M32.81,46.43a43,43,0,0,0-13.34-1.9,43,43,0,0,0-13.33,1.9H0v5.09c0,3.85,8.72,7,19.47,7S39,55.37,39,51.52V46.43Z"/><path class="cls-2" d="M.52,46.43v6.68a4.55,4.55,0,0,0,.68.82v-7.5Z"/><path class="cls-2" d="M3.23,47.43v7.94l.91.45V47.43Z"/><path class="cls-2" d="M37.79,46.43v7.46a4.73,4.73,0,0,0,.68-.84V46.43Z"/><path class="cls-2" d="M34.85,47.43V55.8l.9-.45V47.43Z"/><path class="cls-2" d="M6.49,48.47v8.25l1.17.35v-8.6Z"/><path class="cls-2" d="M10.37,48.47v9.22l1.17.2V48.47Z"/><path class="cls-2" d="M14.64,48.47v9.81c.38,0,.77.07,1.16.09v-9.9Z"/><path class="cls-2" d="M18.91,48.47v10h1.16v-10Z"/><path class="cls-2" d="M23.18,48.47v9.9c.39,0,.78,0,1.16-.09V48.47Z"/><path class="cls-2" d="M27.44,48.47v9.42c.4-.07.79-.13,1.17-.21V48.47Z"/><path class="cls-2" d="M31.32,48.47v8.59l1.17-.35V48.47Z"/><ellipse class="cls-3" cx="19.47" cy="46.04" rx="19.47" ry="6.98"/><ellipse class="cls-4" cx="19.47" cy="46.69" rx="17.67" ry="6.34"/><path class="cls-5" d="M19.47,40.35c-1,0-2,0-3,.09L6.1,50.83A36.73,36.73,0,0,0,19.47,53l1.13,0,11-10.95A39.26,39.26,0,0,0,19.47,40.35Z"/><path class="cls-1" d="M28.56,45.44c.4-1-1.68-1.48-4.53-1.82L25,42.31l-2.26-.19-.9,1.26L20,43.23,20.89,42l-2.26-.2-.92,1.3-1.45-.12h0l-3.12-.27-.6.84s1.68.14,1.64.15c.91.08,1.08.29,1.05.46l-2.53,3.56a1.4,1.4,0,0,1-1,.19L10,47.72l-1.12.91,2.94.26,1.61.14-.94,1.32,2.26.2.93-1.3,1.8.16-.93,1.3,2.26.19.94-1.31c3.85.25,6.75.15,8-1.07,1-1-.05-1.55-2.08-1.92,1.48-.12,2.59-.46,2.88-1.16ZM23.39,48c-.7,1-5.42.46-6.95.32l1.24-1.74c1.53.13,6.44.4,5.71,1.42Zm.7-2.55c-.64.9-4.57.44-5.84.33l1.12-1.58C20.65,44.28,24.76,44.49,24.09,45.42Z"/><path class="cls-1" d="M34.06,39.77a43.09,43.09,0,0,0-13.34-1.9,43.09,43.09,0,0,0-13.34,1.9H1.24v5.08c0,3.86,8.72,7,19.48,7s19.47-3.13,19.47-7V39.77Z"/><path class="cls-2" d="M1.76,39.77v6.68a5,5,0,0,0,.68.82v-7.5Z"/><path class="cls-2" d="M4.48,40.77V48.7a9.44,9.44,0,0,0,.9.45V40.77Z"/><path class="cls-2" d="M39,39.77v7.46a4.32,4.32,0,0,0,.68-.84V39.77Z"/><path class="cls-2" d="M36.09,40.77v8.37c.32-.15.62-.3.91-.46V40.77Z"/><path class="cls-2" d="M7.74,41.8v8.26c.37.12.76.23,1.16.34V41.8Z"/><path class="cls-2" d="M11.62,41.8V51l1.16.2V41.8Z"/><path class="cls-2" d="M15.89,41.8v9.82l1.16.09V41.8Z"/><path class="cls-2" d="M20.15,41.8v10h1.17v-10Z"/><path class="cls-2" d="M24.42,41.8v9.91l1.16-.09V41.8Z"/><path class="cls-2" d="M28.69,41.8v9.42l1.16-.2V41.8Z"/><path class="cls-2" d="M32.57,41.8v8.59c.4-.11.79-.22,1.16-.34V41.8Z"/><ellipse class="cls-3" cx="20.72" cy="39.38" rx="19.47" ry="6.98"/><ellipse class="cls-4" cx="20.72" cy="40.02" rx="17.67" ry="6.34"/><path class="cls-5" d="M20.72,33.69c-1,0-2,0-3,.09L7.35,44.17a36.71,36.71,0,0,0,13.37,2.19h1.13l10.95-11A39.31,39.31,0,0,0,20.72,33.69Z"/><path class="cls-1" d="M29.8,38.77c.41-1-1.68-1.47-4.53-1.82l.93-1.3-2.26-.2L23,36.72l-1.81-.15.9-1.27-2.25-.2L19,36.4l-1.44-.12h0L14.39,36l-.6.85s1.68.13,1.64.14c.92.08,1.09.29,1.06.46L14,41a1.39,1.39,0,0,1-1,.18s-1.65-.14-1.65-.14L10.15,42l2.94.25,1.61.15-.93,1.32,2.25.19.93-1.3,1.8.17L17.83,44l2.26.2L21,42.92c3.85.26,6.75.16,8-1.06,1-1,0-1.55-2.08-1.92,1.48-.12,2.59-.46,2.89-1.17Zm-5.16,2.54c-.7,1-5.42.45-7,.32l1.24-1.75c1.54.14,6.45.4,5.72,1.43Zm.7-2.55c-.64.89-4.57.44-5.85.33l1.13-1.58C21.89,37.62,26,37.83,25.34,38.76Z"/><path class="cls-1" d="M7,32.75a43.09,43.09,0,0,1,13.34-1.9,43.09,43.09,0,0,1,13.34,1.9h6.13v5.09c0,3.85-8.72,7-19.47,7S.83,41.69.83,37.84V32.75Z"/><path class="cls-2" d="M39.26,32.75v6.68a5,5,0,0,1-.68.82v-7.5Z"/><path class="cls-2" d="M36.54,33.75v7.94c-.28.15-.59.3-.9.45V33.75Z"/><path class="cls-2" d="M2,32.75v7.46a4.73,4.73,0,0,1-.68-.84V32.75Z"/><path class="cls-2" d="M4.93,33.75v8.37L4,41.67V33.75Z"/><path class="cls-2" d="M33.28,34.79V43c-.38.12-.76.24-1.16.35v-8.6Z"/><path class="cls-2" d="M29.4,34.79V44l-1.16.2V34.79Z"/><path class="cls-2" d="M25.13,34.79V44.6c-.38,0-.77.07-1.16.09v-9.9Z"/><path class="cls-2" d="M20.87,34.79v10H19.7v-10Z"/><path class="cls-2" d="M16.6,34.79v9.9l-1.17-.09V34.79Z"/><path class="cls-2" d="M12.33,34.79v9.42c-.39-.07-.78-.13-1.16-.21V34.79Z"/><path class="cls-2" d="M8.45,34.79v8.59c-.4-.11-.79-.23-1.16-.35V34.79Z"/><ellipse class="cls-3" cx="20.3" cy="32.36" rx="19.47" ry="6.98"/><ellipse class="cls-4" cx="20.3" cy="33.01" rx="17.67" ry="6.34"/><path class="cls-5" d="M21.59,26.67c-1,0-2,0-3,.09L8.22,37.15a36.75,36.75,0,0,0,13.37,2.19h1.13l11-10.95A39.31,39.31,0,0,0,21.59,26.67Z"/><path class="cls-1" d="M11.22,31.76c.3.7,1.41,1,2.88,1.16-2,.37-3,.94-2.07,1.92,1.22,1.22,4.11,1.32,8,1.07l.93,1.31,2.26-.2-.92-1.29,1.8-.17L25,36.87l2.26-.2-.94-1.32,1.61-.14L30.86,35,29.74,34l-1.64.15a1.37,1.37,0,0,1-1-.19l-2.54-3.56c0-.17.14-.38,1-.46,0,0,1.64-.15,1.64-.15l-.6-.84-3.11.27h0l-1.44.12-.93-1.3-2.26.2.91,1.27L18,29.7l-.9-1.26-2.26.19.93,1.31c-2.85.34-4.94.86-4.53,1.82Zm5.16,2.53c-.73-1,4.18-1.29,5.71-1.42l1.24,1.74c-1.53.13-6.25.67-6.95-.32Zm4-3.8,1.13,1.58c-1.28.11-5.21.57-5.85-.33S19.13,30.6,20.4,30.49Z"/><path class="cls-1" d="M38.93,54.28a43.09,43.09,0,0,1,13.34-1.9,43.09,43.09,0,0,1,13.34,1.9h6.13v5.09c0,3.85-8.71,7-19.47,7s-19.47-3.13-19.47-7V54.28Z"/><path class="cls-2" d="M71.23,54.28V61a5,5,0,0,1-.68.82v-7.5Z"/><path class="cls-2" d="M68.51,55.28v7.94l-.9.45V55.28Z"/><path class="cls-2" d="M34,54.28v7.46a4.66,4.66,0,0,1-.67-.84V54.28Z"/><path class="cls-2" d="M36.9,55.28v8.37L36,63.2V55.28Z"/><path class="cls-2" d="M65.25,56.32v8.25c-.37.12-.76.24-1.16.35v-8.6Z"/><path class="cls-2" d="M61.37,56.32v9.22l-1.16.2V56.32Z"/><path class="cls-2" d="M57.1,56.32v9.81c-.38,0-.77.07-1.16.09v-9.9Z"/><path class="cls-2" d="M52.84,56.32v10H51.67v-10Z"/><path class="cls-2" d="M48.57,56.32v9.9c-.39,0-.78,0-1.16-.09V56.32Z"/><path class="cls-2" d="M44.3,56.32v9.42c-.39-.07-.78-.13-1.16-.21V56.32Z"/><path class="cls-2" d="M40.42,56.32v8.59c-.4-.11-.79-.23-1.16-.35V56.32Z"/><ellipse class="cls-3" cx="52.27" cy="53.89" rx="19.47" ry="6.98"/><ellipse class="cls-4" cx="52.27" cy="54.54" rx="17.67" ry="6.34"/><path class="cls-5" d="M52.27,48.2c1,0,2,0,3,.09L65.64,58.68a36.73,36.73,0,0,1-13.37,2.2l-1.13,0-11-11A39.31,39.31,0,0,1,52.27,48.2Z"/><path class="cls-1" d="M60.93,52.47c-.14-1.17-2.59-1.62-5.74-1.81l.2-1.62L52.94,49l-.19,1.57-2,0L51,48.93l-2.44-.06-.2,1.61-1.56,0h0l-3.37-.09-.12,1s1.8,0,1.77.05c1,0,1.29.26,1.36.47l-.53,4.42c-.06.12-.27.31-1,.3l-1.78,0-.63,1.16,3.19.08,1.74.06-.19,1.63,2.44.06L49.9,58l2,.05-.2,1.61,2.45.06.19-1.62c4.12,0,7.05-.33,7.59-1.87.44-1.25-1-1.84-3.26-2.13,1.45-.25,2.4-.74,2.3-1.6Zm-3.84,3.41c-.15,1.22-5.33.94-7,.9l.26-2.16c1.66,0,6.88,0,6.73,1.26Zm-.77-3.08c-.14,1.11-4.46.86-5.84.83l.24-2C52.1,51.7,56.45,51.64,56.32,52.8Z"/></g></g></svg>