<svg xmlns="http://www.w3.org/2000/svg" viewBox="0 0 376.21 421.88"><defs><style>.cls-1{isolation:isolate;}.cls-2{fill:#474532;}.cls-3{fill:#515b2b;}.cls-24,.cls-4{fill:#dadada;}.cls-4{mix-blend-mode:multiply;}.cls-5{fill:#3c3c3b;}.cls-6{fill:#575756;}.cls-7{fill:#353426;}.cls-8{fill:#1d1d1b;}.cls-9{fill:#63723a;}.cls-10{fill:#55602f;}.cls-11{fill:#7e8c51;}.cls-12{fill:#b99087;}.cls-13{fill:#f7c0b4;}.cls-14{fill:#cb9f94;}.cls-15{fill:#7e8c4f;}.cls-16{fill:#62703b;}.cls-17,.cls-21,.cls-22,.cls-31{fill:none;stroke-miterlimit:10;}.cls-17{stroke:#3c3c3b;}.cls-17,.cls-21{stroke-width:3px;}.cls-18{fill:#8e995f;}.cls-19{fill:#e30613;}.cls-20{fill:#ffed00;}.cls-21,.cls-22{stroke:#353426;}.cls-22{stroke-width:2px;}.cls-23{fill:#7b6a58;}.cls-25{fill:#c6c6c6;}.cls-26{fill:#9d9d9c;}.cls-27{fill:#af7871;}.cls-28{fill:#b4c17c;}.cls-29{fill:#fff;}.cls-30{fill:#fad399;}.cls-31{stroke:#b4c17c;stroke-width:4px;}</style></defs><title>mines-char</title><g class="cls-1"><g id="Layer_2" data-name="Layer 2"><g id="soldier"><path class="cls-2" d="M175.77,122.17c.1-.19-30.74,29.51,1.33,47.67l5.36-4.66S157.87,156.67,175.77,122.17Z"/><path class="cls-3" d="M239,332.9s8.16,26.55,30.66,41.58,40.62,21.32,51,21.28-17.83-20.84-11.85-65.63S212,274,239,332.9Z"/><path class="cls-4" d="M287.21,371c-14.59-19.15,9.05-33.3,21.68-47.78-4.79-38.86-95.43-46.05-69.89,9.71,0,0,8.16,26.55,30.66,41.58s40.62,21.32,51,21.28c5.05,0,1-4.94-3.81-15.08C305.67,383.16,294.61,381.33,287.21,371Z"/><path class="cls-5" d="M320.16,404.42l-12.62-2.37s-4.37-6.87-14.59-4c-11.28,3.13-6.22,18-6.22,18h57.51a12.78,12.78,0,0,0-6.43-11.84L326.14,391.3l-10.92,7.36Z"/><path class="cls-4" d="M337.81,404.17,326.14,391.3l-10.92,7.36,2.57,3c7-3.56,17.36-1.43,15.42,7.32a16.17,16.17,0,0,1-3.68,7h14.71A12.78,12.78,0,0,0,337.81,404.17Z"/><polygon class="cls-6" points="308.04 395.76 317.04 402.43 331.5 392.42 323.03 383.11 308.04 395.76"/><polyline class="cls-6" points="286.17 412.91 283.24 412.91 284.24 421.77 314.91 421.77 317.04 416.86 323.31 416.86 324.67 421.54 346.75 421.54 345.83 414.14 286.17 413.26"/><path class="cls-2" d="M343.11,196.05l13.39-2.52s13.83,19.78,16.17,40.3l-8.95,10.85S342.39,210.43,343.11,196.05Z"/><path class="cls-7" d="M336.28,173.46s24.3,30.71,34.26,75.55c0,0-12.1,26.17-61.63,41.28S226.5,139.52,336.28,173.46Z"/><path class="cls-2" d="M249.23,152.48s20.86-10,71.51-13.86c0,0,16.87,3.65,30.65,30.88,0,0-12.12,14.56-58.84,19.79S231.51,158,249.23,152.48Z"/><path class="cls-4" d="M260.21,151a10.75,10.75,0,0,0-3.43-1.31,69.23,69.23,0,0,0-7.55,2.82c-17.72,5.52-3.4,42,43.32,36.81s58.84-19.79,58.84-19.79c-.89-1.75-1.78-3.39-2.69-4.95C321.33,183.87,286.73,165.18,260.21,151Z"/><polygon class="cls-8" points="161.78 341.18 165.45 346.68 172.6 342.13 168.67 336.23 161.78 341.18"/><path class="cls-9" d="M236.6,167.31s-29.88,70.3-96.09,35.44l-8.22,17.1s64.8,38.45,109,2.3S246,131.5,236.6,167.31Z"/><path class="cls-10" d="M236.6,167.31s-.35.83-1.07,2.26c.91,13.76-.92,27.59-7.32,40.4-11,19-34,24.17-53.7,20.1-11.86-2.46-25.31-9.87-24.68-23a98,98,0,0,1-9.32-4.32l-8.22,17.1s64.8,38.45,109,2.3S246,131.5,236.6,167.31Z"/><path class="cls-9" d="M215.72,322s-14.3,51.75-35.43,72.22,57-14.75,80.13-33.52S291.92,331,291.92,331Z"/><path class="cls-4" d="M215.72,322s-1.08,3.93-3.09,10c11.6,5.17,25.25,13.95,20.58,28-6.12,18.34-24.49,23.82-41.3,19.14a77.69,77.69,0,0,1-11.62,15.09c-21.12,20.46,57-14.75,80.13-33.52S291.92,331,291.92,331Z"/><path class="cls-11" d="M250,149.74s42.48,10.79,61.05,51.89,2.72,130.69,2.72,130.69-64,19.08-106.64-4.92c0,0,45.54-96.46,32-174.92C239.17,152.48,239.93,145.87,250,149.74Z"/><path class="cls-4" d="M311,201.63A89.48,89.48,0,0,0,291.45,174c13.35,55.2,7.21,122-27.92,165.51a206.33,206.33,0,0,0,50.23-7.17S329.61,242.73,311,201.63Z"/><path class="cls-12" d="M247.94,154.91c.34-1.48.6-3,.89-4.45,0-.21.08-.39.11-.55-18-9.36-26-22.65-26-22.65-15.88-15.47-33.45,1.36-4.17,19A98.7,98.7,0,0,0,247.1,158Q247.57,156.49,247.94,154.91Z"/><path class="cls-13" d="M194.19,60.31,192.93,82s-37-11.66-56.49-9-.91,35.29,53.68,25c0,0-4.37,6.71-21.85,37-16.19,28.05,31.76,52.38,46.58,28s9.52-94.24,9.52-94.24Z"/><path class="cls-14" d="M224.37,68.87l-30.18-8.56L192.93,82s-37-11.66-56.49-9a12.93,12.93,0,0,0-3.18.82c26-.38,52.7,6.76,72,24.08,10,9,13,23,11,37-2,16-20,28-35,20a32.76,32.76,0,0,1-14.67-16.28c-10.39,26.46,34.13,47.74,48.31,24.42C229.67,138.73,224.37,68.87,224.37,68.87Z"/><path class="cls-15" d="M248.43,93.7l6.4-22.82h0a51.77,51.77,0,1,0-99.69-28l-5.89,21Z"/><path class="cls-9" d="M218.94,7a51.6,51.6,0,0,0-29.88.58C210.78,11.45,229.8,31,225.21,54c-2.19,13.14-9.56,21.67-19.34,27L248.43,93.7l6.4-22.82h0A51.78,51.78,0,0,0,218.94,7Z"/><path class="cls-16" d="M235.76,86.84c.92,0-83.68-33.15-83.68-33.15a87.58,87.58,0,0,0-22.92,10.93S181.35,85,235.76,86.84Z"/><path class="cls-7" d="M231.06,73.07s10.8-58.39-43.63-64.89c0,0-.26-9.39,18.14-8,18.76,1.37,46.87,18.7,39.4,76.29C245,76.42,236.29,88.29,231.06,73.07Z"/><path class="cls-5" d="M165.81,390.39a112.34,112.34,0,0,1-7.05-11.8c.25,0,5.11-8.84-3.1-15-8.55-7.17-21.49,1.51-22,1.33.2-.23,3.66,11.38,12.64,23.15,8.37,11.92,22.26,24,29.43,28.27.13.1,9.91-4.94,6.65-13A110.8,110.8,0,0,1,165.81,390.39Z"/><path class="cls-4" d="M182.4,403.35a111.2,111.2,0,0,1-10.61-7.69c-8.27,2.25-16.38-.51-23.52-5,8.45,11,20.84,21.68,27.48,25.63C175.88,416.42,185.66,411.38,182.4,403.35Z"/><path class="cls-6" d="M136.63,363.49c-.37-.95-.72-1.9-1.06-2.85a84.71,84.71,0,0,1-9.15,2.06,104.65,104.65,0,0,0,16.1,31.58c2.45.06,4.87.05,7.28,0q2.35,2.86,4.95,5.62-2.16,1.75-4.43,3.44a125.71,125.71,0,0,0,21.34,18.58q4.18-2.76,8.07-5.73C158.11,402,143.48,383,136.29,363.59"/><path class="cls-5" d="M171.83,396.43s7.9-2.36,14-12.47l11,12.71-14.52,6.68S161,406.18,171.83,396.43Z"/><path class="cls-4" d="M171.83,396.43s7.9-2.36,14-12.47l11,12.71-14.52,6.68S161,406.18,171.83,396.43Z"/><path class="cls-9" d="M313.66,219.24c.32,51.83-59.66,68-59.66,68l-11.6-12.18C303.65,239.91,271.87,197,271.87,197c-.06-.72-5.54-8.84,7.37-18.28S313.51,194.75,313.66,219.24Z"/><polygon class="cls-9" points="253.43 264.2 267.59 282.2 254.15 292 239.48 276.26 253.43 264.2"/><line class="cls-17" x1="79.18" y1="401.5" x2="269.84" y2="280.33"/><path class="cls-5" d="M260,288.07l.69-16.28s8.47-2.31,21-26.13l31.06,7.27S286.43,272.12,260,288.07Z"/><path class="cls-18" d="M148.23,204.34s-4.63,16.18-12.54,21.21c0,0-7.46-3.75-12-24.69l15.85-8S142.8,200.07,148.23,204.34Z"/><path class="cls-13" d="M123.85,201.14s-2.71-30.68,16-45.68,25.36-1.6,16.06,3.75-11,5.41-15.86,11c0,0,12.84.77,12.11,8.18-.47,4.75-5.55,5.1-5.55,5.1s4.77,1.66,3.52,6.6c-1.41,5.59-8,5.49-12.1,3.9C138,194,136,204.76,123.85,201.14Z"/><path class="cls-14" d="M138.44,187.86c-6.25-3.85-9.07-11.88-8.68-19.54-7.47,15.1-5.91,32.82-5.91,32.82,7.94,2.37,11.56-1.44,13.12-4.36C138.07,193.86,139.15,191,138.44,187.86Z"/><polygon class="cls-5" points="186.51 327.97 152.1 349.65 148 338.69 176.33 311.81 186.51 327.97"/><polygon class="cls-5" points="326.19 351.8 279.07 351.8 277.07 295.78 328.19 295.78 326.19 351.8"/><path class="cls-4" d="M301.71,344.16c-12.28.53-20-14.46-23.87-26.83l1.23,34.47h47.12l1.43-40.27C324.91,324.36,322.21,343,301.71,344.16Z"/><rect class="cls-6" x="284.96" y="291.35" width="14.89" height="4.43"/><rect class="cls-6" x="289.67" y="286.93" width="4.43" height="4.43"/><polygon class="cls-6" points="323.89 315.85 282.83 317.87 280.96 300.04 324.32 299.81 323.89 315.85"/><path class="cls-6" d="M41.58,389.39c-23,0-41.58,5.34-41.58,11.94s18.62,11.94,41.58,11.94,41.59-5.35,41.59-11.94S64.55,389.39,41.58,389.39Zm0,16.53c-16.75,0-30.33-3.06-30.33-6.83s13.58-6.82,30.33-6.82,30.34,3.06,30.34,6.82S58.34,405.92,41.58,405.92Z"/><path class="cls-2" d="M300.54,243.66a50.29,50.29,0,0,1-15.36-2.31c-12.45-4-21.18-12.93-25.27-25.89-8-25.32,9.63-45.77,20.06-53l8.52,5.48c-1,.69-26.8,20-19,44.56,3.11,9.86,9.43,16.37,18.77,19.37,13.55,4.34,29.1-.08,34-3.76l6,8C323.19,239.85,312.46,243.66,300.54,243.66Z"/><path class="cls-19" d="M307.07,289.76h0a2.57,2.57,0,0,1,2.57,2.57v3.45a0,0,0,0,1,0,0H304.5a0,0,0,0,1,0,0v-3.45a2.57,2.57,0,0,1,2.57-2.57Z"/><path class="cls-20" d="M314.54,289.76h0a2.57,2.57,0,0,1,2.57,2.57v3.45a0,0,0,0,1,0,0H312a0,0,0,0,1,0,0v-3.45A2.57,2.57,0,0,1,314.54,289.76Z"/><path class="cls-21" d="M235.76,129.08s3.56,112.43-20.35,113.43-20.95-69.43-20.95-69.43"/><ellipse class="cls-7" cx="236.08" cy="129.89" rx="4.32" ry="6.53"/><path class="cls-22" d="M215.41,242.51s2.75,87.95,32.74,85.46S266.77,289.58,278,279.7c13.85-12.15,14,7.38,14,7.38"/><rect class="cls-23" x="347.24" y="245" width="9.77" height="40.92" transform="translate(-50.75 86.14) rotate(-13.02)"/><path class="cls-24" d="M340,212.57c-9.26,2.14-15.34,10.05-13.63,17.7l5.42,19,31.7-7.33L360,222.49C358.2,214.87,349.26,210.43,340,212.57Z"/><path class="cls-25" d="M340.84,216.19c-8.24,1.91-13.66,8.95-12.14,15.76l4.83,16.91,28.22-6.53L358.66,225C357,218.24,349.08,214.29,340.84,216.19Z"/><polygon class="cls-25" points="355.31 252.18 343.64 254.88 342.76 246.63 352.48 244.38 355.31 252.18"/><polygon class="cls-26" points="351.08 244.8 343.62 228.66 343.99 246.44 351.08 244.8"/><rect class="cls-24" x="350.88" y="280.06" width="11.98" height="10.92" transform="translate(-55.14 87.72) rotate(-13.02)"/><path class="cls-24" d="M369.47,288.2l-22.75,5.26a3.13,3.13,0,0,0-2.34,3.75l2.91,12.59a3.13,3.13,0,0,0,3.75,2.34l22.75-5.26a3.13,3.13,0,0,0,2.34-3.75l-2.91-12.59A3.14,3.14,0,0,0,369.47,288.2Zm1.8,12.49a3.12,3.12,0,0,1-2.34,3.74l-14.6,3.38a3.12,3.12,0,0,1-3.74-2.34l-1.35-5.81a3.13,3.13,0,0,1,2.34-3.75l14.6-3.37a3.11,3.11,0,0,1,3.74,2.34Z"/><path class="cls-2" d="M337.83,258s12.7.91,21.57-5.93l1.88,7.6s-5.22,7.6-21.56,10Z"/><path class="cls-27" d="M137.09,196.78a20.16,20.16,0,0,0,1.17-4.45,18.57,18.57,0,0,0,.09-4.53h0a.35.35,0,0,1,.32-.4.36.36,0,0,1,.3.11,7.65,7.65,0,0,0,2.61,1.79,8.22,8.22,0,0,0,3.2.57,6.33,6.33,0,0,1-3.37-.09,6.79,6.79,0,0,1-3-1.76l.63-.3a13.92,13.92,0,0,1-.19,4.73A13,13,0,0,1,137.09,196.78Z"/><path class="cls-3" d="M244.33,146.93s4.85,10.74-5.69,20l6.81,4.44s10.72-3.63,10.18-19.57Z"/><path class="cls-28" d="M262.28,159.46,255,167.9l25.44,14.39a26.85,26.85,0,0,1,9.2-7.59S277.73,164.42,262.28,159.46Z"/><path class="cls-29" d="M187.83,130.23l.84,4.87,11.78-.06.78-5.38s-3.06-2.81-13.67.57"/><path class="cls-27" d="M183.85,120.67c-1.16,2.16-2.4,4.27-3.62,6.39s-2.51,4.2-3.8,6.28l-.9-1.19a79.57,79.57,0,0,1,10.28-2.88c1.75-.37,3.5-.71,5.27-1a42.4,42.4,0,0,1,5.39-.54,11.48,11.48,0,0,1,5.51,1.31,26.57,26.57,0,0,1,4.44,3.17c2.7,2.31,5.2,5.2,6.15,8.66a20.79,20.79,0,0,0-7-7.64,26.8,26.8,0,0,0-4.37-2.69,9.68,9.68,0,0,0-4.74-.92,47,47,0,0,0-5.13.6c-1.72.28-3.45.57-5.16.91q-5.15,1-10.2,2.47l0,0a.8.8,0,0,1-1-.54.83.83,0,0,1,.12-.67c1.4-2,2.84-4,4.28-6S182.31,122.58,183.85,120.67Z"/><path class="cls-2" d="M223.61,121.17s-4.44,40.72-29.44,47.7v6.67s32.41,7.33,31.81-52.18Z"/><path class="cls-7" d="M257.94,101.06c0-15.6-11.36-28.25-25.38-28.25s-17.42,12.65-17.42,28.25,3.4,28.25,17.42,28.25S257.94,116.66,257.94,101.06Z"/><path class="cls-2" d="M252.23,96.62c0-13-9.48-23.55-21.17-23.55s-14.53,10.54-14.53,23.55,2.84,23.55,14.53,23.55S252.23,109.63,252.23,96.62Z"/><circle class="cls-30" cx="296.64" cy="215.71" r="8.8"/><path class="cls-31" d="M306.84,206.52A12.87,12.87,0,0,0,283.41,212"/><polygon class="cls-5" points="245.54 295.78 226.72 272.44 220.71 277.41 237.83 299.47 245.54 295.78"/><path class="cls-13" d="M241.56,278.52s-4.33-6.13-8.31-6.4c-3.78-.26-7.9,2.95.71,8.73L226.89,283a4.37,4.37,0,0,0-2.47,6.76l6.57,9.29a4.38,4.38,0,0,0,6.84.39l13.92-10Z"/><path class="cls-14" d="M241.56,278.52a25,25,0,0,0-2.33-2.75c1.71,3.65,1.26,8.34,0,12.2a21.29,21.29,0,0,1-8.51,10.7l.29.41a4.38,4.38,0,0,0,6.84.39l13.92-10Z"/><path class="cls-2" d="M196.61,172.92c-1.5,3.85-8,4.91-14.56,2.36s-10.63-7.73-9.13-11.58,10.05-10.12,16.59-7.57S198.11,169.06,196.61,172.92Z"/><polygon class="cls-6" points="188.45 377.88 181.14 386.37 190.06 401.52 201.59 395.99 188.45 377.88"/></g></g></g></svg>