<svg xmlns="http://www.w3.org/2000/svg" viewBox="0 0 72.86 76.3"><defs><style>.cls-1{isolation:isolate;}.cls-2{fill:#ffed00;}.cls-3{fill:#3c3c3b;}.cls-4,.cls-5{fill:#c6c6c6;}.cls-4{mix-blend-mode:multiply;}</style></defs><title>mines-bomb</title><g class="cls-1"><g id="Layer_2" data-name="Layer 2"><g id="bomb"><polyline class="cls-2" points="0 17.23 13.89 18.14 7.24 25.78 16.82 20.39 18.68 28.5 21.25 18.98 26.08 22.89 23.05 14.89 30.19 6.5 23.19 10.99 21.98 0 19.5 10.81 11.19 0.06 16.6 12 7.65 8.01 14.81 14.33"/><rect class="cls-3" x="28.91" y="21.49" width="13.93" height="13.93" transform="translate(-9.01 19.39) rotate(-27)"/><rect class="cls-4" x="28.91" y="21.49" width="13.93" height="13.93" transform="translate(-9.01 19.39) rotate(-27)"/><path class="cls-5" d="M31.55,22.84,34,21.59A13.85,13.85,0,0,0,20.2,14a1.24,1.24,0,0,0-1.13,1.07h0a1.21,1.21,0,0,0,1.24,1.34C28.33,16.23,31.18,22,31.55,22.84Z"/><circle class="cls-3" cx="47.15" cy="50.58" r="25.72"/><path class="cls-4" d="M66.5,33.66a25.71,25.71,0,0,1-42,29,25.71,25.71,0,1,0,42.05-29Z"/></g></g></g></svg>