<svg xmlns="http://www.w3.org/2000/svg" viewBox="0 0 344.68 350.22"><defs><style>.cls-1{fill:#73736d;}.cls-2{fill:#60605a;}.cls-3{fill:#505048;}.cls-4{fill:#2a252b;}.cls-5{fill:#f7931a;}.cls-6{fill:#3c3c3b;}.cls-22,.cls-27,.cls-7{fill:none;stroke:#3c3c3b;stroke-miterlimit:10;}.cls-7{stroke-width:4px;}.cls-8{fill:#cc0014;}.cls-9{fill:#541622;}.cls-10{fill:#7c2c3f;}.cls-11{fill:#3f101a;}.cls-12{fill:#702a34;}.cls-13{fill:#9d9d9c;}.cls-14{fill:#c6c6c6;}.cls-15{fill:#dadada;}.cls-16{fill:#b2b2b2;}.cls-17{fill:#ededed;}.cls-18{fill:#1d1d1b;}.cls-19{fill:#e30613;}.cls-20{fill:#f39200;}.cls-21{fill:#ffed00;}.cls-22{stroke-linecap:round;stroke-width:2px;}.cls-23{fill:#889aa0;}.cls-24{fill:#cfd7d9;}.cls-25{fill:#e7ebec;}.cls-26{fill:#b8c2c6;}.cls-27{stroke-width:3.49px;}.cls-28{fill:#b66e00;}.cls-29{fill:#ffb600;}.cls-30{fill:#ffde00;}.cls-31{fill:#ffeb66;}</style></defs><title>mines-tnt</title><g id="Layer_2" data-name="Layer 2"><g id="bomb"><rect class="cls-1" x="201.27" y="48.2" width="134.68" height="196.7"/><rect class="cls-2" x="201.27" y="48.2" width="68.16" height="196.7"/><rect class="cls-3" x="192.81" y="43.48" width="151.87" height="9.43" rx="4.5"/><rect class="cls-3" x="192.81" y="239.77" width="151.87" height="9.43" rx="4.5"/><rect class="cls-3" x="201.27" y="105.07" width="134.68" height="2.98"/><rect class="cls-3" x="201.27" y="183.58" width="134.68" height="2.98"/><circle class="cls-4" cx="268.61" cy="146.55" r="33.08"/><circle class="cls-5" cx="268.61" cy="146.55" r="31.12"/><path class="cls-4" d="M282.88,121.29a29,29,0,0,0-28.54,0l14.27,25.26Z"/><path class="cls-4" d="M239.61,146.82a29,29,0,0,0,14.26,24.71l14.74-25Z"/><path class="cls-4" d="M297.61,146.82l-29-.27,14.74,25A28.94,28.94,0,0,0,297.61,146.82Z"/><circle class="cls-5" cx="268.61" cy="146.55" r="8.99"/><circle class="cls-4" cx="268.61" cy="146.55" r="6.36"/><path class="cls-6" d="M195.22,50.91s-9.51,9.69-7.44,40.94L197,96.47S191.39,79.75,195.22,50.91Z"/><path class="cls-7" d="M150.63,67.23s-.45-18-13.2-18c-18.65.05-12,31.75-12,31.75"/><path class="cls-7" d="M165.53,74.42s-.45-18-13.2-18c-18.65,0-12,31.75-12,31.75"/><path class="cls-7" d="M179.48,79.87s-.45-18-13.2-18c-18.65.05-12,31.75-12,31.75"/><polygon class="cls-8" points="156 77.25 143.44 77.25 143.44 62.06 156 67.31 156 77.25"/><polygon class="cls-8" points="171.79 84.1 159.24 84.1 159.24 68.92 171.79 74.16 171.79 84.1"/><polygon class="cls-8" points="186.93 90.66 174.38 90.66 174.38 75.48 186.93 80.72 186.93 90.66"/><path class="cls-9" d="M212.21,108.75h0L60.49,58v34.2L209.6,130.62a4.14,4.14,0,0,0,1.62.35c3.64,0,6.6-5,6.6-11.18C217.82,114.19,215.39,109.56,212.21,108.75Z"/><ellipse class="cls-10" cx="60.49" cy="75.08" rx="10.1" ry="17.1"/><path class="cls-11" d="M152.73,104.17c-1.07-5.61-2.35-11.15-3.47-16.73L107.64,73.75a23.65,23.65,0,0,1,2.75,11.4c0,8.75-3.89,15.95-8.9,17L155.17,116C154.17,112,153.46,108,152.73,104.17Z"/><path class="cls-12" d="M199.67,132.55h0L48,87.78V122l149.11,32.44a4.05,4.05,0,0,0,1.61.35c3.65,0,6.61-5,6.61-11.18C205.28,138,202.84,133.36,199.67,132.55Z"/><ellipse class="cls-10" cx="47.95" cy="104.88" rx="10.1" ry="17.1"/><path class="cls-9" d="M222.56,133.63h0L70.84,88.86v34.2L220,155.5a4.14,4.14,0,0,0,1.62.35c3.64,0,6.6-5,6.6-11.18C228.17,139.07,225.74,134.44,222.56,133.63Z"/><ellipse class="cls-10" cx="70.84" cy="105.96" rx="10.1" ry="17.1"/><path class="cls-11" d="M222.56,133.63h0L115.79,102.11c2.88,3,4.81,8.4,4.81,14.56,0,7.17-2.61,13.3-6.31,15.84L220,155.5a4.14,4.14,0,0,0,1.62.35c3.64,0,6.6-5,6.6-11.18C228.17,139.07,225.74,134.44,222.56,133.63Z"/><path class="cls-12" d="M185.86,158.6h0L31.09,117l-1.6,38.62,154.57,24.23a3.72,3.72,0,0,0,1.1.17c3.51,0,6.35-4.81,6.35-10.75C191.51,163.74,189,159.19,185.86,158.6Z"/><ellipse class="cls-10" cx="31.09" cy="136.42" rx="11.47" ry="19.41"/><path class="cls-12" d="M204.54,156.7h0L57.2,117.1l-1.52,36.77,147.14,23.07a3.84,3.84,0,0,0,1.06.16c3.33,0,6-4.58,6-10.23C209.92,161.6,207.56,157.26,204.54,156.7Z"/><ellipse class="cls-10" cx="57.2" cy="135.58" rx="10.91" ry="18.48"/><polygon class="cls-13" points="0 160.25 61.68 153.81 67.17 263.1 16.18 261.12 0 160.25"/><polygon class="cls-14" points="61.68 153.81 244.7 182.19 235.98 257 67.17 263.1 61.68 153.81"/><polygon class="cls-15" points="235.98 257 244.7 182.19 62.81 153.98 210.89 257.9 235.98 257"/><path class="cls-9" d="M237.45,159.49h0L83.11,118l-1.59,38.52,154.14,24.16a3.72,3.72,0,0,0,1.1.17c3.5,0,6.33-4.8,6.33-10.72C243.09,164.62,240.62,160.08,237.45,159.49Z"/><path class="cls-11" d="M81.91,147.12l-.39,9.41,154.14,24.16a3.72,3.72,0,0,0,1.1.17,5.27,5.27,0,0,0,4.2-2.7Z"/><path class="cls-10" d="M237.45,159.49h0L83.11,118,83,121.29l158.57,41.85C240.53,161.15,239.09,159.79,237.45,159.49Z"/><ellipse class="cls-10" cx="83.11" cy="137.37" rx="11.43" ry="19.36"/><polygon class="cls-16" points="119.73 71.54 126.4 129.64 138.78 132.97 130.56 60.09 119.73 71.54"/><polygon class="cls-17" points="130.56 60.09 196.57 88.43 205.84 150.99 138.78 132.97 130.56 60.09"/><path class="cls-18" d="M135.54,79.76l60.28,23.06,3.58,22.8-60.24-17.1C138.43,108.87,135.54,79.76,135.54,79.76Z"/><polygon class="cls-13" points="195.82 102.82 192.53 101.56 195.67 124.56 199.4 125.61 195.82 102.82"/><polygon class="cls-17" points="256.34 186.67 208.54 180.26 199.15 243.95 248.45 243.95 256.34 186.67"/><polygon class="cls-18" points="252.72 188.1 212.84 183.37 210.83 196.99 251.02 200.41 252.72 188.1"/><polygon class="cls-13" points="208.54 180.26 201.9 180.26 192.78 242.26 199.15 243.95 208.54 180.26"/><path class="cls-13" d="M218.92,213.22l-5.93-.34a1.78,1.78,0,0,1-1.65-2.06l1.1-6.86a1.79,1.79,0,0,1,1.9-1.49l5.95.45a1.79,1.79,0,0,1,1.62,2.07l-1.13,6.75A1.78,1.78,0,0,1,218.92,213.22Z"/><path class="cls-13" d="M231.39,214.08l-5.92-.34a1.78,1.78,0,0,1-1.66-2.06l1.11-6.86a1.78,1.78,0,0,1,1.89-1.49l5.95.45a1.79,1.79,0,0,1,1.62,2.07l-1.13,6.75A1.78,1.78,0,0,1,231.39,214.08Z"/><path class="cls-13" d="M243.87,214.94l-5.93-.34a1.78,1.78,0,0,1-1.65-2.06l1.1-6.86a1.78,1.78,0,0,1,1.89-1.49l5.95.45a1.77,1.77,0,0,1,1.62,2.07l-1.13,6.75A1.78,1.78,0,0,1,243.87,214.94Z"/><path class="cls-13" d="M217,226l-5.93-.27a1.77,1.77,0,0,1-1.68-2l1-6.87a1.77,1.77,0,0,1,1.87-1.52l6,.38a1.78,1.78,0,0,1,1.64,2.05l-1,6.76A1.79,1.79,0,0,1,217,226Z"/><path class="cls-13" d="M229.51,226.72l-5.93-.26a1.79,1.79,0,0,1-1.68-2l1-6.88a1.78,1.78,0,0,1,1.87-1.51l6,.38a1.78,1.78,0,0,1,1.65,2.05l-1.05,6.76A1.78,1.78,0,0,1,229.51,226.72Z"/><path class="cls-13" d="M242,227.43l-5.92-.27a1.78,1.78,0,0,1-1.69-2l1-6.87a1.78,1.78,0,0,1,1.88-1.52l5.95.38a1.78,1.78,0,0,1,1.65,2l-1,6.76A1.78,1.78,0,0,1,242,227.43Z"/><path class="cls-13" d="M215.49,239.11l-5.93-.12a1.78,1.78,0,0,1-1.73-2l.85-6.89a1.77,1.77,0,0,1,1.84-1.56l6,.23a1.78,1.78,0,0,1,1.7,2l-.88,6.78A1.79,1.79,0,0,1,215.49,239.11Z"/><path class="cls-13" d="M228,239.51l-5.93-.12a1.78,1.78,0,0,1-1.73-2l.85-6.9a1.78,1.78,0,0,1,1.83-1.56l6,.24a1.77,1.77,0,0,1,1.69,2l-.88,6.79A1.77,1.77,0,0,1,228,239.51Z"/><path class="cls-13" d="M240.49,239.9l-5.93-.11a1.79,1.79,0,0,1-1.74-2l.85-6.9a1.79,1.79,0,0,1,1.84-1.56l6,.23a1.78,1.78,0,0,1,1.7,2l-.88,6.78A1.78,1.78,0,0,1,240.49,239.9Z"/><ellipse class="cls-19" cx="154.58" cy="125.35" rx="4.65" ry="6.75"/><ellipse class="cls-20" cx="173.01" cy="130.14" rx="4.65" ry="6.75"/><ellipse class="cls-21" cx="191.51" cy="135.87" rx="4.65" ry="6.75"/><polygon class="cls-13" points="72.66 235.91 73.81 262.74 86.53 262.74 84.78 235.91 72.66 235.91"/><rect class="cls-13" x="71.68" y="200.17" width="19.67" height="28.1"/><path class="cls-22" d="M77.54,221.37h7.34a5.36,5.36,0,0,1,5.35,5.35v13.71"/><path class="cls-22" d="M77.73,214.81H90.36A8.21,8.21,0,0,1,98.57,223v17.41"/><path class="cls-22" d="M77.73,206.39H94.08a12.78,12.78,0,0,1,12.78,12.79V239.9"/><polygon class="cls-17" points="112.87 235.91 84.78 235.91 85.98 262.74 111.9 262.74 112.87 235.91"/><path class="cls-6" d="M173.84,196.71c0-8.34-8.89-15.68-22.92-17.51-12.9-1.68-23.56,3.76-23.56,12.09,0,6.73,2,13.42,16.4,17.37l-3.18,7.6,3.87.45,2.76-5.48-1.13,5.67,5.85.68,1.17-5.52.39,5.71,4.77.55-.38-7.44,1.34,7.55,5.73.67-4.48-9.93C170.47,206.43,173.84,203,173.84,196.71ZM136,188.25l14.85,7.39S139.16,210.09,136,188.25Zm19.38,7.55,11.82-4.17S167.38,210.33,155.42,195.8Z"/><path class="cls-6" d="M177.5,219.72a2.76,2.76,0,0,0,.91-2.09,2.3,2.3,0,1,0-4.55,0,2.86,2.86,0,0,0,.47,1.58c-15.26,8.07-37.34,12-43.21,12.95a1.94,1.94,0,0,0,0-.24,2.3,2.3,0,1,0-4.55,0,2.49,2.49,0,0,0,2.09,2.6,2.74,2.74,0,0,0-.91,2.08,2.3,2.3,0,1,0,4.56,0,2.77,2.77,0,0,0-.17-1c11.5-4,36.59-10.38,43.19-12a2.23,2.23,0,0,0,2,1.32,2.65,2.65,0,0,0,.18-5.21Z"/><path class="cls-6" d="M176.8,236.31a2.16,2.16,0,0,0,1.83-1.11,3,3,0,0,0-.85-3.77,2.21,2.21,0,0,0-3.35.61,2.75,2.75,0,0,0-.31,1.64c-17.89-3.8-40.08-15.84-46-19.08,0-.06.09-.11.13-.18a3,3,0,0,0-.85-3.77,2.21,2.21,0,0,0-3.35.61,3,3,0,0,0,.7,3.63A2.11,2.11,0,0,0,123,216a3,3,0,0,0,.85,3.77,2.2,2.2,0,0,0,3.34-.61,2.56,2.56,0,0,0,.31-.93c12.5,4.63,38.64,16.66,45.5,19.84a3,3,0,0,0,1.18,2.48,2.2,2.2,0,0,0,3.34-.62A3,3,0,0,0,176.8,236.31Z"/><path class="cls-6" d="M85.51,163.28l3.23.35.11,3.28-3.23-.35A6.81,6.81,0,0,0,80,168.35a7,7,0,0,0-2.18,5.55,9.19,9.19,0,0,0,2.56,6,9,9,0,0,0,5.79,3l3.23.35.11,3.28-3.24-.35a12.6,12.6,0,0,1-8.1-4.23,12.8,12.8,0,0,1-3.58-8.47,9.76,9.76,0,0,1,3.05-7.77A9.54,9.54,0,0,1,85.51,163.28Z"/><path class="cls-6" d="M90.9,168l2.62.29.35,10.64,5.24.56-.34-10.64,2.62.28.34,10.64,1.31.15.09,2.66-1.31-.15.17,5.33-2.62-.29-.18-5.32-7.86-.84Z"/><path class="cls-23" d="M232.55,11.63C249.15,25.8,254,47.37,243.39,59.8S202.9,80,186.3,65.8s-13.64-44.9-3-57.33S216-2.55,232.55,11.63Z"/><ellipse class="cls-24" cx="213.33" cy="34.14" rx="28.62" ry="38.22" transform="translate(48.84 174.21) rotate(-49.51)"/><path class="cls-25" d="M231.92,12.37c-16-13.71-37.39-15.07-47.65-3a21.26,21.26,0,0,0-1.78,2.4c11-3.76,25.76-.38,37.62,9.75,15,12.83,20.1,31.93,12.26,44.18a22.61,22.61,0,0,0,10-6.69C252.66,46.94,248,26.08,231.92,12.37Z"/><ellipse class="cls-26" cx="201.52" cy="47.97" rx="9.22" ry="17.05" transform="translate(34.18 170.08) rotate(-49.51)"/><ellipse class="cls-6" cx="213.67" cy="33.75" rx="2.4" ry="4.44" transform="translate(49.26 174.33) rotate(-49.51)"/><line class="cls-27" x1="213.67" y1="33.75" x2="201.52" y2="47.97"/><path class="cls-19" d="M147.79,94.92l.43,3.67-1.06.8-.44-.5-.58-5Zm-.36,10.16-.57-5,.35-.27,1.32,1.52L149,105Zm7.09,3.46-5.94-1.81a2.16,2.16,0,0,1-1.1-1.26l1.51-.1,4.76,1.44Zm-2-12.57-4.74-1.43-1.65-1.07a.73.73,0,0,1,.88-.66l5.92,1.79Zm.86,4.19-.47-4.07.42-1.37a2.25,2.25,0,0,1,1.1,1.27l.62,5.42-.35.27Zm1.37,1.9.44.51.62,5.42a.74.74,0,0,1-.88.67l-.77-1.73-.47-4.07Z"/><path class="cls-19" d="M158.1,98l.42,3.68-1.05.8L157,102l-.58-5Zm-.36,10.16-.58-5,.35-.27,1.32,1.52.42,3.68Zm7.09,3.46-6-1.8a2.25,2.25,0,0,1-1.1-1.27l1.52-.1,4.75,1.44Zm-2-12.56-4.74-1.44-1.65-1.06a.74.74,0,0,1,.88-.67l5.93,1.8Zm.86,4.18-.46-4.06.41-1.37a2.19,2.19,0,0,1,1.1,1.26l.63,5.42-.35.27Zm1.37,1.91.44.5.62,5.42a.73.73,0,0,1-.88.67l-.77-1.73L164,106Z"/><path class="cls-19" d="M168.71,103.87l-1.58-.48-.18-1.55,1.58.48Zm.71,6.19-1.58-.48-.18-1.54,1.59.48Z"/><path class="cls-19" d="M172,102.24l.42,3.68-1,.8-.44-.51-.58-5Zm-.36,10.17-.58-5,.35-.27,1.32,1.52.42,3.68Zm7.09,3.45-5.95-1.8a2.21,2.21,0,0,1-1.1-1.27l1.52-.1,4.75,1.44Zm-2-12.56-4.74-1.44-1.65-1.06a.73.73,0,0,1,.88-.66l5.93,1.79Zm.86,4.18-.46-4.06.41-1.37a2.18,2.18,0,0,1,1.1,1.27l.63,5.42-.35.26Zm1.37,1.91.44.51.62,5.42a.72.72,0,0,1-.88.66l-.77-1.73-.47-4.06Z"/><path class="cls-19" d="M182.27,105.37l.42,3.68-1.05.8-.44-.51-.58-5ZM189,119l-5.94-1.81a2.16,2.16,0,0,1-1.1-1.26l1.51-.1,4.76,1.44Zm-2-12.57L182.25,105l-1.65-1.06a.73.73,0,0,1,.88-.67l5.92,1.79Zm.93,4.77.88,1-.7.53-5.15-1.56-.88-1,.7-.53Zm-.06-.58-.47-4.07.42-1.36a2.2,2.2,0,0,1,1.1,1.26l.62,5.42-.35.27Zm1.36,1.9.44.51.63,5.42a.74.74,0,0,1-.88.67l-.77-1.73-.47-4.07Z"/><path class="cls-20" d="M271.07,277.24c-3.25-.49-7.63.5-12.45.5s-9.19-1-12.44-.5L240.46,276v4.65c0,1.59,8.13,2.89,18.16,2.89s18.17-1.3,18.17-2.89V276Z"/><path class="cls-28" d="M240.94,276v5.29a4.48,4.48,0,0,0,.63.34v-5.26Z"/><path class="cls-28" d="M243.47,275.94v6.29l.85.19v-6.48Z"/><path class="cls-28" d="M275.71,276.61v5a3.4,3.4,0,0,0,.64-.35v-4.89Z"/><path class="cls-28" d="M273,276.58v5.83c.3-.06.58-.12.84-.19v-5.64Z"/><path class="cls-28" d="M246.51,276.37v6.42l1.09.15v-6.57Z"/><path class="cls-28" d="M250.13,277.37v5.83l1.09.08v-5.91Z"/><path class="cls-28" d="M254.12,277.37v6.07l1.08,0v-6.11Z"/><path class="cls-28" d="M258.1,277.37v6.16h1.08v-6.16Z"/><path class="cls-28" d="M262.08,278.37v5.11l1.08,0v-5.07Z"/><path class="cls-28" d="M266.06,277.37v5.91l1.09-.09v-5.82Z"/><path class="cls-28" d="M269.68,277.37v5.56l1.09-.14v-5.42Z"/><ellipse class="cls-29" cx="258.62" cy="275.99" rx="18.17" ry="2.9"/><ellipse class="cls-30" cx="258.62" cy="276.25" rx="16.49" ry="2.63"/><path class="cls-31" d="M258.62,273.63c-.94,0-1.87,0-2.78,0l-9.69,4.3a73.47,73.47,0,0,0,12.47.91h1.06l10.21-4.54A80,80,0,0,0,258.62,273.63Z"/><path class="cls-20" d="M267.1,275.74c.38-.4-1.57-.62-4.23-.76l.87-.54-2.11-.08-.84.52-1.69-.06.85-.53-2.11-.08-.87.54-1.34-.05h0l-2.91-.11-.56.35s1.57.05,1.53.06c.86,0,1,.12,1,.19l-2.37,1.48a2.54,2.54,0,0,1-1,.07l-1.54-.06-1,.38,2.74.11,1.5.06-.87.54,2.11.08.86-.54,1.68.07-.86.54L258,278l.87-.54c3.59.1,6.3.06,7.43-.45.92-.4,0-.64-1.93-.79a5.45,5.45,0,0,0,2.69-.48Zm-4.82,1.05c-.65.4-5.06.18-6.49.13l1.16-.72c1.43.05,6,.16,5.33.59Zm.65-1.06c-.59.37-4.26.18-5.45.14l1-.66C259.72,275.26,263.55,275.34,262.93,275.73Z"/><path class="cls-20" d="M218.74,266.28c-2.07-.31-4.85.32-7.91.32s-5.84-.63-7.9-.32l-3.64-.8v3c0,1,5.17,1.84,11.54,1.84s11.54-.83,11.54-1.84v-3Z"/><path class="cls-28" d="M199.6,265.5v3.36a2.43,2.43,0,0,0,.4.21v-3.33Z"/><path class="cls-28" d="M201.21,265.46v4l.53.12v-4.11Z"/><path class="cls-28" d="M221.69,265.88v3.18a2.11,2.11,0,0,0,.4-.22v-3.1Z"/><path class="cls-28" d="M219.94,265.86v3.71l.54-.12v-3.59Z"/><path class="cls-28" d="M203.14,265.73v4.08l.69.09v-4.17Z"/><path class="cls-28" d="M205.44,266.36v3.7l.69.06v-3.76Z"/><path class="cls-28" d="M208,266.36v3.86l.69,0v-3.88Z"/><path class="cls-28" d="M210.5,266.36v3.92h.69v-3.92Z"/><path class="cls-28" d="M213,267v3.24l.69,0V267Z"/><path class="cls-28" d="M215.55,266.36v3.76l.69-.06v-3.7Z"/><path class="cls-28" d="M217.85,266.36v3.54l.69-.09v-3.45Z"/><ellipse class="cls-29" cx="210.83" cy="265.48" rx="11.54" ry="1.84"/><ellipse class="cls-30" cx="210.83" cy="265.65" rx="10.47" ry="1.67"/><path class="cls-31" d="M210.83,264c-.6,0-1.19,0-1.77,0l-6.15,2.74a47.34,47.34,0,0,0,7.92.57h.67l6.49-2.88A50.71,50.71,0,0,0,210.83,264Z"/><path class="cls-20" d="M216.21,265.33c.25-.26-1-.39-2.68-.48l.55-.35-1.34-.05-.53.33-1.08,0,.54-.34-1.34-.05-.55.34-.85,0h0l-1.85-.07-.35.22s1,0,1,0c.54,0,.64.07.62.12l-1.5.94a1.91,1.91,0,0,1-.61.05l-1,0-.66.24,1.74.06,1,0-.56.35,1.34.05.55-.34,1.07,0-.55.34,1.34.05.55-.34a14.63,14.63,0,0,0,4.72-.28c.59-.26,0-.41-1.23-.51a3.46,3.46,0,0,0,1.71-.3Zm-3.06.66c-.41.26-3.21.12-4.12.09l.74-.46c.91,0,3.82.1,3.39.37Zm.42-.67a14.32,14.32,0,0,1-3.47.09l.67-.42C211.53,265,214,265.08,213.57,265.32Z"/><path class="cls-20" d="M325.76,262.05c-2.06-.3-4.84.33-7.9.33s-5.84-.63-7.91-.33l-3.63-.79v3c0,1,5.16,1.83,11.54,1.83s11.54-.82,11.54-1.83v-3Z"/><path class="cls-28" d="M306.62,261.28v3.35a2.11,2.11,0,0,0,.4.22v-3.34Z"/><path class="cls-28" d="M308.23,261.23v4l.54.12v-4.12Z"/><path class="cls-28" d="M328.71,261.66v3.18a1.94,1.94,0,0,0,.41-.22v-3.11Z"/><path class="cls-28" d="M327,261.64v3.7l.54-.12v-3.58Z"/><path class="cls-28" d="M310.17,261.51v4.08l.69.09v-4.17Z"/><path class="cls-28" d="M312.46,262.14v3.7l.69.05v-3.75Z"/><path class="cls-28" d="M315,262.14V266l.69,0v-3.88Z"/><path class="cls-28" d="M317.52,262.14v3.91h.69v-3.91Z"/><path class="cls-28" d="M320.05,262.78V266l.69,0v-3.22Z"/><path class="cls-28" d="M322.58,262.14v3.75l.69-.05v-3.7Z"/><path class="cls-28" d="M324.88,262.14v3.53c.24,0,.47-.06.69-.09v-3.44Z"/><ellipse class="cls-29" cx="317.86" cy="261.26" rx="11.54" ry="1.84"/><ellipse class="cls-30" cx="317.86" cy="261.43" rx="10.47" ry="1.67"/><path class="cls-31" d="M317.86,259.76q-.9,0-1.77,0l-6.16,2.73a46.27,46.27,0,0,0,7.93.58h.67l6.49-2.89A50.81,50.81,0,0,0,317.86,259.76Z"/><path class="cls-20" d="M323.24,261.1c.24-.25-1-.39-2.68-.48l.54-.34-1.33,0-.54.33-1.07,0,.54-.33-1.34-.06-.55.35-.85,0h0l-1.85-.07-.36.23,1,0c.54,0,.64.08.62.12l-1.5.94a1.51,1.51,0,0,1-.62.05l-1,0-.66.24,1.74.07,1,0-.55.35,1.34.05.55-.34,1.06,0-.54.34,1.33.05.56-.34a14.56,14.56,0,0,0,4.72-.29c.58-.25,0-.4-1.23-.5a3.34,3.34,0,0,0,1.71-.31Zm-3.06.67c-.41.26-3.21.12-4.12.08l.74-.46c.9,0,3.81.11,3.38.38Zm.41-.67a14.79,14.79,0,0,1-3.46.08l.67-.41C318.55,260.8,321,260.85,320.59,261.1Z"/><path class="cls-20" d="M184.38,294.53c4-.6,9.45.63,15.42.63s11.39-1.23,15.41-.63l7.1-1.54v5.76c0,2-10.08,3.59-22.51,3.59s-22.51-1.61-22.51-3.59V293Z"/><path class="cls-28" d="M221.71,293v6.55a5.5,5.5,0,0,1-.78.42v-6.51Z"/><path class="cls-28" d="M218.57,292.93v7.8l-1,.23v-8Z"/><path class="cls-28" d="M178.62,293.76V300a4.62,4.62,0,0,1-.78-.43v-6.06Z"/><path class="cls-28" d="M182,293.73V301l-1-.23v-7Z"/><path class="cls-28" d="M214.8,293.46v8l-1.34.18v-8.14Z"/><path class="cls-28" d="M210.32,294.7v7.22L209,302V294.7Z"/><path class="cls-28" d="M205.38,294.7v7.52l-1.34,0V294.7Z"/><path class="cls-28" d="M200.45,294.7v7.63h-1.34V294.7Z"/><path class="cls-28" d="M195.52,295.94v6.33l-1.35,0v-6.28Z"/><path class="cls-28" d="M190.59,294.7V302l-1.35-.1V294.7Z"/><path class="cls-28" d="M186.1,294.7v6.89l-1.34-.17V294.7Z"/><ellipse class="cls-29" cx="199.8" cy="292.99" rx="22.51" ry="3.59"/><ellipse class="cls-30" cx="199.8" cy="293.32" rx="20.43" ry="3.25"/><path class="cls-31" d="M199.8,290.06c1.17,0,2.32,0,3.44.05l12,5.34a91.53,91.53,0,0,1-15.45,1.12h-1.31l-12.65-5.63A99.76,99.76,0,0,1,199.8,290.06Z"/><path class="cls-20" d="M189.3,292.68c.34.36,1.63.53,3.33.59-2.34.19-3.53.49-2.39,1,1.4.63,4.75.68,9.21.55l1.08.67,2.61-.1-1.07-.66,2.08-.09,1.07.67,2.61-.1-1.08-.68,1.86-.07,3.4-.13-1.3-.47-1.89.08a3.48,3.48,0,0,1-1.2-.1L204.69,292c0-.09.16-.2,1.22-.24l1.89-.07-.69-.44-3.6.14h0l-1.67.06-1.07-.67-2.61.1,1.05.66-2.09.07-1-.65-2.62.1,1.07.67c-3.29.18-5.7.44-5.23.94Zm6,1.3c-.85-.53,4.83-.66,6.6-.73l1.43.89c-1.77.07-7.23.34-8-.16Zm4.64-2,1.31.81c-1.48.06-6,.29-6.76-.17S198.44,292.08,199.91,292Z"/><path class="cls-20" d="M231.57,336.26c7.22-1.09,16.93,1.12,27.61,1.12s20.4-2.21,27.61-1.12l12.7-2.77V343.8c0,3.55-18,6.42-40.31,6.42s-40.31-2.87-40.31-6.42V333.49Z"/><path class="cls-28" d="M298.43,333.54v11.73A8.3,8.3,0,0,1,297,346V334.37Z"/><path class="cls-28" d="M292.8,333.39v13.95c-.59.15-1.21.28-1.87.42V333.39Z"/><path class="cls-28" d="M221.27,334.87V346a7.55,7.55,0,0,1-1.41-.78V334.36Z"/><path class="cls-28" d="M227.36,334.81v12.93c-.66-.13-1.29-.27-1.88-.41V334.81Z"/><path class="cls-28" d="M286.05,334.34v14.25l-2.41.32V334.34Z"/><path class="cls-28" d="M278,336.56v12.92l-2.41.19V336.56Z"/><path class="cls-28" d="M269.19,336.56V350c-.8,0-1.6.06-2.41.09V336.56Z"/><path class="cls-28" d="M260.35,336.56v13.66h-2.41V336.56Z"/><path class="cls-28" d="M251.52,338.78v11.33l-2.41-.09V338.78Z"/><path class="cls-28" d="M242.69,336.56v13.1l-2.41-.19V336.56Z"/><path class="cls-28" d="M234.66,336.56V348.9c-.83-.1-1.64-.21-2.41-.32v-12Z"/><ellipse class="cls-29" cx="259.18" cy="333.49" rx="40.31" ry="6.42"/><ellipse class="cls-30" cx="259.18" cy="334.08" rx="36.58" ry="5.83"/><path class="cls-31" d="M259.18,328.25q3.17,0,6.18.09l21.5,9.55a163.41,163.41,0,0,1-27.68,2h-2.34l-22.66-10.07A176.67,176.67,0,0,1,259.18,328.25Z"/><path class="cls-20" d="M240.39,332.93c.61.65,2.91,1,6,1.07-4.2.34-6.33.86-4.3,1.77,2.52,1.12,8.52,1.21,16.49,1l1.94,1.21,4.68-.19-1.91-1.19,3.72-.15,1.92,1.2,4.67-.18-1.94-1.21,3.34-.14,6.08-.23-2.32-.84-3.4.14a5.78,5.78,0,0,1-2.14-.18l-5.25-3.28c-.06-.15.29-.35,2.18-.42-.07,0,3.4-.13,3.4-.13l-1.25-.78-6.45.25h0l-3,.11-1.91-1.2-4.68.18,1.88,1.17-3.74.14-1.87-1.16-4.68.18,1.92,1.19c-5.9.32-10.22.8-9.38,1.68Zm10.68,2.33c-1.51-.94,8.66-1.18,11.83-1.31l2.56,1.61c-3.17.12-12.94.61-14.39-.3Zm8.32-3.5,2.33,1.46c-2.64.1-10.78.52-12.1-.3S256.75,331.87,259.39,331.76Z"/><path class="cls-20" d="M124.62,314.11c-7.21-1.09-16.92,1.12-27.61,1.12s-20.39-2.21-27.6-1.12L56.7,311.34v10.31c0,3.55,18,6.42,40.31,6.42s40.32-2.87,40.32-6.42V311.34Z"/><path class="cls-28" d="M57.77,311.39v11.73a7.93,7.93,0,0,0,1.41.75V312.22Z"/><path class="cls-28" d="M63.39,311.24v13.95c.59.15,1.22.28,1.88.42V311.24Z"/><path class="cls-28" d="M134.93,312.72v11.12a8.06,8.06,0,0,0,1.4-.77V312.22Z"/><path class="cls-28" d="M128.84,312.66v12.93c.66-.13,1.28-.27,1.87-.41V312.66Z"/><path class="cls-28" d="M70.15,312.19v14.25c.77.11,1.58.22,2.41.32V312.19Z"/><path class="cls-28" d="M78.18,314.41v12.92l2.41.19V314.41Z"/><path class="cls-28" d="M87,314.41v13.47l2.41.08V314.41Z"/><path class="cls-28" d="M95.84,314.41v13.66h2.41V314.41Z"/><path class="cls-28" d="M104.68,316.63V328c.81,0,1.61,0,2.41-.09V316.63Z"/><path class="cls-28" d="M113.51,314.41v13.1l2.41-.19V314.41Z"/><path class="cls-28" d="M121.54,314.41v12.34c.83-.1,1.63-.21,2.41-.32v-12Z"/><ellipse class="cls-29" cx="97.01" cy="311.34" rx="40.31" ry="6.42"/><ellipse class="cls-30" cx="97.01" cy="311.93" rx="36.58" ry="5.83"/><path class="cls-31" d="M97,306.1q-3.15,0-6.17.09l-21.5,9.55a163.28,163.28,0,0,0,27.67,2h2.34L122,307.68A176.57,176.57,0,0,0,97,306.1Z"/><path class="cls-20" d="M115.81,310.78c.85-.88-3.47-1.36-9.37-1.68l1.91-1.19-4.67-.18-1.87,1.16-3.74-.14,1.87-1.17-4.67-.18-1.92,1.2-3-.11h0l-6.45-.25-1.24.78s3.47.12,3.4.13c1.89.07,2.23.27,2.18.42L83,312.84a5.78,5.78,0,0,1-2.14.18l-3.4-.14-2.32.84,6.08.23,3.33.14-1.93,1.21,4.67.18,1.92-1.2,3.72.15L91,315.62l4.68.19,1.93-1.21c8,.23,14,.14,16.5-1,2-.91-.1-1.43-4.3-1.77,3.06-.11,5.36-.42,6-1.07Zm-10.68,2.33c-1.45.91-11.22.42-14.4.3l2.57-1.61c3.17.13,13.34.37,11.83,1.31Zm1.44-2.34c-1.32.82-9.45.4-12.09.3l2.32-1.46C99.44,309.72,108,309.91,106.57,310.77Z"/></g></g></svg>