<svg xmlns="http://www.w3.org/2000/svg" viewBox="0 0 81.47 83.98"><defs><style>.cls-1{fill:#e94e1b;}.cls-2{fill:#f39200;}.cls-3{fill:#fefd02;}</style></defs><title>mines-boom</title><g id="Layer_2" data-name="Layer 2"><g id="bang"><polygon class="cls-1" points="48.11 30.5 66.89 6.98 56.56 36.97 72.87 36.04 56.95 47.22 81.47 57.17 53.74 56.02 68.88 76.84 47.16 64.64 45.07 83.98 37.31 64.84 27.89 73.87 29.09 59.66 7.51 67.03 21.82 53.04 3.09 47.56 22.13 41.84 0 26.25 28.2 32.98 24.71 13.51 38.76 30.94 39.1 0 48.11 30.5"/><polygon class="cls-2" points="38.63 58.77 32.17 64.96 33.04 54.67 20.88 58.82 28.48 51.39 15.22 47.51 29.93 43.1 16.7 33.78 32.59 37.57 30.58 26.34 40.07 36.9 42.36 23.41 45.43 39.44 56.05 27.33 50.25 41.92 60.98 40.16 52.44 47.46 63.9 53.33 50.98 54.87 56.72 66.04 44.24 59.03 43.08 69.75 38.63 58.77"/><polygon class="cls-3" points="39.51 54.72 35.02 59.02 35.67 51.34 29.79 53.35 32.91 50.3 23.3 47.48 35.13 43.94 27.84 38.8 35.52 40.63 34.33 33.98 41.57 42.04 42.49 36.57 44.02 44.56 48.9 39.01 46.57 44.85 53.2 43.76 48.32 47.94 56.13 51.94 47.4 52.98 51.13 60.25 42.29 55.28 41.75 60.26 39.51 54.72"/></g></g></svg>