<svg xmlns="http://www.w3.org/2000/svg" viewBox="0 0 135.44 1403.97"><defs><style>.cls-1{isolation:isolate;}.cls-2{fill:#4c2808;}.cls-3{fill:#683c11;}.cls-4{fill:#5f0b11;}.cls-5{fill:#be1622;}.cls-6{fill:#c2bdba;}.cls-7{fill:#333;}.cls-39,.cls-8{fill:#c6c6c6;}.cls-8{mix-blend-mode:multiply;}.cls-9{fill:#db988d;}.cls-10{fill:#a4aeb7;}.cls-11{fill:#2d2d2c;}.cls-12{fill:#432918;}.cls-13{fill:#1d71b8;}.cls-14,.cls-50,.cls-51,.cls-79,.cls-80,.cls-81,.cls-82,.cls-83,.cls-84,.cls-85,.cls-91,.cls-93{fill:none;}.cls-14,.cls-80,.cls-82,.cls-84{stroke:#99918c;}.cls-14,.cls-50,.cls-51,.cls-79,.cls-80,.cls-81,.cls-82,.cls-83,.cls-84,.cls-85,.cls-93{stroke-miterlimit:10;}.cls-14{stroke-width:1.16px;}.cls-15{fill:#99918c;}.cls-16{fill:#ea5324;}.cls-17{fill:#f58120;}.cls-18{fill:#fedc0e;}.cls-19{fill:#fefce7;}.cls-20{fill:#22150c;}.cls-21{fill:#3c3c3b;}.cls-22{fill:#fff;}.cls-23{fill:#f7c0b4;}.cls-24{fill:#16558a;}.cls-25{fill:#c4c4c4;}.cls-26{fill:#8f101a;}.cls-27{fill:#004760;}.cls-28{fill:#005072;}.cls-29{fill:#07a;}.cls-30{fill:#ccecf9;}.cls-31{fill:#99d9f4;}.cls-32{fill:#3f4629;}.cls-33{fill:#5f693d;}.cls-34{fill:#7d591a;}.cls-35{fill:#634e42;}.cls-36{fill:#f9b233;}.cls-37{fill:#3e302d;}.cls-38{fill:#d38b18;}.cls-40{fill:#dbe8f4;}.cls-41{fill:#a1a1a1;}.cls-42{fill:#b66e00;}.cls-43{fill:#575756;}.cls-44{fill:#706f6f;}.cls-45{fill:#f39200;}.cls-46{fill:#1a1a1a;}.cls-47{fill:#828282;}.cls-48{fill:#113352;}.cls-49{fill:#0c293f;}.cls-50{stroke:#77aad4;}.cls-50,.cls-51{stroke-width:0.9px;}.cls-51{stroke:#1d71b8;}.cls-52{fill:#3371bf;}.cls-53{fill:#4496ff;}.cls-54{fill:#003c56;}.cls-55{fill:#7e8c51;}.cls-56{fill:#ededed;}.cls-57{fill:#1d1d1b;}.cls-58{fill:#7c605a;}.cls-59{fill:#e30613;}.cls-60{fill:#77aad4;}.cls-61{fill:#d39288;}.cls-62{fill:#666;}.cls-63{fill:#0b0b0b;}.cls-64{fill:#a6a6a6;}.cls-65{fill:#878787;}.cls-66{fill:#cc8a7f;opacity:0.5;}.cls-67{fill:#5d4844;}.cls-68{fill:#0f395c;}.cls-69{fill:#4a8dc6;}.cls-70{fill:#404040;}.cls-71{fill:#505050;}.cls-72{fill:#3392bb;}.cls-73{fill:#d17700;}.cls-74{fill:#e1e1e1;}.cls-75{fill:#5b3700;}.cls-76{fill:#6a6a6a;}.cls-77{fill:#824d1d;}.cls-78{fill:#321f12;}.cls-79,.cls-81,.cls-83,.cls-85{stroke:#7a736d;}.cls-79{stroke-width:1.5px;}.cls-80{stroke-width:1.37px;}.cls-81{stroke-width:1.29px;}.cls-82{stroke-width:1.18px;}.cls-83{stroke-width:1.47px;}.cls-84{stroke-width:1.34px;}.cls-85{stroke-width:1.27px;}.cls-86{fill:#1d4868;}.cls-87{fill:#353535;}.cls-88{fill:#e5a89e;}.cls-89{fill:#ac7e77;}.cls-90{fill:#844d1a;}.cls-92{fill:#390205;}.cls-93{stroke:#fcb016;stroke-width:3px;}.cls-94{fill:#feda6b;}.cls-95{fill:#db9b1a;}.cls-96{fill:#fff1c3;}.cls-97{fill:#fdc33c;}.cls-98{fill:#fee491;}.cls-99{fill:#8e4c21;}.cls-100{fill:#fcb016;}</style></defs><title>bonuses-side-illustration</title><g class="cls-1"><g id="Layer_2" data-name="Layer 2"><g id="trophy"><path class="cls-2" d="M10.36,382.55A16.34,16.34,0,0,0,.64,393.39a13.77,13.77,0,0,0-.06,8.09c1.26,3.81,4.5,6.6,7.82,8.86,2.36,1.6,5,3.28,5.86,6,.69,2.25,0,4.66-.66,6.93s-1.16,4.78-.14,6.9c1.2,2.52,4.19,3.63,7,4a22.69,22.69,0,0,0,7.62-.3c-2-.83-4.18-2.15-4.7-4.3A5.86,5.86,0,0,1,24.42,425a40.74,40.74,0,0,1,3.1-3.63,22.42,22.42,0,0,0,5-11.55,29.76,29.76,0,0,0-1.2-12.6,19.07,19.07,0,0,0-3.74-7.18c-1.24-1.39-2.63-2.43-3.54-4.06a7.41,7.41,0,0,0-3.53-3A13.44,13.44,0,0,0,10.36,382.55Z"/><path class="cls-3" d="M.64,393.39a16.34,16.34,0,0,1,9.72-10.84,13.4,13.4,0,0,1,9.36.16C11.54,383.07,3.25,391,5.9,399c1,6,9,7,12,12,5,7-8,14-1,21a18.94,18.94,0,0,0,3,2.1c-2.62-.42-5.34-1.53-6.47-3.9-1-2.12-.49-4.63.14-6.9s1.35-4.68.66-6.93c-.85-2.72-3.5-4.4-5.86-6-3.32-2.26-6.56-5-7.82-8.86A13.77,13.77,0,0,1,.64,393.39Z"/><path class="cls-3" d="M39.64,378.09c-3.73-1.33-7.88-.23-11.52,1.33A38.47,38.47,0,0,0,22,382.93c-1.39,1.14-.32,1.42-1.06,3.06a13,13,0,0,0-.52,9.68,10.65,10.65,0,0,0,6.91,6.62c4.2,1.18,8.72-.64,12.16-3.32a8.08,8.08,0,0,0,2.85-9C41.27,386,40.82,382,39.64,378.09Z"/><polygon class="cls-4" points="95.85 427.5 96.45 436.75 97.03 436.75 97.24 428.93 95.85 427.5"/><path class="cls-5" d="M98.08,423.64s4.44,4,7.3,4.87a12,12,0,0,0,5.73.23s1.4,8-6.32,8.43S97,429.85,97,429.85a4,4,0,0,1-1.56-2.09C94.83,426.14,96.45,422.28,98.08,423.64Z"/><polygon class="cls-4" points="107.97 378.11 116.94 380.43 117.12 379.88 109.76 377.23 107.97 378.11"/><path class="cls-5" d="M105,374.78s5.16-3,6.92-5.41a12,12,0,0,0,2-5.37s8,1.17,6,8.64-9.38,5.08-9.38,5.08a3.91,3.91,0,0,1-2.47.83C106.36,378.65,103.2,375.9,105,374.78Z"/><path class="cls-6" d="M73.37,1069.21a17.51,17.51,0,0,0-2.13,3.65,5.23,5.23,0,0,1,2.25.65,3,3,0,0,1,.27-1.9,4.41,4.41,0,0,1,1.86-2.57c.11-.06.23-.11.28-.22.17-.4-.87-.78-1.16-.76C74.18,1068.09,73.68,1068.8,73.37,1069.21Z"/><path class="cls-7" d="M47.51,1011.68a5.63,5.63,0,0,1-2.9-.19,15.09,15.09,0,0,1-2.43-.9,1.55,1.55,0,0,0,0,1.23,3.53,3.53,0,0,0,.86,1.56,3.41,3.41,0,0,0,2.14.79,5.05,5.05,0,0,0,4-1.2v1l1.59.1a.52.52,0,0,0,.37-.06.53.53,0,0,0,.16-.27,4.59,4.59,0,0,0,.19-1.91,2.58,2.58,0,0,0-.57-1.44c-.44-.5-1.21-.8-1.63-.16A2.93,2.93,0,0,1,47.51,1011.68Z"/><ellipse class="cls-8" cx="89.88" cy="1401.24" rx="26.9" ry="2.73"/><path class="cls-9" d="M82.51,798.17c-.55-1.76-1.47-3.58-3.14-4.37a5.7,5.7,0,0,0-2.45-.48,4.32,4.32,0,0,0-1.71.26,3.34,3.34,0,0,0-1.9,2.55,5.2,5.2,0,0,0,.61,3.2,7.53,7.53,0,0,0,3.28,3.16,8.3,8.3,0,0,0,4.5.79,2.4,2.4,0,0,0,1.4-.47c.35-.32.25-.66.19-1.11A21.18,21.18,0,0,0,82.51,798.17Z"/><path class="cls-10" d="M65.72,811.9a9.64,9.64,0,0,0,9.39,4.93c6.76-.5,6-15.64,6-15.64l3.61,1.18s4.12,11.32-.08,19.34-12.28,8-18.31,3.57S65.72,811.9,65.72,811.9Z"/><path class="cls-11" d="M73.14,843.76l4.23-.21s10.69-1.17,15.14,0-.7,30.93-.7,30.93L87,874.39S85.39,856.29,77,854.61,60.55,847,73.14,843.76Z"/><path class="cls-12" d="M91.81,874.46s4.69,2.66,7.61,4.51-4,.34-6.88-.62-4.52.71-6-.33,1.39-4.1,1.39-4.1Z"/><path class="cls-13" d="M68.56,443.36l5.28-1.06s1.53-7,11.43-1.87l-11,2.68Z"/><path class="cls-14" d="M119,1367.83s1.63,16.89-2.83,23.14"/><path class="cls-15" d="M76.58,104.88V1263.31S78,1293,69.41,1299.39l1.42,1.58s7.38.92,7.38-37.66V104.88Z"/><polygon class="cls-6" points="78.21 1247 76.58 1248.62 76.58 1262.17 78.21 1260.55 78.21 1247"/><polygon class="cls-6" points="78.21 1210.54 76.58 1212.16 76.58 1225.72 78.21 1224.1 78.21 1210.54"/><polygon class="cls-6" points="78.21 1174.09 76.58 1175.71 76.58 1189.27 78.21 1187.65 78.21 1174.09"/><polygon class="cls-6" points="78.21 1137.64 76.58 1139.26 76.58 1152.82 78.21 1151.2 78.21 1137.64"/><polygon class="cls-6" points="78.21 1101.19 76.58 1102.81 76.58 1116.37 78.21 1114.74 78.21 1101.19"/><polygon class="cls-6" points="78.21 1064.74 76.58 1066.36 76.58 1079.91 78.21 1078.29 78.21 1064.74"/><polygon class="cls-6" points="78.21 1028.29 76.58 1029.91 76.58 1043.46 78.21 1041.84 78.21 1028.29"/><polygon class="cls-6" points="78.21 991.83 76.58 993.46 76.58 1007.01 78.21 1005.39 78.21 991.83"/><polygon class="cls-6" points="78.21 955.38 76.58 957 76.58 970.56 78.21 968.94 78.21 955.38"/><polygon class="cls-6" points="78.21 918.93 76.58 920.55 76.58 934.11 78.21 932.49 78.21 918.93"/><polygon class="cls-6" points="78.21 882.48 76.58 884.1 76.58 897.66 78.21 896.03 78.21 882.48"/><polygon class="cls-6" points="78.21 846.03 76.58 847.65 76.58 861.2 78.21 859.58 78.21 846.03"/><polygon class="cls-6" points="78.21 809.58 76.58 811.2 76.58 824.75 78.21 823.13 78.21 809.58"/><polygon class="cls-6" points="78.21 773.12 76.58 774.75 76.58 788.3 78.21 786.68 78.21 773.12"/><polygon class="cls-6" points="78.21 736.67 76.58 738.29 76.58 751.85 78.21 750.23 78.21 736.67"/><polygon class="cls-6" points="78.21 700.22 76.58 701.84 76.58 715.4 78.21 713.78 78.21 700.22"/><polygon class="cls-6" points="78.21 663.77 76.58 665.39 76.58 678.95 78.21 677.33 78.21 663.77"/><polygon class="cls-6" points="78.21 627.32 76.58 628.94 76.58 642.49 78.21 640.87 78.21 627.32"/><polygon class="cls-6" points="78.21 590.87 76.58 592.49 76.58 606.04 78.21 604.42 78.21 590.87"/><polygon class="cls-6" points="78.21 554.41 76.58 556.04 76.58 569.59 78.21 567.97 78.21 554.41"/><polygon class="cls-6" points="78.21 517.96 76.58 519.58 76.58 533.14 78.21 531.52 78.21 517.96"/><polygon class="cls-6" points="78.21 481.51 76.58 483.13 76.58 496.69 78.21 495.07 78.21 481.51"/><polygon class="cls-6" points="78.21 445.06 76.58 446.68 76.58 460.24 78.21 458.62 78.21 445.06"/><polygon class="cls-6" points="78.21 408.61 76.58 410.23 76.58 423.79 78.21 422.16 78.21 408.61"/><polygon class="cls-6" points="78.21 372.16 76.58 373.78 76.58 387.33 78.21 385.71 78.21 372.16"/><polygon class="cls-6" points="78.21 335.7 76.58 337.33 76.58 350.88 78.21 349.26 78.21 335.7"/><polygon class="cls-6" points="78.21 299.25 76.58 300.87 76.58 314.43 78.21 312.81 78.21 299.25"/><polygon class="cls-6" points="78.21 262.8 76.58 264.42 76.58 277.98 78.21 276.36 78.21 262.8"/><polygon class="cls-6" points="78.21 226.35 76.58 227.97 76.58 241.53 78.21 239.91 78.21 226.35"/><polygon class="cls-6" points="78.21 189.9 76.58 191.52 76.58 205.07 78.21 203.45 78.21 189.9"/><polygon class="cls-6" points="78.21 153.45 76.58 155.07 76.58 168.62 78.21 167 78.21 153.45"/><polygon class="cls-6" points="78.21 117 76.58 118.62 76.58 132.17 78.21 130.55 78.21 117"/><path class="cls-16" d="M67.7,1330.22a5.51,5.51,0,0,1-5.5-4c-1.17-4.22,5.12-5,1.39-12.43l1.65,1.52L64.5,1311l1.28,1.63s-.39-6.48,3.16-8.36a9.08,9.08,0,0,0,.92,10.45C74.12,1320.05,74.11,1330.52,67.7,1330.22Z"/><path class="cls-17" d="M67.14,1329.48s-3.24-.85-3.55-3.5,2.06-4.28,2.49-5.85-.8-3.93-.8-3.93l1.46,1.43-.44-3.07,1.38,1.5a16.62,16.62,0,0,1-.79-5.31,57.92,57.92,0,0,0,3.58,6.52C73.62,1322.09,72.61,1329.54,67.14,1329.48Z"/><path class="cls-18" d="M65.79,1328a3.11,3.11,0,0,1-.5-2.49,7.51,7.51,0,0,1,1-2,3.25,3.25,0,0,0,.62-2.17,3.68,3.68,0,0,1,.41,2,13.66,13.66,0,0,0,.56-5.77,6.84,6.84,0,0,0,1.34,2.38c.28.32.6.62.85,1a4.94,4.94,0,0,1,.77,2,6.71,6.71,0,0,1-.32,3.79,4.89,4.89,0,0,1-2.15,2.32C67.4,1329.5,66.45,1328.91,65.79,1328Z"/><path class="cls-19" d="M67.24,1326.19a13.39,13.39,0,0,0,.88-1.11,2.86,2.86,0,0,0,.42-1.39,5.63,5.63,0,0,1,.7,2.19c.1.95-.16,2.78-1.4,2.93C66.32,1329,66.69,1326.9,67.24,1326.19Z"/><path class="cls-20" d="M104.63,1399.32s-10.77-5.37-16.85,2.44h17.13Z"/><path class="cls-11" d="M91.28,1366.85s10.36,19,10,31.66l4.61-.13s1-22.69-1.43-29.19S90.71,1359.71,91.28,1366.85Z"/><path class="cls-21" d="M95.64,1367.21s10,16.14,9.09,32.11h3.93l1.15-31.77Z"/><polygon class="cls-22" points="71.14 1338.57 67.69 1328.67 68.33 1328.49 71.78 1338 71.14 1338.57"/><path class="cls-23" d="M76.73,1343.63a2.77,2.77,0,0,1-.82-2.25c.11-1.49.29-2.44-.66-3.23s-3.24-1.24-3.63-1-.55,2.19,1.5,2.28c0,0-1.4,2.53.13,3.32,0,0-2.41.45-2.46-1.38s.78-2.19.73-2.75a1.28,1.28,0,0,0-1.76-.91c-1,.36-1.05,2.54-.91,3.66,0,0-.23-2-.84-2.11s-1.05,2.11-.32,3.85c0,0-.34-1.4-1.08-1.25s.82,5.59,7.66,5Z"/><path class="cls-24" d="M95.76,1339s-8.4,11.81-19.38,3.88L73,1347.66s8.49,9.09,20.52,1.37Z"/><path class="cls-13" d="M96.72,1337.83s-11.51,12.05-6,28.76c0,0,12.57,4.58,19,1,0,0-4.18-8.13-2.9-13.5s4.33-12.17-4.06-16.56C102.85,1337.49,98.76,1335.22,96.72,1337.83Z"/><path class="cls-22" d="M98.53,1338.22a4.61,4.61,0,0,1,1,2.79s3.27-.45,4.31-2.18c0,0-.61-3.35-3.28-3.81s-6.42,2.14-4,4.94A4.5,4.5,0,0,1,98.53,1338.22Z"/><path class="cls-4" d="M90.73,1323.31a16,16,0,0,1,1.24,6.55l5.84.18a14.26,14.26,0,0,0-.19-3.72c-.38-1.33-3.83-4.31-3.83-4.31Z"/><path class="cls-22" d="M91.28,1322.61s.39,2.69,1.68,3.54a5.15,5.15,0,0,0,3.42.25s-1.08.86-3.42.22l-.76,3.24s6.9,1.5,8.92-2.36,1-6.84.59-8.82a7,7,0,0,0-1.7-3.18l-2.27.45Z"/><path class="cls-25" d="M99.15,1323.88c1.92-1.76,1.63-4,2.2-6.28a7,7,0,0,0-1.34-2.1l-1.72.34A7.57,7.57,0,0,1,99.15,1323.88Z"/><path class="cls-26" d="M98.12,1138.29a.93.93,0,0,1-.18.26.61.61,0,0,1-.3.08,23.78,23.78,0,0,1-2.53.23,3.11,3.11,0,0,1-1.25-.17,1.25,1.25,0,0,1-.79-.92,1.54,1.54,0,0,1,.13-.79,6.05,6.05,0,0,1,3.1-3,5,5,0,0,1,2.47-.61,2.46,2.46,0,0,1,2.29,1.56c.16.56-.26.71-.67.94a6.21,6.21,0,0,0-1.25,1A5.43,5.43,0,0,0,98.12,1138.29Z"/><path class="cls-22" d="M70.22,1199.71c0,.27-2.29,7.21-2.25,9.29s3.35-1.54,5.47-6.29c0,0,.46.3,1-.29a12.39,12.39,0,0,0,1.18-1.76s-.52-1.91-3.36-3.12Z"/><path class="cls-27" d="M67.74,1160.76,62,1159s-14.53-4.57-29.56,1.74l1.58,2.57s24.5.12,38.21,10.07C72.23,1173.4,82.88,1164.29,67.74,1160.76Z"/><path class="cls-28" d="M71.23,1164.58s-22,21.74-1,35.13l2-2.17s-6.61-4.79.09-12.77,15.31-13.81,16-16.37S81,1152.86,71.23,1164.58Z"/><path class="cls-27" d="M71.23,1164.58l-.23.23c3.8,2.15,8.18,5.54,6.43,8.16-6,9-12,14-8,25l-.71.71c.48.35,1,.69,1.5,1l2-2.17s-6.61-4.79.09-12.77,15.31-13.81,16-16.37S81,1152.86,71.23,1164.58Z"/><path class="cls-23" d="M92.21,1138.77s-9.93-14.21-12.06-28.66c0,0,2-2,.76-3.48s-4.33-.81-4.08.79a7.07,7.07,0,0,0,1.75,3.14l-.77,2.08s2.83,22.75,11.62,30.19S92.21,1138.77,92.21,1138.77Z"/><path class="cls-22" d="M93.87,1142.17s7.82,15-6.21,27.55A26.53,26.53,0,0,1,62,1159s17.55-4.76,23-14S91.75,1137.11,93.87,1142.17Z"/><path class="cls-25" d="M95.34,1148l-.73.31c-.28.11-.56.22-.85.31a6.8,6.8,0,0,1-1.27.25c-.19,8.22-5.76,16.25-13.4,20.77a25.39,25.39,0,0,0,8.57,0c8.61-7.68,9-16.3,8-21.82Z"/><path class="cls-29" d="M102.22,1019l12-6.62-5.13-9.28-12,6.63c-.87.48-.43,2.95,1,5.51S101.35,1019.48,102.22,1019Z"/><ellipse class="cls-30" cx="111.62" cy="1007.74" rx="1.8" ry="5.3" transform="translate(-473.97 180.04) rotate(-28.96)"/><ellipse class="cls-31" cx="111.31" cy="1007.92" rx="1.44" ry="4.24" transform="translate(-474.09 179.91) rotate(-28.96)"/><path class="cls-32" d="M79.14,1011.76s2.83,16.06,13.93,14.64,18-10.05,18-10.05-6.87-7.61-7.17-13.35l14-1.74s-.39-14.87-11.05-18.42S71.38,986.37,79.14,1011.76Z"/><path class="cls-33" d="M117.87,1001.26s-.39-14.87-11.05-18.42c-3.45-1.15-8.39-1.18-13.21.16,1.91,7.73,4.56,15.7,10.31,20.59,0-.2-.06-.4-.07-.59Z"/><path class="cls-34" d="M76.53,966.52a11.14,11.14,0,0,1,.51-7.15c.85-2,2.25-3.51,2.84-5.61a2.16,2.16,0,0,0,.09-1.15,1.09,1.09,0,0,0-.54-.67c-.82-.47-1.81,0-2.68.51a12.88,12.88,0,0,0-2.8,2A12.67,12.67,0,0,0,70.81,962a16.35,16.35,0,0,0,1.35,8.09c.71,1.58,1.74,3,3.12,3.38.91.24,4.32-.25,4.15-2.3-.07-.85-1.13-1.37-1.55-1.91A8,8,0,0,1,76.53,966.52Z"/><path class="cls-23" d="M75.24,951.32a5.09,5.09,0,0,0-.49,1.91,2.37,2.37,0,0,0,.7,1.79,2.29,2.29,0,0,0,1.76.52,3.7,3.7,0,0,0,1.73-.73,3.28,3.28,0,0,0,.93-1,3.46,3.46,0,0,0,.37-1.22,3.91,3.91,0,0,0-.52-2.74C78.1,947.46,76,949.5,75.24,951.32Z"/><path class="cls-23" d="M79.87,945.12a1.78,1.78,0,0,0-.47-.82,3.39,3.39,0,0,0-3-1.1A3,3,0,0,0,74,945.33a2.64,2.64,0,0,0,1.22,2.87c.52.28,1.23.46,1.35,1a3.69,3.69,0,0,0,.08.46c.42,1,2.63.22,2.86-.66a9.24,9.24,0,0,0,.06-1.49A8.82,8.82,0,0,0,79.87,945.12Z"/><path class="cls-7" d="M48,972.61a10.94,10.94,0,0,1-2-5.91c-.07-3.43-3.07,1.21-.86,6.49h-1l.15,1.79s3,.7,4.24,0S48,972.61,48,972.61Z"/><path class="cls-35" d="M89.3,974.54s-16.52-6.37-25.59,1.07-10.17,26.06,6.63,34.75,37.82,2.2,34.78-25.66C105.12,984.7,98,976.23,89.3,974.54Z"/><path class="cls-36" d="M105.12,984.7S98,976.23,89.3,974.54c0,0-12.83-4.94-22.08-1-5.67,10.48-2.5,23.44,6.38,30.7,6,5.15,13,7.28,20.29,7.71C101.59,1008.23,106.73,999.47,105.12,984.7Z"/><path class="cls-37" d="M105.12,984.7a36.62,36.62,0,0,0-11.79-8.88c3.87,4.67,6.57,10,5.85,16.51-2.34,12.87-13.29,19.36-24.94,19.74C90.21,1017.94,107.93,1010.44,105.12,984.7Z"/><path class="cls-38" d="M105.12,984.7a36.62,36.62,0,0,0-11.79-8.88c3.87,4.67,6.57,10,5.85,16.51-1.65,9.08-7.59,15-15,17.8a38.75,38.75,0,0,0,9.74,1.79C101.59,1008.23,106.73,999.47,105.12,984.7Z"/><path class="cls-39" d="M107.52,955.6a4.89,4.89,0,0,0-3.24-1.8,6.87,6.87,0,0,0-3.7.61,3.08,3.08,0,0,0-1.13.74,1.56,1.56,0,0,0-.45,1.24,1.61,1.61,0,0,0,.75,1.05,4.23,4.23,0,0,0,1.24.47,41.68,41.68,0,0,0,6.18,1c.82.08,1.13,0,1.14-.94A3.93,3.93,0,0,0,107.52,955.6Z"/><path class="cls-23" d="M82.23,802.1a10.55,10.55,0,0,0-1.15-4.23,3.73,3.73,0,0,0-.65-.92,3.58,3.58,0,0,0-1.94-.83,3.91,3.91,0,0,0-2.59.32,3.58,3.58,0,0,0-1.1,1.06,5.25,5.25,0,0,0-1,3,5.6,5.6,0,0,0,1.43,3.68,8.2,8.2,0,0,0,3.34,2.2,5.84,5.84,0,0,0,3.09.37c.52-.1.45-.38.5-.85s.09-1.18.11-1.78A18.7,18.7,0,0,0,82.23,802.1Z"/><path class="cls-21" d="M67.14,847.62s15.31,2.37,22.13,14.7S80.77,891,80.77,891l-3.38-1.28s5.29-12.67,2.26-19.86S61.49,866.16,56.77,856Z"/><path class="cls-11" d="M56.77,856l10.37-8.42s.94.15,2.46.56c-3.16,2.79-5.95,7.23-3.87,10.38,2.69,5.72,14.25,1.32,16.19,9.14,2.29,7-1.09,14.64.9,20.9-1.2,1.53-2,2.44-2,2.44l-3.38-1.28s5.29-12.67,2.26-19.86S61.49,866.16,56.77,856Z"/><path class="cls-40" d="M61.71,811.81s14.3,5.7,15.66,31.74l-21.16,13a31.16,31.16,0,0,0-1.48-12.44c-2.2-6.06-11.38-15.9-6.54-27.23S59.17,810.32,61.71,811.81Z"/><path class="cls-41" d="M60.08,787A6.92,6.92,0,0,1,62.47,790a7.2,7.2,0,0,1,.66,2.92,4.62,4.62,0,0,1-.9,2.81,2,2,0,0,1-.52.49,1.56,1.56,0,0,1-1,.23,3,3,0,0,1-1.33-.44,7.74,7.74,0,0,1-3.18-4.79,10.26,10.26,0,0,1-.37-3.65c0-.35.07-.94.4-1.17a2.66,2.66,0,0,1,1.19-.23A4.47,4.47,0,0,1,60.08,787Z"/><path class="cls-23" d="M113.12,709.5c-.73,0-1.47-.06-2.2,0a.64.64,0,0,0-.5.23c-.14.22,0,.52.2.71a4.88,4.88,0,0,0,2.48.88.33.33,0,0,1,.19.08.32.32,0,0,1,0,.3,2.32,2.32,0,0,1-.5.82,19.73,19.73,0,0,1-2.61,2.64,1.79,1.79,0,0,0-.76,1,1.1,1.1,0,0,0,1,1.1,2.33,2.33,0,0,0,1.56-.57,13,13,0,0,0,2.39-2.87c.06-.08.13-.17.23-.17s.21.26.18.44a32.05,32.05,0,0,0-1,3.58,1.19,1.19,0,0,0,.33,1.11,1,1,0,0,0,1,.07,2.14,2.14,0,0,0,1-.8c.71-1,.38-2.46.65-3.69a.21.21,0,0,1,.07-.13.2.2,0,0,1,.15,0c.48,0,1.27,1.43,1.38,1.78a2.31,2.31,0,0,0,.47.8,1,1,0,0,0,.44.37.77.77,0,0,0,.87-.4,2.32,2.32,0,0,0,.21-1,13.65,13.65,0,0,0-2.2-5.25c-.67-.66-1.62-1.66-2.64-1.67a2.62,2.62,0,0,0-1,.29A4.63,4.63,0,0,1,113.12,709.5Z"/><path class="cls-42" d="M92.16,691.47c0,.21,18.49-.65,22.45,18.49h2.76s3.5-22.33-18.94-28.2C98.43,681.76,90.53,681.21,92.16,691.47Z"/><path class="cls-42" d="M84.26,646.65s-.17,17.39,7.5,30.91L83.36,684s-6.19-20.33-2.25-36.63Z"/><path class="cls-43" d="M67.51,688.51s-5.39-3-11.39-5.92S43.56,684.8,42.25,694s3.77,4.68,6.4,2.32,4.94-2.95,9.66-.27a48.62,48.62,0,0,1,8.56,6.38S77.07,697.13,67.51,688.51Z"/><path class="cls-44" d="M70.83,692.49S64,693.59,61.2,703s-.15,14.68-.15,14.68,8.32,5.79,16.44,6.19-2.88-7-4.42-9.26,4.9-7.93,4.9-7.93S77.53,694.25,70.83,692.49Z"/><path class="cls-43" d="M73.07,714.56c-1.54-2.25,4.9-7.93,4.9-7.93s-.44-12.38-7.14-14.14a9.92,9.92,0,0,0-3.51,1.56c-.27,5.35,4.21,10.32,4.21,15.92a5.36,5.36,0,0,1-3,4c3.9,2.6,4.79,5.94,3.91,9a22.83,22.83,0,0,0,5,.87C85.62,724.22,74.61,716.81,73.07,714.56Z"/><path class="cls-45" d="M89.54,677.56s-13,8.08-24.82,9.33c0,0,1.39,15.92,12.31,21.08,0,0,19-4.43,21.4-24S92.21,675.23,89.54,677.56Z"/><path class="cls-42" d="M94.83,673c2,10.65-.81,21.77-10.3,26.94a41.41,41.41,0,0,1-12.45,4.38A16.62,16.62,0,0,0,77,708s19-4.43,21.4-24C99.84,672.71,97.54,671.55,94.83,673Z"/><path class="cls-46" d="M101.11,565.9s9.42,10.62,8.34,19.76S93.94,600,85.36,592.45,81.61,565.49,101.11,565.9Z"/><path class="cls-7" d="M87.46,560.16a5.71,5.71,0,0,1,4.06-1.85,8.32,8.32,0,0,1,2.84.72c1.74.69,3.43,1.5,5.12,2.3a16.64,16.64,0,0,1,4.67,2.9,5,5,0,0,1-1,1.51,18.67,18.67,0,0,1-12.65,6,7.54,7.54,0,0,1-3-.32,4.73,4.73,0,0,1-2.85-2.9C83.78,565.86,85.62,562,87.46,560.16Z"/><path class="cls-47" d="M79.89,569.94l-4.32-58.51,3.82-.57s8.6,54.76,8.25,54.7S79.89,569.94,79.89,569.94Z"/><path class="cls-23" d="M73,509.66a4.25,4.25,0,0,1-.42-2,4,4,0,0,1,.27-1.75,3.12,3.12,0,0,1,3-1.76,4.09,4.09,0,0,1,3.07,1.9,6,6,0,0,1,.9,3.57,1.75,1.75,0,0,1-.48,1.31,1.66,1.66,0,0,1-.77.33C76.67,511.72,74,511.62,73,509.66Z"/><path class="cls-23" d="M78,502.51a1,1,0,0,0-.29-.69.75.75,0,0,0-.38-.13,1.88,1.88,0,0,0-1.81,1.3,3.93,3.93,0,0,0,0,2.35,8.85,8.85,0,0,0,.54,1.49,2.14,2.14,0,0,0,.56.82,1.71,1.71,0,0,0,.82.31,2.18,2.18,0,0,0,1.42-.24c1-.59.17-1.53-.13-2.31A14.62,14.62,0,0,1,78,502.51Z"/><path class="cls-7" d="M86.28,563.77a5,5,0,0,0-3.57-.5,10.23,10.23,0,0,0-3.35,1.47,12.17,12.17,0,0,0-3.83,3.48c-.64,1-1.71,3-.83,4.08,1.08,1.36,2.68-.68,3.52-1.39S86,563.58,86.28,563.77Z"/><path class="cls-48" d="M57.81,589.44S37.43,610.2,33.15,614.75l4.61,1s20.52-17.17,28-15.85,16.13,43.56,16.13,43.56l2.54.44s2.12-47,2.26-53.48S70.58,576.4,57.81,589.44Z"/><path class="cls-49" d="M86.73,590.39c.12-5.58-9.22-12.17-20.64-5.75,18.42,12.83,20.17,37.56,17.55,59.09l.83.14S86.59,596.92,86.73,590.39Z"/><path class="cls-47" d="M83,565s-21.8,20.46-26.39,23.9c0,0,15.89,8.09,31.12,1.54,0,0,2.27-14.34.73-25.64S83,565,83,565Z"/><path class="cls-44" d="M88.42,564.78c-1.55-11.31-5.46.2-5.46.2l-.4.38c3.75,10.24-.43,21.53-8.87,27.6a32.83,32.83,0,0,0,14-2.54S90,576.08,88.42,564.78Z"/><circle class="cls-50" cx="69.21" cy="438.88" r="1.71"/><circle class="cls-51" cx="67.05" cy="443.65" r="1.71"/><path class="cls-23" d="M66.44,438.21a1.31,1.31,0,0,1,.43-.31.75.75,0,0,1,.8.34,1.43,1.43,0,0,1,.15.91,1.79,1.79,0,0,1-.6,1.24c-.47.36-1.14.38-1.6.75a.56.56,0,0,0-.21.29c-.09.32.25.59.54.76l1.88,1.09c.28.16.6.37.62.7s-.41.69-.82.72A3.19,3.19,0,0,1,65.8,444a2.52,2.52,0,0,1,.39,1,.51.51,0,0,1-.1.48.51.51,0,0,1-.51,0,3.14,3.14,0,0,1-1.23-.76c-.07.3-.18.65-.48.76a.9.9,0,0,1-.81-.25A5.3,5.3,0,0,1,61.27,443a3.57,3.57,0,0,1,0-2.83,2.12,2.12,0,0,1,2.53-1.24A2.81,2.81,0,0,0,66.44,438.21Z"/><path class="cls-52" d="M52.24,407s24.47-27.91,25.24-28.75c0,0,2.31.87,1.88,2.62s-9.11,17.59-9.11,17.59S62.2,414,52.24,407Z"/><path class="cls-52" d="M53.72,420.79s-2.79,8.74,9.77,18.42l-2.32,3.2S36.54,428.13,45.91,411C45.91,411,55.56,414.57,53.72,420.79Z"/><path class="cls-23" d="M104.86,375.55l.16,2.36s-19.31,2.55-25.61,14.84c0,0,27.58,4.62,18.61,31.08l-1,.35S95.34,407.67,86.44,408a6.6,6.6,0,0,0-3.26,1L73.25,390.6C80,383,89.19,374.19,104.86,375.55Z"/><path class="cls-53" d="M48.12,407.54s13-3.3,20.17-11.2c1.52-1.69,3.15-3.67,5-5.74L83.18,409c-6.29,3.81-9.5,16.76-27,12.77C35.84,417.17,48.12,407.54,48.12,407.54Z"/><path class="cls-52" d="M63.78,417.77c7.87-1.74,14.87-7.73,15.33-16.3L83.18,409c-6.29,3.81-9.5,16.76-27,12.77-13.4-3.06-12.6-8.29-10.51-11.49C50,415.56,56.55,418.89,63.78,417.77Z"/><path class="cls-21" d="M59.33,302.94A22.51,22.51,0,0,0,57,310.18c-.57,4.12,4-2.78,5.21-5.34s1.77-3.89.05-4.44Z"/><path class="cls-23" d="M87.64,221.91a21.56,21.56,0,0,0-.55-5.37c-.71-2.87-.79-4.59.61-4.12s2.16,6.23,2.16,6.23.73-3.66,1.37-6.63,2.45-.65,2.14,1.06-.5,5.74-.5,5.74a71.2,71.2,0,0,1,4.84-5.31c1.67-1.5,2.65.48,1.34,1.85-1,1-3.7,4.93-4.12,5.4s0,1.05,2.35,2.18.45,3.62-1.72,2-3.59.22-5.09-.35S87.91,223.6,87.64,221.91Z"/><path class="cls-23" d="M100.94,293.34c-.86.09-1.75.06-2.61.23a.75.75,0,0,0-.57.32c-.15.28,0,.62.3.82a5.62,5.62,0,0,0,3,.82.45.45,0,0,1,.23.08.38.38,0,0,1,.06.36,2.82,2.82,0,0,1-.52,1A23.5,23.5,0,0,1,98,300.36a2.14,2.14,0,0,0-.81,1.31,1.32,1.32,0,0,0,1.34,1.22,2.79,2.79,0,0,0,1.79-.83,15.6,15.6,0,0,0,2.59-3.62c.06-.1.13-.21.25-.22s.28.29.25.5a40.4,40.4,0,0,0-.81,4.34,1.43,1.43,0,0,0,.49,1.29,1.24,1.24,0,0,0,1.14,0,2.59,2.59,0,0,0,1.17-1.05c.75-1.3.22-2.95.44-4.43a.32.32,0,0,1,.06-.17.31.31,0,0,1,.18-.07c.57-.06,1.64,1.59,1.8,2a3.16,3.16,0,0,0,.63.91,1.24,1.24,0,0,0,.56.4.91.91,0,0,0,1-.56,2.64,2.64,0,0,0,.16-1.22,16.06,16.06,0,0,0-3.09-6c-.85-.72-2.06-1.83-3.28-1.74a3,3,0,0,0-1.1.42A5.73,5.73,0,0,1,100.94,293.34Z"/><path class="cls-28" d="M65.67,264.17s-7.85-10.94-22-3.93S36.54,284,36.54,284l3.29.69s1.06-15.67,8.13-16.48,12.91,5,12.91,5-21.08,14.09-1.54,29.69l2.91-2.54S53,282.73,72.12,282.76,79,263.2,65.67,264.17Z"/><path class="cls-54" d="M65.67,264.17s-.11-.15-.32-.4c-2.21,5.11-1.19,11.12.78,15.75-2.12.71-4.23,1.43-5.5,3.27-4.79,5.39,1.45,11.31-1.22,16a6.29,6.29,0,0,1-2.64,1.9,32.86,32.86,0,0,0,2.56,2.26l2.91-2.54S53,282.73,72.12,282.76,79,263.2,65.67,264.17Z"/><path class="cls-55" d="M100.72,253.72l-.2-.18A13.83,13.83,0,0,0,98.19,251a9.16,9.16,0,0,0-2-1.37l0,0h-.07a8.19,8.19,0,0,0-1.71-.62c-3.09-1.58-8.43-7-1-24.47l-5.63-2.29s-10.4,20.17-4.8,32.13a34.17,34.17,0,0,1-17.28,9.84c-.23,6,6.45,18.59,6.45,18.59,13-.18,21.57-8.13,26-14.75,4.19,3.94,6.74,10,4.59,24.61l4.72,1.81S118.66,269.52,100.72,253.72Z"/><path class="cls-33" d="M98.13,263.77c-6.39,9.08-21.13,16.48-30.61,8.67a94.62,94.62,0,0,0,4.6,10.32c13-.18,21.57-8.13,26-14.75,4.19,3.94,6.74,10,4.59,24.61l1,.4C106.38,282.53,105.89,271,98.13,263.77Z"/><path class="cls-3" d="M109.32,223s-1.93-3,.46-7.21,9.4-6.2,15.5-4.51,8.8-4.33,8.8-4.33,2.7,5.15.5,16.51-6.76,15.49-15.75,16.2S109.32,223,109.32,223Z"/><path class="cls-12" d="M134.08,206.92a9.32,9.32,0,0,1-.59,1c4.38,16.31-8.15,24.37-22,26,1.39,3.29,3.65,6,7.29,5.69,9-.71,13.55-4.84,15.75-16.2S134.08,206.92,134.08,206.92Z"/><path class="cls-23" d="M119.49,223.73c-3.9-5.11-10.82-4.92-11.59.07s-1.58,5.58-7.62,6.89-8.16,2.4-6.38,4.92,7.81,2.35,7.81,2.35a70.33,70.33,0,0,1-7,2.59c-1.19.16,2.69,2.76,2,6.87a18.59,18.59,0,0,1-3.2,7.29s1,3.58,4.5,2.33,13.61-11.24,16.76-14.89S123.46,228.93,119.49,223.73Z"/><path class="cls-56" d="M117,231.7c1-2.17.41-4.64-1.41-5.51s-4.15.17-5.19,2.34-.33,4,1.5,4.83A3.64,3.64,0,0,0,117,231.7Z"/><path class="cls-22" d="M116.79,230.94c.89-1.87.35-4-1.22-4.75s-3.57.15-4.47,2a2.86,2.86,0,0,0,1.29,4.17A3.16,3.16,0,0,0,116.79,230.94Z"/><path class="cls-22" d="M110.8,228.38a3,3,0,1,0-5.31-2.54,2.95,2.95,0,0,0,5.31,2.54Z"/><path class="cls-22" d="M110.8,228.38a3,3,0,1,0-5.31-2.54,2.95,2.95,0,0,0,5.31,2.54Z"/><path class="cls-56" d="M111,227.21a2.66,2.66,0,0,1-3.87,1.27,2.81,2.81,0,0,1-1.75-2.24,3,3,0,0,0,5.46,2.14,3.9,3.9,0,0,0,.39-1.76A3.28,3.28,0,0,1,111,227.21Z"/><circle class="cls-57" cx="109.13" cy="227.87" r="1.24"/><circle class="cls-57" cx="112.05" cy="229.79" r="1.24"/><path class="cls-23" d="M116.28,236.89a8.55,8.55,0,0,1,1.52-2.09,4.11,4.11,0,0,1,3.2-1.06,3.56,3.56,0,0,1,2.72,1.92,4,4,0,0,1-.79,4.28,6.61,6.61,0,0,1-4.1,1.93,4.3,4.3,0,0,1-2.56-.34,2.07,2.07,0,0,1-1.13-2.17"/><path class="cls-58" d="M119,236.39a2.45,2.45,0,0,1,2.23-.13.84.84,0,0,1,.42.39.9.9,0,0,1,.05.37,2.66,2.66,0,0,1-.67,1.67,4.5,4.5,0,0,0,.15-1,1,1,0,0,0-.06-.45,1,1,0,0,0-1-.45,3.39,3.39,0,0,0-2.6,1A5.4,5.4,0,0,1,119,236.39Z"/><path d="M118.83,230.38a7.06,7.06,0,0,1-4-6.55l1.79-.3S116.08,227.94,118.83,230.38Z"/><path d="M107.09,222.75a12.16,12.16,0,0,1,5.2-.37l.52-1.47s-3.81-.45-5.74,2"/><path class="cls-4" d="M100.91,243.55a6.48,6.48,0,0,1,1.75,1.67,5.66,5.66,0,0,1,.73,4.15,5.73,5.73,0,0,1-1.62,3.18,4,4,0,0,1-3.33,1.11,2,2,0,0,1-1.57-1c-.41-.91.2-1.92.74-2.76a9.6,9.6,0,0,0,1.27-2.76,4.67,4.67,0,0,0-.16-3c-.42-1-1.65-2.2-2.8-2.11A8.29,8.29,0,0,1,100.91,243.55Z"/><path class="cls-22" d="M95.92,242a6.73,6.73,0,0,0,7.11,3.9S101.63,242.11,95.92,242Z"/><path class="cls-22" d="M100.78,253.25a3.17,3.17,0,0,1-4.68-1.7S97.74,250.57,100.78,253.25Z"/><path class="cls-21" d="M39.83,284.72s-7.18-3.15-11.11,1.57S39.83,284.72,39.83,284.72Z"/><path class="cls-59" d="M103.44,249c0-.34-.4-.66-.73-.75a1.36,1.36,0,0,0-1,.17c-.2.12-.45.26-.63.12a.81.81,0,0,1-.12-.14,1.42,1.42,0,0,0-1.29-.57,1.35,1.35,0,0,0-1.07.92.9.9,0,0,0,0,.54.48.48,0,0,0,.44.29c.32,0,.57-.41.88-.32a.52.52,0,0,1,.29.4,1.69,1.69,0,0,0,.14.5.71.71,0,0,0,.67.3,1.38,1.38,0,0,0,.69-.3,1.17,1.17,0,0,1,.34-.2c.32-.1.73.35.85.87"/><path class="cls-58" d="M75.1,379.29c-.08.7-.63,1.37-.42,2a1.3,1.3,0,0,0,1.54.74,2.13,2.13,0,0,0,1.5-1.48c.44-1.52-.66-3.19-1.87-4-.46-.33-1-.42-1.12.24C74.53,377.63,75.2,378.44,75.1,379.29Z"/><path class="cls-23" d="M80.86,381.35a1.56,1.56,0,0,1-.26.86,1.5,1.5,0,0,1-.73.4,7.23,7.23,0,0,1-2.53.3.53.53,0,0,1-.6-.43,2.14,2.14,0,0,1-.17-1,.73.73,0,0,1,.71-.63,2.18,2.18,0,0,1-1.36-.34,2.27,2.27,0,0,1-.55-1.84,1.2,1.2,0,0,1,0-.33.74.74,0,0,1,.76-.32,1.63,1.63,0,0,0,.85-.08c0-.36-3,.3-2.36-3.13.11-.59,1-.69,1.54-.75,1.35-.15,4.06-.53,4.6,1.2a10.61,10.61,0,0,1,.19,2.64A25.11,25.11,0,0,1,80.86,381.35Z"/><path class="cls-60" d="M70.58,440.32l.09-.11L74,442.74l10.36,5.42c-10.69,3.08-10.88-4.7-10.88-4.7l-3.21-2.92Z"/><circle class="cls-60" cx="73.37" cy="442.69" r="1.26"/><path class="cls-23" d="M80.27,525.58c-6.39-.44-11.25,3.82-10.41,9.25s-1,9.54-4.06,11.09-5.14,1.55-2.81,4.83,8.54,2,8.54,2l-.27,4.78s8.88,4.36,12.3,8.38,6.12-.82,6.13-8.09-1.89-19.91-2.52-24.54S83.45,525.81,80.27,525.58Z"/><path class="cls-61" d="M62.59,550.15a5.68,5.68,0,0,0,.4.6c2.32,3.28,8.54,2,8.54,2l-.26,4.56c.62-2.25,1.49-4.5,2.11-6.76C70.08,552.4,65.05,553.38,62.59,550.15Z"/><path class="cls-7" d="M73.2,531.77c2.62.25,5.24.48,7.84.85s5.25.93,7.86,1.43a11.62,11.62,0,0,0-11.05-13.13,11.36,11.36,0,0,0-11.1,10.52A53.39,53.39,0,0,1,73.2,531.77Z"/><path class="cls-62" d="M67.42,537.62a41.89,41.89,0,0,1,19.72,2.85,2.15,2.15,0,0,0,2.93-1.5l.79-3.48a2.14,2.14,0,0,0-1-2.35,35.72,35.72,0,0,0-23.35-3.51A2.15,2.15,0,0,0,64.7,532l.39,3.74A2.13,2.13,0,0,0,67.42,537.62Z"/><path class="cls-23" d="M85.12,541.08a6.75,6.75,0,0,1,1-4.32,4.08,4.08,0,0,1,6.25-.28,3.66,3.66,0,0,1,.89,1.75,4.37,4.37,0,0,1-.19,2.09,5.25,5.25,0,0,1-2.33,3,3.78,3.78,0,0,1-3.7,0"/><path class="cls-22" d="M69.65,537.31a2.61,2.61,0,0,0-1,.27,4,4,0,0,0-2.21,3.57,2.55,2.55,0,0,0,.6,1.78,2.83,2.83,0,0,0,1.06.62,4.06,4.06,0,0,0,1.82.26,2.35,2.35,0,0,0,1.6-.85,3.51,3.51,0,0,0,.55-1.89,4.22,4.22,0,0,0-.38-2.65A2.45,2.45,0,0,0,69.65,537.31Z"/><path class="cls-39" d="M71.78,538.59c0,2.82-1.9,5.87-5.22,3.4a2.08,2.08,0,0,0,.49.94,2.83,2.83,0,0,0,1.06.62,4.06,4.06,0,0,0,1.82.26,2.35,2.35,0,0,0,1.6-.85,3.51,3.51,0,0,0,.55-1.89A4.57,4.57,0,0,0,71.78,538.59Z"/><path class="cls-22" d="M71.76,542.5a3.76,3.76,0,0,0,1.51,1.88,3.36,3.36,0,0,0,1.82.37,4.71,4.71,0,0,0,2.64-8.41c-1.29-1-4.11-1.57-5.4-.22C70.89,537.63,71,540.74,71.76,542.5Z"/><path class="cls-39" d="M75.34,543.2a4,4,0,0,1-1.9-.34,3.54,3.54,0,0,1-1.57-1.7,6.39,6.39,0,0,1-.55-2.78,8.05,8.05,0,0,0,.44,4.12,3.76,3.76,0,0,0,1.51,1.88,3.36,3.36,0,0,0,1.82.37,4.84,4.84,0,0,0,4.23-3.29,3.82,3.82,0,0,0,.15-.67A5.1,5.1,0,0,1,75.34,543.2Z"/><path class="cls-63" d="M66.56,535.55s0,1.69,0,1.69,2.93-.59,4.82.81a14.66,14.66,0,0,1,7.56-3.16l-.8-3s-6,2-6.73,5.7C71.41,537.61,70.42,535.5,66.56,535.55Z"/><circle class="cls-63" cx="75.51" cy="543.05" r="1.48"/><circle class="cls-63" cx="69.34" cy="542.85" r="0.99"/><path class="cls-22" d="M73,556.83S79,553.3,83.37,555s2.22,6.45-.09,5.34S77.75,555.86,73,556.83Z"/><path class="cls-64" d="M84.71,555.75a4.77,4.77,0,0,1-1.88,1,5.08,5.08,0,0,1,3.08,1.29A3,3,0,0,0,84.71,555.75Z"/><path class="cls-58" d="M90.34,539.46c.31,0-.56-.3-.87-.33a2.33,2.33,0,0,0-2,.84,2.3,2.3,0,0,0-.38,2.13A3.2,3.2,0,0,1,90.34,539.46Z"/><path class="cls-65" d="M33.15,614.75S24,618.14,20.2,620.22s8.87.71,13.27-.89,5.51.89,4.29-3.61Z"/><path class="cls-47" d="M88.54,574.64a11.45,11.45,0,0,1,.46,11c-2.88,6.31-14.29,10.89-14.29,10.89l2.92,4.36s11-4.14,16.67-9.33,5.58-17.83-5.88-26.8"/><path class="cls-7" d="M86.63,576.17a3.21,3.21,0,0,0,1.89,2.17.58.58,0,0,0,.32,0c.31-.09.34-.52.31-.84a18.69,18.69,0,0,1,1.47-8.86c.51-1.19,1.21-3.13-.52-3.7-1.35-.46-2.21,1.09-2.77,2.09A11.11,11.11,0,0,0,86.63,576.17Z"/><path class="cls-65" d="M81.69,643.87a72.76,72.76,0,0,1-7,9.44c-4.48,5.16,5.87-1,8-3.54s2.74-1.32,3.32-2.39-1.56-3.51-1.56-3.51Z"/><path class="cls-23" d="M77.5,648.43a2.44,2.44,0,0,0,.19,1.23,2.09,2.09,0,0,0,1.81.85,5.26,5.26,0,0,0,4.13-1.62,4.1,4.1,0,0,0,.8-4.27,3,3,0,0,0-.62-.92,4.69,4.69,0,0,0-3.15-.9c-1.14,0-2.55,0-2.88,1.25A20.64,20.64,0,0,0,77.5,648.43Z"/><path class="cls-23" d="M101,660.87a21.6,21.6,0,0,0-6.37-2.35c-4.13-.92-8.56-1.81-6.56,3.18,1.95,4.83,9.3,4.64,9.3,4.64a52.06,52.06,0,0,0-10.12,4.27C83.3,673,86.84,681,88.69,684s9.49,3,15.46-2.08,7.36-14.23,8.08-16.22,4.53-10.17.71-12.71S101.49,653.26,101,660.87Z"/><path class="cls-66" d="M112.94,653c-3.73-2.46-11,.14-11.9,7.32,5.77,1.73,7.42,8.11,6.49,13.65a17.34,17.34,0,0,1-3,7.61c5.66-5.17,7-13.92,7.72-15.87S116.76,655.54,112.94,653Z"/><path class="cls-22" d="M101.54,662.76a3.6,3.6,0,0,0,2.91,3.12,4.6,4.6,0,0,0,4-.9,3.88,3.88,0,0,0,1.25-3.84,3.93,3.93,0,0,0-3.11-2.71,6.07,6.07,0,0,0-3.82,1.74A3.52,3.52,0,0,0,101.54,662.76Z"/><path class="cls-22" d="M101.54,662.09a2.71,2.71,0,0,1-2.86-1.44,3.43,3.43,0,0,1-.19-3.07,2.89,2.89,0,0,1,2.49-1.72,3,3,0,0,1,2.62,1.67,4.52,4.52,0,0,1-.45,3.12A2.64,2.64,0,0,1,101.54,662.09Z"/><circle class="cls-57" cx="100.97" cy="657.39" r="1.34"/><circle class="cls-57" cx="105.81" cy="660.27" r="1.34"/><path class="cls-4" d="M98.34,672a4.56,4.56,0,0,1,1.94,1.3,3.51,3.51,0,0,1,.65,1.8,5.22,5.22,0,0,1-6.39,5.64,2,2,0,0,1-1.12-.6,2.59,2.59,0,0,1-.24-2c.19-1.34.17-2.93-.88-3.78a5.37,5.37,0,0,0-1.54-.75c-.81-.33-1.85-1.08-1.39-2.11.35-.77,1.46-.67,2.17-.69A16,16,0,0,1,98.34,672Z"/><path class="cls-22" d="M93.24,677.56l-.06.56a2.59,2.59,0,0,0,.24,2,2,2,0,0,0,1.12.6,5.23,5.23,0,0,0,2.8-.13A10.69,10.69,0,0,0,93.24,677.56Z"/><path class="cls-22" d="M98.34,672a16.14,16.14,0,0,0-5.53-1.21c0,.44-.13.86-.18,1.25,2.46,2.37,5.28,2.18,8,1.9a3.38,3.38,0,0,0-.36-.64A4.56,4.56,0,0,0,98.34,672Z"/><path d="M101.63,655.08s1.82,2.48,1.93,4.46a4.38,4.38,0,0,1,5.35.18l1.69-1.91s-4.34-1.68-6.57,1c0,0,1.65-3.28-2.08-5.92Z"/><path class="cls-23" d="M110.29,667.48a4.4,4.4,0,0,1,3.89-2.21,2.73,2.73,0,0,1,1.8.5,3.09,3.09,0,0,1,.91,2,3.55,3.55,0,0,1-.21,2.19,3.36,3.36,0,0,1-2.51,1.52,5.09,5.09,0,0,1-2.94-.28A3.17,3.17,0,0,1,109.4,669"/><path class="cls-66" d="M110.29,667.48a4.4,4.4,0,0,1,3.89-2.21,2.73,2.73,0,0,1,1.8.5,3.09,3.09,0,0,1,.91,2,3.55,3.55,0,0,1-.21,2.19,3.36,3.36,0,0,1-2.51,1.52,5.09,5.09,0,0,1-2.94-.28A3.17,3.17,0,0,1,109.4,669"/><path class="cls-58" d="M113.85,667.92a2,2,0,0,1,.88.12.81.81,0,0,1,.49.7c0-.19-1.86-.24-2-.24a15.2,15.2,0,0,0-2,.24A4.49,4.49,0,0,1,113.85,667.92Z"/><path class="cls-67" d="M109.11,666.56a5.76,5.76,0,0,1,1.55.77,4.88,4.88,0,0,1,5.54-1.41,18.87,18.87,0,0,1,.42-2.75,7.54,7.54,0,0,0-.69-4.14,3.36,3.36,0,0,0-2.24-1.75,3.4,3.4,0,0,0-2.34.34c-.59.33-.61.74-.54,1.37a11.76,11.76,0,0,1-.48,5A10.81,10.81,0,0,1,109.11,666.56Z"/><path class="cls-13" d="M101,653.31l15.52,7.75s3.21-3.59,3.92-7.34-4.83-10.66-11.31-9.54C103,645.23,101,653.31,101,653.31Z"/><path class="cls-68" d="M113.93,644.77c.67.83,1.14,1.74,1.6,2.2,3.49,5.24,1.57,9.79-2.23,12.49l3.19,1.6s3.21-3.59,3.92-7.34C120.93,651,118.06,646.5,113.93,644.77Z"/><path class="cls-22" d="M115.13,660.4s-18.52-6.26-21.85-8.76,1-3.52,9.9.68C103.18,652.32,111.89,656.78,115.13,660.4Z"/><path class="cls-21" d="M42,691.63l7.16,5.3s-3.7,3.34-4.45,4.94-.19,5.47-.87,7l-4.11-1.31.56-1a8.56,8.56,0,0,1-5.21-8.15c.25-6,2.12-5.11,2.81-2.4s1.82,4.84,2.46,4.65Z"/><path class="cls-21" d="M76.73,717.63l-2.36,5.79s7.75,2.86,8.67,3.66,2,7.52,2.44,8.64,2.35-3.24,3-10.72l1,.06.52-3.9a6.41,6.41,0,0,0-3.28.19Z"/><path class="cls-23" d="M41.83,791.32s-.51-4.49,8.1-6.47,10.29,5.92,10.73,10.07c0,0,5.4,1,6.8,1.12s4.47,9.44-1.48,17.37S48.84,819,46.14,815,40.1,801.56,41.83,791.32Z"/><path class="cls-22" d="M59.72,798.94s4.55-.09,4.66,7.72c0,0-2.07-2-7.19-1.7,0,0-4.11,2.53-4.25,6.95,0,0-6-4.47-1.07-10.79,0,0,1.64,2.12,4.82.81S59.72,798.94,59.72,798.94Z"/><ellipse class="cls-69" cx="49.12" cy="794.61" rx="4.34" ry="4.47" transform="translate(-93.82 11.42) rotate(-6.81)"/><ellipse class="cls-69" cx="57.11" cy="791.99" rx="3.76" ry="3.88" transform="translate(-93.45 12.35) rotate(-6.81)"/><ellipse class="cls-40" cx="57.66" cy="791.61" rx="3.48" ry="3.58" transform="translate(-93.4 12.41) rotate(-6.81)"/><path class="cls-69" d="M50.09,790.34l4.36-.88a2.74,2.74,0,0,0-.39,1.12l-2.44.52S51.48,790.73,50.09,790.34Z"/><path class="cls-58" d="M53.27,794.47a5.32,5.32,0,0,0,2,1,5.67,5.67,0,0,0,2.19-.13,6.55,6.55,0,0,1,1.21-.16,1.58,1.58,0,0,1,.76.11,1.29,1.29,0,0,1,.62.6,3.67,3.67,0,0,1,.35,2.59,4.6,4.6,0,0,1-1.24,2.25A5.82,5.82,0,0,1,57,802.06a7.56,7.56,0,0,1-2.4.41,2.48,2.48,0,0,1-2.13-1,2.43,2.43,0,0,0,2.11.47,8.86,8.86,0,0,0,2.13-.64,4.44,4.44,0,0,0,2.7-3,2.83,2.83,0,0,0-.21-1.93.53.53,0,0,0-.17-.23.94.94,0,0,0-.38-.06,10.9,10.9,0,0,0-1.11.06,5.33,5.33,0,0,1-2.43-.18A4.75,4.75,0,0,1,53.27,794.47Z"/><path class="cls-41" d="M42.93,792.17a19.26,19.26,0,0,0,.49,4.47,7.92,7.92,0,0,1,.23,1.59.39.39,0,0,1-.1.32.41.41,0,0,1-.34,0,2.63,2.63,0,0,1-.73-.6,5.77,5.77,0,0,0-1.71-1.32,2.44,2.44,0,0,0-2.11-.06c-.1.05-.22.11-.32.06a.32.32,0,0,1-.17-.27,7.51,7.51,0,0,1,.63-5.1,6.9,6.9,0,0,1,3.85-3.35c.3-.1,1.1-.45,1.18,0s-.35,1-.45,1.31A10.78,10.78,0,0,0,42.93,792.17Z"/><path class="cls-69" d="M45.83,792.22l-7.12,3.63s1.77,0,2.3.59l4.67-1.78Z"/><path class="cls-23" d="M42.37,798.17a3.47,3.47,0,0,0-1.28-1.84,3.69,3.69,0,0,0-2.13-.7,2.9,2.9,0,0,0-1.09.17,2.93,2.93,0,0,0-1.73,2.36,5.1,5.1,0,0,0,0,1.51,4.58,4.58,0,0,0,.4,1.4,3.7,3.7,0,0,0,2,1.69,6.33,6.33,0,0,0,2.59.39A3,3,0,0,0,42.2,803a3.76,3.76,0,0,0,1-.73"/><ellipse class="cls-40" cx="49.5" cy="794.2" rx="3.99" ry="4.11" transform="translate(-93.77 11.46) rotate(-6.81)"/><circle class="cls-57" cx="57.08" cy="789.4" r="1.31"/><circle class="cls-57" cx="48.97" cy="791.69" r="1.31"/><path class="cls-22" d="M54,787.57a.53.53,0,0,1-.33,0,.39.39,0,0,1-.18-.28,1.49,1.49,0,0,1,.92-1.5,3.31,3.31,0,0,1,2.88-.11c.44.2,2,1.27,1.57,1.9-.28.4-1,0-1.3,0a8.45,8.45,0,0,0-1.66-.19A7.16,7.16,0,0,0,54,787.57Z"/><path class="cls-22" d="M45.26,790.54a.43.43,0,0,1-.28.16.38.38,0,0,1-.3-.16,1.49,1.49,0,0,1,.1-1.75,3.3,3.3,0,0,1,2.48-1.47c.49,0,2.37.17,2.29.93,0,.48-.82.49-1.17.59a7.26,7.26,0,0,0-1.54.61A7.8,7.8,0,0,0,45.26,790.54Z"/><path class="cls-12" d="M80.77,891A56.4,56.4,0,0,0,88,898.31c3.6,3-5.42-1.25-8-2.82s-3.6.35-4.69-1.45,2.1-4.28,2.1-4.28Z"/><path class="cls-22" d="M59.3,818.1s-1.82,2-1.39,4.11c0,0-6.53-.35-9.72-5.35A16.66,16.66,0,0,0,59.3,818.1Z"/><path class="cls-22" d="M62.52,816.64l3.94,1.47a5.07,5.07,0,0,0-.12-5.2A10,10,0,0,1,62.52,816.64Z"/><path d="M62.52,816.64a16,16,0,0,1-3.22,1.46l-1.11,1.82,3.44,1.53s4.15,10.8,3.14,18.76l2.51,2.5,3.23-3s-1.53-11.09-6.7-19l.46-3.25Z"/><path class="cls-40" d="M50.81,821.16s18,10.91,27.76-17.76l4.08,3.27s-4.09,31.74-28.77,26.59"/><path class="cls-10" d="M82.4,806.47l.25.2s-4.09,31.74-28.77,26.59l-.28-1.09C67.74,834,80.73,821.07,82.4,806.47Z"/><path class="cls-58" d="M41.19,799.31a2.58,2.58,0,0,0-1.8-1,1.63,1.63,0,0,0-1.66,1.07,3.44,3.44,0,0,1,2.69,0,2.75,2.75,0,0,1,1.42,1.41A3,3,0,0,0,41.19,799.31Z"/><path class="cls-23" d="M114.94,969.92c-.44-6.79-.57-9-8.27-11.91S94.15,955,90.84,956.89s-6.36,11.73-6.85,17,6.94,10.31,14.53,12.15S115.89,984.7,114.94,969.92Z"/><path class="cls-39" d="M108.5,977.86a2.26,2.26,0,0,1-.81-1.86,2.54,2.54,0,0,1,.69-1.12A17.33,17.33,0,0,1,115.3,970a3.62,3.62,0,0,1,2.74-.09,2.74,2.74,0,0,1,1.4,2.09,5.83,5.83,0,0,1-.33,2.58,13.72,13.72,0,0,1-3.4,5.54,4,4,0,0,1-2.12,1.25c-1.1.16-1.74-.62-2.4-1.33S109.31,978.71,108.5,977.86Z"/><path class="cls-23" d="M109.24,980.68a1.47,1.47,0,0,1,.69-1.1,3.52,3.52,0,0,1,1.26-.45,5.88,5.88,0,0,1,2.13-.1,2.84,2.84,0,0,1,1.81,1.06,3,3,0,0,1,.5,1.4,3.56,3.56,0,0,1-.53,2.45,3.28,3.28,0,0,1-2.37,1.28,5,5,0,0,1-2.69-.56c-.79-.38-1.58-1-1.55-1.92"/><path class="cls-22" d="M102.29,962.16a1.74,1.74,0,0,0-1.85,1,1.58,1.58,0,0,0,.27,1.42,2.37,2.37,0,0,0,1.24.81,2.22,2.22,0,0,0,2-.29,1.49,1.49,0,0,0,.4-1.87A3,3,0,0,0,102.29,962.16Z"/><path class="cls-58" d="M102.91,965.57a3.18,3.18,0,0,1-2-.36,5.58,5.58,0,0,1-1.6-1.29c-.22-.25-.44-.51-.64-.77a5.18,5.18,0,0,0-.55-.67.84.84,0,0,0-.6,0,1.77,1.77,0,0,0-.74.29,2.24,2.24,0,0,0-.85,1.34,5.48,5.48,0,0,0-.2,1.8,3.48,3.48,0,0,0,1.94,3,3,3,0,0,1-1.75-1,3.86,3.86,0,0,1-.9-1.9,5.31,5.31,0,0,1,.07-2.1,3,3,0,0,1,1.2-1.9,2.89,2.89,0,0,1,1.08-.4,2.78,2.78,0,0,1,.59,0,1.2,1.2,0,0,1,.7.27,5.11,5.11,0,0,1,.66.87l.54.79A4.53,4.53,0,0,0,102.91,965.57Z"/><path class="cls-22" d="M102.57,965.7a2.82,2.82,0,0,0-.62,3.36,2.58,2.58,0,0,0,2,1.14,3.76,3.76,0,0,0,2.28-.71,3.57,3.57,0,0,0,1.67-2.73,2.41,2.41,0,0,0-1.91-2.43A4.91,4.91,0,0,0,102.57,965.7Z"/><circle class="cls-70" cx="105.7" cy="965.24" r="0.92"/><circle class="cls-70" cx="102.75" cy="963.1" r="0.74"/><path class="cls-71" d="M107.1,965.19a6.09,6.09,0,0,0,.15,1.86,2.54,2.54,0,0,0,1,1.52,4.65,4.65,0,0,1-.19-2.25,9.91,9.91,0,0,1,.61-2.19,1.17,1.17,0,0,0,.08-.91.72.72,0,0,0-.26-.26.79.79,0,0,0-.58-.12c-.42.09-.54.57-.64.93A5.72,5.72,0,0,0,107.1,965.19Z"/><path class="cls-4" d="M90,974.79a1.89,1.89,0,0,0,1.25.92,7.81,7.81,0,0,0,1.74,0A4.26,4.26,0,0,1,96.08,977a6.1,6.1,0,0,1,1.52,3,6.55,6.55,0,0,0,2-2.17,2.91,2.91,0,0,0,0-2.83A3.28,3.28,0,0,0,98,973.9c-.63-.24-1.29-.37-1.93-.58a5.92,5.92,0,0,1-3.42-2.61,2.27,2.27,0,0,1-.31-.94,3.67,3.67,0,0,0,.26,2,2.73,2.73,0,0,1,.1,2,1.82,1.82,0,0,1-1.16.92A3.53,3.53,0,0,1,90,974.79Z"/><path class="cls-59" d="M94.15,975.84A4.51,4.51,0,0,1,96.08,977a6.1,6.1,0,0,1,1.52,3,6.55,6.55,0,0,0,2-2.17,1.94,1.94,0,0,0,.15-.36A4.74,4.74,0,0,0,94.15,975.84Z"/><path class="cls-71" d="M103.17,962.52a2.23,2.23,0,0,0,2.1.41c.24-.09.5-.32.42-.56s-.33-.29-.55-.33a11.39,11.39,0,0,1-1.73-.49c-.55-.21-1.06-.55-1.6-.75A3.81,3.81,0,0,0,103.17,962.52Z"/><path class="cls-35" d="M66,996.39s-16-3.67-16.74,13.7l2,1s4.34-12.88,20-4.9"/><path class="cls-35" d="M64.71,976.68s-5.88-4.1-16.82-4.07l-.48,2.78s8,.26,13.14,9.31"/><polyline class="cls-36" points="76.44 981.97 76.44 949.49 79.46 948.82 85.74 982.7"/><path class="cls-58" d="M111.27,981.23a2.82,2.82,0,0,1,1.32-.19.91.91,0,0,1,.72.33.84.84,0,0,1,.11.41,1.86,1.86,0,0,1-.36,1.13,1.2,1.2,0,0,0-.52-1.17,1.75,1.75,0,0,0-1.29-.25,1.25,1.25,0,0,0-.92.54A2.15,2.15,0,0,1,111.27,981.23Z"/><path class="cls-29" d="M105.21,1052.22l-11.62,7.22,5.6,9,11.62-7.22c.84-.53.27-3-1.27-5.45S106.05,1051.69,105.21,1052.22Z"/><path class="cls-72" d="M105.21,1052.22l-11.62,7.22,1.74,2.8,12.93-8.23C107,1052.59,105.83,1051.83,105.21,1052.22Z"/><ellipse class="cls-30" cx="96.39" cy="1063.94" rx="1.8" ry="5.3" transform="translate(-547.54 211.52) rotate(-31.89)"/><ellipse class="cls-31" cx="96.7" cy="1063.75" rx="1.44" ry="4.24" transform="translate(-547.39 211.65) rotate(-31.89)"/><path class="cls-23" d="M91,1138.44s4-7.21,4.44-14.36-.7-12.51,7.64-15,15.54,7,15,11.07-5.38,6.12-5.38,6.12,1.11,6.63.22,10.26-5.48,3-6.8-3.44c0,0-3.17,1.1-4.54,3.3,0,0-2.85-3.86-6.92.91,0,0,4.8,0,6.35,2,0,0-5.57,1.25-7.2,2.84a3,3,0,0,1-2.55-.92A3.23,3.23,0,0,1,91,1138.44Z"/><path class="cls-42" d="M99.41,1128.48s2-8.88,5.08-14.54c0,0,9.76-2.86,18.07,7a21.22,21.22,0,0,0-1.64-12.29l9.86-4.81s-20.26-8.43-38,5.21C92.82,1109.09,92.41,1122.93,99.41,1128.48Z"/><path class="cls-73" d="M102.7,1106.87c6.93-3.47,15.78-3.55,23.21-.61l4.87-2.38s-20.26-8.43-38,5.21c0,0-.34,11.46,4.88,17.7C94.13,1120,95.8,1111.18,102.7,1106.87Z"/><path class="cls-23" d="M97,1126.48a5.83,5.83,0,0,0-.67-4.28,2.94,2.94,0,0,0-1-1.08,3.15,3.15,0,0,0-2.86.13,3.36,3.36,0,0,0-1.48,1.2,3.72,3.72,0,0,0-.44,1.5,5.16,5.16,0,0,0,0,1.36,3.64,3.64,0,0,0,1.75,2.53,4.18,4.18,0,0,0,4.19,0"/><path class="cls-58" d="M95.29,1125.47a2.07,2.07,0,0,0-2.27-2.18,1.57,1.57,0,0,0-1.1.41,2.72,2.72,0,0,1,1.9.87,4.41,4.41,0,0,1,.91,1,3.47,3.47,0,0,1,.36,1.16A3.27,3.27,0,0,0,95.29,1125.47Z"/><path class="cls-74" d="M112,1126a2.28,2.28,0,0,0,.36,1.36,2.23,2.23,0,0,0,2.17.68,3.92,3.92,0,0,0,2.69-1.69,3.23,3.23,0,0,0,.24-3.11c-.59-1.23-2.34-2.14-3.51-1.22A5.12,5.12,0,0,0,112,1126Z"/><path class="cls-22" d="M112.5,1125.47a2,2,0,0,0,.33,1.19,2.14,2.14,0,0,0,2,.58,3.65,3.65,0,0,0,2.46-1.46,2.72,2.72,0,0,0,.22-2.71c-.54-1.07-2.14-1.86-3.21-1.06A4.4,4.4,0,0,0,112.5,1125.47Z"/><path class="cls-74" d="M106.2,1124.77a2.44,2.44,0,0,0,3.21,2.58,5,5,0,0,0,3.4-2.14,4.1,4.1,0,0,0,.31-3.94c-.75-1.56-3-2.71-4.45-1.55A6.52,6.52,0,0,0,106.2,1124.77Z"/><path class="cls-22" d="M106.71,1124.06a2.18,2.18,0,0,0,.42,1.42,2.76,2.76,0,0,0,2.51.7,4.62,4.62,0,0,0,3.11-1.76,3.15,3.15,0,0,0,.28-3.26c-.69-1.29-2.71-2.24-4.06-1.28A5.22,5.22,0,0,0,106.71,1124.06Z"/><circle cx="109.14" cy="1126.07" r="1.44"/><circle cx="114.42" cy="1126.94" r="1.2"/><path class="cls-75" d="M112.2,1118.42a1.66,1.66,0,0,0-.19-1,1.35,1.35,0,0,0-1.21-.52,3.1,3.1,0,0,0-1.29.44,6.6,6.6,0,0,0-1.08.73c-.2.18-.79.63-.71.93a7.3,7.3,0,0,0,1-.3,9.12,9.12,0,0,1,1.16-.22A9.91,9.91,0,0,1,112.2,1118.42Z"/><path class="cls-75" d="M115.5,1119.73a1.82,1.82,0,0,1,.67-.8,1.12,1.12,0,0,1,1.17.08,2.5,2.5,0,0,1,.74,1,5.22,5.22,0,0,1,.44,1.12c.06.24.27.89.06,1.11a6,6,0,0,1-.61-.71,6.22,6.22,0,0,0-.75-.7A7.21,7.21,0,0,0,115.5,1119.73Z"/><path class="cls-23" d="M97,1145.21c-.59-3.43-5.15-2.3-8.57-.38-3.92,2.21-13,.93-11.92-16.54,0,0,3.57.54,3.77-1s-1-1.67-1-1.67,3.11-3.09-.66-4.88-4.68.7-5.22,8.76-2.46,19.44,7.79,21.08S97.61,1148.81,97,1145.21Z"/><path class="cls-23" d="M75.28,1112.43a3.59,3.59,0,0,0,1.67,1.18,2.34,2.34,0,0,0,2-.23,2.88,2.88,0,0,0,.85-1,4.64,4.64,0,0,0,.64-3.1,3.5,3.5,0,0,0-1.79-2.56,4.89,4.89,0,0,0-1.65-.42,3.83,3.83,0,0,0-1.39.08C73.2,1107.08,74.15,1111.06,75.28,1112.43Z"/><path class="cls-22" d="M32.44,1160.76a13.45,13.45,0,0,0-5.15-5.21,8,8,0,0,1,0,5.37,5.81,5.81,0,0,1,.61.61c1.68,2.09,1.21,3.45,2.79,3.43s3.37-1.63,3.37-1.63Z"/><path class="cls-22" d="M27.29,1155.55a8.36,8.36,0,0,0-4-1c-5.44.08,1.45,4.06,4,6.34A8,8,0,0,0,27.29,1155.55Z"/><path class="cls-76" d="M32.44,1160.76a13.45,13.45,0,0,0-5.15-5.21,8,8,0,0,1,0,5.37,5.81,5.81,0,0,1,.61.61c1.68,2.09,1.21,3.45,2.79,3.43s3.37-1.63,3.37-1.63Z"/><path class="cls-76" d="M74.44,1202.42a12.39,12.39,0,0,0,1.18-1.76s-.52-1.91-3.36-3.12l-2,2.17c0,.13-.57,1.89-1.12,3.88a5.19,5.19,0,0,1,3.81.23c.19-.36.37-.73.53-1.11C73.44,1202.71,73.9,1203,74.44,1202.42Z"/><path class="cls-23" d="M108.66,1304.23c-2.22-4.77-5.6-7.65-9.61-6.26s-4.79,9.64-5.54,13.38a16.05,16.05,0,0,1-5-3.09c-1.94-2-8.39,10.48,4.65,10.28l-3,5.23s9.16.88,8.5-7.74l1.3,0s2.68,5.68.58,10.34-9.21,3.21-9.21,3.21,5.38,3.42,6.89,8.33c0,0,2.25,1.33,3.54-.7a52.27,52.27,0,0,1,2-13.77C105.78,1316.65,111.24,1309.76,108.66,1304.23Z"/><path class="cls-3" d="M103.23,1325.22s5.14-5.21,8.2-8.22,6.37-9.79.66-14.91-14.23-10.93-14.62-19.61c0,0-21.1,20.15,5.23,24.93,0,0,2.24,10.17.41,13.11l1.34-.12Z"/><path class="cls-77" d="M112.09,1302.09c-5.72-5.12-14.23-10.93-14.62-19.61l-.14.14c-.92,2.92-2.23,6.24-.8,9.35,4,7,16,10,14,20a18,18,0,0,1-6.17,8.44h.09l-1.22,4.82s5.14-5.21,8.2-8.22S117.8,1307.21,112.09,1302.09Z"/><path class="cls-23" d="M102.51,1319.86a1.64,1.64,0,0,1,.33-1.81,2.81,2.81,0,0,1,2.23-.77,3.54,3.54,0,0,1,1,.27,3.28,3.28,0,0,1,1.18.8,1.78,1.78,0,0,1,.14,2.21A3.74,3.74,0,0,1,105,1322a3,3,0,0,1-1.92-.21"/><path class="cls-58" d="M104.41,1319.16a1.58,1.58,0,0,1,1.39-.39.77.77,0,0,1,.63.55,1.69,1.69,0,0,0-1.52,0,2.46,2.46,0,0,0-1.11,1.1s0,.08,0,.11a1.36,1.36,0,0,0,.05-.36,2,2,0,0,1,.54-1Z"/><path class="cls-22" d="M91,1309.15a2.45,2.45,0,0,0,.15,2.19,2.28,2.28,0,0,0,1.89,1.07,2.53,2.53,0,0,0,2-.7,2.48,2.48,0,0,0,.73-2.62,2,2,0,0,0-.43-.81,2,2,0,0,0-.86-.52A2.75,2.75,0,0,0,91,1309.15Z"/><path class="cls-74" d="M95.78,1309.09l-.06-.15a2.27,2.27,0,0,1-.8,1.64,2.51,2.51,0,0,1-2,.69,2.23,2.23,0,0,1-1.89-1.06,2,2,0,0,1-.18-.4,2.39,2.39,0,0,0,.31,1.53,2.28,2.28,0,0,0,1.89,1.07,2.53,2.53,0,0,0,2-.7A2.48,2.48,0,0,0,95.78,1309.09Z"/><path class="cls-22" d="M94,1310.86a3.18,3.18,0,0,0,.2,2.88,3,3,0,0,0,2.5,1.41,4.83,4.83,0,0,0,1.3-.25,4.32,4.32,0,0,0,1.36-.67,3.28,3.28,0,0,0,1-3.46,2.58,2.58,0,0,0-.56-1.06,2.62,2.62,0,0,0-1.14-.69A3.62,3.62,0,0,0,94,1310.86Z"/><path class="cls-74" d="M98.63,1313.89a4.55,4.55,0,0,1-1.31.26,3,3,0,0,1-2.5-1.41,3.25,3.25,0,0,1-.24-2.74,3.14,3.14,0,0,0-.54.86,3.18,3.18,0,0,0,.2,2.88,3,3,0,0,0,2.5,1.41,4.83,4.83,0,0,0,1.3-.25,4.32,4.32,0,0,0,1.36-.67,2.78,2.78,0,0,0,.9-1.29c-.1.1-.2.2-.31.29A4.29,4.29,0,0,1,98.63,1313.89Z"/><circle class="cls-57" cx="93.12" cy="1308.61" r="0.98"/><circle class="cls-57" cx="96.48" cy="1310.31" r="1.08"/><path class="cls-57" d="M101.48,1308.26l-.2,1.45s-3-1.48-5.5-.62a5,5,0,0,0-3.11-2.14l.24-1.59s2.63,1.36,3,3.25C95.94,1308.61,97.34,1307,101.48,1308.26Z"/><path class="cls-57" d="M67.69,1329.08c-.18-.15-.37-.28-.54-.43a4.29,4.29,0,0,1-.48-.56,2.22,2.22,0,0,1-.34-.52,2.47,2.47,0,0,1-.11-.54,1.48,1.48,0,0,1,.11-.91,1.12,1.12,0,0,1,.32-.33,1.43,1.43,0,0,1,1.19-.28,1.61,1.61,0,0,1,.44.21,2.54,2.54,0,0,1,.5.36,2.33,2.33,0,0,1,.62,1.89,1.42,1.42,0,0,1-.23.7,3.33,3.33,0,0,1-.36.39,1.93,1.93,0,0,0-.28.36c0,.07-.13.35-.22.33s-.2-.28-.26-.34A2.24,2.24,0,0,0,67.69,1329.08Z"/><path class="cls-78" d="M108.66,1399.32s-10.77-5.37-16.85,2.44h17.13Z"/><ellipse class="cls-79" cx="106.91" cy="1359.81" rx="11.96" ry="21.79"/><ellipse class="cls-79" cx="107.69" cy="1360.53" rx="8.51" ry="21.07"/><ellipse class="cls-80" cx="107.21" cy="1359.81" rx="9.99" ry="21.79"/><ellipse class="cls-81" cx="107.79" cy="1359.13" rx="10.31" ry="18.79"/><ellipse class="cls-81" cx="107.12" cy="1359.75" rx="7.34" ry="18.17"/><ellipse class="cls-82" cx="107.54" cy="1359.13" rx="8.62" ry="18.79"/><ellipse class="cls-83" cx="110.01" cy="1359.42" rx="12.53" ry="19.97"/><ellipse class="cls-83" cx="110.82" cy="1360.08" rx="8.91" ry="19.31"/><ellipse class="cls-84" cx="110.31" cy="1359.42" rx="10.47" ry="19.97"/><ellipse class="cls-85" cx="110.93" cy="1358.8" rx="10.8" ry="17.22"/><ellipse class="cls-85" cx="110.22" cy="1359.37" rx="7.69" ry="16.65"/><ellipse class="cls-14" cx="110.66" cy="1358.8" rx="9.03" ry="17.22"/><ellipse class="cls-83" cx="113.97" cy="1357.44" rx="12.53" ry="19.97" transform="translate(-125.97 16.52) rotate(-5.35)"/><ellipse class="cls-83" cx="114.84" cy="1358.02" rx="8.91" ry="19.31" transform="translate(-126.02 16.61) rotate(-5.35)"/><ellipse class="cls-84" cx="114.27" cy="1357.41" rx="10.47" ry="19.97" transform="translate(-125.97 16.55) rotate(-5.35)"/><ellipse class="cls-85" cx="114.83" cy="1356.73" rx="10.8" ry="17.22" transform="translate(-125.9 16.6) rotate(-5.35)"/><ellipse class="cls-85" cx="114.18" cy="1357.37" rx="7.69" ry="16.65" transform="translate(-125.96 16.54) rotate(-5.35)"/><ellipse class="cls-14" cx="114.56" cy="1356.76" rx="9.03" ry="17.22" transform="translate(-125.91 16.57) rotate(-5.35)"/><path class="cls-13" d="M109.34,1344.14s6.87,5.66,5.65,14-15.46,3.93-15.46,3.93l-.88-4.09s7.77,1.82,10.33,0-1.86-6.44-1.86-6.44S107.36,1346.65,109.34,1344.14Z"/><path class="cls-23" d="M98.65,1358a2.8,2.8,0,0,0-.82-2.06c-.9-.79-1,1.09-.48,2.21a11.3,11.3,0,0,1-3-1c-.78-.53-1.46,1.31.59,2.12a10.55,10.55,0,0,0,2.29.79s-2-.33-2.8-.54-1.12,1-.07,1.34a15,15,0,0,0,3,.29s-2.66.07-3.07.47,0,.94,1.33.82c1.06-.1,2.31-.33,2.31-.32a7.25,7.25,0,0,0,1.59,0Z"/><path class="cls-14" d="M105.55,1338s-8.22.53-13.41,14.74"/><path class="cls-23" d="M74.91,595.78c-.56-.54-1-1.16-1.63-1.65a.7.7,0,0,0-.54-.21c-.28.06-.39.39-.39.67a5,5,0,0,0,1.15,2.53.31.31,0,0,1,.07.2c0,.11-.1.19-.2.24a2.56,2.56,0,0,1-1,.23,21.16,21.16,0,0,1-3.9,0,1.86,1.86,0,0,0-1.36.19,1.17,1.17,0,0,0-.07,1.6,2.43,2.43,0,0,0,1.58.75,13.31,13.31,0,0,0,3.92-.29.36.36,0,0,1,.29,0c.14.14,0,.36-.2.46a35.28,35.28,0,0,0-3.41,1.89,1.28,1.28,0,0,0-.6,1.07,1.07,1.07,0,0,0,.65.77,2.32,2.32,0,0,0,1.37.21c1.31-.22,2.13-1.51,3.27-2.21a.34.34,0,0,1,.14-.05.28.28,0,0,1,.15.08c.37.35-.15,2-.34,2.35a2.79,2.79,0,0,0-.26.95,1.11,1.11,0,0,0,0,.6.82.82,0,0,0,.95.36,2.43,2.43,0,0,0,.92-.58,14.26,14.26,0,0,0,2.35-5.51c0-1,.08-2.44-.66-3.21a2.68,2.68,0,0,0-.92-.51A5.15,5.15,0,0,1,74.91,595.78Z"/><circle class="cls-38" cx="82.95" cy="979.39" r="1.19"/><circle class="cls-38" cx="78.21" cy="980.58" r="1.19"/><circle class="cls-38" cx="73.81" cy="981.71" r="1.19"/><path class="cls-22" d="M87.35,980.58s1.85,3.81-.82,6.56c0,0,12.27,4,18.89.83v-1.74S97.92,988.76,87.35,980.58Z"/><path class="cls-15" d="M77,175.31a4.08,4.08,0,0,0-1.81,1.75,2.42,2.42,0,0,0,.14,2.44,2.32,2.32,0,0,0,2.15.86,3.34,3.34,0,0,0,2.08-1.16,3,3,0,0,0,.54-3.43C79.33,174.45,78.22,174.68,77,175.31Z"/><path class="cls-6" d="M78.79,305.35A4.06,4.06,0,0,0,76.3,305a2.42,2.42,0,0,0-1.85,1.6,2.35,2.35,0,0,0,.62,2.23,3.41,3.41,0,0,0,2.19.94,3,3,0,0,0,3.06-1.65C80.88,306.66,80,305.92,78.79,305.35Z"/><path class="cls-15" d="M70,178.33a6.21,6.21,0,0,1,1.08,2,3.7,3.7,0,0,1,1.51-1.16,6.74,6.74,0,0,1,4.42-.43c.74.19,1-.4.34-.77a6,6,0,0,0-2.35-.51A10,10,0,0,0,70,178.33Z"/><path class="cls-15" d="M74,180a10.71,10.71,0,0,0-2.09,3.55,5.82,5.82,0,0,1,1.49.6c.48-.92.81-1.92,1.27-2.85a7,7,0,0,1,1-1.5c.18-.2,1-.68.84-.93C76,177.88,74.19,179.68,74,180Z"/><path class="cls-6" d="M72.89,310.21a15,15,0,0,0-.93,2.92,5.6,5.6,0,0,1,2,.49,15,15,0,0,1,.16-2.6,5.16,5.16,0,0,1,1-2.38,1.43,1.43,0,0,0,.44-.73c.08-1-1.2.06-1.41.29A6.88,6.88,0,0,0,72.89,310.21Z"/><path class="cls-6" d="M80.2,310.69a9.17,9.17,0,0,1,.39,3.12,4.48,4.48,0,0,0,1.43-.72.35.35,0,0,0,.13-.14.41.41,0,0,0,0-.22,5.74,5.74,0,0,0-.73-2.3A5.2,5.2,0,0,0,80.38,309c-.38-.33-1.53-1-1.16-.15A15.32,15.32,0,0,1,80.2,310.69Z"/><path class="cls-15" d="M74.57,470.31a2.07,2.07,0,0,0,.18,1.3,2.17,2.17,0,0,0,1.91.9,4.06,4.06,0,0,0,2.86-1.09,3.27,3.27,0,0,0,1-2.86C79.72,464.26,74.91,467.5,74.57,470.31Z"/><path class="cls-15" d="M81.28,466.69a8.31,8.31,0,0,0,.57-2.79,1.06,1.06,0,0,0,.39.45l1.61,1.25a6,6,0,0,1-2.11,2.65,4.25,4.25,0,0,1-1.58.78c-.56.1-.29-.41,0-.67A5.86,5.86,0,0,0,81.28,466.69Z"/><path class="cls-15" d="M79.76,474.62l1.93-1.06a.23.23,0,0,0,.12-.09.32.32,0,0,0,0-.17,3.41,3.41,0,0,0-.79-2.15,2.17,2.17,0,0,0-1.45-.75c-.53,0-.41.53-.25.87a5.43,5.43,0,0,1,.53,1.67,5.15,5.15,0,0,1,0,.88C79.89,474,79.88,474.56,79.76,474.62Z"/><path class="cls-6" d="M74.9,751.18a2.23,2.23,0,0,0-.11,2.16,2.07,2.07,0,0,0,1.12.8,3.47,3.47,0,0,0,3.23-.44,2.63,2.63,0,0,0-.06-4.31C77.48,748.33,75.69,749.69,74.9,751.18Z"/><path class="cls-6" d="M72.67,755.14c0,1,.39,1.94.24,2.91a5,5,0,0,1-1.56,2.54,5.87,5.87,0,0,1,1.91.3,4.65,4.65,0,0,0,.85-3.69,7.63,7.63,0,0,1-.37-2,2.11,2.11,0,0,1,1.18-1.7c.46-.22,1.15-.46.85-1.11s-.84-.32-1.26-.06A3.66,3.66,0,0,0,72.67,755.14Z"/><path class="cls-6" d="M73.16,749.76a7.07,7.07,0,0,0-2.71-.13,5.19,5.19,0,0,1-.12,1.47,8,8,0,0,1,2.18,0,3.24,3.24,0,0,1,1.92,1c.7.78,1.13-.25.85-.91A3.38,3.38,0,0,0,73.16,749.76Z"/><path class="cls-6" d="M74.94,927.25a1.91,1.91,0,0,0,2,2.24,3.91,3.91,0,0,0,1.66-.47,1.79,1.79,0,0,0,.67-.51,1.64,1.64,0,0,0,.22-.72A2.44,2.44,0,0,0,77.48,925,2.66,2.66,0,0,0,74.94,927.25Z"/><path class="cls-6" d="M80.23,924.27a17.29,17.29,0,0,1,3-1l.05,2a7.92,7.92,0,0,0-4.51,1.28,3.34,3.34,0,0,1,3.16,4.14,12.1,12.1,0,0,0-1.85.6,2.08,2.08,0,0,0,.46-1.73,2.12,2.12,0,0,0-1-1.45c-.7-.38-2.18-.74-1.73-1.89C78.06,925.38,79.51,924.61,80.23,924.27Z"/><path class="cls-15" d="M75.68,1064.64a3.93,3.93,0,0,0-1.7,2.52,2.5,2.5,0,0,0,0,1.09,2.58,2.58,0,0,0,2,1.57,3.93,3.93,0,0,0,3.27-.71A3.34,3.34,0,0,0,80.5,1066a2.9,2.9,0,0,0-1.85-2.26A4.51,4.51,0,0,0,75.68,1064.64Z"/><path class="cls-15" d="M69,1068a3.84,3.84,0,0,0,.29,1.8,10,10,0,0,1,5.54-1.5.47.47,0,0,0,.26,0,1.14,1.14,0,0,0,0-1.5c-.41-.35-1.27-.21-1.74-.17A9.85,9.85,0,0,0,69,1068Z"/><path class="cls-86" d="M100.07,141.75c.25,5.05.42,10.1.57,15.16l.38,15.17.2,15.17c0,5.05.06,10.11,0,15.17-.25-5.06-.42-10.11-.58-15.17l-.37-15.16-.2-15.17C100,151.87,100,146.81,100.07,141.75Z"/><path class="cls-86" d="M108.5,157.53c.1,2.5.19,5,.24,7.5l.1,7.5V180q0,3.75-.14,7.5-.16-3.75-.24-7.5l-.11-7.5V165Q108.38,161.28,108.5,157.53Z"/><path class="cls-86" d="M95.82,165.38q.17,3.75.24,7.5l.11,7.5v7.5q0,3.75-.14,7.5-.17-3.75-.24-7.5l-.11-7.5v-7.5Q95.71,169.13,95.82,165.38Z"/><path class="cls-86" d="M56.81,195.75c.29,3.4.47,6.81.61,10.22s.18,6.81.22,10.23,0,6.82-.16,10.23-.27,6.81-.55,10.21Z"/><path class="cls-86" d="M48.38,209.75c.24,4,.29,7.93.36,11.89s0,7.92-.14,11.89c-.25-4-.3-7.92-.36-11.89S48.21,213.72,48.38,209.75Z"/><path class="cls-86" d="M99.31,1035c.16,2.46.17,4.93.14,7.4s-.13,4.93-.37,7.38c-.15-2.47-.16-4.93-.13-7.39S99.08,1037.44,99.31,1035Z"/><path class="cls-86" d="M103.46,1029.75c.17,2.91.15,5.82.14,8.73s-.11,5.81-.36,8.72c-.17-2.91-.14-5.82-.14-8.73S103.22,1032.66,103.46,1029.75Z"/><path class="cls-86" d="M108.44,1034c.18,2.49.2,5,.19,7.45s-.09,5-.31,7.44c-.17-2.48-.2-5-.19-7.44S108.23,1036.45,108.44,1034Z"/><path class="cls-53" d="M44.86,409.35s5.8-14.63,10.26-14.47,8.81,8.52,8.37,15.66-11.25,5.21-11.25,5.21"/><path class="cls-57" d="M73.25,390.6s9.37-11.84,15.25-14.3c0,0,14.85,17.81,3.31,35.07,0,0-3.77-4.08-8.63-2.34Z"/><path class="cls-87" d="M96.19,397.45c.13-11.75-7.69-21.15-7.69-21.15-5.88,2.46-15.25,14.3-15.25,14.3L79,401.2A12.7,12.7,0,0,0,96.19,397.45Z"/><path class="cls-23" d="M104.86,375.55s3.67-3.3,6.32-3.56c3.11-.31.47,3.61-6.16,5.92Z"/><path class="cls-23" d="M98,423.83s3,2.74,4.65,4.35-3.43,3.16-4.65,1.35-1-5.35-1-5.35Z"/><path class="cls-88" d="M45.23,413.12a1.28,1.28,0,0,0,.79.3,1.18,1.18,0,0,0,.6-.3,8.18,8.18,0,0,0,3-5.73c-4.05.8-7.54-4-11.63-3.42-1.21.17-3.82,1.12-4.33,2.39-.59,1.47,1.61,2,2.62,2.37A40.12,40.12,0,0,1,45.23,413.12Z"/><path class="cls-23" d="M45.41,389.38a2.33,2.33,0,0,1,2.39,1.19,15.2,15.2,0,0,1,1.49,9.11,9,9,0,0,1-2.2,5c-1.07,1.12-5.89,5.11-11.55,4.63a15.48,15.48,0,0,1-8.2-3.64,18,18,0,0,1-5.07-5.89,9.25,9.25,0,0,1-.48-7.57,10,10,0,0,1,1.85-2.77,10.69,10.69,0,0,1,10-3.69c2.61.45,4.64,2.4,7.15,3.19A10.91,10.91,0,0,0,45.41,389.38Z"/><path class="cls-88" d="M46,406.85l4.22-6a12.36,12.36,0,0,1,5,13.34s-6,1.31-9.56-.81S46,406.85,46,406.85Z"/><polygon class="cls-89" points="54.27 405.43 50.06 407.69 54.78 406.56 54.27 405.43"/><path class="cls-3" d="M33.22,382s6,11.5-7.55,24.75c0,0-3.78.44-7.5-5.91S18.18,377.26,33.22,382Z"/><path class="cls-90" d="M24.59,381.81A17.71,17.71,0,0,0,19.93,399c1.46,3.41,2.92,5.89,6.27,7.15l-.53.55s-3.78.44-7.5-5.91C15.31,395.93,16.87,384.62,24.59,381.81Z"/><path class="cls-23" d="M29.88,404.83A3,3,0,0,0,25.63,409a3.28,3.28,0,0,0,2.86,1,4,4,0,0,0,2.64-1.6,2.68,2.68,0,0,0,.56-1.28,1.57,1.57,0,0,0-.4-1.3"/><path class="cls-58" d="M26.68,407.81s-.26-1.95,1.29-2.33,2,1.78,2,1.78-.89-1.47-1.93-1.18S26.68,407.81,26.68,407.81Z"/><path class="cls-89" d="M39.56,393.05a9.1,9.1,0,0,0,2.41-.29,14.59,14.59,0,0,0,2.26-.93l.3-.12a.81.81,0,0,1,.51,0,1,1,0,0,1,.54.68,5.66,5.66,0,0,1,.3,1.26,1.84,1.84,0,0,1-1.21,2.12,1.46,1.46,0,0,0,.68-.92,2.24,2.24,0,0,0,0-1.12,7.4,7.4,0,0,0-.38-1.12.64.64,0,0,0-.17-.28,1,1,0,0,0-.36.13c-.37.16-.72.32-1.12.48a5.6,5.6,0,0,1-1.25.32A5.36,5.36,0,0,1,39.56,393.05Z"/><path class="cls-22" d="M39.78,393.73a2.88,2.88,0,0,1,.89,1.55,2.52,2.52,0,0,1-1,2.43,2.79,2.79,0,0,1-2.37.31,3.47,3.47,0,0,1-1.87-1.24,3.17,3.17,0,0,1-.61-2.38C35.26,391.72,38.51,392.51,39.78,393.73Z"/><path class="cls-22" d="M41.37,388.79a2.53,2.53,0,0,1,.79,1.38,2.23,2.23,0,0,1-.9,2.15,2.5,2.5,0,0,1-2.1.27,3.08,3.08,0,0,1-1.66-1.09,2.87,2.87,0,0,1-.54-2.12C37.37,387,40.25,387.71,41.37,388.79Z"/><path class="cls-22" d="M41.79,388.79a2.59,2.59,0,0,1,.79,1.38,2.25,2.25,0,0,1-.9,2.15,2.51,2.51,0,0,1-2.1.27,3.07,3.07,0,0,1-1.67-1.09,2.87,2.87,0,0,1-.53-2.12C37.78,387,40.66,387.71,41.79,388.79Z"/><path class="cls-91" d="M45.08,398.51a5,5,0,0,1-3.17,2c-1.56.28-3.14-.2-4.71-.38a2,2,0,0,0-.94.05,2,2,0,0,0-1,1.3,3.31,3.31,0,0,0-.22,2A3,3,0,0,0,36.23,405a4.85,4.85,0,0,0,1.77.82,2,2,0,0,0,.9,0,1.89,1.89,0,0,0,.73-.41,17.7,17.7,0,0,0,1.5-1.84,4.77,4.77,0,0,1,4-1.57"/><circle class="cls-12" cx="39.98" cy="391.59" r="1.34"/><circle class="cls-12" cx="38.13" cy="396.81" r="1.34"/><path class="cls-12" d="M37.47,391.11A3,3,0,0,1,36,388.94a6.59,6.59,0,0,1,.17-2.72.3.3,0,0,1,.07-.15,1.21,1.21,0,0,1,1.35.26c.17.36-.21,1-.31,1.31A5.43,5.43,0,0,0,37.47,391.11Z"/><path class="cls-12" d="M35.05,393.92a3.63,3.63,0,0,0-1.2,2.23,9.42,9.42,0,0,1-1.42-1.26.23.23,0,0,1-.08-.14.19.19,0,0,1,0-.13,3.14,3.14,0,0,1,1.21-1.13,7.09,7.09,0,0,1,1.69-.75,3.41,3.41,0,0,1,1.81-.17c0,.28-.74.46-1,.59A5.4,5.4,0,0,0,35.05,393.92Z"/><path class="cls-92" d="M45.65,402.38a11.65,11.65,0,0,0-3.17,3.2,1.25,1.25,0,0,1-1,.74,1.58,1.58,0,0,1-1.16-.83,14.7,14.7,0,0,1-1.85-5.2l1.47-.38a2,2,0,0,0,1.2,1.08,3.45,3.45,0,0,0,1.66.06A5.35,5.35,0,0,0,46.07,399a2.26,2.26,0,0,0,.53-1.77s.72,1.48-1.38,2.94Z"/><path class="cls-22" d="M46.6,397.19s1.25,3.45-3.35,4.59c-3.43.85-3.36-1.87-3.36-1.87s1,1.79,3.42.87A6.15,6.15,0,0,0,46.6,397.19Z"/><path class="cls-22" d="M42.48,405.58s2.06-3,4.68-3.87C47.16,401.71,43.49,401.06,42.48,405.58Z"/><path class="cls-3" d="M31,397.79a4.76,4.76,0,0,0,0,3.65,15.63,15.63,0,0,0,1.83,3.26A11.73,11.73,0,0,1,34.52,408a9.31,9.31,0,0,1,.26,2.52,4.51,4.51,0,0,1-.72,2.73,10,10,0,0,0-2.63-5.64c-.59-.61-1.26-1.15-1.8-1.8a10.64,10.64,0,0,1-2.05-4.9"/><rect class="cls-48" x="36.72" y="91.97" width="81.34" height="16.22"/><path class="cls-93" d="M77.4,10.54H34.88s3.25,33,42.52,33"/><path class="cls-93" d="M77.4,10.54h42.51s-3.25,33-42.51,33"/><rect class="cls-94" x="49.98" width="54.84" height="21.07" rx="5.12"/><path class="cls-94" d="M57.39,21.07h40a0,0,0,0,1,0,0v2.11A17.12,17.12,0,0,1,80.28,40.31H74.51A17.12,17.12,0,0,1,57.39,23.19V21.07A0,0,0,0,1,57.39,21.07Z"/><path class="cls-95" d="M97.4,23.34V21.07h-40v2.27c0,.43,0,.84.07,1.26H97.34C97.37,24.18,97.4,23.77,97.4,23.34Z"/><rect class="cls-96" x="88.62" y="1.72" width="5.29" height="17.17"/><path class="cls-96" d="M88.61,25.55h5.3s-1.69,10.72-10,13.5A21.05,21.05,0,0,0,88.61,25.55Z"/><rect class="cls-97" x="74.66" y="46.44" width="5.47" height="17.22"/><rect class="cls-95" x="66.18" y="38" width="22.43" height="1.31"/><path class="cls-94" d="M66.18,39.31A9.69,9.69,0,0,0,75.87,49h3a9.69,9.69,0,0,0,9.69-9.68Z"/><path class="cls-94" d="M65.09,59.53H89.7a0,0,0,0,1,0,0V61A10.63,10.63,0,0,1,79.07,71.58H75.72A10.63,10.63,0,0,1,65.09,61V59.53A0,0,0,0,1,65.09,59.53Z" transform="translate(154.79 131.11) rotate(-180)"/><path class="cls-94" d="M65.09,59.53H89.7a0,0,0,0,1,0,0V61A10.63,10.63,0,0,1,79.07,71.58H75.72A10.63,10.63,0,0,1,65.09,61V59.53A0,0,0,0,1,65.09,59.53Z" transform="translate(154.79 131.11) rotate(-180)"/><path class="cls-98" d="M79.07,59.53H75.6a9.58,9.58,0,0,1,9.45,9.57v2.48H89.7V70.16A10.63,10.63,0,0,0,79.07,59.53Z"/><path class="cls-96" d="M82.45,41.11h3.7a9.93,9.93,0,0,1-7,7.22A10,10,0,0,0,82.45,41.11Z"/><rect class="cls-97" x="62.27" y="71.27" width="30.24" height="5.84"/><rect class="cls-99" x="53.83" y="76.55" width="47.13" height="15.42"/><rect class="cls-100" x="63.53" y="79.72" width="27.73" height="9.08"/><polygon class="cls-94" points="78.97 79.72 69.9 88.8 80.01 88.8 89.09 79.72 78.97 79.72"/></g></g></g></svg>