<svg xmlns="http://www.w3.org/2000/svg" viewBox="0 0 320.61 269.48"><defs><style>.cls-1{isolation:isolate;}.cls-2{fill:#b2b2b2;mix-blend-mode:multiply;}.cls-3{fill:#0b5371;}.cls-4{fill:#352927;}.cls-5{fill:#0f6e96;}.cls-6{fill:#f7c0b4;}.cls-7{fill:#cb9f94;}.cls-8{fill:#634e42;}.cls-9{fill:#b55f0b;}.cls-10{fill:#884708;}.cls-11{fill:#dd7d26;}.cls-12{fill:#878787;}.cls-13{fill:#ededed;}.cls-14{fill:#fff;}.cls-15{fill:#dadada;}.cls-16{fill:#6d2d38;}.cls-17{fill:#843c45;}.cls-18{fill:#9d636a;}.cls-19,.cls-24{fill:#3f1921;}.cls-20{fill:#004d26;}.cls-21{fill:#ce9a95;}.cls-22{fill:#fad9d2;}.cls-23{fill:#a04d5b;}.cls-24{opacity:0.5;}.cls-25{fill:#af7875;}.cls-26{fill:#4a3b32;}.cls-27{fill:#4f3e3a;}</style></defs><title>dice-char-sad</title><g class="cls-1"><g id="Layer_2" data-name="Layer 2"><g id="sad"><ellipse class="cls-2" cx="99.48" cy="261.98" rx="81.29" ry="7.3"/><path class="cls-3" d="M132.15,198.83s8.63,13.73,12.12,24-10.65,24.47-37.14,37.13L93.34,262s16.54-9.37,20.81-17S91.83,207,91.83,207Z"/><path class="cls-4" d="M94.24,263s21.35-13.1,40.94,0Z"/><path class="cls-5" d="M67.46,189.2s-8.66,13.37,7.42,27,20.59,14.06,9.56,24.92-22,21.92-22,21.92l14-2.24s32.4-15.39,40-20.8,5.87-15.28-6.78-35.49S78,176.72,67.46,189.2Z"/><path class="cls-6" d="M167.56,163.91s14.87,18.06,35.06,23.56-3-32,1.23-73.42S152.53,80.68,144,110.66,161.47,158,167.56,163.91Z"/><path class="cls-7" d="M192.32,150.13c5.45-14,10.28-28,11.68-42.52-2-34-51.94-25.26-60,3-8.53,30,17.46,47.35,23.55,53.25,0,0,14.87,18.06,35.06,23.56,7.82,2.13,9.14-2.19,8.07-10.67C197.62,177.18,186.94,164.46,192.32,150.13Z"/><path class="cls-8" d="M190.37,187.29l24-11.15s3.91,18.35,3.92,25.42S204.93,212.28,190.37,187.29Z"/><path class="cls-9" d="M272.87,211.36a1.86,1.86,0,0,0,.34.06c2.14.15,4.1-2.77,4.37-6.52s-1.19-6.79-3.27-7.06v0L51.82,177.38,50.57,191Z"/><path class="cls-10" d="M277.6,204.48c.13-3.5-1.29-6.38-3.29-6.64v0L51.82,177.38,51.21,184Z"/><ellipse class="cls-11" cx="51.42" cy="184.18" rx="6.82" ry="3.9" transform="translate(-135.97 222.31) rotate(-85.9)"/><polygon class="cls-12" points="257.57 140.27 248.14 264.71 311.17 269.48 320.61 144.82 257.57 140.27"/><polygon class="cls-13" points="257.57 140.27 256.56 153.56 319.57 158.59 320.61 144.82 257.57 140.27"/><path class="cls-14" d="M32.88,69.47s20.54-47.24,98.71-40.4S195.53,132.6,195.53,132.6s-11.28,30.7-30.08,35c0,0-12.9,40.12-50.74,42.88S64.44,195,60,175,32.88,69.47,32.88,69.47Z"/><path class="cls-15" d="M88.32,177.13c7-7,16-11,26-9-10-4-22-16-14-24C133.88,113.37,126.59,67,115.73,28.4c-65.13.34-82.85,41.07-82.85,41.07S55.54,155,60,175c2.55,11.45,7.73,22.32,18.8,29C78.39,194.42,82.19,184.62,88.32,177.13Z"/><path class="cls-15" d="M186.18,64.85c11.89,40.66,8.06,97.81-42.86,102.28,3,1,7,1,9,4,2,7-1,14-5,19a69.39,69.39,0,0,1-34.86,20.48c.75,0,1.48-.07,2.25-.13,37.84-2.76,50.74-42.88,50.74-42.88,18.8-4.3,30.08-35,30.08-35S201.08,94.85,186.18,64.85Z"/><path class="cls-16" d="M153.78,8.17s.12-8.89,6.34-8.12,31.18,25.87,13.16,50.86S146.54,20.91,153.78,8.17Z"/><path class="cls-6" d="M129.68,3.25c17.6-5.37,51.3,6.32,41.77,41.16,0,0,14.6,18.16,17.44,39.52s-55.36,38.21-69.2,19.42-11.73-37.59-13-54.93S100.1,12.28,129.68,3.25Z"/><path class="cls-17" d="M90.65,50.47S85.16,28,94.09,10.84c0,0,11.19-1.17,25.19,17.89,0,0-14.14,34.69,2.21,51.51S173.39,64.77,175,49.45c0,0,24.67,11.81,40.1,30.88,0,0,4.16,46.32-31.62,58.6s-71.65-8.3-71.65-8.3-14.44-27-12.15-73.74Z"/><path class="cls-18" d="M96.26,28.56c1.85-5.42,4-10.5,7.54-14.68-5.92-3.42-9.71-3-9.71-3C85.16,28,90.65,50.47,90.65,50.47l1.62,1.15A67.29,67.29,0,0,1,96.26,28.56Z"/><path class="cls-19" d="M215.14,80.33c-.37-.45-.74-.9-1.12-1.34-.84,21.12-14.15,42.65-35.2,48.35-19.69,4.16-41.5,2.19-59.87-7,.94,1.37,1.91,2.72,2.94,4-1-1.33-2-2.68-2.94-4-1.56-.78-3.11-1.6-4.62-2.5,1.51.9,3.06,1.72,4.62,2.5C107.07,103,102,82.34,99.54,62.05c-1,43.54,12.33,68.58,12.33,68.58s35.86,20.59,71.65,8.3S215.14,80.33,215.14,80.33Z"/><path class="cls-6" d="M106.07,55.63c1.69,6.22-14,14.25-24,10.19s-6.68-19.32.14-24.76C82.16,41.06,102.47,42.41,106.07,55.63Z"/><path class="cls-14" d="M147.44,33.09l6.49,10.17s10.83,4.45,7.47-9.63Z"/><path class="cls-14" d="M129.73,39.58s-1.25,7.78,8.86,7.07,11.93-9,5.14-17Z"/><circle class="cls-20" cx="141.32" cy="42.58" r="3"/><circle class="cls-20" cx="156.74" cy="40.98" r="2.81"/><path class="cls-6" d="M84.33,56.76A4.64,4.64,0,0,1,86,51.82a5.52,5.52,0,0,1,1.79-.74,10.29,10.29,0,0,1,6.14.65,19.18,19.18,0,0,1,5.22,3.43"/><path class="cls-21" d="M84.33,56.76a4.6,4.6,0,0,1,.83-5,5,5,0,0,1,2.46-1.33,8.72,8.72,0,0,1,2.69-.25,10.82,10.82,0,0,1,5,1.61,14.29,14.29,0,0,1,3.8,3.41,41.22,41.22,0,0,0-4.34-2.37,13.18,13.18,0,0,0-4.54-1.16,8.67,8.67,0,0,0-2.28.14,4.37,4.37,0,0,0-2,.81A4.88,4.88,0,0,0,84.33,56.76Z"/><ellipse class="cls-22" cx="140.62" cy="7.42" rx="4.18" ry="12.32" transform="translate(123.35 147.18) rotate(-85.98)"/><path class="cls-19" d="M127.4,41s14.5-3.6,19.25-13.93l-8.14-3.93S138.15,32.83,127.4,41Z"/><path class="cls-19" d="M164.57,33.59S155,37.76,146.89,33l2-5.78S156.16,34.32,164.57,33.59Z"/><path class="cls-19" d="M138.57,88.77s13.75-2.62,22.5-.71l-5.34-1.6a56.37,56.37,0,0,1,3.48-11.89c2.44-5.52-7.6-9.88-13-.74A125.39,125.39,0,0,0,138.57,88.77Z"/><path class="cls-23" d="M148.05,60.35c-.15,0-11.32,3.44-19.11,12.07s-7.18,23.16-6.15,29.56-2-7.76,15.72-12.22,17.38-14.42,17.38-14.42,5.58,9.32,16.34,9.64,15.25.43,18.84,3.79-1-13.79-13.5-23-25.6-6.53-29.39-5"/><path class="cls-24" d="M185.32,79.13c-10,4-24,2-29-9-2,8-8,13-16,16-7.76,2.82-14-1.82-14.93-8.31-4,8.4-3.43,19-2.6,24.16,1,6.4-2-7.76,15.72-12.22s17.38-14.42,17.38-14.42,5.58,9.32,16.34,9.64,15.25.43,18.84,3.79c2.3,2.16,1.22-4.18-3.18-11.44A10.77,10.77,0,0,1,185.32,79.13Z"/><path class="cls-6" d="M147.44,33.09s10.25,13.91,15,29.85c0,0-4.65,4.61-15,3.63a20.48,20.48,0,0,1-4.9-4.26c-1.6-2.22,1.81-4.21,3.84-4.08"/><path class="cls-25" d="M147.44,33.09c1.77,2.17,3.35,4.48,4.91,6.82s2.94,4.78,4.27,7.26,2.54,5,3.64,7.61a79.18,79.18,0,0,1,2.86,7.95l.14.45-.32.29a13.51,13.51,0,0,1-3.61,2.2,20,20,0,0,1-3.93,1.2,26.25,26.25,0,0,1-4.05.43c-.67,0-1.35,0-2,0l-2-.17h-.13l-.1-.07a24.07,24.07,0,0,1-2.7-2.1,11.59,11.59,0,0,1-2.28-2.59,2.08,2.08,0,0,1-.18-1.85,3.07,3.07,0,0,1,1.16-1.35,5,5,0,0,1,3.22-.9,5.1,5.1,0,0,0-3,1.18,2.68,2.68,0,0,0-.9,1.23,1.49,1.49,0,0,0,.25,1.35,13,13,0,0,0,2.3,2.26,27,27,0,0,0,2.7,1.86l-.23-.07,2,.07c.65,0,1.3,0,1.94-.06a24.38,24.38,0,0,0,3.82-.52,19.74,19.74,0,0,0,3.63-1.18,12.58,12.58,0,0,0,3.14-1.93l-.19.74c-.85-2.64-1.7-5.27-2.77-7.83s-2.17-5.12-3.39-7.61-2.5-5-3.85-7.41S148.92,35.46,147.44,33.09Z"/><path class="cls-6" d="M21.18,82.44A218.9,218.9,0,0,0,0,126.1s31.37,48.49,54.23,55.15,12.57-46,12.57-46S81,128.05,88.3,118.5s13.13-26.88-7.75-46.13C60,53.37,35,60.76,21.18,82.44Z"/><path class="cls-7" d="M80.55,72.37C64.19,57.28,45.1,58.85,31,71c13-3.33,27.66-1.42,39.32,7.12,25,18,4,49-18,59,10,10,11,30-1,37a19.92,19.92,0,0,1-6.16,2.72,35.18,35.18,0,0,0,9.07,4.4c22.86,6.66,12.57-46,12.57-46S81,128.05,88.3,118.5,101.43,91.62,80.55,72.37Z"/><path class="cls-8" d="M40.16,177.78,72.38,162.1s7.93,27.33-4.44,38.66-30.64,1-34.1-6-.05-14.91,10.36-6.39c0,0-.2-3.48,4.11-4.7Z"/><path class="cls-26" d="M72.38,162.1l-11.67,5.68c6.2,3.6,8.61,12.37,8.61,19.35-1,11-13,15-23,13-5.71-1.9-11.4-7.42-12-14.84-2.25,1.53-2.42,5.64-.53,9.46,3.46,7,21.74,17.35,34.1,6S72.38,162.1,72.38,162.1Z"/><path class="cls-26" d="M203.37,192c8.07-2,16.28-.88,20.28,6.85s-5.28,17.63-19.31,15.38S184.58,196.57,203.37,192Z"/><path class="cls-8" d="M205.11,190.13s.18,16.08,5.9,16.5,7.71-5.85,5.55-15.51"/><path class="cls-27" d="M62.44,263s21.36-13.1,41,0Z"/></g></g></g></svg>