<svg xmlns="http://www.w3.org/2000/svg" viewBox="0 0 339.66 464.89"><defs><style>.cls-1{isolation:isolate;}.cls-2{fill:#b2b2b2;mix-blend-mode:multiply;}.cls-3{fill:#878787;}.cls-4{fill:#c6c6c6;}.cls-5{fill:#b55f0b;}.cls-6{fill:#884708;}.cls-7{fill:#dd7d26;}.cls-8{fill:#352927;}.cls-9{fill:#4f3e3a;}.cls-10{fill:#634e42;}.cls-11{fill:#775e51;}.cls-12{fill:#f7c0b4;}.cls-13{fill:#cb9f94;}.cls-14{fill:#0b5371;}.cls-15{fill:#0f6e96;}.cls-16{fill:#fff;}.cls-17{fill:#dadada;}.cls-18{fill:#6d2d38;}.cls-19{fill:#843c45;}.cls-20,.cls-27{opacity:0.5;}.cls-21{fill:#9d636a;}.cls-22,.cls-27{fill:#3f1921;}.cls-23{fill:#ce9a95;}.cls-24{fill:#fad9d2;}.cls-25{fill:#a04d5b;}.cls-26{fill:#af7875;}.cls-28{fill:#64201f;}.cls-29{fill:#4a3b32;}</style></defs><title>dice-char-happy</title><g class="cls-1"><g id="Layer_2" data-name="Layer 2"><g id="happy"><ellipse class="cls-2" cx="217.71" cy="457.59" rx="115.26" ry="7.3"/><rect class="cls-3" x="242.87" y="359.12" width="74.67" height="117.21" transform="translate(-143.84 688.27) rotate(-88.68)"/><rect class="cls-4" x="257.04" y="373.62" width="45.67" height="117.21" transform="translate(-158.66 702.11) rotate(-88.68)"/><path class="cls-5" d="M274.83,394.14a1.86,1.86,0,0,0,0,.33c-.05,2.06,2.83,3.8,6.44,3.88s6.44-1.45,6.6-3.45h0l9.35-213.76-13-.57Z"/><path class="cls-6" d="M281.63,398.35c3.34,0,6-1.53,6.2-3.45h0l9.35-213.76-6.31-.27Z"/><ellipse class="cls-7" cx="290.69" cy="181.07" rx="3.73" ry="6.53" transform="translate(102.78 467.39) rotate(-88.64)"/><path class="cls-8" d="M78.31,354.07c-3.29.64-9.4,2.6-10.06,3.33S70.18,365,88.16,370s33.61,2.48,32.93,1.15S101.87,349.48,78.31,354.07Z"/><path class="cls-9" d="M181.45,413.35c-4.08-2.49-10.09.16-14.06,10.19s-6,21.13-5.55,23.75,9.71-1.8,15.57-9.21S186.77,416.61,181.45,413.35Z"/><path class="cls-10" d="M35.68,230.58s-11.49-18.67-30-1.2,12.78,49.78,32.59,27.88Z"/><path class="cls-11" d="M7.8,249C6,238.87,13.31,229.68,22.5,226.93a16.09,16.09,0,0,1,11,.93c-4.14-4.44-14.05-11.51-27.87,1.52-13.16,12.4-1.18,32.3,14,34.94C14,261.08,9.5,256.21,7.8,249Z"/><path class="cls-12" d="M139.78,222.17c-19.54-20.16-35.16-5-35.16-5s-19,19.75-29.36,43.22a146.87,146.87,0,0,0-27-12c-41.18-13.73-5.06,29.23,6,42S81,314.49,97.4,307.62h0c.64-.17,1.3-.36,2-.57,24-7.61,40.11-18.38,43.95-26.57S159.32,242.33,139.78,222.17Z"/><path class="cls-13" d="M139.78,222.17c-19.54-20.16-35.16-5-35.16-5s-.46.47-1.26,1.36c-2.55,10.47-2,19.86-.28,30.78,1.83,14.7,18.69,35.53,1.22,45.64-11.94,7.35-26.65,4.6-37.68-3.68-12.48-10-12.91-26-10.15-39.85-2.61-1-5.34-2-8.23-3-41.18-13.73-5.06,29.23,6,42S81,314.49,97.4,307.62h0c.64-.17,1.3-.36,2-.57,24-7.61,40.11-18.38,43.95-26.57S159.32,242.33,139.78,222.17Z"/><path class="cls-12" d="M174.76,162.42S159.18,64.9,155.18,49s5.44-19.77,24.77,8.28,63.35,88.37,63.19,144.35S185,238.43,174.76,162.42Z"/><path class="cls-13" d="M180,57.23C160.62,29.18,151.18,33,155.18,49c.43,1.74,1,4.44,1.68,7.87,16.92,5.53,29.59,21.18,35.68,36.83,13.83,34.58,7.74,69.95-10.4,98.84,18.81,50,60.87,56.75,61,9.09C243.3,145.6,199.28,85.29,180,57.23Z"/><path class="cls-14" d="M245.13,290.43S231.63,383.1,180.07,419c0,0-3,2.17-3.92-2.27,0,0,25.94-37.07-2.27-62.11S119,343.19,119.61,368.24l-4.67-2.65a66.37,66.37,0,0,1-3.61-30.74c2-17.54,42.22-1.89,42.22-1.89Z"/><path class="cls-15" d="M196.21,313.15c16.29,34.56,8.56,78.83-17.6,106.35a3.1,3.1,0,0,0,1.46-.52c51.56-35.88,65.06-128.55,65.06-128.55Z"/><path class="cls-16" d="M154.13,173.06c-21.64,16.49-43.37,36.64-49.51,44.1,0,0-15.12,50.22,34.41,70.43,0,0,17.19,24.88,14.52,45.37,0,0,42.36,10.6,74.07-13.86s18.48-90.94,18.48-90.94,13-35.33-31.45-61.6S154.13,173.06,154.13,173.06Z"/><path class="cls-17" d="M242.17,288.51c-11.95,30.33-52.39,43.2-80.88,27.57-8.27-5.51-11-18.38-4.6-23.9,3.68-3.67,12.87-2.75,18.39-6.43-26.66,4.6-52.39-11-61.58-34.93-4.64-12.35-6-27.28-2.52-40.46-2.79,2.78-5,5.11-6.36,6.8,0,0-15.12,50.22,34.41,70.43,0,0,17.19,24.88,14.52,45.37,0,0,42.36,10.6,74.07-13.86,20.88-16.11,22.28-50.43,20.79-72C246.67,260.91,246.91,275,242.17,288.51Z"/><path class="cls-18" d="M127,133.2s-4.37-6.91.8-9.43,37,4.28,35.65,32.57S127.8,146.65,127,133.2Z"/><path class="cls-12" d="M106,141.51c10.86-13,42.68-20.87,52.82,10.74,0,0,20.35,6.66,33.25,21.69s-23.46,57.2-43.54,49.67S120.6,200.54,111,187.8,87.71,163.29,106,141.51Z"/><path class="cls-19" d="M99.59,197.45s-15.5-14.55-17.23-32.24c0,0,8-6.52,28.37,1.13,0,0,6.51,33.81,27.54,38.56s32.22-37.94,25.8-50.57c0,0,24.92-3.28,46.38,3.67,0,0,26.43,33.58,5,61s-59.34,29.55-59.34,29.55S131.47,235,109.8,197.84Z"/><g class="cls-20"><path class="cls-21" d="M89.18,162.88c-4.72.65-6.82,2.33-6.82,2.33,1.73,17.69,17.23,32.24,17.23,32.24l3.3.13A100.71,100.71,0,0,1,89.18,162.88Z"/><path class="cls-22" d="M210.45,158c-.51-.17-1-.32-1.54-.47,10,16.68,10.5,39.94-2.86,54.89C193,225.5,175.19,234.93,156.41,237c1.41.58,2.84,1.13,4.29,1.64-1.45-.51-2.88-1.06-4.29-1.64-1.6.17-3.2.32-4.81.39,1.61-.07,3.21-.22,4.81-.39-17.83-7.37-32.07-20.75-44.16-35.12,21,34.05,43.9,46.63,43.9,46.63s37.94-2.13,59.34-29.55S210.45,158,210.45,158Z"/></g><path class="cls-12" d="M114.05,193.69c4.43,3.94-3.64,18-13.4,19.91s-14.84-11.53-12.32-19.14C88.33,194.46,104.65,185.31,114.05,193.69Z"/><path class="cls-12" d="M97.88,205.46a4.25,4.25,0,0,1-1.23-4.61,4.76,4.76,0,0,1,1-1.47,9.43,9.43,0,0,1,5-2.58,17.55,17.55,0,0,1,5.74,0"/><path class="cls-23" d="M97.88,205.46a4.2,4.2,0,0,1-1.89-4.3,4.68,4.68,0,0,1,1.23-2.26,8.49,8.49,0,0,1,1.94-1.54,10,10,0,0,1,4.66-1.25,12.91,12.91,0,0,1,4.63.72,36.79,36.79,0,0,0-4.53.35,12.09,12.09,0,0,0-4.08,1.38,8.31,8.31,0,0,0-1.69,1.25A4.19,4.19,0,0,0,97,201.43,4.52,4.52,0,0,0,97.88,205.46Z"/><ellipse class="cls-24" cx="116.48" cy="139.23" rx="11.33" ry="3.84" transform="translate(-52.96 74.09) rotate(-29.06)"/><path class="cls-16" d="M148.66,205.32s18.89,5,28.27-7.06,4.15-27.92,4.15-27.92-17,4.53-22.82,13.15S148.66,205.32,148.66,205.32Z"/><path class="cls-4" d="M182.5,179.18a35.83,35.83,0,0,0-1.42-8.84s-1.14.31-2.93.91a100,100,0,0,1,.6,12.22C179.89,182,181.16,180.61,182.5,179.18Z"/><path class="cls-4" d="M162.76,201.75a35.3,35.3,0,0,1-12.91-.2c-.77,2.29-1.19,3.77-1.19,3.77a39.45,39.45,0,0,0,9.35,1C159.67,204.85,161.31,203.35,162.76,201.75Z"/><path class="cls-25" d="M152.87,176.73s-5.88,13.34-15.81,10.32-11-9.47-11-9.47-6.17,5.87-3,17.55c3.61,13.47,38.41,22.71,42.39-12,0,0,15.38-.56,20.5-17.23s-13.53-20.66-23.6-15.81c0,0,7.21,2.26,6.27,8.82s-9.42,9.42-9.42,9.42Z"/><path class="cls-12" d="M135.16,154.76s14.88,5.58,26.51,15.48c0,0-1.27,5.89-9.77,10.35a19,19,0,0,1-5.91-.82c-2.35-.91-.72-4.16.91-5.07"/><path class="cls-26" d="M135.16,154.76c2.45.79,4.84,1.77,7.2,2.8s4.66,2.22,6.93,3.44,4.48,2.59,6.63,4a72,72,0,0,1,6.2,4.69l.33.27-.11.39a12.18,12.18,0,0,1-1.67,3.5,17.72,17.72,0,0,1-2.43,2.89,21.82,21.82,0,0,1-2.9,2.36c-.51.36-1.06.66-1.58,1l-1.64.88-.1.05h-.11a23.31,23.31,0,0,1-3.13-.25,10.83,10.83,0,0,1-3.06-.85,1.91,1.91,0,0,1-1.06-1.33,2.86,2.86,0,0,1,.21-1.62,4.6,4.6,0,0,1,2-2.31,4.71,4.71,0,0,0-1.73,2.42,2.49,2.49,0,0,0-.07,1.4,1.39,1.39,0,0,0,.87.91,12.42,12.42,0,0,0,2.91.6,23.28,23.28,0,0,0,3,.08l-.21.06,1.54-.93c.48-.34,1-.66,1.46-1a22.79,22.79,0,0,0,2.68-2.31,19.14,19.14,0,0,0,2.2-2.74A11.52,11.52,0,0,0,161,170.1l.22.66c-2-1.6-3.95-3.2-6.06-4.63s-4.24-2.85-6.43-4.17-4.41-2.59-6.68-3.77S137.49,155.85,135.16,154.76Z"/><path class="cls-27" d="M162.33,150.08c12.78-2.6,24.69,6.18,19.86,18s-20.33,12.71-20.33,12.71c1.8,9.33-8.23,27.22-24.43,21.5s-11.35-24.73-11.35-24.73-6.17,5.87-3,17.55c3.61,13.47,38.41,22.71,42.39-12,0,0,15.38-.56,20.5-17.23S172.4,145.23,162.33,150.08Z"/><path class="cls-22" d="M163.72,211.47a27.16,27.16,0,0,0,3.93-.7,25.88,25.88,0,0,0,3.78-1.18,22.9,22.9,0,0,0,6.7-4,19.29,19.29,0,0,0,4.64-6.24,27.58,27.58,0,0,0,2.11-7.64,21.42,21.42,0,0,1-1.47,7.92,18.07,18.07,0,0,1-1.94,3.59,18.38,18.38,0,0,1-2.73,3.05,20.35,20.35,0,0,1-7.07,4A23.18,23.18,0,0,1,163.72,211.47Z"/><path class="cls-28" d="M123.09,172.82s-3.39-8.26,6.34-18.32l-4.32-4.75S114.54,162.14,123.09,172.82Z"/><path class="cls-28" d="M132.57,143.88l3.05,5.87s4.47-6.21,15.22-7.1A20.6,20.6,0,0,0,132.57,143.88Z"/><path class="cls-26" d="M139.78,162.53s-13.13-1.47-12.51,12.51c0,0,1.15-9.79,10.16-11.16a8.48,8.48,0,0,0-4.49,5.7s3.17-4.28,6.84-5.48S139.78,162.53,139.78,162.53Z"/><path class="cls-26" d="M147.48,157.76s-2.54-4.47,5-10.54C152.5,147.22,143.69,149.4,147.48,157.76Z"/><path class="cls-10" d="M55.59,248.42s-3.21,23.13-19.91,27.32l-6.93-13s-4.47-4.48,0-11.48c0,0-9.93,6-11.84-3.33S23,229.76,32,226.81s13,9,13,15.51Z"/><path class="cls-29" d="M33.53,247.15c-4.59.92-12,2.75-13.78-2.76-.8-4.77,1.84-9.53,4.94-13.7-5.48,4.19-9.14,10.57-7.78,17.22,1.91,9.34,11.84,3.33,11.84,3.33-4.47,7,0,11.48,0,11.48l6.93,13c.39-.1.76-.22,1.14-.33-.18-.23-.36-.45-.53-.69C30.77,266.45,24.34,255.42,33.53,247.15Z"/><path class="cls-9" d="M121.09,371.13s-4.9-11.18-19.66-19.78-31.84,2.93-33.18,6,17.9-4.93,30.43,1.61S121.09,371.13,121.09,371.13Z"/><path class="cls-29" d="M151.7,54.34l28.15-5.86L170,37.59s-9.31-42-32.79-37.15-23.27,36.85,12.67,44.25Z"/><path class="cls-10" d="M141.43.05c-7.7-.42-23.68,1.58-30.18,12.74s-2.06,24.77,13.73,27c16.24,2.26,27.3-2.19,30.81-7.19S160.93,1.12,141.43.05Z"/></g></g></g></svg>