<svg xmlns="http://www.w3.org/2000/svg" viewBox="0 0 342.28 384.25"><defs><style>.cls-1{isolation:isolate;}.cls-2,.cls-8{fill:#b2b2b2;}.cls-2{mix-blend-mode:multiply;}.cls-3{fill:#878787;}.cls-4{fill:#f7c0b4;}.cls-5{fill:#cb9f94;}.cls-6{fill:#4a3b32;}.cls-7{fill:#c6c6c6;}.cls-9{fill:#b55f0b;}.cls-10{fill:#884708;}.cls-11{fill:#dd7d26;}.cls-12{fill:#634e42;}.cls-13{fill:#4f3e35;}.cls-14{fill:#6d2d38;}.cls-15{fill:#0f6e96;}.cls-16{fill:#3f8bab;}.cls-17{fill:#0b5371;}.cls-18{fill:#fff;}.cls-19{fill:#dadada;}.cls-20{fill:#4f3e3a;}.cls-21{fill:#843c45;}.cls-22,.cls-25{opacity:0.5;}.cls-23,.cls-25{fill:#3f1921;}.cls-24{fill:#a04d5b;}.cls-26{fill:#af7875;}.cls-27{fill:#64201f;}.cls-28{fill:#004d26;}.cls-29{fill:#d1c6c6;}.cls-30{fill:#ce9a95;}.cls-31{fill:#fad9d2;}</style></defs><title>dice-char-idle</title><g class="cls-1"><g id="Layer_2" data-name="Layer 2"><g id="idle"><ellipse class="cls-2" cx="168.37" cy="379.19" rx="81.29" ry="5.06"/><rect class="cls-3" x="22.91" y="11.7" width="91.55" height="143.7" transform="translate(34.9 -19.2) rotate(21.22)"/><path class="cls-4" d="M200.46,139.36s60,24.67,78.65,63c0,0,10.49-12.5,24.37-11.84s15.67,13.82,8.44,52.47-86.7,1.42-100.63-16.75S200.46,139.36,200.46,139.36Z"/><path class="cls-5" d="M303.48,190.57c-12-.57-21.39,8.62-23.78,11.18,6,7.71,16,13,22,21,5,7,2,15-5,19-12,5-23-3-27-13-8.46-22-12.63-44.68-24.59-63.87a235.13,235.13,0,0,0-44.65-25.56s-3.1,68.77,10.83,86.93S304.7,281.68,311.92,243,317.36,191.24,303.48,190.57Z"/><path class="cls-6" d="M278.72,182.25l-3.94,19.13s23.79,14.54,42.3-2.35c0,0-.88-24.4-6.3-44.87C310.78,154.16,283.19,147.71,278.72,182.25Z"/><rect class="cls-7" x="24.11" y="5.26" width="55.99" height="143.7" transform="translate(31.45 -13.63) rotate(21.22)"/><path class="cls-8" d="M1.57,129.92,0,134l52.19,20.27,52-134-2.86-1.11C85.64,69.88,54.31,117.5,1.57,129.92Z"/><path class="cls-9" d="M98.12,87.19,97.76,87c-2.36-.92-5.56,1.68-7.17,5.8s-1,8,1.23,9l0,0,242.51,100,6.11-14.8Z"/><path class="cls-10" d="M90.43,93.27c-1.36,3.87-.76,7.61,1.39,8.59l0,0,242.51,100,3-7.17Z"/><ellipse class="cls-11" cx="337.12" cy="194.43" rx="8" ry="4.57" transform="translate(33.66 438.07) rotate(-68.73)"/><path class="cls-12" d="M265.84,141c-10.28,3.65-19.4,27.61-3.27,40.06s41,5.39,48.21-26.86C310.78,154.16,295.43,130.45,265.84,141Z"/><path class="cls-13" d="M309.26,152.14c-5.63,15.1-23.3,24.94-38.56,18.65-6.5-2.8-9-7-10-11a22.21,22.21,0,0,1,0-15.23c-7.55,8.06-11.45,26.18,1.87,36.46,16.13,12.44,41,5.39,48.21-26.86A24.56,24.56,0,0,0,309.26,152.14Z"/><path class="cls-14" d="M176.36,99.67s-.5-8.88,5.75-8.54,32.92,23.62,16.7,49.81S170,112.89,176.36,99.67Z"/><path class="cls-15" d="M130.48,304.88s-14.73,42.42-1.84,69.58l7.56.8s3.13-49,33.73-49,18.44,48.47,18.44,48.47l12-2.5s26.16-41.7,37.41-96c0,0-14.16-11.35-48.78-1.66A168,168,0,0,0,130.48,304.88Z"/><path class="cls-16" d="M237.77,276.26s-6.09-4.88-20.05-5.51c2.55,35.71-7.29,72.59-26.32,103.38l9-1.87S226.52,330.56,237.77,276.26Z"/><path class="cls-17" d="M162.22,314.5c-3.6-9-4.07-18.54-3.17-28.05a159.07,159.07,0,0,0-28.57,18.43s-14.73,42.42-1.84,69.58l.29,0C128.49,349.42,137.59,325,162.22,314.5Z"/><path class="cls-18" d="M54,186.45s18.73-35,93.88-48.32,109.44,34.23,112.74,69.8c3.07,33.15-17.57,46.1-17.57,46.1s.86,57.82-51.58,62-61-11.11-61-11.11,7-22-9.21-32.87S40.33,243.43,54,186.45Z"/><path class="cls-19" d="M154.7,285.79c5-17,25-19,39-25-24,6-55,3-65-22-4-10,3-20,5-30,2.81-9.35,1.23-18.71-3.07-27.24l-.6,6.8.6-6.8c-.3-.59-.61-1.18-.93-1.76.32.58.63,1.17.93,1.76l3.54-40.61C70.43,155.79,54,186.45,54,186.45c-13.68,57,51,74.68,67.26,85.56s9.21,32.87,9.21,32.87S135.57,314,162,316.2C154.49,308.55,150.65,298.39,154.7,285.79Z"/><path class="cls-4" d="M59.4,327.41s6.77-44.48,40.28-68.55,37.85-72.41,2.35-86.07S-.87,210.89,41.25,320.73C41.25,320.73,46.77,334.87,59.4,327.41Z"/><path class="cls-5" d="M102,172.79c-16-6.16-38.53,1-54.54,20.79,12.32-11.37,34.12-13.06,42.21,2.21,15,28,3,64-22,82-10.78,8.19-23.22,11.54-36,11.51a218.13,218.13,0,0,0,9.53,31.43s5.52,14.14,18.15,6.68c0,0,6.77-44.48,40.28-68.55S137.53,186.45,102,172.79Z"/><path class="cls-12" d="M36.41,322.54l31-10.73s-3.28,10,0,14.93c0,0,11.11-8.06,15.7-4s-4.67,13.27-10,13.66a79.36,79.36,0,0,0,13.21,11.22c6.84,4.34-13.09,17.12-27,6.23A42.11,42.11,0,0,1,44,327.17Z"/><path class="cls-20" d="M188.37,374.76l-.73,3.18,33.56.64s-6.55-5.43-13-7.56S188.37,374.76,188.37,374.76Z"/><path class="cls-20" d="M136.39,374.76l.72,3.18-33.55.64s6.54-5.43,13-7.56S136.39,374.76,136.39,374.76Z"/><path class="cls-4" d="M152,96.46c17.18-6.59,51.62,2.7,44.56,38.13,0,0,15.82,17.08,20.16,38.2S164.16,214.79,149,197s-14.34-36.67-16.79-53.89S123.1,107.54,152,96.46Z"/><path class="cls-21" d="M116.35,146.3s-7-22,.65-39.77c0,0,11.09-2,26.39,16.07,0,0-11.67,35.6,5.82,51.23s50.69-19.07,51.25-34.47c0,0,25.44,10,42.17,28,0,0,7.4,45.92-27.43,60.68s-72-3.26-72-3.26-16.3-25.93-17.29-72.7Z"/><g class="cls-22"><path class="cls-23" d="M133.51,113c-10-7.62-16.51-6.48-16.51-6.48-7.69,17.74-.65,39.77-.65,39.77l8.15,4.94C124.25,137.59,124.7,123.26,133.51,113Z"/><path class="cls-23" d="M242.63,167.35c-.39-.42-.8-.84-1.21-1.26.65,21.13-11.12,43.54-31.72,50.7-19.35,5.53-41.24,5.1-60.21-2.83,1,1.3,2.09,2.59,3.21,3.83-1.12-1.24-2.18-2.53-3.21-3.83-1.62-.67-3.22-1.38-4.79-2.17,1.57.79,3.17,1.5,4.79,2.17-13.07-16.42-19.55-36.67-23.45-56.73,2,43.51,17.11,67.54,17.11,67.54s37.21,18,72,3.26S242.63,167.35,242.63,167.35Z"/></g><path class="cls-4" d="M132.1,150.36c2.13,6.09-13,15.2-23.28,11.86s-8-18.81-1.59-24.71C107.23,137.51,127.59,137.43,132.1,150.36Z"/><path class="cls-24" d="M171.94,155.82a20.27,20.27,0,0,1-11.85,10.09c-8.73,2.88-13.55-1.12-14.39-5.91,0,0-5.61,4.64-1.18,16.51s38.51,13.4,42.39-9.16c0,0,20.79,8,26.41-6.07s-9.49-20-9.49-20,1.72,9.16-5.87,10.16-9.3-4.49-17.24-1.83S171.94,155.82,171.94,155.82Z"/><path class="cls-25" d="M204.81,141.75c6.19,7.17,7.55,18.7-.82,22.6-6.33,3-13.72,1.43-20.44-2.1-4.24,13.67-21,19.48-33.85,13.54-4.9-2-6.91-9.68-4.16-15.64-.88.87-5,5.7-1,16.36,4.43,11.87,38.51,13.4,42.39-9.16,0,0,20.79,8,26.41-6.07C218.06,149.42,208.07,143.36,204.81,141.75Z"/><path class="cls-18" d="M171.78,125l7.19,9.7s11.69,1.88,7.35-11.93Z"/><path class="cls-4" d="M171.78,125s11.2,13.17,17,28.74c0,0-4.32,4.92-14.76,4.67a20.39,20.39,0,0,1-5.2-3.9c-1.75-2.1,1.52-4.33,3.56-4.34"/><path class="cls-26" d="M171.78,125c1.92,2,3.67,4.24,5.38,6.47s3.27,4.56,4.77,6.94,2.88,4.82,4.17,7.33a79.67,79.67,0,0,1,3.41,7.74l.17.44-.31.31a13.52,13.52,0,0,1-3.43,2.45,19.44,19.44,0,0,1-3.84,1.46,25,25,0,0,1-4,.72c-.67.07-1.35.07-2,.11l-2,0h-.13l-.1-.06A25.21,25.21,0,0,1,171,157a12,12,0,0,1-2.45-2.43,2.1,2.1,0,0,1-.31-1.83,3.19,3.19,0,0,1,1.06-1.43,5,5,0,0,1,3.16-1.12,5.12,5.12,0,0,0-2.93,1.38,2.7,2.7,0,0,0-.81,1.3,1.54,1.54,0,0,0,.34,1.33,13.13,13.13,0,0,0,2.46,2.09,28.77,28.77,0,0,0,2.83,1.67l-.24-.06,2-.07c.64-.06,1.29-.09,1.93-.19a24.17,24.17,0,0,0,3.78-.79,20.87,20.87,0,0,0,3.53-1.43,12.49,12.49,0,0,0,3-2.15l-.14.75c-1-2.57-2.06-5.14-3.32-7.62s-2.51-4.95-3.91-7.35-2.84-4.79-4.36-7.12S173.43,127.24,171.78,125Z"/><path class="cls-18" d="M153.64,130.68s.24,9.86,10.27,8.45,10.43-8.84,6.48-14.26Z"/><polygon class="cls-27" points="146.42 124.55 171.52 124.07 188.32 113.67 189.89 125.14 171.78 124.97 151.24 133.84 146.42 124.55"/><circle class="cls-28" cx="167.99" cy="133.76" r="3"/><circle class="cls-28" cx="183.25" cy="131.08" r="2.81"/><path class="cls-29" d="M128.64,231.78s8.91,41.21,68.73,29.11C197.37,260.89,140.92,283.93,128.64,231.78Z"/><path class="cls-4" d="M110.49,153a4.64,4.64,0,0,1,1.27-5,5.34,5.34,0,0,1,1.74-.86,10.24,10.24,0,0,1,6.17.21,19,19,0,0,1,5.44,3.06"/><path class="cls-30" d="M110.49,153a4.58,4.58,0,0,1,.47-5.08,5.16,5.16,0,0,1,2.37-1.5A9.32,9.32,0,0,1,116,146a10.93,10.93,0,0,1,5.09,1.26,14.13,14.13,0,0,1,4,3.14,38.94,38.94,0,0,0-4.49-2.06,13,13,0,0,0-4.61-.84,8.67,8.67,0,0,0-2.27.29,4.61,4.61,0,0,0-1.93.95A4.94,4.94,0,0,0,110.49,153Z"/><ellipse class="cls-31" cx="163.18" cy="99.85" rx="12.32" ry="4.18"/></g></g></g></svg>