<svg xmlns="http://www.w3.org/2000/svg" viewBox="0 0 517.25 396.93"><defs><style>.cls-1{isolation:isolate;}.cls-12,.cls-2{fill:#b2b2b2;}.cls-2{mix-blend-mode:multiply;}.cls-3{fill:#4a3b32;}.cls-4{fill:#0f6e96;}.cls-5{fill:#0b5371;}.cls-6{fill:#352927;}.cls-7{fill:#f7c0b4;}.cls-8{fill:#cb9f94;}.cls-9{fill:#b55f0b;}.cls-10{fill:#884708;}.cls-11{fill:#c6c6c6;}.cls-13{fill:#fff;}.cls-14{fill:#dadada;}.cls-15{fill:#6d2d38;}.cls-16{fill:#843c45;}.cls-17{fill:#9d636a;}.cls-18,.cls-23{fill:#3f1921;}.cls-19{fill:#ce9a95;}.cls-20{fill:#fad9d2;}.cls-21{fill:#af7875;}.cls-22{fill:#a04d5b;}.cls-23{opacity:0.5;}.cls-24{fill:#64201f;}.cls-25{fill:#3e5a80;}.cls-26{fill:#634e42;}</style></defs><title>dice-char-hit</title><g class="cls-1"><g id="Layer_2" data-name="Layer 2"><g id="kickV2"><ellipse class="cls-2" cx="183.87" cy="389.63" rx="81.29" ry="7.3"/><path class="cls-3" d="M202.9,203.74a53.67,53.67,0,0,1,9.81-2.85,5.22,5.22,0,0,1,2.36,0,5.09,5.09,0,0,1,1.63,1,16.08,16.08,0,0,1,5.26,8.81c.32,1.5.31,3.31-.9,4.25a3.9,3.9,0,0,1-2,.68,19.33,19.33,0,0,1-8.76-1.45,11,11,0,0,1-3.2-1.6c-1.65-1.31-2.51-3.35-3.3-5.3a2.51,2.51,0,0,1-.28-1.36,2.44,2.44,0,0,1,.44-.9,12.4,12.4,0,0,1,2.27-2.42"/><path class="cls-4" d="M56,130.37s-49,24.55-32.39,84c0,0,15.74-39.77,56.94-28.39S134.17,233,134.17,233s13.37-26,2.32-55.76S102.06,115.45,56,130.37Z"/><path class="cls-5" d="M66.69,160.45C44.14,168,30.13,187.56,22.23,209c.39,1.79.85,3.61,1.36,5.46,0,0,15.74-39.77,56.94-28.39,33.82,9.34,49.55,38,53.64,46.93-.73-16.64-.29-38.35-12.88-51.7C107.93,167.08,88.27,154.56,66.69,160.45Z"/><path class="cls-6" d="M23.79,213.88c2.37-1-.26-24.54-4.51-32.53s-13.09-8.91-17-7.92-2.24,15.3.17,20.18S20.91,215.11,23.79,213.88Z"/><path class="cls-6" d="M133.91,234.68c1.91,1.73,22.19-10.5,27.66-17.7s2.62-15.62.1-18.72-14.83,4.36-18.25,8.59S131.58,232.57,133.91,234.68Z"/><path class="cls-7" d="M314.1,219.67s-31-87.76-47.88-130.83-53.69-59.39-76.83-24.58,8.78,107.88,115.11,156Z"/><path class="cls-8" d="M314.1,219.67s-31-87.76-47.88-130.83-53.69-59.39-76.83-24.58,8.78,107.88,115.11,156Z"/><path class="cls-3" d="M312.59,210.88l-22,9.68,9.86,3.59L297,245.8s11.34,9.38,23.21,2.28S318.28,219.15,312.59,210.88Z"/><path class="cls-9" d="M398.18,231.86v0A657.74,657.74,0,0,1,171,197.45l-.11,0-.07,0h0c-2.08-.55-4.43,2.25-5.3,6.35-.84,3.93,0,7.64,1.92,8.61v0a669.39,669.39,0,0,0,231.16,35.14,1.53,1.53,0,0,0,.37,0c2.3-.11,3.95-3.72,3.68-8.05S400.38,231.9,398.18,231.86Z"/><path class="cls-10" d="M398,238.41a2.26,2.26,0,0,1-.37,0,670,670,0,0,1-231.17-35.14v0a2.78,2.78,0,0,1-.73-.57c-.1.35-.19.7-.27,1.07-.84,3.93,0,7.64,1.92,8.61v0a669.62,669.62,0,0,0,231.16,35.13,1.53,1.53,0,0,0,.37,0c2.3-.11,3.95-3.72,3.68-8.05a12.92,12.92,0,0,0-1.28-5C400.74,236.77,399.52,238.34,398,238.41Z"/><rect class="cls-11" x="384.71" y="179.44" width="69.61" height="129.71" transform="translate(836.69 492.57) rotate(-179.45)"/><path class="cls-12" d="M412.4,283.3c-26.08-16.91-25-47.52-27.31-75.47l-1,101,69.61.67.68-65.19C448.76,264.94,437.32,296.83,412.4,283.3Z"/><path class="cls-13" d="M223.14,35.36S152.39,19,99.26,59.85,37.2,151.66,70.58,174.92,137.11,168,219,180,255.85,41.1,223.14,35.36Z"/><path class="cls-14" d="M62.76,116.31a105.86,105.86,0,0,1,16-38c-34.36,36.7-36.71,76.76-8.21,96.62C104,198.19,137.11,168,219,180c44.77,6.59,51.6-35.56,43.26-76-23.37,30.58-89.37,82.06-170,66C56,162.78,61.27,124.89,62.76,116.31Z"/><path class="cls-15" d="M254.64,34.43s2.79-8.27,8.36-5.69,21.34,33.53-3,51.45S244.05,44.14,254.64,34.43Z"/><path class="cls-7" d="M233.62,22.59c18,.28,46,21.31,26.64,51,0,0,8.17,21.33,4.4,42.14s-63.17,19-70.44-2.66.34-38.62,4.4-55.19S203.29,22.13,233.62,22.59Z"/><path class="cls-16" d="M183,55s1.64-22.64,15.12-36c0,0,10.8,2.26,18.15,24.26,0,0-23.63,28.15-13.41,48.77S256,93.17,262.09,79.36c0,0,19.49,18.44,28.17,40.88,0,0-10,44.5-47.14,45.22s-64.4-29.28-64.4-29.28-5.37-29.56,10.81-72.5Z"/><path class="cls-17" d="M203.85,22.38A14.76,14.76,0,0,0,198.1,19C184.62,32.32,183,55,183,55l1.25,1.65C187.39,43.44,193.41,30.86,203.85,22.38Z"/><path class="cls-18" d="M290.26,120.24c-.21-.53-.43-1.06-.65-1.59-7.13,19.47-26,35.57-47.39,34.57-19.64-2-39.41-10.42-53.78-24.57.46,1.56,1,3.12,1.52,4.66-.56-1.54-1.06-3.1-1.52-4.66-1.23-1.2-2.43-2.43-3.57-3.72,1.14,1.29,2.34,2.52,3.57,3.72-5.9-19.72-4.41-40.52-.63-60.21-14.05,40.34-9.09,67.74-9.09,67.74s27.3,30,64.4,29.28S290.26,120.24,290.26,120.24Z"/><path class="cls-7" d="M195.84,64.4c-.29,6.32-17.37,9.1-25.52,2.3s-.44-20.05,7.57-23.08C177.89,43.62,196.45,51,195.84,64.4Z"/><path class="cls-7" d="M175.2,58.93a4.55,4.55,0,0,1,3-4.12,5.06,5.06,0,0,1,1.9-.16,10,10,0,0,1,5.53,2.46,18.23,18.23,0,0,1,3.84,4.76"/><path class="cls-19" d="M175.2,58.93a4.49,4.49,0,0,1,2.28-4.46,5,5,0,0,1,2.71-.5,8.84,8.84,0,0,1,2.58.57,10.79,10.79,0,0,1,4.17,3,13.76,13.76,0,0,1,2.52,4.32,38.48,38.48,0,0,0-3.33-3.51,13,13,0,0,0-3.89-2.45,8.33,8.33,0,0,0-2.18-.56,4.45,4.45,0,0,0-2.1.16A4.81,4.81,0,0,0,175.2,58.93Z"/><ellipse class="cls-20" cx="242.58" cy="29.77" rx="4.1" ry="12.09" transform="translate(124.63 243.83) rotate(-68.14)"/><path class="cls-21" d="M224,62.43l12.21,2.67s-5.83,1.46-8.69,4.15a11.87,11.87,0,0,1,3.63-3.41,30.44,30.44,0,0,0-8.3,2.58s1-2.36,7.52-3.66Z"/><path class="cls-21" d="M245.64,65.87s4.49-2.9,9.38,2.27A12.77,12.77,0,0,0,245.64,65.87Z"/><path class="cls-13" d="M212.27,103.83a6.46,6.46,0,0,0,.71,7.84,9.14,9.14,0,0,0,5.85,2.07,12.83,12.83,0,0,0,6.58-1,18,18,0,0,0,4.83-4.14c2.8-3,5.95-5.9,9.9-7a14.73,14.73,0,0,0,3.21-1,2.84,2.84,0,0,0,1.63-2.7,2.76,2.76,0,0,0-.8-1.44c-1.48-1.55-3.81-1.91-6-2-7.4-.25-14.37,2.28-20.91,5.53C215.38,101,213.46,101.92,212.27,103.83Z"/><path class="cls-11" d="M221.26,108.46c-4.13,1.11-8.85-.55-8.73-5-.08.12-.18.24-.26.37a6.46,6.46,0,0,0,.71,7.84,6.71,6.71,0,0,0,2.53,1.47C217,111.24,219.15,109.9,221.26,108.46Z"/><path class="cls-22" d="M228.63,84.49a17.08,17.08,0,0,1-13-.94,10.14,10.14,0,0,1-5.12-13.38s-7.56.49-10.31,12.83,11.76,20.91,20.77,21.81,17.39-6.57,17.39-6.57S244,110.05,256.76,106s9.32-18.35,4.95-23.64c0,0-1.8,9.62-7.67,7.72s-7.46-4.82-10-6.3S234.42,82.39,228.63,84.49Z"/><path class="cls-23" d="M261.71,82.32l-.08.35c2.14,6.34,1.3,13.68-3.67,17.94-6.87,4.91-12.75-3.92-18.64-5.88-8.83-2-17.65,7.84-27.46,2-9.37-6.56-7.11-17.58-2.62-26.25-2.26.72-7,3.32-9.07,12.56-2.75,12.33,11.76,20.91,20.77,21.81s17.39-6.57,17.39-6.57S244,110.05,256.76,106,266.08,87.61,261.71,82.32Z"/><path class="cls-7" d="M241.23,55.78s5.39,16.08,5,32.38c0,0-5.73,2.91-15.15-1.13a20.2,20.2,0,0,1-3.3-5.45c-.82-2.55,3-3.39,4.82-2.66"/><path class="cls-21" d="M241.23,55.78c1,2.56,1.79,5.2,2.54,7.85s1.31,5.35,1.81,8.06.86,5.45,1.11,8.2a76.38,76.38,0,0,1,.28,8.29v.46l-.39.17a13.26,13.26,0,0,1-4,1,19.37,19.37,0,0,1-4-.07,23.63,23.63,0,0,1-3.91-.82c-.64-.17-1.25-.42-1.88-.63l-1.83-.76-.12-.05-.07-.09a23.55,23.55,0,0,1-1.9-2.78,11.72,11.72,0,0,1-1.35-3.11,2,2,0,0,1,.39-1.77,3.09,3.09,0,0,1,1.49-.92,4.92,4.92,0,0,1,3.28.13,5,5,0,0,0-3.17.19,2.63,2.63,0,0,0-1.21.89,1.46,1.46,0,0,0-.17,1.33,12.58,12.58,0,0,0,1.47,2.81,26,26,0,0,0,2,2.54l-.19-.14,1.8.66c.61.17,1.21.38,1.83.53a23.78,23.78,0,0,0,3.72.66,19.57,19.57,0,0,0,3.75,0,12.2,12.2,0,0,0,3.51-.85l-.4.63c0-2.72,0-5.43-.24-8.15s-.48-5.42-.88-8.12-.84-5.4-1.37-8.08S241.9,58.45,241.23,55.78Z"/><polygon class="cls-24" points="222.42 42.71 240.58 59.33 256.98 49.39 254.26 61.83 240.05 61.47 216.76 51.02 222.42 42.71"/><path class="cls-3" d="M313.76,223.88a43.62,43.62,0,0,1-1.06,9.4,3.61,3.61,0,0,1-3.16,3.25c-1.67.42-3.67.62-4.94-.56s-1.22-3-1-4.65a23.52,23.52,0,0,1,2.48-8.66"/><path class="cls-25" d="M389.08,174c-.7-7.91-1.86-15.8-3.24-23.64s-3-15.63-4.91-23.37-4-15.41-6.4-23-5-15.13-7.91-22.54-6-14.75-9.52-21.91l-1.29-2.69-1.36-2.66c-.91-1.77-1.8-3.55-2.74-5.31-1.92-3.49-3.8-7-5.87-10.4A235.84,235.84,0,0,0,317.64,0a236.35,236.35,0,0,1,28.41,38.38c2.09,3.39,4,6.91,5.93,10.38.95,1.76,1.85,3.54,2.77,5.31l1.38,2.65,1.3,2.69c3.53,7.15,6.7,14.48,9.65,21.89s5.62,14.93,8,22.54,4.6,15.27,6.53,23,3.61,15.55,5,23.4S389.32,166,390.06,174Z"/><path class="cls-25" d="M453,169.49a156.31,156.31,0,0,0-4.77-25.56,226.78,226.78,0,0,0-8.17-24.75,244.14,244.14,0,0,0-24.31-46.07,247.91,247.91,0,0,0-15.66-20.87L398,49.73c-.7-.84-1.44-1.63-2.16-2.45l-4.34-4.88L387,37.68c-1.5-1.58-3-3.15-4.59-4.64A294.2,294.2,0,0,0,342,0a294.15,294.15,0,0,1,40.55,32.87c1.59,1.48,3.1,3.05,4.61,4.62l4.54,4.7,4.37,4.87c.72.81,1.47,1.61,2.17,2.44L400.37,52a245.47,245.47,0,0,1,15.78,20.83,243.73,243.73,0,0,1,24.59,46.07,224.88,224.88,0,0,1,8.32,24.8A158.66,158.66,0,0,1,454,169.43Z"/><path class="cls-25" d="M327.27,0a223.72,223.72,0,0,1,15.61,16.39q7.44,8.55,14.21,17.65T370,52.63q6.14,9.52,11.61,19.45c3.68,6.61,7,13.39,10.22,20.23s6,13.86,8.7,20.93A292.71,292.71,0,0,1,413,156.82l-1,.19a291.91,291.91,0,0,0-12.15-43.51c-2.61-7.07-5.45-14.06-8.57-20.93s-6.45-13.64-10.09-20.25-7.44-13.13-11.49-19.5-8.34-12.57-12.83-18.64-9.18-12-14.1-17.71A225.68,225.68,0,0,0,327.27,0Z"/><polygon class="cls-25" points="322.77 272.59 368.95 296.01 314.64 306.27 367.58 303.75 327.95 327.73 380.35 309.85 380.35 293.07 322.77 272.59"/><polygon class="cls-25" points="517.25 302.23 473.4 298.19 511.01 272.59 464.08 293.07 464.08 309.85 507.8 322.82 473.85 306.27 517.25 302.23"/><path class="cls-7" d="M109.3,110.56c-8.69,27.59-12.15,53.4-8.22,70.19s55.79,52.09,110.62,36.52c0,0-4.29.13-22.24-21.32s-26.06-26.65-24.27-35,5.38-7.6,23.25-27.24c21.72-23.85,13.32-54.62-23.15-62.84S115.23,91.76,109.3,110.56Z"/><path class="cls-8" d="M191.19,198c-7.72,5.14-11.15,5.83-20.86,8.25-27,5-55-10-60-38C104,131.13,119,92.36,147.87,69.77c-23.64,3-33.7,25.35-38.57,40.79-8.69,27.59-12.15,53.4-8.22,70.19s55.79,52.09,110.62,36.52C211.7,217.27,205.9,216.07,191.19,198Z"/><path class="cls-26" d="M198.11,196l-10.59,29.17,10.59-4.2L212.54,245s16.33.35,20-16S209.13,199.66,198.11,196Z"/></g></g></g></svg>