<svg xmlns="http://www.w3.org/2000/svg" viewBox="0 0 616.94 669.15"><defs><style>.cls-1{fill:#081221;}.cls-2{fill:#2e475e;}.cls-3{fill:#f39200;}.cls-4{fill:#ffde00;}.cls-5{fill:#b66e00;}.cls-6{fill:#be1622;}.cls-7{fill:#cb454e;}.cls-8{fill:#22263a;}.cls-9{fill:#3e5a80;}.cls-10{fill:#0d1b31;}.cls-11{fill:none;stroke:#0d1b31;stroke-miterlimit:10;stroke-width:1.89px;}.cls-12{fill:#fff;}</style></defs><title>dice-agregat</title><g id="Layer_2" data-name="Layer 2"><g id="user_scale" data-name="user scale"><rect class="cls-1" x="270.52" y="35.02" width="219.28" height="24.02"/><rect class="cls-1" x="270.52" y="68.77" width="219.28" height="12.01"/><rect class="cls-1" x="289.18" y="31.4" width="137.9" height="51.77"/><polygon class="cls-2" points="411.92 22.72 428.73 560.08 489.8 560.08 489.8 12.52 411.92 22.72"/><polygon class="cls-3" points="616.94 614.58 244.82 614.58 248.18 649.34 616.94 649.34 616.94 614.58"/><polygon class="cls-4" points="416.13 560.08 616.94 560.08 616.94 614.58 417.94 614.58 416.13 560.08"/><polygon class="cls-5" points="616.84 669.15 236.98 669.15 248.18 649.34 616.84 649.34 616.84 669.15"/><rect class="cls-4" x="260.87" y="606.79" width="84.82" height="7.79"/><rect class="cls-6" x="268.67" y="580.53" width="69.2" height="26.26"/><rect class="cls-7" x="313.5" y="580.53" width="13.91" height="26.26"/><path class="cls-8" d="M261.39,210.83,22.75,190.15a4.88,4.88,0,0,1-4.43-4.3L0,28.69a4.9,4.9,0,0,1,4.43-5.43L268,0a4.88,4.88,0,0,1,5.31,5l-6.61,201.08A4.88,4.88,0,0,1,261.39,210.83Z"/><polygon class="cls-9" points="22.91 185.56 4.56 27.86 268.72 4.57 262.09 206.28 22.91 185.56"/><polygon class="cls-8" points="244.62 172.16 36.38 167.89 23.4 56.33 249.88 26.09 244.62 172.16"/><polygon class="cls-10" points="40.48 163.38 28.49 60.29 245.09 31.36 240.19 167.47 40.48 163.38"/><rect class="cls-1" x="289.18" y="26.09" width="23.32" height="66.43"/><line class="cls-11" x1="487.91" y1="537.78" x2="445.15" y2="537.78"/><line class="cls-11" x1="487.91" y1="528.07" x2="473.95" y2="528.07"/><line class="cls-11" x1="487.91" y1="518.37" x2="473.95" y2="518.37"/><line class="cls-11" x1="487.91" y1="508.67" x2="473.95" y2="508.67"/><line class="cls-11" x1="487.91" y1="498.97" x2="473.95" y2="498.97"/><line class="cls-11" x1="487.91" y1="489.27" x2="445.15" y2="489.27"/><line class="cls-11" x1="487.91" y1="479.57" x2="473.95" y2="479.57"/><line class="cls-11" x1="487.91" y1="469.86" x2="473.95" y2="469.86"/><line class="cls-11" x1="487.91" y1="460.16" x2="473.95" y2="460.16"/><line class="cls-11" x1="487.91" y1="450.46" x2="473.95" y2="450.46"/><line class="cls-11" x1="487.91" y1="440.76" x2="445.15" y2="440.76"/><line class="cls-11" x1="487.91" y1="431.06" x2="473.95" y2="431.06"/><line class="cls-11" x1="487.91" y1="421.36" x2="473.95" y2="421.36"/><line class="cls-11" x1="487.91" y1="411.65" x2="473.95" y2="411.65"/><line class="cls-11" x1="487.91" y1="401.95" x2="473.95" y2="401.95"/><line class="cls-11" x1="487.91" y1="392.25" x2="445.15" y2="392.25"/><line class="cls-11" x1="487.91" y1="382.55" x2="473.95" y2="382.55"/><line class="cls-11" x1="487.91" y1="372.85" x2="473.95" y2="372.85"/><line class="cls-11" x1="487.91" y1="363.15" x2="473.95" y2="363.15"/><line class="cls-11" x1="487.91" y1="353.44" x2="473.95" y2="353.44"/><line class="cls-11" x1="487.91" y1="343.74" x2="445.15" y2="343.74"/><line class="cls-11" x1="487.91" y1="334.04" x2="473.95" y2="334.04"/><line class="cls-11" x1="487.91" y1="324.34" x2="473.95" y2="324.34"/><line class="cls-11" x1="487.91" y1="314.64" x2="473.95" y2="314.64"/><line class="cls-11" x1="487.91" y1="304.94" x2="473.95" y2="304.94"/><line class="cls-11" x1="487.91" y1="295.23" x2="445.15" y2="295.23"/><line class="cls-11" x1="487.91" y1="285.53" x2="473.95" y2="285.53"/><line class="cls-11" x1="487.91" y1="275.83" x2="473.95" y2="275.83"/><line class="cls-11" x1="487.91" y1="266.13" x2="473.95" y2="266.13"/><line class="cls-11" x1="487.91" y1="256.43" x2="473.95" y2="256.43"/><line class="cls-11" x1="487.91" y1="246.73" x2="445.15" y2="246.73"/><line class="cls-11" x1="487.91" y1="237.02" x2="473.95" y2="237.02"/><line class="cls-11" x1="487.91" y1="227.32" x2="473.95" y2="227.32"/><line class="cls-11" x1="487.91" y1="217.62" x2="473.95" y2="217.62"/><line class="cls-11" x1="487.91" y1="207.92" x2="473.95" y2="207.92"/><line class="cls-11" x1="487.91" y1="198.22" x2="445.15" y2="198.22"/><line class="cls-11" x1="487.91" y1="188.51" x2="473.95" y2="188.51"/><line class="cls-11" x1="487.91" y1="178.81" x2="473.95" y2="178.81"/><line class="cls-11" x1="487.91" y1="169.11" x2="473.95" y2="169.11"/><line class="cls-11" x1="487.91" y1="159.41" x2="473.95" y2="159.41"/><line class="cls-11" x1="487.91" y1="149.71" x2="445.15" y2="149.71"/><line class="cls-11" x1="487.91" y1="140.01" x2="473.95" y2="140.01"/><line class="cls-11" x1="487.91" y1="130.3" x2="473.95" y2="130.3"/><line class="cls-11" x1="487.91" y1="120.6" x2="473.95" y2="120.6"/><line class="cls-11" x1="487.91" y1="110.9" x2="473.95" y2="110.9"/><line class="cls-11" x1="487.91" y1="101.2" x2="445.15" y2="101.2"/><line class="cls-11" x1="487.91" y1="91.5" x2="473.95" y2="91.5"/><line class="cls-11" x1="487.91" y1="81.8" x2="473.95" y2="81.8"/><line class="cls-11" x1="487.91" y1="72.09" x2="473.95" y2="72.09"/><line class="cls-11" x1="487.91" y1="62.39" x2="473.95" y2="62.39"/><line class="cls-11" x1="487.91" y1="52.69" x2="445.15" y2="52.69"/><path class="cls-12" d="M445.74,31.64h2.39a.29.29,0,0,1,.22.09.25.25,0,0,1,.08.21v16.9a.28.28,0,0,1-.08.21.29.29,0,0,1-.22.09h-2.29a.29.29,0,0,1-.22-.09.28.28,0,0,1-.08-.21V34.54s0-.06-.05-.09a.11.11,0,0,0-.11,0l-1.77.52a.21.21,0,0,1-.12,0c-.15,0-.23-.09-.23-.28V33.06a.37.37,0,0,1,.23-.35l1.87-1A1.06,1.06,0,0,1,445.74,31.64Z"/><path class="cls-12" d="M451.43,48.08a5,5,0,0,1-1.27-3.52V36.21a4.91,4.91,0,0,1,1.27-3.51,5,5,0,0,1,6.79,0,4.84,4.84,0,0,1,1.29,3.51v8.35a4.88,4.88,0,0,1-1.29,3.52,5,5,0,0,1-6.79,0Zm4.69-1.78a2.33,2.33,0,0,0,.49-1.56V36a2.33,2.33,0,0,0-.49-1.56,1.58,1.58,0,0,0-1.31-.59,1.52,1.52,0,0,0-1.27.59,2.38,2.38,0,0,0-.48,1.56v8.7a2.38,2.38,0,0,0,.48,1.56,1.55,1.55,0,0,0,1.27.59A1.61,1.61,0,0,0,456.12,46.3Z"/><path class="cls-12" d="M462.18,48.08a5,5,0,0,1-1.27-3.52V36.21a4.91,4.91,0,0,1,1.27-3.51,5,5,0,0,1,6.79,0,4.84,4.84,0,0,1,1.29,3.51v8.35A4.88,4.88,0,0,1,469,48.08a5,5,0,0,1-6.79,0Zm4.69-1.78a2.33,2.33,0,0,0,.49-1.56V36a2.33,2.33,0,0,0-.49-1.56,1.58,1.58,0,0,0-1.31-.59,1.52,1.52,0,0,0-1.27.59,2.38,2.38,0,0,0-.48,1.56v8.7a2.38,2.38,0,0,0,.48,1.56,1.55,1.55,0,0,0,1.27.59A1.61,1.61,0,0,0,466.87,46.3Z"/><path class="cls-12" d="M458.76,286.24a12.43,12.43,0,0,1-.1,1.75,3.84,3.84,0,0,1-1.3,2.85,4.62,4.62,0,0,1-3.12,1,4.5,4.5,0,0,1-3-.95,4.19,4.19,0,0,1-1.4-2.85l-.08-.7a.27.27,0,0,1,.3-.3h2.3a.3.3,0,0,1,.33.3,2.32,2.32,0,0,0,.05.45c.2,1,.7,1.55,1.5,1.55a1.34,1.34,0,0,0,1-.4,2,2,0,0,0,.51-1.12,10.08,10.08,0,0,0,.1-1.6,7.44,7.44,0,0,0-.15-1.6,1.8,1.8,0,0,0-.51-1,1.36,1.36,0,0,0-1-.36,1.49,1.49,0,0,0-1.55,1.15.32.32,0,0,1-.33.28H450a.26.26,0,0,1-.21-.09.29.29,0,0,1-.09-.21v-9.93a.29.29,0,0,1,.09-.21.26.26,0,0,1,.21-.09h8.15a.31.31,0,0,1,.3.3v1.9a.26.26,0,0,1-.09.21.29.29,0,0,1-.21.09h-5.43c-.08,0-.12,0-.12.13v4.87c0,.05,0,.08.05.09s.06,0,.1,0a3,3,0,0,1,1-.71,3.09,3.09,0,0,1,1.28-.26,3.19,3.19,0,0,1,2.42,1,4.48,4.48,0,0,1,1.08,2.71A10,10,0,0,1,458.76,286.24Z"/><path class="cls-12" d="M461.44,290.58a4.87,4.87,0,0,1-1.28-3.51v-8.35a4.91,4.91,0,0,1,1.28-3.52,4.44,4.44,0,0,1,3.37-1.33,4.53,4.53,0,0,1,3.42,1.33,4.91,4.91,0,0,1,1.28,3.52v8.35a4.87,4.87,0,0,1-1.28,3.51,4.54,4.54,0,0,1-3.42,1.34A4.44,4.44,0,0,1,461.44,290.58Zm4.69-1.78a2.38,2.38,0,0,0,.48-1.56v-8.7a2.38,2.38,0,0,0-.48-1.56,1.65,1.65,0,0,0-1.32-.59,1.55,1.55,0,0,0-1.27.59,2.38,2.38,0,0,0-.48,1.56v8.7a2.38,2.38,0,0,0,.48,1.56,1.52,1.52,0,0,0,1.27.59A1.62,1.62,0,0,0,466.13,288.8Z"/><path class="cls-12" d="M461.09,532.63a4.87,4.87,0,0,1-1.27-3.51v-8.35a4.87,4.87,0,0,1,1.27-3.51,4.47,4.47,0,0,1,3.38-1.34,4.52,4.52,0,0,1,3.41,1.34,4.84,4.84,0,0,1,1.29,3.51v8.35a4.84,4.84,0,0,1-1.29,3.51,4.48,4.48,0,0,1-3.41,1.34A4.43,4.43,0,0,1,461.09,532.63Zm4.69-1.77a2.33,2.33,0,0,0,.49-1.56v-8.7a2.38,2.38,0,0,0-.49-1.57,1.6,1.6,0,0,0-1.31-.58,1.57,1.57,0,0,0-1.28.58,2.49,2.49,0,0,0-.47,1.57v8.7a2.44,2.44,0,0,0,.47,1.56,1.58,1.58,0,0,0,1.28.59A1.61,1.61,0,0,0,465.78,530.86Z"/></g></g></svg>