<svg xmlns="http://www.w3.org/2000/svg" xmlns:xlink="http://www.w3.org/1999/xlink" viewBox="0 0 311.66 295.96"><defs><style>.cls-1{fill:#07a;}.cls-2{fill:#3392bb;}.cls-3{fill:#051323;}.cls-4,.cls-5,.cls-6,.cls-7{fill:#ffde76;}.cls-4{opacity:0.1;}.cls-26,.cls-6{opacity:0.2;}.cls-11,.cls-22,.cls-7{opacity:0.5;}.cls-8{fill:#dd711f;}.cls-22,.cls-9{fill:#f2842a;}.cls-10{fill:#ff9739;}.cls-11{fill:#fad399;}.cls-12{fill:#ffc23b;}.cls-13{fill:#edaa24;}.cls-14{fill:#92352e;}.cls-15{fill:#772322;}.cls-16{fill:#e26154;}.cls-17{fill:#ededed;}.cls-18{fill:#060610;}.cls-19{fill:#fd8471;}.cls-20{fill:#e57f45;}.cls-21{fill:#f59e66;}.cls-23{fill:#000005;}.cls-24,.cls-25,.cls-26,.cls-27,.cls-28,.cls-29{fill:#fff;}.cls-25{opacity:0.05;}.cls-27{opacity:0.3;}.cls-28{opacity:0.6;}.cls-29{opacity:0.8;}.cls-30{fill:url(#Безымянный_градиент_14);}.cls-31{fill:url(#Безымянный_градиент_14-2);}.cls-32{fill:url(#Безымянный_градиент_14-3);}.cls-33{fill:url(#Безымянный_градиент_14-4);}.cls-34{fill:url(#Безымянный_градиент_14-5);}.cls-35{fill:url(#Безымянный_градиент_14-6);}.cls-36{fill:url(#Безымянный_градиент_14-7);}.cls-37{fill:url(#Безымянный_градиент_14-8);}.cls-38{fill:url(#Безымянный_градиент_14-9);}.cls-39{fill:url(#Безымянный_градиент_14-10);}.cls-40{fill:url(#Безымянный_градиент_14-11);}.cls-41{fill:url(#Безымянный_градиент_14-12);}.cls-42{fill:url(#Безымянный_градиент_14-13);}.cls-43{fill:url(#Безымянный_градиент_14-14);}.cls-44{fill:url(#Безымянный_градиент_14-15);}.cls-45{fill:#c6ada7;}.cls-46{fill:#e8d9d4;}.cls-47{fill:none;}</style><linearGradient id="Безымянный_градиент_14" x1="156.59" y1="152.73" x2="156.59" y2="-85.97" gradientUnits="userSpaceOnUse"><stop offset="0" stop-color="#fff"/><stop offset="0.03" stop-color="#fff" stop-opacity="0.84"/><stop offset="0.08" stop-color="#fff" stop-opacity="0.66"/><stop offset="0.12" stop-color="#fff" stop-opacity="0.5"/><stop offset="0.17" stop-color="#fff" stop-opacity="0.37"/><stop offset="0.23" stop-color="#fff" stop-opacity="0.25"/><stop offset="0.28" stop-color="#fff" stop-opacity="0.16"/><stop offset="0.35" stop-color="#fff" stop-opacity="0.09"/><stop offset="0.43" stop-color="#fff" stop-opacity="0.04"/><stop offset="0.54" stop-color="#fff" stop-opacity="0.01"/><stop offset="0.77" stop-color="#fff" stop-opacity="0"/></linearGradient><linearGradient id="Безымянный_градиент_14-2" x1="-1511.11" y1="-68.71" x2="-1511.11" y2="-307.41" gradientTransform="translate(688.9 -1263.19) rotate(-72)" xlink:href="#Безымянный_градиент_14"/><linearGradient id="Безымянный_градиент_14-3" x1="-1815.86" y1="-1723.22" x2="-1815.86" y2="-1961.92" gradientTransform="matrix(-0.81, -0.59, 0.59, -0.81, -299.58, -2308.73)" xlink:href="#Безымянный_градиент_14"/><linearGradient id="Безымянный_градиент_14-4" x1="-336.5" y1="-2524.33" x2="-336.5" y2="-2763.02" gradientTransform="matrix(-0.81, 0.59, -0.59, -0.81, -1599.4, -1691.71)" xlink:href="#Безымянный_градиент_14"/><linearGradient id="Безымянный_градиент_14-5" x1="882.54" y1="-1364.93" x2="882.54" y2="-1603.62" gradientTransform="translate(-1414.25 -264.84) rotate(72)" xlink:href="#Безымянный_градиент_14"/><linearGradient id="Безымянный_градиент_14-6" x1="754.92" y1="-460.04" x2="754.92" y2="-607.68" gradientTransform="translate(-728.61 100.46) rotate(34.74)" xlink:href="#Безымянный_градиент_14"/><linearGradient id="Безымянный_градиент_14-7" x1="-743.44" y1="310.97" x2="-743.44" y2="163.33" gradientTransform="translate(557.38 -544.88) rotate(-37.26)" xlink:href="#Безымянный_градиент_14"/><linearGradient id="Безымянный_градиент_14-8" x1="-1939.74" y1="-875.8" x2="-1939.74" y2="-1023.44" gradientTransform="translate(341.01 -1967.36) rotate(-109.26)" xlink:href="#Безымянный_градиент_14"/><linearGradient id="Безымянный_градиент_14-9" x1="-1180.73" y1="-2380.28" x2="-1180.73" y2="-2527.91" gradientTransform="translate(-1078.7 -2201.15) rotate(178.74)" xlink:href="#Безымянный_градиент_14"/><linearGradient id="Безымянный_градиент_14-10" x1="484.66" y1="-2123.32" x2="484.66" y2="-2270.96" gradientTransform="matrix(-0.29, 0.96, -0.96, -0.29, -1739.77, -923.16)" xlink:href="#Безымянный_градиент_14"/><linearGradient id="Безымянный_градиент_14-11" x1="900.93" y1="-968.19" x2="900.93" y2="-1115.83" gradientTransform="translate(-1151.17 -54.18) rotate(56.07)" xlink:href="#Безымянный_градиент_14"/><linearGradient id="Безымянный_градиент_14-12" x1="-215.04" y1="292.81" x2="-215.04" y2="145.17" gradientTransform="translate(281.45 -187.78) rotate(-15.93)" xlink:href="#Безымянный_градиент_14"/><linearGradient id="Безымянный_градиент_14-13" x1="-1759.18" y1="-378.87" x2="-1759.18" y2="-526.51" gradientTransform="translate(597.09 -1591.56) rotate(-87.93)" xlink:href="#Безымянный_градиент_14"/><linearGradient id="Безымянный_градиент_14-14" x1="-1597.54" y1="-2055" x2="-1597.54" y2="-2202.64" gradientTransform="matrix(-0.94, -0.34, 0.34, -0.94, -640.45, -2325.55)" xlink:href="#Безымянный_градиент_14"/><linearGradient id="Безымянный_градиент_14-15" x1="46.5" y1="-2419.22" x2="46.5" y2="-2566.86" gradientTransform="matrix(-0.62, 0.79, -0.79, -0.62, -1720.93, -1375.39)" xlink:href="#Безымянный_градиент_14"/></defs><title>clam-res-win</title><g id="Layer_2" data-name="Layer 2"><g id="clam_pearl"><circle class="cls-1" cx="30.34" cy="114.09" r="4.86"/><circle class="cls-2" cx="29.34" cy="110.58" r="1.22"/><circle class="cls-1" cx="41.72" cy="92.81" r="5.71"/><circle class="cls-2" cx="40.55" cy="88.69" r="1.43"/><circle class="cls-1" cx="40.7" cy="38.79" r="8.13"/><circle class="cls-2" cx="39.59" cy="34.88" r="4.07"/><circle class="cls-1" cx="10.6" cy="74.16" r="8.13"/><circle class="cls-2" cx="9.25" cy="69.4" r="2.8"/><circle class="cls-1" cx="73.59" cy="139.93" r="2.43"/><circle class="cls-1" cx="50.9" cy="141.86" r="2.43"/><circle class="cls-1" cx="69.64" cy="150.9" r="1.52"/><circle class="cls-1" cx="70.8" cy="126.59" r="1.52"/><circle class="cls-1" cx="58.65" cy="117.87" r="4.16"/><circle class="cls-1" cx="267.45" cy="114.09" r="4.86"/><circle class="cls-2" cx="268.45" cy="110.58" r="1.22"/><circle class="cls-1" cx="256.07" cy="92.81" r="5.71"/><circle class="cls-2" cx="257.24" cy="88.69" r="1.43"/><circle class="cls-1" cx="257.09" cy="38.79" r="8.13"/><circle class="cls-2" cx="258.2" cy="34.88" r="4.07"/><circle class="cls-1" cx="287.19" cy="74.16" r="8.13"/><circle class="cls-2" cx="288.54" cy="69.4" r="2.8"/><circle class="cls-1" cx="224.2" cy="139.93" r="2.43"/><circle class="cls-1" cx="246.89" cy="141.86" r="2.43"/><circle class="cls-1" cx="228.15" cy="150.9" r="1.52"/><circle class="cls-1" cx="226.99" cy="126.59" r="1.52"/><circle class="cls-1" cx="239.14" cy="117.87" r="4.16"/><path class="cls-3" d="M54.48,216.63a16.79,16.79,0,0,1,.31-2,16.29,16.29,0,0,1,.62-1.95c.5-1.3,1.18-2.62,1.88-4,.28-.55.56-1.11.83-1.68,0,.18.07.35.11.53a7.21,7.21,0,0,0,1.28,2.55,22,22,0,0,0,3.59,3.33,14.64,14.64,0,0,1,1.44,1.39,11.85,11.85,0,0,1,1.17,1.57,10.31,10.31,0,0,1,1.45,3.48,6.52,6.52,0,0,1-1.86,6.21,13.08,13.08,0,0,1-4.77,2.79c2.93-.34,6.12-.66,9.54-1a10.73,10.73,0,0,0,1.44-3.53,11.17,11.17,0,0,0-.23-5.55,14.42,14.42,0,0,0-2.38-4.67,16.24,16.24,0,0,0-1.69-1.92,18.29,18.29,0,0,0-1.95-1.61A20.5,20.5,0,0,1,62,208.08a4.12,4.12,0,0,1-.86-1.4,4.76,4.76,0,0,1-.25-1.71,8.51,8.51,0,0,1,1.06-3.75,41.15,41.15,0,0,1,2.32-3.75,22,22,0,0,0,3.51-8.66,16.22,16.22,0,0,0-1.05-9.17,13.58,13.58,0,0,0-6-6.66,13.17,13.17,0,0,1,5.38,6.92,15,15,0,0,1,.32,8.63,20.1,20.1,0,0,1-3.86,7.71c-.74,1-1.54,2-2.28,3.06a24.08,24.08,0,0,0-2-9.46c-1.19-2.92-2.65-5.63-3.86-8.42a23.85,23.85,0,0,1-2.3-8.69,14.51,14.51,0,0,1,.49-4.49,10.74,10.74,0,0,1,2.1-4,10.73,10.73,0,0,0-2.43,3.93,14.63,14.63,0,0,0-.86,4.59A24.73,24.73,0,0,0,53,181.94c.4,1.15.83,2.28,1.27,3.4-.21-.37-.43-.73-.66-1.09a41.86,41.86,0,0,0-2.83-3.88A42.15,42.15,0,0,0,44,173.76a21.74,21.74,0,0,1,10-16.12,22.35,22.35,0,0,0-11.51,17.69,23.15,23.15,0,0,0,1.81,11,25.32,25.32,0,0,0,2.82,4.88c1.07,1.5,2.17,2.91,3.1,4.35a16.92,16.92,0,0,1,1.21,2.19c0,.06,0,.12.08.19a36.43,36.43,0,0,1-6.14,5.57c-1.11.85-2.24,1.72-3.33,2.65-.07-.1-.13-.2-.19-.3a25.49,25.49,0,0,0-2.62-3.36,61.68,61.68,0,0,1-5.18-6,12.93,12.93,0,0,1-1.65-3.33,12.53,12.53,0,0,1-.48-3.73,19.69,19.69,0,0,1,.48-3.87,26.5,26.5,0,0,1,1.14-3.78,13.53,13.53,0,0,1,4.66-6.3,13.88,13.88,0,0,0-5.3,6,26,26,0,0,0-1.52,3.8,20.12,20.12,0,0,0-.87,4,13.84,13.84,0,0,0,.17,4.25,14.6,14.6,0,0,0,1.56,4,60.39,60.39,0,0,0,4.8,6.63,24.31,24.31,0,0,1,2,3.17c.18.34.33.67.47,1q-.78.81-1.5,1.71a15.47,15.47,0,0,0-2.61,4.7,12.28,12.28,0,0,0-.55,5.59,15.13,15.13,0,0,0,2,5.71,23.15,23.15,0,0,1-2.64,3.41c.06-.29.12-.59.17-.89a18.14,18.14,0,0,0,.1-5.51,12.45,12.45,0,0,0-2-5.28,16.84,16.84,0,0,0-3.38-3.5q.42-.5.81-1.05a10.62,10.62,0,0,0,1.45-2.75,9.71,9.71,0,0,0,.51-3,15.19,15.19,0,0,0-1.17-5.79c-1.45-3.62-3.75-6.66-5.11-10.21,1,3.66,3.08,7,4.14,10.54a14.16,14.16,0,0,1,.6,5.37,8,8,0,0,1-.66,2.49,8.82,8.82,0,0,1-1.39,2.14c-.29.34-.6.67-.92,1-.84-.61-1.67-1.21-2.45-1.83a11.81,11.81,0,0,1-3-3.29,7.21,7.21,0,0,1,1-8.53,7.72,7.72,0,0,0-2.62,4.08,8.26,8.26,0,0,0-.26,2.53,8,8,0,0,0,.2,1.29,8.13,8.13,0,0,0,.4,1.24,13.5,13.5,0,0,0,2.86,4.23c.67.73,1.37,1.41,2,2.07-.41.4-.82.81-1.22,1.26a12.31,12.31,0,0,0-1.82,2.62,12.07,12.07,0,0,0-1,3.14,13.34,13.34,0,0,0,0,3.28,12.3,12.3,0,0,0,2.52,6.1l.32.36h3.43l.18-.29a.75.75,0,0,1-.07.12l.37.17h5.52c.05-.15.1-.3.14-.46l.47.46h5.24c.28-.42.56-.84.82-1.27.51.45,1,.87,1.59,1.27h2a114.11,114.11,0,0,1,14.89-2.58A15.71,15.71,0,0,1,54.48,216.63ZM28.62,230A7.77,7.77,0,0,1,27,228.75a9,9,0,0,1-1.34-1.88,10.33,10.33,0,0,1-.81-2.24,9.57,9.57,0,0,1-.19-2.39,8.51,8.51,0,0,1,.5-2.33,9.4,9.4,0,0,1,1.23-2.15c.28-.38.59-.76.92-1.15a13.35,13.35,0,0,1,2.23,3.1,7.7,7.7,0,0,1,.63,1.86,9.14,9.14,0,0,1,.19,2A15.42,15.42,0,0,1,28.62,230Zm11.55-12a23.93,23.93,0,0,1-.76,2.88,8.74,8.74,0,0,1-.32-1.14,8.28,8.28,0,0,1,.08-3.8,11.48,11.48,0,0,1,1.37-3.13A21.66,21.66,0,0,1,40.17,218Zm15.64-24.23a10.47,10.47,0,0,0,.13-4c.09.26.18.52.26.78a21.72,21.72,0,0,1,1.2,8.57,12.93,12.93,0,0,1-1.08,4c-.28.63-.61,1.25-1,1.88a11.71,11.71,0,0,0-.1-5.79,11.2,11.2,0,0,0-.74-2A13.88,13.88,0,0,0,55.81,193.81ZM43.33,226.3c-.22-.17-.44-.36-.65-.55a28.71,28.71,0,0,0,1.1-3.6,13.42,13.42,0,0,0,.34,3.29,13.89,13.89,0,0,0,.57,1.83A14.56,14.56,0,0,1,43.33,226.3Zm5.59-2.11a8.91,8.91,0,0,1-.36-2,7.38,7.38,0,0,1,0-1,7,7,0,0,1,.16-1.09,17.29,17.29,0,0,1,1.53-4.14l0,.17a20.36,20.36,0,0,0-.21,5.17,21.68,21.68,0,0,0,1.12,5.08,20,20,0,0,0,1.08,2.53A8.94,8.94,0,0,1,48.92,224.19Zm2.94-19.75c-1,3-3.19,5.8-5.11,9a22.63,22.63,0,0,0-2.37,5.19v0a22.84,22.84,0,0,0-.67-8.72c-.08-.25-.17-.5-.25-.75,1.15-1.19,2.41-2.34,3.7-3.48a44.32,44.32,0,0,0,5.11-5.14A8.79,8.79,0,0,1,51.86,204.44Zm1.5-9.31c-.26-.41-.54-.8-.82-1.19-2.26-3-4.83-5.44-6.33-8.52a21.15,21.15,0,0,1-1.76-4.85,20.9,20.9,0,0,1-.55-5.17c0-.55,0-1.09.09-1.64a42.12,42.12,0,0,1,6.24,7,40.24,40.24,0,0,1,2.49,4A15.32,15.32,0,0,1,54.34,189a8.78,8.78,0,0,1-.25,4.32A10.47,10.47,0,0,1,53.36,195.13Z"/><path class="cls-3" d="M289.23,227.55a4.43,4.43,0,0,1-.86-2.12,5.67,5.67,0,0,1,.39-2.46c.58-1.72,1.72-3.6,1.65-5.76a4.4,4.4,0,0,0-1.19-2.85,4.32,4.32,0,0,0-2.61-1.34,4,4,0,0,1,2.95,4.17,7,7,0,0,1-.89,2.55c-.44.82-1,1.63-1.46,2.55-.11.21-.21.43-.31.65,0-.43,0-.86-.11-1.28a11.49,11.49,0,0,0-1-3.14,12.64,12.64,0,0,0-1.82-2.63c-1.36-1.51-2.84-2.69-4-4a8.82,8.82,0,0,1-1.39-2.14,8,8,0,0,1-.66-2.49,14.14,14.14,0,0,1,.6-5.37c1.06-3.55,3.11-6.88,4.14-10.54-1.36,3.55-3.66,6.58-5.11,10.2a15.28,15.28,0,0,0-1.17,5.8,10.11,10.11,0,0,0,.51,3.05,10.78,10.78,0,0,0,1.45,2.75c1.18,1.66,2.58,3,3.62,4.41a9.4,9.4,0,0,1,1.23,2.15,8.43,8.43,0,0,1,.5,2.33,9.61,9.61,0,0,1-.19,2.39,10.86,10.86,0,0,1-.8,2.24,9.46,9.46,0,0,1-1.34,1.87l-.29.27a17.55,17.55,0,0,0,.94-4.53,12.41,12.41,0,0,0-.88-5.58,17.18,17.18,0,0,0-2.86-4.45c-1.08-1.28-2.19-2.42-3.17-3.62a11.71,11.71,0,0,1-2.29-3.85,6.76,6.76,0,0,1,.18-4.92c.73-.93,1.46-1.88,2.14-2.89l.42-.33-.33.19c.3-.45.58-.91.85-1.38a14.54,14.54,0,0,0,1.56-4,13.76,13.76,0,0,0,.17-4.24,20.12,20.12,0,0,0-.87-4,24.49,24.49,0,0,0-1.52-3.8,13.85,13.85,0,0,0-5.3-6,13.61,13.61,0,0,1,4.66,6.31,25.75,25.75,0,0,1,1.14,3.78,19.59,19.59,0,0,1,.48,3.86,12.48,12.48,0,0,1-.48,3.73,12.93,12.93,0,0,1-1.65,3.33,60.51,60.51,0,0,1-5.18,5.95,26.27,26.27,0,0,0-2.62,3.37c-.06.09-.12.2-.19.3-1.09-.94-2.22-1.8-3.33-2.65a36.06,36.06,0,0,1-6.14-5.58c0-.06.05-.12.08-.19a16.39,16.39,0,0,1,1.22-2.18c.92-1.44,2-2.86,3.09-4.36a25.32,25.32,0,0,0,2.82-4.88,22.3,22.3,0,0,0,1.58-5.4,22.71,22.71,0,0,0,.23-5.58,22.35,22.35,0,0,0-11.51-17.69,21.72,21.72,0,0,1,10,16.12,42.56,42.56,0,0,0-6.81,6.61,40.56,40.56,0,0,0-2.83,3.88c-.23.35-.45.72-.66,1.09.44-1.12.87-2.26,1.27-3.4A24.76,24.76,0,0,0,257,172.5a14.69,14.69,0,0,0-.86-4.6,10.69,10.69,0,0,0-2.43-3.92,10.67,10.67,0,0,1,2.1,4,14.48,14.48,0,0,1,.49,4.49,24,24,0,0,1-2.3,8.69c-1.21,2.79-2.67,5.49-3.86,8.42a24.08,24.08,0,0,0-2,9.46c-.73-1.1-1.54-2.09-2.28-3.06A20.17,20.17,0,0,1,242,188.3a15.11,15.11,0,0,1,.32-8.63,13.23,13.23,0,0,1,5.38-6.93,13.56,13.56,0,0,0-6,6.67,16.19,16.19,0,0,0-1.05,9.16,21.94,21.94,0,0,0,3.51,8.67,41,41,0,0,1,2.32,3.74,8.59,8.59,0,0,1,1.06,3.76,4.76,4.76,0,0,1-.25,1.71,4.08,4.08,0,0,1-.86,1.39,19.94,19.94,0,0,1-3.28,2.54,17.16,17.16,0,0,0-1.95,1.61,15.48,15.48,0,0,0-1.69,1.92,14.42,14.42,0,0,0-2.38,4.67,11.16,11.16,0,0,0-.23,5.55,10.69,10.69,0,0,0,1.32,3.33q4.53.36,8.6.75a12,12,0,0,1-3.71-2.37,6.58,6.58,0,0,1-1.86-6.22,10.7,10.7,0,0,1,1.45-3.48,14.53,14.53,0,0,1,1.17-1.57,15.89,15.89,0,0,1,1.44-1.39,21.93,21.93,0,0,0,3.59-3.32,7.25,7.25,0,0,0,1.28-2.56c0-.17.07-.35.11-.52.27.57.55,1.13.83,1.68.7,1.37,1.38,2.69,1.89,4a18.81,18.81,0,0,1,.61,1.94,17,17,0,0,1,.31,2,15.76,15.76,0,0,1-4.13,12.11A169.73,169.73,0,0,1,266.8,231c.37-.29.73-.58,1.09-.89.26.43.54.85.82,1.27H274l.17-.17.23.17H280c.08-.17.17-.34.25-.5l.3.5H284l.32-.36a13.57,13.57,0,0,0,1.7-2.91c.14-.38.26-.75.38-1.14a7.07,7.07,0,0,0,.67,1.87,8.5,8.5,0,0,0,2.1,2.54h3.66l.48-1.39A7.11,7.11,0,0,1,289.23,227.55ZM253.06,199a11.75,11.75,0,0,0-.1,5.8c-.35-.63-.68-1.26-1-1.89a12.8,12.8,0,0,1-1.08-4,21.77,21.77,0,0,1,1.2-8.58c.08-.26.17-.52.26-.77a10.62,10.62,0,0,0,.13,4,14,14,0,0,0,1.29,3.4A11.1,11.1,0,0,0,253.06,199Zm1.9-4.08a10.37,10.37,0,0,1-.73-1.76,8.78,8.78,0,0,1-.25-4.32,15.2,15.2,0,0,1,1.62-4.25,41.58,41.58,0,0,1,2.49-4,42.45,42.45,0,0,1,6.24-7c.05.54.09,1.09.09,1.64a21.37,21.37,0,0,1-2.31,10c-1.5,3.08-4.07,5.49-6.33,8.53C255.5,194.09,255.22,194.49,255,194.89ZM259.4,224a8.94,8.94,0,0,1-3.34,4.64,20.16,20.16,0,0,0,1.08-2.54,21.11,21.11,0,0,0,1.12-5.07,20.33,20.33,0,0,0-.21-5.17l0-.17a16.88,16.88,0,0,1,1.53,4.14,5.75,5.75,0,0,1,.16,1.08,7.6,7.6,0,0,1,.05,1A9,9,0,0,1,259.4,224Zm-2.94-19.75a8.8,8.8,0,0,1-.41-3.89,43.45,43.45,0,0,0,5.11,5.13c1.29,1.15,2.55,2.29,3.7,3.49-.08.24-.17.49-.25.74a22.91,22.91,0,0,0-.67,8.73v0a23.08,23.08,0,0,0-2.38-5.19C259.65,210,257.44,207.21,256.46,204.21ZM265,226.07a14.56,14.56,0,0,1-1.36,1,14.89,14.89,0,0,0,.57-1.83,13.42,13.42,0,0,0,.34-3.29,28.71,28.71,0,0,0,1.1,3.6C265.43,225.71,265.21,225.89,265,226.07Zm4.24-6.52a9.2,9.2,0,0,1-.32,1.14,24.09,24.09,0,0,1-.76-2.89,21.54,21.54,0,0,1-.37-5.18,11.35,11.35,0,0,1,1.37,3.13A8.28,8.28,0,0,1,269.23,219.55Zm8.58,4.18a15.6,15.6,0,0,1-3.17,6.22,22.85,22.85,0,0,1-3.24-4,15.19,15.19,0,0,0,2-5.71,12.46,12.46,0,0,0-.54-5.6,15.65,15.65,0,0,0-2.62-4.69,22.64,22.64,0,0,0-1.5-1.71,10.23,10.23,0,0,1,.47-1,23,23,0,0,1,2.05-3.17l.27-.35a6.93,6.93,0,0,0-.17.79,7.09,7.09,0,0,0-.07,1.3,7,7,0,0,0,.13,1.29,13.47,13.47,0,0,0,1.93,4.74c.86,1.43,1.8,2.75,2.62,4.07a14.25,14.25,0,0,1,1.8,3.92,7.59,7.59,0,0,1,.23,1.95A9.44,9.44,0,0,1,277.81,223.73Z"/><path class="cls-4" d="M160.18,224.09h-.56c61.44.13,110.77,4.26,110.77,9.33s-50.91,9.33-113.71,9.33S43,238.57,43,233.42s49.33-9.2,110.77-9.33h-.56c-73.23.16-132,5.08-132,11.12s60.68,11.12,135.53,11.12,135.52-5,135.52-11.12S233.41,224.25,160.18,224.09Z"/><path class="cls-5" d="M158.7,224.09h0Z"/><path class="cls-5" d="M154.65,224.09h0Z"/><path class="cls-5" d="M159.13,224.09h0Z"/><path class="cls-5" d="M154.65,224.09h0Z"/><path class="cls-5" d="M158.7,224.09h0Z"/><path class="cls-5" d="M154.65,224.09h0Z"/><path class="cls-6" d="M251.2,231.85c0,4.28-42.32,7.75-94.52,7.75s-94.53-3.47-94.53-7.75,41-7.65,92.07-7.76h-.49C92.29,224.22,43,228.35,43,233.42s50.91,9.33,113.72,9.33,113.71-4.18,113.71-9.33-49.33-9.2-110.77-9.33h-.49C210.2,224.2,251.2,227.63,251.2,231.85Z"/><path class="cls-7" d="M234.79,230.5c0,3.54-35,6.41-78.11,6.41S78.56,234,78.56,230.5s33.88-6.32,76.09-6.41h-.43c-51.07.11-92.07,3.54-92.07,7.76s42.32,7.75,94.53,7.75,94.52-3.47,94.52-7.75-41-7.65-92.07-7.76h-.43C200.91,224.18,234.79,227,234.79,230.5Z"/><path class="cls-5" d="M78.56,230.5c0,3.54,35,6.41,78.12,6.41s78.11-2.87,78.11-6.41-33.88-6.32-76.09-6.41h-4C112.44,224.18,78.56,227,78.56,230.5Z"/><path class="cls-8" d="M122.52,52.53a160.6,160.6,0,0,0-25.18-3.72,14.14,14.14,0,0,0-10.48,3.46c-3.71,3.55-9.25,10.13-15.07,21.62l17.52,2.57L122.4,64.73Z"/><path class="cls-9" d="M158.55,42a220.16,220.16,0,0,0-34.7-5.12c-5.58-.33-11,1.47-14.44,4.76-5.11,4.89-12.74,14-20.76,29.79l24.14,6.24,45.6-18.85Z"/><path class="cls-8" d="M192.63,52.53a160.36,160.36,0,0,1,25.18-3.72,14.14,14.14,0,0,1,10.48,3.46c3.7,3.55,9.24,10.13,15.06,21.62l-17.51,2.57L192.75,64.73Z"/><path class="cls-9" d="M156.59,42A220.41,220.41,0,0,1,191.3,36.9c5.58-.33,11,1.47,14.43,4.76,5.11,4.89,12.75,14,20.77,29.79l-24.14,6.24L156.75,58.84Z"/><path class="cls-10" d="M134.57,72.57a34.28,34.28,0,0,1,44,0A22,22,0,0,1,181,74.85h25.27L182.64,42c-4.73-6.58-13.94-10.68-23.95-10.68h-3.17c-10,0-19.22,4.1-24,10.68L107.92,74.85h24.37A27.25,27.25,0,0,1,134.57,72.57Z"/><path class="cls-11" d="M175,38.55c0,3.06-7.82-.3-17.47-.3s-17.47,3.36-17.47.3,7.82-6.23,17.47-6.23S175,35.49,175,38.55Z"/><ellipse class="cls-10" cx="109.42" cy="49.69" rx="13.79" ry="3.29" transform="translate(-0.43 98.42) rotate(-48.35)"/><ellipse class="cls-9" cx="86.23" cy="57.27" rx="8.48" ry="2.02" transform="translate(-13.87 83.64) rotate(-48.35)"/><ellipse class="cls-10" cx="205.72" cy="49.69" rx="3.29" ry="13.79" transform="translate(18.99 149.29) rotate(-41.65)"/><path class="cls-12" d="M183.35,173a100.27,100.27,0,0,1,3.64-13.5,50.48,50.48,0,0,1,7-13A73.42,73.42,0,0,1,203.83,136c3.47-3.14,7-6,10.51-8.85,1.75-1.41,3.53-2.81,5.29-4.18l2.64-2.07c.82-.68,1.54-1.32,2.32-2a56.2,56.2,0,0,0,4.35-4.08,10.15,10.15,0,0,0,1-1.09l.95-1.11,1-1.11c.32-.37.57-.78.86-1.16a40.4,40.4,0,0,0,5.53-9.85,13.55,13.55,0,0,0,.47-1.3l.43-1.31c.27-.88.46-1.77.69-2.64A34.85,34.85,0,0,0,240.5,90c0-.4,0-.84,0-1.22l0-.56,0-.36s0,.09,0,.05l0-.07,0-.13c0-.08,0-.17-.06-.26a2.6,2.6,0,0,1-.1-.25l0-.13-.07-.12a3.71,3.71,0,0,0-1.41-1.58,4.38,4.38,0,0,0-.93-.44c-.17,0-.31-.11-.48-.1a1,1,0,0,1-.23,0h-.23c-.15,0-.3,0-.45,0s-.14,0-.22.06-.15,0-.22,0a1.09,1.09,0,0,1-.23.09l-.12,0-.35.13-1.57.58-6.26,2.35-3.14,1.16-1.57.58-.79.29-1,.34a37.4,37.4,0,0,1-33.33-4.67l-.88-.61-.68-.49-1.35-1-2.71-2-5.41-3.93-2.71-2-1.35-1-1-.69a24.93,24.93,0,0,0-27.8,0l-1,.7-1.35,1-2.7,2-5.41,3.94-2.71,2-1.35,1-.68.49-.87.6a37.43,37.43,0,0,1-33.36,4.7l-1-.33-.79-.29-1.57-.58-3.13-1.16L81.45,85.8l-1.57-.59-.35-.13-.13,0L79.18,85c-.07,0-.15,0-.22,0a1.42,1.42,0,0,0-.22,0c-.14,0-.29-.06-.44,0h-.22l-.23,0c-.16,0-.3.09-.47.09a4.55,4.55,0,0,0-.92.44A3.63,3.63,0,0,0,75.08,87c-.11.15-.11.34-.21.49a2.56,2.56,0,0,0-.05.27l0,.13s0,.11,0,0,0,0,0,0V88l0,.22,0,.56c0,.37,0,.81,0,1.21a34.43,34.43,0,0,0,.68,5.22c.23.87.41,1.76.68,2.63l.43,1.31c.15.44.28.88.47,1.3a39.85,39.85,0,0,0,5.52,9.82c.29.39.54.8.86,1.16l1,1.11,1,1.11a10.05,10.05,0,0,0,1,1.08,57.93,57.93,0,0,0,4.34,4.08c.78.65,1.51,1.29,2.32,2l2.65,2.07c1.76,1.37,3.53,2.77,5.29,4.18,3.52,2.84,7,5.7,10.52,8.85a73.12,73.12,0,0,1,9.89,10.52,50.2,50.2,0,0,1,7,13,99.45,99.45,0,0,1,3.66,13.51L124.27,175a104.08,104.08,0,0,0-4.75-11.89,40.66,40.66,0,0,0-6.61-9.9,71.06,71.06,0,0,0-9.19-8.18c-3.36-2.6-7-5.08-10.62-7.57l-5.48-3.75-2.76-1.88c-1-.68-2-1.44-3-2.16a63.76,63.76,0,0,1-5.71-4.74,16.65,16.65,0,0,1-1.35-1.31l-1.31-1.35-1.31-1.37c-.43-.45-.81-1-1.22-1.45a53.29,53.29,0,0,1-8.24-13c-.29-.58-.52-1.2-.76-1.81l-.7-1.84c-.45-1.24-.81-2.52-1.2-3.79a47,47,0,0,1-1.39-8c0-.72-.1-1.4-.11-2.14V87.74l0-.62v-.7a7.82,7.82,0,0,1,.1-.8l.11-.7c.08-.46.14-.92.26-1.38A19.36,19.36,0,0,1,60,80.86,19.94,19.94,0,0,1,74.43,68.5q.7-.15,1.41-.27c.48-.06,1-.1,1.44-.14a20,20,0,0,1,2.9,0,22.67,22.67,0,0,1,2.86.43l1.39.37c.23.07.48.13.68.2l.44.15,1.58.54L99.61,74a20.15,20.15,0,0,0,17.71-2.85l.5-.35.67-.5,1.34-1,2.68-2,5.36-4,2.68-2,1.35-1,1.73-1.18a43.39,43.39,0,0,1,7.44-4,42.77,42.77,0,0,1,33,0,45.22,45.22,0,0,1,7.44,4l1.72,1.19,1.34,1,2.69,2,5.36,4,2.67,2,1.34,1,.67.5.5.35a20.5,20.5,0,0,0,8.5,3.51,20.24,20.24,0,0,0,9.24-.65L228,69.82l1.59-.53.44-.15.68-.2,1.38-.37a25,25,0,0,1,2.86-.43,19.91,19.91,0,0,1,2.89,0c.48,0,1,.08,1.44.14s.94.17,1.41.27a21,21,0,0,1,2.74.8,20.31,20.31,0,0,1,4.94,2.72,20,20,0,0,1,6.71,8.82l.26.66.2.67c.14.45.26.9.38,1.35s.18.92.26,1.38l.11.69.05.35c0,.1,0,.31,0,.46a3.07,3.07,0,0,1,0,.38v.31l0,.62v1.11c0,.74-.07,1.42-.11,2.13a46.79,46.79,0,0,1-1.41,8c-.38,1.27-.74,2.55-1.19,3.78l-.71,1.84a19.09,19.09,0,0,1-.77,1.8,52.89,52.89,0,0,1-8.23,13c-.41.48-.79,1-1.23,1.45l-1.31,1.36-1.31,1.35a14.93,14.93,0,0,1-1.34,1.3,65.5,65.5,0,0,1-5.71,4.74c-1,.72-2,1.47-2.94,2.15l-2.76,1.88L222,137.36c-3.64,2.49-7.26,5-10.63,7.57a70.59,70.59,0,0,0-9.21,8.19,40.65,40.65,0,0,0-6.64,9.93,105,105,0,0,0-4.76,11.9Z"/><path class="cls-13" d="M195.47,163.05a40.65,40.65,0,0,1,6.64-9.93,70.59,70.59,0,0,1,9.21-8.19c3.37-2.59,7-5.08,10.63-7.57l5.49-3.74,2.76-1.88c1-.68,2-1.43,2.94-2.15a65.5,65.5,0,0,0,5.71-4.74,14.93,14.93,0,0,0,1.34-1.3l1.31-1.35,1.31-1.36c.44-.45.82-1,1.23-1.45a52.89,52.89,0,0,0,8.23-13,19.09,19.09,0,0,0,.77-1.8l.71-1.84c.45-1.23.81-2.51,1.19-3.78s.63-2.6.87-3.93c-.07-.27-.15-.55-.23-.82l-.2-.67-.26-.65a20,20,0,0,0-6.71-8.83,20.31,20.31,0,0,0-4.94-2.72,21,21,0,0,0-2.74-.8q-.71-.15-1.41-.27l-1.44-.14a19.91,19.91,0,0,0-2.89,0,25,25,0,0,0-2.86.42l-1.38.37-.68.2-.44.15-1.59.54L215.56,86a20.1,20.1,0,0,1-9.24.64,20.5,20.5,0,0,1-8.5-3.51l-.5-.35-.67-.5-1.33-1-2.68-2-5.36-4-2.69-2-1.34-1-1.72-1.18a42.74,42.74,0,0,0-47.9,0l-1.73,1.18-1.35,1-2.68,2-5.36,4-2.68,2-1.34,1-.67.51-.5.35a20.57,20.57,0,0,1-8.49,3.5A20.15,20.15,0,0,1,99.61,86L87.13,81.77l-1.58-.53-.44-.15c-.2-.07-.45-.14-.68-.2-.46-.13-.92-.26-1.39-.37a22.68,22.68,0,0,0-2.86-.44,20,20,0,0,0-2.9,0l-1.44.14q-.7.12-1.41.27a21.8,21.8,0,0,0-2.76.8,20.38,20.38,0,0,0-5,2.72A20.09,20.09,0,0,0,60,92.86a15.38,15.38,0,0,0-.71,2.21c.23,1.32.53,2.62.85,3.9s.75,2.55,1.2,3.79l.7,1.84c.24.61.47,1.23.76,1.81a53.29,53.29,0,0,0,8.24,13c.41.48.79,1,1.22,1.45l1.31,1.37,1.31,1.35a16.65,16.65,0,0,0,1.35,1.31,63.76,63.76,0,0,0,5.71,4.74c1,.72,2,1.48,3,2.16l2.76,1.88,5.48,3.75c3.64,2.49,7.26,5,10.62,7.57a71.06,71.06,0,0,1,9.19,8.18,40.66,40.66,0,0,1,6.61,9.9A104.08,104.08,0,0,1,124.27,175l4.75-1.28c-.25-.77-.5-1.53-.78-2.3a50.2,50.2,0,0,0-7-13,73.12,73.12,0,0,0-9.89-10.52c-3.48-3.14-7-6-10.52-8.85-1.76-1.41-3.53-2.81-5.29-4.18l-2.65-2.07c-.81-.67-1.54-1.32-2.32-2-1.58-1.25-2.92-2.7-4.34-4.07a10.15,10.15,0,0,1-1-1.09l-1-1.11-1-1.1c-.32-.37-.57-.78-.86-1.16A39.91,39.91,0,0,1,77,112.44c-.19-.42-.32-.86-.47-1.3l-.43-1.3c-.27-.88-.45-1.76-.68-2.64a34.43,34.43,0,0,1-.68-5.22c0-.4,0-.83,0-1.21l0-.56,0-.21v-.16s0,0,0,0,0,0,0,0l0-.13a2,2,0,0,1,.05-.26c.1-.16.1-.35.21-.49a3.77,3.77,0,0,1,1-1.25c-.25-.83-.44-1.67-.65-2.5A34.43,34.43,0,0,1,74.71,90c0-.4,0-.84,0-1.21l0-.56,0-.22v-.16s0,0,0,0,0,0,0,0l0-.13a2.56,2.56,0,0,1,.05-.27c.1-.15.1-.34.21-.49a3.63,3.63,0,0,1,1.38-1.55,4.55,4.55,0,0,1,.92-.44c.17,0,.31-.1.47-.09l.23,0h.22c.15,0,.3,0,.44,0a1.42,1.42,0,0,1,.22,0c.07,0,.15,0,.22,0l.22.08.13,0,.35.13,1.57.59,6.27,2.34,3.13,1.16,1.57.58.79.29,1,.33a37.43,37.43,0,0,0,33.36-4.7l.87-.6.68-.49,1.35-1,2.71-2,5.41-3.94,2.7-2,1.35-1,1-.7a24.85,24.85,0,0,1,27.8,0l1,.69,1.35,1,2.71,2L182,81.74l2.71,2,1.35,1,.68.49.88.61a37.4,37.4,0,0,0,33.33,4.67l1-.34.79-.29,1.57-.58,3.14-1.16,6.26-2.35,1.57-.58.35-.13.12,0,.23-.09c.07,0,.15,0,.22,0s.15-.06.22-.06.3-.06.45,0h.23a1,1,0,0,0,.23,0c.17,0,.31.09.48.1a4.38,4.38,0,0,1,.93.44,3.71,3.71,0,0,1,1.41,1.58l.07.12,0,.13a2.6,2.6,0,0,0,.1.25c0,.09,0,.18.06.26l0,.13,0,.07s0,0,0-.05l0,.36,0,.56c0,.38,0,.82,0,1.22a34.85,34.85,0,0,1-.68,5.24c-.21.81-.4,1.64-.64,2.46a3.84,3.84,0,0,1,.95,1.24l.07.12,0,.13a1.86,1.86,0,0,0,.1.25,2.61,2.61,0,0,1,.06.27l0,.13,0,.06s0,0,0,0l0,.37,0,.56c0,.38,0,.81,0,1.21a34.68,34.68,0,0,1-.68,5.24c-.23.88-.42,1.77-.69,2.64l-.43,1.31a11.84,11.84,0,0,1-.47,1.3,40.4,40.4,0,0,1-5.53,9.85c-.29.39-.54.8-.86,1.16l-1,1.11-.95,1.11a9.28,9.28,0,0,1-1,1.09,58.32,58.32,0,0,1-4.35,4.09c-.78.65-1.5,1.3-2.32,2l-2.64,2.07c-1.76,1.38-3.54,2.77-5.29,4.19-3.52,2.84-7,5.7-10.51,8.85A72.37,72.37,0,0,0,194,158.47a50.16,50.16,0,0,0-7,13c-.27.76-.52,1.51-.76,2.27l4.48,1.21A105,105,0,0,1,195.47,163.05Z"/><path class="cls-14" d="M81.45,85.8l6.27,2.34,3.14,1.16,1.57.58.78.28,1,.34a37.43,37.43,0,0,0,33.36-4.7l.87-.6.68-.49,1.36-1,2.7-2,5.41-3.94,2.7-2,1.35-1,1-.69A27.64,27.64,0,0,1,148,71.84a25.54,25.54,0,0,1,19.16,0,27.2,27.2,0,0,1,4.32,2.32l1,.7,1.35,1,2.71,2L182,81.74l2.71,2,1.35,1,.68.48.87.61a37.43,37.43,0,0,0,33.34,4.67l1-.34.78-.29,1.57-.58,3.13-1.16,6.27-2.35,1.57-.58.35-.13.12,0a1.09,1.09,0,0,0,.23-.09c.07,0,.15,0,.22,0s.15,0,.22,0,.3-.06.45,0a.89.89,0,0,0,.23,0l.23,0c.17,0,.31.08.48.09a4.38,4.38,0,0,1,.93.44,3.65,3.65,0,0,1,1.41,1.58l.07.11,0,.14a2.6,2.6,0,0,0,.1.25c0,.08,0,.18.06.26l0,.14,0,.06h0l0,.3,0,.56c0,.39,0,.82,0,1.22a35.92,35.92,0,0,1-.69,5.23l-.2.81-.27,1c0,.2-.11.4-.17.61a1.21,1.21,0,0,1-.05.18l-.43,1.31c-.15.44-.28.87-.47,1.3a40.4,40.4,0,0,1-5.53,9.85c-.29.38-.54.8-.87,1.16l-1,1.11-.95,1.11a10.15,10.15,0,0,1-1,1.09,56.2,56.2,0,0,1-4.35,4.08c-.78.66-1.5,1.31-2.32,2l-2.65,2.08c-1.75,1.37-3.53,2.77-5.28,4.18-3.52,2.85-7,5.71-10.51,8.85A73.47,73.47,0,0,0,194,146.47a50.75,50.75,0,0,0-7,13c-.65,1.84-1.22,3.66-1.72,5.48a136,136,0,0,0-55.29,0c-.51-1.83-1.08-3.67-1.74-5.51a50.2,50.2,0,0,0-7-13,73.12,73.12,0,0,0-9.89-10.52c-3.47-3.14-7-6-10.52-8.85-1.76-1.41-3.53-2.81-5.29-4.19l-2.65-2.07c-.81-.67-1.54-1.31-2.32-2a56.05,56.05,0,0,1-4.34-4.08,11.21,11.21,0,0,1-1-1.08l-1-1.11-1-1.11c-.32-.37-.57-.77-.86-1.16A40.18,40.18,0,0,1,77,100.45a11.22,11.22,0,0,1-.46-1.3l-.44-1.3,0-.14c-.25-.83-.44-1.67-.65-2.5A34.43,34.43,0,0,1,74.71,90c0-.4,0-.83,0-1.21l0-.56,0-.22v-.09l0-.07,0-.12a1.28,1.28,0,0,1,.05-.27c.1-.15.1-.35.21-.49a3.63,3.63,0,0,1,1.38-1.55,4,4,0,0,1,.92-.43c.16,0,.31-.12.47-.1a.93.93,0,0,0,.23,0h.22c.15,0,.29,0,.44,0l.22.06c.07,0,.15,0,.22,0l.22.08.13,0,.35.13Z"/><path class="cls-15" d="M240.49,88.21l0-.3h0l0-.06,0-.14c0-.08,0-.18-.06-.26a2.6,2.6,0,0,1-.1-.25l0-.14-.07-.11S220,135.38,157.57,135.38s-81.11-50-81.11-50A3.63,3.63,0,0,0,75.08,87c-.11.14-.11.34-.21.49a1.28,1.28,0,0,0-.05.27l0,.12,0,.07V88l0,.22,0,.56c0,.38,0,.81,0,1.21a34.43,34.43,0,0,0,.68,5.22c.21.83.4,1.67.65,2.5l0,.14.44,1.3a11.22,11.22,0,0,0,.46,1.3,40.18,40.18,0,0,0,5.52,9.82c.29.39.54.79.86,1.16l1,1.11,1,1.11a11.21,11.21,0,0,0,1,1.08,56.05,56.05,0,0,0,4.34,4.08c.78.65,1.51,1.29,2.32,2l2.65,2.07c1.76,1.38,3.53,2.78,5.29,4.19,3.52,2.85,7,5.7,10.52,8.85a73.12,73.12,0,0,1,9.89,10.52,50.2,50.2,0,0,1,7,13c.66,1.84,1.23,3.68,1.74,5.51a136,136,0,0,1,55.29,0c.5-1.82,1.07-3.64,1.72-5.48a50.75,50.75,0,0,1,7-13A73.47,73.47,0,0,1,203.83,136c3.47-3.14,7-6,10.51-8.85,1.75-1.41,3.53-2.81,5.28-4.18l2.65-2.08c.82-.66,1.54-1.31,2.32-2a56.2,56.2,0,0,0,4.35-4.08,10.15,10.15,0,0,0,1-1.09l.95-1.11,1-1.11c.33-.36.58-.78.87-1.16a40.4,40.4,0,0,0,5.53-9.85c.19-.43.32-.86.47-1.3l.43-1.31a1.21,1.21,0,0,0,.05-.18c.06-.21.12-.41.17-.61l.27-1,.2-.81a35.92,35.92,0,0,0,.69-5.23c0-.4,0-.83,0-1.22Z"/><path class="cls-16" d="M231.72,195.5c-6.49-19-37.22-33.4-74.15-33.4s-67.65,14.4-74.14,33.4Z"/><ellipse class="cls-17" cx="175.5" cy="108.91" rx="10.4" ry="11.63"/><circle class="cls-18" cx="171.14" cy="110.29" r="5.25"/><path class="cls-19" d="M187.76,172.89c0,2.41-13.36,2.73-29.85,2.73s-29.86-.32-29.86-2.73S141.42,165,157.91,165,187.76,170.49,187.76,172.89Z"/><path class="cls-8" d="M125.31,215.3a149.55,149.55,0,0,1-23.17,3.34,13.19,13.19,0,0,1-9.64-3.11c-3.41-3.19-8.51-9.12-13.86-19.47l16.12-2.32,30.45,10.57Z"/><path class="cls-20" d="M158.48,224.76a206.58,206.58,0,0,1-31.94,4.61c-5.14.3-10.12-1.32-13.29-4.29-4.7-4.4-11.72-12.57-19.1-26.82l22.21-3.74,42,15.1Z"/><path class="cls-9" d="M158.48,224.76a206.58,206.58,0,0,1-31.94,4.61c-5.14.3-10.12-1.32-13.29-4.29-4.7-4.4-11.72-12.57-19.1-26.82l22.21-3.74,42,15.1Z"/><path class="cls-8" d="M189.83,215.3A149.8,149.8,0,0,0,213,218.64a13.16,13.16,0,0,0,9.64-3.11c3.42-3.19,8.51-9.12,13.87-19.47l-16.12-2.32-30.45,10.57Z"/><path class="cls-9" d="M156.67,224.76a206.58,206.58,0,0,0,31.94,4.61c5.13.3,10.11-1.32,13.28-4.29,4.7-4.4,11.73-12.57,19.11-26.82l-22.22-3.74-42,15.1Z"/><path class="cls-21" d="M202.41,195.2H111.88l21.76,29.59c4.36,5.92,12.83,9.62,22.05,9.62h2.91c9.21,0,17.69-3.7,22-9.62Z"/><path class="cls-10" d="M202.41,195.2H111.88l21.76,29.59c4.36,5.92,12.83,9.62,22.05,9.62h2.91c9.21,0,17.69-3.7,22-9.62Z"/><path class="cls-22" d="M180.64,215.19c-4.35,4-12.83,6.5-22,6.5h-2.91c-9.22,0-17.69-2.5-22.05-6.5l-21.76-20,21.76,29.59c4.36,5.92,12.83,9.62,22.05,9.62h2.91c9.21,0,17.69-3.7,22-9.62l21.77-29.59Z"/><path class="cls-12" d="M196.79,211.39c-.75,0-1.5,0-2.25-.1l-.26,0A26.44,26.44,0,0,1,183.85,208l-20.1-11.18a12.27,12.27,0,0,0-5.5-1.61h-1.36a12.27,12.27,0,0,0-5.49,1.61L131.29,208a26.44,26.44,0,0,1-10.43,3.29h-.26a27,27,0,0,1-14.75-3L94,202.1a17.51,17.51,0,0,0-6.66.68L76,206.84a8.45,8.45,0,0,1-5.71-15.9l11.3-4.06a34.24,34.24,0,0,1,15.07-1.48,12.72,12.72,0,0,1,4.46,1.39l12.52,6.52a10.05,10.05,0,0,0,5.51,1.15h.14a9.6,9.6,0,0,0,3.77-1.23L143.19,182a29.2,29.2,0,0,1,13.15-3.73c.82,0,1.65,0,2.47,0A29.27,29.27,0,0,1,172,182l20.1,11.18a9.69,9.69,0,0,0,3.78,1.23h.07l.12,0a10.11,10.11,0,0,0,5.46-1.16l9.33-4.87a27.77,27.77,0,0,1,15.9-3.07,29.06,29.06,0,0,1,6.81,1.51l11.3,4.06a8.45,8.45,0,1,1-5.71,15.9l-11.3-4.06a13,13,0,0,0-2.93-.62,11,11,0,0,0-6.26,1.26l-9.33,4.87A27.09,27.09,0,0,1,196.79,211.39Z"/><path class="cls-13" d="M239.12,199.61l-11.3-4.06a13,13,0,0,0-2.93-.62,11,11,0,0,0-6.26,1.26l-9.33,4.87a27.09,27.09,0,0,1-12.51,3.1c-.75,0-1.5,0-2.25-.1l-.26,0a26.44,26.44,0,0,1-10.43-3.29l-20.1-11.18a12.27,12.27,0,0,0-5.5-1.61c-.45,0-.91,0-1.36,0a12.27,12.27,0,0,0-5.49,1.61l-20.11,11.18A26.44,26.44,0,0,1,120.86,204h-.26a26.88,26.88,0,0,1-14.75-3L94,194.87a17.51,17.51,0,0,0-6.66.68L76,199.61a8.44,8.44,0,0,1-10.48-4.34A8.45,8.45,0,0,0,76,206.84l11.3-4.06A17.51,17.51,0,0,1,94,202.1l11.87,6.19a27,27,0,0,0,14.75,3h.26A26.44,26.44,0,0,0,131.29,208L151.4,196.8a12.27,12.27,0,0,1,5.49-1.61h1.36a12.27,12.27,0,0,1,5.5,1.61L183.85,208a26.44,26.44,0,0,0,10.43,3.29l.26,0c.75.06,1.5.1,2.25.1a27.09,27.09,0,0,0,12.51-3.1l9.33-4.87a11,11,0,0,1,6.26-1.26,13,13,0,0,1,2.93.62l11.3,4.06a8.45,8.45,0,0,0,10.49-11.57A8.45,8.45,0,0,1,239.12,199.61Z"/><path class="cls-23" d="M128.92,97.29s5.76-11.18,17.45-10.08l-2.09-8S128.85,85.89,128.92,97.29Z"/><path class="cls-23" d="M188.8,99.86s-5.75-11.18-17.44-10.08l2.08-8S188.87,88.46,188.8,99.86Z"/><ellipse class="cls-17" cx="142.48" cy="106.62" rx="10.4" ry="11.63"/><ellipse class="cls-24" cx="142.48" cy="98.05" rx="3.7" ry="2.64"/><circle class="cls-18" cx="146.67" cy="108.91" r="5.25"/><ellipse class="cls-24" cx="175.5" cy="100.69" rx="3.7" ry="2.99"/><path class="cls-23" d="M159.11,112.94c2.77.55,2.85.88,2.85.88s-.37,4.18,2.06,15.3,17.48,12.77,25,10.82,10.44-13.16,10.86-15.27a2.73,2.73,0,0,1,2.32-2.28l.87-6.5c-9.5-6.49-22.26-8.54-29-8.54-5.73,0-11.71-.48-13.33-.62a3.39,3.39,0,0,1-.83-.16c-1.56-.48-7.27-2.31-12.58-4.48-6.21-2.55-18.79-5.49-30.05-3.09l-1.66,6.35a2.74,2.74,0,0,1,1.29,3c-.42,2.11-1.88,13.66,4.26,18.25s20.79,8.84,27.25-.53,7.7-13.38,7.7-13.38S156.34,112.4,159.11,112.94Z"/><path class="cls-25" d="M157.1,82.76a69.39,69.39,0,1,0,69.4,69.39A69.39,69.39,0,0,0,157.1,82.76Zm0,120.06a50.67,50.67,0,1,1,50.68-50.67A50.67,50.67,0,0,1,157.1,202.82Z"/><path class="cls-26" d="M157.1,101.48a50.67,50.67,0,1,0,50.68,50.67A50.67,50.67,0,0,0,157.1,101.48Zm0,90.32a39.65,39.65,0,1,1,39.65-39.65A39.65,39.65,0,0,1,157.1,191.8Z"/><path class="cls-27" d="M157.1,112.5a39.65,39.65,0,1,0,39.65,39.65A39.65,39.65,0,0,0,157.1,112.5Zm0,72.3a32.65,32.65,0,1,1,32.66-32.65A32.65,32.65,0,0,1,157.1,184.8Z"/><path class="cls-28" d="M157.1,119.5a32.65,32.65,0,1,0,32.66,32.65A32.65,32.65,0,0,0,157.1,119.5Zm0,57.38a24.74,24.74,0,1,1,24.74-24.73A24.73,24.73,0,0,1,157.1,176.88Z"/><circle class="cls-29" cx="157.1" cy="152.15" r="24.73"/><polygon class="cls-30" points="127.01 4.01 156.59 152.73 186.17 4.01 127.01 4.01"/><polygon class="cls-31" points="6.01 134.9 156.59 152.73 24.3 78.64 6.01 134.9"/><polygon class="cls-32" points="93.11 290.43 156.59 152.73 45.25 255.65 93.11 290.43"/><polygon class="cls-33" points="267.94 255.65 156.59 152.73 220.07 290.43 267.94 255.65"/><polygon class="cls-34" points="288.89 78.64 156.59 152.73 307.17 134.9 288.89 78.64"/><polygon class="cls-35" points="191.28 66.68 153.89 152.69 221.35 87.54 191.28 66.68"/><polygon class="cls-36" points="83.64 90.55 153.89 152.69 112.77 68.4 83.64 90.55"/><polygon class="cls-37" points="73.09 200.3 153.89 152.69 61.02 165.75 73.09 200.3"/><polygon class="cls-38" points="174.2 244.25 153.89 152.69 137.61 245.05 174.2 244.25"/><polygon class="cls-39" points="247.24 161.67 153.89 152.69 236.7 196.71 247.24 161.67"/><polygon class="cls-40" points="221.16 86.29 155.06 152.82 241.59 116.65 221.16 86.29"/><polygon class="cls-41" points="112.22 69.39 155.06 152.82 147.4 59.35 112.22 69.39"/><polygon class="cls-42" points="62.48 167.79 155.06 152.82 63.8 131.22 62.48 167.79"/><polygon class="cls-43" points="140.69 245.5 155.06 152.82 106.32 232.94 140.69 245.5"/><polygon class="cls-44" points="238.76 195.13 155.06 152.82 216.2 223.94 238.76 195.13"/><circle class="cls-45" cx="157.57" cy="152.15" r="22.51"/><circle class="cls-46" cx="157.57" cy="148.62" r="18.97"/><ellipse class="cls-24" cx="157.57" cy="135.38" rx="8.32" ry="5.39"/><rect class="cls-47" width="311.66" height="295.96"/></g></g></svg>