<svg xmlns="http://www.w3.org/2000/svg" viewBox="0 0 629.82 400.13"><defs><style>.cls-1{fill:#051323;}</style></defs><title>clam-sharks</title><g id="Layer_2" data-name="Layer 2"><g id="sharks_back" data-name="sharks back"><path class="cls-1" d="M119.1,56.31a318.4,318.4,0,0,1,20-26c11.67-13.59,19.69-23.52,33.8-23.69,0,0-6.27,18.29-11.5,28.57s-5.05,21.61-4,25.62S167,96.56,139.66,84.36,114.74,62.44,119.1,56.31Z"/><path class="cls-1" d="M103.94,99.7c-.24.46,3.31,17.6,7.66,37.64s10.28,34.5,15.69,37.81,5.75,8.88,5.92-15,1.74-28.92,7.84-34.33,11-5,8.37-12.19S110,87.85,103.94,99.7Z"/><path class="cls-1" d="M229.57,80.41c0-.7,24-18.84,27.45-20.94s-1.63,22.8-1.63,22.8Z"/><path class="cls-1" d="M218.25,109.21c.64.64,28.65,16.16,36.19,17s-1.29-12.07,3.45-25.86S218.25,109.21,218.25,109.21Z"/><path class="cls-1" d="M251.11,112.83s35-9.53,50.25-20.26,22.25-14.1,22.25-14.1,17.68,10.33,49.27-9.34c0,0-25.43-4.17-29.2-8.94S348.84,16.29,356.79,0c0,0-12.52,1.19-24.44,18.08s-13.11,47.57-13.11,47.57-24,17.19-85.42,11.62-82.44-9.53-131.9-24.63S31,38.54,11.14,41.91-2,62,31,85.22s54.23,32,86.22,35.16S208.79,124.35,251.11,112.83Z"/><path class="cls-1" d="M317.82,336.89c-1.43-10.36-35.19-23.31-76.09-44.87s-48.39-18.91-55-18,12.31,13.2,36.06,33.43,45.31,24.19,43.55,37.83-7.92,25.07-10.56,31.23S319.58,349.65,317.82,336.89Z"/><path class="cls-1" d="M303.75,332.93s68.18-20.67,92.81-31.67,6.16-38.27-2.64-47.5,13.63-16.72,76.53,33.43c0,0,94.57-4.13,142.08,14.79s-18,26.39-17.16,44.86S469.13,371,420.75,367.51s-101.61-23.58-117-25.34S303.75,332.93,303.75,332.93Z"/><path class="cls-1" d="M429.52,385.45c-2.81,4.46-6.06,9-6.56,14.21,6.15,1.36,12.52-.48,18.43-2.64a162.28,162.28,0,0,0,31.41-15.56c6.94-4.44,13.93-9.93,16.41-17.79a14.79,14.79,0,0,0-.16-10.06c-2.9-6.89-11.47-9.27-18.94-9.49-8.26-.25-23-.38-27,8.41C438.07,363.52,436.13,374.91,429.52,385.45Z"/></g></g></svg>