<svg xmlns="http://www.w3.org/2000/svg" viewBox="0 0 273.89 207.22"><defs><style>.cls-1,.cls-2{fill:#051323;}.cls-12,.cls-17,.cls-2,.cls-6{opacity:0.5;}.cls-3,.cls-4,.cls-5,.cls-6{fill:#ffde76;}.cls-3{opacity:0.1;}.cls-5{opacity:0.2;}.cls-7{fill:#dd711f;}.cls-12,.cls-8{fill:#f2842a;}.cls-9{fill:#ff9739;}.cls-10{fill:#e57f45;}.cls-11{fill:#f59e66;}.cls-13{fill:#ffc23b;}.cls-14{fill:#edaa24;}.cls-15{fill:#fff;}.cls-16{fill:#060610;}.cls-17{fill:#fad399;}</style></defs><title>clam-noselect</title><g id="Layer_2" data-name="Layer 2"><g id="clam_closed"><path class="cls-1" d="M143.67,6.17S129.09,5.51,125,16.63c0,0,13.28,4.47,19.74-8.83l4.22,1-3.5-2.1L146.78,0Z"/><path class="cls-2" d="M82.33,21.93s6.85-.31,8.78,4.92a7.61,7.61,0,0,1-9.27-4.15l-2,.47,1.64-1L80.87,19Z"/><path class="cls-2" d="M49.53,77.69s-6.71-1.43-9.47,3.41a7.63,7.63,0,0,0,9.83-2.57l1.88.78-1.46-1.24,1.14-3Z"/><path class="cls-2" d="M228.21,76.61s-6.71-1.43-9.47,3.41a7.6,7.6,0,0,0,9.82-2.57l1.88.78L229,77l1.14-3Z"/><path class="cls-2" d="M187.53,6.16s-6.4,2.47-6.06,8a7.63,7.63,0,0,0,6.82-7.53l2-.37-1.9-.24-.69-3.13Z"/><path class="cls-1" d="M95.45,51.38a20.6,20.6,0,0,0-6.85-4.85,10.9,10.9,0,0,0-1.5-2.4,26.92,26.92,0,0,0-3.68-3.31l-1.71,4.6a16.2,16.2,0,0,0-8.25,3.17c.27-3.18-2.28-6.36-2.28-6.36,1.55,5.4-3.48,11.66-3.48,11.66,3.76,0,5.76-3.83,5.76-3.83a25.17,25.17,0,0,0,4.13,4c-.92.37-2.58,1.07-2.84.68a8.67,8.67,0,0,0,1.75,1.93l0,0a.1.1,0,0,0,.07,0,5.82,5.82,0,0,0,1.43-2.27,14.62,14.62,0,0,0,17.4.31l-3.18-2.31Z"/><path class="cls-1" d="M181.45,38.93a14,14,0,0,1,4.65-3.3,7.68,7.68,0,0,1,1-1.63,17.17,17.17,0,0,1,2.5-2.24l1.16,3.12a11,11,0,0,1,5.6,2.15,7.14,7.14,0,0,1,1.55-4.32c-1.05,3.67,2.36,7.92,2.36,7.92-2.55,0-3.91-2.6-3.91-2.6a17.53,17.53,0,0,1-2.8,2.75c.62.25,1.75.72,1.92.46a6.4,6.4,0,0,1-1.18,1.31l0,0s0,0-.05,0a4,4,0,0,1-1-1.54,9.94,9.94,0,0,1-11.81.22l2.16-1.57Z"/><path class="cls-1" d="M154.78,45.9a4.17,4.17,0,0,0,.05-1.89,5.81,5.81,0,0,0-.93-1.82.82.82,0,0,0-.44-.4.72.72,0,0,0-.53.12,5.59,5.59,0,0,0-1.75,1.42c.16-.19,1.4.89,1.52,1a4.61,4.61,0,0,1,.7,1,11.59,11.59,0,0,0-6.08-.14l-2.71-4,1.84,4.59-1.56,1.94L147,46.51c5.71,8.63,12.2,3.77,12.2,3.77A10.11,10.11,0,0,0,154.78,45.9Z"/><path class="cls-1" d="M34.52,177.46a14.88,14.88,0,0,1,.32-2,17.42,17.42,0,0,1,.61-2,40.92,40.92,0,0,1,1.89-4c.28-.55.56-1.11.83-1.68,0,.17.07.35.11.52a7.3,7.3,0,0,0,1.28,2.57,23,23,0,0,0,3.6,3.33,14.64,14.64,0,0,1,1.44,1.39,13.81,13.81,0,0,1,1.18,1.58,10.31,10.31,0,0,1,1.45,3.48,6.55,6.55,0,0,1-1.86,6.23,13.07,13.07,0,0,1-4.78,2.79c2.93-.34,6.13-.66,9.56-1a11,11,0,0,0,1.44-3.53,11.25,11.25,0,0,0-.23-5.57A14.78,14.78,0,0,0,49,175a17.28,17.28,0,0,0-1.7-1.92,18.08,18.08,0,0,0-2-1.61A21.22,21.22,0,0,1,42,168.89a4.21,4.21,0,0,1-.86-1.4,5,5,0,0,1-.26-1.72A8.75,8.75,0,0,1,42,162a41.26,41.26,0,0,1,2.32-3.76,21.86,21.86,0,0,0,3.52-8.68,16.21,16.21,0,0,0-1-9.19,13.66,13.66,0,0,0-6.06-6.68,13.33,13.33,0,0,1,5.4,6.94,15.1,15.1,0,0,1,.32,8.65A20.1,20.1,0,0,1,42.57,157c-.75,1-1.55,2-2.29,3.06a24.14,24.14,0,0,0-2-9.48c-1.19-2.94-2.66-5.64-3.87-8.44a24,24,0,0,1-2.3-8.71,14.54,14.54,0,0,1,.49-4.5,10.71,10.71,0,0,1,2.1-4,10.89,10.89,0,0,0-2.44,3.93,15,15,0,0,0-.86,4.61,25.08,25.08,0,0,0,1.69,9.23c.4,1.15.83,2.28,1.27,3.41-.21-.38-.43-.74-.66-1.09a40.47,40.47,0,0,0-2.84-3.9A42.68,42.68,0,0,0,24,134.49a21.8,21.8,0,0,1,10-16.16,22.64,22.64,0,0,0-9.72,28.75A25.22,25.22,0,0,0,27.14,152c1.06,1.5,2.17,2.92,3.1,4.36a17.61,17.61,0,0,1,1.21,2.19l.09.19a36.25,36.25,0,0,1-6.16,5.59c-1.11.85-2.24,1.72-3.34,2.65l-.19-.3a26.27,26.27,0,0,0-2.62-3.37,62.06,62.06,0,0,1-5.2-6A13,13,0,0,1,12.38,154a12.51,12.51,0,0,1-.48-3.74,19.69,19.69,0,0,1,.48-3.87,25.08,25.08,0,0,1,1.15-3.79,13.52,13.52,0,0,1,4.67-6.32,13.85,13.85,0,0,0-5.32,6,27.18,27.18,0,0,0-1.53,3.8,22,22,0,0,0-.87,4.06,13.89,13.89,0,0,0,.18,4.26,14.54,14.54,0,0,0,1.56,4A62.09,62.09,0,0,0,17,165.08a23.84,23.84,0,0,1,2.06,3.18c.17.33.33.67.47,1-.52.54-1,1.11-1.51,1.71a15.88,15.88,0,0,0-2.62,4.71,12.37,12.37,0,0,0-.54,5.61,15,15,0,0,0,2,5.72,23.3,23.3,0,0,1-2.65,3.42c.06-.3.12-.59.17-.89a17.65,17.65,0,0,0,.1-5.53,12.41,12.41,0,0,0-2-5.29,16.36,16.36,0,0,0-3.38-3.5c.27-.34.54-.69.8-1.06a10.71,10.71,0,0,0,1.46-2.76,10,10,0,0,0,.51-3,15.29,15.29,0,0,0-1.17-5.81c-1.45-3.63-3.76-6.67-5.13-10.23,1,3.67,3.1,7,4.15,10.57a14,14,0,0,1,.6,5.38,8,8,0,0,1-.65,2.49,9.23,9.23,0,0,1-1.4,2.15c-.29.34-.6.67-.92,1-.85-.61-1.68-1.21-2.46-1.83a12.18,12.18,0,0,1-3-3.3,7.23,7.23,0,0,1,1-8.55,7.78,7.78,0,0,0-2.63,4.09A8,8,0,0,0,0,166.85a6.1,6.1,0,0,0,.2,1.28,7.87,7.87,0,0,0,.39,1.25,13.57,13.57,0,0,0,2.87,4.24c.68.73,1.37,1.41,2.05,2.08-.41.4-.82.81-1.22,1.25a12.87,12.87,0,0,0-1.83,2.64,11.57,11.57,0,0,0-1,3.14A13.41,13.41,0,0,0,1.45,186a14.36,14.36,0,0,0,.83,3.2A13.17,13.17,0,0,0,4,192.13c.1.13.21.24.32.36H7.74l.18-.29a.75.75,0,0,1-.07.12l.37.17h5.53c.05-.15.1-.3.14-.46l.48.46h5.24c.29-.42.57-.84.83-1.27.51.45,1,.87,1.59,1.27h2A114.42,114.42,0,0,1,39,189.91,15.78,15.78,0,0,1,34.52,177.46ZM8.6,190.88a7.79,7.79,0,0,1-1.68-1.28,9.53,9.53,0,0,1-1.34-1.88,10.33,10.33,0,0,1-.81-2.24,10.15,10.15,0,0,1-.19-2.4,8.9,8.9,0,0,1,.5-2.33,9.85,9.85,0,0,1,1.23-2.16c.29-.38.6-.76.93-1.15a13.56,13.56,0,0,1,2.23,3.1,7.78,7.78,0,0,1,.63,1.87,9.21,9.21,0,0,1,.2,2A15.38,15.38,0,0,1,8.6,190.88Zm11.58-12a24.09,24.09,0,0,1-.76,2.89q-.2-.57-.33-1.14a8.19,8.19,0,0,1,.09-3.81,11.54,11.54,0,0,1,1.37-3.14A21.7,21.7,0,0,1,20.18,178.87Zm15.67-24.29a10.51,10.51,0,0,0,.14-4l.26.78a21.89,21.89,0,0,1,1.2,8.6,12.6,12.6,0,0,1-1.09,4,19.76,19.76,0,0,1-1,1.89,11.79,11.79,0,0,0-.09-5.81,12.39,12.39,0,0,0-.75-2A13.41,13.41,0,0,0,35.85,154.58ZM23.34,187.15c-.22-.17-.43-.36-.64-.55A30.63,30.63,0,0,0,23.8,183a14,14,0,0,0,.33,3.3,16.39,16.39,0,0,0,.58,1.84C24.24,187.82,23.78,187.5,23.34,187.15Zm5.6-2.11a9,9,0,0,1-.35-2,6.3,6.3,0,0,1,.05-1.05,5.87,5.87,0,0,1,.16-1.08,17.43,17.43,0,0,1,1.53-4.16l0,.18a20.42,20.42,0,0,0-.21,5.18,21.76,21.76,0,0,0,1.12,5.09,20.88,20.88,0,0,0,1.09,2.54A9.1,9.1,0,0,1,28.94,185Zm2.95-19.8c-1,3-3.19,5.81-5.12,9a23.16,23.16,0,0,0-2.38,5.2v0a23,23,0,0,0-.68-8.74c-.07-.25-.16-.5-.25-.75,1.16-1.2,2.42-2.35,3.71-3.49a43.71,43.71,0,0,0,5.12-5.15A8.55,8.55,0,0,1,31.89,165.24Zm1.51-9.33c-.26-.41-.54-.81-.83-1.19-2.26-3-4.83-5.46-6.33-8.55a20.63,20.63,0,0,1-1.77-4.86,20.93,20.93,0,0,1-.56-5.18c0-.55,0-1.09.1-1.64a42.19,42.19,0,0,1,6.25,7,39.69,39.69,0,0,1,2.49,4,15.1,15.1,0,0,1,1.63,4.26,8.86,8.86,0,0,1-.25,4.34A10.82,10.82,0,0,1,33.4,155.91Z"/><path class="cls-1" d="M269.81,188.4a4.43,4.43,0,0,1-.86-2.12,5.85,5.85,0,0,1,.39-2.47c.59-1.72,1.73-3.61,1.66-5.78a4.36,4.36,0,0,0-1.19-2.84,4.31,4.31,0,0,0-2.62-1.35,4,4,0,0,1,3,4.18,6.89,6.89,0,0,1-.9,2.56c-.43.82-1,1.63-1.46,2.55-.11.21-.21.43-.31.66a11.25,11.25,0,0,0-.12-1.29,11.64,11.64,0,0,0-1-3.15,12.31,12.31,0,0,0-1.83-2.63c-1.37-1.52-2.85-2.7-4-4a8.81,8.81,0,0,1-1.4-2.15,8,8,0,0,1-.66-2.5,14,14,0,0,1,.6-5.38c1.06-3.56,3.11-6.89,4.15-10.56-1.37,3.56-3.67,6.6-5.12,10.23a15.29,15.29,0,0,0-1.18,5.8,9.83,9.83,0,0,0,.52,3.06,10.84,10.84,0,0,0,1.45,2.76c1.19,1.66,2.58,3,3.63,4.42a9.4,9.4,0,0,1,1.23,2.15,8.5,8.5,0,0,1,.5,2.34,9.57,9.57,0,0,1-.19,2.39,10.23,10.23,0,0,1-.81,2.25,9.41,9.41,0,0,1-1.34,1.88l-.28.27a17.71,17.71,0,0,0,.94-4.54,12.6,12.6,0,0,0-.88-5.59,17.6,17.6,0,0,0-2.87-4.47c-1.09-1.28-2.2-2.43-3.18-3.62a12.06,12.06,0,0,1-2.3-3.86,6.87,6.87,0,0,1,.19-4.94c.73-.92,1.46-1.88,2.14-2.89a4.46,4.46,0,0,1,.43-.33l-.34.19c.3-.45.59-.91.86-1.39a14.52,14.52,0,0,0,1.55-4,13.6,13.6,0,0,0,.18-4.26,20.37,20.37,0,0,0-.87-4.06,26.08,26.08,0,0,0-1.52-3.81,14,14,0,0,0-5.32-6,13.56,13.56,0,0,1,4.67,6.33,24.7,24.7,0,0,1,1.14,3.79A18.88,18.88,0,0,1,257,150a12,12,0,0,1-.48,3.74,12.32,12.32,0,0,1-1.65,3.33,60.81,60.81,0,0,1-5.19,6,27.25,27.25,0,0,0-2.63,3.37l-.18.3c-1.11-.94-2.23-1.8-3.34-2.66a35.82,35.82,0,0,1-6.16-5.58c0-.07,0-.13.08-.19a15.89,15.89,0,0,1,1.22-2.19c.92-1.45,2-2.86,3.1-4.37a25.66,25.66,0,0,0,2.83-4.89,23.23,23.23,0,0,0,1.81-11,22.38,22.38,0,0,0-11.54-17.73,21.78,21.78,0,0,1,10,16.15,42.81,42.81,0,0,0-6.83,6.63,42.1,42.1,0,0,0-2.84,3.89c-.22.36-.44.72-.65,1.09.43-1.12.87-2.26,1.27-3.41a24.79,24.79,0,0,0,1.68-9.23,14.75,14.75,0,0,0-.86-4.6,10.81,10.81,0,0,0-2.44-3.93,10.64,10.64,0,0,1,2.1,4,14.21,14.21,0,0,1,.49,4.49,23.86,23.86,0,0,1-2.3,8.72c-1.21,2.79-2.68,5.5-3.87,8.44a24.31,24.31,0,0,0-2,9.47c-.74-1.09-1.54-2.08-2.29-3.06a20.27,20.27,0,0,1-3.87-7.73,15.18,15.18,0,0,1,.33-8.65,13.22,13.22,0,0,1,5.39-6.94,13.55,13.55,0,0,0-6,6.68,16.2,16.2,0,0,0-1.06,9.19,21.92,21.92,0,0,0,3.52,8.68c.84,1.29,1.69,2.51,2.33,3.75a8.87,8.87,0,0,1,1.06,3.77,5,5,0,0,1-.25,1.71,3.91,3.91,0,0,1-.87,1.4,19.64,19.64,0,0,1-3.29,2.54,20.53,20.53,0,0,0-1.95,1.61,16.33,16.33,0,0,0-1.69,1.93,14.49,14.49,0,0,0-2.39,4.68,11.47,11.47,0,0,0-.23,5.57,10.94,10.94,0,0,0,1.32,3.33q4.56.36,8.62.76a12.31,12.31,0,0,1-3.71-2.38,6.59,6.59,0,0,1-1.87-6.23,10.66,10.66,0,0,1,1.45-3.49,12.88,12.88,0,0,1,1.18-1.57,13.8,13.8,0,0,1,1.45-1.4,22.41,22.41,0,0,0,3.59-3.33,7.09,7.09,0,0,0,1.28-2.56,5,5,0,0,0,.11-.53c.28.57.56,1.14.84,1.68.7,1.39,1.38,2.71,1.89,4a18.24,18.24,0,0,1,.61,1.95,15,15,0,0,1,.31,2,15.8,15.8,0,0,1-4.14,12.15,167.07,167.07,0,0,1,17.13,2.51c.37-.29.74-.58,1.09-.9.27.44.54.86.83,1.28h5.25l.17-.17.23.17h5.68l.24-.5.3.5h3.45l.31-.36a13,13,0,0,0,1.7-2.92c.15-.37.27-.75.39-1.13a7,7,0,0,0,.67,1.87,8.38,8.38,0,0,0,2.11,2.54h3.66l.48-1.39A7.18,7.18,0,0,1,269.81,188.4Zm-36.25-28.64a11.79,11.79,0,0,0-.1,5.81c-.35-.63-.68-1.26-1-1.89a12.65,12.65,0,0,1-1.08-4,21.64,21.64,0,0,1,1.2-8.59c.08-.26.17-.52.26-.78a10.32,10.32,0,0,0,.13,4,14,14,0,0,0,1.29,3.4A11.49,11.49,0,0,0,233.56,159.76Zm1.9-4.09a11.37,11.37,0,0,1-.73-1.77,8.82,8.82,0,0,1-.24-4.33,15.07,15.07,0,0,1,1.62-4.26,41.58,41.58,0,0,1,2.49-4,42.3,42.3,0,0,1,6.26-7.05c0,.54.09,1.09.09,1.64a20.93,20.93,0,0,1-.56,5.18,20.32,20.32,0,0,1-1.76,4.86c-1.5,3.08-4.07,5.5-6.34,8.55C236,154.87,235.73,155.26,235.46,155.67Zm4.46,29.13a9,9,0,0,1-3.35,4.65,19.56,19.56,0,0,0,1.08-2.54,21.7,21.7,0,0,0,1.13-5.08,20.5,20.5,0,0,0-.21-5.19c0-.06,0-.11,0-.17a17.57,17.57,0,0,1,1.54,4.15,7,7,0,0,1,.16,1.09,6.27,6.27,0,0,1,0,1A8.9,8.9,0,0,1,239.92,184.8ZM237,165a8.69,8.69,0,0,1-.41-3.9,43.71,43.71,0,0,0,5.12,5.15c1.29,1.14,2.56,2.29,3.71,3.49-.09.25-.17.49-.25.75a22.94,22.94,0,0,0-.67,8.74v0a22.53,22.53,0,0,0-2.38-5.2C240.17,170.82,238,168,237,165Zm8.55,21.91a13.49,13.49,0,0,1-1.37,1,14.41,14.41,0,0,0,.58-1.83,13.56,13.56,0,0,0,.34-3.3,27.14,27.14,0,0,0,1.1,3.6C246,186.56,245.74,186.74,245.52,186.92Zm4.25-6.53a11.16,11.16,0,0,1-.32,1.13,22.2,22.2,0,0,1-.76-2.88,20.76,20.76,0,0,1-.37-5.2,11.35,11.35,0,0,1,1.37,3.13A8.37,8.37,0,0,1,249.77,180.39Zm8.6,4.18a15.64,15.64,0,0,1-3.18,6.24,23.06,23.06,0,0,1-3.25-4,15.15,15.15,0,0,0,2-5.72,12.5,12.5,0,0,0-.55-5.61,15.76,15.76,0,0,0-2.62-4.71c-.48-.61-1-1.17-1.5-1.72.14-.33.29-.67.47-1a23.75,23.75,0,0,1,2.05-3.18l.27-.35a5.27,5.27,0,0,0-.16.79,6.31,6.31,0,0,0-.08,1.3,9.23,9.23,0,0,0,.13,1.3,13.79,13.79,0,0,0,1.93,4.75c.87,1.43,1.81,2.76,2.63,4.08a13.89,13.89,0,0,1,1.8,3.93,7.18,7.18,0,0,1,.23,1.95A8.74,8.74,0,0,1,258.37,184.57Z"/><path class="cls-3" d="M140.47,184.94h-.57c61.59.13,111,4.26,111,9.35s-51,9.35-114,9.35-114-4.19-114-9.35,49.45-9.22,111-9.35h-.56C60,185.09,1.11,190,1.11,196.08S61.93,207.22,137,207.22s135.84-5,135.84-11.14S213.87,185.09,140.47,184.94Z"/><path class="cls-4" d="M139,184.94h0Z"/><path class="cls-4" d="M134.92,184.94h0Z"/><path class="cls-4" d="M139.41,184.94Z"/><path class="cls-4" d="M134.92,184.94h0Z"/><path class="cls-4" d="M139,184.94h0Z"/><path class="cls-4" d="M134.92,184.94h0Z"/><path class="cls-5" d="M231.69,192.71c0,4.29-42.41,7.77-94.74,7.77S42.21,197,42.21,192.71s41.1-7.66,92.29-7.77H134c-61.58.13-111,4.26-111,9.35s51,9.35,114,9.35,114-4.19,114-9.35-49.44-9.22-111-9.35h-.49C190.6,185.05,231.69,188.48,231.69,192.71Z"/><path class="cls-6" d="M215.25,191.36c0,3.55-35.06,6.42-78.3,6.42s-78.29-2.87-78.29-6.42,34-6.33,76.26-6.42h-.42c-51.19.11-92.29,3.54-92.29,7.77s42.42,7.77,94.74,7.77,94.74-3.48,94.74-7.77-41.09-7.66-92.28-7.77H139C181.29,185,215.25,187.87,215.25,191.36Z"/><path class="cls-4" d="M58.66,191.36c0,3.55,35.05,6.42,78.29,6.42s78.3-2.87,78.3-6.42-34-6.33-76.27-6.42h-4.06C92.62,185,58.66,187.87,58.66,191.36Z"/><path class="cls-7" d="M99.24,93.1a136.62,136.62,0,0,0-27.87-5.51,13.37,13.37,0,0,0-11.59,5.13c-4.1,5.27-10.23,15-16.67,32.1l19.38,3.82,36.62-17.41Z"/><path class="cls-8" d="M139.12,77.5a187.89,187.89,0,0,0-38.4-7.6,18.39,18.39,0,0,0-16,7.07c-5.66,7.26-14.11,20.73-23,44.23l26.71,9.26,50.48-28Z"/><path class="cls-7" d="M176.83,93.1a136.81,136.81,0,0,1,27.87-5.51,13.36,13.36,0,0,1,11.59,5.13c4.11,5.27,10.24,15,16.68,32.1l-19.39,3.82L177,111.23Z"/><path class="cls-8" d="M137,77.5a187.89,187.89,0,0,1,38.41-7.6,18.39,18.39,0,0,1,16,7.07c5.65,7.26,14.1,20.73,23,44.23l-26.71,9.26-50.47-28Z"/><path class="cls-9" d="M192,126.25H83.08l26.18-48.79A30.07,30.07,0,0,1,135.77,61.6h3.5a30.07,30.07,0,0,1,26.51,15.86Z"/><path class="cls-7" d="M108.23,178.33a140,140,0,0,1-21.41,3.09,12.2,12.2,0,0,1-8.91-2.88c-3.15-2.95-7.86-8.43-12.81-18L80,158.41l28.14,9.76Z"/><path class="cls-10" d="M138.87,187.07a191.28,191.28,0,0,1-29.51,4.26c-4.74.28-9.35-1.22-12.27-4-4.35-4.07-10.84-11.62-17.66-24.79L100,157.39l38.78,15.69Z"/><path class="cls-8" d="M138.87,187.07a191.28,191.28,0,0,1-29.51,4.26c-4.74.28-9.35-1.22-12.27-4-4.35-4.07-10.84-11.62-17.66-24.79L100,157.39l38.78,15.69Z"/><path class="cls-7" d="M167.85,178.33a139.75,139.75,0,0,0,21.41,3.09,12.16,12.16,0,0,0,8.9-2.88c3.16-2.95,7.87-8.43,12.81-18l-14.89-2.15-28.14,9.76Z"/><path class="cls-8" d="M137.2,187.07a191.53,191.53,0,0,0,29.51,4.26,16.78,16.78,0,0,0,12.28-4c4.34-4.07,10.84-11.62,17.65-24.79l-20.52-5.19-38.78,15.69Z"/><path class="cls-11" d="M179.47,159.75H95.82l20.1,27.34c4,5.48,11.86,8.9,20.38,8.9H139c8.52,0,16.35-3.42,20.38-8.9Z"/><path class="cls-9" d="M179.47,159.75H95.82l20.1,27.34c4,5.48,11.86,8.9,20.38,8.9H139c8.52,0,16.35-3.42,20.38-8.9Z"/><path class="cls-12" d="M159.36,178.23c-4,3.7-11.86,6-20.38,6H136.3c-8.52,0-16.35-2.31-20.38-6l-20.1-18.48,20.1,27.34c4,5.48,11.86,8.9,20.38,8.9H139c8.52,0,16.35-3.42,20.38-8.9l20.1-27.34Z"/><path d="M207.5,122.32l-19.16,6.81a13.94,13.94,0,0,1-12.94-1.92l-29.09-21.43a13.94,13.94,0,0,0-16.55,0l-29.08,21.43a14,14,0,0,1-13,1.92l-19.16-6.81a14.17,14.17,0,0,0-4.71-.8,20.44,20.44,0,0,0-.27,3.32c5.61,0,10.16,7.78,10.16,17.37s-4.55,17.38-10.16,17.38a15.41,15.41,0,0,0,1.08,1.91l5.82-2.09a24.15,24.15,0,0,1,10.37-1,4.26,4.26,0,0,1,1.43.45s15.14,7.81,15.64,7.87a25.26,25.26,0,0,0,9.3-.62,4.11,4.11,0,0,0,.89-.38l20.24-11.26a20,20,0,0,1,9.61-2.57h.14a20.05,20.05,0,0,1,9.61,2.57L168,165.77a4.11,4.11,0,0,0,.89.38,25.21,25.21,0,0,0,9.29.62,4.19,4.19,0,0,0,1.43-.45l11.28-5.89a18,18,0,0,1,10.24-2,19.85,19.85,0,0,1,4.5,1l5.82,2.09a16,16,0,0,0,1.07-1.91c-5.61,0-10.15-7.78-10.15-17.38s4.54-17.37,10.15-17.37a19.57,19.57,0,0,0-.26-3.32A14.27,14.27,0,0,0,207.5,122.32Z"/><path class="cls-13" d="M42,143.56A7.8,7.8,0,0,1,37,129.81l12.85-10.92A21.82,21.82,0,0,1,71.18,115l19.17,6.8a6.13,6.13,0,0,0,5.7-.84l29.08-21.44a21.65,21.65,0,0,1,25.81,0L180,120.93a6.12,6.12,0,0,0,5.7.84l19.16-6.8a21.84,21.84,0,0,1,21.37,3.92l12.85,10.92a7.8,7.8,0,0,1-10.1,11.9l-12.86-10.93a6.17,6.17,0,0,0-6-1.1L191,136.48a21.7,21.7,0,0,1-20.18-3l-29.09-21.43a6.11,6.11,0,0,0-7.29,0l-29.08,21.43a21.72,21.72,0,0,1-20.19,3L66,129.68a6.14,6.14,0,0,0-6,1.11L47.07,141.71A7.8,7.8,0,0,1,42,143.56Z"/><path class="cls-14" d="M240,134.48a7.81,7.81,0,0,1-11,.89l-12.86-10.92a6.17,6.17,0,0,0-6-1.11L191,130.15a21.72,21.72,0,0,1-20.18-3l-29.09-21.44a6.12,6.12,0,0,0-7.29,0l-29.08,21.44a21.74,21.74,0,0,1-20.19,3L66,123.34a6.16,6.16,0,0,0-6,1.11L47.07,135.37a7.8,7.8,0,0,1-11-.89,8.32,8.32,0,0,1-1.18-1.88,7.8,7.8,0,0,0,12.18,9.11l12.86-10.92a6.14,6.14,0,0,1,6-1.11l19.16,6.8a21.72,21.72,0,0,0,20.19-3l29.08-21.43a6.11,6.11,0,0,1,7.29,0l29.09,21.43a21.7,21.7,0,0,0,20.18,3l19.17-6.8a6.17,6.17,0,0,1,6,1.1L229,141.71a7.79,7.79,0,0,0,12.17-9.11A7.94,7.94,0,0,1,240,134.48Z"/><ellipse class="cls-15" cx="124.05" cy="134.53" rx="9.61" ry="10.74"/><ellipse class="cls-15" cx="151.23" cy="135.74" rx="9.61" ry="7.71"/><circle class="cls-16" cx="127.15" cy="135.32" r="4.85"/><circle class="cls-15" cx="127.15" cy="132.23" r="1.77"/><circle class="cls-16" cx="146.76" cy="135.68" r="3.14"/><circle class="cls-15" cx="146.76" cy="133.91" r="1.37"/><path class="cls-13" d="M174.27,174.71q-1,0-2.07-.09l-.24,0a24.5,24.5,0,0,1-9.64-3l-18.57-10.33a11.39,11.39,0,0,0-5.08-1.49h-1.26a11.35,11.35,0,0,0-5.08,1.49l-18.58,10.33a24.41,24.41,0,0,1-9.63,3l-.15,0h-.09a24.92,24.92,0,0,1-13.64-2.77l-11-5.71a15.75,15.75,0,0,0-6.15.62l-10.45,3.75a7.8,7.8,0,1,1-5.27-14.69l10.44-3.75a31.68,31.68,0,0,1,13.92-1.37A12,12,0,0,1,85.89,152l11.57,6a9.27,9.27,0,0,0,5.09,1.06h.13a9,9,0,0,0,3.49-1.13l18.58-10.33a27,27,0,0,1,12.15-3.45c.75,0,1.52,0,2.28,0a27,27,0,0,1,12.15,3.45l18.58,10.33a9,9,0,0,0,3.49,1.13h.17a9.34,9.34,0,0,0,5.05-1.07l8.62-4.5a25.71,25.71,0,0,1,14.69-2.84,27.71,27.71,0,0,1,6.3,1.4l10.44,3.75a7.81,7.81,0,1,1-5.28,14.69L203,166.76a12.66,12.66,0,0,0-2.71-.58,10.17,10.17,0,0,0-5.78,1.17l-8.63,4.5A24.9,24.9,0,0,1,174.27,174.71Z"/><path class="cls-14" d="M213.39,163.83,203,160.08a12.11,12.11,0,0,0-2.71-.57,10.16,10.16,0,0,0-5.78,1.16l-8.63,4.5A24.9,24.9,0,0,1,174.27,168q-1,0-2.07-.09l-.24,0a24.5,24.5,0,0,1-9.64-3l-18.57-10.33a11.39,11.39,0,0,0-5.08-1.49h-1.26a11.35,11.35,0,0,0-5.08,1.49l-18.58,10.33a24.41,24.41,0,0,1-9.63,3l-.15,0h-.09a24.84,24.84,0,0,1-13.64-2.77l-11-5.71a15.75,15.75,0,0,0-6.15.62l-10.45,3.75a7.81,7.81,0,0,1-9.69-4,7.81,7.81,0,0,0,9.69,10.69l10.45-3.75a15.75,15.75,0,0,1,6.15-.62l11,5.71a24.92,24.92,0,0,0,13.64,2.77H104l.15,0a24.41,24.41,0,0,0,9.63-3l18.58-10.33a11.35,11.35,0,0,1,5.08-1.49h1.26a11.39,11.39,0,0,1,5.08,1.49l18.57,10.33a24.5,24.5,0,0,0,9.64,3l.24,0q1,.09,2.07.09a24.9,24.9,0,0,0,11.56-2.86l8.63-4.5a10.17,10.17,0,0,1,5.78-1.17,12.66,12.66,0,0,1,2.71.58l10.44,3.75a7.8,7.8,0,0,0,9.69-10.69A7.8,7.8,0,0,1,213.39,163.83Z"/><path class="cls-17" d="M157.37,72.35c0,4.54-8.65-.45-19.33-.45s-19.33,5-19.33.45S127.36,63.1,138,63.1,157.37,67.81,157.37,72.35Z"/><ellipse class="cls-9" cx="84.75" cy="88.89" rx="18.4" ry="4.05" transform="translate(-35.83 112.24) rotate(-57.32)"/><ellipse class="cls-8" cx="59.09" cy="100.15" rx="11.31" ry="2.49" transform="translate(-57.11 95.81) rotate(-57.32)"/><ellipse class="cls-9" cx="191.32" cy="88.89" rx="4.05" ry="18.4" transform="translate(-17.71 117.37) rotate(-32.68)"/><ellipse class="cls-8" cx="216.99" cy="100.15" rx="2.49" ry="11.31" transform="translate(-19.73 133.01) rotate(-32.68)"/></g></g></svg>