<svg xmlns="http://www.w3.org/2000/svg" viewBox="0 0 311.66 295.96"><defs><style>.cls-1,.cls-26{fill:none;}.cls-2{fill:#07a;}.cls-3{fill:#3392bb;}.cls-4{fill:#051323;}.cls-5,.cls-6,.cls-7,.cls-8{fill:#ffde76;}.cls-5{opacity:0.1;}.cls-7{opacity:0.2;}.cls-12,.cls-20,.cls-8{opacity:0.5;}.cls-9{fill:#dd711f;}.cls-10,.cls-20{fill:#f2842a;}.cls-11{fill:#ff9739;}.cls-12{fill:#fad399;}.cls-13{fill:#ffc23b;}.cls-14{fill:#edaa24;}.cls-15{fill:#92352e;}.cls-16{fill:#772322;}.cls-17{fill:#e26154;}.cls-18{fill:#e57f45;}.cls-19{fill:#f59e66;}.cls-21{fill:#ededed;}.cls-22{fill:#060610;}.cls-23{fill:#fff;}.cls-24{fill:#000005;}.cls-25{fill:#1d1d1b;}.cls-26{stroke:#fff;stroke-miterlimit:10;stroke-width:0.49px;}</style></defs><title>clam-res-lost</title><g id="Layer_2" data-name="Layer 2"><g id="clam_lose"><rect class="cls-1" width="311.66" height="295.96"/><circle class="cls-2" cx="32.25" cy="114.02" r="4.88"/><circle class="cls-3" cx="31.25" cy="110.5" r="1.22"/><circle class="cls-2" cx="43.67" cy="92.67" r="5.73"/><circle class="cls-3" cx="42.49" cy="88.54" r="1.43"/><circle class="cls-2" cx="42.65" cy="38.48" r="8.16"/><circle class="cls-3" cx="41.53" cy="34.56" r="4.08"/><circle class="cls-2" cx="12.45" cy="73.97" r="8.16"/><circle class="cls-3" cx="11.09" cy="69.2" r="2.81"/><circle class="cls-2" cx="75.64" cy="139.94" r="2.44"/><circle class="cls-2" cx="52.88" cy="141.88" r="2.44"/><circle class="cls-2" cx="71.68" cy="150.94" r="1.52"/><circle class="cls-2" cx="72.84" cy="126.56" r="1.52"/><circle class="cls-2" cx="60.65" cy="117.81" r="4.17"/><circle class="cls-2" cx="270.1" cy="114.02" r="4.88"/><circle class="cls-3" cx="271.11" cy="110.5" r="1.22"/><circle class="cls-2" cx="258.68" cy="92.67" r="5.73"/><circle class="cls-3" cx="259.86" cy="88.54" r="1.43"/><circle class="cls-2" cx="259.71" cy="38.48" r="8.16"/><circle class="cls-3" cx="260.82" cy="34.56" r="4.08"/><circle class="cls-2" cx="289.9" cy="73.97" r="8.16"/><circle class="cls-3" cx="291.26" cy="69.2" r="2.81"/><circle class="cls-2" cx="226.71" cy="139.94" r="2.44"/><circle class="cls-2" cx="249.47" cy="141.88" r="2.44"/><circle class="cls-2" cx="230.68" cy="150.94" r="1.52"/><circle class="cls-2" cx="229.51" cy="126.56" r="1.52"/><circle class="cls-2" cx="241.71" cy="117.81" r="4.17"/><path class="cls-4" d="M53.88,216.88a16.64,16.64,0,0,1,.31-2,19.07,19.07,0,0,1,.62-1.95,42.16,42.16,0,0,1,1.89-4c.28-.54.56-1.11.84-1.68a5,5,0,0,0,.11.53,7.09,7.09,0,0,0,1.28,2.56,22.13,22.13,0,0,0,3.59,3.34,12.07,12.07,0,0,1,2.63,3,10.57,10.57,0,0,1,1.45,3.49,6.56,6.56,0,0,1-1.87,6.23,13.06,13.06,0,0,1-4.78,2.8q4.41-.51,9.57-1A10.82,10.82,0,0,0,71,224.64a11.4,11.4,0,0,0-.22-5.58,14.8,14.8,0,0,0-2.39-4.68,17.28,17.28,0,0,0-1.7-1.92,18.19,18.19,0,0,0-2-1.62,20.18,20.18,0,0,1-3.3-2.54,4,4,0,0,1-.86-1.4,4.78,4.78,0,0,1-.25-1.72,8.59,8.59,0,0,1,1.06-3.76,43.8,43.8,0,0,1,2.33-3.76A22,22,0,0,0,67.2,189a16.21,16.21,0,0,0-1-9.19,13.6,13.6,0,0,0-6.06-6.69,13.28,13.28,0,0,1,5.4,6.95,15.27,15.27,0,0,1,.32,8.65,20.1,20.1,0,0,1-3.87,7.74c-.75,1-1.55,2-2.3,3.07a24,24,0,0,0-2-9.49c-1.19-2.94-2.66-5.65-3.87-8.45a24,24,0,0,1-2.3-8.71,14.34,14.34,0,0,1,.49-4.51,10.79,10.79,0,0,1,2.1-4,10.89,10.89,0,0,0-2.44,3.93,14.76,14.76,0,0,0-.86,4.62,25.07,25.07,0,0,0,1.68,9.23c.4,1.15.84,2.29,1.28,3.41-.21-.37-.43-.73-.66-1.09a42.1,42.1,0,0,0-2.84-3.89,42.38,42.38,0,0,0-6.83-6.63,21.79,21.79,0,0,1,10-16.17,22.64,22.64,0,0,0-9.73,28.76,25.52,25.52,0,0,0,2.83,4.9c1.07,1.5,2.18,2.92,3.1,4.37a15.89,15.89,0,0,1,1.22,2.19c0,.06,0,.13.08.19a35.88,35.88,0,0,1-6.16,5.59c-1.11.85-2.24,1.72-3.34,2.66l-.19-.3a24.93,24.93,0,0,0-2.63-3.38,60.81,60.81,0,0,1-5.19-6,11.29,11.29,0,0,1-2.14-7.08,18.9,18.9,0,0,1,.49-3.87,24.07,24.07,0,0,1,1.14-3.8,13.52,13.52,0,0,1,4.67-6.32,13.85,13.85,0,0,0-5.32,6,26.08,26.08,0,0,0-1.52,3.81,21.27,21.27,0,0,0-.88,4.06,14,14,0,0,0,.18,4.27,14.66,14.66,0,0,0,1.56,4,61.91,61.91,0,0,0,4.82,6.66,23.56,23.56,0,0,1,2.06,3.18c.17.33.32.67.47,1-.53.55-1,1.11-1.52,1.72a15.86,15.86,0,0,0-2.61,4.71,12.37,12.37,0,0,0-.55,5.61,15.13,15.13,0,0,0,2,5.73,22.7,22.7,0,0,1-2.66,3.42c.06-.29.13-.59.17-.89a17.65,17.65,0,0,0,.1-5.53,12.45,12.45,0,0,0-2-5.3,16.16,16.16,0,0,0-3.39-3.5c.28-.34.55-.69.81-1.06a10.87,10.87,0,0,0,1.46-2.76,10.12,10.12,0,0,0,.51-3.06A15.33,15.33,0,0,0,30.08,202c-1.46-3.63-3.76-6.67-5.13-10.24,1,3.67,3.09,7,4.15,10.58a14,14,0,0,1,.6,5.38,8,8,0,0,1-.65,2.5,9.23,9.23,0,0,1-1.4,2.15c-.29.34-.6.66-.93,1-.84-.62-1.67-1.21-2.45-1.84a11.78,11.78,0,0,1-3.05-3.3,7.24,7.24,0,0,1,1-8.56,7.85,7.85,0,0,0-2.63,4.1,8,8,0,0,0-.25,2.54,6.3,6.3,0,0,0,.2,1.29,7.45,7.45,0,0,0,.39,1.24A13.5,13.5,0,0,0,22.81,213c.68.73,1.38,1.41,2.06,2.08-.41.4-.82.81-1.22,1.25A12.13,12.13,0,0,0,21.82,219a11.66,11.66,0,0,0-1,3.15,12.86,12.86,0,0,0,0,3.28,13.43,13.43,0,0,0,.83,3.21,12.9,12.9,0,0,0,1.69,2.91l.32.37h3.45l.18-.3a.75.75,0,0,0-.07.12l.37.18h5.53c0-.16.1-.31.14-.46l.48.46H39c.29-.42.57-.85.83-1.28a19.35,19.35,0,0,0,1.59,1.28h2a114,114,0,0,1,14.93-2.59A15.79,15.79,0,0,1,53.88,216.88ZM27.94,230.32A8.21,8.21,0,0,1,26.26,229a9.48,9.48,0,0,1-1.34-1.89,10.33,10.33,0,0,1-.81-2.24,9.69,9.69,0,0,1-.19-2.4,8.5,8.5,0,0,1,.5-2.34A9.4,9.4,0,0,1,25.65,218c.28-.39.6-.77.92-1.16A13.66,13.66,0,0,1,28.81,220a7.85,7.85,0,0,1,.63,1.86,9.3,9.3,0,0,1,.2,2A15.46,15.46,0,0,1,27.94,230.32Zm11.58-12a21.93,21.93,0,0,1-.76,2.89,10.65,10.65,0,0,1-.32-1.14,8.33,8.33,0,0,1,.08-3.81,11.85,11.85,0,0,1,1.37-3.14A20.72,20.72,0,0,1,39.52,218.29ZM55.21,194a10.53,10.53,0,0,0,.14-4c.09.25.17.51.26.77a21.92,21.92,0,0,1,1.2,8.61,12.6,12.6,0,0,1-1.09,4,21.16,21.16,0,0,1-1,1.9,11.83,11.83,0,0,0-.09-5.82,12.39,12.39,0,0,0-.75-2A13.71,13.71,0,0,0,55.21,194ZM42.69,226.58c-.22-.17-.43-.36-.65-.55a28.9,28.9,0,0,0,1.11-3.61,14.06,14.06,0,0,0,.33,3.3,16.39,16.39,0,0,0,.58,1.84C43.59,227.25,43.13,226.93,42.69,226.58Zm5.61-2.12a9.49,9.49,0,0,1-.36-2,7.53,7.53,0,0,1,.05-1,7,7,0,0,1,.16-1.09,17,17,0,0,1,1.54-4.15c0,.05,0,.11,0,.17a20.5,20.5,0,0,0-.21,5.19,21.78,21.78,0,0,0,1.13,5.09,20.81,20.81,0,0,0,1.08,2.54A9,9,0,0,1,48.3,224.46Zm3-19.81c-1,3-3.2,5.82-5.13,9.06a23,23,0,0,0-2.38,5.21v0a22.8,22.8,0,0,0-.68-8.75c-.07-.26-.16-.5-.25-.75,1.16-1.2,2.43-2.35,3.71-3.5a43.79,43.79,0,0,0,5.13-5.15A8.69,8.69,0,0,1,51.25,204.65Zm1.51-9.34c-.27-.41-.54-.8-.83-1.19-2.27-3-4.84-5.46-6.34-8.55a20.79,20.79,0,0,1-1.77-4.86,21,21,0,0,1-.55-5.19,15,15,0,0,1,.09-1.64,42.37,42.37,0,0,1,6.26,7.06,40.38,40.38,0,0,1,2.49,4,15.1,15.1,0,0,1,1.63,4.26,8.85,8.85,0,0,1-.25,4.34A11.37,11.37,0,0,1,52.76,195.31Z"/><path class="cls-4" d="M289.36,227.83a4.24,4.24,0,0,1-.86-2.12,5.76,5.76,0,0,1,.39-2.48c.58-1.72,1.73-3.6,1.65-5.77a4.33,4.33,0,0,0-1.19-2.85,4.28,4.28,0,0,0-2.62-1.35,4,4,0,0,1,3,4.18,6.81,6.81,0,0,1-.89,2.56c-.44.83-1,1.64-1.46,2.56-.11.21-.22.43-.32.65,0-.43,0-.86-.11-1.29a11.43,11.43,0,0,0-1-3.15,12.31,12.31,0,0,0-1.83-2.63c-1.36-1.52-2.85-2.7-4-4a8.77,8.77,0,0,1-1.41-2.15,8,8,0,0,1-.65-2.49,14.07,14.07,0,0,1,.6-5.39c1.06-3.56,3.11-6.9,4.15-10.57-1.37,3.56-3.67,6.61-5.13,10.24a15.29,15.29,0,0,0-1.17,5.81,10.12,10.12,0,0,0,.51,3.06,10.87,10.87,0,0,0,1.46,2.76c1.18,1.66,2.58,3,3.63,4.42a9.46,9.46,0,0,1,1.23,2.16,8.5,8.5,0,0,1,.5,2.34,9.57,9.57,0,0,1-.19,2.39,9.74,9.74,0,0,1-.81,2.25,9.41,9.41,0,0,1-1.34,1.88l-.28.27a17.71,17.71,0,0,0,.94-4.54,12.49,12.49,0,0,0-.89-5.6,17.07,17.07,0,0,0-2.87-4.47c-1.08-1.28-2.19-2.43-3.18-3.63a11.75,11.75,0,0,1-2.29-3.86,6.81,6.81,0,0,1,.18-4.94c.73-.92,1.46-1.88,2.14-2.89a4.46,4.46,0,0,1,.43-.33l-.34.19c.3-.46.59-.92.86-1.39a14.72,14.72,0,0,0,1.56-4,13.91,13.91,0,0,0,.18-4.26,21.09,21.09,0,0,0-.87-4.06,26.82,26.82,0,0,0-1.53-3.81,13.88,13.88,0,0,0-5.32-6,13.5,13.5,0,0,1,4.67,6.33,25.08,25.08,0,0,1,1.15,3.79,19.79,19.79,0,0,1,.48,3.88,11.29,11.29,0,0,1-2.14,7.08,60.81,60.81,0,0,1-5.19,6,25.47,25.47,0,0,0-2.63,3.37c-.06.1-.12.2-.19.3-1.1-.93-2.23-1.8-3.34-2.66a35.47,35.47,0,0,1-6.16-5.59c0-.06,0-.12.08-.19a17.14,17.14,0,0,1,1.22-2.19c.92-1.45,2-2.86,3.1-4.37a24.93,24.93,0,0,0,2.83-4.89,22.58,22.58,0,0,0,1.58-5.42,22.87,22.87,0,0,0,.24-5.6,22.43,22.43,0,0,0-11.55-17.75,21.79,21.79,0,0,1,10,16.17,42.76,42.76,0,0,0-6.82,6.63,40.56,40.56,0,0,0-2.85,3.9c-.23.35-.45.72-.65,1.09.43-1.13.87-2.26,1.27-3.41a25.09,25.09,0,0,0,1.68-9.24,14.75,14.75,0,0,0-.86-4.61,10.89,10.89,0,0,0-2.44-3.93,10.64,10.64,0,0,1,2.1,4,14.24,14.24,0,0,1,.49,4.5,24.05,24.05,0,0,1-2.3,8.72c-1.21,2.8-2.68,5.51-3.87,8.45a24,24,0,0,0-2,9.48c-.74-1.09-1.55-2.09-2.3-3.06a20.31,20.31,0,0,1-3.87-7.74,15.3,15.3,0,0,1,.32-8.66,13.26,13.26,0,0,1,5.41-6.94,13.59,13.59,0,0,0-6.07,6.68,16.32,16.32,0,0,0-1.05,9.2,22,22,0,0,0,3.52,8.69c.84,1.29,1.69,2.51,2.33,3.75a8.63,8.63,0,0,1,1.06,3.77,4.81,4.81,0,0,1-.25,1.72,4.21,4.21,0,0,1-.86,1.4,20.75,20.75,0,0,1-3.3,2.54,20.53,20.53,0,0,0-1.95,1.61,17.38,17.38,0,0,0-1.7,1.93,15,15,0,0,0-2.39,4.68,11.37,11.37,0,0,0-.22,5.57,10.65,10.65,0,0,0,1.32,3.34c3,.24,5.91.49,8.62.76a12.15,12.15,0,0,1-3.71-2.39,6.56,6.56,0,0,1-1.87-6.23,10.66,10.66,0,0,1,1.45-3.49,12.88,12.88,0,0,1,1.18-1.57,14.85,14.85,0,0,1,1.45-1.4,22,22,0,0,0,3.59-3.33,7.24,7.24,0,0,0,1.29-2.57c0-.17.07-.35.1-.53.28.58.56,1.14.84,1.69a41,41,0,0,1,1.89,4,18.32,18.32,0,0,1,.62,2,16.79,16.79,0,0,1,.31,2,15.83,15.83,0,0,1-4.15,12.16,170.45,170.45,0,0,1,17.15,2.51c.37-.28.74-.58,1.09-.89.26.43.54.85.82,1.27H274l.18-.17.22.17h5.68c.09-.16.17-.33.25-.5l.3.5h3.45l.32-.36a13.4,13.4,0,0,0,1.7-2.92c.14-.37.27-.75.38-1.13a7.58,7.58,0,0,0,.67,1.87,8.38,8.38,0,0,0,2.11,2.54H293l.48-1.38A7.21,7.21,0,0,1,289.36,227.83Zm-36.28-28.66A11.67,11.67,0,0,0,253,205a21,21,0,0,1-1-1.89,12.66,12.66,0,0,1-1.09-4,21.89,21.89,0,0,1,1.2-8.6c.09-.26.17-.52.26-.78a10.52,10.52,0,0,0,.14,4,13.63,13.63,0,0,0,1.29,3.41A10.93,10.93,0,0,0,253.08,199.17Zm1.9-4.09a12.23,12.23,0,0,1-.73-1.77A8.86,8.86,0,0,1,254,189a15.1,15.1,0,0,1,1.63-4.26,40.53,40.53,0,0,1,2.49-4,41.92,41.92,0,0,1,6.27-7c.05.54.08,1.09.09,1.64a20.93,20.93,0,0,1-.56,5.18,20.47,20.47,0,0,1-1.77,4.86c-1.5,3.09-4.07,5.51-6.34,8.56C255.53,194.27,255.25,194.67,255,195.08Zm4.46,29.15a9,9,0,0,1-3.35,4.65,19.56,19.56,0,0,0,1.08-2.54,21.78,21.78,0,0,0,1.13-5.09,20.5,20.5,0,0,0-.21-5.19c0-.05,0-.11,0-.17a17.05,17.05,0,0,1,1.54,4.16,7,7,0,0,1,.16,1.09,7.38,7.38,0,0,1,.05,1A9,9,0,0,1,259.44,224.23Zm-2.95-19.81a8.69,8.69,0,0,1-.41-3.9,43.79,43.79,0,0,0,5.13,5.15c1.29,1.14,2.55,2.29,3.71,3.49-.09.25-.18.5-.25.75a22.8,22.8,0,0,0-.68,8.75v0a23.16,23.16,0,0,0-2.38-5.2C259.69,210.23,257.47,207.43,256.49,204.42Zm8.56,21.93a16.17,16.17,0,0,1-1.37,1,16.89,16.89,0,0,0,.58-1.83,14.09,14.09,0,0,0,.33-3.31,28.4,28.4,0,0,0,1.11,3.61Zm4.25-6.54A11.35,11.35,0,0,1,269,221a22.35,22.35,0,0,1-.76-2.89,20.76,20.76,0,0,1-.37-5.2,11.35,11.35,0,0,1,1.37,3.13A8.37,8.37,0,0,1,269.3,219.81Zm8.6,4.19a15.49,15.49,0,0,1-3.18,6.25,23.2,23.2,0,0,1-3.25-4,15,15,0,0,0,2-5.72,12.36,12.36,0,0,0-.55-5.61,15.62,15.62,0,0,0-2.61-4.71c-.49-.61-1-1.18-1.51-1.72.14-.34.29-.67.47-1a23.75,23.75,0,0,1,2.05-3.18l.27-.35a6.91,6.91,0,0,0-.16.79,6.36,6.36,0,0,0-.07,1.31,7.94,7.94,0,0,0,.12,1.29,13.46,13.46,0,0,0,1.94,4.75c.86,1.44,1.81,2.77,2.63,4.09a14.31,14.31,0,0,1,1.8,3.93,7.67,7.67,0,0,1,.23,2A8.81,8.81,0,0,1,277.9,224Z"/><path class="cls-5" d="M159.91,224.37h-.56c61.63.13,111.11,4.26,111.11,9.35s-51.07,9.36-114.07,9.36-114.07-4.19-114.07-9.36,49.49-9.22,111.12-9.35h-.57c-73.45.15-132.42,5.08-132.42,11.15s60.86,11.15,135.94,11.15,136-5,136-11.15S233.37,224.52,159.91,224.37Z"/><path class="cls-6" d="M158.42,224.37h0Z"/><path class="cls-6" d="M154.36,224.37h0Z"/><path class="cls-6" d="M158.85,224.37Z"/><path class="cls-6" d="M154.36,224.37h0Z"/><path class="cls-6" d="M158.42,224.37h0Z"/><path class="cls-6" d="M154.36,224.37h0Z"/><path class="cls-7" d="M251.21,232.14c0,4.3-42.45,7.78-94.82,7.78s-94.81-3.48-94.81-7.78,41.12-7.67,92.35-7.77h-.49c-61.63.13-111.12,4.26-111.12,9.35s51.07,9.36,114.07,9.36,114.07-4.19,114.07-9.36S221,224.5,159.35,224.37h-.5C210.08,224.47,251.21,227.91,251.21,232.14Z"/><path class="cls-8" d="M234.75,230.79c0,3.55-35.08,6.43-78.36,6.43S78,234.34,78,230.79s34-6.34,76.33-6.42h-.43c-51.23.1-92.35,3.54-92.35,7.77s42.45,7.78,94.81,7.78,94.82-3.48,94.82-7.78-41.13-7.67-92.36-7.77h-.42C200.76,224.45,234.75,227.3,234.75,230.79Z"/><path class="cls-6" d="M78,230.79c0,3.55,35.09,6.43,78.36,6.43s78.36-2.88,78.36-6.43-34-6.34-76.32-6.42h-4.07C112,224.45,78,227.3,78,230.79Z"/><path class="cls-9" d="M127.22,52.27A160.69,160.69,0,0,0,102,48.54,14.18,14.18,0,0,0,91.45,52c-3.72,3.56-9.28,10.16-15.11,21.68l17.57,2.59L127.1,64.51Z"/><path class="cls-10" d="M163.37,41.72a222.38,222.38,0,0,0-34.81-5.13c-5.6-.33-11,1.48-14.49,4.78-5.12,4.9-12.78,14-20.82,29.88l24.21,6.25,45.75-18.9Z"/><path class="cls-9" d="M197.55,52.27a160.69,160.69,0,0,1,25.26-3.73A14.18,14.18,0,0,1,233.32,52c3.72,3.56,9.28,10.16,15.11,21.68l-17.57,2.59L197.67,64.51Z"/><path class="cls-10" d="M161.4,41.72a222.38,222.38,0,0,1,34.81-5.13c5.6-.33,11,1.48,14.49,4.78,5.12,4.9,12.78,14,20.82,29.88L207.31,77.5,161.56,58.6Z"/><path class="cls-11" d="M139.31,72.37a34.4,34.4,0,0,1,44.16,0,22.1,22.1,0,0,1,2.43,2.29h25.36l-23.73-33c-4.75-6.6-14-10.72-24-10.72h-3.17c-10.05,0-19.28,4.12-24,10.72l-23.73,33H137A26,26,0,0,1,139.31,72.37Z"/><path class="cls-12" d="M179.91,38.25c0,3.06-7.85-.31-17.53-.31s-17.52,3.37-17.52.31S152.71,32,162.38,32,179.91,35.18,179.91,38.25Z"/><ellipse class="cls-11" cx="114.09" cy="49.42" rx="13.84" ry="3.3" transform="translate(1.33 101.82) rotate(-48.35)"/><ellipse class="cls-10" cx="90.82" cy="57.03" rx="8.5" ry="2.02" transform="translate(-12.15 86.99) rotate(-48.35)"/><ellipse class="cls-11" cx="210.68" cy="49.42" rx="3.3" ry="13.84" transform="translate(20.42 152.52) rotate(-41.65)"/><path class="cls-13" d="M188.24,173.08a99.84,99.84,0,0,1,3.66-13.54,50.07,50.07,0,0,1,7-13A72.94,72.94,0,0,1,208.79,136c3.47-3.15,7-6,10.53-8.88,1.76-1.41,3.55-2.81,5.31-4.19l2.65-2.08c.82-.68,1.55-1.32,2.33-2a58.6,58.6,0,0,0,4.36-4.1,10.34,10.34,0,0,0,1-1.09l.95-1.12,1-1.11c.32-.36.57-.78.86-1.16a40,40,0,0,0,5.55-9.88,10.8,10.8,0,0,0,.47-1.31l.44-1.31c.27-.88.46-1.77.69-2.65a35,35,0,0,0,.68-5.25c0-.41,0-.84,0-1.22l0-.57,0-.36s0,.08,0,0l0-.07,0-.13a2.44,2.44,0,0,0-.06-.26,2,2,0,0,1-.1-.26l0-.13-.07-.11a3.66,3.66,0,0,0-1.41-1.58,4,4,0,0,0-.94-.45c-.17,0-.31-.11-.48-.1a1,1,0,0,1-.23,0h-.23c-.15,0-.3,0-.45,0a1.8,1.8,0,0,0-.22.06c-.07,0-.15,0-.23,0a1,1,0,0,1-.22.09l-.13,0-.34.13-1.58.59-6.28,2.35-3.15,1.17-1.58.58L227,90l-1,.33a37.51,37.51,0,0,1-33.44-4.68l-.88-.61-.68-.49-1.35-1-2.72-2-5.43-3.94-2.71-2-1.36-1-1-.7A27.89,27.89,0,0,0,172,71.63,25,25,0,0,0,148.45,74l-1,.7-1.36,1-2.71,2-5.42,4-2.72,2-1.36,1-.68.49-.87.61a37.53,37.53,0,0,1-33.47,4.71l-1-.34L97,89.73l-1.57-.58L92.31,88,86,85.64l-1.57-.59-.35-.13-.13,0-.22-.08c-.07,0-.15,0-.22,0a2.25,2.25,0,0,0-.22-.05c-.15,0-.29-.07-.44,0h-.23l-.23,0c-.16,0-.3.09-.47.09a4.55,4.55,0,0,0-.92.44,3.59,3.59,0,0,0-1.38,1.56c-.12.14-.11.33-.21.49s0,.18-.06.26l0,.13s0,.12,0,0v.13l0,.22,0,.56c0,.38,0,.81,0,1.22a34.68,34.68,0,0,0,.67,5.23c.23.88.42,1.77.69,2.64L81.06,99c.15.44.28.88.47,1.31a40.11,40.11,0,0,0,5.54,9.85c.29.39.54.8.86,1.17l.95,1.1,1,1.12a11.2,11.2,0,0,0,1,1.09,56.35,56.35,0,0,0,4.36,4.08c.78.66,1.5,1.3,2.32,2l2.66,2.07c1.76,1.38,3.54,2.78,5.31,4.2,3.52,2.85,7.06,5.72,10.54,8.88A72.53,72.53,0,0,1,126,146.43a50.35,50.35,0,0,1,7,13.06A99,99,0,0,1,136.63,173L129,175.11a102.79,102.79,0,0,0-4.76-11.92,40.68,40.68,0,0,0-6.63-9.94,71.44,71.44,0,0,0-9.21-8.21c-3.38-2.6-7-5.09-10.65-7.59l-5.51-3.76-2.77-1.88c-1-.68-2-1.45-3-2.17a64.24,64.24,0,0,1-5.73-4.76,15.16,15.16,0,0,1-1.35-1.31l-1.32-1.36-1.31-1.37c-.44-.45-.82-1-1.23-1.45a53.12,53.12,0,0,1-8.26-13.07c-.29-.59-.52-1.21-.76-1.82l-.71-1.85c-.45-1.24-.81-2.52-1.2-3.79a48.69,48.69,0,0,1-1.4-8c0-.71-.09-1.39-.1-2.13V87.59l0-.62V86.5l0-.24c0-.37.06-.57.09-.8l.11-.7c.08-.46.15-.93.26-1.38a21.51,21.51,0,0,1,.85-2.69A20,20,0,0,1,79,68.29L80.4,68c.48-.05,1-.1,1.45-.13a21.73,21.73,0,0,1,2.91,0,24.66,24.66,0,0,1,2.86.44l1.4.37c.22.07.48.13.68.2l.44.15,1.59.54,12.51,4.22a20.28,20.28,0,0,0,9.25.65A20.58,20.58,0,0,0,122,70.93l.5-.35.67-.5,1.34-1,2.69-2,5.38-4,2.69-2,1.35-1,1.73-1.18a42.89,42.89,0,0,1,48,0l1.73,1.19,1.35,1,2.69,2,5.38,4,2.68,2,1.35,1,.67.51.5.35a20.22,20.22,0,0,0,17.79,2.87l12.52-4.21,1.59-.54.45-.15c.2-.07.45-.13.68-.2l1.39-.37a22.67,22.67,0,0,1,2.86-.43,21.59,21.59,0,0,1,2.9,0l1.44.14,1.42.28a21.66,21.66,0,0,1,2.75.8,19.9,19.9,0,0,1,4.95,2.73,20.13,20.13,0,0,1,6.74,8.85l.26.66.2.67c.13.45.26.9.38,1.35s.18.92.26,1.39l.11.69.05.35c0,.1,0,.31,0,.47a3.07,3.07,0,0,1,0,.38V87l0,.62v1.11c0,.74-.07,1.42-.11,2.14a48.33,48.33,0,0,1-1.41,8c-.39,1.27-.75,2.55-1.2,3.79l-.72,1.84a19.2,19.2,0,0,1-.76,1.81,53.23,53.23,0,0,1-8.26,13c-.41.48-.79,1-1.23,1.45l-1.31,1.36-1.32,1.36a15.16,15.16,0,0,1-1.35,1.31,63.88,63.88,0,0,1-5.72,4.74c-1,.73-2,1.49-2.95,2.17l-2.77,1.88L227,137.36c-3.65,2.5-7.28,5-10.66,7.6a71,71,0,0,0-9.24,8.21,41,41,0,0,0-6.66,10,103.69,103.69,0,0,0-4.77,11.93Z"/><path class="cls-14" d="M200.4,163.14a41,41,0,0,1,6.66-10A71,71,0,0,1,216.3,145c3.38-2.61,7-5.1,10.66-7.6l5.51-3.75,2.77-1.88c1-.68,2-1.44,2.95-2.17a63.88,63.88,0,0,0,5.72-4.74,15.16,15.16,0,0,0,1.35-1.31l1.32-1.36,1.31-1.36c.44-.45.82-1,1.23-1.45a53.23,53.23,0,0,0,8.26-13,19.2,19.2,0,0,0,.76-1.81l.72-1.84c.45-1.24.81-2.52,1.2-3.79s.63-2.61.87-3.94c-.08-.28-.15-.56-.23-.83l-.2-.67-.26-.66a20.13,20.13,0,0,0-6.74-8.85,19.9,19.9,0,0,0-4.95-2.73,21.66,21.66,0,0,0-2.75-.8l-1.42-.28c-.48,0-1-.1-1.44-.13a20,20,0,0,0-2.9,0,22.67,22.67,0,0,0-2.86.43l-1.39.37c-.23.07-.48.13-.68.2l-.45.15-1.59.54-12.52,4.21A20.22,20.22,0,0,1,202.76,83l-.5-.35-.67-.51-1.35-1-2.68-2-5.38-4-2.69-2-1.35-1-1.73-1.19a44.24,44.24,0,0,0-7.45-4,42.83,42.83,0,0,0-40.6,4l-1.73,1.18-1.35,1-2.69,2-5.38,4-2.69,2-1.34,1-.67.5L122,83a20.58,20.58,0,0,1-8.52,3.51,20.28,20.28,0,0,1-9.25-.65L91.73,81.6l-1.59-.54-.44-.14L89,80.71l-1.4-.37a22.67,22.67,0,0,0-2.86-.43,20.19,20.19,0,0,0-2.91,0L80.4,80,79,80.32a20.27,20.27,0,0,0-2.76.8,20.39,20.39,0,0,0-11.74,11.6,16,16,0,0,0-.72,2.22c.24,1.32.53,2.63.86,3.92s.75,2.55,1.2,3.79l.71,1.85c.24.61.47,1.23.76,1.82a53.12,53.12,0,0,0,8.26,13.07c.41.48.79,1,1.23,1.45l1.31,1.37,1.32,1.36a15.16,15.16,0,0,0,1.35,1.31,64.24,64.24,0,0,0,5.73,4.76c1,.72,2,1.49,3,2.17l2.77,1.88,5.51,3.76c3.64,2.5,7.27,5,10.65,7.59a71.44,71.44,0,0,1,9.21,8.21,40.68,40.68,0,0,1,6.63,9.94A102.79,102.79,0,0,1,129,175.11l4.77-1.29c-.25-.76-.5-1.53-.78-2.3a50.51,50.51,0,0,0-7-13.06A73.05,73.05,0,0,0,116,147.91c-3.48-3.16-7-6-10.54-8.88-1.77-1.42-3.55-2.82-5.31-4.2l-2.66-2.07c-.82-.68-1.54-1.32-2.32-2a56.35,56.35,0,0,1-4.36-4.08,11.2,11.2,0,0,1-1-1.09l-1-1.12-.95-1.1c-.32-.37-.57-.78-.86-1.17a40.11,40.11,0,0,1-5.54-9.85c-.19-.43-.32-.87-.47-1.31l-.43-1.31c-.27-.87-.46-1.76-.69-2.64a34.68,34.68,0,0,1-.67-5.23c0-.41,0-.84,0-1.22l0-.56,0-.22v-.13c0,.09,0,0,0,0l0-.13c0-.08,0-.17.06-.26s.09-.35.21-.49a3.88,3.88,0,0,1,1-1.25c-.24-.83-.43-1.68-.65-2.51a34.68,34.68,0,0,1-.67-5.23c0-.41,0-.84,0-1.22l0-.56,0-.22v-.13c0,.09,0,0,0,0l0-.13c0-.08,0-.17.06-.26s.09-.35.21-.49A3.59,3.59,0,0,1,81,85.25a4.55,4.55,0,0,1,.92-.44c.17,0,.31-.1.47-.09l.23,0h.23c.15,0,.29,0,.44,0a2.25,2.25,0,0,1,.22.05c.07,0,.15,0,.22,0l.22.08.13,0,.35.13,1.57.59L92.31,88l3.15,1.16,1.57.58.79.29,1,.34a37.53,37.53,0,0,0,33.47-4.71l.87-.61.68-.49,1.36-1,2.72-2,5.42-4,2.71-2,1.36-1,1-.7A25.36,25.36,0,0,1,172,71.63,27.89,27.89,0,0,1,176.34,74l1,.7,1.36,1,2.71,2,5.43,3.94,2.72,2,1.35,1,.68.49.88.61A37.51,37.51,0,0,0,226,90.31l1-.33.78-.29,1.58-.58,3.15-1.17,6.28-2.35,1.58-.59.34-.13.13,0a1,1,0,0,0,.22-.09c.08,0,.16,0,.23,0a1.8,1.8,0,0,1,.22-.06c.15,0,.3-.06.45,0h.23a1,1,0,0,0,.23,0c.17,0,.31.09.48.1a4,4,0,0,1,.94.45,3.66,3.66,0,0,1,1.41,1.58l.07.11,0,.13a2,2,0,0,0,.1.26,2.44,2.44,0,0,1,.06.26l0,.13,0,.07s0,0,0,0l0,.36,0,.57c0,.38,0,.81,0,1.22a35,35,0,0,1-.68,5.25c-.22.82-.4,1.65-.64,2.47a3.88,3.88,0,0,1,.95,1.25l.07.11,0,.13a2,2,0,0,0,.1.26,2.44,2.44,0,0,1,.06.26l0,.13,0,.07s0,0,0,0l0,.36,0,.57c0,.38,0,.81,0,1.22a34.81,34.81,0,0,1-.68,5.25c-.23.88-.42,1.77-.69,2.65l-.44,1.31a10.8,10.8,0,0,1-.47,1.31,40,40,0,0,1-5.55,9.88c-.29.38-.54.8-.86,1.16l-1,1.11-.95,1.12a10.34,10.34,0,0,1-1,1.09,58.6,58.6,0,0,1-4.36,4.1c-.78.66-1.51,1.3-2.33,2l-2.65,2.08c-1.76,1.38-3.55,2.78-5.31,4.19-3.52,2.86-7.06,5.73-10.53,8.88a72.94,72.94,0,0,0-9.91,10.55,50.07,50.07,0,0,0-7,13c-.28.77-.53,1.53-.77,2.29l4.5,1.21A103.69,103.69,0,0,1,200.4,163.14Z"/><path class="cls-15" d="M86,85.64,92.31,88l3.15,1.16,1.58.58.78.29,1,.34a37.61,37.61,0,0,0,33.47-4.71l.87-.61.68-.49,1.36-1,2.71-2,5.43-4,2.71-2,1.36-1,1-.69a27.35,27.35,0,0,1,4.33-2.33A25,25,0,0,1,176.34,74l1,.7,1.36,1,2.71,2,5.43,3.94,2.71,2,1.36,1,.68.49.88.61A37.51,37.51,0,0,0,226,90.31l1-.33.78-.29,1.58-.59,3.14-1.16,6.29-2.36,1.58-.58.34-.13.13,0a1,1,0,0,0,.22-.09c.08,0,.15,0,.23,0s.14,0,.22,0,.3-.06.45,0a.89.89,0,0,0,.23,0l.23,0c.17,0,.31.08.48.09a4,4,0,0,1,.94.45,3.66,3.66,0,0,1,1.41,1.58l.07.11,0,.13a2,2,0,0,0,.1.26c0,.08,0,.18.06.26l0,.14,0,.06h0l0,.3,0,.57c0,.38,0,.81,0,1.22a36.37,36.37,0,0,1-.69,5.25l-.21.81c-.08.35-.17.69-.26,1-.06.2-.11.41-.17.62l-.06.18-.43,1.31a10.8,10.8,0,0,1-.47,1.31,40,40,0,0,1-5.55,9.88c-.29.38-.54.8-.86,1.16l-1,1.11-.95,1.12a10.25,10.25,0,0,1-1,1.09,58.6,58.6,0,0,1-4.36,4.1c-.78.66-1.51,1.31-2.33,2l-2.65,2.07c-1.77,1.38-3.55,2.78-5.3,4.2-3.53,2.86-7.06,5.73-10.54,8.88a73.34,73.34,0,0,0-9.91,10.54,50.75,50.75,0,0,0-7,13c-.66,1.84-1.23,3.67-1.74,5.5a136.28,136.28,0,0,0-55.45,0q-.77-2.76-1.75-5.53a50.35,50.35,0,0,0-7-13.06A74.16,74.16,0,0,0,116,135.87c-3.49-3.15-7-6-10.55-8.87-1.77-1.42-3.55-2.82-5.31-4.2l-2.66-2.07-2.33-2a58.2,58.2,0,0,1-4.35-4.09,11.21,11.21,0,0,1-1-1.08l-1-1.11-.95-1.11c-.32-.37-.57-.78-.87-1.17a40,40,0,0,1-5.52-9.85A9.33,9.33,0,0,1,81.07,99l-.44-1.3a.57.57,0,0,0,0-.14c-.24-.83-.43-1.68-.65-2.51a36,36,0,0,1-.68-5.24c0-.4,0-.83,0-1.21l0-.56,0-.22v-.09a.2.2,0,0,0,0-.07l0-.12a2.14,2.14,0,0,1,.06-.27c.1-.15.09-.35.2-.49A3.6,3.6,0,0,1,81,85.26a3.68,3.68,0,0,1,.92-.44c.17,0,.31-.12.47-.1a.93.93,0,0,0,.23,0h.23c.15,0,.29,0,.44,0s.15,0,.21.06.16,0,.23,0l.22.08a1.3,1.3,0,0,0,.13,0l.35.14Z"/><path class="cls-16" d="M245.56,88.06l0-.3h0l0-.06,0-.14c0-.08,0-.18-.06-.26a2,2,0,0,1-.1-.26l0-.13-.07-.11S225,135.38,162.38,135.38,81,85.26,81,85.26a3.6,3.6,0,0,0-1.39,1.55c-.11.14-.1.34-.2.49a2.14,2.14,0,0,0-.06.27l0,.12a.2.2,0,0,1,0,.07v.09l0,.22,0,.56c0,.38,0,.81,0,1.21a36,36,0,0,0,.68,5.24c.22.83.41,1.68.65,2.51a.57.57,0,0,1,0,.14l.44,1.3a9.33,9.33,0,0,0,.47,1.31,40,40,0,0,0,5.52,9.85c.3.39.55.8.87,1.17l.95,1.11,1,1.11a11.21,11.21,0,0,0,1,1.08,58.2,58.2,0,0,0,4.35,4.09l2.33,2,2.66,2.07c1.76,1.38,3.54,2.78,5.31,4.2,3.52,2.86,7.06,5.72,10.55,8.87A74.16,74.16,0,0,1,126,146.43a50.35,50.35,0,0,1,7,13.06q1,2.77,1.75,5.53a136.28,136.28,0,0,1,55.45,0c.51-1.83,1.08-3.66,1.74-5.5a50.75,50.75,0,0,1,7-13A73.34,73.34,0,0,1,208.79,136c3.48-3.15,7-6,10.54-8.88,1.75-1.42,3.53-2.82,5.3-4.2l2.65-2.07c.82-.67,1.55-1.32,2.33-2a58.6,58.6,0,0,0,4.36-4.1,10.25,10.25,0,0,0,1-1.09l.95-1.12,1-1.11c.32-.36.57-.78.86-1.16a40,40,0,0,0,5.55-9.88,10.8,10.8,0,0,0,.47-1.31l.43-1.31a1.21,1.21,0,0,0,.05-.18c.07-.21.12-.42.18-.62.09-.35.18-.69.26-1l.21-.81a36.37,36.37,0,0,0,.69-5.25c0-.41,0-.84,0-1.22Z"/><path class="cls-17" d="M236.76,195.69c-6.51-19.07-37.33-33.51-74.38-33.51S94.52,176.62,88,195.69Z"/><path class="cls-9" d="M130,215.54a150.58,150.58,0,0,1-23.25,3.36,13.25,13.25,0,0,1-9.67-3.12c-3.42-3.21-8.53-9.15-13.9-19.53l16.16-2.33,30.55,10.6Z"/><path class="cls-18" d="M163.29,225a207.17,207.17,0,0,1-32,4.62c-5.16.3-10.15-1.33-13.33-4.3-4.72-4.42-11.77-12.61-19.17-26.91L121,194.7l42.1,15.14Z"/><path class="cls-10" d="M163.29,225a207.17,207.17,0,0,1-32,4.62c-5.16.3-10.15-1.33-13.33-4.3-4.72-4.42-11.77-12.61-19.17-26.91L121,194.7l42.1,15.14Z"/><path class="cls-9" d="M194.74,215.54A150.58,150.58,0,0,0,218,218.9a13.25,13.25,0,0,0,9.67-3.12c3.42-3.21,8.53-9.15,13.9-19.53l-16.16-2.33-30.55,10.6Z"/><path class="cls-10" d="M161.48,225a207.17,207.17,0,0,0,32,4.62c5.16.3,10.15-1.33,13.33-4.3,4.72-4.42,11.77-12.61,19.17-26.91l-22.28-3.75-42.1,15.14Z"/><path class="cls-19" d="M207.36,195.38H116.55l21.83,29.68c4.37,5.94,12.87,9.65,22.11,9.65h2.92c9.25,0,17.75-3.71,22.12-9.65Z"/><path class="cls-11" d="M207.36,195.38H116.55l21.83,29.68c4.37,5.94,12.87,9.65,22.11,9.65h2.92c9.25,0,17.75-3.71,22.12-9.65Z"/><path class="cls-20" d="M185.53,215.44c-4.37,4-12.87,6.52-22.12,6.52h-2.92c-9.24,0-17.74-2.51-22.11-6.52l-21.83-20.06,21.83,29.68c4.37,5.94,12.87,9.65,22.11,9.65h2.92c9.25,0,17.75-3.71,22.12-9.65l21.83-29.68Z"/><path class="cls-13" d="M201.72,211.62c-.75,0-1.5,0-2.25-.1l-.26,0a26.41,26.41,0,0,1-10.46-3.29L168.58,197a12.22,12.22,0,0,0-5.51-1.61c-.46,0-.92,0-1.37,0a12.22,12.22,0,0,0-5.51,1.61L136,208.21a26.41,26.41,0,0,1-10.46,3.29h-.26a27,27,0,0,1-14.8-3l-11.9-6.2a17.49,17.49,0,0,0-6.69.67l-11.33,4.07a8.47,8.47,0,1,1-5.73-15.94L86.19,187a34.42,34.42,0,0,1,15.11-1.49,13,13,0,0,1,4.48,1.39l12.55,6.55a10.12,10.12,0,0,0,5.53,1.15H124a9.74,9.74,0,0,0,3.79-1.23L148,182.18a29.32,29.32,0,0,1,13.19-3.74c.83,0,1.66,0,2.48,0a29.32,29.32,0,0,1,13.2,3.74L197,193.4a9.74,9.74,0,0,0,3.79,1.23H201a10.16,10.16,0,0,0,5.48-1.16l9.36-4.88a27.77,27.77,0,0,1,15.95-3.09,29.74,29.74,0,0,1,6.83,1.52l11.34,4.07a8.47,8.47,0,1,1-5.73,15.94L232.86,203a13.47,13.47,0,0,0-3-.62,10.92,10.92,0,0,0-6.27,1.27l-9.37,4.88A27.1,27.1,0,0,1,201.72,211.62Z"/><path class="cls-14" d="M244.19,199.8l-11.33-4.07a13.47,13.47,0,0,0-3-.62,10.92,10.92,0,0,0-6.27,1.27l-9.37,4.88a27.1,27.1,0,0,1-12.55,3.11c-.75,0-1.5,0-2.25-.1l-.26,0a26.59,26.59,0,0,1-10.46-3.3l-20.17-11.21a12.36,12.36,0,0,0-5.51-1.62H161.7a12.36,12.36,0,0,0-5.51,1.62L136,201a26.59,26.59,0,0,1-10.46,3.3h-.26a27.08,27.08,0,0,1-14.8-3l-11.9-6.2a17.49,17.49,0,0,0-6.69.67L80.58,199.8a8.47,8.47,0,0,1-10.52-4.35,8.47,8.47,0,0,0,10.52,11.6L91.91,203a17.49,17.49,0,0,1,6.69-.67l11.9,6.2a27,27,0,0,0,14.8,3h.26A26.41,26.41,0,0,0,136,208.21L156.19,197a12.22,12.22,0,0,1,5.51-1.61c.45,0,.91,0,1.37,0a12.22,12.22,0,0,1,5.51,1.61l20.17,11.22a26.41,26.41,0,0,0,10.46,3.29l.26,0c.75.07,1.5.1,2.25.1a27.1,27.1,0,0,0,12.55-3.11l9.37-4.88a10.92,10.92,0,0,1,6.27-1.27,13.47,13.47,0,0,1,3,.62l11.33,4.07a8.47,8.47,0,0,0,10.52-11.6A8.47,8.47,0,0,1,244.19,199.8Z"/><path class="cls-21" d="M183.16,100.33a29.46,29.46,0,0,1-15.63-5.13l-.18,0a13.74,13.74,0,0,0-1.89,15.15c3,5.2,9.54,7.44,14.65,5s6.82-8.62,3.84-13.82A11,11,0,0,0,183.16,100.33Z"/><circle class="cls-22" cx="174.13" cy="110.92" r="4.14"/><path class="cls-21" d="M159.38,98.4l-.78.17a25.57,25.57,0,0,1-15.23,5.33,6.93,6.93,0,0,1-2-.25,9.41,9.41,0,0,0,5.3,11.91A11.57,11.57,0,0,0,161,109.88C162.8,106.36,161.92,101.5,159.38,98.4Z"/><circle class="cls-22" cx="152.24" cy="110.92" r="4.14"/><circle class="cls-21" cx="152.24" cy="108.39" r="1.61"/><circle class="cls-21" cx="174.13" cy="108.39" r="1.61"/><path class="cls-23" d="M176.29,98.09a1.28,1.28,0,0,0,0,.19c0,1.66,1.66,3,3.71,3a4.34,4.34,0,0,0,1.79-.38A32.31,32.31,0,0,1,176.29,98.09Z"/><path class="cls-24" d="M134,103.7s20,6.29,28.46-7.9l-5.72-4.7S151,101.82,134,103.7Z"/><path class="cls-24" d="M192.76,99.9s-19.64,7.32-28.83-6.42l5.47-5S175.65,98.9,192.76,99.9Z"/><path class="cls-23" d="M150.49,157.19s-3.13,1.77-6.1,6.78c0,0,3.51.53,4.48,3.11l-3.76,1.74a19.24,19.24,0,0,0,8.17,4.51S157.12,163.05,150.49,157.19Z"/><circle class="cls-25" cx="150.49" cy="162.35" r="1.5"/><path class="cls-23" d="M181.39,164.67s3-6.55,8-7.48c0,0,.18,5-3.31,7.95,0,0,2.78,2.32,2.56,5.37A10,10,0,0,1,181.39,164.67Z"/><line class="cls-26" x1="153.7" y1="164.81" x2="183.44" y2="164.81"/><path class="cls-23" d="M158,154.61a55.58,55.58,0,0,0-1.29,10,30.35,30.35,0,0,0,.24,4.95,35.41,35.41,0,0,0,1,4.94,14.38,14.38,0,0,1-2.16-4.72,19.07,19.07,0,0,1-.58-5.21,23.05,23.05,0,0,1,.76-5.16A17.89,17.89,0,0,1,158,154.61Z"/><path class="cls-23" d="M161.78,154.61a49.25,49.25,0,0,0-1.44,10.23,30.08,30.08,0,0,0,.27,5.11,32.62,32.62,0,0,0,1.17,5.05,15.82,15.82,0,0,1-2.05-4.88,20.54,20.54,0,0,1-.55-5.3,25.92,25.92,0,0,1,.72-5.27A20.23,20.23,0,0,1,161.78,154.61Z"/><path class="cls-23" d="M165.17,154.61a48.21,48.21,0,0,0-1.11,5.09,40.42,40.42,0,0,0-.48,5.14,29.34,29.34,0,0,0,.31,5.13,28.12,28.12,0,0,0,1.28,5,16.78,16.78,0,0,1-1.94-4.9,21.31,21.31,0,0,1-.51-5.28A24.65,24.65,0,0,1,165.17,154.61Z"/><path class="cls-23" d="M168.51,155.38a46.5,46.5,0,0,0-1,4.71,36.14,36.14,0,0,0-.43,4.75,25.47,25.47,0,0,0,1.43,9.39,15.54,15.54,0,0,1-1.82-4.53,19.08,19.08,0,0,1-.48-4.88A22.6,22.6,0,0,1,168.51,155.38Z"/><path class="cls-23" d="M171.56,157.19a33.08,33.08,0,0,0-.85,3.8,26,26,0,0,0-.37,3.84,19.72,19.72,0,0,0,.24,3.84l.16,1c.07.31.17.62.24.93.12.65.41,1.23.58,1.87a13.31,13.31,0,0,1-1.42-3.67,16.82,16.82,0,0,1-.37-3.94,21.46,21.46,0,0,1,.5-3.92A17.72,17.72,0,0,1,171.56,157.19Z"/><path class="cls-23" d="M174.75,158.6a27.15,27.15,0,0,0-.94,6.23A18.15,18.15,0,0,0,174,168a17.55,17.55,0,0,0,.76,3.06,10.19,10.19,0,0,1-1.2-3,12.9,12.9,0,0,1-.32-3.22,15.5,15.5,0,0,1,.43-3.19A13.28,13.28,0,0,1,174.75,158.6Z"/><path class="cls-23" d="M177.54,160.86a18.55,18.55,0,0,0-.57,4,11,11,0,0,0,.11,2,12.26,12.26,0,0,0,.46,1.95,6,6,0,0,1-.79-1.89,8.81,8.81,0,0,1-.21-2.05A9.13,9.13,0,0,1,177.54,160.86Z"/></g></g></svg>