<svg xmlns="http://www.w3.org/2000/svg" viewBox="0 0 311.66 295.96"><defs><style>.cls-1,.cls-2{fill:#051323;}.cls-12,.cls-17,.cls-2,.cls-6{opacity:0.5;}.cls-3,.cls-4,.cls-5,.cls-6{fill:#ffde76;}.cls-3{opacity:0.1;}.cls-5{opacity:0.2;}.cls-7{fill:#dd711f;}.cls-12,.cls-8{fill:#f2842a;}.cls-9{fill:#ff9739;}.cls-10{fill:#e57f45;}.cls-11{fill:#f59e66;}.cls-13{fill:#ffc23b;}.cls-14{fill:#edaa24;}.cls-15{fill:#fff;}.cls-16{fill:#060610;}.cls-17{fill:#fad399;}.cls-18{fill:none;}</style></defs><title>clam-res-idle</title><g id="Layer_2" data-name="Layer 2"><g id="clam_pearl"><path class="cls-1" d="M163.18,44.93s-14.58-.65-18.69,10.47c0,0,13.28,4.47,19.73-8.83l4.23,1-3.5-2.1,1.34-6.69Z"/><path class="cls-2" d="M101.84,60.7s6.86-.31,8.79,4.91a7.63,7.63,0,0,1-9.28-4.14l-2,.46L101,61l-.64-3.15Z"/><path class="cls-2" d="M69,116.46s-6.7-1.43-9.46,3.41a7.61,7.61,0,0,0,9.82-2.58l1.88.79-1.46-1.24,1.14-3Z"/><path class="cls-2" d="M247.72,115.38s-6.71-1.43-9.47,3.41a7.63,7.63,0,0,0,9.83-2.57L250,117l-1.46-1.24,1.14-3Z"/><path class="cls-2" d="M207.05,44.92s-6.4,2.48-6.07,8a7.62,7.62,0,0,0,6.82-7.53l2-.37-1.91-.24-.68-3.14Z"/><path class="cls-1" d="M115,90.15a20.47,20.47,0,0,0-6.84-4.85,11.64,11.64,0,0,0-1.51-2.41,26.27,26.27,0,0,0-3.68-3.3c-.57,1.53-1.13,3.06-1.7,4.6A16.2,16.2,0,0,0,93,87.36c.27-3.18-2.29-6.36-2.29-6.36,1.55,5.39-3.48,11.66-3.48,11.66C91,92.66,93,88.83,93,88.83a25.55,25.55,0,0,0,4.12,4c-.92.37-2.57,1.06-2.83.67A8.93,8.93,0,0,0,96,95.49l0,0s0,0,.07,0a5.6,5.6,0,0,0,1.43-2.26,14.64,14.64,0,0,0,17.4.31l-3.18-2.31Z"/><path class="cls-1" d="M201,77.69a13.87,13.87,0,0,1,4.64-3.29,7.68,7.68,0,0,1,1-1.63,17.71,17.71,0,0,1,2.5-2.24l1.16,3.11a11,11,0,0,1,5.6,2.16,7.21,7.21,0,0,1,1.55-4.32c-1.05,3.66,2.36,7.92,2.36,7.92-2.55,0-3.91-2.6-3.91-2.6a17.53,17.53,0,0,1-2.8,2.75c.63.25,1.75.72,1.92.46a5.87,5.87,0,0,1-1.18,1.31h0s0,0-.05,0a3.85,3.85,0,0,1-1-1.54A9.93,9.93,0,0,1,201,80l2.16-1.57Z"/><path class="cls-1" d="M174.29,84.66a4,4,0,0,0,.05-1.88,5.86,5.86,0,0,0-.93-1.83.84.84,0,0,0-.44-.39.73.73,0,0,0-.53.12,5.7,5.7,0,0,0-1.75,1.41c.16-.18,1.41.9,1.53,1a4.61,4.61,0,0,1,.7,1,11.58,11.58,0,0,0-6.08-.14l-2.72-4L166,84.58l-1.55,1.94,2.13-1.24c5.71,8.63,12.2,3.77,12.2,3.77A10.14,10.14,0,0,0,174.29,84.66Z"/><path class="cls-1" d="M54,216.23a16.66,16.66,0,0,1,.32-2,18.24,18.24,0,0,1,.61-1.95c.51-1.31,1.19-2.63,1.89-4,.28-.55.56-1.11.84-1.69a4.52,4.52,0,0,0,.11.53,7.14,7.14,0,0,0,1.28,2.57A22.49,22.49,0,0,0,62.67,213a13.61,13.61,0,0,1,1.44,1.39A11.11,11.11,0,0,1,65.29,216a10.47,10.47,0,0,1,1.46,3.49,6.59,6.59,0,0,1-1.87,6.23,13,13,0,0,1-4.78,2.79c2.93-.34,6.13-.66,9.56-1A10.84,10.84,0,0,0,71.11,224a11.49,11.49,0,0,0-.23-5.57,14.6,14.6,0,0,0-2.39-4.68,14.78,14.78,0,0,0-1.7-1.92,16.16,16.16,0,0,0-2-1.61,21.09,21.09,0,0,1-3.29-2.55,4.08,4.08,0,0,1-.86-1.39,4.81,4.81,0,0,1-.25-1.72,8.59,8.59,0,0,1,1.06-3.76A43.8,43.8,0,0,1,63.83,197a21.86,21.86,0,0,0,3.52-8.68,16.21,16.21,0,0,0-1.06-9.19,13.59,13.59,0,0,0-6.05-6.68,13.22,13.22,0,0,1,5.39,6.94,15.18,15.18,0,0,1,.33,8.65,20.34,20.34,0,0,1-3.87,7.73c-.75,1-1.55,2-2.29,3.07a24.15,24.15,0,0,0-2-9.48c-1.18-2.94-2.65-5.65-3.87-8.44a24.21,24.21,0,0,1-2.3-8.71,14.54,14.54,0,0,1,.49-4.5,10.66,10.66,0,0,1,2.11-4,10.76,10.76,0,0,0-2.44,3.93,15.06,15.06,0,0,0-.87,4.61,25,25,0,0,0,1.69,9.22c.4,1.16.83,2.29,1.27,3.41-.21-.37-.43-.73-.65-1.09a42.71,42.71,0,0,0-9.67-10.51,21.8,21.8,0,0,1,10-16.16A22.38,22.38,0,0,0,42,174.83a22.77,22.77,0,0,0,.23,5.59,22.45,22.45,0,0,0,1.58,5.42,25.66,25.66,0,0,0,2.83,4.89c1.07,1.51,2.18,2.92,3.1,4.37A15.89,15.89,0,0,1,51,197.29c0,.06.05.13.08.19a35.82,35.82,0,0,1-6.16,5.58c-1.11.86-2.24,1.73-3.34,2.66-.06-.1-.12-.2-.19-.3a26.27,26.27,0,0,0-2.62-3.37,61.91,61.91,0,0,1-5.19-6,12.53,12.53,0,0,1-1.65-3.34,12,12,0,0,1-.48-3.74,18.88,18.88,0,0,1,.48-3.87A24,24,0,0,1,33,181.35,13.54,13.54,0,0,1,37.71,175a13.92,13.92,0,0,0-5.32,6,26,26,0,0,0-1.52,3.8,20.37,20.37,0,0,0-.87,4.06,13.59,13.59,0,0,0,.18,4.26,14.21,14.21,0,0,0,1.55,4,61.76,61.76,0,0,0,4.82,6.65A23.75,23.75,0,0,1,38.6,207a10.23,10.23,0,0,1,.47,1c-.52.54-1,1.11-1.51,1.71A15.86,15.86,0,0,0,35,214.46a12.36,12.36,0,0,0-.55,5.61,15,15,0,0,0,2,5.72,22.7,22.7,0,0,1-2.66,3.42c.06-.3.13-.59.18-.89a18.27,18.27,0,0,0,.1-5.53,12.54,12.54,0,0,0-2-5.29,16.64,16.64,0,0,0-3.39-3.5c.28-.34.55-.69.81-1.06a10.84,10.84,0,0,0,1.45-2.76,9.77,9.77,0,0,0,.52-3.05,15.3,15.3,0,0,0-1.18-5.81c-1.45-3.63-3.76-6.67-5.12-10.23,1,3.67,3.09,7,4.14,10.57a14,14,0,0,1,.61,5.37,8,8,0,0,1-.66,2.5,8.92,8.92,0,0,1-1.4,2.15c-.29.34-.6.66-.92,1-.84-.62-1.67-1.21-2.45-1.84a11.7,11.7,0,0,1-3-3.29,7.26,7.26,0,0,1,1-8.56,7.77,7.77,0,0,0-2.62,4.1,7.69,7.69,0,0,0-.26,2.54,7,7,0,0,0,.2,1.28,7.87,7.87,0,0,0,.39,1.25A13.57,13.57,0,0,0,23,212.39c.68.73,1.38,1.41,2.06,2.08-.41.4-.82.81-1.22,1.25A12.31,12.31,0,0,0,22,218.35a12,12,0,0,0-1,3.15,12.86,12.86,0,0,0,0,3.28,13.23,13.23,0,0,0,.83,3.2,13,13,0,0,0,1.69,2.92l.32.36h3.45l.17-.29-.06.12.37.17h5.53c0-.15.09-.3.14-.46l.47.46h5.25c.28-.42.56-.84.82-1.27.52.45,1,.87,1.59,1.27h2a112.73,112.73,0,0,1,14.92-2.58A15.82,15.82,0,0,1,54,216.23ZM28.11,229.65a8.07,8.07,0,0,1-1.67-1.28,9.18,9.18,0,0,1-1.35-1.88,10.3,10.3,0,0,1-.8-2.24,9.69,9.69,0,0,1-.19-2.4,8.36,8.36,0,0,1,.5-2.33,9.25,9.25,0,0,1,1.23-2.16c.28-.38.6-.77.92-1.15a13.06,13.06,0,0,1,2.23,3.1,7.36,7.36,0,0,1,.63,1.87,8.56,8.56,0,0,1,.2,2A15.38,15.38,0,0,1,28.11,229.65Zm11.58-12a23.45,23.45,0,0,1-.76,2.88,9.05,9.05,0,0,1-.32-1.13,8.37,8.37,0,0,1,.08-3.82,11.62,11.62,0,0,1,1.37-3.13A20.72,20.72,0,0,1,39.69,217.64Zm15.68-24.29a10.72,10.72,0,0,0,.13-4c.09.26.18.52.26.78a21.66,21.66,0,0,1,1.2,8.6,12.59,12.59,0,0,1-1.08,4c-.28.63-.61,1.26-1,1.89a11.79,11.79,0,0,0-.1-5.81,12.36,12.36,0,0,0-.74-2A14,14,0,0,0,55.37,193.35ZM42.86,225.92c-.22-.17-.44-.36-.65-.55a28.85,28.85,0,0,0,1.1-3.61,13.56,13.56,0,0,0,.34,3.3,14.56,14.56,0,0,0,.58,1.84A15.36,15.36,0,0,1,42.86,225.92Zm5.6-2.11a9.69,9.69,0,0,1-.36-2.05,7.6,7.6,0,0,1,0-1,6.71,6.71,0,0,1,.16-1.08,17.43,17.43,0,0,1,1.53-4.16l0,.17a20.5,20.5,0,0,0-.21,5.19,21.78,21.78,0,0,0,1.13,5.09,18.67,18.67,0,0,0,1.08,2.53A9,9,0,0,1,48.46,223.81ZM51.41,204c-1,3-3.2,5.81-5.13,9.05a23.14,23.14,0,0,0-2.37,5.2v0a22.94,22.94,0,0,0-.67-8.74l-.25-.75c1.15-1.2,2.42-2.35,3.71-3.49a44.49,44.49,0,0,0,5.12-5.15A8.83,8.83,0,0,1,51.41,204Zm1.51-9.34c-.27-.41-.55-.8-.83-1.18-2.27-3-4.84-5.46-6.34-8.55a21.37,21.37,0,0,1-2.32-10c0-.55,0-1.09.09-1.64a42.71,42.71,0,0,1,6.26,7.05,41.58,41.58,0,0,1,2.49,4,15.38,15.38,0,0,1,1.62,4.26,8.93,8.93,0,0,1-.24,4.33A11.37,11.37,0,0,1,52.92,194.67Z"/><path class="cls-1" d="M289.33,227.17a4.24,4.24,0,0,1-.86-2.12,5.55,5.55,0,0,1,.39-2.47c.58-1.72,1.72-3.61,1.65-5.78a4.38,4.38,0,0,0-3.81-4.19,4,4,0,0,1,3,4.17,7.1,7.1,0,0,1-.89,2.57c-.44.82-1,1.63-1.46,2.55-.11.21-.22.43-.32.66,0-.44-.05-.87-.11-1.3a11.36,11.36,0,0,0-1-3.14,12.38,12.38,0,0,0-1.82-2.63c-1.37-1.52-2.85-2.7-4-4.05a8.86,8.86,0,0,1-1.4-2.14,8.09,8.09,0,0,1-.65-2.5,13.82,13.82,0,0,1,.6-5.38c1.05-3.56,3.11-6.9,4.14-10.57-1.36,3.57-3.67,6.61-5.12,10.24a15.24,15.24,0,0,0-1.17,5.8A9.54,9.54,0,0,0,277,210a11.17,11.17,0,0,0,1.45,2.76c1.19,1.66,2.59,3,3.64,4.42a9.79,9.79,0,0,1,1.23,2.15,8.88,8.88,0,0,1,.5,2.34,10.07,10.07,0,0,1-.19,2.39,10,10,0,0,1-.81,2.24,9.6,9.6,0,0,1-1.34,1.89l-.29.26a17.55,17.55,0,0,0,.94-4.53,12.48,12.48,0,0,0-.88-5.6,17.44,17.44,0,0,0-2.87-4.46c-1.08-1.28-2.19-2.43-3.18-3.63a11.71,11.71,0,0,1-2.29-3.85,6.81,6.81,0,0,1,.18-4.94c.73-.93,1.46-1.88,2.14-2.89a4.46,4.46,0,0,1,.43-.33l-.34.19c.3-.45.59-.91.86-1.39a14.66,14.66,0,0,0,1.56-4,13.91,13.91,0,0,0,.17-4.26,20.37,20.37,0,0,0-.87-4.06,26.08,26.08,0,0,0-1.52-3.81,13.91,13.91,0,0,0-5.32-6,13.52,13.52,0,0,1,4.67,6.32A24.27,24.27,0,0,1,276,184.9a19.08,19.08,0,0,1,.49,3.88,11.24,11.24,0,0,1-2.14,7.07,58.33,58.33,0,0,1-5.19,6,27.1,27.1,0,0,0-2.62,3.38c-.07.1-.13.2-.19.3-1.1-.94-2.23-1.81-3.34-2.66a35.82,35.82,0,0,1-6.16-5.58c0-.07.05-.13.08-.19a18.3,18.3,0,0,1,1.22-2.19c.93-1.45,2-2.87,3.1-4.37a25.44,25.44,0,0,0,2.83-4.89,22.58,22.58,0,0,0,1.58-5.42,22.37,22.37,0,0,0-11.3-23.32,21.77,21.77,0,0,1,10,16.15,42.33,42.33,0,0,0-6.82,6.63,40.33,40.33,0,0,0-2.84,3.89c-.23.35-.45.72-.66,1.09.44-1.12.87-2.26,1.27-3.41A25,25,0,0,0,257,172a14.93,14.93,0,0,0-.86-4.6,10.81,10.81,0,0,0-2.44-3.93,10.67,10.67,0,0,1,2.1,4,14.61,14.61,0,0,1,.49,4.5,24.05,24.05,0,0,1-2.3,8.72c-1.21,2.79-2.68,5.5-3.87,8.44a24.09,24.09,0,0,0-2,9.47c-.74-1.09-1.55-2.08-2.29-3.06a20.13,20.13,0,0,1-3.87-7.73,15.1,15.1,0,0,1,.32-8.65,13.19,13.19,0,0,1,5.4-6.94,13.62,13.62,0,0,0-6.06,6.68,16.2,16.2,0,0,0-1.06,9.19,22.14,22.14,0,0,0,3.53,8.68,42.56,42.56,0,0,1,2.32,3.75,8.59,8.59,0,0,1,1.06,3.76,4.78,4.78,0,0,1-.25,1.72,4,4,0,0,1-.86,1.4,20.5,20.5,0,0,1-3.29,2.54,18.29,18.29,0,0,0-2,1.61,17.38,17.38,0,0,0-1.7,1.93,14.59,14.59,0,0,0-2.39,4.68,11.36,11.36,0,0,0-.22,5.57,10.69,10.69,0,0,0,1.32,3.33c3,.24,5.91.49,8.62.75a11.88,11.88,0,0,1-3.72-2.38,6.56,6.56,0,0,1-1.87-6.22,10.6,10.6,0,0,1,1.46-3.49,12.72,12.72,0,0,1,1.18-1.58,14.68,14.68,0,0,1,1.44-1.39,22,22,0,0,0,3.59-3.33,7.27,7.27,0,0,0,1.29-2.56c0-.18.07-.35.1-.53L251,208a43.5,43.5,0,0,1,1.89,4,16.21,16.21,0,0,1,.61,1.95,16.82,16.82,0,0,1,.32,2,15.82,15.82,0,0,1-4.15,12.15,167.07,167.07,0,0,1,17.13,2.51c.38-.29.74-.58,1.1-.9.26.43.54.86.82,1.28H274l.18-.17.22.17h5.68c.08-.17.17-.34.24-.51l.31.51h3.44l.32-.36a13.4,13.4,0,0,0,1.7-2.92c.14-.37.27-.75.38-1.14a7.65,7.65,0,0,0,.67,1.88,8.38,8.38,0,0,0,2.11,2.54h3.66l.49-1.39A7.15,7.15,0,0,1,289.33,227.17Zm-36.26-28.64a11.67,11.67,0,0,0-.09,5.81c-.36-.63-.68-1.26-1-1.89a12.92,12.92,0,0,1-1.08-4,21.82,21.82,0,0,1,1.2-8.59c.08-.26.17-.52.26-.78a10.52,10.52,0,0,0,.14,4,13.71,13.71,0,0,0,1.29,3.4A12.05,12.05,0,0,0,253.07,198.53Zm1.91-4.09a10.47,10.47,0,0,1-.73-1.77,8.82,8.82,0,0,1-.25-4.33,15.38,15.38,0,0,1,1.62-4.26,42.34,42.34,0,0,1,2.49-4,41.91,41.91,0,0,1,6.26-7.05c.05.54.09,1.09.09,1.64a21.37,21.37,0,0,1-2.32,10c-1.5,3.08-4.07,5.5-6.34,8.54C255.52,193.64,255.24,194,255,194.44Zm4.45,29.13a9,9,0,0,1-3.35,4.65,19.61,19.61,0,0,0,1.09-2.54,21.79,21.79,0,0,0,1.12-5.08,20.5,20.5,0,0,0-.21-5.19l0-.17a17.52,17.52,0,0,1,1.53,4.15,6,6,0,0,1,.16,1.09,7.45,7.45,0,0,1,.05,1.05A9,9,0,0,1,259.43,223.57Zm-2.94-19.79a8.71,8.71,0,0,1-.42-3.9A42.94,42.94,0,0,0,261.2,205c1.28,1.15,2.55,2.3,3.7,3.5-.08.24-.17.49-.25.74A23,23,0,0,0,264,218v0a23,23,0,0,0-2.38-5.2C259.68,209.58,257.47,206.79,256.49,203.78ZM265,225.69a14.56,14.56,0,0,1-1.36,1,14.89,14.89,0,0,0,.57-1.83,13.59,13.59,0,0,0,.34-3.31,30.06,30.06,0,0,0,1.1,3.61C265.47,225.32,265.26,225.51,265,225.69Zm4.25-6.54a8.74,8.74,0,0,1-.32,1.14,23.6,23.6,0,0,1-.76-2.89,21.66,21.66,0,0,1-.37-5.19,11.35,11.35,0,0,1,1.37,3.13A8.19,8.19,0,0,1,269.28,219.15Zm8.6,4.19a15.51,15.51,0,0,1-3.18,6.24,22.63,22.63,0,0,1-3.24-4,15,15,0,0,0,2-5.72,12.52,12.52,0,0,0-.54-5.61,15.93,15.93,0,0,0-2.62-4.7c-.48-.61-1-1.17-1.51-1.72.14-.34.3-.67.47-1a22.31,22.31,0,0,1,2.06-3.18l.26-.36c-.06.27-.12.53-.16.8a7.09,7.09,0,0,0-.07,1.3,7.16,7.16,0,0,0,.13,1.3,13.47,13.47,0,0,0,1.93,4.74c.86,1.44,1.81,2.76,2.63,4.08a14.36,14.36,0,0,1,1.8,3.94,7.54,7.54,0,0,1,.23,2A8.81,8.81,0,0,1,277.88,223.34Z"/><path class="cls-3" d="M160,223.71h-.56c61.58.13,111,4.26,111,9.35s-51,9.35-114,9.35-114-4.19-114-9.35,49.44-9.22,111-9.35H153c-73.4.15-132.32,5.08-132.32,11.14S81.44,246,156.47,246s135.84-5,135.84-11.14S233.38,223.86,160,223.71Z"/><path class="cls-4" d="M158.49,223.71h0Z"/><path class="cls-4" d="M154.44,223.71h0Z"/><path class="cls-4" d="M158.92,223.71Z"/><path class="cls-4" d="M154.44,223.71h0Z"/><path class="cls-4" d="M158.49,223.71h0Z"/><path class="cls-4" d="M154.44,223.71h0Z"/><path class="cls-5" d="M251.21,231.48c0,4.29-42.42,7.77-94.74,7.77s-94.75-3.48-94.75-7.77,41.1-7.67,92.29-7.77h-.49c-61.59.13-111,4.26-111,9.35s51,9.35,114,9.35,114-4.19,114-9.35-49.45-9.22-111-9.35h-.5C210.11,223.81,251.21,227.25,251.21,231.48Z"/><path class="cls-6" d="M234.76,230.13c0,3.55-35,6.42-78.29,6.42s-78.3-2.87-78.3-6.42,34-6.34,76.27-6.42H154c-51.19.1-92.29,3.54-92.29,7.77s42.42,7.77,94.75,7.77,94.74-3.48,94.74-7.77-41.1-7.67-92.29-7.77h-.42C200.8,223.79,234.76,226.64,234.76,230.13Z"/><path class="cls-4" d="M78.17,230.13c0,3.55,35.05,6.42,78.3,6.42s78.29-2.87,78.29-6.42-34-6.34-76.26-6.42h-4.06C112.13,223.79,78.17,226.64,78.17,230.13Z"/><path class="cls-7" d="M118.76,131.87a136,136,0,0,0-27.87-5.51,13.36,13.36,0,0,0-11.59,5.13c-4.11,5.27-10.24,15-16.68,32.09L82,167.41,118.63,150Z"/><path class="cls-8" d="M158.64,116.27a187.11,187.11,0,0,0-38.41-7.6,18.39,18.39,0,0,0-16,7.07c-5.65,7.26-14.1,20.73-23,44.23L108,169.23l50.47-28Z"/><path class="cls-7" d="M196.35,131.87a135.84,135.84,0,0,1,27.87-5.51,13.36,13.36,0,0,1,11.59,5.13c4.1,5.27,10.23,15,16.67,32.09l-19.38,3.83L196.48,150Z"/><path class="cls-8" d="M156.47,116.27a187.11,187.11,0,0,1,38.4-7.6,18.39,18.39,0,0,1,16,7.07c5.66,7.26,14.11,20.73,23,44.23l-26.71,9.26-50.48-28Z"/><path class="cls-9" d="M211.47,165H102.6l26.17-48.78a30.08,30.08,0,0,1,26.51-15.86h3.5a30.09,30.09,0,0,1,26.52,15.86Z"/><path class="cls-7" d="M127.74,217.1a139.75,139.75,0,0,1-21.41,3.09,12.16,12.16,0,0,1-8.9-2.88c-3.16-2.95-7.87-8.43-12.81-18l14.89-2.14,28.14,9.76Z"/><path class="cls-10" d="M158.39,225.84a191.53,191.53,0,0,1-29.51,4.26,16.78,16.78,0,0,1-12.28-4c-4.34-4.07-10.84-11.62-17.65-24.79l20.52-5.19,38.78,15.68Z"/><path class="cls-8" d="M158.39,225.84a191.53,191.53,0,0,1-29.51,4.26,16.78,16.78,0,0,1-12.28-4c-4.34-4.07-10.84-11.62-17.65-24.79l20.52-5.19,38.78,15.68Z"/><path class="cls-7" d="M187.36,217.1a140,140,0,0,0,21.41,3.09,12.18,12.18,0,0,0,8.91-2.88c3.15-2.95,7.86-8.43,12.81-18l-14.89-2.14-28.14,9.76Z"/><path class="cls-8" d="M156.72,225.84a191.28,191.28,0,0,0,29.51,4.26c4.74.28,9.35-1.22,12.27-4,4.35-4.07,10.84-11.62,17.66-24.79l-20.53-5.19-38.78,15.68Z"/><path class="cls-11" d="M199,198.52H115.33l20.11,27.34c4,5.48,11.85,8.89,20.37,8.89h2.69c8.52,0,16.34-3.41,20.37-8.89Z"/><path class="cls-9" d="M199,198.52H115.33l20.11,27.34c4,5.48,11.85,8.89,20.37,8.89h2.69c8.52,0,16.34-3.41,20.37-8.89Z"/><path class="cls-12" d="M178.87,217c-4,3.7-11.85,6-20.37,6h-2.69c-8.52,0-16.34-2.3-20.37-6l-20.11-18.48,20.11,27.34c4,5.48,11.85,8.89,20.37,8.89h2.69c8.52,0,16.34-3.41,20.37-8.89L199,198.52Z"/><path d="M227,161.09l-19.16,6.81a14,14,0,0,1-13-1.92l-29.08-21.44a14,14,0,0,0-16.55,0L120.19,166a13.94,13.94,0,0,1-12.94,1.92l-19.16-6.81a14.23,14.23,0,0,0-4.72-.8,19.57,19.57,0,0,0-.26,3.32c5.61,0,10.15,7.78,10.15,17.37s-4.54,17.38-10.15,17.38a16,16,0,0,0,1.07,1.91L90,198.18a24,24,0,0,1,10.37-1,4.32,4.32,0,0,1,1.44.45s15.14,7.81,15.64,7.87a25.21,25.21,0,0,0,9.29-.62,4.11,4.11,0,0,0,.89-.38l20.24-11.26a20.06,20.06,0,0,1,9.61-2.58h.14a20,20,0,0,1,9.61,2.58l20.24,11.26a4.34,4.34,0,0,0,.89.38,25.28,25.28,0,0,0,9.3.62,4.06,4.06,0,0,0,1.43-.46l11.28-5.88a17.91,17.91,0,0,1,10.23-2,19.85,19.85,0,0,1,4.5,1l5.82,2.09a15.41,15.41,0,0,0,1.08-1.91c-5.61,0-10.16-7.78-10.16-17.38s4.55-17.37,10.16-17.37a19.1,19.1,0,0,0-.27-3.32A14.21,14.21,0,0,0,227,161.09Z"/><path class="cls-13" d="M61.54,182.33a7.8,7.8,0,0,1-5.06-13.75l12.86-10.92a21.79,21.79,0,0,1,21.36-3.92l19.16,6.8a6.12,6.12,0,0,0,5.7-.84l29.09-21.44a21.65,21.65,0,0,1,25.81,0l29.08,21.44a6.14,6.14,0,0,0,5.71.84l19.16-6.8a21.8,21.8,0,0,1,21.36,3.92l12.85,10.92a7.8,7.8,0,1,1-10.1,11.89l-12.86-10.92a6.16,6.16,0,0,0-6-1.1l-19.16,6.8a21.74,21.74,0,0,1-20.19-3L161.2,150.82a6.14,6.14,0,0,0-7.29,0l-29.09,21.44a21.72,21.72,0,0,1-20.18,3l-19.17-6.8a6.14,6.14,0,0,0-6,1.1L66.59,180.47A7.78,7.78,0,0,1,61.54,182.33Z"/><path class="cls-14" d="M259.52,173.24a7.8,7.8,0,0,1-11,.9l-12.86-10.92a6.14,6.14,0,0,0-6-1.11l-19.16,6.81a21.74,21.74,0,0,1-20.19-3L161.2,144.49a6.11,6.11,0,0,0-7.29,0l-29.09,21.44a21.72,21.72,0,0,1-20.18,3l-19.17-6.81a6.14,6.14,0,0,0-6,1.11L66.59,174.14a7.79,7.79,0,0,1-11-.9,7.32,7.32,0,0,1-1.18-1.88,7.8,7.8,0,0,0,12.18,9.11l12.85-10.92a6.14,6.14,0,0,1,6-1.1l19.17,6.8a21.72,21.72,0,0,0,20.18-3l29.09-21.44a6.14,6.14,0,0,1,7.29,0l29.08,21.44a21.74,21.74,0,0,0,20.19,3l19.16-6.8a6.16,6.16,0,0,1,6,1.1l12.86,10.92a7.8,7.8,0,0,0,12.18-9.11A7.9,7.9,0,0,1,259.52,173.24Z"/><ellipse class="cls-15" cx="143.56" cy="173.3" rx="9.61" ry="10.74"/><ellipse class="cls-15" cx="170.75" cy="174.5" rx="9.61" ry="7.71"/><circle class="cls-16" cx="146.66" cy="174.08" r="4.85"/><circle class="cls-15" cx="146.66" cy="171" r="1.77"/><circle class="cls-16" cx="166.27" cy="174.45" r="3.14"/><circle class="cls-15" cx="166.27" cy="172.68" r="1.37"/><path class="cls-13" d="M193.79,213.48c-.69,0-1.39,0-2.08-.09l-.24,0a24.41,24.41,0,0,1-9.63-3L163.26,200a11.34,11.34,0,0,0-5.08-1.48q-.63,0-1.26,0a11.3,11.3,0,0,0-5.07,1.48l-18.58,10.34a24.5,24.5,0,0,1-9.64,3h-.24a24.89,24.89,0,0,1-13.63-2.77l-11-5.72a16,16,0,0,0-6.16.63L82.2,209.28a7.81,7.81,0,0,1-5.28-14.69l10.45-3.75a31.64,31.64,0,0,1,13.91-1.37,11.94,11.94,0,0,1,4.13,1.28l11.57,6a9.27,9.27,0,0,0,5.09,1.06h.12a9,9,0,0,0,3.49-1.13l18.58-10.34a27.1,27.1,0,0,1,12.15-3.44c.76,0,1.53,0,2.28,0a27.14,27.14,0,0,1,12.16,3.44l18.57,10.34a9,9,0,0,0,3.49,1.13h.18a9.29,9.29,0,0,0,5-1.07l8.63-4.5a25.68,25.68,0,0,1,14.69-2.84,27.5,27.5,0,0,1,6.29,1.4l10.44,3.75a7.8,7.8,0,1,1-5.27,14.69l-10.44-3.75a12.76,12.76,0,0,0-2.72-.58,10.17,10.17,0,0,0-5.78,1.17l-8.62,4.5A25,25,0,0,1,193.79,213.48Z"/><path class="cls-14" d="M232.91,202.6l-10.44-3.75a12.76,12.76,0,0,0-2.72-.58,10.17,10.17,0,0,0-5.78,1.17l-8.62,4.5a25,25,0,0,1-11.56,2.86c-.69,0-1.39,0-2.08-.09l-.24,0a24.41,24.41,0,0,1-9.63-3l-18.58-10.34a11.34,11.34,0,0,0-5.08-1.48h-1.26a11.3,11.3,0,0,0-5.07,1.48l-18.58,10.34a24.5,24.5,0,0,1-9.64,3h-.24a24.89,24.89,0,0,1-13.63-2.77l-11-5.72a16,16,0,0,0-6.16.63L82.2,202.6a7.8,7.8,0,0,1-9.69-4,7.81,7.81,0,0,0,9.69,10.69l10.44-3.75a16,16,0,0,1,6.16-.63l11,5.72a24.89,24.89,0,0,0,13.63,2.77h.24a24.5,24.5,0,0,0,9.64-3L151.85,200a11.3,11.3,0,0,1,5.07-1.48q.63,0,1.26,0a11.34,11.34,0,0,1,5.08,1.48l18.58,10.34a24.41,24.41,0,0,0,9.63,3l.24,0c.69.06,1.39.09,2.08.09a25,25,0,0,0,11.56-2.86l8.62-4.5a10.17,10.17,0,0,1,5.78-1.17,12.76,12.76,0,0,1,2.72.58l10.44,3.75a7.81,7.81,0,0,0,9.69-10.69A7.81,7.81,0,0,1,232.91,202.6Z"/><path class="cls-17" d="M176.89,111.12c0,4.54-8.66-.45-19.34-.45s-19.33,5-19.33.45,8.66-9.25,19.33-9.25S176.89,106.58,176.89,111.12Z"/><ellipse class="cls-9" cx="104.27" cy="127.66" rx="18.4" ry="4.05" transform="translate(-59.48 146.5) rotate(-57.32)"/><ellipse class="cls-8" cx="78.6" cy="138.92" rx="11.31" ry="2.49" transform="translate(-80.77 130.08) rotate(-57.32)"/><ellipse class="cls-9" cx="210.84" cy="127.66" rx="4.05" ry="18.4" transform="translate(-35.55 134.04) rotate(-32.68)"/><ellipse class="cls-8" cx="236.5" cy="138.92" rx="2.49" ry="11.31" transform="translate(-37.57 149.68) rotate(-32.68)"/><rect class="cls-18" width="311.66" height="295.96"/></g></g></svg>