<svg xmlns="http://www.w3.org/2000/svg" xmlns:xlink="http://www.w3.org/1999/xlink" viewBox="0 0 277.72 366.6"><defs><style>.cls-1{fill:#4a6984;}.cls-2{fill:#113352;}.cls-3{fill:#f7c0b4;}.cls-4{fill:#d8a198;}.cls-5{fill:#a27972;}.cls-6{fill:#3371bf;}.cls-7{fill:#5c8dcc;}.cls-8{fill:#26558f;}.cls-11,.cls-19,.cls-22,.cls-8{opacity:0.5;}.cls-9{fill:#6c514c;}.cls-10{fill:#8c6762;}.cls-11{fill:#513d39;}.cls-12{fill:#897470;opacity:0.35;}.cls-13{fill:#e2dcdb;}.cls-14{fill:#fff;}.cls-15{fill:#9d9d9c;}.cls-16{fill:#878787;}.cls-17{fill:#c5f0ff;}.cls-18{fill:url(#Безымянный_градиент_20);}.cls-20{fill:#66c5ee;}.cls-21{fill:#f59e66;}.cls-22,.cls-23{fill:#b8774d;}.cls-24{fill:#ffd3cc;}.cls-25{fill:#f7b185;}.cls-26{fill:#362926;}.cls-27{fill:#aaa5a4;}</style><linearGradient id="Безымянный_градиент_20" x1="112.32" y1="87.25" x2="127.26" y2="70.07" gradientUnits="userSpaceOnUse"><stop offset="0" stop-color="#f2918b"/><stop offset="0.35" stop-color="#f4a89f"/><stop offset="0.73" stop-color="#f6baae"/><stop offset="1" stop-color="#f7c0b4"/></linearGradient></defs><title>password-recovery</title><g id="Layer_2" data-name="Layer 2"><g id="back"><circle class="cls-1" cx="138.86" cy="138.86" r="138.86"/><ellipse class="cls-2" cx="142.26" cy="359.68" rx="118.26" ry="6.93"/></g><g id="finger_:_" data-name="finger :)"><path class="cls-3" d="M74.23,49.77s3.51-2.62,3.49-4.09-1.42-9.54-.71-17,1.91-8,11.35-8.21,24.72,3.25,27.06,4-1.56,6.72-6.83,6.76-7.26-.09-7.26-.09,1.59,5.43-1.84,7.48c0,0,1,4.53-3.23,6.05a11,11,0,0,1-7.9-.24s.78,5.3-3.36,5.74l-4.31,5.52Z"/><path class="cls-4" d="M79.18,22.1c-1.37,1.13-1.83,3.1-2.17,6.61-.71,7.43.69,15.5.71,17s-3.49,4.09-3.49,4.09l6.46,6L85,50.21c3.55-.37,3.48-4.31,3.39-5.44C78.41,41.23,76.87,31.13,79.18,22.1Z"/><path class="cls-4" d="M107.06,29.77l-14.74.13a33.9,33.9,0,0,1,5.85.81,3.4,3.4,0,0,1,2.4,1.4,3.25,3.25,0,0,1,.05,2.26,4.6,4.6,0,0,1-.64,1.57c-.92,1.25-2.72,1.37-4.28,1.38H91.54A12.39,12.39,0,0,1,97,39a1.7,1.7,0,0,1,.73.67,1.39,1.39,0,0,1,.08.76,4.93,4.93,0,0,1-2.09,3.39,8.2,8.2,0,0,1-3.82,1.38c-.25,0-.51.05-.77.06a10.93,10.93,0,0,0,5.15-.51c4.26-1.52,3.23-6.05,3.23-6.05,3.43-2,1.84-7.48,1.84-7.48s2,.14,7.26.09a8.63,8.63,0,0,0,6.6-3.54,7.38,7.38,0,0,1-2.68,1.46A18.42,18.42,0,0,1,107.06,29.77Z"/></g><g id="man"><path class="cls-5" d="M185.83,195.75a5.92,5.92,0,0,1,2.81.22,2.45,2.45,0,0,1,1.64,2.12,3.28,3.28,0,0,1-1.28,2.25,13.17,13.17,0,0,1-7.63,3.4,2.63,2.63,0,0,1-1.28-.12c-.9-.41-1.11-1.59-1.13-2.58C178.84,196.64,182.22,196.14,185.83,195.75Z"/><path class="cls-3" d="M133,349a4.65,4.65,0,0,1-2.36,6.46c-2.89,1.38-6.28.95-9.42.36-2.83-.54-5.78-1.25-7.91-3.18s-3.07-5.48-1.28-7.73c1.33-1.7,3.67-2.16,5.8-2.46,2.69-.38,7-1.7,9.65-.68C129.77,342.7,132.15,346.84,133,349Z"/><path class="cls-3" d="M156.18,348.13a17.17,17.17,0,0,0-.77,2.53,5.55,5.55,0,0,0,.53,4.49,4.37,4.37,0,0,0,2.56,1.5,12.6,12.6,0,0,0,3,.19,25.17,25.17,0,0,0,6.76-.79,4.06,4.06,0,0,0,1.73-.91c.94-.94,1-2.43.85-3.75-.08-1-.2-2-.36-3a14.65,14.65,0,0,0-1.2-4.23,6.54,6.54,0,0,0-3-3.1c-2-.93-4.68-.5-6.68.37-1.5.66-1.79,1.56-2.12,3.08A24.11,24.11,0,0,1,156.18,348.13Z"/><path class="cls-6" d="M172,222.39c-2.95-18.94-64.75-30.23-64.91,4.38,0,0,6.6,95.5,11.25,116.25h11.67a128.94,128.94,0,0,0,2.31-15.89c2.85-29.9,3.08-77.06,4.31-79.75s3.05-2.58,5.59,10,14.13,86.16,14.13,86.16l13.12-.62S175,241.34,172,222.39Z"/><path class="cls-7" d="M107.13,226.77s6.6,95.5,11.25,116.25H122l-9.57-130.59C109.15,215.9,107.16,220.6,107.13,226.77Z"/><path class="cls-8" d="M172,222.39c-1.81-11.61-25.71-20.33-44-17.39l-.83,3.61c49.25,25.78,38.65,86.87,36.77,134.55l5.52-.26S175,241.34,172,222.39Z"/><path class="cls-9" d="M124.58,112.42S73.07,93.11,68.3,91.57l-.43-5L63.2,88.18A113.8,113.8,0,0,1,86.1,57.29L70.61,45.08S47.73,76.83,41.32,84.2,35,95.58,43.73,100.31,118,134,118,134Z"/><path class="cls-10" d="M88.87,57.44,69.93,42.51s-5.05,7-11.45,15.74L76.72,70.74A143.93,143.93,0,0,1,88.87,57.44Z"/><path class="cls-11" d="M124.58,112.42l-5.29-2C113.74,120.59,102.39,123.6,91,122,105.67,128.53,118,134,118,134Z"/><path class="cls-9" d="M120.53,107.68S97,158.13,105.24,228.18c0,0,45,13.59,72.32-4.59,0,0-18.41-42.9-7.55-100.63,0,0,22.51,16.35,29.33,23.07s8.17,6.29-27.3,28.69c0,0,9.15,15.62,11.14,23.25,0,0,33.66-20.16,45.44-49.72,0,0-18.06-18.13-35.82-32s-25.21-9-38.42-5.65S120.53,107.68,120.53,107.68Z"/><path class="cls-12" d="M120.86,107.77l-.33-.09S97,158.13,105.24,228.18a121.36,121.36,0,0,0,13.22,2.95C104.85,190.75,108,147,120.86,107.77Z"/><path class="cls-13" d="M155.08,110.38l-.7.18c-9.13,2.3-21.78,0-28.74-1.56l9.22,40.76Z"/><path class="cls-14" d="M154.38,110.56c-9.13,2.3-21.78,0-28.74-1.56l3.57,15.77c2.07-2.73,5-4.38,8.4-5.85,3.6,2.15,6.95,5.52,8.26,9.39l9.21-17.93Z"/><path class="cls-3" d="M137.51,21.19c-10.82-.15-26.5,6.66-32.83,24.5s-2,41.26,4.11,54.46S132,121,153.4,113.92,176.86,82,176,64.36,168.43,21.6,137.51,21.19Z"/><path class="cls-4" d="M176,64.36c-.63-12.8-4.32-29.48-18.06-37.87,9.49,9,12.29,22.88,12.83,33.88.87,17.67-1.14,42.44-22.59,49.55-13.61,4.52-25.43,3.07-33.82-2,8.28,8,22.31,11.5,39,6C174.86,106.8,176.86,82,176,64.36Z"/><path class="cls-15" d="M149.61,32.39c0,.18,11.26,6.19,20.09,28.78l15.1-7.09s.56-14.29-10.89-24S149.61,32.39,149.61,32.39Z"/><path class="cls-16" d="M175,31.07c2.48,3.91,3.1,8.38,1,11.94-8.48,12.72-15.94-7.09-26.29-10.67l-.06,0c0,.18,11.26,6.19,20.09,28.78l15.1-7.09S185.32,40.7,175,31.07Z"/><path class="cls-3" d="M169.16,61.41a9.3,9.3,0,0,1,1.7-6.7,12.26,12.26,0,0,1,5.58-4.2,9.58,9.58,0,0,1,4.48-.69A8.29,8.29,0,0,1,186.31,53a12.34,12.34,0,0,1,2.39,5.88,14.86,14.86,0,0,1-2.15,10.27,9.77,9.77,0,0,1-3.7,3.41,11.64,11.64,0,0,1-5.9.9c-2.66-.19-5.42-.9-7.33-2.75"/><path class="cls-4" d="M188.7,58.88A12.34,12.34,0,0,0,186.31,53a8.79,8.79,0,0,0-3.59-2.71c3,4,4.72,8.31,3.18,13.71-2.16,5.41-9.64,9.75-16.17,6.79a13.67,13.67,0,0,0,13.12,1.77,9.77,9.77,0,0,0,3.7-3.41A14.86,14.86,0,0,0,188.7,58.88Z"/><path class="cls-9" d="M174,59.57a7.43,7.43,0,0,1,4.85-2.83,3.46,3.46,0,0,1,3.22.95,4.38,4.38,0,0,1,.56,3.1,2.6,2.6,0,0,0-2.27-2.41,5.69,5.69,0,0,0-3.46.78,9.4,9.4,0,0,0-4.36,4.57A6.92,6.92,0,0,1,174,59.57Z"/><path class="cls-15" d="M129.31,45a24.68,24.68,0,0,1,15.95,4s2.27-3.51-2.87-7.92S128.54,38.51,129.31,45Z"/><path class="cls-15" d="M114.49,46.6a24.71,24.71,0,0,0-14.6,7.57s-3-2.89,1-8.37S113.74,40.14,114.49,46.6Z"/><ellipse class="cls-17" cx="106.85" cy="67.94" rx="11.47" ry="14.22" transform="translate(-15.96 37.11) rotate(-18.36)"/><ellipse class="cls-14" cx="105.79" cy="64.74" rx="8.75" ry="10.84" transform="translate(-15 36.61) rotate(-18.36)"/><path class="cls-18" d="M114.83,59.26c2.6,3.43,6.38,12,7.34,16.15a1.08,1.08,0,0,1,0,.83,1.06,1.06,0,0,1-.53.39c-1.07.48-7.07,1.33-8.8,2a1.5,1.5,0,0,0-.73.46,1.54,1.54,0,0,0-.24.82,13,13,0,0,0,4.35,10.75,12,12,0,0,0,3.24,2,11,11,0,0,0,15.16-8.76"/><g class="cls-19"><path class="cls-9" d="M114.83,59.26A42.58,42.58,0,0,1,119,66.4a57.22,57.22,0,0,1,3.13,7.7c.11.33.19.67.28,1a1.81,1.81,0,0,1,0,1.26,1.26,1.26,0,0,1-.53.5,3.49,3.49,0,0,1-.53.22c-.35.11-.69.2-1,.28-1.36.32-2.72.57-4.07.84l-2,.43c-.33.08-.65.16-1,.26a2.75,2.75,0,0,0-.8.33c-.27.13-.25,1-.27,1.59a12,12,0,0,0,.15,2,13.11,13.11,0,0,0,3.56,7,11,11,0,0,0,7.06,3.3,10.64,10.64,0,0,0,7.5-2.29,11.26,11.26,0,0,0,4.05-6.89,11.15,11.15,0,0,1-3.72,7.29A11.3,11.3,0,0,1,123,93.9a11.67,11.67,0,0,1-7.66-3.45,13.38,13.38,0,0,1-3.87-7.5,14,14,0,0,1-.14-2.15c0-.36,0-.71.06-1.07a2.38,2.38,0,0,1,.15-.63,1.4,1.4,0,0,1,.45-.6,3.54,3.54,0,0,1,1.1-.48l1-.25c.69-.15,1.37-.28,2-.41l4.06-.76c.33-.06.66-.13,1-.22s.62-.23.65-.34a1.27,1.27,0,0,0-.06-.77c-.08-.33-.16-.66-.25-1a64.66,64.66,0,0,0-2.87-7.72A46.2,46.2,0,0,0,114.83,59.26Z"/></g><path class="cls-20" d="M146.63,60.26C149.1,67.72,143,76.45,137,78.45s-9.63-3.51-12.11-11-2.24-14.23,3.77-16.22S144.15,52.81,146.63,60.26Z"/><ellipse class="cls-17" cx="132.71" cy="64.88" rx="11.47" ry="14.22" transform="translate(-13.68 45.1) rotate(-18.36)"/><ellipse class="cls-14" cx="131.65" cy="61.68" rx="8.75" ry="10.84" transform="translate(-12.72 44.6) rotate(-18.36)"/><polygon class="cls-20" points="112.73 56.51 124.73 53.48 121.56 59.13 115.91 60.47 112.73 56.51"/><circle cx="106.23" cy="58.73" r="2.78"/><circle cx="130.12" cy="55.45" r="2.78"/><path class="cls-20" d="M138.39,52.49,146,51.37l.89,3.19,27.58-3.11s-3.56,2-4.43,4.58L145,60.32"/><path class="cls-9" d="M128.86,101.52a3.3,3.3,0,0,0,.43,3.14,2.9,2.9,0,0,0,2.61,1.09,5.48,5.48,0,0,0,2.62-1.52,7.23,7.23,0,0,0,1.07-1.15,7.31,7.31,0,0,0,.78-1.39,13.34,13.34,0,0,1,.89-1.63,4.81,4.81,0,0,1,1.45-1.46,5.64,5.64,0,0,1,3.86-.8,5.75,5.75,0,0,1,4.69,5.21,5.83,5.83,0,0,0-4.83-3.92,4.51,4.51,0,0,0-2.84.81,5.49,5.49,0,0,0-1.73,2.51,8.94,8.94,0,0,1-1,1.65,7.67,7.67,0,0,1-1.36,1.37,11.6,11.6,0,0,1-1.57,1,4.18,4.18,0,0,1-2,.55,3.76,3.76,0,0,1-3.37-1.94A3.41,3.41,0,0,1,128.86,101.52Z"/><path class="cls-21" d="M160.25,353.94s-1.88-27,19.16-25.27,19.24,26.24,19.24,26.24Z"/><path class="cls-22" d="M192.8,335.08c2.43,6.15.13,13.13-4.69,15.06-9.19,5.1-24,1.71-26.23-9.31a39.38,39.38,0,0,0-1.63,13.11l38.4,1S199.52,342.88,192.8,335.08Z"/><rect class="cls-23" x="150.37" y="353.96" width="50.51" height="5.72" rx="1.71"/><path class="cls-21" d="M120.9,353.94s1.88-27-19.16-25.27S82.5,354.91,82.5,354.91Z"/><path class="cls-22" d="M115.87,334.22a16.6,16.6,0,0,1-1.78,11.5c-5.52,6.63-13.25,6.63-21,5.52a15,15,0,0,1-9-8.27,35.24,35.24,0,0,0-1.56,11.94l38.4-1S121.74,341.69,115.87,334.22Z"/><rect class="cls-23" x="80.27" y="353.96" width="59.75" height="5.72" rx="1.86" transform="translate(220.29 713.64) rotate(-180)"/><path class="cls-11" d="M205.18,145.51c-7.37-7.37-38-27.95-38-27.95S155.09,145.75,156.45,174s12.62,54.06,12.62,54.06a48.46,48.46,0,0,0,8.49-4.47S159.15,180.69,170,123c0,0,22.51,16.35,29.33,23.07s8.17,6.29-27.3,28.69c0,0,.63,1.08,1.59,2.81C204.64,161.54,212.21,152.54,205.18,145.51Z"/><path class="cls-24" d="M119.75,28.85a10.78,10.78,0,0,0-3.24,3.35c-.57,1-.75,2.52.22,3.16a2.63,2.63,0,0,0,1.39.31,22.89,22.89,0,0,0,9.15-1.82,11,11,0,0,0,4.93-3.41c1.06-1.47,1.38-3.75,0-5a4.24,4.24,0,0,0-2.83-.84C126.11,24.6,122.34,27,119.75,28.85Z"/><ellipse class="cls-25" cx="103.2" cy="332.83" rx="7.86" ry="3.44"/><ellipse class="cls-25" cx="177.71" cy="332.83" rx="7.86" ry="3.44"/><path class="cls-10" d="M170.62,172.27s10.94,18.44,12.56,25.7c0,0,10.18-4,14-7,0,0-6.63-18-12.06-25.51Z"/><path class="cls-3" d="M180.79,202.22s2.13-1.22,1.91-5.86c-2-6.12-7.19-15.51-9.5-19.61a35.07,35.07,0,0,0-5.48,4.32,31.26,31.26,0,0,0-5.24,6.53c-4.42,7.45-4.32,13.35.6,19.15,2,2.32,5.87,3.54,10.2,3.9,6.47.53,13.91-.88,17.31-3.5C196.27,202.79,191.64,197.78,180.79,202.22Z"/><path class="cls-4" d="M180.79,202.22s2.13-1.22,1.91-5.86a105.64,105.64,0,0,0-6.52-14.16c3,6.29,4.63,13.13-.22,18.79-5.38,4.49-13.68,3.14-16.61-2.25a14.69,14.69,0,0,0,3.73,8c2,2.32,5.87,3.54,10.2,3.9,6.47.53,13.91-.88,17.31-3.5C196.27,202.79,191.64,197.78,180.79,202.22Z"/><circle class="cls-26" cx="134.99" cy="153.95" r="1.84"/><circle class="cls-26" cx="134.59" cy="161.4" r="1.84"/><circle class="cls-27" cx="136.83" cy="124.64" r="1.64"/><circle class="cls-27" cx="135.85" cy="135.59" r="1.64"/></g></g></svg>