<svg xmlns="http://www.w3.org/2000/svg" viewBox="0 0 235.11 180.14"><defs><style>.cls-1{isolation:isolate;}.cls-2{fill:#113352;}.cls-3{fill:#1d263a;}.cls-4{fill:#3a4c74;}.cls-5{fill:#ededed;mix-blend-mode:multiply;}.cls-6{fill:#8495c0;}.cls-7{fill:#9aafd6;}.cls-8{fill:#91a5ce;}.cls-9{fill:#9db5e0;}.cls-10{fill:#aec0e5;}.cls-11{fill:#fff;}.cls-12{fill:#2c3957;}.cls-13{fill:#1b2f4c;}.cls-14{fill:#59686e;}.cls-15{fill:#5c739b;}.cls-16{fill:#aec7e5;}.cls-17{fill:#626264;}</style></defs><title>safe-locker</title><g class="cls-1"><g id="Layer_2" data-name="Layer 2"><g id="shade"><ellipse class="cls-2" cx="117.56" cy="164.56" rx="117.56" ry="15.57"/></g><g id="safe"><path class="cls-3" d="M116,162.71v11.52c0,.64,3.29,1.15,7.36,1.15s7.35-.51,7.35-1.15V162.71Z"/><path class="cls-3" d="M185.42,152.51V162c0,.52,2.71.95,6.06.95s6.05-.43,6.05-.95v-9.48Z"/><path class="cls-3" d="M34.1,154.2V162c0,.43,2.22.77,5,.77S44,162.39,44,162V154.2Z"/><path class="cls-4" d="M124.7,0V171l75.84-12.2s6.3-96.77,9.71-127.4Z"/><path class="cls-5" d="M124.7,160.46V171l75.84-12.2s3-60.65,6.38-91.29Z"/><path class="cls-6" d="M197.71,155.63l-73,14.64V171l75.84-12.2s6.3-96.77,9.71-127.4l-.73-.27C205.69,67.58,197.71,155.63,197.71,155.63Z"/><path class="cls-6" d="M124.7,0S55.07,21.08,17.12,29c0,0,12.13,99.23,13.59,129.49l94,12.49Z"/><path class="cls-7" d="M124.7,0S55.07,21.08,17.12,29c0,0,10.09,82.54,13,120L124.7,36.83Z"/><path class="cls-4" d="M114.53,16.16s-52.78,14-87.24,23.5c0,0,7.27,74.79,11,105l76.22,10.13Z"/><path class="cls-8" d="M114.53,19.37S63.6,32.71,30.34,41.79c0,0,7,71.32,10.63,100.14l73.56,9.66Z"/><path class="cls-9" d="M114.53,19.37S63.6,32.71,30.34,41.79c0,0,7,71.32,10.63,100.14l11.71,1.54,61.85-74.13Z"/><path class="cls-4" d="M113.51,120.47a37.54,37.54,0,0,0-5,.34V138.6h0c0,.47,2.25.85,5,.85s5-.38,5-.85V120.81A37.8,37.8,0,0,0,113.51,120.47Z"/><path class="cls-6" d="M108.48,120.81V138.6h0c0,.27.75.51,1.91.66V120.61C109.23,120.7,108.48,120.81,108.48,120.81Z"/><ellipse class="cls-10" cx="113.51" cy="120.81" rx="5.04" ry="0.43"/><path class="cls-4" d="M119.23,65.49V47.7c0-.44-2.25-.79-5-.79s-5,.35-5,.79V65.49Z"/><path class="cls-6" d="M109.16,47.7V65.49H111V47.1C109.88,47.24,109.16,47.45,109.16,47.7Z"/><ellipse class="cls-10" cx="114.19" cy="65.49" rx="5.04" ry="0.86"/><path class="cls-11" d="M23.11,70.34,18.67,29.78s17.11-4.06,42.08-10.41c0,0-28,8.91-39.75,12.52Z"/></g><g id="front"><polygon class="cls-4" points="34.9 76.36 52.69 74.77 54.83 112.1 38.73 112.1 34.9 76.36"/><polygon class="cls-12" points="36.71 77.65 38.08 93.99 53.08 93.27 52.08 76.28 36.71 77.65"/><polygon class="cls-13" points="37.68 77.65 38.97 93.99 53.08 93.27 52.14 76.28 37.68 77.65"/><polygon class="cls-7" points="44.96 101.05 45.33 105.32 49.3 105.22 48.96 100.92 44.96 101.05"/><polygon class="cls-14" points="53.23 100.78 50.69 100.86 51 105.17 54.44 105.08 53.23 100.78"/><polygon class="cls-7" points="39.25 101.23 39.65 105.47 43.46 105.37 43.1 101.11 39.25 101.23"/><polygon class="cls-7" points="39.76 106.65 40.11 110.51 43.88 110.45 43.56 106.58 39.76 106.65"/><polygon class="cls-7" points="45.43 106.54 45.76 110.43 49.71 110.36 49.4 106.46 45.43 106.54"/><polygon class="cls-7" points="54.81 106.36 51.09 106.43 51.36 110.34 55.92 110.27 54.81 106.36"/><polygon class="cls-7" points="38.73 95.55 39.14 99.97 42.99 99.85 42.62 95.35 38.73 95.55"/><polygon class="cls-7" points="44.47 95.25 44.86 99.79 48.86 99.67 48.49 95.05 44.47 95.25"/><polygon class="cls-14" points="51.56 94.89 50.27 94.96 50.6 99.62 52.88 99.55 51.56 94.89"/><polygon class="cls-14" points="48.49 95.05 48.86 99.67 50.6 99.62 50.27 94.96 48.49 95.05"/><path class="cls-4" d="M90.91,89.71c0-3.88-2.16-7-4.87-7.16H66.79V96.87H86C88.75,96.74,90.91,93.59,90.91,89.71Z"/><path class="cls-12" d="M66.79,94.89v2H86a4.44,4.44,0,0,0,3.3-2Z"/><path class="cls-4" d="M66.79,96.06v.81H86a3.9,3.9,0,0,0,2.15-.81Z"/><path class="cls-15" d="M86,82.55H66.79v4.35H90.5C89.75,84.41,88.05,82.65,86,82.55Z"/><path class="cls-16" d="M88.53,83.64H66.79v2.17H90.08A6.55,6.55,0,0,0,88.53,83.64Z"/><path class="cls-17" d="M54.29,89.71c0-9.24,5-16.84,11.28-17.71a3.42,3.42,0,0,0-1.23-.09c-8.13,1.69-11.65,8-11.65,17.8s4.14,16.92,11.65,17.8a4.64,4.64,0,0,0,1.23-.09C59.24,106.54,54.29,99,54.29,89.71Z"/><polygon class="cls-12" points="60.7 70.95 65.79 87.64 74.67 67.13 60.7 70.95"/><polygon class="cls-12" points="65.33 89.97 49.3 92.47 52.57 106.4 65.33 89.97"/><polygon class="cls-12" points="66.49 89.73 82.1 100.38 74.83 109.53 66.49 89.73"/><path class="cls-4" d="M66.79,61.45C55.83,61.45,47,74.1,47,89.71S55.83,118,66.79,118s19.84-12.66,19.84-28.26S77.75,61.45,66.79,61.45Zm0,46.06c-6.9,0-12.5-8-12.5-17.8s5.6-17.8,12.5-17.8,12.5,8,12.5,17.8S73.69,107.51,66.79,107.51Z"/><path class="cls-16" d="M61.85,62.34C53.28,65.46,47,76.53,47,89.71c0,9.63,3.39,18.14,8.56,23.24-4.54-5.35-7.45-13.57-7.45-22.8C48.06,77.13,53.85,66.1,61.85,62.34Z"/><path class="cls-12" d="M54.29,89.71c0-9.36,5.08-17,11.53-17.73a7.91,7.91,0,0,0-1-.07c-6.91,0-12.5,8-12.5,17.8s5.59,17.8,12.5,17.8c.32,0,.65,0,1-.07C59.37,106.73,54.29,99.07,54.29,89.71Z"/><path class="cls-12" d="M66.79,61.45c-.41,0-.82,0-1.22.06,10.38.9,18.61,13.18,18.61,28.2S76,117,65.57,117.91c.4,0,.81.06,1.22.06,11,0,19.84-12.66,19.84-28.26S77.75,61.45,66.79,61.45Z"/><ellipse class="cls-12" cx="66.79" cy="89.71" rx="5.03" ry="7.17"/><path class="cls-4" d="M65.86,83.14c-2.41,0-6.47,2.94-6.47,6.57s4.06,6.57,6.47,6.57,4.35-2.94,4.35-6.57S68.26,83.14,65.86,83.14Z"/><path class="cls-15" d="M61.94,86.79c-.84,0-2.25,1.31-2.25,2.92s1.41,2.92,2.25,2.92,1.5-1.31,1.5-2.92S62.77,86.79,61.94,86.79Z"/><ellipse class="cls-16" cx="40.42" cy="63.65" rx="5.55" ry="7.45"/><ellipse class="cls-11" cx="39.83" cy="63.65" rx="4.95" ry="6.65"/><path class="cls-13" d="M42.27,67.24,40.69,63.8a2.81,2.81,0,0,0,.93-2.16A2.41,2.41,0,0,0,39.5,59a2.41,2.41,0,0,0-2.12,2.61A2.7,2.7,0,0,0,38.55,64l-.71,3.76Z"/></g></g></g></svg>