<svg xmlns="http://www.w3.org/2000/svg" xmlns:xlink="http://www.w3.org/1999/xlink" viewBox="0 0 412.92 422.69"><defs><style>.cls-1{fill:url(#Безымянный_градиент_8);}.cls-2{fill:url(#Безымянный_градиент_8-2);}.cls-3{fill:url(#Безымянный_градиент_8-3);}.cls-4{fill:url(#Безымянный_градиент_8-4);}.cls-5{fill:url(#Безымянный_градиент_8-5);}.cls-6{fill:url(#Безымянный_градиент_8-6);}.cls-7{fill:url(#Безымянный_градиент_8-7);}.cls-8{fill:url(#Безымянный_градиент_8-8);}.cls-9{fill:url(#Безымянный_градиент_8-9);}.cls-10{fill:url(#Безымянный_градиент_8-10);}.cls-11{fill:url(#Безымянный_градиент_8-11);}.cls-12{fill:url(#Безымянный_градиент_8-12);}.cls-13{fill:url(#Безымянный_градиент_8-13);}.cls-14{fill:url(#Безымянный_градиент_8-14);}.cls-15{fill:url(#Безымянный_градиент_8-15);}.cls-16{fill:url(#Безымянный_градиент_8-16);}.cls-17{fill:url(#Безымянный_градиент_8-17);}.cls-18{fill:url(#Безымянный_градиент_8-18);}.cls-19{fill:url(#Безымянный_градиент_8-19);}.cls-20{fill:url(#Безымянный_градиент_8-20);}.cls-21{fill:url(#Безымянный_градиент_8-21);}.cls-22{fill:url(#Безымянный_градиент_8-22);}.cls-23{fill:url(#Безымянный_градиент_8-23);}.cls-24{fill:url(#Безымянный_градиент_8-24);}.cls-25{fill:url(#Безымянный_градиент_8-25);}.cls-26{fill:url(#Безымянный_градиент_8-26);}.cls-27{fill:url(#Безымянный_градиент_8-27);}.cls-28{fill:url(#Безымянный_градиент_8-28);}.cls-29{fill:url(#Безымянный_градиент_8-29);}.cls-30{fill:url(#Безымянный_градиент_8-30);}.cls-31{fill:url(#Безымянный_градиент_8-31);}.cls-32{fill:url(#Безымянный_градиент_8-32);}.cls-33{fill:url(#Безымянный_градиент_8-33);}.cls-34{fill:url(#Безымянный_градиент_8-34);}.cls-35{fill:url(#Безымянный_градиент_8-35);}.cls-36{fill:url(#Безымянный_градиент_8-36);}.cls-37{fill:url(#Безымянный_градиент_8-37);}.cls-38{fill:url(#Безымянный_градиент_8-38);}.cls-39{fill:url(#Безымянный_градиент_8-39);}.cls-40{fill:url(#Безымянный_градиент_8-40);}.cls-41{fill:url(#Безымянный_градиент_8-41);}.cls-42{fill:url(#Безымянный_градиент_8-42);}.cls-43{fill:url(#Безымянный_градиент_8-43);}.cls-44{fill:url(#Безымянный_градиент_8-44);}.cls-45{fill:url(#Безымянный_градиент_8-45);}.cls-46{fill:url(#Безымянный_градиент_8-46);}.cls-47{fill:url(#Безымянный_градиент_8-47);}.cls-48{fill:url(#Безымянный_градиент_8-48);}.cls-49{fill:url(#Безымянный_градиент_8-49);}.cls-50{fill:url(#Безымянный_градиент_8-50);}.cls-51{fill:url(#Безымянный_градиент_8-51);}.cls-52{fill:url(#Безымянный_градиент_8-52);}.cls-53{fill:url(#Безымянный_градиент_8-53);}.cls-54{fill:url(#Безымянный_градиент_8-54);}.cls-55{fill:url(#Безымянный_градиент_8-55);}.cls-56{fill:url(#Безымянный_градиент_8-56);}.cls-57{fill:url(#Безымянный_градиент_8-57);}.cls-58{fill:url(#Безымянный_градиент_8-58);}.cls-59{fill:url(#Безымянный_градиент_8-59);}.cls-60{fill:url(#Безымянный_градиент_8-60);}.cls-61{fill:url(#Безымянный_градиент_8-61);}.cls-62{fill:url(#Безымянный_градиент_8-62);}.cls-63{fill:url(#Безымянный_градиент_8-63);}.cls-64{fill:url(#Безымянный_градиент_8-64);}.cls-65{fill:url(#Безымянный_градиент_8-65);}.cls-66{fill:url(#Безымянный_градиент_8-66);}.cls-67{fill:url(#Безымянный_градиент_8-67);}.cls-68{fill:url(#Безымянный_градиент_8-68);}.cls-69{fill:url(#Безымянный_градиент_8-69);}.cls-70{fill:url(#Безымянный_градиент_8-70);}.cls-71{fill:url(#Безымянный_градиент_8-71);}.cls-72{fill:url(#Безымянный_градиент_8-72);}.cls-73{fill:url(#Безымянный_градиент_8-73);}.cls-74{fill:url(#Безымянный_градиент_8-74);}.cls-75{fill:url(#Безымянный_градиент_8-75);}.cls-76{fill:url(#Безымянный_градиент_8-76);}.cls-77{fill:url(#Безымянный_градиент_8-77);}.cls-78{fill:url(#Безымянный_градиент_8-78);}.cls-79{fill:url(#Безымянный_градиент_8-79);}.cls-80{fill:url(#Безымянный_градиент_8-80);}.cls-81{fill:url(#Безымянный_градиент_8-81);}.cls-82{fill:url(#Безымянный_градиент_8-82);}.cls-83{fill:url(#Безымянный_градиент_8-83);}.cls-84{fill:url(#Безымянный_градиент_8-84);}.cls-85{fill:url(#Безымянный_градиент_8-85);}.cls-86{fill:url(#Безымянный_градиент_8-86);}.cls-87{fill:url(#Безымянный_градиент_8-87);}.cls-88{fill:url(#Безымянный_градиент_8-88);}.cls-89{fill:url(#Безымянный_градиент_8-89);}.cls-90{fill:url(#Безымянный_градиент_8-90);}.cls-91{isolation:isolate;}.cls-92{fill:#8a0079;}.cls-93,.cls-94,.cls-95,.cls-96,.cls-97{fill:#fff292;}.cls-128,.cls-93{opacity:0.05;}.cls-129,.cls-94{opacity:0.2;}.cls-130,.cls-95{opacity:0.3;}.cls-131,.cls-96{opacity:0.6;}.cls-132,.cls-97{opacity:0.8;}.cls-98{fill:#fff899;}.cls-99{fill:#f7ec1e;}.cls-100{fill:#2e0048;}.cls-101{fill:#3d0060;}.cls-102{fill:#f9c91d;}.cls-103{fill:#96121f;}.cls-104{fill:#be272e;}.cls-105,.cls-106{fill:#c6c6c6;}.cls-105,.cls-208{mix-blend-mode:multiply;}.cls-107{fill:#dadada;}.cls-108{fill:#f6f6f6;}.cls-109{fill:#6d0067;}.cls-110{mask:url(#mask);}.cls-111,.cls-128,.cls-129,.cls-130,.cls-131,.cls-132{fill:#fff;}.cls-112{mask:url(#mask-2);}.cls-113{mask:url(#mask-3);}.cls-114{mask:url(#mask-4);}.cls-115{mask:url(#mask-5);}.cls-116{opacity:0.5;}.cls-117{mask:url(#mask-6);}.cls-118{mask:url(#mask-7);}.cls-119{mask:url(#mask-8);}.cls-120{mask:url(#mask-9);}.cls-121{mask:url(#mask-10);}.cls-122{opacity:0.35;}.cls-123{mask:url(#mask-11);}.cls-124{mask:url(#mask-12);}.cls-125{mask:url(#mask-13);}.cls-126{mask:url(#mask-14);}.cls-127{mask:url(#mask-15);}.cls-133{mask:url(#mask-16);}.cls-134{mask:url(#mask-17);}.cls-135{mask:url(#mask-18);}.cls-136{mask:url(#mask-19);}.cls-137{mask:url(#mask-20);}.cls-138{mask:url(#mask-21);}.cls-139{mask:url(#mask-22);}.cls-140{mask:url(#mask-23);}.cls-141{mask:url(#mask-24);}.cls-142{mask:url(#mask-25);}.cls-143{mask:url(#mask-26);}.cls-144{mask:url(#mask-27);}.cls-145{mask:url(#mask-28);}.cls-146{mask:url(#mask-29);}.cls-147{mask:url(#mask-30);}.cls-148{mask:url(#mask-31);}.cls-149{mask:url(#mask-32);}.cls-150{mask:url(#mask-33);}.cls-151{mask:url(#mask-34);}.cls-152{mask:url(#mask-35);}.cls-153{mask:url(#mask-36);}.cls-154{mask:url(#mask-37);}.cls-155{mask:url(#mask-38);}.cls-156{mask:url(#mask-39);}.cls-157{mask:url(#mask-40);}.cls-158{mask:url(#mask-41);}.cls-159{mask:url(#mask-42);}.cls-160{mask:url(#mask-43);}.cls-161{mask:url(#mask-44);}.cls-162{mask:url(#mask-45);}.cls-163{mask:url(#mask-46);}.cls-164{mask:url(#mask-47);}.cls-165{mask:url(#mask-48);}.cls-166{mask:url(#mask-49);}.cls-167{mask:url(#mask-50);}.cls-168{mask:url(#mask-51);}.cls-169{mask:url(#mask-52);}.cls-170{mask:url(#mask-53);}.cls-171{mask:url(#mask-54);}.cls-172{mask:url(#mask-55);}.cls-173{mask:url(#mask-56);}.cls-174{mask:url(#mask-57);}.cls-175{mask:url(#mask-58);}.cls-176{mask:url(#mask-59);}.cls-177{mask:url(#mask-60);}.cls-178{mask:url(#mask-61);}.cls-179{mask:url(#mask-62);}.cls-180{mask:url(#mask-63);}.cls-181{mask:url(#mask-64);}.cls-182{mask:url(#mask-65);}.cls-183{mask:url(#mask-66);}.cls-184{mask:url(#mask-67);}.cls-185{mask:url(#mask-68);}.cls-186{mask:url(#mask-69);}.cls-187{mask:url(#mask-70);}.cls-188{mask:url(#mask-71);}.cls-189{mask:url(#mask-72);}.cls-190{mask:url(#mask-73);}.cls-191{mask:url(#mask-74);}.cls-192{mask:url(#mask-75);}.cls-193{mask:url(#mask-76);}.cls-194{mask:url(#mask-77);}.cls-195{mask:url(#mask-78);}.cls-196{mask:url(#mask-79);}.cls-197{mask:url(#mask-80);}.cls-198{mask:url(#mask-81);}.cls-199{mask:url(#mask-82);}.cls-200{mask:url(#mask-83);}.cls-201{mask:url(#mask-84);}.cls-202{mask:url(#mask-85);}.cls-203{mask:url(#mask-86);}.cls-204{mask:url(#mask-87);}.cls-205{mask:url(#mask-88);}.cls-206{mask:url(#mask-89);}.cls-207{mask:url(#mask-90);}.cls-208,.cls-217{fill:#b2b2b2;}.cls-209{fill:#1d1d1b;}.cls-210{fill:#a81822;}.cls-211,.cls-229{fill:#91121e;}.cls-212{fill:#820f20;}.cls-213{fill:#6d0e16;}.cls-214{fill:#f7c0b4;}.cls-215{fill:#d8a198;}.cls-216{fill:#d9b320;}.cls-218{fill:#2d2d2d;}.cls-219{fill:#3c3c3b;}.cls-220{fill:#9d9d9c;}.cls-221{fill:#878787;}.cls-222{fill:#5f0b11;}.cls-223{fill:#e30613;}.cls-224{fill:#6a6060;}.cls-225{fill:#c82329;}.cls-226{fill:#ffbf23;}.cls-227{fill:#af7871;}.cls-228{fill:#6c514c;}.cls-229{opacity:0.75;}</style><linearGradient id="Безымянный_градиент_8" x1="141.78" y1="140.13" x2="141.78" y2="128.64" gradientTransform="translate(-37.49 66.09) rotate(-24.28)" gradientUnits="userSpaceOnUse"><stop offset="0" stop-color="#fff"/><stop offset="0.04" stop-color="#efefef"/><stop offset="0.19" stop-color="#b0b0b0"/><stop offset="0.35" stop-color="#7b7b7b"/><stop offset="0.5" stop-color="#4f4f4f"/><stop offset="0.64" stop-color="#2c2c2c"/><stop offset="0.77" stop-color="#141414"/><stop offset="0.9" stop-color="#050505"/><stop offset="1"/></linearGradient><linearGradient id="Безымянный_градиент_8-2" x1="-347.13" y1="-1079.01" x2="-347.13" y2="-1090.5" gradientTransform="matrix(-0.11, -0.99, 0.99, -0.11, 1183.9, -327.62)" xlink:href="#Безымянный_градиент_8"/><linearGradient id="Безымянный_градиент_8-3" x1="-577.12" y1="242.68" x2="-577.12" y2="231.18" gradientTransform="translate(185.08 -489.53) rotate(-63.92)" xlink:href="#Безымянный_градиент_8"/><linearGradient id="Безымянный_градиент_8-4" x1="-666.81" y1="-1731.03" x2="-666.81" y2="-1742.52" gradientTransform="matrix(-0.72, -0.7, 0.7, -0.72, 874.46, -1571.92)" xlink:href="#Безымянный_градиент_8"/><linearGradient id="Безымянный_градиент_8-5" x1="1182.58" y1="-2426.24" x2="1182.58" y2="-2437.74" gradientTransform="translate(58.08 -2562.04) rotate(152.08)" xlink:href="#Безымянный_градиент_8"/><linearGradient id="Безымянный_градиент_8-6" x1="2415.26" y1="-882.2" x2="2415.26" y2="-893.69" gradientTransform="translate(-1135.86 -2091.57) rotate(80.08)" xlink:href="#Безымянный_градиент_8"/><linearGradient id="Безымянный_градиент_8-7" x1="1327.7" y1="767.28" x2="1327.7" y2="755.79" gradientTransform="translate(-1057.37 -810.69) rotate(8.08)" xlink:href="#Безымянный_градиент_8"/><linearGradient id="Безымянный_градиент_8-8" x1="256.6" y1="115.76" x2="256.6" y2="100.37" gradientTransform="translate(138.6 -134.65) rotate(42.95)" xlink:href="#Безымянный_градиент_8"/><linearGradient id="Безымянный_градиент_8-9" x1="-288.47" y1="-977.34" x2="-288.47" y2="-992.72" gradientTransform="matrix(0.87, -0.49, 0.49, 0.87, 974.28, 839.24)" xlink:href="#Безымянный_градиент_8"/><linearGradient id="Безымянный_градиент_8-10" x1="582.69" y1="-1833.52" x2="582.69" y2="-1848.9" gradientTransform="translate(2158.74 345.41) rotate(-101.05)" xlink:href="#Безымянный_градиент_8"/><linearGradient id="Безымянный_градиент_8-11" x1="1666.16" y1="-1269.57" x2="1666.16" y2="-1284.95" gradientTransform="translate(2055.1 -933.68) rotate(-173.05)" xlink:href="#Безымянный_градиент_8"/><linearGradient id="Безымянный_градиент_8-12" x1="1464.63" y1="-64.85" x2="1464.63" y2="-80.24" gradientTransform="translate(806.59 -1230.38) rotate(114.95)" xlink:href="#Безымянный_градиент_8"/><linearGradient id="Безымянный_градиент_8-13" x1="661.25" y1="-1920.72" x2="661.25" y2="-1932.22" gradientTransform="translate(1186.89 -1610.9) rotate(-168.28)" xlink:href="#Безымянный_градиент_8"/><linearGradient id="Безымянный_градиент_8-14" x1="-49.57" y1="258.63" x2="-49.57" y2="243.25" gradientTransform="translate(403.35 -87.39) rotate(25.43)" xlink:href="#Безымянный_градиент_8"/><linearGradient id="Безымянный_градиент_8-15" x1="-518.97" y1="-1224.37" x2="-518.97" y2="-1239.75" gradientTransform="translate(1493.51 589.64) rotate(-46.57)" xlink:href="#Безымянный_градиент_8"/><linearGradient id="Безымянный_градиент_8-16" x1="746.4" y1="-2129.07" x2="746.4" y2="-2144.45" gradientTransform="translate(2474.28 -237.96) rotate(-118.57)" xlink:href="#Безымянный_градиент_8"/><linearGradient id="Безымянный_градиент_8-17" x1="1997.84" y1="-1205.2" x2="1997.84" y2="-1220.58" gradientTransform="translate(1990.27 -1426.46) rotate(169.43)" xlink:href="#Безымянный_градиент_8"/><linearGradient id="Безымянный_градиент_8-18" x1="1505.9" y1="270.48" x2="1505.9" y2="255.1" gradientTransform="translate(710.36 -1333.41) rotate(97.43)" xlink:href="#Безымянный_градиент_8"/><linearGradient id="Безымянный_градиент_8-19" x1="-473.15" y1="297.16" x2="-473.15" y2="281.77" gradientTransform="matrix(1, 0.06, -0.06, 1, 737.07, -144.43)" xlink:href="#Безымянный_градиент_8"/><linearGradient id="Безымянный_градиент_8-20" x1="-686.5" y1="-1615.31" x2="-686.5" y2="-1630.7" gradientTransform="translate(2001.9 72.4) rotate(-68.69)" xlink:href="#Безымянный_градиент_8"/><linearGradient id="Безымянный_градиент_8-21" x1="1066.44" y1="-2409.21" x2="1066.44" y2="-2424.59" gradientTransform="translate(2598.97 -1063.53) rotate(-140.69)" xlink:href="#Безымянный_градиент_8"/><linearGradient id="Безымянный_градиент_8-22" x1="2363.17" y1="-987.39" x2="2363.17" y2="-1002.78" gradientTransform="translate(1703.14 -1982.39) rotate(147.31)" xlink:href="#Безымянный_градиент_8"/><linearGradient id="Безымянный_градиент_8-23" x1="1411.65" y1="685.24" x2="1411.65" y2="669.85" gradientTransform="translate(552.42 -1414.36) rotate(75.31)" xlink:href="#Безымянный_градиент_8"/><linearGradient id="Безымянный_градиент_8-24" x1="1773.38" y1="-1221.8" x2="1773.38" y2="-1233.29" gradientTransform="translate(-32.65 -2010.3) rotate(119.72)" xlink:href="#Безымянный_градиент_8"/><linearGradient id="Безымянный_градиент_8-25" x1="154.07" y1="183.01" x2="154.07" y2="172.89" gradientTransform="translate(115.59 -44.43) rotate(31.72)" xlink:href="#Безымянный_градиент_8"/><linearGradient id="Безымянный_градиент_8-26" x1="-384.12" y1="-1054.07" x2="-384.12" y2="-1064.19" gradientTransform="matrix(0.76, -0.65, 0.65, 0.76, 1124.94, 748.05)" xlink:href="#Безымянный_градиент_8"/><linearGradient id="Безымянный_градиент_8-27" x1="626.1" y1="-1948.2" x2="626.1" y2="-1958.32" gradientTransform="translate(2190.54 32.99) rotate(-112.28)" xlink:href="#Безымянный_градиент_8"/><linearGradient id="Безымянный_градиент_8-28" x1="1788.65" y1="-1263.71" x2="1788.65" y2="-1273.84" gradientTransform="translate(1839.77 -1201.42) rotate(175.72)" xlink:href="#Безымянный_градиент_8"/><linearGradient id="Безымянный_градиент_8-29" x1="1496.91" y1="53.45" x2="1496.91" y2="43.32" gradientTransform="translate(557.38 -1249.27) rotate(103.72)" xlink:href="#Безымянный_градиент_8"/><linearGradient id="Безымянный_градиент_8-30" x1="-167.6" y1="291.89" x2="-167.6" y2="281.77" gradientTransform="translate(384.47 -49.64) rotate(14.19)" xlink:href="#Безымянный_градиент_8"/><linearGradient id="Безымянный_градиент_8-31" x1="-587.07" y1="-1326.34" x2="-587.07" y2="-1336.46" gradientTransform="translate(1585.62 402.11) rotate(-57.81)" xlink:href="#Безымянный_градиент_8"/><linearGradient id="Безымянный_градиент_8-32" x1="822.34" y1="-2225.35" x2="822.34" y2="-2235.47" gradientTransform="matrix(-0.64, -0.77, 0.77, -0.64, 2386.42, -600.65)" xlink:href="#Безымянный_градиент_8"/><linearGradient id="Безымянный_градиент_8-33" x1="2112.87" y1="-1162.73" x2="2112.87" y2="-1172.85" gradientTransform="matrix(-0.93, 0.37, -0.37, -0.93, 1680.21, -1672.14)" xlink:href="#Безымянный_градиент_8"/><linearGradient id="Безымянный_градиент_8-34" x1="1501.06" y1="393.01" x2="1501.06" y2="382.89" gradientTransform="translate(442.93 -1331.59) rotate(86.19)" xlink:href="#Безымянный_градиент_8"/><linearGradient id="Безымянный_градиент_8-35" x1="1452.33" y1="51.88" x2="1452.33" y2="40.39" gradientTransform="matrix(0.67, 0.74, -0.74, 0.67, -789.37, -973.86)" xlink:href="#Безымянный_градиент_8"/><linearGradient id="Безымянный_градиент_8-36" x1="-595.02" y1="283.54" x2="-595.02" y2="273.42" gradientTransform="matrix(0.99, -0.14, 0.14, 0.99, 700.69, -170.57)" xlink:href="#Безымянный_градиент_8"/><linearGradient id="Безымянный_градиент_8-37" x1="-711.21" y1="-1735.42" x2="-711.21" y2="-1745.55" gradientTransform="translate(1983.53 -204.24) rotate(-79.92)" xlink:href="#Безымянный_градиент_8"/><linearGradient id="Безымянный_градиент_8-38" x1="1173.04" y1="-2469.82" x2="1173.04" y2="-2479.94" gradientTransform="translate(2347.93 -1434.7) rotate(-151.92)" xlink:href="#Безымянный_градиент_8"/><linearGradient id="Безымянный_градиент_8-39" x1="2453.75" y1="-904.74" x2="2453.75" y2="-914.86" gradientTransform="translate(1290.3 -2161.5) rotate(136.08)" xlink:href="#Безымянный_градиент_8"/><linearGradient id="Безымянный_градиент_8-40" x1="1361.04" y1="796.93" x2="1361.04" y2="786.81" gradientTransform="translate(272.25 -1380.23) rotate(64.08)" xlink:href="#Безымянный_градиент_8"/><linearGradient id="Безымянный_градиент_8-41" x1="158.5" y1="284.65" x2="158.5" y2="278.68" gradientTransform="matrix(1, 0, 0, 1, 0, 0)" xlink:href="#Безымянный_градиент_8"/><linearGradient id="Безымянный_градиент_8-42" x1="-479.41" y1="-1018.45" x2="-479.41" y2="-1024.41" gradientTransform="translate(1275.24 143.42) rotate(-72)" xlink:href="#Безымянный_градиент_8"/><linearGradient id="Безымянный_градиент_8-43" x1="562.78" y1="-2027.81" x2="562.78" y2="-2033.78" gradientTransform="matrix(-0.81, -0.59, 0.59, -0.81, 1805.72, -1025.09)" xlink:href="#Безымянный_градиент_8"/><linearGradient id="Безымянный_градиент_8-44" x1="1844.8" y1="-1348.54" x2="1844.8" y2="-1354.51" gradientTransform="matrix(-0.81, 0.59, -0.59, -0.81, 858.32, -1890.69)" xlink:href="#Безымянный_градиент_8"/><linearGradient id="Безымянный_градиент_8-45" x1="1594.94" y1="80.64" x2="1594.94" y2="74.67" gradientTransform="translate(-257.67 -1257.15) rotate(72)" xlink:href="#Безымянный_градиент_8"/><linearGradient id="Безымянный_градиент_8-46" x1="-166.4" y1="247.3" x2="-166.4" y2="235.81" gradientTransform="translate(108.53 -159.74) rotate(-41.81)" xlink:href="#Безымянный_градиент_8"/><linearGradient id="Безымянный_градиент_8-47" x1="-193.97" y1="390.14" x2="-193.97" y2="384.18" gradientTransform="matrix(0.95, -0.3, 0.3, 0.95, 225.98, -145.8)" xlink:href="#Безымянный_градиент_8"/><linearGradient id="Безымянный_градиент_8-48" x1="-688.66" y1="-1321.07" x2="-688.66" y2="-1327.03" gradientTransform="translate(1485.22 -393.06) rotate(-89.53)" xlink:href="#Безымянный_градиент_8"/><linearGradient id="Безымянный_градиент_8-49" x1="785.93" y1="-2320.34" x2="785.93" y2="-2326.3" gradientTransform="translate(1639.18 -1667.08) rotate(-161.53)" xlink:href="#Безымянный_градиент_8"/><linearGradient id="Безымянный_градиент_8-50" x1="2191.96" y1="-1226.71" x2="2191.96" y2="-1232.68" gradientTransform="translate(475.1 -2207.2) rotate(126.47)" xlink:href="#Безымянный_градиент_8"/><linearGradient id="Безымянный_градиент_8-51" x1="1586.35" y1="448.46" x2="1586.35" y2="442.49" gradientTransform="matrix(0.58, 0.81, -0.81, 0.58, -398.31, -1267)" xlink:href="#Безымянный_градиент_8"/><linearGradient id="Безымянный_градиент_8-52" x1="-656.44" y1="364.63" x2="-656.44" y2="358.67" gradientTransform="matrix(0.77, -0.64, 0.64, 0.77, 431.38, -414.93)" xlink:href="#Безымянный_градиент_8"/><linearGradient id="Безымянный_градиент_8-53" x1="-807.31" y1="-1768.78" x2="-807.31" y2="-1774.74" gradientTransform="translate(1504.89 -1118.05) rotate(-111.64)" xlink:href="#Безымянный_градиент_8"/><linearGradient id="Безымянный_градиент_8-54" x1="1175.06" y1="-2571.53" x2="1175.06" y2="-2577.49" gradientTransform="translate(1167.92 -2356.3) rotate(176.36)" xlink:href="#Безымянный_градиент_8"/><linearGradient id="Безымянный_градиент_8-55" x1="2551.11" y1="-934.24" x2="2551.11" y2="-940.21" gradientTransform="translate(-113.86 -2418.46) rotate(104.36)" xlink:href="#Безымянный_градиент_8"/><linearGradient id="Безымянный_градиент_8-56" x1="1419.18" y1="880.41" x2="1419.18" y2="874.44" gradientTransform="translate(-569.07 -1218.63) rotate(32.36)" xlink:href="#Безымянный_градиент_8"/><linearGradient id="Безымянный_градиент_8-57" x1="-544.29" y1="-1338.98" x2="-544.29" y2="-1350.48" gradientTransform="translate(1154.67 -902.98) rotate(-113.81)" xlink:href="#Безымянный_градиент_8"/><linearGradient id="Безымянный_градиент_8-58" x1="122.89" y1="236.25" x2="122.89" y2="230.29" gradientTransform="matrix(1, 0, 0, 1, 0, 0)" xlink:href="#Безымянный_градиент_8"/><linearGradient id="Безымянный_градиент_8-59" x1="-444.39" y1="-1067.27" x2="-444.39" y2="-1073.23" gradientTransform="translate(1275.24 143.42) rotate(-72)" xlink:href="#Безымянный_градиент_8"/><linearGradient id="Безымянный_градиент_8-60" x1="620.04" y1="-2009.59" x2="620.04" y2="-2015.55" gradientTransform="matrix(-0.81, -0.59, 0.59, -0.81, 1805.72, -1025.09)" xlink:href="#Безымянный_градиент_8"/><linearGradient id="Безымянный_градиент_8-61" x1="1845.16" y1="-1288.46" x2="1845.16" y2="-1294.42" gradientTransform="matrix(-0.81, 0.59, -0.59, -0.81, 858.32, -1890.69)" xlink:href="#Безымянный_градиент_8"/><linearGradient id="Безымянный_градиент_8-62" x1="1537.91" y1="99.55" x2="1537.91" y2="93.59" gradientTransform="translate(-257.67 -1257.15) rotate(72)" xlink:href="#Безымянный_градиент_8"/><linearGradient id="Безымянный_градиент_8-63" x1="-213.36" y1="333.27" x2="-213.36" y2="327.31" gradientTransform="matrix(0.95, -0.3, 0.3, 0.95, 225.98, -145.8)" xlink:href="#Безымянный_градиент_8"/><linearGradient id="Безымянный_градиент_8-64" x1="-640.56" y1="-1357.08" x2="-640.56" y2="-1363.04" gradientTransform="translate(1485.22 -393.06) rotate(-89.53)" xlink:href="#Безымянный_градиент_8"/><linearGradient id="Безымянный_градиент_8-65" x1="835.04" y1="-2285.72" x2="835.04" y2="-2291.68" gradientTransform="translate(1639.18 -1667.08) rotate(-161.53)" xlink:href="#Безымянный_градиент_8"/><linearGradient id="Безымянный_градиент_8-66" x1="2174.22" y1="-1169.31" x2="2174.22" y2="-1175.27" gradientTransform="translate(475.1 -2207.2) rotate(126.47)" xlink:href="#Безымянный_градиент_8"/><linearGradient id="Безымянный_градиент_8-67" x1="1526.27" y1="449.32" x2="1526.27" y2="443.35" gradientTransform="matrix(0.58, 0.81, -0.81, 0.58, -398.31, -1267)" xlink:href="#Безымянный_градиент_8"/><linearGradient id="Безымянный_градиент_8-68" x1="847.58" y1="-2188.57" x2="847.58" y2="-2200.06" gradientTransform="translate(771.08 -2127.6) rotate(174.19)" xlink:href="#Безымянный_градиент_8"/><linearGradient id="Безымянный_градиент_8-69" x1="-652.99" y1="304.64" x2="-652.99" y2="298.68" gradientTransform="matrix(0.77, -0.64, 0.64, 0.77, 431.38, -414.93)" xlink:href="#Безымянный_градиент_8"/><linearGradient id="Безымянный_градиент_8-70" x1="-749.19" y1="-1784.03" x2="-749.19" y2="-1790" gradientTransform="translate(1504.89 -1118.05) rotate(-111.64)" xlink:href="#Безымянный_градиент_8"/><linearGradient id="Безымянный_градиент_8-71" x1="1207.53" y1="-2520.97" x2="1207.53" y2="-2526.93" gradientTransform="translate(1167.92 -2356.3) rotate(176.36)" xlink:href="#Безымянный_градиент_8"/><linearGradient id="Безымянный_градиент_8-72" x1="2513.06" y1="-887.74" x2="2513.06" y2="-893.7" gradientTransform="translate(-113.86 -2418.46) rotate(104.36)" xlink:href="#Безымянный_градиент_8"/><linearGradient id="Безымянный_градиент_8-73" x1="1363.2" y1="858.58" x2="1363.2" y2="852.62" gradientTransform="translate(-569.07 -1218.63) rotate(32.36)" xlink:href="#Безымянный_градиент_8"/><linearGradient id="Безымянный_градиент_8-74" x1="115.48" y1="92.85" x2="115.48" y2="77.53" gradientTransform="translate(159.03 -20.38) rotate(69.93)" xlink:href="#Безымянный_градиент_8"/><linearGradient id="Безымянный_градиент_8-75" x1="-310.3" y1="-1118.62" x2="-310.3" y2="-1133.95" gradientTransform="translate(461.95 1226.64) rotate(-2.07)" xlink:href="#Безымянный_градиент_8"/><linearGradient id="Безымянный_градиент_8-76" x1="710.31" y1="-1897.93" x2="710.31" y2="-1913.26" gradientTransform="matrix(0.27, -0.96, 0.96, 0.27, 1741.55, 1323.89)" xlink:href="#Безымянный_градиент_8"/><linearGradient id="Безымянный_градиент_8-77" x1="1766.87" y1="-1168.1" x2="1766.87" y2="-1183.42" gradientTransform="matrix(-0.83, -0.56, 0.56, -0.83, 2229.46, 136.98)" xlink:href="#Безымянный_градиент_8"/><linearGradient id="Безымянный_градиент_8-78" x1="1399.24" y1="62.28" x2="1399.24" y2="46.95" gradientTransform="matrix(-0.79, 0.62, -0.62, -0.79, 1251.41, -693.82)" xlink:href="#Безымянный_градиент_8"/><linearGradient id="Безымянный_градиент_8-79" x1="2085.69" y1="-1127.36" x2="2085.69" y2="-1138.85" gradientTransform="translate(-512.13 -2141.2) rotate(102.19)" xlink:href="#Безымянный_градиент_8"/><linearGradient id="Безымянный_градиент_8-80" x1="-177.23" y1="194.3" x2="-177.23" y2="178.98" gradientTransform="matrix(0.61, 0.79, -0.79, 0.61, 373.52, 141.84)" xlink:href="#Безымянный_градиент_8"/><linearGradient id="Безымянный_градиент_8-81" x1="-497.23" y1="-1365.67" x2="-497.23" y2="-1380.99" gradientTransform="matrix(0.94, -0.34, 0.34, 0.94, 1037.91, 1239.76)" xlink:href="#Безымянный_градиент_8"/><linearGradient id="Безымянный_градиент_8-82" x1="887.5" y1="-2152.06" x2="887.5" y2="-2167.38" gradientTransform="matrix(-0.03, -1, 1, -0.03, 2287.39, 947.16)" xlink:href="#Безымянный_градиент_8"/><linearGradient id="Безымянный_градиент_8-83" x1="2063.31" y1="-1078.11" x2="2063.31" y2="-1093.44" gradientTransform="translate(2395.23 -331.58) rotate(-163.6)" xlink:href="#Безымянный_градиент_8"/><linearGradient id="Безымянный_градиент_8-84" x1="1405.27" y1="372.02" x2="1405.27" y2="356.7" gradientTransform="matrix(-0.57, 0.83, -0.83, -0.57, 1212.39, -829.3)" xlink:href="#Безымянный_градиент_8"/><linearGradient id="Безымянный_градиент_8-85" x1="-567.21" y1="189.5" x2="-567.21" y2="174.17" gradientTransform="translate(696.8 242.41) rotate(30.29)" xlink:href="#Безымянный_градиент_8"/><linearGradient id="Безымянный_градиент_8-86" x1="-613.17" y1="-1738.04" x2="-613.17" y2="-1753.36" gradientTransform="translate(1725.62 1009.44) rotate(-41.71)" xlink:href="#Безымянный_градиент_8"/><linearGradient id="Безымянный_градиент_8-87" x1="1205.81" y1="-2377.39" x2="1205.81" y2="-2392.72" gradientTransform="translate(2773.04 268) rotate(-113.71)" xlink:href="#Безымянный_градиент_8"/><linearGradient id="Безымянный_градиент_8-88" x1="2375.98" y1="-845.01" x2="2375.98" y2="-860.33" gradientTransform="translate(2391.55 -957.27) rotate(174.29)" xlink:href="#Безымянный_градиент_8"/><linearGradient id="Безымянный_градиент_8-89" x1="1280.19" y1="741.42" x2="1280.19" y2="726.1" gradientTransform="matrix(-0.21, 0.98, -0.98, -0.21, 1108.36, -973.09)" xlink:href="#Безымянный_градиент_8"/><linearGradient id="Безымянный_градиент_8-90" x1="1459.02" y1="378.09" x2="1459.02" y2="366.6" gradientTransform="matrix(0.86, 0.5, -0.5, 0.86, -921.61, -925)" xlink:href="#Безымянный_градиент_8"/><mask id="mask" x="142.56" y="124.1" width="6.81" height="11.42" maskUnits="userSpaceOnUse"><polygon class="cls-1" points="142.56 125.98 149.37 135.52 146.72 124.1 142.56 125.98"/></mask><mask id="mask-2" x="137.69" y="134.5" width="11.67" height="4.54" maskUnits="userSpaceOnUse"><polygon class="cls-2" points="138.19 139.05 149.37 135.52 137.69 134.5 138.19 139.05"/></mask><mask id="mask-3" x="144.79" y="135.52" width="4.57" height="11.72" maskUnits="userSpaceOnUse"><polygon class="cls-13" points="149.27 147.24 149.37 135.52 144.79 146.31 149.27 147.24"/></mask><mask id="mask-4" x="149.37" y="135.52" width="11.11" height="7.68" maskUnits="userSpaceOnUse"><polygon class="cls-24" points="160.48 139.23 149.37 135.52 158.22 143.2 160.48 139.23"/></mask><mask id="mask-5" x="149.37" y="126.1" width="10.04" height="9.42" maskUnits="userSpaceOnUse"><polygon class="cls-35" points="156.33 126.09 149.37 135.52 159.41 129.48 156.33 126.09"/></mask><mask id="mask-6" x="140" y="125.43" width="9.37" height="10.09" maskUnits="userSpaceOnUse"><polygon class="cls-46" points="140 128.48 149.37 135.52 143.41 125.43 140 128.48"/></mask><mask id="mask-7" x="137.93" y="135.52" width="11.44" height="6.73" maskUnits="userSpaceOnUse"><polygon class="cls-57" points="139.78 142.25 149.37 135.52 137.93 138.07 139.78 142.25"/></mask><mask id="mask-8" x="148.26" y="135.52" width="4.55" height="11.67" maskUnits="userSpaceOnUse"><polygon class="cls-68" points="152.8 146.72 149.37 135.52 148.26 147.19 152.8 146.72"/></mask><mask id="mask-9" x="149.37" y="135.52" width="11.72" height="4.66" maskUnits="userSpaceOnUse"><polygon class="cls-79" points="161.08 135.71 149.37 135.52 160.12 140.18 161.08 135.71"/></mask><mask id="mask-10" x="149.37" y="124.44" width="7.76" height="11.08" maskUnits="userSpaceOnUse"><polygon class="cls-90" points="153.17 124.44 149.37 135.52 157.12 126.73 153.17 124.44"/></mask><mask id="mask-11" x="138.04" y="128.41" width="11.33" height="7.11" maskUnits="userSpaceOnUse"><polygon class="cls-3" points="138.04 132.52 149.37 135.52 140.05 128.41 138.04 132.52"/></mask><mask id="mask-12" x="139.73" y="135.52" width="9.64" height="9.85" maskUnits="userSpaceOnUse"><polygon class="cls-4" points="143.01 145.37 149.37 135.52 139.73 142.19 143.01 145.37"/></mask><mask id="mask-13" x="149.37" y="135.52" width="7.4" height="11.23" maskUnits="userSpaceOnUse"><polygon class="cls-5" points="156.77 144.6 149.37 135.52 152.73 146.75 156.77 144.6"/></mask><mask id="mask-14" x="149.37" y="131.29" width="11.72" height="4.5" maskUnits="userSpaceOnUse"><polygon class="cls-6" points="160.29 131.29 149.37 135.52 161.08 135.79 160.29 131.29"/></mask><mask id="mask-15" x="148.72" y="123.82" width="4.53" height="11.7" maskUnits="userSpaceOnUse"><polygon class="cls-7" points="148.72 123.82 149.37 135.52 153.25 124.46 148.72 123.82"/></mask><mask id="mask-16" x="247.54" y="111.57" width="12.72" height="13.35" maskUnits="userSpaceOnUse"><polygon class="cls-8" points="255.79 111.57 247.54 124.91 260.27 115.74 255.79 111.57"/></mask><mask id="mask-17" x="237.4" y="109.98" width="10.15" height="14.94" maskUnits="userSpaceOnUse"><polygon class="cls-9" points="237.4 112.95 247.54 124.91 242.75 109.98 237.4 112.95"/></mask><mask id="mask-18" x="231.86" y="124.86" width="15.69" height="6.01" maskUnits="userSpaceOnUse"><polygon class="cls-10" points="233.03 130.87 247.54 124.91 231.86 124.86 233.03 130.87"/></mask><mask id="mask-19" x="242.64" y="124.91" width="6.08" height="15.64" maskUnits="userSpaceOnUse"><polygon class="cls-11" points="248.72 140.56 247.54 124.91 242.65 139.81 248.72 140.56"/></mask><mask id="mask-20" x="247.54" y="124.91" width="15.24" height="9.26" maskUnits="userSpaceOnUse"><polygon class="cls-12" points="262.78 128.63 247.54 124.91 260.2 134.18 262.78 128.63"/></mask><mask id="mask-21" x="247.54" y="109.7" width="9.37" height="15.21" maskUnits="userSpaceOnUse"><polygon class="cls-14" points="251.39 109.7 247.54 124.91 256.91 112.33 251.39 109.7"/></mask><mask id="mask-22" x="234.27" y="112.11" width="13.28" height="12.8" maskUnits="userSpaceOnUse"><polygon class="cls-15" points="234.27 116.56 247.54 124.91 238.47 112.11 234.27 116.56"/></mask><mask id="mask-23" x="232.57" y="124.91" width="14.97" height="10.05" maskUnits="userSpaceOnUse"><polygon class="cls-16" points="235.5 134.96 247.54 124.91 232.57 129.58 235.5 134.96"/></mask><mask id="mask-24" x="247.36" y="124.91" width="6.02" height="15.69" maskUnits="userSpaceOnUse"><polygon class="cls-17" points="253.38 139.47 247.54 124.91 247.36 140.6 253.38 139.47"/></mask><mask id="mask-25" x="247.54" y="123.87" width="15.65" height="6.07" maskUnits="userSpaceOnUse"><polygon class="cls-18" points="263.2 123.87 247.54 124.91 262.4 129.94 263.2 123.87"/></mask><mask id="mask-26" x="245.38" y="109.38" width="6.11" height="15.54" maskUnits="userSpaceOnUse"><polygon class="cls-19" points="245.38 109.38 247.54 124.91 251.49 109.73 245.38 109.38"/></mask><mask id="mask-27" x="232.1" y="116.47" width="15.45" height="8.44" maskUnits="userSpaceOnUse"><polygon class="cls-20" points="232.1 122.17 247.54 124.91 234.32 116.47 232.1 122.17"/></mask><mask id="mask-28" x="235.43" y="124.91" width="12.11" height="13.84" maskUnits="userSpaceOnUse"><polygon class="cls-21" points="240.16 138.75 247.54 124.91 235.43 134.88 240.16 138.75"/></mask><mask id="mask-29" x="247.54" y="124.91" width="10.88" height="14.6" maskUnits="userSpaceOnUse"><polygon class="cls-22" points="258.43 136.21 247.54 124.91 253.28 139.51 258.43 136.21"/></mask><mask id="mask-30" x="247.54" y="118.05" width="15.66" height="6.86" maskUnits="userSpaceOnUse"><polygon class="cls-23" points="261.65 118.05 247.54 124.91 263.2 123.97 261.65 118.05"/></mask><mask id="mask-31" x="150.42" y="182.58" width="7.03" height="9.67" maskUnits="userSpaceOnUse"><polygon class="cls-25" points="154.03 182.58 150.42 192.25 157.45 184.7 154.03 182.58"/></mask><mask id="mask-32" x="142.34" y="183.22" width="8.08" height="9.02" maskUnits="userSpaceOnUse"><polygon class="cls-26" points="142.34 185.83 150.42 192.25 145.41 183.22 142.34 185.83"/></mask><mask id="mask-33" x="140.29" y="192.25" width="10.13" height="5.7" maskUnits="userSpaceOnUse"><polygon class="cls-27" points="141.81 197.95 150.42 192.25 140.29 194.22 141.81 197.95"/></mask><mask id="mask-34" x="149.17" y="192.25" width="4.02" height="10.24" maskUnits="userSpaceOnUse"><polygon class="cls-28" points="153.18 202.19 150.42 192.25 149.17 202.49 153.18 202.19"/></mask><mask id="mask-35" x="150.42" y="192.25" width="10.31" height="4.36" maskUnits="userSpaceOnUse"><polygon class="cls-29" points="160.73 192.69 150.42 192.25 159.78 196.61 160.73 192.69"/></mask><mask id="mask-36" x="150.42" y="181.94" width="4.43" height="10.31" maskUnits="userSpaceOnUse"><polygon class="cls-30" points="150.95 181.94 150.42 192.25 154.85 182.93 150.95 181.94"/></mask><mask id="mask-37" x="140.78" y="185.15" width="9.64" height="7.1" maskUnits="userSpaceOnUse"><polygon class="cls-31" points="140.78 188.56 150.42 192.25 142.93 185.15 140.78 188.56"/></mask><mask id="mask-38" x="141.35" y="192.25" width="9.07" height="8.03" maskUnits="userSpaceOnUse"><polygon class="cls-32" points="143.93 200.28 150.42 192.25 141.35 197.18 143.93 200.28"/></mask><mask id="mask-39" x="150.42" y="192.25" width="5.63" height="10.15" maskUnits="userSpaceOnUse"><polygon class="cls-33" points="156.05 200.9 150.42 192.25 152.31 202.4 156.05 200.9"/></mask><mask id="mask-40" x="150.42" y="189.57" width="10.23" height="4.02" maskUnits="userSpaceOnUse"><polygon class="cls-34" points="160.39 189.57 150.42 192.25 160.65 193.59 160.39 189.57"/></mask><mask id="mask-41" x="147.03" y="181.95" width="3.99" height="10.3" maskUnits="userSpaceOnUse"><polygon class="cls-36" points="147.03 182.5 150.42 192.25 151.02 181.94 147.03 182.5"/></mask><mask id="mask-42" x="140.1" y="188.49" width="10.32" height="3.96" maskUnits="userSpaceOnUse"><polygon class="cls-37" points="140.1 192.46 150.42 192.25 140.81 188.5 140.1 192.46"/></mask><mask id="mask-43" x="143.88" y="192.25" width="6.54" height="9.88" maskUnits="userSpaceOnUse"><polygon class="cls-38" points="147.43 202.13 150.42 192.25 143.88 200.23 147.43 202.13"/></mask><mask id="mask-44" x="150.42" y="192.25" width="8.47" height="8.69" maskUnits="userSpaceOnUse"><polygon class="cls-39" points="158.89 198.14 150.42 192.25 155.99 200.94 158.89 198.14"/></mask><mask id="mask-45" x="150.42" y="186.01" width="9.98" height="6.24" maskUnits="userSpaceOnUse"><polygon class="cls-40" points="158.64 186.01 150.42 192.25 160.4 189.63 158.64 186.01"/></mask><mask id="mask-46" x="157.31" y="278.68" width="2.37" height="5.96" maskUnits="userSpaceOnUse"><polygon class="cls-41" points="157.31 278.68 158.5 284.65 159.69 278.68 157.31 278.68"/></mask><mask id="mask-47" x="152.46" y="281.68" width="6.04" height="2.97" maskUnits="userSpaceOnUse"><polygon class="cls-42" points="152.46 283.93 158.5 284.65 153.19 281.68 152.46 283.93"/></mask><mask id="mask-48" x="154.03" y="284.65" width="4.46" height="5.52" maskUnits="userSpaceOnUse"><polygon class="cls-43" points="155.95 290.17 158.5 284.65 154.03 288.77 155.95 290.17"/></mask><mask id="mask-49" x="158.5" y="284.65" width="4.46" height="5.52" maskUnits="userSpaceOnUse"><polygon class="cls-44" points="162.96 288.77 158.5 284.65 161.04 290.17 162.96 288.77"/></mask><mask id="mask-50" x="158.5" y="281.68" width="6.04" height="2.97" maskUnits="userSpaceOnUse"><polygon class="cls-45" points="163.8 281.68 158.5 284.65 164.54 283.93 163.8 281.68"/></mask><mask id="mask-51" x="155.57" y="278.6" width="2.93" height="6.04" maskUnits="userSpaceOnUse"><polygon class="cls-47" points="155.57 279.32 158.5 284.65 157.84 278.6 155.57 279.32"/></mask><mask id="mask-52" x="152.53" y="283.41" width="5.97" height="2.37" maskUnits="userSpaceOnUse"><polygon class="cls-48" points="152.53 285.78 158.5 284.65 152.55 283.41 152.53 285.78"/></mask><mask id="mask-53" x="155.48" y="284.65" width="3.01" height="6.03" maskUnits="userSpaceOnUse"><polygon class="cls-49" points="157.74 290.68 158.5 284.65 155.49 289.93 157.74 290.68"/></mask><mask id="mask-54" x="158.5" y="284.65" width="5.5" height="4.5" maskUnits="userSpaceOnUse"><polygon class="cls-50" points="164 287.24 158.5 284.65 162.59 289.15 164 287.24"/></mask><mask id="mask-55" x="158.5" y="280.22" width="5.54" height="4.43" maskUnits="userSpaceOnUse"><polygon class="cls-51" points="162.66 280.22 158.5 284.65 164.04 282.15 162.66 280.22"/></mask><mask id="mask-56" x="153.78" y="279.3" width="4.72" height="5.35" maskUnits="userSpaceOnUse"><polygon class="cls-52" points="153.78 280.81 158.5 284.65 155.61 279.3 153.78 280.81"/></mask><mask id="mask-57" x="152.52" y="284.65" width="5.98" height="3.3" maskUnits="userSpaceOnUse"><polygon class="cls-53" points="153.39 287.95 158.5 284.65 152.52 285.74 153.39 287.95"/></mask><mask id="mask-58" x="157.69" y="284.65" width="2.37" height="6.03" maskUnits="userSpaceOnUse"><polygon class="cls-54" points="160.06 290.52 158.5 284.65 157.69 290.67 160.06 290.52"/></mask><mask id="mask-59" x="158.5" y="284.65" width="6.07" height="2.63" maskUnits="userSpaceOnUse"><polygon class="cls-55" points="164.57 284.98 158.5 284.65 163.98 287.28 164.57 284.98"/></mask><mask id="mask-60" x="158.5" y="278.98" width="4.19" height="5.67" maskUnits="userSpaceOnUse"><polygon class="cls-56" points="160.69 278.98 158.5 284.65 162.69 280.25 160.69 278.98"/></mask><mask id="mask-61" x="121.7" y="230.29" width="2.37" height="5.96" maskUnits="userSpaceOnUse"><polygon class="cls-58" points="121.7 230.29 122.89 236.25 124.07 230.29 121.7 230.29"/></mask><mask id="mask-62" x="116.85" y="233.28" width="6.04" height="2.97" maskUnits="userSpaceOnUse"><polygon class="cls-59" points="116.85 235.53 122.89 236.25 117.58 233.28 116.85 235.53"/></mask><mask id="mask-63" x="118.42" y="236.25" width="4.46" height="5.52" maskUnits="userSpaceOnUse"><polygon class="cls-60" points="120.34 241.77 122.89 236.25 118.42 240.38 120.34 241.77"/></mask><mask id="mask-64" x="122.89" y="236.25" width="4.46" height="5.52" maskUnits="userSpaceOnUse"><polygon class="cls-61" points="127.35 240.38 122.89 236.25 125.43 241.77 127.35 240.38"/></mask><mask id="mask-65" x="122.89" y="233.28" width="6.04" height="2.97" maskUnits="userSpaceOnUse"><polygon class="cls-62" points="128.19 233.28 122.89 236.25 128.93 235.53 128.19 233.28"/></mask><mask id="mask-66" x="119.96" y="230.21" width="2.93" height="6.04" maskUnits="userSpaceOnUse"><polygon class="cls-63" points="119.96 230.92 122.89 236.25 122.22 230.21 119.96 230.92"/></mask><mask id="mask-67" x="116.91" y="235.01" width="5.97" height="2.37" maskUnits="userSpaceOnUse"><polygon class="cls-64" points="116.92 237.39 122.89 236.25 116.93 235.01 116.92 237.39"/></mask><mask id="mask-68" x="119.87" y="236.25" width="3.01" height="6.03" maskUnits="userSpaceOnUse"><polygon class="cls-65" points="122.12 242.28 122.89 236.25 119.87 241.53 122.12 242.28"/></mask><mask id="mask-69" x="122.89" y="236.25" width="5.5" height="4.5" maskUnits="userSpaceOnUse"><polygon class="cls-66" points="128.39 238.84 122.89 236.25 126.98 240.75 128.39 238.84"/></mask><mask id="mask-70" x="122.89" y="231.82" width="5.54" height="4.43" maskUnits="userSpaceOnUse"><polygon class="cls-67" points="127.05 231.82 122.89 236.25 128.43 233.75 127.05 231.82"/></mask><mask id="mask-71" x="118.17" y="230.9" width="4.72" height="5.35" maskUnits="userSpaceOnUse"><polygon class="cls-69" points="118.17 232.41 122.89 236.25 120 230.9 118.17 232.41"/></mask><mask id="mask-72" x="116.91" y="236.25" width="5.98" height="3.3" maskUnits="userSpaceOnUse"><polygon class="cls-70" points="117.78 239.55 122.89 236.25 116.91 237.35 117.78 239.55"/></mask><mask id="mask-73" x="122.08" y="236.25" width="2.37" height="6.03" maskUnits="userSpaceOnUse"><polygon class="cls-71" points="124.45 242.13 122.89 236.25 122.08 242.28 124.45 242.13"/></mask><mask id="mask-74" x="122.89" y="236.25" width="6.07" height="2.63" maskUnits="userSpaceOnUse"><polygon class="cls-72" points="128.96 236.58 122.89 236.25 128.37 238.88 128.96 236.58"/></mask><mask id="mask-75" x="122.89" y="230.58" width="4.19" height="5.67" maskUnits="userSpaceOnUse"><polygon class="cls-73" points="125.08 230.58 122.89 236.25 127.08 231.85 125.08 230.58"/></mask><mask id="mask-76" x="111.44" y="111.84" width="15.44" height="8.12" maskUnits="userSpaceOnUse"><polygon class="cls-74" points="124.79 111.84 111.44 119.96 126.89 117.56 124.79 111.84"/></mask><mask id="mask-77" x="107.84" y="104.53" width="6.09" height="15.42" maskUnits="userSpaceOnUse"><polygon class="cls-75" points="107.84 104.75 111.44 119.96 113.94 104.53 107.84 104.75"/></mask><mask id="mask-78" x="95.87" y="112.82" width="15.57" height="7.14" maskUnits="userSpaceOnUse"><polygon class="cls-76" points="95.87 118.68 111.44 119.96 97.55 112.82 95.87 118.68"/></mask><mask id="mask-79" x="100.36" y="119.96" width="11.08" height="14.42" maskUnits="userSpaceOnUse"><polygon class="cls-77" points="105.42 134.38 111.44 119.96 100.36 130.97 105.42 134.38"/></mask><mask id="mask-80" x="111.44" y="119.96" width="11.85" height="13.94" maskUnits="userSpaceOnUse"><polygon class="cls-78" points="123.29 130.14 111.44 119.96 118.5 133.9 123.29 130.14"/></mask><mask id="mask-81" x="111.44" y="108.19" width="14" height="11.76" maskUnits="userSpaceOnUse"><polygon class="cls-80" points="121.73 108.19 111.44 119.96 125.45 113.02 121.73 108.19"/></mask><mask id="mask-82" x="103.43" y="104.5" width="8.01" height="15.46" maskUnits="userSpaceOnUse"><polygon class="cls-81" points="103.43 106.54 111.44 119.96 109.18 104.5 103.43 106.54"/></mask><mask id="mask-83" x="96.04" y="117.34" width="15.4" height="6.09" maskUnits="userSpaceOnUse"><polygon class="cls-82" points="96.21 123.43 111.44 119.96 96.04 117.34 96.21 123.43"/></mask><mask id="mask-84" x="104.19" y="119.96" width="7.25" height="15.56" maskUnits="userSpaceOnUse"><polygon class="cls-83" points="110.04 135.52 111.44 119.96 104.19 133.8 110.04 135.52"/></mask><mask id="mask-85" x="111.44" y="119.96" width="14.37" height="11.17" maskUnits="userSpaceOnUse"><polygon class="cls-84" points="125.81 126.1 111.44 119.96 122.37 131.13 125.81 126.1"/></mask><mask id="mask-86" x="111.44" y="105.19" width="10.36" height="14.77" maskUnits="userSpaceOnUse"><polygon class="cls-85" points="116.54 105.19 111.44 119.96 121.81 108.26 116.54 105.19"/></mask><mask id="mask-87" x="98.97" y="106.49" width="12.47" height="13.47" maskUnits="userSpaceOnUse"><polygon class="cls-86" points="98.97 110.55 111.44 119.96 103.52 106.49 98.97 110.55"/></mask><mask id="mask-88" x="96.19" y="119.96" width="15.26" height="8.95" maskUnits="userSpaceOnUse"><polygon class="cls-87" points="98.64 128.91 111.44 119.96 96.19 123.33 98.64 128.91"/></mask><mask id="mask-89" x="109.94" y="119.96" width="6.07" height="15.55" maskUnits="userSpaceOnUse"><polygon class="cls-88" points="116 134.9 111.44 119.96 109.94 135.51 116 134.9"/></mask><mask id="mask-90" x="111.44" y="119.96" width="15.62" height="6.24" maskUnits="userSpaceOnUse"><polygon class="cls-89" points="127.07 120.24 111.44 119.96 125.77 126.2 127.07 120.24"/></mask></defs><title>sign-in</title><g class="cls-91"><g id="Layer_2" data-name="Layer 2"><g id="Слой_7" data-name="Слой 7"><polygon class="cls-92" points="54.16 13.77 63.06 393.65 313.07 393.65 320.61 9.31 54.16 13.77"/></g><g id="lights"><path class="cls-93" d="M30.31,36.73A30.32,30.32,0,1,0,60.63,67.05,30.32,30.32,0,0,0,30.31,36.73Zm0,52.46A22.14,22.14,0,1,1,52.45,67.05,22.14,22.14,0,0,1,30.31,89.19Z"/><path class="cls-94" d="M30.31,44.91A22.14,22.14,0,1,0,52.45,67.05,22.13,22.13,0,0,0,30.31,44.91Zm0,39.46A17.32,17.32,0,1,1,47.64,67.05,17.33,17.33,0,0,1,30.31,84.37Z"/><path class="cls-95" d="M30.31,49.73A17.32,17.32,0,1,0,47.64,67.05,17.32,17.32,0,0,0,30.31,49.73Zm0,31.58A14.27,14.27,0,1,1,44.58,67.05,14.26,14.26,0,0,1,30.31,81.31Z"/><path class="cls-96" d="M30.31,52.78A14.27,14.27,0,1,0,44.58,67.05,14.27,14.27,0,0,0,30.31,52.78Zm0,25.07a10.81,10.81,0,1,1,10.81-10.8A10.8,10.8,0,0,1,30.31,77.85Z"/><circle class="cls-97" cx="30.31" cy="67.05" r="10.81"/><circle class="cls-98" cx="30.52" cy="67.05" r="7.34"/><path class="cls-93" d="M30.31,106.73a30.32,30.32,0,1,0,30.32,30.32A30.32,30.32,0,0,0,30.31,106.73Zm0,52.46a22.14,22.14,0,1,1,22.14-22.14A22.14,22.14,0,0,1,30.31,159.19Z"/><path class="cls-94" d="M30.31,114.91a22.14,22.14,0,1,0,22.14,22.14A22.13,22.13,0,0,0,30.31,114.91Zm0,39.46a17.32,17.32,0,1,1,17.33-17.32A17.33,17.33,0,0,1,30.31,154.37Z"/><path class="cls-95" d="M30.31,119.73a17.32,17.32,0,1,0,17.33,17.32A17.32,17.32,0,0,0,30.31,119.73Zm0,31.58a14.27,14.27,0,1,1,14.27-14.26A14.26,14.26,0,0,1,30.31,151.31Z"/><path class="cls-96" d="M30.31,122.78a14.27,14.27,0,1,0,14.27,14.27A14.27,14.27,0,0,0,30.31,122.78Zm0,25.07a10.81,10.81,0,1,1,10.81-10.8A10.8,10.8,0,0,1,30.31,147.85Z"/><circle class="cls-97" cx="30.31" cy="137.05" r="10.81"/><circle class="cls-98" cx="30.52" cy="137.05" r="7.34"/><path class="cls-93" d="M30.31,176.73a30.32,30.32,0,1,0,30.32,30.32A30.32,30.32,0,0,0,30.31,176.73Zm0,52.46a22.14,22.14,0,1,1,22.14-22.14A22.14,22.14,0,0,1,30.31,229.19Z"/><path class="cls-94" d="M30.31,184.91a22.14,22.14,0,1,0,22.14,22.14A22.13,22.13,0,0,0,30.31,184.91Zm0,39.46a17.32,17.32,0,1,1,17.33-17.32A17.33,17.33,0,0,1,30.31,224.37Z"/><path class="cls-95" d="M30.31,189.73a17.32,17.32,0,1,0,17.33,17.32A17.32,17.32,0,0,0,30.31,189.73Zm0,31.58a14.27,14.27,0,1,1,14.27-14.26A14.26,14.26,0,0,1,30.31,221.31Z"/><path class="cls-96" d="M30.31,192.78a14.27,14.27,0,1,0,14.27,14.27A14.27,14.27,0,0,0,30.31,192.78Zm0,25.07a10.81,10.81,0,1,1,10.81-10.8A10.8,10.8,0,0,1,30.31,217.85Z"/><circle class="cls-97" cx="30.31" cy="207.05" r="10.81"/><circle class="cls-98" cx="30.52" cy="207.05" r="7.34"/><path class="cls-93" d="M30.31,246.73a30.32,30.32,0,1,0,30.32,30.32A30.32,30.32,0,0,0,30.31,246.73Zm0,52.46a22.14,22.14,0,1,1,22.14-22.14A22.14,22.14,0,0,1,30.31,299.19Z"/><path class="cls-94" d="M30.31,254.91a22.14,22.14,0,1,0,22.14,22.14A22.13,22.13,0,0,0,30.31,254.91Zm0,39.46a17.32,17.32,0,1,1,17.33-17.32A17.33,17.33,0,0,1,30.31,294.37Z"/><path class="cls-95" d="M30.31,259.73a17.32,17.32,0,1,0,17.33,17.32A17.32,17.32,0,0,0,30.31,259.73Zm0,31.58a14.27,14.27,0,1,1,14.27-14.26A14.26,14.26,0,0,1,30.31,291.31Z"/><path class="cls-96" d="M30.31,262.78a14.27,14.27,0,1,0,14.27,14.27A14.27,14.27,0,0,0,30.31,262.78Zm0,25.07a10.81,10.81,0,1,1,10.81-10.8A10.8,10.8,0,0,1,30.31,287.85Z"/><circle class="cls-97" cx="30.31" cy="277.05" r="10.81"/><circle class="cls-98" cx="30.52" cy="277.05" r="7.34"/><path class="cls-93" d="M30.31,316.73a30.32,30.32,0,1,0,30.32,30.32A30.32,30.32,0,0,0,30.31,316.73Zm0,52.46a22.14,22.14,0,1,1,22.14-22.14A22.14,22.14,0,0,1,30.31,369.19Z"/><path class="cls-94" d="M30.31,324.91a22.14,22.14,0,1,0,22.14,22.14A22.13,22.13,0,0,0,30.31,324.91Zm0,39.46a17.32,17.32,0,1,1,17.33-17.32A17.33,17.33,0,0,1,30.31,364.37Z"/><path class="cls-95" d="M30.31,329.73a17.32,17.32,0,1,0,17.33,17.32A17.32,17.32,0,0,0,30.31,329.73Zm0,31.58a14.27,14.27,0,1,1,14.27-14.26A14.26,14.26,0,0,1,30.31,361.31Z"/><path class="cls-96" d="M30.31,332.78a14.27,14.27,0,1,0,14.27,14.27A14.27,14.27,0,0,0,30.31,332.78Zm0,25.07a10.81,10.81,0,1,1,10.81-10.8A10.8,10.8,0,0,1,30.31,357.85Z"/><circle class="cls-97" cx="30.31" cy="347.05" r="10.81"/><circle class="cls-98" cx="30.52" cy="347.05" r="7.34"/><path class="cls-93" d="M350.92,36.73a30.32,30.32,0,1,0,30.32,30.32A30.32,30.32,0,0,0,350.92,36.73Zm0,52.46a22.14,22.14,0,1,1,22.14-22.14A22.15,22.15,0,0,1,350.92,89.19Z"/><path class="cls-94" d="M350.92,44.91a22.14,22.14,0,1,0,22.14,22.14A22.14,22.14,0,0,0,350.92,44.91Zm0,39.46a17.32,17.32,0,1,1,17.32-17.32A17.33,17.33,0,0,1,350.92,84.37Z"/><path class="cls-95" d="M350.92,49.73a17.32,17.32,0,1,0,17.32,17.32A17.32,17.32,0,0,0,350.92,49.73Zm0,31.58a14.27,14.27,0,1,1,14.27-14.26A14.25,14.25,0,0,1,350.92,81.31Z"/><path class="cls-96" d="M350.92,52.78a14.27,14.27,0,1,0,14.27,14.27A14.26,14.26,0,0,0,350.92,52.78Zm0,25.07a10.81,10.81,0,1,1,10.81-10.8A10.79,10.79,0,0,1,350.92,77.85Z"/><circle class="cls-97" cx="350.92" cy="67.05" r="10.81"/><circle class="cls-98" cx="351.13" cy="67.05" r="7.34"/><path class="cls-93" d="M350.92,106.73a30.32,30.32,0,1,0,30.32,30.32A30.32,30.32,0,0,0,350.92,106.73Zm0,52.46a22.14,22.14,0,1,1,22.14-22.14A22.15,22.15,0,0,1,350.92,159.19Z"/><path class="cls-94" d="M350.92,114.91a22.14,22.14,0,1,0,22.14,22.14A22.14,22.14,0,0,0,350.92,114.91Zm0,39.46a17.32,17.32,0,1,1,17.32-17.32A17.33,17.33,0,0,1,350.92,154.37Z"/><path class="cls-95" d="M350.92,119.73a17.32,17.32,0,1,0,17.32,17.32A17.32,17.32,0,0,0,350.92,119.73Zm0,31.58a14.27,14.27,0,1,1,14.27-14.26A14.25,14.25,0,0,1,350.92,151.31Z"/><path class="cls-96" d="M350.92,122.78a14.27,14.27,0,1,0,14.27,14.27A14.26,14.26,0,0,0,350.92,122.78Zm0,25.07a10.81,10.81,0,1,1,10.81-10.8A10.79,10.79,0,0,1,350.92,147.85Z"/><circle class="cls-97" cx="350.92" cy="137.05" r="10.81"/><circle class="cls-98" cx="351.13" cy="137.05" r="7.34"/><path class="cls-93" d="M350.92,176.73a30.32,30.32,0,1,0,30.32,30.32A30.32,30.32,0,0,0,350.92,176.73Zm0,52.46a22.14,22.14,0,1,1,22.14-22.14A22.15,22.15,0,0,1,350.92,229.19Z"/><path class="cls-94" d="M350.92,184.91a22.14,22.14,0,1,0,22.14,22.14A22.14,22.14,0,0,0,350.92,184.91Zm0,39.46a17.32,17.32,0,1,1,17.32-17.32A17.33,17.33,0,0,1,350.92,224.37Z"/><path class="cls-95" d="M350.92,189.73a17.32,17.32,0,1,0,17.32,17.32A17.32,17.32,0,0,0,350.92,189.73Zm0,31.58a14.27,14.27,0,1,1,14.27-14.26A14.25,14.25,0,0,1,350.92,221.31Z"/><path class="cls-96" d="M350.92,192.78a14.27,14.27,0,1,0,14.27,14.27A14.26,14.26,0,0,0,350.92,192.78Zm0,25.07a10.81,10.81,0,1,1,10.81-10.8A10.79,10.79,0,0,1,350.92,217.85Z"/><circle class="cls-97" cx="350.92" cy="207.05" r="10.81"/><circle class="cls-98" cx="351.13" cy="207.05" r="7.34"/><path class="cls-93" d="M350.92,246.73a30.32,30.32,0,1,0,30.32,30.32A30.32,30.32,0,0,0,350.92,246.73Zm0,52.46a22.14,22.14,0,1,1,22.14-22.14A22.15,22.15,0,0,1,350.92,299.19Z"/><path class="cls-94" d="M350.92,254.91a22.14,22.14,0,1,0,22.14,22.14A22.14,22.14,0,0,0,350.92,254.91Zm0,39.46a17.32,17.32,0,1,1,17.32-17.32A17.33,17.33,0,0,1,350.92,294.37Z"/><path class="cls-95" d="M350.92,259.73a17.32,17.32,0,1,0,17.32,17.32A17.32,17.32,0,0,0,350.92,259.73Zm0,31.58a14.27,14.27,0,1,1,14.27-14.26A14.25,14.25,0,0,1,350.92,291.31Z"/><path class="cls-96" d="M350.92,262.78a14.27,14.27,0,1,0,14.27,14.27A14.26,14.26,0,0,0,350.92,262.78Zm0,25.07a10.81,10.81,0,1,1,10.81-10.8A10.79,10.79,0,0,1,350.92,287.85Z"/><circle class="cls-97" cx="350.92" cy="277.05" r="10.81"/><circle class="cls-98" cx="351.13" cy="277.05" r="7.34"/><path class="cls-93" d="M350.92,316.73a30.32,30.32,0,1,0,30.32,30.32A30.32,30.32,0,0,0,350.92,316.73Zm0,52.46a22.14,22.14,0,1,1,22.14-22.14A22.15,22.15,0,0,1,350.92,369.19Z"/><path class="cls-94" d="M350.92,324.91a22.14,22.14,0,1,0,22.14,22.14A22.14,22.14,0,0,0,350.92,324.91Zm0,39.46a17.32,17.32,0,1,1,17.32-17.32A17.33,17.33,0,0,1,350.92,364.37Z"/><path class="cls-95" d="M350.92,329.73a17.32,17.32,0,1,0,17.32,17.32A17.32,17.32,0,0,0,350.92,329.73Zm0,31.58a14.27,14.27,0,1,1,14.27-14.26A14.25,14.25,0,0,1,350.92,361.31Z"/><path class="cls-96" d="M350.92,332.78a14.27,14.27,0,1,0,14.27,14.27A14.26,14.26,0,0,0,350.92,332.78Zm0,25.07a10.81,10.81,0,1,1,10.81-10.8A10.79,10.79,0,0,1,350.92,357.85Z"/><circle class="cls-97" cx="350.92" cy="347.05" r="10.81"/><circle class="cls-98" cx="351.13" cy="347.05" r="7.34"/></g><g id="Слой_5" data-name="Слой 5"><rect class="cls-99" x="72.27" y="26.03" width="231.6" height="367.53"/><rect class="cls-100" x="72.23" y="25.98" width="100.16" height="367.67"/><rect class="cls-101" x="82.66" y="34.04" width="89.73" height="359.61"/><polygon class="cls-102" points="348.71 422.69 37.45 422.69 64.16 393.31 312.71 393.31 348.71 422.69"/><polygon class="cls-103" points="97.7 393.31 84.43 422.69 301.73 422.69 278.22 393.31 97.7 393.31"/><polygon class="cls-104" points="246.21 422.69 139.95 422.69 172.4 393.31 206.41 393.31 246.21 422.69"/><path class="cls-92" d="M78.22,238.36c0,49.51,42.16,89.65,94.17,89.65V148.7C120.38,148.7,78.22,188.84,78.22,238.36Z"/><path class="cls-105" d="M150.62,234.76a8.42,8.42,0,0,0-1.64,0,10.44,10.44,0,1,0,1.64,0Z"/><circle class="cls-106" cx="153.81" cy="242.13" r="10.45"/><circle class="cls-107" cx="153.81" cy="239.7" r="8.02"/><circle class="cls-108" cx="153.81" cy="235.69" r="4.01"/><polygon class="cls-101" points="303.86 26.03 216.95 0 216.95 393.56 303.86 393.56 303.86 26.03"/><rect class="cls-109" x="206.4" width="10.55" height="393.65"/><path class="cls-92" d="M290.41,253.58c4.77-57.15-32.13-104.88-73.09-104.88V328C258.28,328,286.3,302.93,290.41,253.58Z"/><polygon class="cls-100" points="303.86 26.03 294.37 23.19 294.37 393.56 303.86 393.56 303.86 26.03"/><g class="cls-110"><polygon class="cls-111" points="142.56 125.98 149.37 135.52 146.72 124.1 142.56 125.98"/></g><g class="cls-112"><polygon class="cls-111" points="138.19 139.05 149.37 135.52 137.69 134.5 138.19 139.05"/></g><g class="cls-113"><polygon class="cls-111" points="149.27 147.24 149.37 135.52 144.79 146.31 149.27 147.24"/></g><g class="cls-114"><polygon class="cls-111" points="160.48 139.23 149.37 135.52 158.22 143.2 160.48 139.23"/></g><g class="cls-115"><polygon class="cls-111" points="156.33 126.09 149.37 135.52 159.41 129.48 156.33 126.09"/></g><g class="cls-116"><g class="cls-117"><polygon class="cls-111" points="140 128.48 149.37 135.52 143.41 125.43 140 128.48"/></g><g class="cls-118"><polygon class="cls-111" points="139.78 142.25 149.37 135.52 137.93 138.07 139.78 142.25"/></g><g class="cls-119"><polygon class="cls-111" points="152.8 146.72 149.37 135.52 148.26 147.19 152.8 146.72"/></g><g class="cls-120"><polygon class="cls-111" points="161.08 135.71 149.37 135.52 160.12 140.18 161.08 135.71"/></g><g class="cls-121"><polygon class="cls-111" points="153.17 124.44 149.37 135.52 157.12 126.73 153.17 124.44"/></g></g><g class="cls-122"><g class="cls-123"><polygon class="cls-111" points="138.04 132.52 149.37 135.52 140.05 128.41 138.04 132.52"/></g><g class="cls-124"><polygon class="cls-111" points="143.01 145.37 149.37 135.52 139.73 142.19 143.01 145.37"/></g><g class="cls-125"><polygon class="cls-111" points="156.77 144.6 149.37 135.52 152.73 146.75 156.77 144.6"/></g><g class="cls-126"><polygon class="cls-111" points="160.29 131.29 149.37 135.52 161.08 135.79 160.29 131.29"/></g><g class="cls-127"><polygon class="cls-111" points="148.72 123.82 149.37 135.52 153.25 124.46 148.72 123.82"/></g></g><path class="cls-128" d="M146.06,128.24a8,8,0,1,0,10.6,4A8,8,0,0,0,146.06,128.24Zm5.7,12.64a5.85,5.85,0,1,1,2.93-7.74A5.85,5.85,0,0,1,151.76,140.88Z"/><path class="cls-129" d="M147,130.21a5.85,5.85,0,1,0,7.74,2.93A5.86,5.86,0,0,0,147,130.21Zm4.29,9.51a4.58,4.58,0,1,1,2.29-6.05A4.58,4.58,0,0,1,151.24,139.72Z"/><path class="cls-130" d="M147.47,131.38a4.58,4.58,0,1,0,6.06,2.29A4.58,4.58,0,0,0,147.47,131.38Zm3.44,7.61a3.77,3.77,0,1,1,1.88-5A3.78,3.78,0,0,1,150.91,139Z"/><path class="cls-131" d="M147.81,132.11a3.77,3.77,0,1,0,5,1.89A3.77,3.77,0,0,0,147.81,132.11Zm2.72,6a2.85,2.85,0,1,1,1.43-3.78A2.86,2.86,0,0,1,150.53,138.15Z"/><circle class="cls-132" cx="149.36" cy="135.55" r="2.86"/><circle class="cls-111" cx="149.41" cy="135.53" r="2.11"/><g class="cls-133"><polygon class="cls-111" points="255.79 111.57 247.54 124.91 260.27 115.74 255.79 111.57"/></g><g class="cls-134"><polygon class="cls-111" points="237.4 112.95 247.54 124.91 242.75 109.98 237.4 112.95"/></g><g class="cls-135"><polygon class="cls-111" points="233.03 130.87 247.54 124.91 231.86 124.86 233.03 130.87"/></g><g class="cls-136"><polygon class="cls-111" points="248.72 140.56 247.54 124.91 242.65 139.81 248.72 140.56"/></g><g class="cls-137"><polygon class="cls-111" points="262.78 128.63 247.54 124.91 260.2 134.18 262.78 128.63"/></g><g class="cls-116"><g class="cls-138"><polygon class="cls-111" points="251.39 109.7 247.54 124.91 256.91 112.33 251.39 109.7"/></g><g class="cls-139"><polygon class="cls-111" points="234.27 116.56 247.54 124.91 238.47 112.11 234.27 116.56"/></g><g class="cls-140"><polygon class="cls-111" points="235.5 134.96 247.54 124.91 232.57 129.58 235.5 134.96"/></g><g class="cls-141"><polygon class="cls-111" points="253.38 139.47 247.54 124.91 247.36 140.6 253.38 139.47"/></g><g class="cls-142"><polygon class="cls-111" points="263.2 123.87 247.54 124.91 262.4 129.94 263.2 123.87"/></g></g><g class="cls-122"><g class="cls-143"><polygon class="cls-111" points="245.38 109.38 247.54 124.91 251.49 109.73 245.38 109.38"/></g><g class="cls-144"><polygon class="cls-111" points="232.1 122.17 247.54 124.91 234.32 116.47 232.1 122.17"/></g><g class="cls-145"><polygon class="cls-111" points="240.16 138.75 247.54 124.91 235.43 134.88 240.16 138.75"/></g><g class="cls-146"><polygon class="cls-111" points="258.43 136.21 247.54 124.91 253.28 139.51 258.43 136.21"/></g><g class="cls-147"><polygon class="cls-111" points="261.65 118.05 247.54 124.91 263.2 123.97 261.65 118.05"/></g></g><path class="cls-128" d="M254.81,117.06a10.73,10.73,0,1,0,.54,15.16A10.73,10.73,0,0,0,254.81,117.06Zm-12.65,13.59a7.84,7.84,0,1,1,11.08-.4A7.84,7.84,0,0,1,242.16,130.65Z"/><path class="cls-129" d="M252.84,119.18a7.84,7.84,0,1,0,.4,11.07A7.83,7.83,0,0,0,252.84,119.18Zm-9.51,10.22a6.13,6.13,0,1,1,8.66-.31A6.12,6.12,0,0,1,243.33,129.4Z"/><path class="cls-130" d="M251.68,120.43a6.13,6.13,0,1,0,.31,8.66A6.12,6.12,0,0,0,251.68,120.43Zm-7.62,8.18a5,5,0,1,1,7.14-.26A5,5,0,0,1,244.06,128.61Z"/><path class="cls-131" d="M250.94,121.22a5,5,0,1,0,.26,7.13A5,5,0,0,0,250.94,121.22Zm-6,6.49a3.82,3.82,0,1,1,5.4-.19A3.81,3.81,0,0,1,244.9,127.71Z"/><circle class="cls-132" cx="247.5" cy="124.91" r="3.82"/><circle class="cls-111" cx="247.55" cy="124.96" r="2.82"/><g class="cls-148"><polygon class="cls-111" points="154.03 182.58 150.42 192.25 157.45 184.7 154.03 182.58"/></g><g class="cls-149"><polygon class="cls-111" points="142.34 185.83 150.42 192.25 145.41 183.22 142.34 185.83"/></g><g class="cls-150"><polygon class="cls-111" points="141.81 197.95 150.42 192.25 140.29 194.22 141.81 197.95"/></g><g class="cls-151"><polygon class="cls-111" points="153.18 202.19 150.42 192.25 149.17 202.49 153.18 202.19"/></g><g class="cls-152"><polygon class="cls-111" points="160.73 192.69 150.42 192.25 159.78 196.61 160.73 192.69"/></g><g class="cls-116"><g class="cls-153"><polygon class="cls-111" points="150.95 181.94 150.42 192.25 154.85 182.93 150.95 181.94"/></g><g class="cls-154"><polygon class="cls-111" points="140.78 188.56 150.42 192.25 142.93 185.15 140.78 188.56"/></g><g class="cls-155"><polygon class="cls-111" points="143.93 200.28 150.42 192.25 141.35 197.18 143.93 200.28"/></g><g class="cls-156"><polygon class="cls-111" points="156.05 200.9 150.42 192.25 152.31 202.4 156.05 200.9"/></g><g class="cls-157"><polygon class="cls-111" points="160.39 189.57 150.42 192.25 160.65 193.59 160.39 189.57"/></g></g><g class="cls-122"><g class="cls-158"><polygon class="cls-111" points="147.03 182.5 150.42 192.25 151.02 181.94 147.03 182.5"/></g><g class="cls-159"><polygon class="cls-111" points="140.1 192.46 150.42 192.25 140.81 188.5 140.1 192.46"/></g><g class="cls-160"><polygon class="cls-111" points="147.43 202.13 150.42 192.25 143.88 200.23 147.43 202.13"/></g><g class="cls-161"><polygon class="cls-111" points="158.89 198.14 150.42 192.25 155.99 200.94 158.89 198.14"/></g><g class="cls-162"><polygon class="cls-111" points="158.64 186.01 150.42 192.25 160.4 189.63 158.64 186.01"/></g></g><path class="cls-128" d="M154.1,186.25a7.06,7.06,0,1,0,2.3,9.72A7.06,7.06,0,0,0,154.1,186.25Zm-6.42,10.39a5.15,5.15,0,1,1,7.1-1.67A5.15,5.15,0,0,1,147.68,196.64Z"/><path class="cls-129" d="M153.1,187.87a5.15,5.15,0,1,0,1.68,7.1A5.14,5.14,0,0,0,153.1,187.87Zm-4.83,7.82a4,4,0,1,1,5.55-1.31A4,4,0,0,1,148.27,195.69Z"/><path class="cls-130" d="M152.51,188.83a4,4,0,1,0,1.31,5.55A4,4,0,0,0,152.51,188.83Zm-3.86,6.25a3.32,3.32,0,1,1,4.57-1.08A3.31,3.31,0,0,1,148.65,195.08Z"/><path class="cls-131" d="M152.14,189.43a3.32,3.32,0,1,0,1.08,4.57A3.32,3.32,0,0,0,152.14,189.43Zm-3.07,5a2.53,2.53,0,0,1-.82-3.47,2.52,2.52,0,1,1,.82,3.47Z"/><circle class="cls-132" cx="150.39" cy="192.26" r="2.52"/><circle class="cls-111" cx="150.43" cy="192.28" r="1.86"/><g class="cls-163"><polygon class="cls-111" points="157.31 278.68 158.5 284.65 159.69 278.68 157.31 278.68"/></g><g class="cls-164"><polygon class="cls-111" points="152.46 283.93 158.5 284.65 153.19 281.68 152.46 283.93"/></g><g class="cls-165"><polygon class="cls-111" points="155.95 290.17 158.5 284.65 154.03 288.77 155.95 290.17"/></g><g class="cls-166"><polygon class="cls-111" points="162.96 288.77 158.5 284.65 161.04 290.17 162.96 288.77"/></g><g class="cls-167"><polygon class="cls-111" points="163.8 281.68 158.5 284.65 164.54 283.93 163.8 281.68"/></g><g class="cls-116"><g class="cls-168"><polygon class="cls-111" points="155.57 279.32 158.5 284.65 157.84 278.6 155.57 279.32"/></g><g class="cls-169"><polygon class="cls-111" points="152.53 285.78 158.5 284.65 152.55 283.41 152.53 285.78"/></g><g class="cls-170"><polygon class="cls-111" points="157.74 290.68 158.5 284.65 155.49 289.93 157.74 290.68"/></g><g class="cls-171"><polygon class="cls-111" points="164 287.24 158.5 284.65 162.59 289.15 164 287.24"/></g><g class="cls-172"><polygon class="cls-111" points="162.66 280.22 158.5 284.65 164.04 282.15 162.66 280.22"/></g></g><g class="cls-122"><g class="cls-173"><polygon class="cls-111" points="153.78 280.81 158.5 284.65 155.61 279.3 153.78 280.81"/></g><g class="cls-174"><polygon class="cls-111" points="153.39 287.95 158.5 284.65 152.52 285.74 153.39 287.95"/></g><g class="cls-175"><polygon class="cls-111" points="160.06 290.52 158.5 284.65 157.69 290.67 160.06 290.52"/></g><g class="cls-176"><polygon class="cls-111" points="164.57 284.98 158.5 284.65 163.98 287.28 164.57 284.98"/></g><g class="cls-177"><polygon class="cls-111" points="160.69 278.98 158.5 284.65 162.69 280.25 160.69 278.98"/></g></g><path class="cls-128" d="M158.49,280.5a4.16,4.16,0,1,0,4.16,4.16A4.16,4.16,0,0,0,158.49,280.5Zm0,7.2a3,3,0,1,1,3-3A3,3,0,0,1,158.49,287.7Z"/><path class="cls-129" d="M158.49,281.62a3,3,0,1,0,3,3A3,3,0,0,0,158.49,281.62Zm0,5.42a2.38,2.38,0,1,1,2.37-2.38A2.39,2.39,0,0,1,158.49,287Z"/><path class="cls-130" d="M158.49,282.28a2.38,2.38,0,1,0,2.37,2.38A2.39,2.39,0,0,0,158.49,282.28Zm0,4.34a2,2,0,1,1,1.95-2A2,2,0,0,1,158.49,286.62Z"/><path class="cls-131" d="M158.49,282.7a2,2,0,1,0,1.95,2A2,2,0,0,0,158.49,282.7Zm0,3.44a1.48,1.48,0,1,1,1.48-1.48A1.48,1.48,0,0,1,158.49,286.14Z"/><circle class="cls-132" cx="158.49" cy="284.66" r="1.48"/><circle class="cls-111" cx="158.52" cy="284.66" r="1.09"/><g class="cls-178"><polygon class="cls-111" points="121.7 230.29 122.89 236.25 124.07 230.29 121.7 230.29"/></g><g class="cls-179"><polygon class="cls-111" points="116.85 235.53 122.89 236.25 117.58 233.28 116.85 235.53"/></g><g class="cls-180"><polygon class="cls-111" points="120.34 241.77 122.89 236.25 118.42 240.38 120.34 241.77"/></g><g class="cls-181"><polygon class="cls-111" points="127.35 240.38 122.89 236.25 125.43 241.77 127.35 240.38"/></g><g class="cls-182"><polygon class="cls-111" points="128.19 233.28 122.89 236.25 128.93 235.53 128.19 233.28"/></g><g class="cls-116"><g class="cls-183"><polygon class="cls-111" points="119.96 230.92 122.89 236.25 122.22 230.21 119.96 230.92"/></g><g class="cls-184"><polygon class="cls-111" points="116.92 237.39 122.89 236.25 116.93 235.01 116.92 237.39"/></g><g class="cls-185"><polygon class="cls-111" points="122.12 242.28 122.89 236.25 119.87 241.53 122.12 242.28"/></g><g class="cls-186"><polygon class="cls-111" points="128.39 238.84 122.89 236.25 126.98 240.75 128.39 238.84"/></g><g class="cls-187"><polygon class="cls-111" points="127.05 231.82 122.89 236.25 128.43 233.75 127.05 231.82"/></g></g><g class="cls-122"><g class="cls-188"><polygon class="cls-111" points="118.17 232.41 122.89 236.25 120 230.9 118.17 232.41"/></g><g class="cls-189"><polygon class="cls-111" points="117.78 239.55 122.89 236.25 116.91 237.35 117.78 239.55"/></g><g class="cls-190"><polygon class="cls-111" points="124.45 242.13 122.89 236.25 122.08 242.28 124.45 242.13"/></g><g class="cls-191"><polygon class="cls-111" points="128.96 236.58 122.89 236.25 128.37 238.88 128.96 236.58"/></g><g class="cls-192"><polygon class="cls-111" points="125.08 230.58 122.89 236.25 127.08 231.85 125.08 230.58"/></g></g><path class="cls-128" d="M122.88,232.1a4.16,4.16,0,1,0,4.15,4.16A4.16,4.16,0,0,0,122.88,232.1Zm0,7.2a3,3,0,1,1,3-3A3,3,0,0,1,122.88,239.3Z"/><path class="cls-129" d="M122.88,233.23a3,3,0,1,0,3,3A3,3,0,0,0,122.88,233.23Zm0,5.41a2.38,2.38,0,1,1,2.37-2.38A2.38,2.38,0,0,1,122.88,238.64Z"/><path class="cls-130" d="M122.88,233.89a2.38,2.38,0,1,0,2.37,2.37A2.37,2.37,0,0,0,122.88,233.89Zm0,4.33a2,2,0,1,1,2-2A2,2,0,0,1,122.88,238.22Z"/><path class="cls-131" d="M122.88,234.31a2,2,0,1,0,2,1.95A2,2,0,0,0,122.88,234.31Zm0,3.43a1.48,1.48,0,1,1,1.48-1.48A1.49,1.49,0,0,1,122.88,237.74Z"/><circle class="cls-132" cx="122.88" cy="236.26" r="1.48"/><circle class="cls-111" cx="122.9" cy="236.26" r="1.09"/><g class="cls-193"><polygon class="cls-111" points="124.79 111.84 111.44 119.96 126.89 117.56 124.79 111.84"/></g><g class="cls-194"><polygon class="cls-111" points="107.84 104.75 111.44 119.96 113.94 104.53 107.84 104.75"/></g><g class="cls-195"><polygon class="cls-111" points="95.87 118.68 111.44 119.96 97.55 112.82 95.87 118.68"/></g><g class="cls-196"><polygon class="cls-111" points="105.42 134.38 111.44 119.96 100.36 130.97 105.42 134.38"/></g><g class="cls-197"><polygon class="cls-111" points="123.29 130.14 111.44 119.96 118.5 133.9 123.29 130.14"/></g><g class="cls-116"><g class="cls-198"><polygon class="cls-111" points="121.73 108.19 111.44 119.96 125.45 113.02 121.73 108.19"/></g><g class="cls-199"><polygon class="cls-111" points="103.43 106.54 111.44 119.96 109.18 104.5 103.43 106.54"/></g><g class="cls-200"><polygon class="cls-111" points="96.21 123.43 111.44 119.96 96.04 117.34 96.21 123.43"/></g><g class="cls-201"><polygon class="cls-111" points="110.04 135.52 111.44 119.96 104.19 133.8 110.04 135.52"/></g><g class="cls-202"><polygon class="cls-111" points="125.81 126.1 111.44 119.96 122.37 131.13 125.81 126.1"/></g></g><g class="cls-122"><g class="cls-203"><polygon class="cls-111" points="116.54 105.19 111.44 119.96 121.81 108.26 116.54 105.19"/></g><g class="cls-204"><polygon class="cls-111" points="98.97 110.55 111.44 119.96 103.52 106.49 98.97 110.55"/></g><g class="cls-205"><polygon class="cls-111" points="98.64 128.91 111.44 119.96 96.19 123.33 98.64 128.91"/></g><g class="cls-206"><polygon class="cls-111" points="116 134.9 111.44 119.96 109.94 135.51 116 134.9"/></g><g class="cls-207"><polygon class="cls-111" points="127.07 120.24 111.44 119.96 125.77 126.2 127.07 120.24"/></g></g><path class="cls-128" d="M121.44,116.27A10.69,10.69,0,1,0,115.07,130,10.69,10.69,0,0,0,121.44,116.27Zm-17.36,6.35a7.8,7.8,0,1,1,10,4.65A7.8,7.8,0,0,1,104.08,122.62Z"/><path class="cls-129" d="M118.74,117.26a7.8,7.8,0,1,0-4.66,10A7.81,7.81,0,0,0,118.74,117.26ZM105.67,122a6.11,6.11,0,1,1,7.83,3.64A6.1,6.1,0,0,1,105.67,122Z"/><path class="cls-130" d="M117.14,117.85a6.11,6.11,0,1,0-3.64,7.83A6.1,6.1,0,0,0,117.14,117.85Zm-10.46,3.82a5,5,0,1,1,6.45,3A5,5,0,0,1,106.68,121.67Z"/><path class="cls-131" d="M116.13,118.22a5,5,0,1,0-3,6.44A5,5,0,0,0,116.13,118.22Zm-8.3,3a3.81,3.81,0,1,1,4.88,2.27A3.81,3.81,0,0,1,107.83,121.25Z"/><circle class="cls-132" cx="111.41" cy="119.94" r="3.81"/><circle class="cls-111" cx="111.43" cy="120.01" r="2.81"/></g><g id="man"><ellipse class="cls-208" cx="358.46" cy="394.84" rx="52.85" ry="3.08"/><path class="cls-209" d="M330.78,382.59s-1.84,2.8-6.75,2.61-11.73-5.18-10.59,0,4.51,11.76,14.35,10.38,12.49-4,14.68-3.8v2.92h11.82a13,13,0,0,0-3.94-12.91C344.18,376.33,333.2,379.21,330.78,382.59Z"/><path class="cls-209" d="M356.2,384.09,354,391l.3,3.65,12.79,0s.12-3.57.32-3.06,5.35,5.46,13.82,5.55,18.44-5,19.81-9,.5-3.8-4.51-3.92-6.2-4.94-6.2-4.94S366.19,364.17,356.2,384.09Z"/><path d="M398.1,384.29a8.49,8.49,0,0,1-2.91,6.54,16.33,16.33,0,0,1-8.15,3.49,26,26,0,0,1-9.14.14,17.43,17.43,0,0,1-8.27-3.73c-1.39-1.18-2.6-2.63-4.25-3.38a10.06,10.06,0,0,0-4.75-.63A14.24,14.24,0,0,0,355,388L354,391l.3,3.65,12.79,0s.12-3.57.32-3.06,5.35,5.46,13.82,5.55,18.44-5,19.81-9C402.25,384.61,401.7,384.37,398.1,384.29Z"/><path d="M350.35,381.75c-5.86-5.14-16-2.81-19.12.33.62.56,1.1,1.29,1.57,1.77,2.6,2.6,2,7.14-2.6,8.68-6.68,1.67-15.77-1.49-16.44-9.46-.43.3-.58.95-.32,2.09,1.14,5.15,4.51,11.76,14.35,10.38s12.49-4,14.68-3.8v2.92h11.82A13,13,0,0,0,350.35,381.75Z"/><path class="cls-210" d="M321.44,325.1s10.32,24.21,14,30.25a18.52,18.52,0,0,1,2.49,12.1l-4.54.46.54,5.51-4,.11.82,9.06s14.72-3.48,23.32,7.23c0,0,2.57-7.31,6-19.85s-3.19-43.68-3.19-43.68Z"/><path class="cls-211" d="M356.87,326.29l-35.43-1.19.26.59c15.24,7,29.87,20.57,29.43,38.71-3.09,1.89-7.22,2.18-10.37,3.4,3,1.18,6.44,1.36,9.41,2a18.63,18.63,0,0,1-.05,4.54,18.42,18.42,0,0,1-8.4,1c3.07,2,4.82,5.36,5.57,9.09a19.46,19.46,0,0,1,6.81,5.42s2.57-7.31,6-19.85S356.87,326.29,356.87,326.29Z"/><path class="cls-103" d="M401,330.18c-.16.16-7.47,30.73-8.34,32.43l2.09,1.16-2.32,12.82,2,1.77-1.41,3.69s-28.29-11.84-39.06,9a17.33,17.33,0,0,1-.32-8.57c1-5,1.88-18,.9-25.4s-2.69-27.41-2.69-27.41Z"/><path class="cls-210" d="M392.69,362.61c.87-1.7,8.18-32.27,8.34-32.43l-49.15-.55v0l45.37.51c-.17.16-7.48,30.73-8.35,32.43l2.09,1.16-2.31,12.82,2,1.77-1,2.53c2.08.63,3.34,1.16,3.34,1.16l1.41-3.69-2-1.77,2.32-12.82Z"/><path class="cls-212" d="M379.31,372.73c-6.86-1.89-14.1-1.9-21.35-1.9A46.61,46.61,0,0,1,370.69,358c-4.09.64-8.77.44-12.73-1.94-5.2-2.6-1.73-12.14.87-13.88,12-8,27.66-1.27,40.91-6.94.74-3,1.25-5,1.29-5.08l-49.15-.55s1.72,20,2.69,27.41.09,20.44-.9,25.4A17.33,17.33,0,0,0,354,391a22.69,22.69,0,0,1,4.82-6.4C362,377,370.32,372.55,379.31,372.73Z"/><path class="cls-213" d="M266.32,268s-5.2-.37-5.18-11.43,9.62-12,13.36-7.71S269.93,269.53,266.32,268Z"/><path class="cls-214" d="M264.61,257.3s-8.65-1-12.41-2-6-11.54-4.95-15.53-3.16-2.39-7.44-5.26-3.65-7.79.85-10c0,0,6.14,5.75,10.48,5.63s6.25.25,8,3.36.48,4.79,9,8.27C268.15,241.74,271.53,253.68,264.61,257.3Z"/><ellipse class="cls-106" cx="247.59" cy="243.32" rx="8.55" ry="11.64"/><ellipse class="cls-107" cx="248.17" cy="240.89" rx="6.1" ry="8.31"/><ellipse class="cls-108" cx="248.77" cy="236.93" rx="2.61" ry="3.56"/><path class="cls-214" d="M231.39,238.69a2.41,2.41,0,0,1,.33-1.21,2.49,2.49,0,0,1,1-.77,21.49,21.49,0,0,1,8-2,1.76,1.76,0,0,1,1,.11,1.42,1.42,0,0,1,.59.84,10.73,10.73,0,0,1,.39,3.66,1.54,1.54,0,0,1-.14.77,1.48,1.48,0,0,1-.56.52,22.1,22.1,0,0,1-7.48,3c-1.22.24-1.59-.06-2.16-1.12A7.45,7.45,0,0,1,231.39,238.69Z"/><path class="cls-214" d="M231.2,249a2.6,2.6,0,0,1-1-.49,1.88,1.88,0,0,1-.39-1.92,4.6,4.6,0,0,1,1.13-1.71,19.44,19.44,0,0,1,13-6.06,3.31,3.31,0,0,1,1.47.16,2.35,2.35,0,0,1,1.24,2.42,5.24,5.24,0,0,1-1.21,2.6C242.13,248.23,236.45,250.58,231.2,249Z"/><path class="cls-215" d="M245.38,238.94a3.31,3.31,0,0,0-1.47-.16l-.26,0c.12,5.74-7.58,7.87-12.37,7.08a6.76,6.76,0,0,1-.61-.75,3.89,3.89,0,0,0-.86,1.41,1.88,1.88,0,0,0,.39,1.92,2.6,2.6,0,0,0,1,.49c5.26,1.62,10.93-.73,14.21-5a5.24,5.24,0,0,0,1.21-2.6A2.35,2.35,0,0,0,245.38,238.94Z"/><path class="cls-214" d="M244.11,257.75a4.51,4.51,0,0,1-2.22,0,4.74,4.74,0,0,1-1.78-1.37l-3.06-3.26a11.68,11.68,0,0,1-2.41-3.28,1.23,1.23,0,0,1,0-1.15,1.5,1.5,0,0,1,.42-.33,31.55,31.55,0,0,1,4.87-2.14,41.69,41.69,0,0,1,8.72-2.42c1.18-.16,2.58-.15,3.33.77a2.47,2.47,0,0,1,.34,2.3,5.75,5.75,0,0,1-1.3,2,15.43,15.43,0,0,1-7.58,4.51,14.68,14.68,0,0,0,1.77,1.14,5.89,5.89,0,0,0,2.41.47,5.41,5.41,0,0,0,2.17-.56,7.21,7.21,0,0,1,2.69-.57c.7,0,2.14.38,1.45,1.25-.54.69-2.23.9-3,1.13A58,58,0,0,1,244.11,257.75Z"/><path class="cls-215" d="M268.15,241.74c-6.75-2.75-7.39-4.37-8.21-6.47.11,4.69.59,9.31-1.76,13.22a16.18,16.18,0,0,1-7.79,5.49,3.74,3.74,0,0,0,1.81,1.3c3.76,1,12.41,2,12.41,2C271.53,253.68,268.15,241.74,268.15,241.74Z"/><path class="cls-215" d="M237.52,253.58l2.59,2.77a4.74,4.74,0,0,0,1.78,1.37,4.51,4.51,0,0,0,2.22,0,58,58,0,0,0,6.76-1.53c.8-.23,2.49-.44,3-1.13.69-.88-.75-1.22-1.45-1.25a7.21,7.21,0,0,0-2.69.57,5.41,5.41,0,0,1-2.17.56,6.38,6.38,0,0,1-1.23-.11A17.16,17.16,0,0,1,237.52,253.58Z"/><path class="cls-111" d="M264.61,238.36l-2.69-.57s3.14,14.83-.69,20.14l9.21,1.94S272.88,246.54,264.61,238.36Z"/><path class="cls-211" d="M334.86,223.66s-13.65-.45-17.82,5.46-23,31.46-52.43,9.24c0,0,7.69,14.44,1.71,29.64,0,0,31.39,16.07,51.54-3.46S334.86,223.66,334.86,223.66Z"/><path class="cls-210" d="M331.07,221s-14.62,5.57-20.18,27.45-1.63,37.57-4.57,47a87,87,0,0,1-5.78,14.6s14.57,24.87,45.54,19.33,34.32-11.74,34.32-11.74S407.58,209.55,331.07,221Z"/><path class="cls-104" d="M334.77,220.53c-1.21.13-2.44.28-3.7.47,0,0-14.62,5.57-20.18,27.45s-1.63,37.57-4.57,47a87,87,0,0,1-5.78,14.6,40.18,40.18,0,0,0,6.32,7.65c9.05-21,4.66-45.9,9.46-69.2C318.48,236.93,325.47,227.78,334.77,220.53Z"/><path class="cls-210" d="M344.63,289.22s-4.06,22.31,1.45,40.15c0,0,21.73,11,41.83,7.56s24.72-17.32,25-23.53c0,0-8.22-11.45-9.93-25.73s3.6-48.4,1-53.84-28.08-16.76-28.08-16.76Z"/><path class="cls-216" d="M348.44,280.43l-3.81,8.79s-4.06,22.31,1.45,40.15c0,0,1.27.64,3.47,1.56C345.4,314.58,346,297.11,348.44,280.43Z"/><polygon class="cls-107" points="349.11 203.81 327.76 228.12 332.59 262.9 344.63 289.22 368.2 262.9 378.82 226.02 375.38 208.76 349.11 203.81"/><path class="cls-217" d="M375.38,208.76l-26.27-4.95-21.35,24.31,2.8,20.17c4.67-6.54,10.54-11.93,18.06-13.54l-1.07-.14,1.07.14.67-.14-.67.14a36.12,36.12,0,0,1,23.71,13.83L378.82,226Z"/><path class="cls-218" d="M339.27,233.16l7.6,6.17-8.55,34.32,6.31,15.57,10.58-16.69-5.6-33.12,11.33-8.85S348.19,224.33,339.27,233.16Z"/><path class="cls-209" d="M350.63,238.62l10.31-8.06s-12.75-6.23-21.67,2.6l7,5.67A9.06,9.06,0,0,0,350.63,238.62Z"/><polygon class="cls-209" points="345.24 280.16 344.68 278.99 343.79 280.02 344.68 278.99 339.63 268.38 338.32 273.65 344.63 289.22 355.21 272.53 354.4 267.74 344.68 278.99 345.24 280.16"/><path class="cls-219" d="M328.47,173.56s-6.39-2.71-14-11.8-.35-38.49,42.24-19.15,46.2,55.11,11.65,44.91S328.47,173.56,328.47,173.56Z"/><path class="cls-209" d="M317.34,141c-6.73,6-6.76,16.07-2.85,20.74,7.59,9.09,14,11.8,14,11.8s2.68,1.87,16.38,6.56C330.4,171.21,314.49,161.76,317.34,141Z"/><path class="cls-209" d="M356.73,142.61c-1.37-.62-2.69-1.18-4-1.71,5.4,5.23,8,11.77,6.49,18-2.74,11-17.62,16.73-33.23,12.83-.42-.1-.83-.22-1.24-.33a24.19,24.19,0,0,0,3.71,2.19s5.36,3.75,39.91,14S399.32,162,356.73,142.61Z"/><path class="cls-209" d="M376.13,154.45c20.21,18.44,16.58,38.7-10.5,30.7-25.71-7.6-35.25-11.62-38.45-13.18-.39-.08-.79-.17-1.18-.27s-.83-.22-1.24-.33a24.19,24.19,0,0,0,3.71,2.19s5.36,3.75,39.91,14C396.63,195.86,399.36,173.46,376.13,154.45Z"/><path class="cls-104" d="M331.07,224.65s4.57,45.33,13.56,64.57c0,0-12.73-13.57-22-36l4.05-12.9-6.87-6.11,8.47-16.58Z"/><path class="cls-102" d="M328.26,217.61l-8.47,16.58,2.31,2.05c2.07-5.48,4.71-10.8,7.17-16.1Z"/><path class="cls-102" d="M324,248.85l-1.37,4.35c9.29,22.45,22,36,22,36a72.44,72.44,0,0,1-3.29-8.71C334.4,270.53,328,260.3,324,248.85Z"/><path class="cls-111" d="M343.64,231.86s-5,1.41-10.4,6.92L330.3,221Z"/><path class="cls-111" d="M348.87,231.28s11.59-1.09,18.15,8.42c0,0,13.68-17,3.47-40.85C370.49,198.85,370.14,220.72,348.87,231.28Z"/><path class="cls-214" d="M331.9,174.41s3.68,18.13-15,28.68c0,0,.56,32.28,26.74,30.38s27.71-32.46,27-40.68,5.51-18.7-15.2-23.95S331.15,165.84,331.9,174.41Z"/><path class="cls-215" d="M355.46,168.84c-20.71-5.25-24.31-3-23.56,5.57a24.25,24.25,0,0,1,.11,6.93c3.12,1.8,6.72,1.21,10.34,1.21-1.74,4.33-1.74,8.67.86,12.14,3.34,4.18,9.89,1.12,13.47-2.21q-.63-.64-1.32-1.26.69.61,1.32,1.26l.42-.39-.42.39a23.39,23.39,0,0,1,5.62,23c-2.18,9.46-9.26,15.25-18.14,17.89,25.67-2.27,27.18-32.45,26.5-40.62S376.17,174.09,355.46,168.84Z"/><path class="cls-220" d="M359.43,176.64s3,14.06.57,19.57l2.37.22s4.09-9.14,9.19-11.51c0,0-3.29-8.35-7.83-10.93S359,174.58,359.43,176.64Z"/><path class="cls-221" d="M363.73,174c-4.54-2.57-4.69.59-4.3,2.65,0,0,.07.32.17.89a19.61,19.61,0,0,1,9.09,9.46,11,11,0,0,1,2.87-2.07S368.27,176.57,363.73,174Z"/><path class="cls-222" d="M340.18,212.38s5.2,9.41,2.12,13.31c0,0,8-.77,9.85-4.44s1.6-14.21-.3-17.9S340.18,212.38,340.18,212.38Z"/><path class="cls-223" d="M344.45,225.35c2.52-.5,6.48-1.65,7.7-4.1a10.67,10.67,0,0,0,.82-2.8A16.9,16.9,0,0,0,344.45,225.35Z"/><path class="cls-111" d="M337.43,225.53s3.37-5.11,13.15-2.52C350.58,223,346,226.86,337.43,225.53Z"/><path class="cls-111" d="M332.34,213s3.48,6,10.31,3.57,7.05-9.84,7.05-9.84Z"/><path class="cls-111" d="M353.37,184.47c-2-2.46-8-2.21-10.24,2.82s.16,8.46,5.24,7.75C351.8,194.56,357.69,189.84,353.37,184.47Z"/><path class="cls-111" d="M337.47,190.25a4.86,4.86,0,0,0-3.93-4.7c-3.92-.79-5,4.91-3.36,7.24s5.78,2,6.71.46A4.37,4.37,0,0,0,337.47,190.25Z"/><path class="cls-107" d="M329.06,204.88a18.47,18.47,0,0,1-5.2,3.05s4.6,7.82,16.64,5.93,13.24-15,13.24-15-6.93,3.62-11.91,3.17C341.83,202,340.36,209.86,329.06,204.88Z"/><path class="cls-111" d="M329.06,204.88a18.47,18.47,0,0,1-5.2,3.05,10.73,10.73,0,0,0,1.85,2.15,42.34,42.34,0,0,0,5.56-4.35C330.58,205.5,329.85,205.22,329.06,204.88Z"/><path class="cls-106" d="M351.86,205.19a20.81,20.81,0,0,0,1.88-6.34s-6.93,3.62-11.91,3.17a5.8,5.8,0,0,1-1.08,2.24A50.84,50.84,0,0,0,351.86,205.19Z"/><path class="cls-224" d="M327.72,185.13s2-3,7.3-3.78c0,0,.62-4-3.86-3.74S325.35,182.31,327.72,185.13Z"/><path class="cls-224" d="M348.87,177.87s5.64-.4,7.86,6.54c0,0,3.37-1.26,2-5.31S350.49,173.65,348.87,177.87Z"/><path class="cls-225" d="M326.85,176l-2.35-14.1s33.4-13.1,52.49,19.44l-5.43,3.56S362.84,163.62,326.85,176Z"/><path class="cls-226" d="M373,184c-15.69-25.24-45.54-12-46.78-11.45l-1.06-6.2c.33-.16,33.39-12.1,50.71,15.76Z"/><path class="cls-215" d="M366.69,189.72a19.43,19.43,0,0,1,10.2-6.43,15,15,0,0,1,.47,13.13,3.7,3.7,0,0,1-.89,1.34,3.92,3.92,0,0,1-1.8.76,19.55,19.55,0,0,1-7.77.09"/><circle class="cls-209" cx="346.83" cy="190.06" r="2.57"/><circle class="cls-111" cx="346.83" cy="188.43" r="0.94"/><circle class="cls-209" cx="335.55" cy="190.46" r="2.31"/><circle class="cls-111" cx="335.55" cy="189" r="0.85"/><path class="cls-227" d="M334.86,181a39.27,39.27,0,0,1,2.37,5.58,18.6,18.6,0,0,1,.71,3,6.24,6.24,0,0,1-.27,3.19,7,7,0,0,1-4.73,4.17,8.66,8.66,0,0,1-1.6.29c-.56.05-1,.05-1.49.1a4.81,4.81,0,0,0-1.29.28,1.12,1.12,0,0,0-.68.68,5.63,5.63,0,0,0-.3,1.31,6.34,6.34,0,0,0-.08,1.37,5.45,5.45,0,0,0,.79,2.54A6.26,6.26,0,0,0,333,206a10.41,10.41,0,0,0,5.69-.64,5.55,5.55,0,0,0,3.4-4.44,5.67,5.67,0,0,1-3.12,5,11.1,11.1,0,0,1-6.08,1.07,8.71,8.71,0,0,1-3.09-.76,6.11,6.11,0,0,1-2.52-2.13,6.43,6.43,0,0,1-1-3.13,7.46,7.46,0,0,1,.07-1.64,7.11,7.11,0,0,1,.38-1.62,2.41,2.41,0,0,1,1.39-1.37,6.18,6.18,0,0,1,1.65-.35c.51,0,1.08-.06,1.52-.09a8,8,0,0,0,1.37-.23,6.12,6.12,0,0,0,4.14-3.34,5.49,5.49,0,0,0,.37-2.74,18.26,18.26,0,0,0-.5-2.91A51.43,51.43,0,0,0,334.86,181Z"/><path class="cls-209" d="M326.85,175.42s-9.86,6.74,1.95,5.94c30.44-2.05,34.57-6,34.57-6S346.25,163.36,326.85,175.42Z"/><path class="cls-217" d="M341.19,170.28c-4.84,3.07-10.2,5.69-13.43,11.14l1-.06c2.28-.15,4.39-.32,6.38-.49a39,39,0,0,1,6.6-10.65Z"/><path class="cls-217" d="M343.06,170.13h-.29c-2.26,3.24-2.38,6.9-3.06,10.3,1.52-.16,2.94-.32,4.27-.48A33.51,33.51,0,0,1,343.06,170.13Z"/><path class="cls-228" d="M368.48,191.77a5.4,5.4,0,0,1,3.59-1.67,2.84,2.84,0,0,1,2.89,1.73,9.07,9.07,0,0,0-6.64,1.25,4.54,4.54,0,0,0-1.68,1.77A6.2,6.2,0,0,1,368.48,191.77Z"/><path class="cls-104" d="M372.68,204.17s8.47,30.33-28.05,85.05c0,0,28.76-17.28,39.51-42.74L379,238.36l8.57-6.91A69.8,69.8,0,0,0,372.68,204.17Z"/><path class="cls-102" d="M387.56,231.45a69.8,69.8,0,0,0-14.88-27.28,24.64,24.64,0,0,1,.62,3.88,68.07,68.07,0,0,1,11.55,25.58Z"/><path class="cls-102" d="M350.29,280.34c-1.76,2.89-3.63,5.84-5.66,8.88,0,0,28.76-17.28,39.51-42.74l-1.2-1.89C375.59,259.28,363.77,270.94,350.29,280.34Z"/><path class="cls-103" d="M368.61,311s22.46-3.25,27.89-7.14c0,0,1.19,7.76,1.72,14s-3.41,10.28-14.24,11-13.18-1.93-13.74-5.45S368.61,311,368.61,311Z"/><path class="cls-103" d="M314.27,294.73l21.16,5.49s-.31,13.19-1.09,18.09-6.79,4-12.83,1.88-10.67-3.47-10-8.59S314.27,294.73,314.27,294.73Z"/><path class="cls-215" d="M314.36,284.06s-7.78-4.53-11.76-5.58-6.06.79-6.06.79a21.22,21.22,0,0,0-4.59-.57,2.08,2.08,0,0,0-1.85,2.41s-2.67-.94-3.47.21-.83,1.8.18,2.85,9.28,5.93,18.87,7.14S315.75,284.85,314.36,284.06Z"/><path class="cls-215" d="M323.28,289.36s-12-10.88-18.76-2.69,4.63,10.27,8.91,12.7,10.77-.11,11.25-3.36A12.22,12.22,0,0,0,323.28,289.36Z"/><path class="cls-215" d="M305.7,290.89a12.51,12.51,0,0,0-6.32-.33c-2.92.81-4.38,1.43-4.18,2.8s1.5,3.46,2.88,3.34,7.38-.65,10.71.57l11.43-4.35S312.61,285.56,305.7,290.89Z"/><path class="cls-214" d="M305.7,290.89a12.51,12.51,0,0,0-6.32-.33c-2.92.81-4.38,1.43-4.18,2.8a3,3,0,0,0,.12.55c2.21-2.91,6.07-2.6,9.82-1.65a11.92,11.92,0,0,1,11-2.38C314.17,288.63,310.35,287.31,305.7,290.89Z"/><path class="cls-214" d="M305.5,290.87c.19,0,.38-.08.57-.13a15,15,0,0,1,2.65-1.42,7.93,7.93,0,0,1,4.23-.43,10.47,10.47,0,0,1,5.24,2.66c.36-2.34-1.38-5.29-1.38-5.29s-9.21-5.09-13.62-6.79-5.86-.39-5.46.18,7.5,3.51,7.5,3.51-10.35-3.76-12.09-3.69-1.66,1-1,1.85,7,3.43,7,3.43-8.56-3.07-9.76-3.22-2.17,1.27-.25,2.64,14.52,6.66,14.52,6.66a6.67,6.67,0,0,1,1.19.3A1.43,1.43,0,0,1,305.5,290.87Z"/><path class="cls-111" d="M329.06,286l-9.27-.91s3.79,10.84-.71,17l10.23,1.81S334.09,293.31,329.06,286Z"/><path class="cls-107" d="M329.06,286l-3-.3c.46,5.88-.52,12.9-6.14,15.1a10.79,10.79,0,0,1-.8,1.3l10.23,1.81S334.09,293.31,329.06,286Z"/><path class="cls-104" d="M397.8,285c-20.72,34.8-72.26,23.55-72.26,23.55,5.66-12.1,0-24.14,0-24.14S354,288.6,365.38,280s24.78-37.94,24.78-37.94,1.85-8.83,11.3-9.4c0,0,2.54-.62,2.88,2.54s.71,8-.37,18.8-1.26,19.39-1.28,21.69C402.69,275.7,399,283,397.8,285Z"/><path class="cls-102" d="M358.6,283.27c-1,.3-2,.57-3.06.8,4.92,7.69,4.37,16.66,2.2,25.23q2.73-.39,5.5-1C365,299.61,364.09,290.44,358.6,283.27Z"/><path class="cls-229" d="M377.05,295.34c-15.09,8.39-32.61,11.08-49.43,6.56a26.46,26.46,0,0,1-2.08,6.6S377.08,319.75,397.8,285c1.16-1.95,4.89-9.25,4.89-9.25,0-1.84.14-7.73.74-15.53C399.39,274.86,390.22,288.1,377.05,295.34Z"/><path class="cls-215" d="M309.16,286.59a11,11,0,0,1,3.94-1,4,4,0,0,0-3.28-.13,6.86,6.86,0,0,0-2.69,2c-.15.17-.9,1-.79,1.22.19.45.55-.18.67-.33A6,6,0,0,1,309.16,286.59Z"/><path class="cls-104" d="M341.25,374.81a12.49,12.49,0,0,0-5.74-1.54l-.25-4.7,5.6-1.12h-2s.1-11.08-2.53-15c-2.37-3.55-11.22-23.34-13-27.26l-1.95-.07s10.32,24.21,14,30.25a18.52,18.52,0,0,1,2.49,12.1l-4.54.46.54,5.51-4,.11.82,9.06a24.88,24.88,0,0,1,3.25-.45l-.65-7A46.6,46.6,0,0,1,341.25,374.81Z"/><path class="cls-217" d="M318,384.09s6.07,3.57,11.17.33C329.15,384.42,324.09,390.83,318,384.09Z"/></g></g></g></svg>