<svg xmlns="http://www.w3.org/2000/svg" viewBox="0 0 243.04 511.27"><defs><style>.cls-1{isolation:isolate;}.cls-13,.cls-2{fill:#4496ff;}.cls-3{fill:#dadada;mix-blend-mode:multiply;}.cls-4{fill:#d8a198;}.cls-5{fill:#ffbf23;}.cls-6{fill:#ffd97b;}.cls-7{fill:#f7c0b4;}.cls-8{fill:#bf8f1a;}.cls-9{fill:#413569;}.cls-10{fill:#6249b6;}.cls-11{fill:#352927;}.cls-12{fill:#0b5371;}.cls-13{opacity:0.35;}.cls-14{fill:#a27972;}.cls-15{fill:#fff;}.cls-16{fill:#af7871;}.cls-17{fill:#1d1d1b;}.cls-18{fill:#7d4e24;}.cls-19{fill:#432918;}.cls-20{fill:#843c45;}.cls-21{fill:#a04d5b;}.cls-22{fill:#72030a;}.cls-23{fill:#560208;}.cls-24{fill:#6c514c;}.cls-25{fill:#043d4f;}.cls-26{fill:#312956;}.cls-27{fill:#2d4560;}.cls-28{fill:#8fc0ff;}.cls-29{fill:#576a80;}</style></defs><title>sign-up</title><g class="cls-1"><g id="Layer_2" data-name="Layer 2"><g id="hole"><path class="cls-2" d="M226.9,119.21A100.84,100.84,0,1,0,70.64,203.45L27.39,420.32H224.74L181.49,203.45A100.76,100.76,0,0,0,226.9,119.21Z"/></g><g id="man"><path class="cls-3" d="M222.17,500.11c-4.63-.53-4.56-3-5.06-4.51l4.57.09s6-20.35-75.62-23.4a11.74,11.74,0,0,0-1.22-2.61c-3.13-5.19,9.7-11.13,9.7-11.13-1.36-.17-2.71-.32-4.06-.46,6.87-6.57,16.43-20.75,16.43-20.75,5.25-1.37,35.4-7.42,18.71-7.4s-34.67-7.3-34.67-7.3-8.59,20.37-15,24.63c-7.07,4.66-20,7.63-26.86,4.17-6.68-3.35,4.64-15.18,4.64-15.18h-.25c1.4-.39,2.82-11.51.89-11.6-3.43-.16-52.46-1.21-43.42,3.57,8.28,4.37,20,8.55,24.29,8.75-10.6,10.82-11.43,19.18-11.47,20.95-2,.16-3.08.28-3.08.28-2.13,8,3.62,13.07,9.86,16.12C38.47,478.28,24,495.67,24,495.67l6.15.24c-.6.25-.22.67-.29.95l-.79,3.45a.55.55,0,0,0,0,.36h0c-.26.75,1,1.33,2.71,1.62a32.3,32.3,0,0,0,3.32.32,3.36,3.36,0,0,0-.2.44c-1.08,3.27,6.31,6.14,18,7.46l.17,0,2.5.25h.11l2.6.2h.1c.84.06,1.71.1,2.59.14l.43,0,2.6.08h.43c.92,0,1.84,0,2.78,0,15,0,28.14-2.29,33.31-5.43l127.09,3.61-1.65-5.51a10.75,10.75,0,0,0,2.21.73c2.48.46,2.23,0,2.36-1.37S227.11,500.69,222.17,500.11ZM53,507.69l-.22,0c-.43-.08-.83-.17-1.23-.26l-.35-.07-1.06-.27-.37-.1c-.32-.09-.63-.18-.92-.28l-.31-.11c-.49-.16-.94-.34-1.35-.52-.14-.06-.3-.12-.43-.19s-.28-.15-.41-.22l-.45-.26-.31-.22a3.44,3.44,0,0,1-.36-.28,2.28,2.28,0,0,1-.22-.22,3.76,3.76,0,0,1-.25-.31l-.13-.21a1.45,1.45,0,0,1-.12-.35,1.21,1.21,0,0,1,0-.18,1.3,1.3,0,0,1,0-.55,1.22,1.22,0,0,1,.14-.28l.3-.09a1.11,1.11,0,0,0,.46-.26h.07a26.88,26.88,0,0,0,3.13.09c2.14-.1,3.13-.68,2.41-1.09s-.73-.45-2.55-.67c1.24.09,3.54.24,4.43-.73.22-.23-1-.38-2.09-.49l.08,0a10.93,10.93,0,0,0,2.43-.22c.72-.16.86-.34.81-.51A88.58,88.58,0,0,1,70,497.44c13.18,0,23.58,2.49,23.2,5.61s-11.83,5.85-25.57,5.85c-2,0-4-.07-5.85-.18h0A69.73,69.73,0,0,1,53,507.69Zm160-6.37h1.15l.2,0ZM46.66,496.56c13-12,40.82-16.44,56.14-18.07a4.71,4.71,0,0,0-2.3,1.73c-1.34,2.14-2.42,3.78,2.87,4.49a62.18,62.18,0,0,1,9.68,1.85c-.63.52.47,1.13,2.82,1.41a4.19,4.19,0,0,1,.44.52,33.89,33.89,0,0,1-3.38-.33,10.92,10.92,0,0,0,4,1.17,6.89,6.89,0,0,0,2.1,1.57,12.32,12.32,0,0,0-1.67.77c-8.16-.12-22.7-.81-22.7-.81,4.35,2.84,9,3.76,16.65,4.52,2.28.22,6.12.52,10.69.77h0l4.12.21h.16l2,.09h.1l2.19.08h.11l2,.06h.36c1.41,0,2.83.06,4.24.08h5l1.61,0h.52l1.89-.05h0l1.82-.07.49,0,1.38-.08.39,0,1.61-.13.34,0,1.2-.12.41-.05c.47-.06.94-.12,1.37-.19l1.31-.21.36-.06,1.11-.19.24,0,1.34-.25.24-.05,1.15-.23.27-.06c.91-.19,1.81-.38,2.7-.59l.2-.05q1.36-.31,2.64-.66l.05,0,1.26-.35h0l1.31-.39c1.75.73,5.23,2.15,4.65,1.44-.77-.94-3.68-1.89-1.76-1.76s4.52.52,5.82.42-4.3-.68-4.3-.68-1.94-.16.76-.21,5.75-.26,4.08-.38c-1.07-.07-3.74-.13-5.61-.15,2.8-1.21,4.19-2.45,3-3.57-2-1.87-5.75-3.22-7.88-3.87,1.11-.19,1.83-.47,2-.76s-.58-.87-1.86-1.24a34.49,34.49,0,0,0-8.32-1,37.27,37.27,0,0,0-5.6.29l-.27-.09q-2.62-.85-5.55-1.7a66.7,66.7,0,0,0-8.12-1.67l.49-.11c9.48-.13,52.15.17,55.27,17.51l5.62.11c.56.92,1.76,3.37-.9,4.21-3.31,1-3.78,1.15-3.94,2.2s-.81,1.72,3.28,1.89c3.36.13,1.36-.95,3.62-1.53v4.45L184.84,506l.82-3.28-19-.46,3,3.32-66.94-1.88a2.42,2.42,0,0,0,.17-.64,1.83,1.83,0,0,0,0-.47l0-.15c0-.11-.07-.22-.11-.33l-.07-.15a2.25,2.25,0,0,0-.22-.35l-.07-.11a3.25,3.25,0,0,0-.4-.44l-.07-.06a3.46,3.46,0,0,0-.45-.38.83.83,0,0,0-.15-.11c-.15-.12-.32-.23-.49-.34l-.16-.09a13.51,13.51,0,0,0-1.62-.83l-.09,0-.88-.36-.15-.05-1-.36h0c-.77-.25-1.61-.49-2.5-.72h0l-1.37-.32h0a107.29,107.29,0,0,0-22.39-2.07,115.57,115.57,0,0,0-24.94,2.44l-.74,0c1-.38.43-.85-.87-1.16l-.62-.12Z"/><path class="cls-4" d="M54.27,112.55a7.37,7.37,0,0,1,2.41-5.83c2.12-1.64,5.34-1.32,7.34-3.1a.74.74,0,0,1,.47-.27.72.72,0,0,1,.51.27,6.68,6.68,0,0,1,1.44,1.7,2.31,2.31,0,0,1,.09,2.15c-.73,1.28-2.68,1.12-3.82,2.06S61.56,112,61,113.32a4.87,4.87,0,0,1-4.69,2.75l-.16-.47"/><path class="cls-5" d="M84.06,75.54c-13.75,0-24.9,12.74-24.9,28.45s11.15,28.44,24.9,28.44S109,119.7,109,104,97.81,75.54,84.06,75.54Zm0,48.86c-9.87,0-17.86-9.14-17.86-20.41s8-20.41,17.86-20.41,17.86,9.14,17.86,20.41S93.93,124.4,84.06,124.4Z"/><path class="cls-6" d="M109,104c0-15.71-11.15-28.45-24.9-28.45a23,23,0,0,0-15.49,6.18,22.62,22.62,0,0,1,13.5-4.54c13.75,0,24.9,12.73,24.9,28.44a30,30,0,0,1-9.41,22.26C104.42,122.82,109,114,109,104Z"/><polygon class="cls-5" points="105.68 94.38 105.75 94.37 105.68 93.84 105.68 94.38"/><polygon class="cls-5" points="198.73 81.71 104.98 94.47 104.89 102.26 157.63 95.11 155.84 106.85 169.75 105.19 168.64 93.61 182.46 91.74 183.59 111.03 199.08 109.11 198.73 81.71"/><polygon class="cls-6" points="198.73 81.71 104.98 94.47 104.96 96.43 198.78 86.02 198.73 81.71"/><path class="cls-7" d="M183.18,133.73s1.22-13.18-1.45-17-3-4.22-3.36-8-.92-6.15,2-6.72.45,5.3,4.69,6.53,4.34,3.9,2,6.16l1-4.48,2.9,0s2.81-2.45,5.57-1.62c0,0,2.12-8.76,3.8-10.35s1.62-.11,2.1,4.86-1.75,9.4-5.25,11.48-2.54,12-2.62,17.76S183.18,133.73,183.18,133.73Z"/><path class="cls-8" d="M66.2,104c0-9.61,5.81-17.64,13.63-19.81-9.09.95-16.21,9.68-16.21,20.31,0,11.27,8,20.41,17.86,20.41a15.66,15.66,0,0,0,4.23-.6,14.92,14.92,0,0,1-1.65.1C74.19,124.4,66.2,115.26,66.2,104Z"/><path class="cls-7" d="M54.18,113.87a5.6,5.6,0,0,1,.43-2.44c.66-1.29,2.16-1.86,3.53-2.31l8.64-2.89a4.24,4.24,0,0,1,2.32-.31c1.55.37,2.16,2.43,1.55,3.9s-.63,1.66-2,2.44c.94-.33,2.67-.88,3.14,2.67.13,1-1.19,1.55-2.1,2a1.87,1.87,0,0,1,2.26.69c.87,1,.47,2.23.21,3.14s-4.71,2.28-6.9,2.68a4.13,4.13,0,0,1-.91,4.31,8.8,8.8,0,0,1-4,2.29c-1.58.5-3.86,1.21-5.54.89s-1-2.83-.92-4.33Z"/><path class="cls-9" d="M116,204s-39-9.27-49.62-76.27L49.11,131s7.29,81,57.79,90.31Z"/><path class="cls-10" d="M60.38,176c8.35,20.38,22.57,40.91,46.52,45.31l1.35-2.59C88.09,210.27,70.68,196.35,60.38,176Z"/><path class="cls-9" d="M136.65,203.42s43.74,8.23,42.41-70.63l19-1.81s11.18,85.71-58.9,97.16Z"/><path class="cls-10" d="M138.4,220.72l.75,7.42c32-5.23,47.06-25.95,54-46.93C183.71,203.49,163.64,222.36,138.4,220.72Z"/><path class="cls-11" d="M148.47,422.64s21.26,8.64,37.6,8.72-15.29-10.91-20.65-19.42S147.54,413.35,148.47,422.64Z"/><path class="cls-11" d="M97.55,413.85S80.24,418.34,70,425.38s40.88.35,44.33-.72-2.71-9.56-2.71-9.56S101.65,411.61,97.55,413.85Z"/><path class="cls-12" d="M88.93,294.78s-2,48.11,7.36,119.75l17.77,4.15s-9.75-69.68-3.39-88.1,17.86-2.64,24.42,23c6.26,24.41,13.38,69.07,13.38,69.07l16.95-10.7s-13.27-97.46-19.74-124.49C141.85,271.45,88.93,267.85,88.93,294.78Z"/><path class="cls-12" d="M88.93,294.78s-2,48.11,7.36,119.75l17.77,4.15s-9.75-69.68-3.39-88.1,17.86-2.64,24.42,23c6.26,24.41,13.38,69.07,13.38,69.07l16.95-10.7s-13.27-97.46-19.74-124.49C141.85,271.45,88.93,267.85,88.93,294.78Z"/><path class="cls-13" d="M107.84,323.05c-6.36,18.42,2.74,94.82,2.74,94.82l-14.29-3.34,17.77,4.15s-9.75-69.68-3.39-88.1,17.86-2.64,24.42,23c6.26,24.41,13.38,69.07,13.38,69.07l2.87-1.81s-7.14-45.41-13.72-72C129.75,317,114.21,304.63,107.84,323.05Z"/><path class="cls-9" d="M107.24,201.34s-21.92,17.52-21,93.75c0,0,33.65,20.53,64.72-1.73,0,0-11.57-29.4-9.25-54s.83-37.2-10.32-39.95S110.31,197.87,107.24,201.34Z"/><path class="cls-10" d="M141.7,239.41a137.84,137.84,0,0,0,.76-21.77c-7.06,26.69-2.4,52.56,3.07,79.16a56.85,56.85,0,0,0,5.42-3.44S139.38,264,141.7,239.41Z"/><path class="cls-10" d="M111.1,202.2s-4.74,13.13,5.79,16.61,17.65-11.14,18-14.23S111.1,202.2,111.1,202.2Z"/><path class="cls-14" d="M112.82,203.37s-2.25,9.87,4.7,11.1,12.31-5.14,13.91-9.08S115.62,200.44,112.82,203.37Z"/><path class="cls-7" d="M146,143.24s-15.23-10.59-21.59-1.14-5.18,15.7-6.8,20.71-5.22,8.34-9.43,11.26-3.5,9.72-2.6,18.72,4.17,13.61,13.34,15.47,19.19-2.85,25.27-12.3a113.76,113.76,0,0,0,13.34-28.32C160,159.05,154.36,149.37,146,143.24Z"/><path class="cls-4" d="M157.56,159.11a14.81,14.81,0,0,1-.57,4.07,113.76,113.76,0,0,1-13.34,28.32c-6.08,9.45-16.09,14.15-25.26,12.3-8.26-1.67-11.73-5.58-13-12.89.06.62.12,1.24.19,1.88.89,9,4.17,13.61,13.34,15.47s19.19-2.85,25.27-12.3a113.76,113.76,0,0,0,13.34-28.32A16.14,16.14,0,0,0,157.56,159.11Z"/><path class="cls-15" d="M131,168.54c-2.28,2.67-3.69,6,.7,8.59s10.93,0,10.63-5.22S136.31,162.37,131,168.54Z"/><path class="cls-15" d="M126.07,169.25a6.06,6.06,0,0,0-2.72-8c-5.19-3-8.42,1.85-7.45,5.5S124.22,174.42,126.07,169.25Z"/><path class="cls-16" d="M126.89,160.29a25.63,25.63,0,0,1-.63,9.84l-.25.61c-.09.2-.22.39-.33.59a3.8,3.8,0,0,1-1,1,5.12,5.12,0,0,1-2.47,1.07,4.55,4.55,0,0,1-2.67-.59,7.93,7.93,0,0,0-1-.51.86.86,0,0,0-.71,0A2.23,2.23,0,0,0,117,174a9.31,9.31,0,0,0,0,2.3,8,8,0,0,0,.57,2.19,7.82,7.82,0,0,0,1.22,1.92,5.16,5.16,0,0,0,4,1.81,8.45,8.45,0,0,0,4.48-1.54,8.17,8.17,0,0,1-4.45,2.12,5.89,5.89,0,0,1-4.72-1.76,8.07,8.07,0,0,1-2.24-4.61,10.17,10.17,0,0,1,0-2.59,4.86,4.86,0,0,1,.36-1.34,2.47,2.47,0,0,1,1-1.18,2,2,0,0,1,1.65-.12,11.16,11.16,0,0,1,1.17.6,3.51,3.51,0,0,0,2,.5,4.2,4.2,0,0,0,2-.8,2.9,2.9,0,0,0,.76-.71c.1-.15.21-.29.3-.45l.24-.51a18.22,18.22,0,0,0,1.07-4.65C126.71,163.55,126.81,161.92,126.89,160.29Z"/><circle class="cls-17" cx="122.88" cy="167.64" r="2.73"/><circle class="cls-17" cx="133.7" cy="172.66" r="3.02"/><circle class="cls-15" cx="133.7" cy="170.77" r="1.14"/><circle class="cls-15" cx="122.88" cy="166.09" r="1.14"/><path class="cls-18" d="M158.46,143.67s4.48-10.69,4-7.11-2.55,7.26-1.1,6.75,3.36-2,4.37-1.61-3.17,2.62-3.17,2.62-1.47.61.6.81,4.44,1,3.18,1.45-5.54.78-5.77.52S158.46,143.67,158.46,143.67Z"/><path class="cls-19" d="M115.83,160.11s3.21-2.88,10.46-1.59l-.51-5.22S117.9,153.09,115.83,160.11Z"/><path class="cls-19" d="M144.64,171.74s-.22-4.31-6.24-8.54l2.91-2.38S146.88,166.41,144.64,171.74Z"/><path class="cls-20" d="M158.12,178.76a43.41,43.41,0,0,0,6.81-17.52c1.83-10.89-8.41-24.73-16.87-31.16s-27.38-.8-33.18,2.06-9.4,6.37-13,17.32c0,0,11.19-2.65,17.44-3.15,0,0,4.14,13.1,16.58,17.42a14.72,14.72,0,0,1-2.09-8.77s3.59,7.73,13.75,12.53c0,0-.49,10-3.41,13.69S153.27,173.2,158.12,178.76Z"/><path class="cls-21" d="M114,137.57c3.63-.91,7.26-2.73,10.89-3.64-2.51,5.87-1.15,12.51,2.65,17.78-.69-3.38,1.05-5.16,2.8-7.79,2.73,10,13.62,19.06,24.51,16.34a14.69,14.69,0,0,0,8.86-9.17c-2.88-8.27-9.72-16.48-15.68-21s-17-3.09-25.1-.85A55,55,0,0,0,114,137.57Z"/><path class="cls-7" d="M148.63,180a13.71,13.71,0,0,1,5.26-3.6,6.2,6.2,0,0,1,3.88-.39,4.87,4.87,0,0,1,3.22,4,7.84,7.84,0,0,1-1.31,5.17,9,9,0,0,1-6.49,4.36,6.27,6.27,0,0,1-6.49-3.8"/><path class="cls-22" d="M116.09,186.94s1.34,8.08-6,8.18c0,0,2.45,6.15,11.53,5.09,7.28-.86,12.68-13.76,12.68-13.76L133,185.39s-5.65,4.37-8.75,4.22S118.93,189.74,116.09,186.94Z"/><path class="cls-23" d="M133,185.39s-5.65,4.37-8.75,4.22l-.71,0a4.94,4.94,0,0,1-.39,2.45,16.93,16.93,0,0,1-7.14,7.84,14.57,14.57,0,0,0,5.62.34c7.28-.86,12.68-13.76,12.68-13.76Z"/><path class="cls-15" d="M114.42,183.39a7.37,7.37,0,0,0,0,6.25c1.53,3.55,10.17,5.84,15.13-1.71,0,0-5.8,2.69-10.66.84C115.4,187.43,114.42,183.39,114.42,183.39Z"/><path class="cls-15" d="M109.39,193.82s6.8-1,11,6.49A10.29,10.29,0,0,1,109.39,193.82Z"/><path class="cls-16" d="M114.12,180.65A9.79,9.79,0,0,0,116,186.5a5.85,5.85,0,0,0,2.41,1.8,12.62,12.62,0,0,0,3,.71,13.3,13.3,0,0,0,6.06-.74,15,15,0,0,0,5.2-3.17l.28-.26.28.23,1.32,1.05.27.21-.16.31a58.71,58.71,0,0,1-4.53,7.63,28.13,28.13,0,0,1-2.83,3.46,10.76,10.76,0,0,1-1.75,1.46,9,9,0,0,1-2.1,1,12.14,12.14,0,0,1-8.83-.54A11,11,0,0,1,109,193a13.1,13.1,0,0,0,2.31,3.7,10.48,10.48,0,0,0,3.48,2.5,11.81,11.81,0,0,0,8.38.25,8.93,8.93,0,0,0,1.9-.89,10.85,10.85,0,0,0,1.6-1.37,26.93,26.93,0,0,0,2.71-3.38,72.84,72.84,0,0,0,4.47-7.51l.12.53-1.3-1.07.56,0a15.8,15.8,0,0,1-5.55,3.31,13.61,13.61,0,0,1-6.39.61,12.62,12.62,0,0,1-3.12-.83,6.06,6.06,0,0,1-2.52-2A9.71,9.71,0,0,1,114.12,180.65Z"/><path class="cls-24" d="M150.74,180.47a6,6,0,0,1,2.69-.62,2.59,2.59,0,0,1,2,.63,2.18,2.18,0,0,1,.36,2,12.45,12.45,0,0,1-.86,2,6.52,6.52,0,0,0,.3-1.69,2.15,2.15,0,0,0-.61-1.55,2.54,2.54,0,0,0-1-.49c-1.72-.43-2.67.42-4.2.79A3.86,3.86,0,0,1,150.74,180.47Z"/><path class="cls-25" d="M133.56,304.94a20.31,20.31,0,0,0,2.61,2.56c.48.36,1,.71,1.48,1a11.43,11.43,0,0,0,1.53.89,14.87,14.87,0,0,0,3.4,1,24.27,24.27,0,0,0,3.65.34,10,10,0,0,1-3.74.43,10.66,10.66,0,0,1-3.73-.89,12.26,12.26,0,0,1-3.1-2.25A9.63,9.63,0,0,1,133.56,304.94Z"/><path class="cls-25" d="M90.74,309.53a4.88,4.88,0,0,0,2.7-.65c.85-.42,1.72-.83,2.51-1.31a8.41,8.41,0,0,0,3.73-4,4.65,4.65,0,0,1-1,2.84,7.41,7.41,0,0,1-2.27,2.05,12.74,12.74,0,0,1-2.74,1.18A3.72,3.72,0,0,1,90.74,309.53Z"/><path class="cls-26" d="M135.42,231.05a35.38,35.38,0,0,1-15.21-.89s-1.29,10-1.63,15.11,8.15,7.87,12.57,5.56,4.2-7.45,4.27-9.92S135.42,231.05,135.42,231.05Z"/><path class="cls-27" d="M6.08,60.87a6.5,6.5,0,0,0,6.06,6.51,6.49,6.49,0,0,0-6.06,6.5A6.5,6.5,0,0,0,0,67.38,6.51,6.51,0,0,0,6.08,60.87Z"/><path class="cls-15" d="M121.07,75.54a6.48,6.48,0,0,0,6,6.48,6.48,6.48,0,0,0-6,6.48A6.5,6.5,0,0,0,115,82,6.5,6.5,0,0,0,121.07,75.54Z"/><path class="cls-15" d="M193.93,70.91a5.18,5.18,0,0,0-.24,7.08,5.18,5.18,0,0,0-7.08.25,5.2,5.2,0,0,0,.24-7.09A5.17,5.17,0,0,0,193.93,70.91Z"/><path class="cls-15" d="M61.91,72.8a3.87,3.87,0,0,0-.19,5.3,3.87,3.87,0,0,0-5.3.19A3.89,3.89,0,0,0,56.6,73,3.9,3.9,0,0,0,61.91,72.8Z"/><path class="cls-15" d="M148.19,105.85a3.89,3.89,0,0,0-.19,5.31,3.87,3.87,0,0,0-5.3.18,3.88,3.88,0,0,0,.18-5.31A3.89,3.89,0,0,0,148.19,105.85Z"/><path class="cls-28" d="M141.63,49.08a3.87,3.87,0,0,0-.19,5.3,3.87,3.87,0,0,0-5.3.19,3.9,3.9,0,0,0,.18-5.31A3.9,3.9,0,0,0,141.63,49.08Z"/><path class="cls-27" d="M88.94,0a3.89,3.89,0,0,0-.18,5.31,3.88,3.88,0,0,0-5.31.18A3.88,3.88,0,0,0,83.63.18,3.88,3.88,0,0,0,88.94,0Z"/><path class="cls-29" d="M26.75,182.65a3.88,3.88,0,0,0-.18,5.3,3.89,3.89,0,0,0-5.31.19,3.89,3.89,0,0,0,.18-5.31A3.88,3.88,0,0,0,26.75,182.65Z"/><path class="cls-29" d="M195.87,20.27a3.89,3.89,0,0,0-.19,5.31,3.87,3.87,0,0,0-5.31.18,3.87,3.87,0,0,0,.18-5.31A3.9,3.9,0,0,0,195.87,20.27Z"/><path class="cls-28" d="M124.27,121a3.88,3.88,0,0,0-3.89,3.62A3.88,3.88,0,0,0,116.5,121a3.88,3.88,0,0,0,3.88-3.63A3.89,3.89,0,0,0,124.27,121Z"/><path class="cls-28" d="M88.46,99a3.87,3.87,0,0,0-.19,5.3,3.89,3.89,0,0,0-5.31.19,3.87,3.87,0,0,0,.18-5.31A3.9,3.9,0,0,0,88.46,99Z"/><path class="cls-29" d="M239.4,145.68a3.9,3.9,0,0,0,3.64,3.9,3.9,3.9,0,0,0-3.64,3.9,3.91,3.91,0,0,0-3.65-3.9A3.91,3.91,0,0,0,239.4,145.68Z"/><path class="cls-29" d="M238.51,96.21a3.91,3.91,0,0,0-.18,5.34,3.91,3.91,0,0,0-5.34.18,3.9,3.9,0,0,0,.18-5.34A3.9,3.9,0,0,0,238.51,96.21Z"/></g></g></g></svg>