<svg xmlns="http://www.w3.org/2000/svg" viewBox="0 0 369.42 425.42"><defs><style>.cls-1{fill:#224d5b;}.cls-2{fill:#13223a;}.cls-3{fill:#133340;}.cls-4{fill:#0c2830;}.cls-5{fill:#3f6972;}.cls-6{fill:#4accff;}.cls-7{fill:#71f2ff;}.cls-13,.cls-8{fill:#0b242b;}.cls-9{fill:#390205;}.cls-10{fill:#fff;}.cls-11{fill:#3899bf;}.cls-11,.cls-13{opacity:0.5;}.cls-12{fill:#6ed6ff;}.cls-14{fill:#c6c6c6;}.cls-15{fill:#ededed;}.cls-16{fill:#008d36;}.cls-17{fill:#92e0ff;}</style></defs><title>error-not-found</title><g id="Layer_2" data-name="Layer 2"><g id="back"><circle class="cls-1" cx="184.71" cy="184.71" r="184.71"/><ellipse class="cls-2" cx="185.43" cy="418.08" rx="137.33" ry="7.33"/></g><g id="blue"><path class="cls-3" d="M279.35,115.44s32.32-8.85,31.49-43.6c0,0,21.22,18.4,12.86,46.65s-37.5,39.13-37.5,39.13Z"/><path class="cls-4" d="M310.84,71.84c0,.33,0,.64,0,1,10.64,17.92,11.65,43.21-7.49,56.61A48.66,48.66,0,0,1,283,137.83l3.21,19.79s29.14-10.87,37.5-39.13S310.84,71.84,310.84,71.84Z"/><path class="cls-5" d="M306.12,97.15A17.07,17.07,0,0,0,310,100a14,14,0,0,0,4.41,1.51,7.39,7.39,0,0,0,1.15.15,6.55,6.55,0,0,0,1.17,0h1.17l1.17-.13.59-.07.58-.13,1.17-.24c.77-.18,1.52-.47,2.32-.66-.7.4-1.43.78-2.17,1.12l-1.16.42-.59.2-.6.13a12.78,12.78,0,0,1-5,.16A12.05,12.05,0,0,1,306.12,97.15Z"/><path class="cls-5" d="M299.66,108a18.2,18.2,0,0,0,7.41,8.57A30.77,30.77,0,0,0,318,120.33a20.88,20.88,0,0,1-11.41-2.94,16.43,16.43,0,0,1-4.45-4A13,13,0,0,1,299.66,108Z"/><path class="cls-5" d="M289.35,115.71a31.87,31.87,0,0,0,3,6.49,31,31,0,0,0,4.37,5.57,31.43,31.43,0,0,0,5.5,4.45l1.53.91,1.6.81,1.63.74c.56.2,1.13.41,1.69.64l-1.77-.39-1.74-.54-1.69-.69-1.64-.81a25.42,25.42,0,0,1-10.14-10.31l-.79-1.65-.67-1.7-.51-1.75Q289.52,116.6,289.35,115.71Z"/><path class="cls-5" d="M288.12,113.31s21-11.12,22.72-31.89C310.84,81.42,313.12,103,288.12,113.31Z"/><path class="cls-3" d="M89.57,115.44s-32.32-8.85-31.49-43.6c0,0-21.22,18.4-12.86,46.65s37.5,39.13,37.5,39.13Z"/><path class="cls-4" d="M58.08,71.84c0,.33,0,.64,0,1C47.45,90.73,46.44,116,65.58,129.42a48.56,48.56,0,0,0,20.35,8.41l-3.21,19.79s-29.14-10.87-37.5-39.13S58.08,71.84,58.08,71.84Z"/><path class="cls-5" d="M62.8,97.15a12.05,12.05,0,0,1-8.09,5.3,12.78,12.78,0,0,1-5-.16l-.61-.13-.58-.2-1.16-.42c-.75-.34-1.47-.72-2.17-1.12.79.19,1.54.48,2.32.66l1.17.24.58.13.59.07,1.17.13h1.17a6.55,6.55,0,0,0,1.17,0,7.55,7.55,0,0,0,1.15-.15,13.93,13.93,0,0,0,4.4-1.51A17.12,17.12,0,0,0,62.8,97.15Z"/><path class="cls-5" d="M69.26,108a12.86,12.86,0,0,1-2.45,5.4,16.39,16.39,0,0,1-4.44,4A20.9,20.9,0,0,1,51,120.33a30.65,30.65,0,0,0,10.88-3.79A18.22,18.22,0,0,0,69.26,108Z"/><path class="cls-5" d="M79.57,115.71c-.11.59-.23,1.18-.37,1.77l-.5,1.75-.67,1.7-.79,1.65a25.18,25.18,0,0,1-4.32,5.89,24.85,24.85,0,0,1-5.83,4.42l-1.63.81-1.69.69-1.74.54-1.77.39c.56-.23,1.12-.44,1.69-.64l1.63-.74,1.59-.81,1.53-.91a31.21,31.21,0,0,0,9.87-10A31.91,31.91,0,0,0,79.57,115.71Z"/><path class="cls-5" d="M80.8,113.31s-21-11.12-22.72-31.89C58.08,81.42,55.8,103,80.8,113.31Z"/><path class="cls-6" d="M138.1,272.33S100.6,272.64,85,243s-13.81-92.4-9.77-110.89S87.32,88.84,163.94,90s104.75,8.76,116.47,20.3,17.35,60.28,13,96.36-17.29,64.3-60,68.21"/><path class="cls-6" d="M138.1,272.33S100.6,272.64,85,243s-13.81-92.4-9.77-110.89S87.32,88.84,163.94,90s104.75,8.76,116.47,20.3,17.35,60.28,13,96.36-17.29,64.3-60,68.21"/><path class="cls-7" d="M280.41,110.32C268.69,98.78,240.56,91.19,163.94,90S79.3,113.65,75.26,132.14,69.45,213.42,85,243s53.07,29.3,53.07,29.3l.89,0c-7.77-.46-35.06-3.81-47.47-28.09C77,215.8,78.62,155.45,82.4,137.68s11.26-41.63,82.84-40.5S263.09,105.61,274,116.7s16.22,58,12.13,92.62c-4.07,34.49-16,61.52-55.47,65.5l2.65.07c42.76-3.91,55.67-32.14,60-68.21S292.12,121.86,280.41,110.32Z"/><path class="cls-6" d="M129.6,254.85s.94,14.37-3.32,37.3-13.53,36.27-13.23,64.93,39.32,53.79,39.32,53.79-37.43-10.29-44.56,3.3h61.8s-7.78-17.08,14.31-17.08S197.34,414,197.34,414h59.9S255,400.8,214,408.94c0,0,14.12-4.86,26.56-37.86s-7.47-57.92-10.35-81.64c-2.47-20.36-3.25-41.32-3.25-41.32Z"/><polygon class="cls-8" points="142.37 135.96 175.44 116.33 177.02 126.42 145.1 138.32 142.37 135.96"/><polygon class="cls-8" points="199.77 117.7 197.34 129.18 232.92 141.71 233.19 139.48 199.77 117.7"/><path class="cls-9" d="M186.24,219.86c15.82,0,30.75,3.71,42.69,13.17s18.55,27.35,5.47,31.8-23.31-5.6-29.2-17.34-21-16.3-31.66-11.57-18.65,31.52-38.11,23.37S145.35,219.86,186.24,219.86Z"/><path class="cls-10" d="M172,228l-2.27-6.38a77.48,77.48,0,0,0-19,6.63l3.5,7.12Z"/><path class="cls-10" d="M219.49,235.51l3.19-6.75A62.58,62.58,0,0,0,204,221.64l-2.63,6.88Z"/><path class="cls-11" d="M257.24,414S255,400.8,214,408.94c0,0,14.12-4.86,26.56-37.86a62.45,62.45,0,0,0,3.14-32.91c.09,2.08,1.83,54.56-60,54.56-62.87,0-70.27-45-70.33-45.31-.21,3-.32,6.23-.28,9.66.29,28.67,39.32,53.79,39.32,53.79s-37.43-10.29-44.56,3.3h61.8s-7.78-17.08,14.31-17.08S197.34,414,197.34,414Z"/><circle class="cls-7" cx="179.49" cy="350.17" r="28.82"/><path class="cls-12" d="M128,307.33c10.16-4.33,20-16.18,21.91-22.59s-.61-11.82,4.5-18.21,13.25-9,16.25-9.11,2,5.19-9.23,13.13c0,0,10.71-7.1,14.43-12.2s-6.87-3.48-17.57,2.46-8.84,17.38-9.86,22.49-15.53,21.3-24.68,24.45c-3.71,1.27-6.68,1-7.68-.72h0S117.83,311.67,128,307.33Z"/><path class="cls-6" d="M129.39,267.63s-42.69,34.29-24.34,51.62,51.14-22.87,51.14-22.87,8.22.54,9.22-9c0,0,11.41.48,12.79-2.68s-2.27-7.36-13.86-5.26c0,0,12.07-3.31,14.65-7.27s2.62-8.85-17.56-1.66c0,0,10.71-7.1,14.43-12.2s-6.87-3.48-17.57,2.46-8.84,17.38-9.86,22.49-15.53,21.3-24.68,24.45-13.89-2.93,4.82-18.31"/><path class="cls-7" d="M128,307.33c10.16-4.33,20-16.18,21.91-22.59s-.61-11.82,4.5-18.21,13.25-9,16.25-9.11,2,5.19-9.23,13.13c0,0,10.71-7.1,14.43-12.2s-6.87-3.48-17.57,2.46-8.84,17.38-9.86,22.49-15.53,21.3-24.68,24.45c-3.71,1.27-6.68,1-7.68-.72h0S117.83,311.67,128,307.33Z"/><path class="cls-11" d="M163.5,284.8c-.42,9-8.5,9.62-8.5,9.62s-24.5,30.33-41,26.37c-16.29-3.91-12.81-18.78-12.72-19.16-2,6.29-1.61,12.54,3.77,17.62,18.36,17.33,51.14-22.87,51.14-22.87s8.22.54,9.22-9c0,0,11.41.48,12.79-2.68a3.11,3.11,0,0,0-.09-2.71C178.78,286.47,163.5,284.8,163.5,284.8Z"/><path class="cls-7" d="M172.72,268.07c-2.2.58-4.79,1.39-7.86,2.48,0,0,4.13-1.27,8.14-2.09,3.53-.72,7-1.09,7.45.07.79,1.86-.86,3.89-3.21,5.69a49.51,49.51,0,0,1-9.47,5.26,61.42,61.42,0,0,0,10.4-4,11.85,11.85,0,0,0,4.25-3.29C184.62,268.85,185,264.83,172.72,268.07Z"/><path class="cls-12" d="M229.85,307.33c-10.17-4.33-20-16.18-21.92-22.59s.62-11.82-4.5-18.21-13.25-9-16.25-9.11-1.94,5.19,9.24,13.13c0,0-10.72-7.1-14.44-12.2s6.87-3.48,17.58,2.46,8.84,17.38,9.85,22.49S225,304.6,234.1,307.75c3.7,1.27,6.68,1,7.68-.72h0S240,311.67,229.85,307.33Z"/><path class="cls-6" d="M228.46,267.63s42.69,34.29,24.33,51.62-51.14-22.87-51.14-22.87-8.22.54-9.22-9c0,0-11.4.48-12.78-2.68s2.26-7.36,13.86-5.26c0,0-12.07-3.31-14.66-7.27s-2.61-8.85,17.57-1.66c0,0-10.72-7.1-14.44-12.2s6.87-3.48,17.58,2.46,8.84,17.38,9.85,22.49S225,304.6,234.1,307.75s13.89-2.93-4.83-18.31"/><path class="cls-7" d="M229.85,307.33c-10.17-4.33-20-16.18-21.92-22.59s.62-11.82-4.5-18.21-13.25-9-16.25-9.11-1.94,5.19,9.24,13.13c0,0-10.72-7.1-14.44-12.2s6.87-3.48,17.58,2.46,8.84,17.38,9.85,22.49S225,304.6,234.1,307.75c3.7,1.27,6.68,1,7.68-.72h0S240,311.67,229.85,307.33Z"/><path class="cls-11" d="M194.35,284.8c.42,9,8.5,9.62,8.5,9.62s24.5,30.33,41,26.37c16.29-3.91,12.81-18.78,12.72-19.16,2.05,6.29,1.6,12.54-3.78,17.62-18.36,17.33-51.14-22.87-51.14-22.87s-8.22.54-9.22-9c0,0-11.4.48-12.78-2.68a3,3,0,0,1,.09-2.71C179.06,286.47,194.35,284.8,194.35,284.8Z"/><path class="cls-7" d="M185.13,268.07c2.19.58,4.79,1.39,7.86,2.48,0,0-4.13-1.27-8.15-2.09-3.52-.72-7-1.09-7.45.07-.79,1.86.87,3.89,3.22,5.69a49.51,49.51,0,0,0,9.47,5.26,61.42,61.42,0,0,1-10.4-4,11.9,11.9,0,0,1-4.26-3.29C173.23,268.85,172.88,264.83,185.13,268.07Z"/><path class="cls-13" d="M227.77,142.06c-5.09-7.69-12.07-14.59-21-16.77-5.73-1.39-11.4,6.32-18.84,6.32-8.56,0-8.55-6.5-12.68-7.81a7.93,7.93,0,0,0-3.9.06A65.69,65.69,0,0,0,150,132.14l-3.09,2.4c-29.54,44.86-11.42,70.63-9,72.63.23.29.45.58.7.86,9.07,10.36,25.27,9.33,35.07,1.89,7.73-5.89,9.95-15.79,12-27.14,0,0-2.24,13.08,5.33,22.8,4.67,6,13.6,10,24.25,8.17C241.78,209.25,246.84,170.91,227.77,142.06Z"/><path class="cls-14" d="M185.31,177.08c-.48,20.87,10.1,31,23.44,31.29s24.37-9.32,24.84-30.19S220.5,142,207.17,141.72,185.79,156.22,185.31,177.08Z"/><path class="cls-15" d="M185.41,172.63C185,190.9,195.6,199.8,208.94,200.1s24.34-8.09,24.75-26.37-13.19-31.71-26.52-32S185.83,154.36,185.41,172.63Z"/><circle class="cls-16" cx="200.15" cy="180.7" r="11.04"/><circle class="cls-9" cx="200.15" cy="180.7" r="5.72"/><circle class="cls-10" cx="200.3" cy="174.09" r="2.51"/><path class="cls-14" d="M185.81,181.07c-2.76,20.68-14.78,29.05-28,27.29s-22.63-13-19.88-33.67,18.53-33.7,31.75-31.94S188.56,160.38,185.81,181.07Z"/><path class="cls-15" d="M186.39,176.65c-2.41,18.12-14.27,25.27-27.49,23.51s-22.79-11.76-20.38-29.88,17.94-29.29,31.16-27.53S188.81,158.53,186.39,176.65Z"/><circle class="cls-16" cx="170.58" cy="182.35" r="11.04"/><circle class="cls-9" cx="170.58" cy="182.35" r="5.72"/><circle class="cls-10" cx="171.46" cy="175.79" r="2.51"/><ellipse class="cls-17" cx="107.25" cy="126.35" rx="14.63" ry="13.92" transform="translate(-58.26 134.82) rotate(-52.6)"/><ellipse class="cls-17" cx="95.39" cy="151.3" rx="9.76" ry="9.28" transform="translate(-82.74 135.19) rotate(-52.6)"/><ellipse class="cls-17" cx="115.54" cy="151.1" rx="5.8" ry="5.52" transform="matrix(0.61, -0.79, 0.79, 0.61, -74.68, 151.12)"/><ellipse class="cls-10" cx="165.95" cy="155.64" rx="15.27" ry="10.67"/><ellipse class="cls-10" cx="208.26" cy="154.31" rx="15.27" ry="10.67"/></g></g></svg>