<svg xmlns="http://www.w3.org/2000/svg" viewBox="0 0 369.42 425.42"><defs><style>.cls-1{fill:#224d5b;}.cls-2{fill:#13223a;}.cls-3{fill:#be1622;}.cls-4{fill:#e94e1b;}.cls-5{fill:#5f0b11;}.cls-6{fill:#f39200;}.cls-7{fill:#ffb65f;}.cls-8{fill:#390205;}.cls-9{fill:#fff;}.cls-10{fill:#ffd69f;}.cls-11{fill:#b66e00;}.cls-12{fill:#dadada;}.cls-13{fill:#ededed;}.cls-14{fill:#f7ac34;}.cls-15{fill:#ffb052;}</style></defs><title>error-server</title><g id="Layer_2" data-name="Layer 2"><g id="back"><circle class="cls-1" cx="184.71" cy="184.71" r="184.71"/><ellipse class="cls-2" cx="215.35" cy="418.08" rx="137.33" ry="7.33"/></g><g id="red"><path class="cls-3" d="M141.6,103.15C113,87.31,75.44,89.27,48.62,108c7.83-2.08,13.18-2.25,21.23-3.08-4.64,1.3-8.49,4.54-11.85,8a77.62,77.62,0,0,0-21.54,50.71c4.24-6.75,9.82-11.73,16.25-16.45-3,2.82-4.21,7-5,11-2.76,14.06-1.12,29.67,7.71,41,1.76-7.17,3.33-16.52,5.8-23.47,4,9.36,8.35,19.2,16.66,25.06-1.11-6.66-1.44-15.1.47-21.57,1.66,3.68,5.09,8.57,7.39,11.89-1.87-6.75,2.18-13.91,7.64-18.29s12.21-6.78,18.39-10.07c10.16-5.39,22.16-8.16,31.28-15.18,4.68-3.6,9-8,10.88-13.63C157.4,123.56,151.13,108.42,141.6,103.15Z"/><path class="cls-4" d="M115.91,103.42c14.65,1.54,27.52,7.86,38.14,17.54-1.83-7.4-6.51-14.52-12.45-17.81C113,87.31,75.44,89.27,48.62,108c7.83-2.08,13.18-2.25,21.23-3.08-4.64,1.3-8.49,4.54-11.85,8a77.62,77.62,0,0,0-21.54,50.71c4.24-6.75,9.82-11.73,16.25-16.45-3,2.82-4.21,7-5,11-2.76,14.06-1.12,29.67,7.71,41,1.76-7.17,3.33-16.52,5.8-23.47,4,9.36,8.35,19.2,16.66,25.06-1.11-6.66-1.44-15.1.47-21.57,1.66,3.68,5.09,8.57,7.39,11.89-1.87-6.75,2.18-13.91,7.64-18.29s12.21-6.78,18.39-10.07l1.17-.59c-11.66,1.9-22.64,5.56-31.86,13.18a25.31,25.31,0,0,1-4.4-11,44.68,44.68,0,0,0-6.51,18.32,69.5,69.5,0,0,1-8-23.94A58.54,58.54,0,0,0,54.76,167c-.38-15.1,2.93-31.49,13.15-43.57a72.38,72.38,0,0,0-12.1,3.84C68.59,107.75,94.05,101.52,115.91,103.42Z"/><path class="cls-3" d="M211,102.75c22.9-23.35,59.45-32.2,90.49-21.93-8.09.25-13.27,1.62-21.22,3.12,4.82-.08,9.43,1.93,13.64,4.29a77.68,77.68,0,0,1,35.14,42.44c-6-5.26-12.77-8.43-20.28-11.12,3.65,1.86,6,5.49,7.93,9.12,6.67,12.68,9.56,28.11,4.32,41.45-3.73-6.37-7.91-14.88-12.26-20.83-1.14,10.1-2.52,20.78-8.81,28.77-.84-6.7-2.93-14.88-6.61-20.53-.54,4-2.43,9.66-3.69,13.5-.14-7-6.06-12.71-12.55-15.35s-13.63-3-20.49-4.39c-11.29-2.27-23.57-1.49-34.32-5.61-5.51-2.11-10.92-5.14-14.32-10C201.74,126.82,203.42,110.52,211,102.75Z"/><path class="cls-4" d="M235.74,95.67c-13.6,5.66-24.12,15.39-31.54,27.71-.35-7.62,2.09-15.78,6.84-20.63,22.9-23.35,59.45-32.2,90.49-21.93-8.09.25-13.27,1.62-21.22,3.12,4.82-.08,9.43,1.93,13.64,4.29a77.68,77.68,0,0,1,35.14,42.44c-6-5.26-12.77-8.43-20.28-11.12,3.65,1.86,6,5.49,7.93,9.12,6.67,12.68,9.56,28.11,4.32,41.45-3.73-6.37-7.91-14.88-12.26-20.83-1.14,10.1-2.52,20.78-8.81,28.77-.84-6.7-2.93-14.88-6.61-20.53-.54,4-2.43,9.66-3.69,13.5-.14-7-6.06-12.71-12.55-15.35s-13.63-3-20.49-4.39l-1.3-.24c11.72-1.5,23.29-1.13,34.3,3.54a25.35,25.35,0,0,0,1.07-11.84,44.69,44.69,0,0,1,11.47,15.7,69.54,69.54,0,0,0,.84-25.23,58.64,58.64,0,0,1,9.47,5.9c-3.94-14.58-11.8-29.34-25-38a73.11,73.11,0,0,1,12.69.23C282.33,86.31,256.15,87.6,235.74,95.67Z"/><polygon class="cls-5" points="270.73 187.53 295.07 198.18 274.84 216.22 270.73 187.53"/><polygon class="cls-5" points="98.16 203.29 73.63 222.27 104.37 231.8 98.16 203.29"/><path class="cls-6" d="M277.05,413.07s20.14-72.41,4.27-191.9h0c-4.37-58.35-19.38-86.38-27.68-94.11-6.64-6.17-42.49-11.1-86.09-6.43S99.27,135.48,92.7,148.91s-2.78,29,0,69.17c2.16,31.19,7.7,73.75,11.67,97.27,0,0,6.84,50.77,36.53,98.17,0,0-15.33-2.74-22.51,4.74h42.39s1-29.3,42.87-31.75,65.63,31.75,65.63,31.75h31.49S293.35,410.7,277.05,413.07Z"/><path class="cls-7" d="M135.15,132.81c35.4-11.14,71.72-13.14,105.62-2.6,21.36,6.64,23.55,20.45,31.25,34.67-6-21.3-13.42-33.19-18.38-37.82-6.64-6.17-42.49-11.1-86.09-6.43S99.27,135.48,92.7,148.91c-3.39,6.91-4,14.41-3.46,25.53,2.56-13.12,5.88-20.92,13.82-27C114.05,139,124.42,136.39,135.15,132.81Z"/><path class="cls-8" d="M196.65,189.28c-18.59,2.52-28.45-.54-37.58-6.71s-18.51-11.69-33.72,5.71S110.24,232,126,228.59s39.91-20.85,54.79-19.47,28.74,16.16,46.14,15.61,32-18.85,22.74-40.2-17.71-20.43-25.19-14.73S212.41,187.14,196.65,189.28Z"/><path class="cls-9" d="M181.51,201.42a53.77,53.77,0,0,0,34-15.85l1.56-8.29c-4.66,5.19-10.15,10.61-20.42,12-18.59,2.52-28.45-.54-37.58-6.71-3.86-2.62-7.78-5.09-12.16-5.78l1.67,9.26S159.89,203.15,181.51,201.42Z"/><ellipse class="cls-10" cx="252.7" cy="241.9" rx="5.51" ry="6.46"/><ellipse class="cls-10" cx="262.42" cy="230.79" rx="4.21" ry="5.37"/><ellipse class="cls-10" cx="264.32" cy="247.34" rx="3.81" ry="4.64"/><path class="cls-11" d="M130.64,144.19s1.81,21.82,21.52,23.63a27.5,27.5,0,0,0,27.37-14.36s13.48,15.88,29.06,12,20.62-19.2,21-31.17S157.91,110,130.64,144.19Z"/><path class="cls-12" d="M178,124.09c.78,22.48,12.79,32.72,27.16,32.22s25.64-11.55,24.86-34-16.33-38.09-30.7-37.6S177.19,101.61,178,124.09Z"/><path class="cls-13" d="M177.81,119.3c.68,19.68,12.65,28.6,27,28.1s25.69-10.22,25-29.91-16.16-33.3-30.53-32.81S177.12,99.61,177.81,119.3Z"/><circle class="cls-14" cx="194.17" cy="127.07" r="11.9"/><circle class="cls-8" cx="194.17" cy="127.07" r="6.17"/><circle class="cls-9" cx="193.92" cy="119.94" r="2.7"/><path class="cls-12" d="M178.76,128.35c-1.68,22.43-14.1,32.18-28.43,31.1s-25.16-12.56-23.48-35S144.69,87.05,159,88.12,180.44,105.92,178.76,128.35Z"/><path class="cls-13" d="M179.12,123.56c-1.48,19.65-13.79,28.08-28.13,27s-25.25-11.24-23.78-30.89S144.69,87.05,159,88.12,180.59,103.92,179.12,123.56Z"/><circle class="cls-14" cx="162.46" cy="130.68" r="11.9"/><circle class="cls-8" cx="162.46" cy="130.68" r="6.17"/><circle class="cls-9" cx="162.99" cy="123.57" r="2.7"/><polygon class="cls-5" points="123.93 93.02 165.45 73.55 160.58 64.09 123.93 93.02"/><polygon class="cls-5" points="224.95 80.33 186.18 62.42 184.71 70.82 222.82 82.26 224.95 80.33"/><ellipse class="cls-15" cx="193.15" cy="304.07" rx="54.28" ry="57.96"/><path class="cls-11" d="M277.05,413.07s14.83-53.32,9-143.95c.4,7.18,4.24,105-87.32,108.71-76.53,3.13-94.51-66.1-98.35-88.83,1.38,10,2.76,19.08,4,26.35,0,0,6.84,50.77,36.53,98.17,0,0-15.33-2.74-22.51,4.74h42.39s1-29.3,42.87-31.75,65.63,31.75,65.63,31.75h31.49S293.35,410.7,277.05,413.07Z"/><ellipse class="cls-9" cx="156.29" cy="99.81" rx="14.79" ry="10.02"/><ellipse class="cls-9" cx="200.96" cy="96.69" rx="14.79" ry="10.02"/></g></g></svg>