<svg xmlns="http://www.w3.org/2000/svg" viewBox="0 0 1553 686">
  <defs>
    <style>
      .cls-2{fill:none}.cls-4{fill:#051323}.cls-10{opacity:.5}.cls-5{fill:#07a}.cls-7{fill:#5c9e32}.cls-10,.cls-8,.cls-9{fill:#ffde76}.cls-8{opacity:.1}.cls-9{opacity:.2}.cls-12{fill:#dd711f}.cls-13{fill:#f2842a}.cls-14{fill:#ff9739}.cls-16{fill:#ffc23b}.cls-17{fill:#edaa24}.cls-18{fill:#fff}.cls-19{fill:#060610}
    </style>
  </defs>
  <g id="Layer_2" data-name="Layer 2">
    <g id="all">
      <!-- <rect width="1553" height="686" rx="50" fill="#2e475e"/> -->
      <path class="cls-2" d="M1484.61 529.27l11.92.34a49.78 49.78 0 01-4.3-8.61q-3.99 4.53-7.62 8.27zM1148.16 514.55c-12.32.72-24.27-3.18-31.87-10.29a161.33 161.33 0 01-13.69-14.66q-.13 1-.21 2.1a67 67 0 008.72 39.6q19.25-.79 39.43-1.44a27.34 27.34 0 006.56-15.94q-4.42.36-8.94.63zM1173.87 529.17l4.15-.11q-1.55-1.6-3.17-3.35c-.27 1.17-.6 2.29-.98 3.46zM1098.78 353.52c.27.43.53.86.79 1.29-.27-1.44-.58-2.85-.91-4.24-.86-2.29-1.7-4.6-2.5-6.92s-1.57-4.64-2.29-7l-10.67-3.79q1.77 2 3.47 4.09a174.05 174.05 0 0112.11 16.57zM1067.11 358.49c6.4 13.14 17.34 23.44 27 36.4q1.82 2.44 3.53 5.05c.39-.78.77-1.58 1.13-2.37a101.65 101.65 0 002.64-23.29v-2.2a67.93 67.93 0 00-6.51-16.26 173 173 0 00-10.59-17q-2.71-3.84-5.63-7.54l-5.11-1.81a22 22 0 00-15.45.28c.38 2.73.89 5.43 1.51 8.1a87.77 87.77 0 007.48 20.64zM1006.69 409.34a79.57 79.57 0 01-6.77 16c.42.95.82 1.9 1.2 2.87a65.1 65.1 0 015 24.72 41.79 41.79 0 01-2.19 13 45.86 45.86 0 01-6 11.55l1.84 1.28a66.27 66.27 0 017 5.77 58.66 58.66 0 016.07 6.89 51.48 51.48 0 015.58 9.13 53 53 0 012.76-16.41 65.38 65.38 0 019.34-17.65 28 28 0 01-4.36-7.86c-.16-.46-.31-.91-.45-1.37l-.08-.29q-.16-.54-.3-1.08v-.17c-.1-.4-.19-.8-.27-1.21a1.55 1.55 0 010-.21c-.07-.39-.14-.78-.2-1.17v-.06a27.77 27.77 0 012.22-15.38c-6.42-8.47-13.84-16.93-19.51-27-.4-.44-.64-.9-.88-1.35zM1038.08 510a101.92 101.92 0 003.24-12.29 89.75 89.75 0 001.56-22.12 49.15 49.15 0 00-5.83 13.33 35.28 35.28 0 00-.35 16.24 44.25 44.25 0 001.38 4.84zM1009.33 395.11a55.11 55.11 0 005.83 10.84c5.28 7.78 12.18 14.63 19.07 22.06a27.58 27.58 0 018.71-5.05l37.35-13.42c2.3-.82 4.7-1.55 7.17-2.2-1-1.87-2.12-3.73-3.31-5.58-3.93-6.17-8.66-12.19-13.2-18.6a108.78 108.78 0 01-12-20.82 96.13 96.13 0 01-6.73-23.08c-.3-1.8-.54-3.62-.74-5.44L1006.55 372a58.08 58.08 0 012.78 23.11zM1059.28 500.29v.09a98.09 98.09 0 0110.12-22.14c1.43-2.4 2.89-4.72 4.34-7l-11.91 4.27a27.13 27.13 0 01-2.67.81 109.81 109.81 0 01.12 23.97zM974.11 465.88l-.33.69c.19.16.37.33.57.49-.09-.39-.16-.79-.24-1.18z"/>
      <path class="cls-2" d="M996.74 463.2a34.52 34.52 0 002.78-10.63 59.21 59.21 0 00-2.44-22.44c-.33.52-.66 1-1 1.54a153.81 153.81 0 00-8.33 13.43 31.13 31.13 0 00-3.75 13.46 17.22 17.22 0 00.9 6.15 14.78 14.78 0 003.08 5 26.64 26.64 0 002.82 2.64 38.32 38.32 0 005.94-9.15zM945.53 519.76a24.3 24.3 0 00-1.66 10.51 18 18 0 002.78 7.73 33.3 33.3 0 003.63 3.87l1.63-.16a68.31 68.31 0 01-2.71-6.66 77.93 77.93 0 01-3.67-15.29zM1333.66 437h-4.5 4.5zM940.15 478.2c4.73-7.31 9.11-14.25 11.49-21.53a31 31 0 001.47-13.95 155.62 155.62 0 01-18.33 18.42c-4.6 4.09-9.14 8.21-13.26 12.49.31.89.63 1.78.89 2.67 3.05 10.34 3.41 21 2.41 31.29a.22.22 0 000 .08 82 82 0 018.5-18.61c2.14-3.59 4.37-7 6.54-10.39a16.24 16.24 0 00-3.49-1.37 16.6 16.6 0 013.78.9zM966 500.77a52.62 52.62 0 017.78-11.21c1.71-1.89 3.45-3.65 5.19-5.35-2.9-2.85-5.86-5.74-8.74-8.84l-.55-.6c-2 3.92-3.85 7.72-5.3 11.49a64.38 64.38 0 00-2.19 7 57.33 57.33 0 00-1.13 7.14 53.52 53.52 0 00.61 14.79c.05-.34.08-.68.13-1a49.77 49.77 0 014.2-13.42zM1056.73 515.26a121.94 121.94 0 01-4.69 15.36c.89.81 1.8 1.61 2.76 2.38.41.32.83.62 1.25.93l3.38-.18c-.48-1.46-.9-2.93-1.27-4.42a59.19 59.19 0 01-1.43-14.07zM1022.87 523.23a33.06 33.06 0 01-.75 4.89 36.46 36.46 0 01-2.69 8l5.76-.38a94.52 94.52 0 002.27-3.37 69.09 69.09 0 01-4.59-9.14zM1084.41 489.23c0-.26.1-.53.15-.79a73.41 73.41 0 00-6.54 17.74 43.42 43.42 0 00-.88 9.09 38.31 38.31 0 001.5 8.71 36.58 36.58 0 003.91 8.59l5.53-.27a92 92 0 01-4.56-21 86.86 86.86 0 01.89-22.07zM999.24 521.18a39 39 0 00-.83-8.39 32.21 32.21 0 00-2.69-7.94 56.34 56.34 0 00-9.49-13.23c-1.39 1.64-2.73 3.27-4 4.92a41 41 0 00-5.25 9.18 37.13 37.13 0 00-2.12 9.94 42.05 42.05 0 00.81 10.2 43.15 43.15 0 003.44 9.55 40.2 40.2 0 002.23 3.61q6.86-.57 14-1.12c.45-.31.89-.63 1.33-1a55.79 55.79 0 002.57-15.72zM967.73 418.29a31.39 31.39 0 00-2.81 3.54 52.11 52.11 0 01-3.73 8.88 42.27 42.27 0 013.42 25.86l.42.6c1-1.75 1.83-3.5 2.61-5.26a45.36 45.36 0 003.87-14.25c1-10-1.07-20.54-4.29-30.75q-.45-1.4-.93-2.79a37.4 37.4 0 01-.49 14.41c-.14.66-.31 1.31-.49 2 .78-.82 1.58-1.53 2.42-2.24zM945.94 498.3c0-.21.08-.41.11-.61a62.06 62.06 0 00-5.49 14.85 13.23 13.23 0 00-.37 2c1.65-2.93 3.38-5.65 4.86-8.38a69.59 69.59 0 01.89-7.86zM957 423.27a39.06 39.06 0 002.61-6.33 31.68 31.68 0 00.88-15.51 54.58 54.58 0 00-5.81-15.24 147.46 147.46 0 00-8.9-14.31 151.46 151.46 0 00-22.4-25.23c-.18 2-.31 3.91-.32 5.87a74.88 74.88 0 002 18.54 73.89 73.89 0 006.32 17.38c5.38 11 14.57 19.7 22.68 30.58 1.03 1.37 2.03 2.78 2.94 4.25zM871.41 511.42a47.43 47.43 0 00-8-11.09c-1.17 1.37-2.29 2.73-3.31 4.11a34.54 34.54 0 00-4.41 7.71 31.33 31.33 0 00-1.78 8.36 34.75 34.75 0 00.68 8.57 36 36 0 002.89 8 33.41 33.41 0 004.8 6.74 28.94 28.94 0 006 4.58c3.61-7.49 6-15.48 6.07-23.28a32.43 32.43 0 00-.7-7 27.07 27.07 0 00-2.24-6.7zM922.67 520.17a101.09 101.09 0 01-3.94 12.91c.76.69 1.53 1.36 2.33 2a55.29 55.29 0 004.89 3.48 54.9 54.9 0 01-2.07-6.56 49.75 49.75 0 01-1.21-11.83z"/>
      <path class="cls-2" d="M1327.53 606.88c-268.42 0-486-17.85-486-39.87 0-4.49 9.06-8.81 25.74-12.84H867l-1.32-.62.24-.43-.64 1h-12.37c-.38-.43-.78-.85-1.14-1.29a46.83 46.83 0 01-6.07-10.43 49 49 0 01-3-11.45 46.75 46.75 0 01.17-11.76 41.34 41.34 0 013.55-11.19 44.52 44.52 0 016.54-9.42c1.43-1.59 2.9-3.06 4.36-4.49-2.43-2.39-4.92-4.83-7.34-7.43-4.08-4.34-8-9.33-10.27-15.18a27.72 27.72 0 01-1.41-4.48 23.92 23.92 0 01-.71-4.6 28.68 28.68 0 01.92-9.08 27.8 27.8 0 019.39-14.65c-7.93 8.48-9.25 21.65-3.6 30.59 2.64 4.6 6.54 8.37 10.89 11.81 2.79 2.23 5.75 4.36 8.77 6.57 1.15-1.17 2.26-2.34 3.3-3.56a32.5 32.5 0 005-7.68 29.06 29.06 0 002.34-8.93 49.92 49.92 0 00-2.16-19.24c-3.77-12.74-11.12-24.68-14.83-37.81 4.88 12.75 13.13 23.63 18.33 36.61a54.48 54.48 0 014.2 20.77 35.12 35.12 0 01-1.84 10.94 39.23 39.23 0 01-5.2 9.87c-.93 1.31-1.91 2.56-2.89 3.77a59.83 59.83 0 0112.12 12.53 44.76 44.76 0 017.22 18.93 64.11 64.11 0 01-.36 19.77c-.17 1.08-.4 2.14-.61 3.2a84.06 84.06 0 009.49-12.24 53.81 53.81 0 01-7.28-20.46 44.51 44.51 0 012-20.08 56.48 56.48 0 019.36-16.83c1.72-2.17 3.54-4.2 5.4-6.14-.51-1.21-1.06-2.41-1.68-3.6a82.5 82.5 0 00-7.36-11.37c-5.57-7.49-12.21-14.88-17.22-23.8a51.63 51.63 0 01-5.57-14.39 49.17 49.17 0 01-.64-15.23 73.53 73.53 0 013.12-14.53 92 92 0 015.45-13.61c4.34-8.7 10.59-16.81 19-21.58-8 5.51-13.26 13.88-16.71 22.62a89 89 0 00-4.09 13.56 69.79 69.79 0 00-1.74 13.87 43.75 43.75 0 001.73 13.38 45.51 45.51 0 005.9 11.94c5.1 7.5 12 14 18.59 21.34a94.81 94.81 0 019.38 12.06c.23.35.45.71.68 1.07 3.93-3.34 8-6.45 11.93-9.5 8.1-6.12 15.85-12.46 22-20-.1-.23-.19-.45-.3-.68a58.62 58.62 0 00-4.36-7.83c-3.3-5.18-7.27-10.25-11.09-15.63a91.43 91.43 0 01-10.12-17.5 83.23 83.23 0 01-6.48-39.4 79.82 79.82 0 0123.91-50.6 5.44 5.44 0 015.43-5.31 4.93 4.93 0 01.55 0 75.12 75.12 0 0111.38-7.55 75.12 75.12 0 00-10.3 7.77 5.43 5.43 0 11-6.79 6.89 77.33 77.33 0 00-18.78 43.14 151.59 151.59 0 0124.42 23.7A147.82 147.82 0 01958 384.27q1.22 1.91 2.34 3.9c-1.56-4-3.12-8.08-4.54-12.2-3.65-10.5-6.55-21.7-6-33a53.72 53.72 0 013.08-16.49 38.88 38.88 0 018.73-14.06 38.27 38.27 0 00-7.52 14.45 51.82 51.82 0 00-1.75 16.1c.35 10.85 3.91 21.21 8.23 31.17s9.59 19.69 13.85 30.19 7.52 21.79 7.26 33.92c2.65-3.93 5.52-7.48 8.2-11 1.51-1.91 2.92-3.88 4.25-5.9-4.71-12.15-11.19-24-14.8-36.7 4.46 11.64 11.28 22 17 33.13a69.31 69.31 0 006.85-16.26 59.2 59.2 0 01-2.37-8 58.26 58.26 0 01-.83-17.24 27.93 27.93 0 01-25-.38 27.59 27.59 0 01-6.22-4.41 27.87 27.87 0 01-2.18-2.29c-.4-.47-.78-1-1.14-1.45-.1-.12-.19-.25-.28-.38-.31-.43-.61-.87-.89-1.32l-.13-.19c-.33-.53-.63-1.06-.91-1.59l-.15-.28c-.26-.49-.5-1-.72-1.5 0-.05 0-.11-.08-.16a27.93 27.93 0 017.5-32.48l22.44-19.07c22.86-60.27 44.61-94.91 59.19-113.63a47.82 47.82 0 0141.48-18.37c7 .57 14 1.34 20.74 2.25a384 384 0 0127.08-40.24 65.92 65.92 0 0157.17-25.31c15.74 1.26 31.17 3.27 45.67 5.64a107.67 107.67 0 0179.74-35.33h12.52a107.65 107.65 0 0180.23 35.86c15.43-2.6 32-4.82 48.9-6.17a65.9 65.9 0 0157.16 25.31 382.41 382.41 0 0127.08 40.24l3.81-.5V50a50 50 0 00-50-50H50A50 50 0 000 50v586a50 50 0 0050 50h1453a50 50 0 0050-50v-33.66c-67.39 2.9-144.09 4.54-225.47 4.54zm37.11-579.66a41.44 41.44 0 0121.75.5 15.6 15.6 0 00-2.5-3.57c-.44-.47-4.9-4.35-5.46-3.68a20.33 20.33 0 016.26-5.06 2.78 2.78 0 011.9-.44 3 3 0 011.57 1.42 20.74 20.74 0 013.32 6.52 14.55 14.55 0 01-.17 6.75c5.78 2.83 11.48 7.65 15.93 15.71 0 0-23.23 17.38-43.66-13.51l-7.64 4.43 5.57-6.92-6.58-16.37zm-272.45-10.67s9.15 11.38 8.18 22.75a58.07 58.07 0 0129.52-11.3q3-8.22 6.1-16.43c4.64 3.66 9.31 7.35 13.17 11.81a40.43 40.43 0 015.39 8.6c7.86 3.27 16.12 8.73 24.48 17.37l-11.38 3.79 11.35 8.22s-29.15 22.76-62.25-1.12a20.6 20.6 0 01-5.11 8.1c-.07.07-.15.15-.25.14a.34.34 0 01-.19-.09 31.55 31.55 0 01-6.24-6.91c.92 1.39 6.85-1.1 10.14-2.43a90.35 90.35 0 01-14.76-14.49s-7.17 13.7-20.62 13.7c.03 0 18.02-22.41 12.47-41.71zm-77.44 126.86l6.85-9.37-4.08 10.74 5.23 4.44-6.73-2.81c-14.36 20.27-35.15 9.2-35.15 9.2 9.87-17.3 33.88-12.2 33.88-12.2zm-34.26 124.45a8.72 8.72 0 11-8.72-8.72 8.73 8.73 0 018.72 8.72zm-12-61.7a5.43 5.43 0 11-5.43-5.43 5.44 5.44 0 015.42 5.43zM943 82.49a17.44 17.44 0 11-17.43 17.44A17.44 17.44 0 01943 82.49zm-21.47 145.2a8.72 8.72 0 11-8.72 8.72 8.72 8.72 0 018.71-8.72zm-24.44-59.35a14.91 14.91 0 11-14.91 14.91 14.9 14.9 0 0114.9-14.91z"/>
      <path class="cls-2" d="M1546.54 504.26c-7.6 7.11-19.55 11-31.87 10.29l-3.39-.22a28.94 28.94 0 005.55 7.44 49 49 0 0013.28 9l16.81.67a64.33 64.33 0 006.08-8.21v-25.44c-2.31 2.46-4.47 4.6-6.46 6.47zM906.14 498a29.6 29.6 0 00-.29 13.65 34.25 34.25 0 001.16 4.07 85.25 85.25 0 002.71-10.33 75.24 75.24 0 001.28-18.55 41.44 41.44 0 00-4.86 11.16z"/>
      <path d="M1016 146.41l6.73 2.81-5.23-4.44 4.1-10.78-6.85 9.37s-24-5.1-33.88 12.2c0 .04 20.79 11.11 35.13-9.16z" opacity=".5" fill="#051323"/>
      <path class="cls-4" d="M1100.37 44.56a90.35 90.35 0 0014.76 14.49c-3.29 1.33-9.22 3.82-10.14 2.43a31.55 31.55 0 006.24 6.91.34.34 0 00.19.09c.1 0 .18-.07.25-.14a20.6 20.6 0 005.11-8.1c33.1 23.88 62.25 1.12 62.25 1.12l-11.38-8.27L1179 49.3c-8.36-8.64-16.62-14.1-24.48-17.37a40.43 40.43 0 00-5.39-8.6c-3.86-4.46-8.53-8.15-13.17-11.81q-3 8.22-6.1 16.43a58.07 58.07 0 00-29.52 11.35c1-11.37-8.18-22.75-8.18-22.75 5.55 19.3-12.44 41.71-12.44 41.71 13.48 0 20.65-13.7 20.65-13.7zM1355.94 36.29l7.64-4.43c20.43 30.89 43.66 13.51 43.66 13.51-4.45-8.06-10.15-12.88-15.93-15.71a14.55 14.55 0 00.17-6.75 20.74 20.74 0 00-3.32-6.52 3 3 0 00-1.57-1.42 2.78 2.78 0 00-1.9.44 20.33 20.33 0 00-6.26 5.06c.56-.67 5 3.21 5.46 3.68a15.6 15.6 0 012.5 3.57 41.44 41.44 0 00-21.75-.5L1354.93 13l6.58 16.42z"/>
      <path class="cls-5" d="M943 117.37a17.44 17.44 0 000-34.88 4.37 4.37 0 11-4.36 4.37 4.37 4.37 0 014.36-4.37 17.44 17.44 0 000 34.88z"/>
      <path d="M938.63 86.86a4.37 4.37 0 104.37-4.37 4.36 4.36 0 00-4.37 4.37z" fill="#3392bb"/>
      <circle class="cls-5" cx="971.77" cy="267.86" r="8.72"/>
      <circle class="cls-5" cx="921.52" cy="236.41" r="8.72"/>
      <path class="cls-5" d="M942.2 303.5a5.43 5.43 0 106.79-6.89 80.27 80.27 0 00-6.79 6.89zM947.36 296.36a5.44 5.44 0 00-5.43 5.31 78.64 78.64 0 016-5.28 4.93 4.93 0 00-.57-.03z"/>
      <circle class="cls-5" cx="963.05" cy="206.16" r="5.43"/>
      <path class="cls-5" d="M897.08 198.16a14.91 14.91 0 10-14.91-14.91 14.91 14.91 0 0014.91 14.91z"/>
      <path class="cls-4" d="M963.85 437.9a41.65 41.65 0 00-2.66-7.19 52.11 52.11 0 003.73-8.88c-6.85 10-7.45 23.4-1.47 32.87.37.64.76 1.26 1.16 1.87a41.35 41.35 0 00-.76-18.67zM1022.87 523.23a62.3 62.3 0 01-4.08-15.16 50.42 50.42 0 01-.44-7.48 51.48 51.48 0 00-5.58-9.13 58.66 58.66 0 00-6.07-6.89 66.27 66.27 0 00-7-5.77l-1.84-1.28c0 .07-.09.14-.14.21-1.11 1.56-2.27 3-3.44 4.48a71 71 0 0114.42 14.92 53.12 53.12 0 018.6 22.52 72 72 0 01.42 16.63l1.69-.11a36.46 36.46 0 002.69-8 33.06 33.06 0 00.77-4.94zM1008.13 391.75q.54 1.69 1.2 3.36a58.08 58.08 0 00-2.78-23.16l-.32.27c-.08 1.2-.14 2.4-.15 3.6a51.79 51.79 0 002.05 15.93zM946.65 538c.28.44.57.88.88 1.31a21.66 21.66 0 002.27 2.61h.48a33.3 33.3 0 01-3.63-3.92zM995.37 537.9l1.06-.08.27-.88c-.44.33-.88.65-1.33.96zM1006.69 409.34a64.54 64.54 0 01-3.53-7.8 69.31 69.31 0 01-6.85 16.26c1.27 2.48 2.49 5 3.61 7.57a79.57 79.57 0 006.77-16.03z"/>
      <path class="cls-4" d="M934.86 530.38a32.52 32.52 0 014.06-13.51c.41-.79.84-1.55 1.27-2.31a13.23 13.23 0 01.37-2 62.06 62.06 0 015.49-14.85c0 .2-.08.4-.11.61a69.59 69.59 0 00-.89 7.88l.11-.19a29.77 29.77 0 003.8-10.91c.87-6.35-3-13.2-9.11-16.41-2.17 3.35-4.4 6.8-6.54 10.39a82 82 0 00-8.5 18.61.22.22 0 010-.08c1-10.33.64-20.95-2.41-31.29-.26-.89-.58-1.78-.89-2.67 4.12-4.28 8.66-8.4 13.26-12.49a155.62 155.62 0 0018.33-18.42 31 31 0 01-1.47 13.95c-2.38 7.28-6.76 14.22-11.49 21.53a18.79 18.79 0 0112.42 17c.31 9.24-4.55 17.27-7 24.58a77.93 77.93 0 003.67 15.29 68.31 68.31 0 002.71 6.66q6.23-.63 12.75-1.23a57.07 57.07 0 01-3.07-12.33 55.79 55.79 0 01.06-13 53.52 53.52 0 01-.61-14.79 57.33 57.33 0 011.13-7.14 64.38 64.38 0 012.19-7c1.45-3.77 3.32-7.57 5.3-11.49-4.64-5-9-10.77-11.67-17.47a33.88 33.88 0 01-1.68-5.29 30 30 0 01-.85-5.48 34.18 34.18 0 011.1-10.8 33.33 33.33 0 018.75-15.25c.18-.64.35-1.29.49-2a37.4 37.4 0 00.49-14.41q.48 1.39.93 2.79c3.22 10.21 5.31 20.76 4.29 30.75a45.36 45.36 0 01-3.87 14.25c-.78 1.76-1.66 3.51-2.61 5.26a50.37 50.37 0 008.75 9.4l.33-.69c.08.39.15.79.24 1.18.67.57 1.36 1.13 2.06 1.69 3.32 2.66 6.85 5.19 10.44 7.82 1.37-1.39 2.69-2.78 3.91-4.22a26.64 26.64 0 01-2.82-2.64 14.78 14.78 0 01-3.08-5 17.22 17.22 0 01-.9-6.15 31.13 31.13 0 013.79-13.46 153.81 153.81 0 018.33-13.43c.34-.51.67-1 1-1.54l-.12-.46c-.83-2.79-1.8-5.56-2.86-8.3-1.33 2-2.74 4-4.25 5.9-2.68 3.49-5.55 7-8.2 11 .26-12.13-3.08-23.46-7.26-33.92s-9.51-20.2-13.85-30.19-7.88-20.32-8.23-31.17a51.82 51.82 0 011.75-16.1 38.27 38.27 0 017.52-14.45 38.88 38.88 0 00-8.73 14.06 53.72 53.72 0 00-3.11 16.55c-.51 11.31 2.39 22.51 6 33 1.42 4.12 3 8.18 4.54 12.2q-1.12-2-2.34-3.9a147.82 147.82 0 00-10.17-13.93 151.59 151.59 0 00-24.42-23.7 77.33 77.33 0 0118.82-43.17 80.27 80.27 0 016.79-6.89 75.12 75.12 0 0110.3-7.77 75.12 75.12 0 00-11.38 7.55 78.64 78.64 0 00-6 5.28 80 80 0 00-23.08 70.62 80.73 80.73 0 005.65 19.38 91.43 91.43 0 0010.12 17.5c3.82 5.38 7.79 10.45 11.09 15.63a58.62 58.62 0 014.36 7.83c.11.23.2.45.3.68-6.2 7.52-14 13.86-22 20-4 3-8 6.16-11.93 9.5-.23-.36-.45-.72-.68-1.07a94.81 94.81 0 00-9.38-12.06c-6.6-7.37-13.49-13.84-18.59-21.34a45.51 45.51 0 01-5.9-11.94 43.75 43.75 0 01-1.76-13.4 69.79 69.79 0 011.73-13.85 89 89 0 014.09-13.56c3.45-8.74 8.73-17.11 16.71-22.62-8.44 4.77-14.69 12.88-19 21.58a92 92 0 00-5.45 13.61 73.53 73.53 0 00-3.19 14.53 49.17 49.17 0 00.64 15.23 51.63 51.63 0 005.57 14.39c5 8.92 11.65 16.31 17.22 23.8a82.5 82.5 0 017.36 11.37c.62 1.19 1.17 2.39 1.68 3.6-1.86 1.94-3.68 4-5.4 6.14a56.48 56.48 0 00-9.36 16.83 44.51 44.51 0 00-2 20.08 53.81 53.81 0 007.28 20.46 84.06 84.06 0 01-9.49 12.24c.21-1.06.44-2.12.61-3.2a64.11 64.11 0 00.36-19.77 44.76 44.76 0 00-7.22-18.93 59.83 59.83 0 00-12.12-12.53c1-1.21 2-2.46 2.89-3.77a39.23 39.23 0 005.2-9.87 35.12 35.12 0 001.84-10.94 54.48 54.48 0 00-4.2-20.77c-5.2-13-13.45-23.86-18.33-36.61 3.71 13.13 11.06 25.07 14.83 37.81a49.92 49.92 0 012.16 19.24 29.06 29.06 0 01-2.34 8.93 32.5 32.5 0 01-5 7.68c-1 1.22-2.15 2.39-3.3 3.56-3-2.21-6-4.34-8.77-6.57-4.35-3.44-8.25-7.21-10.89-11.81-5.65-8.94-4.33-22.11 3.6-30.59a27.8 27.8 0 00-9.39 14.65 28.68 28.68 0 00-.92 9.08 23.92 23.92 0 00.71 4.6 27.72 27.72 0 001.41 4.45c2.29 5.85 6.19 10.84 10.27 15.18 2.42 2.6 4.91 5 7.34 7.43-1.46 1.43-2.93 2.9-4.36 4.49a44.52 44.52 0 00-6.54 9.42 41.34 41.34 0 00-3.52 11.25 46.75 46.75 0 00-.17 11.76 49 49 0 003 11.45 46.83 46.83 0 006.07 10.43c.36.44.76.86 1.14 1.29h12.32l.64-1-.24.43 1.32.62h.3c16.44-4 40.29-7.65 70.2-10.95a28 28 0 01-2.54-12.89zm-3.46-141.94a73.89 73.89 0 01-6.32-17.38 74.88 74.88 0 01-2-18.54c0-2 .14-3.92.32-5.87a151.46 151.46 0 0122.4 25.23 147.46 147.46 0 018.9 14.31 54.58 54.58 0 015.81 15.24 31.68 31.68 0 01-.88 15.51 39.06 39.06 0 01-2.61 6.33c-.95-1.47-1.95-2.88-3-4.25-8.02-10.88-17.24-19.54-22.62-30.58zm-63.1 160a28.94 28.94 0 01-6-4.58 33.41 33.41 0 01-4.8-6.74 36 36 0 01-2.89-8 34.75 34.75 0 01-.68-8.57 31.33 31.33 0 011.78-8.36 34.54 34.54 0 014.41-7.71c1-1.38 2.14-2.74 3.31-4.11a47.43 47.43 0 018 11.09 27.07 27.07 0 012.26 6.67 32.43 32.43 0 01.7 7c-.05 7.81-2.48 15.8-6.09 23.29zm41.42-43a85.25 85.25 0 01-2.72 10.32 34.25 34.25 0 01-1.16-4.07 29.6 29.6 0 01.29-13.65 41.44 41.44 0 014.9-11.2 75.24 75.24 0 01-1.31 18.59zm11.34 29.64c-.8-.63-1.57-1.3-2.33-2a101.09 101.09 0 003.94-12.91 49.75 49.75 0 001.21 11.83 54.9 54.9 0 002.07 6.56 55.29 55.29 0 01-4.89-3.49z"/>
      <path class="cls-7" d="M1058.9 362.34a108.78 108.78 0 0012 20.82c4.54 6.41 9.27 12.43 13.2 18.6 1.19 1.85 2.3 3.71 3.31 5.58 2.92-.77 6-1.41 9-1.93.85-2.51 1.6-5.13 2.25-7.84-.36.79-.74 1.59-1.13 2.37q-1.71-2.61-3.53-5.05c-9.65-13-20.59-23.26-27-36.4a87.77 87.77 0 01-7.52-20.68c-.62-2.67-1.13-5.37-1.51-8.1a21.66 21.66 0 00-6.14 3.68l-.51.43c.2 1.82.44 3.64.74 5.44a96.13 96.13 0 006.84 23.08zM1094.86 355.82a67.93 67.93 0 016.51 16.26 101.46 101.46 0 00-1.8-17.27c-.26-.43-.52-.86-.79-1.29a174.05 174.05 0 00-12.11-16.52q-1.7-2.07-3.47-4.09l-4.56-1.62q2.91 3.7 5.63 7.54a173 173 0 0110.59 16.99zM1098.66 350.57a80.89 80.89 0 00-4.66-13.87l-.13-.05c.72 2.36 1.49 4.69 2.29 7s1.64 4.63 2.5 6.92zM1018.35 500.59a50.42 50.42 0 00.44 7.48 62.3 62.3 0 004.08 15.16 69.09 69.09 0 004.59 9.19 94.52 94.52 0 01-2.27 3.37q15-1 30.86-1.86c-.42-.31-.84-.61-1.25-.93-1-.77-1.87-1.57-2.76-2.38a121.94 121.94 0 004.69-15.36 59.19 59.19 0 001.43 14.07c.37 1.49.79 3 1.27 4.42q11.34-.62 23.12-1.18a36.58 36.58 0 01-3.91-8.59 38.31 38.31 0 01-1.5-8.71 43.42 43.42 0 01.88-9.09 73.41 73.41 0 016.54-17.74c0 .26-.11.53-.15.79a86.86 86.86 0 00-.89 22.08 92 92 0 004.56 21q11.33-.52 23-1a67 67 0 01-8.72-39.6q.08-1.05.21-2.1a235.65 235.65 0 01-16.6-22.77l-12.28 4.41c-1.45 2.28-2.91 4.6-4.34 7a98.09 98.09 0 00-10.12 22.14v-.09a109.81 109.81 0 00-.14-24 27.72 27.72 0 01-12.32.28 27.22 27.22 0 01-3.88-1.09 27.9 27.9 0 01-12.49-9 65.38 65.38 0 00-9.34 17.65 53 53 0 00-2.71 16.45zm18.7-11.66a49.15 49.15 0 015.83-13.33 89.75 89.75 0 01-1.56 22.12 101.92 101.92 0 01-3.24 12.29 44.25 44.25 0 01-1.38-4.84 35.28 35.28 0 01.35-16.24zM1007.43 410.7c5.67 10.1 13.09 18.56 19.51 27a28 28 0 017.29-9.72c-6.89-7.43-13.79-14.28-19.07-22.06a55.11 55.11 0 01-5.83-10.84q-.66-1.67-1.2-3.36a51.79 51.79 0 01-2-15.93c0-1.2.07-2.4.15-3.6l-.28.24a28 28 0 01-4.14 2.92c-.61.35-1.23.66-1.85 1a58.26 58.26 0 00.83 17.24 59.2 59.2 0 002.37 8 64.54 64.54 0 003.53 7.8c.19.4.43.86.69 1.31zM1164.09 513.29c-2.3.23-4.64.44-7 .63a27.34 27.34 0 01-6.56 15.94q11.52-.36 23.33-.69c.38-1.14.71-2.29 1-3.46-3.39-3.65-6.99-7.77-10.77-12.42zM997.08 430.13a59.21 59.21 0 012.44 22.44 34.52 34.52 0 01-2.78 10.63 38.32 38.32 0 01-6 9.14c-1.22 1.44-2.54 2.83-3.91 4.22-3.59-2.63-7.12-5.16-10.44-7.82-.7-.56-1.39-1.12-2.06-1.69-.2-.16-.38-.33-.57-.49a50.37 50.37 0 01-8.75-9.4l-.42-.6c-.4-.61-.79-1.23-1.16-1.87-6-9.47-5.38-22.91 1.47-32.87a31.39 31.39 0 012.81-3.54c-.84.68-1.64 1.42-2.42 2.19a33.33 33.33 0 00-8.75 15.25 34.18 34.18 0 00-1.1 10.8 30 30 0 00.85 5.48 33.88 33.88 0 001.71 5.3c2.63 6.7 7 12.45 11.67 17.47l.55.6c2.88 3.1 5.84 6 8.74 8.84-1.74 1.7-3.48 3.46-5.19 5.35a52.62 52.62 0 00-7.77 11.21 49.77 49.77 0 00-4.2 13.39c0 .33-.08.67-.13 1a55.79 55.79 0 00-.06 13 57.07 57.07 0 003.07 12.33q8.13-.75 16.73-1.46a40.2 40.2 0 01-2.23-3.61 43.15 43.15 0 01-3.44-9.55 42.05 42.05 0 01-.81-10.2 37.13 37.13 0 012.12-9.94 41 41 0 015.25-9.18c1.22-1.65 2.56-3.28 4-4.92a56.34 56.34 0 019.49 13.23 32.21 32.21 0 012.69 7.94 39 39 0 01.83 8.39 55.79 55.79 0 01-2.54 15.76l-.27.88q10.38-.8 21.31-1.54a72 72 0 00-.42-16.63 53.12 53.12 0 00-8.6-22.52 71 71 0 00-14.42-14.92c1.17-1.44 2.33-2.92 3.44-4.48 0-.07.1-.14.14-.21a45.86 45.86 0 006-11.55 41.79 41.79 0 002.19-13 65.1 65.1 0 00-5-24.72c-.38-1-.78-1.92-1.2-2.87-1.12-2.58-2.34-5.09-3.61-7.57-5.73-11.16-12.55-21.49-17-33.13 3.61 12.74 10.09 24.55 14.8 36.7 1.06 2.74 2 5.51 2.86 8.3zM947.53 539.31c-.31-.43-.6-.87-.88-1.31a18 18 0 01-2.78-7.73 24.3 24.3 0 011.66-10.51c2.49-7.31 7.35-15.34 7-24.58a18.79 18.79 0 00-12.42-17 16.6 16.6 0 00-3.79-.9 16.24 16.24 0 013.49 1.37c6.15 3.21 10 10.06 9.11 16.41a29.77 29.77 0 01-3.8 10.91l-.11.19c-1.48 2.73-3.21 5.45-4.86 8.38-.43.76-.86 1.52-1.27 2.31a32.52 32.52 0 00-4.06 13.51 28 28 0 002.59 12.84q6-.66 12.35-1.3a21.66 21.66 0 01-2.23-2.59zM1496.53 529.61q17.1.52 33.58 1.14a49 49 0 01-13.28-9 28.94 28.94 0 01-5.55-7.44c-4.25-.28-8.44-.64-12.54-1-2.23 2.75-4.41 5.31-6.51 7.71a49.78 49.78 0 004.3 8.59zM1553 531.68v-8.47a64.33 64.33 0 01-6.08 8.21z"/>
      <path class="cls-8" d="M1530.11 530.75q-16.47-.62-33.58-1.14l-11.92-.34-.41.42c24.2.83 47.22 1.84 68.8 3v-1l-6.08-.26zM919.73 560.59c0-14.16 107.21-26.26 258.66-31.15l-.37-.38-4.15.11q-11.8.33-23.33.69-20.18.66-39.43 1.44-11.7.48-23 1l-5.53.27q-11.77.55-23.12 1.18l-3.38.18q-15.88.89-30.86 1.86l-5.76.38-1.69.11q-10.92.75-21.31 1.54l-1.06.08q-7.12.55-14 1.12-8.6.72-16.73 1.46-6.52.6-12.75 1.23l-1.63.16h-.48q-6.33.63-12.35 1.3c-29.91 3.3-53.76 7-70.2 10.95-16.68 4-25.74 8.35-25.74 12.84 0 22 217.6 39.87 486 39.87 81.38 0 158.08-1.64 225.47-4.54v-13.82c-64.58 3.52-142.1 5.58-225.47 5.58-225.21 0-407.79-14.98-407.79-33.46z"/>
      <path class="cls-9" d="M988.56 555c0-11 77.63-20.48 190.32-25l-.49-.51c-151.45 4.89-258.66 17-258.66 31.15 0 18.48 182.58 33.46 407.8 33.46 83.37 0 160.89-2.06 225.47-5.58v-12.81c-59.91 4.38-138.89 7-225.47 7-187.21.04-338.97-12.41-338.97-27.71zM1484.2 529.69l-.56.57c25.12 1.07 48.41 2.39 69.36 3.92v-1.47c-21.58-1.18-44.6-2.19-68.8-3.02z"/>
      <path class="cls-10" d="M1483.64 530.26l-.72.73c27 1.49 50.78 3.34 70.08 5.49v-2.3c-20.95-1.53-44.24-2.85-69.36-3.92zM1047.4 550.12c0-8.24 52.8-15.46 132.13-19.52l-.65-.65c-112.69 4.52-190.32 14-190.32 25 0 15.35 151.76 27.8 339 27.8 86.58 0 165.56-2.66 225.47-7v-12c-51 5.66-133 9.34-225.47 9.34-154.74.01-280.16-10.28-280.16-22.97z"/>
      <path d="M1482.92 531q-2.61 2.63-5 4.85C1467.46 545.64 1451 551 1434 550c-13-.76-25.71-2-37.57-3.46l-1.1.87q-2.31 1.81-4.8 3.48c-1.36.9-2.77 1.78-4.21 2.61-14.4 8.36-32.48 13.14-51.53 13.14h-9.62c-18.09 0-35.32-4.31-49.34-11.91a82.59 82.59 0 01-8.41-5.23c-1-.68-1.88-1.38-2.79-2.09l-.72-.57c-11.14 1.33-23 2.45-35.1 3.16-17 1-33.45-4.39-43.92-14.19q-2.55-2.39-5.37-5.24c-79.33 4.06-132.13 11.28-132.13 19.52 0 12.69 125.42 23 280.13 23 92.46 0 174.45-3.68 225.47-9.34v-27.27c-19.29-2.15-42.99-4-70.07-5.48z" fill="#ffde76"/>
      <path class="cls-12" d="M1069 272.4c15.88-38.68 31.12-68.53 44.62-91.31-6.76-.91-13.7-1.68-20.74-2.25a47.82 47.82 0 00-41.48 18.37c-14.58 18.72-36.33 53.36-59.19 113.63l23.56-20A78.07 78.07 0 011069 272.4zm-27.55-53.4c12.07-18.81 25.2-31.91 29.33-29.25s-2.29 20.05-14.35 38.85-25.2 31.9-29.33 29.25 2.29-20.07 14.35-38.85z"/>
      <path class="cls-13" d="M1069 272.4a77.69 77.69 0 0123.2 4.4l53.96 19.2 82.28-153.35a107.42 107.42 0 0115.12-21.43c-14.5-2.37-29.93-4.38-45.67-5.64a65.92 65.92 0 00-57.17 25.31 384 384 0 00-27.08 40.24c-13.5 22.74-28.74 52.59-44.64 91.27zm59.56-96.72c19.63-30.6 41-51.92 47.73-47.6s-3.73 32.63-23.36 63.23-41 51.92-47.73 47.61 3.8-32.63 23.38-63.24z"/>
      <path class="cls-12" d="M1553 187.62v-7l-3.81.5q1.89 3.14 3.81 6.5z"/>
      <path class="cls-13" d="M1522.11 140.85a65.9 65.9 0 00-57.11-25.31c-16.92 1.35-33.47 3.57-48.9 6.17a107.72 107.72 0 0114.64 20.9l82.87 154.46 39.44-14V239c-9.32-3.24-26.82-22.23-43.12-47.65-19.63-30.6-30.09-58.91-23.36-63.23s28.1 17 47.73 47.6a250.07 250.07 0 0118.7 34.44v-22.54q-1.92-3.36-3.81-6.53a382.41 382.41 0 00-27.08-40.24z"/>
      <path class="cls-14" d="M1146.16 296l14.62 5.19a22 22 0 0020.4-3l104.06-76.7a77.45 77.45 0 0192.35 0l104.07 76.7a22 22 0 0020.4 3l11.5-4.08-82.87-154.46a107.62 107.62 0 00-94.87-56.76h-12.52a107.63 107.63 0 00-94.86 56.76zm116.09-171.64c0-16.25 31-33.1 69.17-33.1s69.17 16.85 69.17 33.1-31-1.61-69.17-1.61-69.17 17.81-69.17 1.57z"/>
      <path class="cls-12" d="M1116.29 504.26c7.6 7.11 19.55 11 31.87 10.29q4.52-.27 8.94-.63c2.35-.19 4.69-.4 7-.63a358.31 358.31 0 01-32.46-48l-10.44-5.44c-1-.08-2-.13-3-.17h-1.51a55.82 55.82 0 00-16.43 2.06l-1.09.37-13.17 4.72a235.65 235.65 0 0016.6 22.77 161.33 161.33 0 0013.69 14.66z"/>
      <path class="cls-13" d="M1164.09 513.29c3.78 4.65 7.38 8.77 10.76 12.42q1.62 1.74 3.17 3.35l.37.38.49.51.65.65q2.82 2.85 5.37 5.24c10.47 9.8 26.94 15.18 43.92 14.19 12.1-.71 24-1.83 35.1-3.16a64.88 64.88 0 01-11.62-12l-33.78-45.93c-1.33.27-2.67.5-4 .7s-3 .39-4.45.53H1209.21a89.07 89.07 0 01-48.78-9.92l-28.79-15a358.31 358.31 0 0032.45 48.04z"/>
      <path class="cls-12" d="M1548.79 459.89a36 36 0 00-5.23.66 38.81 38.81 0 00-10.27 3.67l-2.08 1.09a359.21 359.21 0 01-32.47 48c4.1.4 8.29.76 12.54 1l3.39.22c12.32.72 24.27-3.18 31.87-10.29 2-1.87 4.15-4 6.46-6.47V460c-.54 0-1.07-.1-1.61-.11-.87-.05-1.73-.04-2.6 0z"/>
      <path class="cls-13" d="M1441.85 488.41L1437 495l-29.33 39.88a64.38 64.38 0 01-11.25 11.71C1408.3 548 1421 549.27 1434 550c17 1 33.45-4.39 43.92-14.19q2.38-2.22 5-4.85l.72-.73.56-.57.41-.42q3.63-3.75 7.62-8.27c2.1-2.4 4.28-5 6.51-7.71a359.21 359.21 0 0032.47-48l-28.79 15a92.07 92.07 0 01-15 6.21c-1.72.53-3.44 1-5.18 1.44q-1.29.31-2.61.6c-2.61.57-5.25 1-7.9 1.34-.89.1-1.77.2-2.66.28-2.66.24-5.33.37-8 .37-1.24 0-2.48 0-3.71-.08s-2.48-.13-3.71-.24l-.87-.08a82.74 82.74 0 01-10.93-1.69z"/>
      <path class="cls-14" d="M1395.34 547.44q-2.31 1.81-4.8 3.48 2.46-1.67 4.8-3.48zM1267.43 549.53c-1-.68-1.88-1.38-2.79-2.09.91.71 1.84 1.41 2.79 2.09zM1325.18 566.67c-18.09 0-35.32-4.31-49.34-11.91 14 7.6 31.25 11.91 49.34 11.91h9.62c19 0 37.13-4.78 51.53-13.14-14.4 8.36-32.48 13.14-51.53 13.14zM1390.54 550.92zM1325.18 524.63h9.62c30.48 0 58.48-8.26 72.89-21.49l20.68-19-1.73-.72q-4.22-1.83-8.34-4.12l-66.46-37a40.65 40.65 0 00-18-5.31H1329a37.91 37.91 0 00-11.26 2.24c-.76.27-1.52.56-2.28.88a46.27 46.27 0 00-4.48 2.19l-66.47 37c-1.37.77-2.75 1.49-4.14 2.18q-3.92 1.92-7.92 3.44l19.83 18.22c14.42 13.23 42.43 21.49 72.9 21.49zM1441.85 488.41l-4.83 6.57 4.83-6.57z"/>
      <path d="M1252.3 534.86a64.88 64.88 0 0011.62 12l.72.57c.91.71 1.84 1.41 2.79 2.09a82.59 82.59 0 008.41 5.23c14 7.6 31.25 11.91 49.34 11.91h9.62c19 0 37.13-4.78 51.53-13.14a80.48 80.48 0 004.21-2.61q2.49-1.67 4.8-3.48l1.1-.87a64.38 64.38 0 0011.25-11.71L1437 495l4.83-6.57a85.255 85.255 0 01-10.96-3.28c-.84-.31-1.68-.65-2.52-1l-20.68 19c-14.41 13.23-42.41 21.49-72.89 21.49h-9.62c-30.47 0-58.48-8.26-72.88-21.49l-19.83-18.22a85.1 85.1 0 01-13.55 3.94l-.4.07z" fill="#f2842a" opacity=".5"/>
      <path d="M1448.52 343.08l-104.06-76.7a22.13 22.13 0 00-9.62-4 22 22 0 00-16.47 4l-104.06 76.7a77.72 77.72 0 01-72.22 10.69L1094 336.7a80.89 80.89 0 014.66 13.87c.33 1.39.64 2.8.91 4.24a101.46 101.46 0 011.8 17.27v2.2a101.65 101.65 0 01-2.64 23.29c-.65 2.71-1.4 5.33-2.25 7.84a121 121 0 0133.58-.77 42.66 42.66 0 0114.76 4.59l41.39 21.58a33.37 33.37 0 0018.21 3.79h.46a31.69 31.69 0 0012.48-4.06l66.47-37a96.46 96.46 0 0143.47-12.33c2.71-.09 5.46-.08 8.16 0a96.5 96.5 0 0143.54 12.33l66.47 37a31.64 31.64 0 0012.48 4.06h.63a33.26 33.26 0 0018-3.81l30.87-16.1a92.5 92.5 0 0145.55-10.64v-61.73l-32.26 11.45a77.7 77.7 0 01-72.22-10.69zm-155.63 36.59c-19 0-34.39-17.21-34.39-38.43s15.4-38.44 34.39-38.44 34.39 17.21 34.39 38.44-15.4 38.43-34.39 38.43zm79.25 1a34.39 34.39 0 1134.38-34.39 34.39 34.39 0 01-34.38 34.4z"/>
      <path class="cls-16" d="M965.17 367.43zM964.15 365.92zM972.38 374.42a26.59 26.59 0 01-3.61-2.87 26.59 26.59 0 003.61 2.87zM963.09 364.05zM966.59 369.26c-.4-.47-.78-1-1.14-1.45.36.49.74 1 1.14 1.45a27.87 27.87 0 002.18 2.29 27.87 27.87 0 01-2.18-2.29zM975 376a26.63 26.63 0 01-2.61-1.54A26.63 26.63 0 00975 376zM1513.56 297.07l-11.5 4.08a22 22 0 01-20.4-3l-104.07-76.7a77.45 77.45 0 00-92.35 0l-104.06 76.7a22 22 0 01-20.4 3l-14.62-5.15-53.94-19.16a78.09 78.09 0 00-76.43 14l-23.56 20-22.44 19.07a27.93 27.93 0 00-7.5 32.48 28.05 28.05 0 01.08-22.52 28.17 28.17 0 004.22 6.73 27.93 27.93 0 0039.36 3.2l46-39.08a22.06 22.06 0 0121.59-4l68.56 24.35a77.75 77.75 0 0072.22-10.69l104.06-76.7a21.89 21.89 0 0126.09 0l104.06 76.7a77.76 77.76 0 0072.22 10.69l32.25-11.42v-36.59z"/>
      <path class="cls-16" d="M1448.52 343.08l-104.06-76.7a22.13 22.13 0 00-9.62-4 22.13 22.13 0 019.62 4zM1331.42 262.07a21.9 21.9 0 013.42.27 21.9 21.9 0 00-3.42-.27z"/>
      <path class="cls-17" d="M1448.52 320.42l-104.06-76.7a21.89 21.89 0 00-26.09 0l-104.06 76.7a77.75 77.75 0 01-72.22 10.69l-68.56-24.35a22.06 22.06 0 00-21.59 4l-46 39.08a27.93 27.93 0 01-39.36-3.2 28.17 28.17 0 01-4.22-6.73 28.05 28.05 0 00-.08 22.52c0 .05.05.11.08.16.22.5.46 1 .72 1.5l.15.28c.28.53.58 1.06.91 1.59l.13.19c.28.45.58.89.89 1.32.09.13.18.26.28.38.36.49.74 1 1.14 1.45a27.87 27.87 0 002.18 2.29A27.59 27.59 0 00975 376a27.93 27.93 0 0025 .38c.62-.3 1.24-.61 1.85-1a28 28 0 004.14-2.92l.28-.24.32-.27 44.88-38.13.51-.43a21.66 21.66 0 016.14-3.68 22 22 0 0115.45-.28l5.11 1.81 4.56 1.62 10.67 3.79.13.05 48.09 17.07a77.72 77.72 0 0072.22-10.69l104.06-76.7a22 22 0 019.63-4 21.79 21.79 0 016.84 0 22.13 22.13 0 019.62 4l104.06 76.7a77.7 77.7 0 0072.22 10.69l32.22-11.45v-22.67l-32.26 11.46a77.76 77.76 0 01-72.22-10.69z"/>
      <path class="cls-18" d="M1292.89 302.8c-19 0-34.39 17.21-34.39 38.44s15.4 38.43 34.39 38.43 34.39-17.21 34.39-38.43-15.4-38.44-34.39-38.44zm-11.36 43.49a17.34 17.34 0 01-.64-34.66h1.29a17.34 17.34 0 01-.65 34.66zM1372.14 311.9a34.39 34.39 0 1034.38 34.39 34.39 34.39 0 00-34.38-34.39zm-12.34 45.72a16.68 16.68 0 01-.74-33.35 6 6 0 01.74 0 6.17 6.17 0 01.75 0 16.68 16.68 0 01-.75 33.35z"/>
      <path class="cls-19" d="M1282.18 311.63a6.32 6.32 0 11-1.29 0 17.35 17.35 0 101.29 0z"/>
      <path class="cls-18" d="M1275.22 317.91a6.32 6.32 0 107-6.28h-1.29a6.31 6.31 0 00-5.71 6.28z"/>
      <path class="cls-19" d="M1360.55 324.27a7.28 7.28 0 11-1.49 0 16.7 16.7 0 101.49 0z"/>
      <path class="cls-18" d="M1352.53 331.5a7.28 7.28 0 108-7.23 6.17 6.17 0 00-.75 0 6 6 0 00-.74 0 7.27 7.27 0 00-6.51 7.23z"/>
      <path class="cls-16" d="M1025 454.55c.08.41.17.81.27 1.21-.14-.4-.27-.76-.27-1.21zM1025.64 457.3zM1025.26 455.93q.13.54.3 1.08-.16-.54-.3-1.08zM1024.72 453.17c.06.39.13.78.2 1.17-.07-.34-.14-.78-.2-1.17zM1042.94 475.51a27.22 27.22 0 003.88 1.09 27.22 27.22 0 01-3.88-1.09zM1052.2 477.16a27.59 27.59 0 01-5.38-.56 27.59 27.59 0 005.38.56zM1116.68 459.67h1.51zM1553 460c-.54 0-1.07-.1-1.61-.11.54-.01 1.07.05 1.61.11zM1461.06 490.56c-1.24 0-2.48 0-3.71-.08 1.23 0 2.47.08 3.71.08zM1441.85 488.41a82.74 82.74 0 0010.92 1.75l.87.08-.87-.08a83 83 0 01-13.24-2.31c.77.2 1.54.39 2.32.56zM1430.89 485.13c-1.42-.53-2.84-1.1-4.25-1.71l1.73.72c.84.34 1.68.68 2.52.99zM1430.89 485.13c1.43.53 2.86 1 4.3 1.48a99.28 99.28 0 01-4.3-1.48zM1439.53 487.85zM1507.47 414.71l-30.87 16.1a33.26 33.26 0 01-18 3.81h-.63a31.64 31.64 0 01-12.48-4.06l-66.47-37a96.5 96.5 0 00-43.49-12.33c-2.7-.08-5.45-.09-8.16 0a96.46 96.46 0 00-43.47 12.33l-66.47 37a31.69 31.69 0 01-12.48 4.06h-.46a33.37 33.37 0 01-18.21-3.79l-41.39-21.58a42.66 42.66 0 00-14.76-4.59 121 121 0 00-33.58.77c-3.1.52-6.13 1.16-9 1.93-2.47.65-4.87 1.38-7.17 2.2L1042.94 423a27.58 27.58 0 00-8.71 5.05 28 28 0 00-9.51 25.1 27.86 27.86 0 012.42-15.83 27.92 27.92 0 0034.67 14.33l37.35-13.41c5.64-2 14.06-2.85 22-2.23l39.23 20.45a89.07 89.07 0 0048.78 9.92h.31l.55-.05a87 87 0 0034.47-10.86l66.47-37a40.42 40.42 0 0118.16-5.31c1.5-.05 3-.05 4.5 0a40.6 40.6 0 0118.18 5.32l66.46 37a87.06 87.06 0 0034.47 10.86l.87.08q3.7.32 7.42.32a89.38 89.38 0 0041.36-10.24l30.87-16.09a36.41 36.41 0 0119.71-4.25v-32a92.5 92.5 0 00-45.5 10.55z"/>
      <path class="cls-17" d="M1533.29 440.33l-30.87 16.09a89.38 89.38 0 01-41.36 10.24q-3.72 0-7.42-.32l-.87-.08a87.06 87.06 0 01-34.47-10.86l-66.46-37a40.6 40.6 0 00-18.18-5.32h-4.5a40.42 40.42 0 00-18.16 5.31l-66.47 37a87 87 0 01-34.47 10.86l-.55.05h-.31a89.07 89.07 0 01-48.78-9.92L1121.19 436c-8-.62-16.39.21-22 2.23l-37.35 13.41a27.92 27.92 0 01-34.67-14.33 27.86 27.86 0 00-2.42 15.83v.06c.06.39.13.78.2 1.17a1.55 1.55 0 000 .21c.08.41.17.81.27 1.21v.17q.13.54.3 1.08l.08.29c.14.46.29.91.45 1.37a27.91 27.91 0 0016.85 16.84 27.22 27.22 0 003.88 1.09 27.72 27.72 0 0012.32-.28 27.13 27.13 0 002.67-.81l11.91-4.27 12.28-4.41 13.16-4.73 1.09-.37a55.82 55.82 0 0116.43-2.06h1.51c1 0 2 .09 3 .17l10.44 5.44 28.79 15a89.07 89.07 0 0048.78 9.92H1210.02c1.49-.14 3-.31 4.45-.53s2.68-.43 4-.7l.4-.07a85.1 85.1 0 0013.55-3.94q4-1.51 7.92-3.44c1.39-.69 2.77-1.41 4.14-2.18l66.47-37a46.27 46.27 0 014.48-2.19c.76-.32 1.52-.61 2.28-.88A37.91 37.91 0 011329 437H1333.81a40.65 40.65 0 0118 5.31l66.46 37q4.13 2.29 8.34 4.12c1.41.61 2.83 1.18 4.25 1.71s2.86 1 4.3 1.48 2.89.87 4.34 1.24a83 83 0 0013.24 2.31l.87.08c1.23.11 2.47.19 3.71.24s2.47.08 3.71.08c2.67 0 5.34-.13 8-.37.89-.08 1.77-.18 2.66-.28 2.65-.33 5.29-.77 7.9-1.34q1.32-.29 2.61-.6c1.74-.43 3.46-.91 5.18-1.44a92.07 92.07 0 0015-6.21l28.79-15 2.08-1.09a38.81 38.81 0 0110.27-3.67 36 36 0 015.23-.66c.87 0 1.73-.05 2.6 0 .54 0 1.07.07 1.61.11v-23.9a36.41 36.41 0 00-19.67 4.21z"/>
      <path class="cls-14" d="M1331.42 122.71c38.2 0 69.17 17.85 69.17 1.61s-31-33.1-69.17-33.1-69.17 16.85-69.17 33.1 30.96-1.61 69.17-1.61z"/>
      <path d="M1331.42 122.71c38.2 0 69.17 17.85 69.17 1.61s-31-33.1-69.17-33.1-69.17 16.85-69.17 33.1 30.96-1.61 69.17-1.61z" fill="#fad399" opacity=".5"/>
      <path class="cls-14" d="M1105.22 238.92c6.73 4.31 28.1-17 47.73-47.61s30.09-58.91 23.36-63.23-28.1 17-47.73 47.6-30.09 58.92-23.36 63.24z"/>
      <path class="cls-13" d="M1027.1 257.83c4.13 2.65 17.27-10.44 29.33-29.25s18.49-36.2 14.35-38.85-17.26 10.44-29.33 29.25-18.45 36.2-14.35 38.85z"/>
      <path class="cls-14" d="M1534.25 175.68c-19.63-30.6-41-51.92-47.73-47.6s3.73 32.63 23.36 63.23c16.3 25.42 33.8 44.41 43.12 47.65v-28.8a250.07 250.07 0 00-18.75-34.48z"/>
    </g>
  </g>
</svg>
