<svg xmlns="http://www.w3.org/2000/svg" viewBox="0 0 979.96 778.5">
  <defs>
    <style>
      .cls-1,.cls-2{fill:#051323}.cls-2{opacity:.5}.cls-3{fill:#07a}.cls-4{fill:#3392bb}.cls-5{fill:#5c9e32}.cls-7{fill:#ffde76}.cls-10{fill:#dd711f}.cls-11{fill:#f2842a}.cls-12{fill:#ff9739}.cls-16{fill:#ffc23b}.cls-17{fill:#edaa24}.cls-18{fill:#fff}.cls-19{fill:#060610}
    </style>
  </defs>
  <g id="Layer_2" data-name="Layer 2">
    <g id="all">
      <path class="cls-1" d="M514 59.13s-52.18-2.35-66.89 37.43c0 0 47.52 16 70.61-31.57l15.11 3.55L520.34 61l4.82-24z"/>
      <path class="cls-2" d="M294.57 115.54s24.51-1.11 31.42 17.58c0 0-22.32 7.52-33.17-14.83l-7.1 1.67 5.88-3.53-2.27-11.26zM177.21 315s-24-5.11-33.88 12.2c0 0 20.79 11.07 35.16-9.2l6.73 2.81-5.22-4.42 4.08-10.73zM816.49 311.18s-24-5.11-33.88 12.2c0 0 20.79 11.07 35.16-9.2l6.73 2.82-5.23-4.45 4.08-10.73zM671 59.1s-22.92 8.9-21.73 28.74c0 0 23.46-2.1 24.4-26.93l7.17-1.33-6.8-.86-2.46-11.22z"/>
      <path class="cls-1" d="M341.5 220.91c-8.36-8.64-16.62-14.09-24.49-17.37a40.35 40.35 0 00-5.38-8.59c-3.86-4.47-8.53-8.16-13.17-11.81q-3.06 8.21-6.1 16.43a58 58 0 00-29.52 11.35c1-11.38-8.18-22.75-8.18-22.75 5.54 19.3-12.44 41.71-12.44 41.71 13.45 0 20.62-13.7 20.62-13.7a90.35 90.35 0 0014.76 14.49c-3.29 1.32-9.22 3.82-10.14 2.42a31.1 31.1 0 006.24 6.91.27.27 0 00.19.1c.1 0 .18-.07.25-.14a20.6 20.6 0 005.11-8.1c33.1 23.88 62.25 1.12 62.25 1.12l-11.38-8.27zM649.22 176.35a50 50 0 0116.62-11.8 27.88 27.88 0 013.65-5.83 63.77 63.77 0 019-8q2.05 5.58 4.13 11.16a39.44 39.44 0 0120 7.7c-.66-7.72 5.55-15.44 5.55-15.44-3.77 13.1 8.44 28.31 8.44 28.31-9.13 0-14-9.3-14-9.3a61.4 61.4 0 01-10 9.84c2.24.9 6.26 2.59 6.89 1.64a20.82 20.82 0 01-4.24 4.69.17.17 0 01-.13.07c-.06 0-.12-.05-.17-.09a14 14 0 01-3.47-5.5c-22.47 16.21-42.25.76-42.25.76l7.72-5.62zM553.78 201.28a14.6 14.6 0 00.17-6.76 20.9 20.9 0 00-3.32-6.51 3 3 0 00-1.57-1.42 2.8 2.8 0 00-1.91.43 20.44 20.44 0 00-6.25 5.07c.56-.68 5 3.21 5.46 3.68a15.72 15.72 0 012.49 3.56 41.51 41.51 0 00-21.75-.49l-9.7-14.27L524 201l-5.58 6.93 7.64-4.44C546.47 234.37 569.7 217 569.7 217c-4.44-8.08-10.15-12.9-15.92-15.72z"/>
      <circle class="cls-3" cx="105.46" cy="271.55" r="17.44"/>
      <circle class="cls-4" cx="105.46" cy="258.47" r="4.37"/>
      <circle class="cls-3" cx="154.24" cy="150.7" r="29.16"/>
      <circle class="cls-3" cx="35.5" cy="29.16" r="29.16"/>
      <circle class="cls-4" cx="35.5" cy="14.58" r="14.58"/>
      <circle class="cls-4" cx="154.24" cy="132.96" r="10.05"/>
      <circle class="cls-3" cx="134.24" cy="439.47" r="8.72"/>
      <circle class="cls-3" cx="83.99" cy="408.03" r="8.72"/>
      <circle class="cls-3" cx="109.83" cy="473.41" r="5.43"/>
      <circle class="cls-3" cx="125.52" cy="377.78" r="5.43"/>
      <circle class="cls-3" cx="59.55" cy="354.86" r="14.91"/>
      <path class="cls-1" d="M123.51 672a57.93 57.93 0 011.13-7.14 64.92 64.92 0 012.19-7 157.94 157.94 0 016.76-14.36l3-6c.12.63.23 1.26.39 1.89a25.78 25.78 0 004.59 9.17c4.09 5.27 9 8.61 12.85 11.91a50 50 0 015.16 5 44.67 44.67 0 014.22 5.63 37.88 37.88 0 015.2 12.47 23.51 23.51 0 01-6.69 22.28c-4.44 4.37-10.5 7.66-17.09 10 10.49-1.22 21.92-2.38 34.2-3.47a39 39 0 005.17-12.64 40.55 40.55 0 00-.82-19.93 52.26 52.26 0 00-8.53-16.74 58.54 58.54 0 00-6.08-6.88 64 64 0 00-7-5.77c-4.67-3.3-9-5.95-11.78-9.09a14.82 14.82 0 01-3.08-5 17.2 17.2 0 01-.91-6.14 31.29 31.29 0 013.8-13.46 156.08 156.08 0 018.32-13.43 78.34 78.34 0 0012.6-31.07 57.94 57.94 0 00-3.77-32.87c-4.42-10.13-12-18.92-21.67-23.9A47.34 47.34 0 01165 540.28a54.16 54.16 0 011.16 31 72.07 72.07 0 01-13.84 27.66c-2.68 3.49-5.55 7-8.2 11 .26-12.13-3.08-23.45-7.26-33.91s-9.51-20.2-13.85-30.2-7.88-20.32-8.23-31.17a51.46 51.46 0 011.75-16.09 38.2 38.2 0 017.52-14.57 38.88 38.88 0 00-8.73 14.06 53.36 53.36 0 00-3.08 16.48c-.51 11.32 2.39 22.51 6 33 1.43 4.12 3 8.17 4.55 12.2q-1.12-2-2.34-3.91A150.82 150.82 0 00110.31 542a152.08 152.08 0 00-24.42-23.71c2.13-23 15.64-45.11 35.87-57.8C99 472.73 82.48 497.1 80.49 523.88A83 83 0 0087 563.29a91.21 91.21 0 0010.12 17.5c3.82 5.38 7.79 10.44 11.09 15.62a59.86 59.86 0 014.36 7.84c.1.22.19.45.29.67-6.19 7.53-13.94 13.87-22 20-4 3.05-8 6.16-11.94 9.5-.22-.36-.44-.72-.67-1.07a94.78 94.78 0 00-9.39-12.07c-6.6-7.36-13.48-13.84-18.58-21.33A44.9 44.9 0 0144.31 588a43.49 43.49 0 01-1.73-13.38 69.16 69.16 0 011.73-13.86 88.51 88.51 0 014.09-13.56c3.45-8.74 8.73-17.1 16.71-22.61-8.45 4.77-14.69 12.87-19 21.57a92.56 92.56 0 00-5.45 13.62 73.44 73.44 0 00-3.12 14.52 49.24 49.24 0 00.63 15.24 52 52 0 005.58 14.39c5 8.92 11.65 16.31 17.22 23.79a84.06 84.06 0 017.36 11.37c.62 1.2 1.17 2.4 1.68 3.6-1.87 1.95-3.68 4-5.4 6.14a56.44 56.44 0 00-9.36 16.84 44.2 44.2 0 00-1.95 20.07 53.8 53.8 0 007.28 20.47 84.06 84.06 0 01-9.49 12.24c.21-1.06.44-2.12.61-3.2a64.12 64.12 0 00.3-19.77 44.71 44.71 0 00-7.22-18.93A59.35 59.35 0 0032.69 664c1-1.22 2-2.46 2.89-3.77a39.12 39.12 0 005.2-9.88 35.31 35.31 0 001.84-10.93 54.72 54.72 0 00-4.2-20.78c-5.2-13-13.45-23.86-18.33-36.61 3.71 13.13 11.06 25.07 14.83 37.82a50.07 50.07 0 012.15 19.24 29 29 0 01-2.33 8.91 32.23 32.23 0 01-5 7.68c-1 1.21-2.14 2.39-3.3 3.55-3-2.2-6-4.33-8.76-6.56-4.35-3.45-8.25-7.21-10.89-11.81-5.65-8.94-4.33-22.11 3.59-30.59A27.84 27.84 0 001 625a28.36 28.36 0 00-.95 9 24.85 24.85 0 00.72 4.61 28 28 0 001.41 4.45c2.29 5.84 6.19 10.84 10.27 15.18 2.42 2.6 4.91 5 7.34 7.43-1.46 1.43-2.93 2.9-4.36 4.49a44.52 44.52 0 00-6.54 9.42 41.34 41.34 0 00-3.52 11.25 46.22 46.22 0 00-.17 11.75 48.4 48.4 0 003 11.45 46.29 46.29 0 006.07 10.44c.36.44.75.86 1.14 1.29H27.7l.63-1.06c-.08.15-.15.3-.23.44l1.32.62H49.2c.17-.54.35-1.09.5-1.64l1.7 1.64h18.77c1-1.5 2-3 3-4.56 1.84 1.63 3.75 3.13 5.69 4.56H86c12.21-3.32 30.33-6.43 53.38-9.25A56.46 56.46 0 01123.51 672zm-92.74 48a28 28 0 01-6-4.58 32.86 32.86 0 01-4.8-6.74 36.19 36.19 0 01-2.9-8 35.15 35.15 0 01-.67-8.57 31 31 0 011.78-8.35 34.32 34.32 0 014.41-7.71c1-1.38 2.14-2.75 3.3-4.12a47.53 47.53 0 018 11.1 26.93 26.93 0 012.26 6.67 33.07 33.07 0 01.7 7c-.04 7.86-2.47 15.85-6.08 23.3zm41.42-43a85.25 85.25 0 01-2.71 10.33 34.25 34.25 0 01-1.16-4.07 29.6 29.6 0 01.29-13.65 41.31 41.31 0 014.9-11.2 75.24 75.24 0 01-1.32 18.64zm56.08-86.9a37.6 37.6 0 00.49-14.41q.48 1.39.93 2.79c3.22 10.2 5.31 20.76 4.28 30.75a45.22 45.22 0 01-3.86 14.25c-1 2.27-2.18 4.51-3.44 6.77a42.49 42.49 0 00-3-28 49.13 49.13 0 004.6-12.1zM83.52 706.69c-.79-.63-1.56-1.31-2.32-2a101.58 101.58 0 003.94-12.91 49.8 49.8 0 001.21 11.82 55.48 55.48 0 002.07 6.56 59.24 59.24 0 01-4.9-3.47zm20-7.58a32.19 32.19 0 01-1.27-7.31 22.77 22.77 0 01.17-3.75 24.19 24.19 0 01.57-3.89 62.28 62.28 0 015.49-14.86c0 .21-.08.41-.11.61a73.48 73.48 0 00-.76 18.56 77.81 77.81 0 004 18.2 69.54 69.54 0 003.89 9.07 32.11 32.11 0 01-11.94-16.63zm10.55-70.82c-3.52 10.77-11.43 20.78-18.33 32.39a82.58 82.58 0 00-8.51 18.6.17.17 0 000-.07c1-10.34.65-21-2.4-31.29-.27-.9-.58-1.79-.89-2.67 4.12-4.29 8.65-8.4 13.26-12.49a157.15 157.15 0 0018.33-18.42 31.18 31.18 0 01-1.42 13.95zm5.4-33.41c-1-1.46-2-2.87-3-4.24-8.11-10.88-17.3-19.54-22.68-30.58a74.21 74.21 0 01-6.32-17.38 75.45 75.45 0 01-2-18.55c0-2 .15-3.91.33-5.86a150.56 150.56 0 0122.39 25.23 144.47 144.47 0 018.91 14.31 54.46 54.46 0 015.9 15.24 31.68 31.68 0 01-.88 15.51 39 39 0 01-2.61 6.32zM965.36 711.16a15.75 15.75 0 01-3.08-7.6 20.55 20.55 0 011.4-8.84c2.09-6.15 6.18-12.9 5.91-20.66a15.59 15.59 0 00-4.26-10.19 15.31 15.31 0 00-9.36-4.82c6.84 1.77 11.46 8.66 10.59 14.94a25 25 0 01-3.2 9.17c-1.57 2.94-3.53 5.85-5.23 9.14-.39.75-.77 1.54-1.13 2.34a42.35 42.35 0 00-.4-4.62 41.69 41.69 0 00-3.52-11.25 44.19 44.19 0 00-6.55-9.42c-4.89-5.43-10.19-9.65-14.29-14.47a32.19 32.19 0 01-5-7.68 29.06 29.06 0 01-2.34-8.93A50.11 50.11 0 01927 619c3.78-12.75 11.13-24.68 14.84-37.81-4.84 12.81-13.1 23.66-18.3 36.64a54.66 54.66 0 00-4.19 20.77 35.12 35.12 0 001.84 10.94 38.59 38.59 0 005.2 9.87c4.24 6 9.24 10.74 13 15.81a34.93 34.93 0 014.41 7.71 31.33 31.33 0 011.78 8.36 35.24 35.24 0 01-.68 8.57 36.53 36.53 0 01-2.89 8 33.81 33.81 0 01-4.8 6.74c-.34.33-.68.64-1 1a62 62 0 003.37-16.24 44.69 44.69 0 00-3.15-20 62 62 0 00-10.27-16c-3.87-4.56-7.84-8.67-11.37-13s-6.57-8.76-8.21-13.8a24.43 24.43 0 01.67-17.66c2.61-3.32 5.22-6.73 7.65-10.36.49-.4 1-.8 1.53-1.17-.41.21-.8.44-1.2.67 1.06-1.61 2.1-3.26 3.06-5a52.25 52.25 0 005.57-14.39 49.49 49.49 0 00.64-15.23 75 75 0 00-3.12-14.53 92 92 0 00-5.45-13.61c-4.35-8.7-10.59-16.81-19-21.58 8 5.51 13.26 13.87 16.72 22.62a89 89 0 014.09 13.56 69.77 69.77 0 011.72 13.85 43.44 43.44 0 01-1.72 13.38 45.23 45.23 0 01-5.91 11.94c-5.09 7.5-12 14-18.58 21.33a93.83 93.83 0 00-9.38 12.07c-.23.35-.45.71-.68 1.07-3.94-3.34-8-6.45-11.94-9.5-8.09-6.12-15.84-12.46-22-20 .1-.23.19-.46.3-.68a59.67 59.67 0 014.35-7.83c3.31-5.18 7.28-10.25 11.09-15.63A91 91 0 00875 562.45a83.23 83.23 0 006.48-39.4c-2-26.78-18.5-51.16-41.27-63.43 20.22 12.68 33.73 34.78 35.87 57.8a151.59 151.59 0 00-24.42 23.7 146.07 146.07 0 00-10.17 13.93q-1.22 1.91-2.34 3.9c1.56-4 3.12-8.08 4.54-12.2 3.64-10.51 6.54-21.7 6-33a53.73 53.73 0 00-3.09-16.49 38.61 38.61 0 00-8.73-14.06 38.22 38.22 0 017.53 14.45 52.09 52.09 0 011.75 16.09c-.36 10.86-3.91 21.22-8.23 31.18s-9.6 19.69-13.85 30.19-7.52 21.79-7.27 33.91c-2.65-3.92-5.52-7.47-8.19-11a72.23 72.23 0 01-13.85-27.66 54.33 54.33 0 011.24-30.92c3.45-10 10.07-19.1 19.31-24.83-9.67 5-17.25 13.77-21.67 23.9a58.06 58.06 0 00-3.78 32.88 78.65 78.65 0 0012.6 31.06 151.26 151.26 0 018.32 13.43 31.15 31.15 0 013.8 13.46 17.39 17.39 0 01-.9 6.14 14.6 14.6 0 01-3.09 5c-2.81 3.14-7.11 5.79-11.77 9.09a66.27 66.27 0 00-7 5.77 58.66 58.66 0 00-6.07 6.89 52.12 52.12 0 00-8.56 16.77 40.8 40.8 0 00-.82 19.93 38.87 38.87 0 004.73 11.93q16.27 1.27 30.83 2.7a43.29 43.29 0 01-13.28-8.56 23.5 23.5 0 01-6.65-22.27 37.5 37.5 0 015.2-12.47 46.78 46.78 0 014.22-5.64 50.94 50.94 0 015.16-5c3.86-3.31 8.76-6.65 12.86-11.92a25.76 25.76 0 004.58-9.17c.16-.63.28-1.26.39-1.89 1 2.05 2 4.06 3 6a155.3 155.3 0 016.72 14.36 64.47 64.47 0 012.2 7 57.33 57.33 0 011.13 7.14 56.61 56.61 0 01-14.83 43.45c25.57 2.71 46.32 5.73 61.29 9 1.33-1 2.64-2.08 3.91-3.21.94 1.55 1.93 3.06 2.94 4.56h18.8l.62-.6.8.6h20.32c.29-.6.6-1.19.87-1.8l1.09 1.8h12.32c.38-.43.77-.85 1.14-1.29a47.21 47.21 0 006.07-10.43c.52-1.34 1-2.7 1.37-4.06a25.81 25.81 0 002.42 6.7 30.28 30.28 0 007.53 9.08h13.11l1.73-5c-5.88-1.46-11.29-4.28-14.6-8.78zM835.64 608.67a42.19 42.19 0 00-.34 20.79c-1.27-2.25-2.44-4.5-3.44-6.77a45.36 45.36 0 01-3.86-14.25c-1-10 1.07-20.54 4.29-30.75.29-.93.61-1.86.92-2.79a37.8 37.8 0 00.49 14.41 49.25 49.25 0 004.62 12.17 43.17 43.17 0 00-2.68 7.19zm6.82-14.62a40 40 0 01-2.62-6.33 31.79 31.79 0 01-.87-15.51 54.27 54.27 0 015.81-15.21 143.67 143.67 0 018.9-14.31 150.57 150.57 0 0122.4-25.23c.18 2 .31 3.91.32 5.87a74.88 74.88 0 01-2 18.54 74.05 74.05 0 01-6.32 17.38c-5.38 11-14.58 19.7-22.68 30.58-1 1.34-1.99 2.75-2.94 4.22zm15.95 104.23a32.19 32.19 0 01-12 16.63 68.84 68.84 0 003.88-9.08 77.7 77.7 0 004-18.2 72.94 72.94 0 00-.75-18.55c0-.21-.08-.41-.11-.61a62 62 0 015.48 14.85 24.39 24.39 0 01.58 3.89 24 24 0 01.16 3.75 32.26 32.26 0 01-1.24 7.32zm-10.55-70.83a31.18 31.18 0 01-1.48-14 156.46 156.46 0 0018.34 18.42c4.6 4.09 9.14 8.2 13.26 12.49-.31.89-.63 1.77-.9 2.67-3 10.34-3.4 21-2.4 31.29v.08a82 82 0 00-8.5-18.61c-6.9-11.56-14.81-21.57-18.32-32.34zm30.58 78.4a56.8 56.8 0 01-4.89 3.48 55.48 55.48 0 002.07-6.56 49.79 49.79 0 001.2-11.82 104.4 104.4 0 003.94 12.91c-.76.69-1.52 1.36-2.32 1.99zm15.21-23.38a34.25 34.25 0 01-1.16 4.07 87.18 87.18 0 01-2.72-10.33 75.72 75.72 0 01-1.31-18.59 41.1 41.1 0 014.89 11.2 29.74 29.74 0 01.3 13.65zm30.76 15c-1.71 7.94-6 15.55-11.38 22.33a83.2 83.2 0 01-11.61-14.41 53.81 53.81 0 007.28-20.46 44.51 44.51 0 00-2-20.08 56.71 56.71 0 00-9.31-16.85c-1.73-2.17-3.54-4.2-5.4-6.14.51-1.21 1.06-2.41 1.68-3.6a82.5 82.5 0 017.33-11.37l1-1.27a24.83 24.83 0 00-.59 2.85 24.1 24.1 0 00-.26 4.65 28 28 0 00.46 4.65c1 6.19 3.82 11.89 6.91 17s6.48 9.87 9.41 14.59a50.6 50.6 0 016.44 14.07 27.62 27.62 0 01.83 7 32.54 32.54 0 01-.79 7.02z"/>
      <path class="cls-5" d="M241.11 695.6a38.31 38.31 0 01-1.5-8.71 28.19 28.19 0 01.19-4.46 28.91 28.91 0 01.68-4.63 73.88 73.88 0 016.52-17.74c-.05.26-.11.52-.15.79a87.3 87.3 0 00-.9 22.08 92.41 92.41 0 004.79 21.65c.31.9.68 1.77 1 2.65q11.55-.65 23.65-1.24a66.82 66.82 0 01-9.24-51.16l1.16-4.14c.4-1.39.91-2.77 1.45-4.17a186.78 186.78 0 018.05-17.09c1.18-2.33 2.38-4.73 3.55-7.17.14.76.28 1.51.47 2.26a30.68 30.68 0 005.45 10.91c4.88 6.28 10.71 10.25 15.31 14.18a63 63 0 016.14 5.93 55.81 55.81 0 015 6.71 45 45 0 016.27 14.84c2.1 10.26-.84 19.57-8 26.52-.3.31-.65.58-1 .88q12.42-.48 25.27-.9a43.1 43.1 0 002.22-7.25 48.36 48.36 0 00-1-23.72 62.31 62.31 0 00-10.15-19.92 71.4 71.4 0 00-7.23-8.19 76.29 76.29 0 00-8.31-6.86c-5.54-3.93-10.66-7.09-14-10.82a17.55 17.55 0 01-3.67-6 20.36 20.36 0 01-1.07-7.31 37.13 37.13 0 014.51-16c2.72-5.31 6.33-10.5 9.91-16a93.45 93.45 0 0015-37c2.17-13.17.89-27-4.5-39.12S302.76 483 291.26 477c11 6.82 18.87 17.7 23 29.55a64.5 64.5 0 011.37 36.83 79.43 79.43 0 01-6.44 17.34 94.06 94.06 0 01-10 15.58c-3.18 4.16-6.6 8.38-9.76 13 .31-14.44-3.67-27.91-8.64-40.36s-11.32-24-16.48-35.94-9.37-24.18-9.8-37.1a61.69 61.69 0 012.09-19.15 45.59 45.59 0 018.95-17.2 46.34 46.34 0 00-10.39 16.74 64.05 64.05 0 00-3.72 19.71c-.6 13.46 2.85 26.78 7.18 39.29 1.7 4.89 3.55 9.71 5.4 14.49-.89-1.57-1.82-3.11-2.77-4.62a175.81 175.81 0 00-12.11-16.57 180.69 180.69 0 00-29.06-28.21c2.54-27.39 18.62-53.7 42.69-68.79-27.11 14.6-46.74 43.61-49.11 75.49a98.86 98.86 0 007.71 46.92 107.74 107.74 0 0012 20.82c4.53 6.41 9.26 12.44 13.19 18.6a71.48 71.48 0 015.19 9.33c.12.26.23.53.35.8-7.38 9-16.6 16.5-26.23 23.78-4.72 3.63-9.52 7.34-14.21 11.31l-.8-1.27A112.87 112.87 0 00199.74 603c-7.86-8.76-16.05-16.47-22.12-25.39a53.92 53.92 0 01-7-14.21 51.75 51.75 0 01-2.06-15.93A82.94 82.94 0 01170.6 531a104.84 104.84 0 014.87-16.14c4.11-10.4 10.39-20.36 19.89-26.91-10.06 5.67-17.49 15.32-22.65 25.67a108.12 108.12 0 00-6.49 16.21 87.4 87.4 0 00-3.71 17.28 58.69 58.69 0 00.75 18.14 62.23 62.23 0 006.63 17.12c6 10.61 13.87 19.41 20.5 28.32a99.61 99.61 0 018.76 13.53c.74 1.42 1.39 2.84 2 4.28-2.22 2.31-4.38 4.72-6.43 7.31a67.43 67.43 0 00-11.14 20 52.84 52.84 0 00-2.32 23.89 64 64 0 008.67 24.3q-2.62 4.1-5.61 7.91c19.13-1.65 40.22-3.15 63-4.46a37.56 37.56 0 01-6.21-11.85zm-37.33-26.27a99.59 99.59 0 01-3.23 12.29 41.41 41.41 0 01-1.38-4.83 35.32 35.32 0 01.35-16.25 49.11 49.11 0 015.83-13.33 89.69 89.69 0 01-1.57 22.12zm66.74-103.41a44.82 44.82 0 00.59-17.15c.37 1.11.74 2.21 1.1 3.32 3.83 12.15 6.32 24.71 5.1 36.59a53.74 53.74 0 01-4.6 17c-1.2 2.69-2.59 5.37-4.1 8.05a50.2 50.2 0 00-.41-24.73 50.81 50.81 0 00-3.2-8.6 58.69 58.69 0 005.52-14.48zm-40.94-35.81a87.77 87.77 0 01-7.52-20.68 89.37 89.37 0 01-2.36-22.08c0-2.33.17-4.65.38-7a179.56 179.56 0 0126.66 30 172.89 172.89 0 0110.59 17 64.55 64.55 0 016.92 18.14 37.77 37.77 0 01-1 18.45 48.34 48.34 0 01-3.11 7.53q-1.71-2.61-3.53-5c-9.69-12.92-20.61-23.22-27.03-36.36zm-12.31 174.5c-1-.76-1.87-1.56-2.76-2.37a121.25 121.25 0 004.68-15.36 59.63 59.63 0 001.44 14.06 64.47 64.47 0 002.46 7.82 69.49 69.49 0 01-5.82-4.15zm4.46-32.61a.28.28 0 000-.09c1.2-12.3.77-24.93-2.86-37.24-.31-1.07-.69-2.12-1.06-3.18 4.9-5.1 10.3-10 15.78-14.87 7.58-6.68 15.22-13.78 21.82-21.91a37 37 0 01-1.75 16.6c-2.07 6.36-5.51 12.61-9.4 18.91s-8.26 12.68-12.41 19.63A98 98 0 00221.73 672zM147.35 715a39.46 39.46 0 01-5.72-8 43.07 43.07 0 01-3.44-9.54 42.05 42.05 0 01-.81-10.2 37 37 0 012.12-9.94 40.76 40.76 0 015.25-9.18c1.22-1.65 2.56-3.28 3.95-4.92a56.79 56.79 0 019.49 13.22 32.35 32.35 0 012.69 7.94 39.12 39.12 0 01.83 8.4 60.35 60.35 0 01-4.63 21.74q10.77-1.14 22.65-2.19a75.15 75.15 0 00.06-21.08 53.29 53.29 0 00-8.6-22.53 70.7 70.7 0 00-14.42-14.91 92.83 92.83 0 003.44-4.48 46.62 46.62 0 006.19-11.76 42.13 42.13 0 002.19-13 65.19 65.19 0 00-5-24.73c-6.18-15.44-16-28.39-21.82-43.57 4.42 15.63 13.17 29.84 17.66 45 2.22 7.55 3.36 15.41 2.56 22.89a34.66 34.66 0 01-2.78 10.63 38.18 38.18 0 01-6 9.15 73.596 73.596 0 01-3.93 4.22c-3.58-2.62-7.11-5.16-10.43-7.81-5.17-4.1-9.82-8.58-13-14-6.72-10.65-5.15-26.32 4.28-36.41A33.08 33.08 0 00119 607.35a33.83 33.83 0 00-1.1 10.79 28.94 28.94 0 00.85 5.48 34 34 0 001.68 5.3c2.73 7 7.37 12.9 12.22 18.07 2.88 3.09 5.84 6 8.73 8.84-1.73 1.7-3.48 3.46-5.18 5.35a52.44 52.44 0 00-7.78 11.2 49.38 49.38 0 00-4.2 13.4 55.43 55.43 0 00-.2 14 58.7 58.7 0 003.53 13.63c.63 1.49 1.35 3 2.11 4.4q8.58-1.15 18.2-2.25c-.15-.19-.34-.34-.51-.56zM110 710.93a18.67 18.67 0 01-3.66-9 24.39 24.39 0 011.66-10.57c2.49-7.32 7.35-15.34 7-24.58a18.5 18.5 0 00-5-12.13 18.21 18.21 0 00-11.14-5.73c8.14 2.1 13.63 10.29 12.6 17.78a29.85 29.85 0 01-3.81 10.91c-1.87 3.5-4.2 6.95-6.23 10.88A32.52 32.52 0 0097.33 702a28.5 28.5 0 003.42 14.53 33.39 33.39 0 003.49 5.24c5-.93 10.46-1.82 16.37-2.7a26.28 26.28 0 01-10.61-8.14zM679.3 693.39a28 28 0 01-8-26.52 45 45 0 016.23-14.87 54.09 54.09 0 015-6.71 60.79 60.79 0 016.14-5.93c4.59-3.93 10.42-7.91 15.3-14.18a30.68 30.68 0 005.45-10.91c.2-.75.33-1.51.47-2.26 1.17 2.44 2.37 4.84 3.56 7.17a184 184 0 018 17.09c.54 1.4 1.05 2.78 1.45 4.16l1.17 4.14a69.58 69.58 0 011.34 8.5 67.2 67.2 0 01-18.92 53c52.72 2.59 98 6.1 132.45 10.26l-.27-.49.3.49c12.62 1.53 23.81 3.14 33.39 4.82 2.06-1.14 4.11-2.33 6.18-3.61 1.11-.71 2.23-1.44 3.38-2.27.56-.37 1.2-.92 1.79-1.37a21.62 21.62 0 002-1.88 32.85 32.85 0 004.66-7.44 29.17 29.17 0 002.43-8.48 25.45 25.45 0 00-.44-8.81c-1.29-5.62-4-10.17-6.48-14.39s-4.93-8.19-6.23-12.54a16.62 16.62 0 011-13.06 17.42 17.42 0 0110.83-8.63 18.49 18.49 0 00-12.62 7.5 18.27 18.27 0 00-3.2 7.15 23 23 0 00-.14 7.93c.77 5.22 2.83 10 4.7 14.51s3.51 8.82 3.79 12.87a17.61 17.61 0 01-3 11 22.19 22.19 0 01-3.82 4.43c-.34.25-.36.29-.75.56s-.7.49-1.18.76c-.87.53-1.84 1.06-2.83 1.59-4 2.09-8.39 4-12.77 5.87-1 .44-2.1.84-3.15 1.26a55.88 55.88 0 006.19-11 58.5 58.5 0 003.53-13.62 55.51 55.51 0 00-.2-14 49.75 49.75 0 00-4.19-13.39A52.66 52.66 0 00854.1 651c-1.7-1.89-3.44-3.65-5.18-5.34 2.89-2.85 5.85-5.75 8.73-8.84 4.85-5.17 9.49-11.12 12.22-18.07a34 34 0 001.68-5.3 29.06 29.06 0 00.85-5.48 33.93 33.93 0 00-1.1-10.8 33 33 0 00-11.17-17.43c9.44 10.09 11 25.76 4.28 36.4-3.14 5.47-7.78 10-13 14-3.32 2.66-6.84 5.2-10.43 7.82-1.38-1.39-2.7-2.79-3.93-4.23a38.23 38.23 0 01-6-9.14 35 35 0 01-2.71-10.59 59.68 59.68 0 012.57-22.9c4.48-15.17 13.23-29.37 17.65-45-5.81 15.18-15.63 28.12-21.82 43.57a64.94 64.94 0 00-5 24.72 41.88 41.88 0 002.18 13 46.39 46.39 0 006.19 11.75c1.11 1.56 2.27 3 3.45 4.48a70.79 70.79 0 00-14.43 14.92 53.14 53.14 0 00-8.59 22.53 76.26 76.26 0 00.42 23.53c.21 1.28.48 2.54.73 3.81a99.87 99.87 0 01-11.29-14.58 64.1 64.1 0 008.66-24.35 52.83 52.83 0 00-2.32-23.89 67.21 67.21 0 00-11.14-20c-2.05-2.59-4.21-5-6.42-7.31.6-1.44 1.25-2.87 2-4.29a99.61 99.61 0 018.76-13.53c6.63-8.9 14.54-17.7 20.5-28.32a62 62 0 006.63-17.14 58.94 58.94 0 00.76-18.13 88.37 88.37 0 00-3.71-17.29 110.17 110.17 0 00-6.49-16.2c-5.17-10.35-12.6-20-22.65-25.68 9.5 6.56 15.78 16.51 19.89 26.92a104.68 104.68 0 014.86 16.13 83 83 0 012.06 16.49 52.1 52.1 0 01-2 15.93 54 54 0 01-7 14.2c-6.07 8.93-14.26 16.63-22.12 25.39a112.61 112.61 0 00-11.16 14.36c-.28.42-.54.85-.81 1.28-4.68-4-9.48-7.68-14.21-11.31-9.63-7.28-18.85-14.83-26.23-23.78l.35-.81a72 72 0 015.19-9.32c3.93-6.16 8.66-12.19 13.2-18.6a108.78 108.78 0 0012-20.85 99.2 99.2 0 007.71-46.9c-2.37-31.87-22-60.88-49.12-75.48 24.07 15.09 40.15 41.39 42.69 68.78a181.11 181.11 0 00-29.06 28.21 177.16 177.16 0 00-12.1 16.58q-1.44 2.25-2.78 4.62c1.86-4.78 3.7-9.6 5.4-14.5 4.33-12.5 7.78-25.82 7.18-39.29a63.57 63.57 0 00-3.67-19.62 46.21 46.21 0 00-10.39-16.73 45.37 45.37 0 018.95 17.2 61.35 61.35 0 012.09 19.15c-.42 12.92-4.65 25.25-9.8 37.1s-11.41 23.43-16.48 35.94-9 25.92-8.64 40.35c-3.16-4.66-6.57-8.89-9.75-13a93.89 93.89 0 01-10-15.58 79.43 79.43 0 01-6.44-17.34 64.5 64.5 0 011.38-36.83c4.1-11.85 12-22.73 23-29.55-11.5 5.93-20.53 16.38-25.79 28.44s-6.67 26-4.49 39.12a93.44 93.44 0 0015 37c3.58 5.49 7.2 10.68 9.91 16a37.11 37.11 0 014.52 16 20.64 20.64 0 01-1.08 7.32 17.42 17.42 0 01-3.67 6c-3.34 3.74-8.46 6.89-14 10.83a78.35 78.35 0 00-8.31 6.85 71.5 71.5 0 00-7.23 8.2 62.31 62.31 0 00-10.15 19.92 47.13 47.13 0 007.18 41.75q20.74.75 40.24 1.68c-8.56-2.95-16.37-7.02-22-12.56zm150.16-19.21a31.91 31.91 0 012.68-7.94 56.79 56.79 0 019.49-13.24c1.4 1.64 2.74 3.26 4 4.92a41 41 0 015.24 9.17 37.13 37.13 0 012.12 9.94 42 42 0 01-.8 10.2 43.18 43.18 0 01-3.45 9.55 39.69 39.69 0 01-5.71 8 34.21 34.21 0 01-7.15 5.45c-4.28-8.9-7.18-18.41-7.21-27.7a37.8 37.8 0 01.79-8.35zM785 637a49.11 49.11 0 015.83 13.33 35.32 35.32 0 01.35 16.25 42 42 0 01-1.38 4.83 103.27 103.27 0 01-3.23-12.29A90.21 90.21 0 01785 637zm-35.76 48.38a38.2 38.2 0 01-14.28 19.79 81.94 81.94 0 004.62-10.8 92.41 92.41 0 004.79-21.65 87.4 87.4 0 00-.9-22.09c0-.26-.1-.52-.14-.79a74.33 74.33 0 016.54 17.75 28.91 28.91 0 01.68 4.63 28.15 28.15 0 01.2 4.45 38.78 38.78 0 01-1.53 8.7zm23.84 9a67.79 67.79 0 01-5.82 4.14 63.77 63.77 0 002.46-7.81 58.65 58.65 0 001.44-14.06 120.66 120.66 0 004.67 15.35c-.9.82-1.83 1.62-2.77 2.39zm-16.33-88c5.48 4.87 10.88 9.77 15.78 14.87a69.68 69.68 0 00-1.06 3.18c-3.63 12.3-4.06 24.93-2.86 37.24v.08a98.09 98.09 0 00-10.12-22.14c-4.13-7-8.51-13.33-12.42-19.64s-7.32-12.55-9.39-18.9a37.09 37.09 0 01-1.76-16.6c6.59 8.15 14.23 15.25 21.81 21.93zm-30.65-71a64.85 64.85 0 016.9-18.17 170 170 0 0110.6-17 179.5 179.5 0 0126.65-30c.22 2.32.37 4.65.39 7a89.73 89.73 0 01-2.37 22.07 87.61 87.61 0 01-7.52 20.68c-6.4 13.15-17.34 23.45-27 36.4-1.2 1.63-2.39 3.31-3.52 5.05a46.84 46.84 0 01-3.11-7.53 37.78 37.78 0 01-1.04-18.53zm-8 6.51c.35-1.1.72-2.21 1.1-3.31a44.57 44.57 0 00.58 17.14 58.79 58.79 0 005.49 14.49 50.47 50.47 0 00-3.58 33.29c-1.51-2.68-2.9-5.35-4.1-8.05a54.22 54.22 0 01-4.6-17c-1.19-11.88 1.3-24.45 5.14-36.59z"/>
      <path d="M502.58 698.77H490h10.56c220.34.46 397.25 15.26 397.25 33.45 0 18.47-182.59 33.45-407.81 33.45s-407.8-15-407.8-33.45c0-18.19 176.9-33 397.24-33.45H490h-12.58C214.81 699.31 4 717 4 738.63c0 22 217.6 39.87 486 39.87s486-17.85 486-39.87c0-21.63-210.81-39.32-473.42-39.86z" opacity=".1" fill="#ffde76"/>
      <path class="cls-7" d="M497.25 698.76zM482.74 698.76zM498.79 698.76zM482.74 698.76zM497.26 698.76zM482.74 698.76z"/>
      <path d="M829 726.56c0 15.36-151.77 27.81-339 27.81s-339-12.45-339-27.81c0-15.12 147-27.42 330.19-27.8h-1.77C259.1 699.22 82.2 714 82.2 732.21c0 18.47 182.58 33.45 407.8 33.45s407.81-15 407.81-33.45c0-18.19-176.91-33-397.25-33.45h-1.77c183.15.38 330.21 12.68 330.21 27.8z" opacity=".2" fill="#ffde76"/>
      <path d="M770.14 721.73c0 12.7-125.42 23-280.14 23s-280.13-10.29-280.13-23c0-12.49 121.51-22.65 272.87-23h-1.53C298.06 699.14 151 711.44 151 726.56c0 15.36 151.77 27.81 339 27.81s339-12.45 339-27.81c0-15.12-147-27.42-330.19-27.8h-1.52c151.33.32 272.85 10.48 272.85 22.97z" fill="#ffde76" opacity=".5"/>
      <path class="cls-7" d="M209.87 721.73c0 12.7 125.42 23 280.13 23s280.14-10.29 280.14-23c0-12.49-121.52-22.65-272.87-23h-14.53c-151.36.35-272.87 10.51-272.87 23z"/>
      <path class="cls-10" d="M355.08 370.19s-47.49-15.56-99.71-19.73a47.82 47.82 0 00-41.48 18.37c-14.68 18.84-36.62 53.8-59.65 114.82l69.35 13.69 131-62.31z"/>
      <path class="cls-11" d="M497.77 314.35s-65.44-21.44-137.42-27.19a65.85 65.85 0 00-57.16 25.31c-20.24 26-50.47 74.16-82.21 158.25l95.57 33.12 180.59-100.13z"/>
      <path class="cls-10" d="M632.69 370.19s47.49-15.56 99.71-19.73a47.82 47.82 0 0141.48 18.37c14.68 18.84 36.62 53.8 59.65 114.82l-69.35 13.69L633.15 435z"/>
      <path class="cls-11" d="M490 314.35s65.44-21.44 137.42-27.19a65.85 65.85 0 0157.16 25.31c20.24 26 50.47 74.16 82.21 158.25l-95.57 33.12-180.59-100.13z"/>
      <path class="cls-12" d="M686.8 488.77H297.26l93.65-174.55a107.65 107.65 0 0194.86-56.76h12.52a107.66 107.66 0 0194.87 56.76z"/>
      <path class="cls-10" d="M387.24 675.11a496.7 496.7 0 01-76.61 11c-12.32.72-24.27-3.18-31.87-10.29-11.28-10.56-28.13-30.15-45.83-64.35l53.28-7.67 100.67 34.92z"/>
      <path d="M496.87 706.4s-50.28 12-105.58 15.24c-17 1-33.45-4.38-43.92-14.18-15.55-14.56-38.78-41.56-63.17-88.69l73.44-18.57 138.74 56.12z" fill="#e57f45"/>
      <path class="cls-11" d="M496.87 706.4s-50.28 12-105.58 15.24c-17 1-33.45-4.38-43.92-14.18-15.55-14.56-38.78-41.56-63.17-88.69l73.44-18.57 138.74 56.12z"/>
      <path class="cls-10" d="M600.53 675.11a496.7 496.7 0 0076.61 11c12.32.72 24.27-3.18 31.87-10.29 11.28-10.56 28.13-30.15 45.83-64.35l-53.28-7.67-100.67 34.97z"/>
      <path class="cls-11" d="M490.9 706.4s50.28 12 105.58 15.24c17 1 33.45-4.38 43.92-14.18 15.55-14.56 38.78-41.56 63.17-88.69l-73.44-18.57-138.74 56.12z"/>
      <path d="M642.11 608.65H342.82l71.94 97.82c14.41 19.59 42.42 31.82 72.89 31.82h9.62c30.48 0 58.48-12.23 72.89-31.82z" fill="#f59e66"/>
      <path class="cls-12" d="M642.11 608.65H342.82l71.94 97.82c14.41 19.59 42.42 31.82 72.89 31.82h9.62c30.48 0 58.48-12.23 72.89-31.82z"/>
      <path d="M570.16 674.75c-14.41 13.24-42.41 21.5-72.89 21.5h-9.62c-30.47 0-58.48-8.26-72.89-21.5l-71.94-66.1 71.94 97.82c14.41 19.59 42.42 31.82 72.89 31.82h9.62c30.48 0 58.48-12.23 72.89-31.82l72-97.82z" fill="#f2842a" opacity=".5"/>
      <path d="M742.43 474.73l-68.56 24.35a49.93 49.93 0 01-46.31-6.86l-104.07-76.7a49.91 49.91 0 00-59.21 0l-104.07 76.7a49.93 49.93 0 01-46.31 6.86l-68.56-24.35a50.12 50.12 0 00-16.86-2.86 70 70 0 00-.95 11.86c20.07 0 36.34 27.83 36.34 62.17s-16.27 62.17-36.34 62.17a55.44 55.44 0 003.85 6.84l20.82-7.47c10.29-3.7 24.21-5 37.1-3.45a14.93 14.93 0 015.13 1.62s54.17 27.93 56 28.14a89.66 89.66 0 0033.25-2.22 15 15 0 003.2-1.34l72.42-40.28a71.2 71.2 0 0134.37-9.23h.51a71.2 71.2 0 0134.37 9.23l72.42 40.28a15 15 0 003.2 1.34 89.66 89.66 0 0033.25 2.22 14.89 14.89 0 005.11-1.62l40.36-21a64.27 64.27 0 0136.61-7.17 70.52 70.52 0 0116.11 3.53l20.82 7.47a55.44 55.44 0 003.85-6.84c-20.07 0-36.34-27.84-36.34-62.17s16.27-62.17 36.34-62.17a70 70 0 00-1-11.86 50.12 50.12 0 00-16.85 2.81z"/>
      <path class="cls-16" d="M150.35 550.72a27.92 27.92 0 01-18.09-49.2l46-39.07a78.09 78.09 0 0176.44-14l68.56 24.35a22 22 0 0020.4-3l104.06-76.7a77.45 77.45 0 0192.35 0l104.06 76.7a22 22 0 0020.4 3l68.56-24.35a78.06 78.06 0 0176.44 14l46 39.07a27.92 27.92 0 01-36.15 42.56l-46-39.08a22.08 22.08 0 00-21.59-4l-68.56 24.35A77.75 77.75 0 01611 514.7L506.93 438a21.89 21.89 0 00-26.09 0l-104.06 76.7a77.76 77.76 0 01-72.22 10.69L236 501a22 22 0 00-21.59 4l-46 39.07a27.8 27.8 0 01-18.06 6.65z"/>
      <path class="cls-17" d="M858.71 518.21a27.9 27.9 0 01-39.35 3.2l-46-39.07a22.05 22.05 0 00-21.59-4l-68.56 24.34A77.7 77.7 0 01611 492l-104.06-76.7a21.9 21.9 0 00-26.09 0L376.78 492a77.73 77.73 0 01-72.22 10.69L236 478.38a22 22 0 00-21.59 4l-46 39.07a27.89 27.89 0 01-43.57-9.92 27.9 27.9 0 0043.57 32.59l46-39.07A22 22 0 01236 501l68.56 24.35a77.76 77.76 0 0072.22-10.69L480.84 438a21.89 21.89 0 0126.09 0L611 514.7a77.75 77.75 0 0072.22 10.69L751.77 501a22.08 22.08 0 0121.59 4l46 39.08a27.9 27.9 0 0043.57-32.59 27.92 27.92 0 01-4.22 6.72z"/>
      <ellipse class="cls-18" cx="455.36" cy="512.85" rx="34.39" ry="38.44"/>
      <circle class="cls-18" cx="534.61" cy="517.91" r="34.39"/>
      <circle class="cls-19" cx="444" cy="500.56" r="17.35"/>
      <circle class="cls-18" cx="444" cy="489.53" r="6.32"/>
      <circle class="cls-19" cx="522.27" cy="512.54" r="16.7"/>
      <circle class="cls-18" cx="522.27" cy="503.12" r="7.28"/>
      <path class="cls-16" d="M623.53 662.17q-3.72 0-7.42-.31l-.87-.08a87.17 87.17 0 01-34.47-10.86L514.3 614a40.64 40.64 0 00-18.17-5.31h-4.5a40.64 40.64 0 00-18.16 5.31L407 651a87.17 87.17 0 01-34.47 10.86l-.55.05h-.32a89.05 89.05 0 01-48.77-9.92l-39.23-20.46c-8-.61-16.39.21-22 2.24l-37.36 13.41a27.92 27.92 0 01-18.87-52.56l37.36-13.41c14.35-5.15 32.5-6.94 49.8-4.9a42.45 42.45 0 0114.76 4.59l41.38 21.58a33.42 33.42 0 0018.22 3.79h.38a31.85 31.85 0 0012.49-4.06l66.46-37a96.65 96.65 0 0143.48-12.32c2.71-.09 5.46-.09 8.16 0a96.65 96.65 0 0143.49 12.32l66.46 37a31.85 31.85 0 0012.49 4.06h.63a33.2 33.2 0 0018-3.8l30.88-16.1a91.78 91.78 0 0152.55-10.18 98.11 98.11 0 0122.52 5l37.36 13.41a27.92 27.92 0 01-18.87 52.56l-37.36-13.41a43.66 43.66 0 00-9.7-2.06 36.25 36.25 0 00-20.68 4.18l-30.87 16.1a89.52 89.52 0 01-41.29 10.2z"/>
      <path class="cls-17" d="M763.5 623.23l-37.36-13.41a44.24 44.24 0 00-9.7-2.06 36.25 36.25 0 00-20.68 4.18L664.89 628a89.4 89.4 0 01-41.36 10.23q-3.72 0-7.42-.31l-.87-.08A87.17 87.17 0 01580.77 627l-66.47-37a40.64 40.64 0 00-18.17-5.31h-4.5a40.64 40.64 0 00-18.16 5.31L407 627a87.17 87.17 0 01-34.47 10.86H371.66a89.05 89.05 0 01-48.77-9.86l-39.23-20.45c-8-.62-16.39.2-22 2.23l-37.36 13.41a27.92 27.92 0 01-34.66-14.33 27.91 27.91 0 0034.66 38.23l37.36-13.41c5.64-2 14.06-2.85 22-2.24l39.23 20.46a89.05 89.05 0 0048.77 9.92h.32l.55-.05A87.17 87.17 0 00407 650.92l66.47-37a40.64 40.64 0 0118.16-5.31h4.5A40.64 40.64 0 01514.3 614l66.47 37a87.17 87.17 0 0034.47 10.86l.87.08q3.71.32 7.42.31a89.52 89.52 0 0041.36-10.23l30.87-16.1a36.25 36.25 0 0120.68-4.18 43.66 43.66 0 019.7 2.06l37.36 13.41a27.91 27.91 0 0034.66-38.23 27.91 27.91 0 01-34.66 14.25z"/>
      <path d="M563.06 295.93c0 16.25-31-1.61-69.18-1.61s-69.17 17.86-69.17 1.61 31-33.09 69.17-33.09 69.18 16.85 69.18 33.09z" fill="#fad399" opacity=".5"/>
      <ellipse class="cls-12" cx="303.23" cy="355.11" rx="65.84" ry="14.48" transform="rotate(-57.32 303.252 355.117)"/>
      <ellipse class="cls-11" cx="211.41" cy="395.4" rx="40.46" ry="8.9" transform="rotate(-57.32 211.42 395.407)"/>
      <ellipse class="cls-12" cx="684.54" cy="355.11" rx="14.48" ry="65.84" transform="rotate(-32.68 684.489 355.1)"/>
      <ellipse class="cls-11" cx="776.36" cy="395.4" rx="8.9" ry="40.46" transform="rotate(-32.68 776.299 395.388)"/>
    </g>
  </g>
</svg>
