<svg xmlns="http://www.w3.org/2000/svg" viewBox="0 0 1553 686">
  <defs>
    <style>
      .cls-2{fill:none}.cls-3,.cls-4{fill:#051323}.cls-4{opacity:.5}.cls-5{fill:#07a}.cls-6{fill:#3392bb}.cls-7{fill:#5c9e32}.cls-8{fill:#dd711f}.cls-9{fill:#f2842a}.cls-10{fill:#ff9739}.cls-11{fill:#ffc23b}.cls-12{fill:#edaa24}.cls-13{fill:#fff}.cls-14{fill:#060610}
    </style>
  </defs>
  <g id="Layer_2" data-name="Layer 2">
    <g id="all">
      <!-- <rect width="1553" height="686" rx="50" fill="#2e475e"/> -->
      <path class="cls-2" d="M939.85 668.67a16.24 16.24 0 00-3.49-1.37 16.6 16.6 0 013.79.9c4.73-7.31 9.11-14.25 11.49-21.53a31 31 0 001.47-13.94 156.28 156.28 0 01-18.33 18.41c-4.6 4.09-9.14 8.21-13.26 12.49.31.89.63 1.78.89 2.67a74.11 74.11 0 012.89 19.7h4.2c1.21-2.41 2.5-4.72 3.81-6.94 2.14-3.59 4.37-7.06 6.54-10.39zM959.65 606.94a31.68 31.68 0 00.88-15.51 54.58 54.58 0 00-5.81-15.24 147.46 147.46 0 00-8.9-14.31 151.46 151.46 0 00-22.4-25.23c-.18 2-.31 3.91-.32 5.87a74.88 74.88 0 002 18.54 73.89 73.89 0 006.32 17.38c5.38 11 14.57 19.7 22.68 30.58 1 1.37 2 2.78 3 4.25a39.06 39.06 0 002.55-6.33zM971.51 627.66c1-10-1.07-20.54-4.29-30.75q-.45-1.39-.93-2.79a37.4 37.4 0 01-.49 14.41c-.14.66-.31 1.31-.49 2 .78-.77 1.58-1.51 2.42-2.19a31.39 31.39 0 00-2.81 3.54 52.11 52.11 0 01-3.73 8.88 42.27 42.27 0 013.42 25.86l.42.6c1-1.75 1.83-3.5 2.61-5.26a45.36 45.36 0 003.87-14.3zM979 674.21c-2.9-2.85-5.86-5.74-8.74-8.84l-.55-.6c-2 3.92-3.85 7.72-5.3 11.49a64.38 64.38 0 00-2.19 7c-.18.92-.36 1.84-.53 2.76h7.16a54.05 54.05 0 015-6.44c1.62-1.91 3.36-3.67 5.15-5.37z"/>
      <path class="cls-2" d="M857.32 684.08c-2.43-2.39-4.92-4.83-7.34-7.43-4.08-4.34-8-9.33-10.27-15.18a27.72 27.72 0 01-1.41-4.47 23.92 23.92 0 01-.71-4.6 28.68 28.68 0 01.92-9.08 27.8 27.8 0 019.39-14.65c-7.93 8.48-9.25 21.65-3.6 30.59 2.64 4.6 6.54 8.37 10.89 11.81 2.79 2.23 5.75 4.36 8.77 6.57 1.15-1.17 2.26-2.34 3.3-3.56a32.29 32.29 0 005-7.68 29.06 29.06 0 002.34-8.93 49.92 49.92 0 00-2.16-19.24c-3.77-12.74-11.12-24.68-14.83-37.81 4.88 12.75 13.13 23.63 18.33 36.61a54.48 54.48 0 014.2 20.77 35.07 35.07 0 01-1.84 10.94 39.23 39.23 0 01-5.2 9.87c-.93 1.31-1.91 2.56-2.89 3.77 1.41 1.13 2.82 2.33 4.2 3.6h17.73c.19-.65.38-1.31.6-2a56.48 56.48 0 019.36-16.83c1.72-2.17 3.54-4.2 5.4-6.14-.51-1.21-1.06-2.41-1.68-3.6a82.5 82.5 0 00-7.36-11.37c-5.57-7.49-12.21-14.88-17.22-23.8a51.63 51.63 0 01-5.57-14.39 49.17 49.17 0 01-.64-15.23 73.53 73.53 0 013.12-14.53 92 92 0 015.45-13.61c4.34-8.7 10.59-16.81 19-21.58-8 5.51-13.26 13.88-16.71 22.62a89 89 0 00-4.09 13.56 69.79 69.79 0 00-1.69 13.92 43.75 43.75 0 001.73 13.38 45.51 45.51 0 005.9 11.94c5.1 7.5 12 14 18.59 21.34a94.81 94.81 0 019.38 12.06c.23.35.45.71.68 1.07 3.93-3.34 8-6.45 11.93-9.5 8.1-6.12 15.85-12.46 22-20-.1-.23-.19-.45-.3-.68a58.62 58.62 0 00-4.36-7.83c-3.3-5.18-7.27-10.25-11.09-15.63a91.43 91.43 0 01-10.12-17.5 83.23 83.23 0 01-6.48-39.4 79.82 79.82 0 0123.91-50.6 5.44 5.44 0 015.43-5.31 4.93 4.93 0 01.55 0 75.12 75.12 0 0111.38-7.55 75.12 75.12 0 00-10.3 7.77 5.43 5.43 0 11-6.79 6.89 77.33 77.33 0 00-18.78 43.14 151.59 151.59 0 0124.42 23.7A147.82 147.82 0 01958 574.27q1.22 1.9 2.34 3.9c-1.56-4-3.12-8.08-4.54-12.2-3.65-10.5-6.55-21.7-6-33a53.72 53.72 0 013.08-16.49 38.88 38.88 0 018.73-14.06 38.27 38.27 0 00-7.52 14.45 51.82 51.82 0 00-1.75 16.1c.35 10.85 3.91 21.21 8.23 31.17s9.59 19.69 13.85 30.19 7.52 21.79 7.26 33.92c2.65-3.93 5.52-7.48 8.2-11 1.51-1.91 2.92-3.88 4.25-5.9-4.71-12.15-11.19-24-14.8-36.7 4.46 11.64 11.28 22 17 33.13a69.31 69.31 0 006.85-16.26 59.2 59.2 0 01-2.37-8 58.26 58.26 0 01-.83-17.24 27.66 27.66 0 01-12.08 2.76 27.47 27.47 0 01-4.43-.35c-.49-.07-1-.16-1.46-.27a27.13 27.13 0 01-2.87-.78 28.51 28.51 0 01-2.78-1.08 27.86 27.86 0 01-9.75-7.36c-.4-.47-.78-1-1.14-1.45-.1-.12-.19-.25-.28-.38-.31-.43-.61-.87-.89-1.32l-.13-.19c-.33-.53-.63-1.06-.91-1.59l-.15-.28q-.39-.74-.72-1.5s0-.11-.08-.16a27.93 27.93 0 017.5-32.48l22.44-19.07c22.86-60.27 44.61-94.91 59.19-113.63a47.82 47.82 0 0141.48-18.37c7 .57 14 1.34 20.74 2.25a384 384 0 0127.08-40.24 65.92 65.92 0 0157.17-25.31c15.74 1.26 31.17 3.27 45.67 5.64a107.67 107.67 0 0179.74-35.33h12.52a107.65 107.65 0 0180.23 35.86c15.43-2.6 32-4.82 48.9-6.17a65.9 65.9 0 0157.16 25.31 382.41 382.41 0 0127.08 40.24l3.81-.5V200.74c-8.38-.73-12.85-9.23-12.85-9.23a61.4 61.4 0 01-10 9.84c2.24.9 6.26 2.59 6.89 1.65a21.46 21.46 0 01-4.23 4.69.22.22 0 01-.13.06.2.2 0 01-.17-.09 13.85 13.85 0 01-3.47-5.5c-22.48 16.21-42.26.76-42.26.76l7.72-5.62-7.72-2.57a49.83 49.83 0 0116.62-11.79 27.74 27.74 0 013.65-5.84 64.4 64.4 0 019-8l4.14 11.16a39.43 39.43 0 0120 7.7c-.66-7.72 5.55-15.44 5.55-15.44-3 10.6 4.36 22.57 7.3 26.77V50a50 50 0 00-50-50H50A50 50 0 000 50v586a50 50 0 0050 50h805.4q.96-1 1.92-1.92zm651.18-606.6l.61-11.59 2.46 11.21 6.8.87-7.17 1.33c-.94 24.82-24.4 26.92-24.4 26.92-1.19-19.89 21.7-28.74 21.7-28.74zm-124.61 136.67c-.44-.47-4.9-4.35-5.46-3.68a20.33 20.33 0 016.26-5.06 2.78 2.78 0 011.9-.44 3 3 0 011.57 1.42 20.74 20.74 0 013.32 6.52 14.55 14.55 0 01-.17 6.75c5.78 2.83 11.48 7.65 15.93 15.71 0 0-23.23 17.38-43.66-13.51l-7.64 4.43 5.57-6.92-6.58-16.37 9.71 14.27a41.44 41.44 0 0121.75.5 15.6 15.6 0 00-2.5-3.62zm-32.33-136.63l11.13-22.06-4.82 23.95 12.52 7.51-15.11-3.54c-23.09 47.57-70.6 31.57-70.6 31.57 14.7-39.78 66.88-37.43 66.88-37.43zm-224.69 46l5.23 10.37s24.51-1.11 31.42 17.58c0 0-22.32 7.52-33.17-14.83l-7.1 1.67 5.88-3.53zm-34.68 83s9.15 11.38 8.18 22.75a58.07 58.07 0 0129.52-11.27q3-8.22 6.1-16.43c4.64 3.66 9.31 7.35 13.17 11.81a40.43 40.43 0 015.39 8.6c7.86 3.27 16.12 8.73 24.48 17.37l-11.38 3.79 11.38 8.27s-29.15 22.76-62.25-1.12a20.6 20.6 0 01-5.11 8.1c-.07.07-.15.15-.25.14a.34.34 0 01-.19-.09 31.55 31.55 0 01-6.24-6.91c.92 1.39 6.85-1.1 10.14-2.43a90.35 90.35 0 01-14.76-14.49s-7.17 13.7-20.62 13.7c0-.05 17.99-22.46 12.44-41.76zM957.61 396.16a5.44 5.44 0 115.44 5.44 5.44 5.44 0 01-5.44-5.44zm14.16 70.42a8.72 8.72 0 118.72-8.72 8.72 8.72 0 01-8.72 8.72zm51-127.36l-6.73-2.81c-14.36 20.27-35.15 9.2-35.15 9.2 9.87-17.3 33.88-12.2 33.88-12.2l6.85-9.37-4.08 10.74zm-31-199.3a29.17 29.17 0 11-29.16 29.16 29.17 29.17 0 0129.16-29.16zM943 272.49a17.44 17.44 0 11-17.43 17.44A17.44 17.44 0 01943 272.49zm-21.47 145.2a8.72 8.72 0 11-8.72 8.72 8.72 8.72 0 018.71-8.72zM912 373.25a14.91 14.91 0 11-14.91-14.91A14.91 14.91 0 01912 373.25zM873 18.38a29.17 29.17 0 11-29.16 29.17A29.16 29.16 0 01873 18.38z"/>
      <path class="cls-2" d="M1009.33 585.11a55.11 55.11 0 005.83 10.84c5.28 7.78 12.18 14.63 19.07 22.06a27.58 27.58 0 018.71-5l37.35-13.42c2.3-.82 4.7-1.55 7.17-2.2-1-1.87-2.12-3.73-3.31-5.58-3.93-6.17-8.66-12.19-13.2-18.6a108.78 108.78 0 01-12-20.82 96.13 96.13 0 01-6.73-23.08c-.3-1.8-.54-3.62-.74-5.44L1006.55 562a58.08 58.08 0 012.78 23.11zM973.78 656.57c.19.16.37.33.57.49-.09-.39-.16-.79-.24-1.18zM987.75 635.1a31.13 31.13 0 00-3.75 13.46 17.22 17.22 0 00.9 6.15 14.68 14.68 0 003.08 5 26.64 26.64 0 002.82 2.64 38.32 38.32 0 006-9.14 34.52 34.52 0 002.78-10.63 59.21 59.21 0 00-2.44-22.44c-.33.52-.66 1-1 1.54a153.81 153.81 0 00-8.39 13.42zM911 676.84a43.93 43.93 0 00-4.3 9.16h4.3a68.36 68.36 0 000-9.16zM1084.56 678.44c-1.26 2.53-2.4 5.06-3.4 7.56h2.39c.2-2.27.48-4.53.86-6.77.04-.23.1-.53.15-.79zM1073.72 661.24l-11.91 4.27a27.13 27.13 0 01-2.67.81 104.54 104.54 0 01.48 19.68h1.1a106.87 106.87 0 018.66-17.76c1.43-2.4 2.89-4.72 4.34-7zM982.7 686h7.3q-1.77-2.21-3.76-4.38a98.454 98.454 0 00-3.54 4.38zM1333.66 627h-4.5 4.5zM1102.39 681.7c-.15 1.43-.23 2.87-.27 4.3h6.05q-2.67-2.93-5.57-6.4-.13 1.05-.21 2.1zM1067.11 548.49c6.4 13.14 17.34 23.44 27 36.4q1.82 2.45 3.53 5.05c.39-.78.77-1.58 1.13-2.37a101.65 101.65 0 002.64-23.29v-2.2a67.93 67.93 0 00-6.51-16.26 173 173 0 00-10.59-17q-2.71-3.84-5.63-7.54l-5.11-1.81a22 22 0 00-15.45.28c.38 2.73.89 5.43 1.51 8.1a87.77 87.77 0 007.48 20.64zM1093.87 526.65l-10.67-3.79q1.77 2 3.47 4.09a174.05 174.05 0 0112.11 16.57c.27.43.53.86.79 1.29-.27-1.44-.58-2.85-.91-4.24-.86-2.29-1.7-4.6-2.5-6.92s-1.57-4.65-2.29-7z"/>
      <path class="cls-2" d="M1030.45 656.53a28.11 28.11 0 01-3.26-5.22c-.4-.85-.77-1.73-1.1-2.64-.16-.46-.31-.91-.45-1.37 0-.1-.05-.2-.08-.31-.11-.35-.21-.71-.3-1.06v-.2c-.1-.4-.19-.79-.26-1.18a1.55 1.55 0 010-.21c-.07-.39-.14-.78-.2-1.17v-.06a27.77 27.77 0 012.22-15.38c-6.42-8.47-13.84-16.93-19.51-27-.26-.45-.5-.91-.74-1.36a79.57 79.57 0 01-6.77 16c.42 1 .82 1.9 1.2 2.87a65.1 65.1 0 015 24.72 41.9 41.9 0 01-2.19 13 46 46 0 01-6 11.54l1.84 1.28a66.27 66.27 0 017 5.77 58.66 58.66 0 016.07 6.89 51 51 0 013.09 4.54h2.72a52.37 52.37 0 012.53-11.82 65.38 65.38 0 019.19-17.63zM1042.88 665.6a49.15 49.15 0 00-5.83 13.33A36.88 36.88 0 001036 686h5.64a88.77 88.77 0 001.24-20.4z"/>
      <path class="cls-3" d="M1355.28 83.38l15.11 3.54-12.52-7.51 4.82-23.95-11.13 22.06s-52.18-2.35-66.88 37.43c0 .05 47.51 16.05 70.6-31.57z"/>
      <path class="cls-4" d="M1130.35 136.67c10.85 22.35 33.17 14.83 33.17 14.83-6.91-18.69-31.42-17.58-31.42-17.58l-5.23-10.37 2.26 11.26-5.88 3.53zM1014.75 333.41s-24-5.1-33.88 12.2c0 0 20.79 11.07 35.15-9.2l6.73 2.81-5.23-4.44 4.08-10.78zM1511.2 79.3l7.17-1.33-6.8-.87-2.46-11.21-.61 11.59s-22.89 8.85-21.7 28.74c0 0 23.46-2.1 24.4-26.92z"/>
      <path class="cls-3" d="M1100.37 234.56a90.35 90.35 0 0014.76 14.49c-3.29 1.33-9.22 3.82-10.14 2.43a31.55 31.55 0 006.24 6.91.34.34 0 00.19.09c.1 0 .18-.07.25-.14a20.6 20.6 0 005.11-8.1c33.1 23.88 62.25 1.12 62.25 1.12l-11.38-8.27 11.35-3.79c-8.36-8.64-16.62-14.1-24.48-17.37a40.43 40.43 0 00-5.39-8.6c-3.86-4.46-8.53-8.15-13.17-11.81q-3 8.22-6.1 16.43a58.07 58.07 0 00-29.52 11.35c1-11.37-8.18-22.75-8.18-22.75 5.55 19.3-12.44 41.71-12.44 41.71 13.48 0 20.65-13.7 20.65-13.7zM1545.7 172.5s-6.21 7.72-5.55 15.44a39.43 39.43 0 00-20-7.7l-4.15-11.16a64.4 64.4 0 00-9 8 27.74 27.74 0 00-3.65 5.84 49.83 49.83 0 00-16.62 11.79l7.72 2.57-7.72 5.62s19.78 15.45 42.26-.76a13.85 13.85 0 003.47 5.5.2.2 0 00.17.09.22.22 0 00.13-.06A21.46 21.46 0 001537 203c-.63.94-4.65-.75-6.89-1.65a61.4 61.4 0 0010-9.84s4.47 8.5 12.85 9.23v-1.47c-2.9-4.2-10.31-16.17-7.26-26.77zM1364.64 217.22l-9.71-14.22 6.58 16.42-5.57 6.92 7.64-4.43c20.43 30.89 43.66 13.51 43.66 13.51-4.45-8.06-10.15-12.88-15.93-15.71a14.55 14.55 0 00.17-6.75 20.74 20.74 0 00-3.32-6.52 3 3 0 00-1.57-1.42 2.78 2.78 0 00-1.9.44 20.33 20.33 0 00-6.26 5.06c.56-.67 5 3.21 5.46 3.68a15.6 15.6 0 012.5 3.57 41.44 41.44 0 00-21.75-.55z"/>
      <path class="cls-5" d="M943 307.37a17.44 17.44 0 000-34.88 4.37 4.37 0 11-4.36 4.37 4.37 4.37 0 014.36-4.37 17.44 17.44 0 000 34.88z"/>
      <circle class="cls-6" cx="942.99" cy="276.86" r="4.37"/>
      <path class="cls-5" d="M991.77 198.25a29.17 29.17 0 10-29.16-29.17 29.17 29.17 0 0029.16 29.17zm0-56.95a10 10 0 11-10 10 10.05 10.05 0 0110-10zM873 76.71a29.17 29.17 0 000-58.33A14.59 14.59 0 11858.45 33 14.58 14.58 0 01873 18.38a29.17 29.17 0 000 58.33z"/>
      <path class="cls-6" d="M858.45 33A14.58 14.58 0 10873 18.38 14.59 14.59 0 00858.45 33z"/>
      <circle class="cls-6" cx="991.77" cy="151.35" r="10.05"/>
      <circle class="cls-5" cx="971.77" cy="457.86" r="8.72"/>
      <circle class="cls-5" cx="921.52" cy="426.41" r="8.72"/>
      <path class="cls-5" d="M947.36 486.36a5.44 5.44 0 00-5.43 5.31 78.64 78.64 0 016-5.28 4.93 4.93 0 00-.57-.03zM942.2 493.5a5.43 5.43 0 106.79-6.89 80.27 80.27 0 00-6.79 6.89z"/>
      <circle class="cls-5" cx="963.05" cy="396.16" r="5.43"/>
      <path class="cls-5" d="M882.17 373.25a14.91 14.91 0 1014.91-14.91 14.92 14.92 0 00-14.91 14.91z"/>
      <path class="cls-3" d="M1008.13 581.75q.54 1.69 1.2 3.36a58.08 58.08 0 00-2.78-23.16l-.32.27c-.08 1.2-.14 2.4-.15 3.6a51.79 51.79 0 002.05 15.93zM1006.7 674.57a66.27 66.27 0 00-7-5.77l-1.84-1.28c0 .07-.09.14-.14.21-1.11 1.56-2.27 3-3.44 4.48A72.94 72.94 0 011007.9 686h8a51 51 0 00-3.09-4.54 58.66 58.66 0 00-6.11-6.89zM963.85 627.9a41.65 41.65 0 00-2.66-7.19 52.11 52.11 0 003.73-8.88c-6.85 10-7.45 23.4-1.47 32.87.37.64.76 1.26 1.16 1.87a41.35 41.35 0 00-.76-18.67zM1006.69 599.34a64.54 64.54 0 01-3.53-7.8 69.31 69.31 0 01-6.85 16.26c1.27 2.48 2.49 5 3.61 7.57a79.57 79.57 0 006.77-16.03zM873.11 678.63a39.23 39.23 0 005.2-9.87 35.07 35.07 0 001.84-10.94 54.48 54.48 0 00-4.2-20.77c-5.2-13-13.45-23.86-18.33-36.61 3.71 13.13 11.06 25.07 14.83 37.81a49.92 49.92 0 012.16 19.24 29.06 29.06 0 01-2.34 8.93 32.29 32.29 0 01-5 7.68c-1 1.22-2.15 2.39-3.3 3.56-3-2.21-6-4.34-8.77-6.57-4.35-3.44-8.25-7.21-10.89-11.81-5.65-8.94-4.33-22.11 3.6-30.59a27.8 27.8 0 00-9.39 14.65 28.68 28.68 0 00-.92 9.08 23.92 23.92 0 00.71 4.6 27.72 27.72 0 001.41 4.45c2.29 5.85 6.19 10.84 10.27 15.18 2.42 2.6 4.91 5 7.34 7.43q-1 .95-1.92 1.92h19a81.085 81.085 0 00-4.2-3.6 69.5 69.5 0 002.9-3.77z"/>
      <path class="cls-3" d="M964.36 676.26c1.45-3.77 3.32-7.57 5.3-11.49-4.64-5-9-10.77-11.67-17.47a33.88 33.88 0 01-1.68-5.29 30 30 0 01-.85-5.48 34.21 34.21 0 011.1-10.8 33.33 33.33 0 018.75-15.25c.18-.64.35-1.29.49-2a37.4 37.4 0 00.49-14.41q.48 1.39.93 2.79c3.22 10.21 5.31 20.76 4.29 30.75a45.36 45.36 0 01-3.87 14.25c-.78 1.76-1.66 3.51-2.61 5.26a50.37 50.37 0 008.75 9.4l.33-.69c.08.39.15.79.24 1.18.67.57 1.36 1.13 2.06 1.69 3.32 2.66 6.85 5.19 10.44 7.82 1.37-1.39 2.69-2.78 3.91-4.22a26.64 26.64 0 01-2.82-2.64 14.68 14.68 0 01-3.08-5 17.22 17.22 0 01-.9-6.15 31.13 31.13 0 013.79-13.46 153.81 153.81 0 018.33-13.43c.34-.51.67-1 1-1.54l-.12-.46c-.83-2.79-1.8-5.56-2.86-8.3-1.33 2-2.74 4-4.25 5.9-2.68 3.49-5.55 7-8.2 11 .26-12.13-3.08-23.46-7.26-33.92s-9.51-20.2-13.85-30.19-7.88-20.32-8.23-31.17a51.82 51.82 0 011.75-16.1 38.27 38.27 0 017.52-14.45 38.88 38.88 0 00-8.73 14.06 53.72 53.72 0 00-3.08 16.55c-.51 11.31 2.39 22.51 6 33 1.42 4.12 3 8.18 4.54 12.2q-1.12-2-2.34-3.9a147.82 147.82 0 00-10.17-13.93 151.59 151.59 0 00-24.42-23.7 77.33 77.33 0 0118.82-43.17 80.27 80.27 0 016.79-6.89 75.12 75.12 0 0110.3-7.77 75.12 75.12 0 00-11.38 7.55 78.64 78.64 0 00-6 5.28 80 80 0 00-23.08 70.62 80.73 80.73 0 005.65 19.38 91.43 91.43 0 0010.12 17.5c3.82 5.38 7.79 10.45 11.09 15.63a58.62 58.62 0 014.36 7.83c.11.23.2.45.3.68-6.2 7.52-14 13.86-22 20-4 3.05-8 6.16-11.93 9.5-.23-.36-.45-.72-.68-1.07a94.81 94.81 0 00-9.38-12.06c-6.6-7.37-13.49-13.84-18.59-21.34a45.51 45.51 0 01-5.9-11.94 43.75 43.75 0 01-1.76-13.4 69.79 69.79 0 011.73-13.85 89 89 0 014.09-13.56c3.45-8.74 8.73-17.11 16.71-22.62-8.44 4.77-14.69 12.88-19 21.58a92 92 0 00-5.45 13.61 73.53 73.53 0 00-3.19 14.53 49.17 49.17 0 00.64 15.23 51.63 51.63 0 005.57 14.39c5 8.92 11.65 16.31 17.22 23.8a82.5 82.5 0 017.36 11.37c.62 1.19 1.17 2.39 1.68 3.6-1.86 1.94-3.68 4-5.4 6.14a56.48 56.48 0 00-9.36 16.83c-.22.64-.41 1.3-.6 2h14.59a43.93 43.93 0 014.3-9.16 68.36 68.36 0 010 9.11h14.3a74.11 74.11 0 00-2.89-19.7c-.26-.89-.58-1.78-.89-2.67 4.12-4.28 8.66-8.4 13.26-12.49a156.28 156.28 0 0018.33-18.41 31 31 0 01-1.47 13.94c-2.38 7.28-6.76 14.22-11.49 21.53a18.79 18.79 0 0112.42 17v.84h9.07c.17-.92.35-1.84.53-2.76a64.38 64.38 0 012.19-7.02zm-33-97.82a73.89 73.89 0 01-6.32-17.38 74.88 74.88 0 01-2-18.54c0-2 .14-3.92.32-5.87a151.46 151.46 0 0122.4 25.23 147.46 147.46 0 018.9 14.31 54.58 54.58 0 015.81 15.24 31.68 31.68 0 01-.88 15.51 39.06 39.06 0 01-2.61 6.33c-.95-1.47-1.95-2.88-3-4.25-7.98-10.88-17.2-19.54-22.58-30.58z"/>
      <path class="cls-3" d="M939.85 668.67c-2.17 3.35-4.4 6.8-6.54 10.39-1.31 2.22-2.6 4.53-3.81 6.94h19.33c0-.31.1-.61.13-.92.87-6.35-2.96-13.2-9.11-16.41z"/>
      <path class="cls-7" d="M1058.9 552.34a108.78 108.78 0 0012 20.82c4.54 6.41 9.27 12.43 13.2 18.6 1.19 1.85 2.3 3.71 3.31 5.58 2.92-.77 6-1.41 9-1.93.85-2.51 1.6-5.13 2.25-7.84-.36.79-.74 1.59-1.13 2.37q-1.71-2.61-3.53-5.05c-9.65-13-20.59-23.26-27-36.4a87.77 87.77 0 01-7.52-20.68c-.62-2.67-1.13-5.37-1.51-8.1a21.66 21.66 0 00-6.14 3.68l-.51.43c.2 1.82.44 3.64.74 5.44a96.13 96.13 0 006.84 23.08zM1059.14 666.32a27.7 27.7 0 01-11 .52q-1.34-.21-2.64-.54a26.05 26.05 0 01-2.56-.79 27.43 27.43 0 01-4.84-2.28c-.77-.46-1.52-1-2.24-1.48-.37-.26-.72-.54-1.07-.82a27.66 27.66 0 01-3-2.77c-.31-.34-.61-.68-.9-1l-.48-.6a65.38 65.38 0 00-9.34 17.65 52.37 52.37 0 00-2.53 11.82H1036a36.88 36.88 0 011.07-7.07 49.15 49.15 0 015.83-13.33 88.77 88.77 0 01-1.26 20.4h18a104.54 104.54 0 00-.5-19.71zM1007.43 600.7c5.67 10.1 13.09 18.56 19.51 27a28 28 0 017.29-9.72c-6.89-7.43-13.79-14.28-19.07-22.06a55.11 55.11 0 01-5.83-10.84q-.66-1.67-1.2-3.36a51.79 51.79 0 01-2-15.93c0-1.2.07-2.4.15-3.6l-.28.24a27.86 27.86 0 01-6 3.88 58.26 58.26 0 00.83 17.24 59.2 59.2 0 002.37 8 64.54 64.54 0 003.53 7.8c.2.44.44.9.7 1.35zM1102.6 679.6a235.65 235.65 0 01-16.6-22.77l-12.28 4.41c-1.45 2.28-2.91 4.6-4.34 7a106.87 106.87 0 00-8.66 17.76h20.44c1-2.5 2.14-5 3.4-7.56 0 .26-.11.53-.15.79-.38 2.24-.66 4.5-.86 6.77h18.57c0-1.43.12-2.87.27-4.3q.08-1.05.21-2.1zM1086.67 527q-1.7-2.07-3.47-4.09l-4.56-1.62q2.91 3.71 5.63 7.54a173 173 0 0110.59 17 67.93 67.93 0 016.51 16.26 101.46 101.46 0 00-1.8-17.27c-.26-.43-.52-.86-.79-1.29a174.05 174.05 0 00-12.11-16.53zM1096.16 533.65c.8 2.32 1.64 4.63 2.5 6.92a80.89 80.89 0 00-4.66-13.87l-.13-.05c.72 2.35 1.49 4.69 2.29 7zM994.3 672.21c1.17-1.44 2.33-2.92 3.44-4.48 0-.07.1-.14.14-.21a46 46 0 006-11.54 41.9 41.9 0 002.19-13 65.1 65.1 0 00-5-24.72c-.38-1-.78-1.92-1.2-2.87-1.12-2.58-2.34-5.09-3.61-7.57-5.73-11.16-12.55-21.49-17-33.13 3.61 12.74 10.09 24.55 14.8 36.7 1.06 2.74 2 5.51 2.86 8.3l.12.46a59.21 59.21 0 012.44 22.44 34.52 34.52 0 01-2.78 10.63 38.32 38.32 0 01-6 9.14c-1.22 1.44-2.54 2.83-3.91 4.22-3.59-2.63-7.12-5.16-10.44-7.82-.7-.56-1.39-1.12-2.06-1.69-.2-.16-.38-.33-.57-.49a50.37 50.37 0 01-8.75-9.4l-.42-.6c-.4-.61-.79-1.23-1.16-1.87-6-9.47-5.38-22.91 1.47-32.87a31.39 31.39 0 012.81-3.54c-.84.68-1.64 1.42-2.42 2.19a33.33 33.33 0 00-8.75 15.25 34.21 34.21 0 00-1.1 10.8 30 30 0 00.85 5.48 33.88 33.88 0 001.75 5.28c2.63 6.7 7 12.45 11.67 17.47l.55.6c2.88 3.1 5.84 6 8.74 8.84-1.74 1.7-3.48 3.46-5.19 5.35a54.05 54.05 0 00-5 6.44h13.9a98.14 98.14 0 013.53-4.38q2 2.18 3.76 4.38h17.91a72.94 72.94 0 00-13.57-13.79zM947.5 673a18.63 18.63 0 00-7.35-4.83 16.6 16.6 0 00-3.79-.9 16.24 16.24 0 013.49 1.37c6.15 3.21 10 10.06 9.11 16.41 0 .31-.08.61-.13.92h3.74v-.84A18.58 18.58 0 00947.5 673z"/>
      <path class="cls-8" d="M1069 462.4c15.88-38.68 31.12-68.53 44.62-91.31-6.76-.91-13.7-1.68-20.74-2.25a47.82 47.82 0 00-41.48 18.37c-14.58 18.72-36.33 53.36-59.19 113.63l23.56-20A78.07 78.07 0 011069 462.4zm-27.55-53.4c12.07-18.81 25.2-31.91 29.33-29.25s-2.29 20-14.35 38.85-25.2 31.9-29.33 29.25 2.29-20.07 14.35-38.85z"/>
      <path class="cls-9" d="M1069 462.4a77.69 77.69 0 0123.2 4.4l53.96 19.2 82.28-153.35a107.42 107.42 0 0115.12-21.43c-14.5-2.37-29.93-4.38-45.67-5.64a65.92 65.92 0 00-57.17 25.31 384 384 0 00-27.08 40.24c-13.5 22.74-28.74 52.59-44.64 91.27zm59.56-96.72c19.63-30.6 41-51.92 47.73-47.6s-3.73 32.63-23.36 63.23-41 51.92-47.73 47.61 3.8-32.63 23.38-63.24z"/>
      <path class="cls-8" d="M1553 377.62v-7l-3.81.5q1.89 3.14 3.81 6.5z"/>
      <path class="cls-9" d="M1522.11 330.85a65.9 65.9 0 00-57.11-25.31c-16.92 1.35-33.47 3.57-48.9 6.17a107.72 107.72 0 0114.64 20.9l82.87 154.46 39.44-14V429c-9.32-3.24-26.82-22.23-43.12-47.65-19.63-30.6-30.09-58.91-23.36-63.23s28.1 17 47.73 47.6a250.07 250.07 0 0118.7 34.44v-22.54q-1.92-3.36-3.81-6.53a382.41 382.41 0 00-27.08-40.24z"/>
      <path class="cls-10" d="M1146.16 486l14.62 5.19a22 22 0 0020.4-3l104.06-76.7a77.45 77.45 0 0192.35 0l104.07 76.7a22 22 0 0020.4 3l11.5-4.08-82.87-154.46a107.62 107.62 0 00-94.87-56.76h-12.52a107.63 107.63 0 00-94.86 56.76zm116.09-171.64c0-16.25 31-33.1 69.17-33.1s69.17 16.85 69.17 33.1-31-1.61-69.17-1.61-69.17 17.81-69.17 1.57z"/>
      <path class="cls-8" d="M1131.63 655.31l-10.44-5.44c-8-.62-16.39.21-22 2.23l-13.19 4.73a235.65 235.65 0 0016.6 22.77q2.89 3.48 5.57 6.4h42.88c-6.22-8.85-12.74-19-19.42-30.69z"/>
      <path class="cls-9" d="M1218.52 678.93a80.56 80.56 0 01-8.46 1.23l-.55.05h-.31c-2.09.18-4.19.28-6.28.31a89.13 89.13 0 01-9.39-.38q-3.12-.3-6.22-.82c-1-.17-2.06-.36-3.08-.57q-3.07-.62-6.12-1.46c-2-.57-4-1.2-6-1.91a90.4 90.4 0 01-11.67-5.09l-28.79-15c6.68 11.66 13.2 21.84 19.42 30.69h72.67l-4.27-5.8z"/>
      <path class="cls-8" d="M1535.81 653c-.85.38-1.69.78-2.52 1.21l-2.08 1.09c-6.46 11.26-12.77 21.15-18.8 29.79a50.06 50.06 0 0038.59-35.22 36.34 36.34 0 00-15.19 3.13z"/>
      <path class="cls-9" d="M1502.42 670.32a89.38 89.38 0 01-41.36 10.24c-1.24 0-2.48 0-3.71-.08s-2.48-.13-3.71-.24l-.87-.08a82.74 82.74 0 01-10.92-1.75l-5.58 7.59H1503a50.29 50.29 0 009.41-.9c6-8.64 12.34-18.53 18.8-29.79z"/>
      <path class="cls-10" d="M1218.52 678.93l.93 1.27-.93-1.27zM1418.3 669.3l-66.46-37a44.15 44.15 0 00-9-3.81 37.24 37.24 0 00-9-1.5H1329a37 37 0 00-9 1.5 42.57 42.57 0 00-6.81 2.65c-.75.36-1.49.75-2.23 1.16l-66.47 37a90.55 90.55 0 01-12.06 5.62l12.1 11.08h170.93l12.91-11.86a91.89 91.89 0 01-10.07-4.84zM1441.85 678.41l-5.58 7.59 5.58-7.59z"/>
      <path class="cls-9" d="M1221.12 678.38c-.87.2-1.73.38-2.6.55l.93 1.27 4.27 5.8h20.81l-12.06-11.08a86.1 86.1 0 01-11.35 3.46zM1441.85 678.41a87.06 87.06 0 01-13.48-4.27L1415.46 686h20.81z"/>
      <path d="M1495 548.27h-2.35a77.26 77.26 0 01-9.37-.82c-1.55-.23-3.09-.5-4.63-.82s-3.06-.7-4.57-1.11a78 78 0 01-25.58-12.42l-104.06-76.7a21.89 21.89 0 00-26.09 0l-104.06 76.7a77.71 77.71 0 01-51.22 15q-2.35-.15-4.71-.45a77.07 77.07 0 01-16.29-3.88L1094 526.7a80.89 80.89 0 014.66 13.87c.33 1.39.64 2.8.91 4.24a101.46 101.46 0 011.8 17.27v2.2a101.65 101.65 0 01-2.64 23.29c-.65 2.71-1.4 5.33-2.25 7.84a121 121 0 0133.58-.77 42.66 42.66 0 0114.76 4.59l41.39 21.58a33.37 33.37 0 0018.21 3.79h.46a31.69 31.69 0 0012.48-4.06l66.47-37a96.46 96.46 0 0143.47-12.33c2.71-.09 5.46-.08 8.16 0a96.5 96.5 0 0143.54 12.33l66.47 37a31.64 31.64 0 0012.48 4.06h.63a33.26 33.26 0 0018-3.81l30.87-16.1a92.5 92.5 0 0145.55-10.64v-61.73l-32.26 11.45a77.78 77.78 0 01-25.74 4.5zm-202.13 21.4c-19 0-34.39-17.21-34.39-38.43s15.4-38.44 34.39-38.44 34.39 17.21 34.39 38.44-15.38 38.43-34.37 38.43zm79.25 1a34.39 34.39 0 1134.38-34.39 34.39 34.39 0 01-34.36 34.4z"/>
      <path class="cls-11" d="M963.09 554.05q-.39-.74-.72-1.5.33.76.72 1.5zM1078.64 521.24l4.56 1.62 10.67 3.79.13.05 48.09 17.07-68.56-24.34a21.86 21.86 0 00-7.07-1.26 21.86 21.86 0 017.07 1.26zM987.88 569.1a27.47 27.47 0 01-4.43-.35 27.47 27.47 0 004.43.35zM964.15 555.92zM966.59 559.26c-.4-.47-.78-1-1.14-1.45.36.49.74.98 1.14 1.45zM965.17 557.43zM982 568.48a27.13 27.13 0 01-2.87-.78 27.13 27.13 0 002.87.78zM979.12 567.7a28.51 28.51 0 01-2.78-1.08 28.51 28.51 0 002.78 1.08z"/>
      <path class="cls-11" d="M1513.56 487.07l-11.5 4.08a22 22 0 01-20.4-3l-104.07-76.7a77.45 77.45 0 00-92.35 0l-104.06 76.7a22 22 0 01-20.4 3l-14.62-5.15-53.94-19.16a78.09 78.09 0 00-76.43 14l-23.56 20-22.44 19.07a27.93 27.93 0 00-7.5 32.48 28.05 28.05 0 01.08-22.52 28.17 28.17 0 004.22 6.73 27.93 27.93 0 0039.36 3.2l46-39.08a22.06 22.06 0 0121.59-4l68.56 24.35a77.75 77.75 0 0072.22-10.69l104.06-76.7a21.89 21.89 0 0126.09 0l104.06 76.7a77.76 77.76 0 0072.22 10.69l32.25-11.42v-36.59zM1495 548.27h-2.35c.8 0 1.59.01 2.35 0zM1163.09 548.1q-2.35-.15-4.71-.45 2.36.35 4.71.45zM1474.1 545.5c1.51.41 3 .78 4.57 1.11-1.53-.33-3.06-.7-4.57-1.11zM1478.67 546.61z"/>
      <path class="cls-12" d="M1448.52 510.42l-104.06-76.7a21.89 21.89 0 00-26.09 0l-104.06 76.7a77.75 77.75 0 01-72.22 10.69l-68.56-24.35a22.06 22.06 0 00-21.59 4l-46 39.08a27.93 27.93 0 01-39.36-3.2 28.17 28.17 0 01-4.22-6.73 28.05 28.05 0 00-.08 22.52c0 .05.05.11.08.16q.33.76.72 1.5l.15.28c.28.53.58 1.06.91 1.59l.13.19c.28.45.58.89.89 1.32.09.13.18.26.28.38.36.49.74 1 1.14 1.45a27.86 27.86 0 009.75 7.36 28.51 28.51 0 002.78 1.08 27.13 27.13 0 002.87.78c.49.11 1 .2 1.46.27a27.47 27.47 0 004.43.35 27.66 27.66 0 0012.08-2.76 27.86 27.86 0 006-3.88l.28-.24.32-.27 44.88-38.13.51-.43a21.66 21.66 0 016.14-3.68 22 22 0 0115.45-.28l68.56 24.34a77.07 77.07 0 0016.29 3.88q2.36.3 4.71.45a77.71 77.71 0 0051.22-15l104.06-76.7a21.89 21.89 0 0126.09 0l104.06 76.7a78 78 0 0025.58 12.42c1.51.41 3 .78 4.57 1.11s3.08.59 4.63.82a77.26 77.26 0 009.37.82h2.35a77.78 77.78 0 0025.72-4.5l32.26-11.49v-22.67l-32.26 11.46a77.76 77.76 0 01-72.22-10.69z"/>
      <path class="cls-13" d="M1292.89 492.8c-19 0-34.39 17.21-34.39 38.44s15.4 38.43 34.39 38.43 34.39-17.21 34.39-38.43-15.4-38.44-34.39-38.44zm-11.36 43.49a17.34 17.34 0 01-.64-34.66h1.29a17.34 17.34 0 01-.65 34.66zM1372.14 501.9a34.39 34.39 0 1034.38 34.39 34.39 34.39 0 00-34.38-34.39zm-12.34 45.72a16.68 16.68 0 01-.74-33.35 6 6 0 01.74 0 6.17 6.17 0 01.75 0 16.68 16.68 0 01-.75 33.35z"/>
      <path class="cls-14" d="M1282.18 501.63a6.32 6.32 0 11-1.29 0 17.35 17.35 0 101.29 0z"/>
      <path class="cls-13" d="M1275.22 507.91a6.32 6.32 0 107-6.28h-1.29a6.31 6.31 0 00-5.71 6.28z"/>
      <path class="cls-14" d="M1360.55 514.27a7.28 7.28 0 11-1.49 0 16.7 16.7 0 101.49 0z"/>
      <path class="cls-13" d="M1352.53 521.5a7.28 7.28 0 108-7.23 6.17 6.17 0 00-.75 0 6 6 0 00-.74 0 7.27 7.27 0 00-6.51 7.23z"/>
      <path class="cls-11" d="M1024.72 643.17c.06.39.13.78.2 1.17-.07-.34-.14-.78-.2-1.17zM1025.26 645.93zM1025.64 647.3zM1025 644.55c.07.39.16.78.26 1.18-.14-.4-.26-.79-.26-1.18zM1026.09 648.67zM1333.83 627a37.24 37.24 0 019 1.5 36.76 36.76 0 00-9.13-1.51h-2.25 2.25zM1035.86 661.75c.72.53 1.47 1 2.24 1.48-.77-.46-1.52-.95-2.24-1.48zM1034.79 660.93a27.66 27.66 0 01-3-2.77 27.66 27.66 0 003 2.77zM1045.5 666.3q1.3.33 2.64.54-1.34-.21-2.64-.54zM1038.1 663.23a27.43 27.43 0 004.84 2.28 27.43 27.43 0 01-4.84-2.28zM1030.93 657.13a27.82 27.82 0 01-3.74-5.82 28.11 28.11 0 003.26 5.22zM1187.31 679.35q3.11.52 6.22.82-3.12-.3-6.22-.82zM1172.09 675.41zM1202.92 680.55a89.13 89.13 0 01-9.39-.38 89.13 89.13 0 009.39.38zM1178.11 677.32q3 .84 6.12 1.46-3.07-.61-6.12-1.46zM1457.35 680.48c-1.24-.05-2.48-.13-3.71-.24l-.87-.08.87.08c1.23.11 2.47.19 3.71.24z"/>
      <path class="cls-11" d="M1507.47 604.71l-30.87 16.1a33.26 33.26 0 01-18 3.81h-.63a31.64 31.64 0 01-12.48-4.06l-66.47-37a96.5 96.5 0 00-43.49-12.33c-2.7-.08-5.45-.09-8.16 0a96.46 96.46 0 00-43.47 12.33l-66.47 37a31.69 31.69 0 01-12.48 4.06h-.46a33.37 33.37 0 01-18.21-3.79l-41.39-21.58a42.66 42.66 0 00-14.76-4.59 121 121 0 00-33.58.77c-3.1.52-6.13 1.16-9 1.93-2.47.65-4.87 1.38-7.17 2.2L1042.94 613a27.58 27.58 0 00-8.71 5 28 28 0 00-9.51 25.1 27.86 27.86 0 012.42-15.83 27.92 27.92 0 0034.67 14.33l37.35-13.41c5.64-2 14.06-2.85 22-2.23l39.23 20.45a89.07 89.07 0 0048.78 9.92H1210.03a87.16 87.16 0 0034.47-10.85l66.47-37a40.42 40.42 0 0118.16-5.31h4.5a40.6 40.6 0 0118.18 5.32l66.46 37a87.21 87.21 0 0034.47 10.85l.87.08q3.7.31 7.42.32a89.38 89.38 0 0041.36-10.24l30.87-16.09a36.41 36.41 0 0119.71-4.25v-32a92.5 92.5 0 00-45.5 10.55z"/>
      <path class="cls-12" d="M1533.29 630.33l-30.87 16.09a89.38 89.38 0 01-41.36 10.24q-3.72 0-7.42-.32l-.87-.08a87.21 87.21 0 01-34.47-10.85l-66.46-37a40.6 40.6 0 00-18.18-5.32h-4.5a40.42 40.42 0 00-18.16 5.31l-66.47 37a87.16 87.16 0 01-34.47 10.85H1209.2a89.07 89.07 0 01-48.78-9.92L1121.19 626c-8-.62-16.39.21-22 2.23l-37.35 13.41a27.92 27.92 0 01-34.67-14.33 27.86 27.86 0 00-2.42 15.83v.06c.06.39.13.78.2 1.17a1.55 1.55 0 000 .21c.07.39.16.78.26 1.18v.2c.09.35.19.71.3 1.06 0 .11 0 .21.08.31.14.46.29.91.45 1.37.33.91.7 1.79 1.1 2.64a27.82 27.82 0 003.74 5.82c.29.35.59.69.9 1a27.66 27.66 0 003 2.77c.35.28.7.56 1.07.82.72.53 1.47 1 2.24 1.48a27.43 27.43 0 004.84 2.28 26.05 26.05 0 002.56.79q1.3.33 2.64.54a27.7 27.7 0 0011-.52 27.13 27.13 0 002.67-.81l11.91-4.27 12.28-4.41 13.16-4.73c5.64-2 14.06-2.85 22-2.23l10.44 5.44 28.79 15a90.4 90.4 0 0011.67 5.09c2 .71 4 1.34 6 1.91s4.07 1 6.12 1.46c1 .21 2 .4 3.08.57q3.11.52 6.22.82a89.13 89.13 0 009.39.38c2.09 0 4.19-.13 6.28-.31h.31l.55-.05a80.56 80.56 0 008.46-1.23c.87-.17 1.73-.35 2.6-.55a86.1 86.1 0 0011.35-3.46 90.55 90.55 0 0012.06-5.62l66.47-37c.74-.41 1.48-.8 2.23-1.16a42.57 42.57 0 016.81-2.65 37 37 0 019-1.5H1333.62a36.76 36.76 0 019.13 1.51 44.15 44.15 0 019 3.81l66.46 37a91.89 91.89 0 0010.07 4.84 87.06 87.06 0 0013.48 4.27 82.74 82.74 0 0010.92 1.75l.87.08c1.23.11 2.47.19 3.71.24s2.47.08 3.71.08a89.38 89.38 0 0041.36-10.24l28.79-15 2.08-1.09c.83-.43 1.67-.83 2.52-1.21a36.34 36.34 0 0115.23-3.14 50 50 0 002-13.87v-9.92a36.41 36.41 0 00-19.66 4.21z"/>
      <path class="cls-10" d="M1331.42 312.71c38.2 0 69.17 17.85 69.17 1.61s-31-33.1-69.17-33.1-69.17 16.85-69.17 33.1 30.96-1.61 69.17-1.61z"/>
      <path d="M1331.42 312.71c38.2 0 69.17 17.85 69.17 1.61s-31-33.1-69.17-33.1-69.17 16.85-69.17 33.1 30.96-1.61 69.17-1.61z" fill="#fad399" opacity=".5"/>
      <ellipse class="cls-10" cx="1140.77" cy="373.5" rx="65.84" ry="14.48" transform="rotate(-57.32 1140.817 373.49)"/>
      <path class="cls-9" d="M1027.1 447.83c4.13 2.65 17.27-10.44 29.33-29.25s18.49-36.2 14.35-38.85-17.26 10.44-29.33 29.25-18.45 36.2-14.35 38.85z"/>
      <path class="cls-10" d="M1534.25 365.68c-19.63-30.6-41-51.92-47.73-47.6s3.73 32.63 23.36 63.23c16.3 25.42 33.8 44.41 43.12 47.65v-28.8a250.07 250.07 0 00-18.75-34.48z"/>
    </g>
  </g>
</svg>
