<svg xmlns="http://www.w3.org/2000/svg" viewBox="0 0 938.75 1069.11">
  <defs>
    <style>
      .cls-2{fill:#b2b2b2}.cls-3{fill:#f7c0b4}.cls-4{fill:#cb9f94}.cls-8{fill:#dd7d26}.cls-10{fill:#634e42}.cls-13{fill:#6d2d38}.cls-17{fill:#fff}.cls-19{fill:#4f3e3a}.cls-22{fill:#3f1921}.cls-29{fill:#004d26}.cls-30{fill:#1d1d1b}
    </style>
  </defs>
  <g id="Layer_2" data-name="Layer 2">
    <g id="all">
      <path transform="rotate(156.03 742.17 233.244)" fill="#878787" d="M615.46 34.32h253.43v397.77H615.46z"/>
      <path class="cls-2" d="M545.6 102.94l161.57 363.48 6.58-2.92L552.87 99.7l-7.27 3.24z"/>
      <path class="cls-3" d="M385.2 405s-162.47 76.1-209.09 184.7c0 0-30.67-33.18-69-29.5s-41.44 40.28-16.35 146.18 239.92-7.55 276-59.62S385.2 405 385.2 405z"/>
      <path class="cls-4" d="M107.15 560.2c33-3.17 60.29 21 67.23 27.76-15.57 22.1-42.5 38.18-58 61.09-12.9 20-3.54 41.74 16.34 51.88 33.84 12.23 63.2-11.34 72.93-39.52 20.47-61.91 29-125.23 59.54-179.85 58.29-47.65 120-76.59 120-76.59s17.68 189.72-18.42 241.79-250.93 165.51-276 59.62-21.91-142.5 16.38-146.18z"/>
      <path d="M174.51 533.92l13.43 52.37s-63.86 43.36-117.27-.92c0 0-.8-67.56 11.47-124.89 0 0 75.45-21.48 92.37 73.44z" fill="#3f312a"/>
      <path transform="rotate(156.03 787.15 213.254)" fill="#c6c6c6" d="M709.65 14.33h154.99V412.1H709.65z"/>
      <path class="cls-2" d="M933.88 352.53l4.87 11-141.63 63L635.55 63l7.74-3.44c50.19 138.11 143.12 265.61 290.59 292.97z"/>
      <path d="M661.26 247.17a6.79 6.79 0 011-.55c6.39-2.84 15.6 3.91 20.58 15.09 4.88 11 3.87 22.06-2.19 25.18v.09L23.41 595.65 4.58 555.56z" fill="#b55f0b"/>
      <path class="cls-8" d="M662.24 246.62a6.79 6.79 0 00-1 .55L4.58 555.56 7 560.79l667.55-310.68c-4.15-3.62-8.68-5.11-12.31-3.49z"/>
      <path d="M683.34 263c4.26 10.54 3.11 20.93-2.71 23.93v.09L23.41 595.65l-9.12-19.42z" fill="#884708"/>
      <ellipse class="cls-8" cx="14.66" cy="575.31" rx="12.66" ry="22.15" transform="rotate(-24.01 14.638 575.25)"/>
      <path class="cls-10" d="M204.66 418c28.9 8.73 57.29 73.78 14.34 110.32S106.45 548.7 82.14 460.48c0 0 39.32-67.56 122.52-42.48z"/>
      <path d="M214.7 423.32a32.55 32.55 0 00-10-5.28c-83.2-25.12-122.52 42.44-122.52 42.44.07.26.15.51.22.77 15.45-16.38 58.98-52.41 132.3-37.93z" fill="#7a6256"/>
      <path d="M82.14 460.48c17.56 41 71.68 60.09 113 40.7 17.6-8.62 23.95-20.55 26.19-31.74a61.63 61.63 0 00-2-42.13c21.94 21.29 35.12 70.88-.34 101.05-42.94 36.55-112.55 20.34-136.86-67.88z" fill="#4f3e35"/>
      <path class="cls-13" d="M446.58 292.05s.22-24.62-17-22.87-87.91 69.66-39.58 139.93 75.84-81.36 56.58-117.06z"/>
      <path d="M600.61 853.36s46.34 115.31 14.3 192.12l-20.79 3.2s-15.15-135-99.75-130.91-44.55 136.45-44.55 136.45l-33.51-5.32s-77.82-111.85-116.14-260.49c0 0 37.67-33.26 134.67-11s165.77 75.95 165.77 75.95z" fill="#0f6e96"/>
      <path d="M300.17 788.41s16.2-14.3 54.71-17.88c-2.32 99.07 29.78 199.74 86.48 282.35l-25.05-4s-77.82-111.83-116.14-260.47z" fill="#3f8bab"/>
      <path d="M514.13 884.15c8.76-25.24 8.79-51.8 5-78 50.13 22.74 81.44 47.2 81.44 47.2s46.34 115.31 14.3 192.12l-.78.12c-2.09-69.37-30.46-135.67-99.96-161.44z" fill="#0b5371"/>
      <path class="cls-17" d="M796.35 515.76s-56.41-94.23-265.94-121.15-298.08 109.12-302.47 207.91c-4.1 92.07 54.66 125.12 54.66 125.12s5.28 160 150.83 164.49 167.18-38.77 167.18-38.77-22.33-59.89 21.12-92.12 220-89.73 174.62-245.48z"/>
      <path d="M531.13 803.78c-16.08-46.34-71.64-49.22-111.14-64 67.15 13.41 152.46 1 176.8-69.43 9.74-28.18-10.94-54.9-17.79-82.29-9-25.49-5.9-51.57 4.88-75.74l2.55 18.73-2.55-18.73c.75-1.66 1.52-3.32 2.34-5-.82 1.65-1.59 3.31-2.34 5l-15.17-111.77c178.2 32.64 227.64 115.21 227.64 115.21C841.73 671.51 665.18 729 621.73 761.24s-21.12 92.12-21.12 92.12-12.87 25.72-85.5 35.44c19.6-22.13 28.89-50.74 16.02-85.02z" fill="#dadada"/>
      <path class="cls-17" d="M796.35 515.76a98.19 98.19 0 00-10-12.89C817 664.65 651 725 609.14 759.7c-43.28 35.87-20.6 103.11-20.6 103.11a22.39 22.39 0 01-2.74 4.19c11.71-7.45 14.81-13.63 14.81-13.63s-22.33-59.89 21.12-92.12 220-89.74 174.62-245.49z"/>
      <path class="cls-19" d="M449.82 1054.22l2.42 8.69-92.69 6.2s17.38-15.85 34.89-22.62 55.38 7.73 55.38 7.73zM593.53 1047.34l-1.57 8.88 92.86-2.68s-18.82-14.13-36.9-19.19-54.39 12.99-54.39 12.99z"/>
      <path class="cls-3" d="M513.59 279.94c-48.38-15.94-142.37 14.3-118.16 111.32 0 0-41.5 49.33-50.68 108.29s150.83 109.16 190.27 58 34.79-103.3 39.27-151.22 20.59-99.59-60.7-126.39z"/>
      <path d="M618.68 413s16.57-61.86-7.06-109.88c0 0-30.91-3.95-70.84 47.92 0 0 39.79 74.41-6.5 119.94-25.9 25.48-53.37-3.93-95.83-6.49-86.73-5.22-67.24-40.44-53.25-59.55 0 0-69 31.16-112.88 83 0 0-14.38 127.92 83.89 164.13S555 633.54 555 633.54s41.62-73.87 38.18-203.32z" fill="#843c45"/>
      <g opacity=".5">
        <path class="cls-22" d="M611.62 303.15s-6.3-1.41-17.36 2.77c18 33 23 71.34 21.73 108.92l2.69-1.81s16.57-61.86-7.06-109.88zM272.32 488c1-1.23 2.11-2.44 3.18-3.65 1 58.5 36.51 118.9 94.42 136C424.16 633 484.63 628.91 536 604.49c-2.68 3.73-5.45 7.41-8.37 11 2.92-3.6 5.69-7.28 8.37-11 4.38-2.08 8.71-4.26 13-6.64-4.24 2.38-8.57 4.56-13 6.64 34-47.15 49.19-104 57.32-160 .19 120.57-38.36 189-38.36 189s-100.52 54.75-198.78 18.54S272.32 488 272.32 488z"/>
      </g>
      <path class="cls-3" d="M575.6 426.29c-4.41 14.91 33 35.13 57.46 25.89s17.16-46.25 1-59.74c0 0-49.06 2.16-58.46 33.85z"/>
      <path class="cls-4" d="M634.06 392.44H634c10.89 14.38 15.14 36-.93 46.72-15 10-39.09 7.73-52.35.28 10.69 10.84 34.88 19.35 52.37 12.73 24.39-9.23 17.13-46.24.97-59.73z"/>
      <path d="M469 430.11a53.39 53.39 0 0038.21 14.7c24.16-.46 32.64-14.6 30.54-27.21 0 0 18 6.6 17.34 39.92S471.26 524.38 442 471.79c0 0-44.61 38-70.84 8s6.12-57.86 6.12-57.86S381 446.14 400.69 442s19.15-19.27 41.17-19.58 27.14 7.69 27.14 7.69z" fill="#a04d5b"/>
      <path d="M375.2 423.89c-9.09 23.18-2.42 53 21.76 55.35 18.29 1.79 35.3-8.42 48.88-23 22.45 30.21 69 31.49 95.75 5.55 10.44-12 8.76-31.55-3.27-43.93 2.95 1.4 17.38 9.77 16.81 39.69-.63 33.32-83.87 66.86-113.16 14.27 0 0-44.61 38-70.84 8-22.13-25.33-2.61-49.08 4.07-55.93z" fill="#3f1921" opacity=".5"/>
      <path d="M464.66 358.33L444 389.16s-44 3.76-8.08-48.54z" fill="#e2e1e0"/>
      <path d="M599.34 654.21s-22.5 111.89-189.5 86.36c0 0 162.47 59.43 189.5-86.36z" fill="#d1c6c6"/>
      <path class="cls-3" d="M628 430.18c1.23-4.27 0-9.38-3.63-12a12.49 12.49 0 00-4.29-1.88 24.61 24.61 0 00-14.84 1.24 45.39 45.39 0 00-12.77 8"/>
      <path d="M628 430.18a13.61 13.61 0 00-.71-5.77 9.67 9.67 0 00-3-4.4 11 11 0 00-4.76-2.05 21.5 21.5 0 00-5.5-.45 32.14 32.14 0 00-11 2.55 97 97 0 00-10.59 5.48 34 34 0 019.34-8 26 26 0 0112.13-3.64 21.19 21.19 0 016.47.75 12.19 12.19 0 015.87 3.34 11.06 11.06 0 011.75 12.19z" fill="#ce9a95"/>
      <ellipse cx="483.05" cy="290.8" rx="34.11" ry="11.56" transform="rotate(-2.74 483.377 291.036)" fill="#fad9d2"/>
      <circle class="cls-29" cx="444.06" cy="370.78" r="10.39"/>
      <circle class="cls-30" cx="444.06" cy="370.78" r="5.39"/>
      <circle class="cls-17" cx="445.72" cy="366.11" r="2.69"/>
      <path class="cls-3" d="M462.6 361.39s-29.23 37.88-43.3 81.71c0 0 12.59 13 41.43 11 0 0 9.28-5.45 13.84-11.48s-3.86-16.36-9.48-16.12"/>
      <path d="M462.6 361.39q-6.37 9.72-12.21 19.72c-2 3.32-3.85 6.68-5.7 10.07s-3.69 6.76-5.43 10.19c-3.51 6.85-6.84 13.79-9.85 20.85s-5.72 14.24-8.15 21.5l-.48-2.05a18.19 18.19 0 001.85 1.56c.68.52 1.39 1 2.12 1.47a40.79 40.79 0 004.59 2.52 54.81 54.81 0 0010 3.5 64.58 64.58 0 0010.55 1.68 79 79 0 0010.77.18l-.64.2a72 72 0 008.12-5.4 41.59 41.59 0 003.69-3.17c.57-.56 1.14-1.13 1.66-1.74a5.82 5.82 0 001.21-1.83 7.17 7.17 0 00.18-4.43 13.9 13.9 0 00-2-4.33 15.94 15.94 0 00-3.31-3.55 7.85 7.85 0 00-4.47-1.87 8.21 8.21 0 014.76 1.45 15.73 15.73 0 013.78 3.41 14.72 14.72 0 012.52 4.52 8.73 8.73 0 01.11 5.38 7.13 7.13 0 01-.57 1.3l-.38.6-.39.52c-.5.71-1.07 1.35-1.63 2a45.66 45.66 0 01-3.66 3.57 66.1 66.1 0 01-8.15 6.11l-.26.16h-.38a82 82 0 01-11.2.31 65.2 65.2 0 01-11.18-1.45 52.51 52.51 0 01-10.8-3.54 43.37 43.37 0 01-5.07-2.72c-.82-.5-1.62-1.05-2.41-1.63a23.33 23.33 0 01-2.35-2l-.87-.84.39-1.21c1.2-3.72 2.46-7.42 3.91-11.05s2.9-7.24 4.49-10.8c3.2-7.11 6.74-14.06 10.55-20.84 1.92-3.39 3.91-6.73 5.94-10s4.18-6.55 6.35-9.77a222.43 222.43 0 0114-18.55z" fill="#af7875"/>
      <path class="cls-13" d="M463.77 352.89c-9.37-8.15-20.64-13.75-31.87-19.06a3.47 3.47 0 00-2.22-.49 3.16 3.16 0 00-1.49 1 19.48 19.48 0 00-4.1 6.2 3.23 3.23 0 00-.33 1.77 3.29 3.29 0 001.88 2 57.32 57.32 0 008.77 3.7c7.08 2.53 28.25 11.24 30.52 10.85 3.43-.59.24-4.75-1.16-5.97z"/>
      <path class="cls-4" d="M476 367.48c-1.9 4.35-3.47 8.95-3.56 13.7s1.49 9.71 5 12.87c3.13 2.78 7.44 3.9 11.62 4.12 10.06.52 19.87-3.69 28.09-9.51a41.67 41.67 0 008.63-7.81 29.36 29.36 0 005.11-26.2 39.63 39.63 0 00-6.16-11.85c-1.29-1.78-2.83-1.36-4.62-2.65-2.64-1.91-6.85-1.53-10.09-1.88-4.06-.43-9.85-1.29-13.53.71-3.33 1.8-4 3.16-6.45 6a89.8 89.8 0 00-14.04 22.5z"/>
      <path class="cls-17" d="M510.43 389c-8.91 10.56-25.93 9.67-32.14 5.62-7.56-4.93-8.77-22.06.14-32.62s21.09-10.47 29.93-3 10.98 19.4 2.07 30z"/>
      <circle class="cls-29" cx="490.32" cy="376.14" r="11.91"/>
      <circle class="cls-30" cx="490.32" cy="376.14" r="6.18"/>
      <circle class="cls-17" cx="492.23" cy="370.78" r="3.09"/>
      <path class="cls-13" d="M518.28 349.77c4.83 1.86 8.8 4.94 13.3 7.29a1.68 1.68 0 001 .26 1.82 1.82 0 001.11-.91 10.31 10.31 0 00.39-9.54c-2.62-6.33-9.29-10.74-16.91-12s-16 .57-23.19 4.28c-3.27 1.69-7.91 4.71-8.14 8.34-.28 4.34 5.09 2.2 8 1.56 8.28-1.78 17.03-2.13 24.44.72z"/>
      <path class="cls-3" d="M609.29 506.3s-33.71 38.69-23.07 99 88.33 83.39 88.33 83.39S762.46 813.13 773 881.43c0 0-1.52 39.58 26 44.45s117.06-183 63.11-309.32S697.52 410.45 609.29 506.3z"/>
      <path class="cls-4" d="M862.11 616.56c-47.18-110.43-137.68-185.31-218.64-138.33 74.39-13 149.12 45.16 183.68 109.48 42.21 80.21 54.88 186.81-14.78 258.58a143.63 143.63 0 01-40.51 29c.44 2.09.82 4.15 1.13 6.16 0 0-1.52 39.58 26 44.45s117.07-183.05 63.12-309.34z"/>
      <path class="cls-10" d="M850.39 908.22l-90.61-31.37s9.6 29.36 0 43.64c0 0-32.46-23.57-45.87-11.71s13.64 38.8 29.09 39.94c0 0-18.64 20.1-38.61 32.79s38.28 50 78.81 18.2 44.95-78 44.95-78z"/>
    </g>
  </g>
</svg>
