<svg xmlns="http://www.w3.org/2000/svg" viewBox="0 0 1553 686">
  <defs>
    <style>
      .cls-1{fill:none}.cls-5{fill:#b2b2b2}.cls-6{fill:#f7c0b4}.cls-7{fill:#cb9f94}.cls-8{fill:#3f312a}.cls-9{fill:#c6c6c6}.cls-10{fill:#b55f0b}.cls-11{fill:#dd7d26}.cls-12{fill:#884708}.cls-13{fill:#634e42}.cls-14{fill:#7a6256}.cls-15{fill:#4f3e35}.cls-16{fill:#6d2d38}.cls-20{fill:#fff}.cls-21{fill:#dadada}.cls-22{fill:#843c45}.cls-23{fill:#3f1921}.cls-24{fill:#a04d5b}.cls-29{fill:#004d26}.cls-30{fill:#1d1d1b}
    </style>
  </defs>
  <g id="Layer_2" data-name="Layer 2">
    <g id="all">
      <path class="cls-1" d="M1503 0zM49.69 686z"/>
      <!-- <path d="M1553 636V50a50 50 0 00-49.69-50H49.69A50 50 0 000 50v586a50 50 0 0049.69 50h1453.62a50 50 0 0049.69-50z" fill="#2e475e"/> -->
      <ellipse cx="338.64" cy="634.07" rx="277.4" ry="12.49" fill="#4279ab"/>
      <path class="cls-1" d="M887.29 539.18a79.51 79.51 0 01-13.64-10.61c-73.72 36.25-162.65 55.16-178.21-10.66-12.12-51.18-17.64-86.16-15.79-109.08v-.36a80.453 80.453 0 01.98-7.47 92.91 92.91 0 01-5.3-4.09s-.05-4.43.07-12l-46.71 21.99-.33.18a1.55 1.55 0 01-.23.08c-6.38 2.54-15.4-4.16-20.31-15.18-4.69-10.55-3.94-21.25 1.53-24.82v-.09L678 334.83c1.68-19.8 4.41-42 8.87-62.81l-.07.08-.08.11-.36.49-.09.11-.15.2-.19.25-.1.15-.09.11.09-.11.1-.15a2.71 2.71 0 00.19-.25l.15-.2.09-.11.36-.49.08-.11.07-.08s39.32-67.57 122.51-42.45c.44.14.87.28 1.31.44l.6.23.69.27.82.37.45.2 1 .48a2.64 2.64 0 00.29.15c.36.19.72.39 1.07.6a1 1 0 01.17.1c.39.22.77.45 1.15.7h.08c.4.25.8.52 1.2.79l1.21.88c7.36 5.5 14.1 14.25 18.91 24.68l142.89-67.1c-16.69-59.21 38.14-110.2 53-111.71 10.45-1.06 14.48 7.55 16 14.51 23.1-9.16 49-10 68-3.76 16.22 5.35 28.55 11.69 37.89 18.79l67.13-31.53L1188.3 0H50A50 50 0 000 50v586a50 50 0 0050 50h882.36c-6.83-18-13.36-37-19.36-56.76-24.18-43.56-25.71-90.06-25.71-90.06zM1241.29 119.21l-19.41 9.11a143.43 143.43 0 016.7 35.43c.06.76.1 1.53.14 2.28.13 2.26.21 4.5.25 6.69v.09a206.78 206.78 0 01-1.26 26.64c-.1.87-.2 1.71-.3 2.54q-.21 1.8-.45 3.48a98.85 98.85 0 0111.69-1.49h.09c.51.42 1 .86 1.49 1.33a34.07 34.07 0 012.8 3c.72.87 1.39 1.79 2 2.75q.65.92 1.23 1.89a48.33 48.33 0 013.46 6.81c.49 1.18.92 2.38 1.32 3.6a50.7 50.7 0 012.06 8.89l.34.12 2.08.7c1.49.51 3 1 4.43 1.53l1.87.66c1.5.53 3 1.07 4.47 1.61l1.58.58 4.58 1.72 1.11.44c1.64.63 3.28 1.26 4.88 1.9h.1q11.19 4.47 21.16 9.12zM1226.42 572.77c-1.25.93-2.43 1.87-3.56 2.84-.18.14-.35.29-.52.44q-1.71 1.47-3.25 3a.46.46 0 01-.07.07 61.84 61.84 0 00-5 5.61c-.62.78-1.22 1.57-1.79 2.36-.84 1.18-1.64 2.38-2.39 3.59-.9 1.46-1.74 2.94-2.5 4.43a65.93 65.93 0 00-3 6.88c-.32.86-.63 1.73-.92 2.6-.08.24-.15.48-.22.71a73.353 73.353 0 00-2.37 9.8c-.1.57-.2 1.15-.28 1.72a89.21 89.21 0 00-1 14.09 110.21 110.21 0 005.73 34s3.21 8 7.34 21.11h163.74c-10.19-47.3-51.56-116.36-76.91-155.59-30.3 18.57-58.8 31.79-73.03 42.34zM1503 0h-37.37l72.93 164.06 3.14 7.07 1.73 3.89L1401.8 238l-68.48 30.44 2.44 1.47 1.06.65 2.91 1.81.91.58 2.91 1.87.7.46 3 2 .29.2c5.73 3.86 10.92 7.64 15.61 11.29l.07.06 2.41 1.91.48.37c.72.58 1.42 1.16 2.11 1.73l.64.52c.65.54 1.3 1.08 1.93 1.62l.68.57c.61.52 1.21 1 1.79 1.54l.71.62c.56.49 1.12 1 1.66 1.47l.7.63 1.57 1.42.67.62 1.48 1.39.62.59 1.42 1.36.56.55c.47.46.92.9 1.36 1.35.17.16.33.33.49.49.45.45.9.9 1.32 1.34.14.13.26.27.39.4l1.31 1.36.22.24c2 2.13 3.79 4.11 5.31 5.89l.08.09.91 1.08c.08.11.18.21.26.32l.76.92.32.39.64.81.34.42c.19.24.37.48.56.71l.32.42.48.64.3.39.42.57.27.36c.88.88 1.76 1.78 2.64 2.68l.34.35q1.5 1.55 3 3.12l.48.52q1.47 1.56 2.91 3.18l.41.45c1 1.12 2 2.26 3 3.4q1.5 1.72 3 3.49l.37.43q1.41 1.69 2.8 3.43l.48.59c.93 1.15 1.84 2.31 2.76 3.48l.4.52c1 1.23 1.9 2.46 2.84 3.71q1.41 1.89 2.81 3.81l.35.48c.89 1.22 1.77 2.46 2.64 3.7l.47.67c.87 1.24 1.74 2.5 2.59 3.76.13.19.25.38.38.56.9 1.33 1.79 2.66 2.67 4 .88 1.35 1.76 2.71 2.62 4.08.12.18.24.36.35.55q1.24 2 2.47 4l.44.73c.81 1.32 1.62 2.66 2.41 4l.36.62c.84 1.41 1.66 2.83 2.48 4.26.82 1.43 1.62 2.88 2.43 4.33l.33.6c.77 1.39 1.52 2.79 2.27 4.19l.42.78q1.11 2.11 2.21 4.24l.34.65q1.14 2.24 2.27 4.5 1.13 2.26 2.22 4.56c.11.22.21.43.31.65q1.05 2.18 2.07 4.4c.13.27.25.54.38.82.68 1.47 1.35 3 2 4.45.1.22.2.44.29.66.7 1.57 1.38 3.14 2.06 4.72a195.63 195.63 0 019.33 27.47q2 7.53 3.38 15.24c.07.37.13.73.2 1.09q1.41 7.78 2.31 15.68.54 4.77.91 9.56v.47q.36 4.74.56 9.5v.26c.09 2.16.15 4.33.19 6.49v3.31c0 6.61-.12 13.24-.48 19.85a365.004 365.004 0 01-.69 9.9c-.1 1.1-.19 2.2-.3 3.3a365.34 365.34 0 01-1.46 13.12q-.85 6.52-1.91 13-.54 3.23-1.11 6.43c-.39 2.14-.79 4.26-1.21 6.38q-.94 4.77-2 9.47c-.92 4.18-1.91 8.32-2.94 12.4q-1.17 4.61-2.41 9.1l-.84 3q-.84 3-1.73 5.92c-1.17 3.91-2.38 7.77-3.63 11.55-.63 1.89-1.26 3.77-1.9 5.62q-1.92 5.58-3.94 10.91-1 2.67-2 5.28l-1 2.58q-3.09 7.72-6.31 14.83-1.06 2.36-2.14 4.65c-.25.52-.5 1-.74 1.56h58a50 50 0 0050-50V50A50 50 0 001503 0z"/>
      <path class="cls-1" d="M798.75 354.24c-1.07.36-2.14.71-3.22 1l-1.34.38c-1.09.3-2.18.57-3.28.81s-2.45.52-3.68.72c-1.4.24-2.8.43-4.21.58l-.5.05h-.15l6.77 26.43a249.19 249.19 0 0126.57-38.37 75.94 75.94 0 01-16.96 8.4zM844 306.79c-.09.41-.19.81-.29 1.22-.07.25-.13.51-.2.76-.11.45-.24.9-.37 1.36-.06.2-.11.4-.17.6-.2.65-.4 1.3-.62 1.95l-.09.25c-.19.57-.39 1.13-.6 1.7l-.24.61c-.17.45-.35.89-.53 1.34-.1.22-.19.44-.29.67l-.58 1.3c-.09.21-.19.42-.29.63-.22.47-.45.94-.69 1.4 9.39-9.23 19.22-18 29.17-26.18l-24 11.25c0 .11 0 .23-.07.34z"/>
      <path d="M1266 58.7a6.63 6.63 0 011-.54 6.46 6.46 0 011.12-.39l.17-.05a8 8 0 011.11-.17h.22a10.84 10.84 0 011.14 0h.23a8.23 8.23 0 011.18.18h.15a10.4 10.4 0 011.09.31l.28.09c.37.14.74.3 1.12.47l.36.17c.36.18.72.38 1.08.59l.39.25c.34.21.69.44 1 .68l.41.3c.29.22.58.45.87.7a33.14 33.14 0 018.63 11.9 37.13 37.13 0 011.86 5.18c.18.64.34 1.28.47 1.9v.06c.13.61.25 1.22.34 1.82v.11c.09.58.17 1.15.22 1.72v.18c0 .54.09 1.07.11 1.59v2.04q0 .68-.09 1.32v.4c-.05.39-.11.78-.18 1.16 0 .16-.07.31-.1.46-.08.35-.16.69-.25 1s-.11.34-.16.51-.19.58-.3.86-.17.36-.25.54a7.75 7.75 0 01-.34.71 5.07 5.07 0 01-.34.55c-.12.2-.23.4-.36.58s-.3.36-.45.54a5.37 5.37 0 01-.37.44 6.2 6.2 0 01-.61.54 3 3 0 01-.33.29 7.19 7.19 0 01-1 .67v.08L1248.11 116l61.71 139.55.46.23c1.22.61 2.42 1.23 3.61 1.84l1.22.63c1.15.6 2.28 1.19 3.4 1.79l1.27.68c1.1.59 2.17 1.18 3.24 1.77l1.27.7c1 .58 2.09 1.17 3.12 1.76.41.23.82.46 1.22.7 1 .58 2 1.17 3 1.76l1.17.69.5.3 68.5-30.4L1296 0h-99.21l33.38 75.49z" fill="#878787"/>
      <path class="cls-5" d="M1230.19 75.49L1196.81 0h-8.51l35 78.73 6.89-3.24zM1241.29 119.21l58.45 131.5c1.62.75 3.21 1.51 4.78 2.26l.76.36 3.91 1.92.63.31L1248.11 116z"/>
      <path class="cls-6" d="M839 320.67l-.21.41c-.32.63-.66 1.26-1 1.88l-.21.37c-.29.5-.58 1-.88 1.48-.12.21-.25.41-.38.61l-.8 1.24-.43.64-.87 1.23-.42.59-1.15 1.5-.21.27q-.71.87-1.44 1.74l-.43.48c-.36.41-.72.82-1.1 1.23l-.57.61c-.35.37-.7.73-1.06 1.09l-.62.62-1.17 1.11c-.19.18-.37.36-.57.53-.57.53-1.16 1.05-1.76 1.56a80.13 80.13 0 01-8 6 249.19 249.19 0 00-26.57 38.37l3.49 13.58a118.36 118.36 0 01-20.52 10.4c-15.75 17.88-37.66 32.57-51.08 52.36-12.89 20-3.54 41.74 16.34 51.87 33.84 12.24 63.2-11.34 72.93-39.52 20.38-61.63 28.92-124.65 59.14-179.1l-1.2.56c-10 8.2-19.78 17-29.17 26.18zM680.66 401zM679.65 408.83v-.36z"/>
      <path class="cls-7" d="M810.3 472.94c-9.73 28.18-39.09 51.76-72.93 39.52-19.88-10.13-29.23-31.85-16.34-51.87 13.42-19.79 35.33-34.48 51.08-52.36-22 8.79-58.23 16.53-91.45-7.23a79.776 79.776 0 00-.98 7.47v.36c-1.85 22.92 3.67 57.9 15.79 109.08 15.6 65.82 104.49 46.91 178.21 10.66-17.09-16-43.84-51.38-41-114.51 1.81-40.56 17.8-87.39 50.52-126.65l-13.7 6.43c-30.28 54.45-38.82 117.47-59.2 179.1z"/>
      <path class="cls-8" d="M692.22 288.54c-.24-.62-.47-1.24-.7-1.87q-2.43-6.62-4.47-13.89c-.07-.25-.15-.5-.22-.76-4.46 20.83-7.19 43-8.87 62.81l30.95-14.53a140.15 140.15 0 01-16.69-31.76zM772.11 408.23a118.36 118.36 0 0020.52-10.4l-3.49-13.58-6.77-26.43c-1.48.14-3 .24-4.44.29h-2.59a72.5 72.5 0 01-29.3-6.36L675.43 385c-.12 7.53-.07 12-.07 12a92.91 92.91 0 005.3 4.09c33.22 23.67 69.46 15.91 91.45 7.14z"/>
      <path class="cls-9" d="M1401.8 237.97L1296.03 0l105.77 237.97zM1543.43 175.02l-1.73-3.89 1.73 3.89zM1538.56 164.06L1465.63 0h-154.31c53.44 81.87 127.98 145.65 227.24 164.06z"/>
      <path class="cls-5" d="M1401.8 238l141.63-63-1.73-3.89-3.14-7.07C1439.3 145.65 1364.76 81.87 1311.32 0H1296z"/>
      <path class="cls-10" d="M628.09 407.18zM609.26 367.09l.05.09-.05-.09zM840.84 265.69a80.2 80.2 0 014.08 16.31l145.45-68.11a94.76 94.76 0 01-6.92-14.54zM1290.57 86.07v1.46c.02-.48.01-.97 0-1.46zM1290.55 87.85q0 .68-.09 1.32.06-.64.09-1.32zM1289.86 80.39c.13.61.25 1.22.34 1.82-.09-.6-.2-1.21-.34-1.82zM1268.05 57.77l.17-.05zM1290.22 82.32zM1290.46 84.22c0 .54.09 1.07.11 1.59-.02-.52-.06-1.05-.11-1.59zM1290.41 89.57zM1287.68 96.49a5.37 5.37 0 01-.37.44 5.37 5.37 0 00.37-.44zM1290.13 91.19c-.08.35-.16.69-.25 1 .12-.31.17-.65.25-1zM1289.17 94.11a7.75 7.75 0 01-.34.71 7.75 7.75 0 00.34-.71zM1288.49 95.37c-.12.2-.23.4-.36.58.13-.18.24-.38.36-.58zM1289.72 92.71c-.1.29-.19.58-.3.86.11-.28.2-.57.3-.86zM1286.7 97.47a3 3 0 01-.33.29 3 3 0 00.33-.29zM1276.18 59.41l.39.25zM1289.37 78.43zM1269.33 57.55h.22zM1270.69 57.53h.23zM1273.34 58.09l.28.09zM1162.76 115.86a65.08 65.08 0 0110.24 12.48l115-53.84a36.32 36.32 0 011.34 3.92 37.13 37.13 0 00-1.86-5.18 33.14 33.14 0 00-8.63-11.9l.37.31zM1274.74 58.65l.36.17zM1272.1 57.74h.15zM1277.59 60.34l.41.3zM716.65 330l-.43-.48c-1.16-1.3-2.3-2.66-3.43-4.06l-.08-.1-92.4 43c4 2.65 7.92 7.36 10.6 13.37.06.13.11.26.16.4l93.86-44a96.69 96.69 0 01-8.28-8.13z"/>
      <path class="cls-11" d="M1162.76 115.86l116.48-54.21-.37-.31c-.29-.25-.58-.48-.87-.7l-.41-.3c-.33-.24-.68-.47-1-.68l-.39-.25c-.36-.21-.72-.41-1.08-.59l-.36-.17c-.38-.17-.75-.33-1.12-.47l-.28-.09a10.4 10.4 0 00-1.09-.31h-.15a8.23 8.23 0 00-1.18-.18h-.23a10.84 10.84 0 00-1.14 0h-.22a8 8 0 00-1.11.17l-.17.05a6.46 6.46 0 00-1.12.39 6.63 6.63 0 00-1 .54l-35.76 16.79-6.9 3.24-67.13 31.53a79.44 79.44 0 016.6 5.55zM610.33 366.61c3-1.32 6.51-.56 10 1.72l92.4-43-.54-.67c-1.1-1.4-2.19-2.86-3.26-4.35L678 334.83l-68.7 32.26v.09a7.22 7.22 0 011.03-.57zM840.84 265.69l142.61-66.37q-1.31-3.47-2.26-6.89l-142.89 67.1q1.38 3 2.54 6.16z"/>
      <path class="cls-12" d="M628.09 407.18zM990.37 213.86L844.92 282c.18 1.29.33 2.59.44 3.89v.31c0 .49.08 1 .11 1.48v.43c0 .49.06 1 .07 1.45v5.6l-.06 1.09-.06.92c0 .34-.05.68-.08 1s-.07.68-.1 1-.07.63-.1.95l-.18 1.34c0 .31-.09.62-.13.93-.09.53-.17 1.06-.27 1.59 0 .26-.1.51-.14.76l-.18.9 24-11.25 1.2-.56 13.7-6.43c25.25-30.31 60.46-56.1 106.82-71l1-1.49c-.17-.35-.39-.7-.59-1.05zM1173 128.34c.74 1.17 1.42 2.35 2.06 3.54a90.29 90.29 0 0124.08-14c-.07-.14-.14-.28-.22-.41 11.06-4.19 17.36-2.78 17.36-2.78a110.36 110.36 0 015.58 13.64l19.41-9.11 6.82-3.2 37.25-17.5v-.08a7.19 7.19 0 001-.67 3 3 0 00.33-.29 6.2 6.2 0 00.61-.54 5.37 5.37 0 00.37-.44c.15-.18.31-.35.45-.54s.24-.38.36-.58a5.07 5.07 0 00.34-.55 7.75 7.75 0 00.34-.71c.08-.18.17-.35.25-.54s.2-.57.3-.86.11-.33.16-.51.17-.66.25-1c0-.15.07-.3.1-.46.07-.38.13-.77.18-1.16v-.4q.06-.65.09-1.32v-.32-1.72c0-.52-.06-1-.11-1.59v-.18c0-.57-.13-1.14-.22-1.72v-.11c-.09-.6-.21-1.21-.34-1.82v-.06c-.13-.62-.29-1.26-.47-1.9a36.32 36.32 0 00-1.33-3.95zM738.72 348.06a84.89 84.89 0 01-10.48-7.15q-1-.81-2-1.65c-.43-.37-.87-.73-1.3-1.11l-93.86 44c4.69 10.84 3.63 21.74-2.38 24.8L675.43 385 746 351.79a78.82 78.82 0 01-7.28-3.73z"/>
      <path class="cls-11" d="M631.07 382.1c-.05-.14-.1-.27-.16-.4-2.68-6-6.58-10.72-10.6-13.37-3.47-2.28-7-3-10-1.72a7.22 7.22 0 00-1 .57c-5.47 3.57-6.22 14.27-1.53 24.82 4.91 11 13.93 17.72 20.31 15.18a1.55 1.55 0 00.23-.08l.33-.18c6.05-3.08 7.11-13.98 2.42-24.82z"/>
      <path class="cls-13" d="M782.52 357.8l.5-.05zM813.21 231.08l1 .48zM811.94 230.51l.82.37zM818.17 234l1.21.88zM814.47 231.71zM816.94 233.16l1.2.79c-.4-.27-.8-.54-1.2-.79zM815.71 232.41zM841.45 315.24l.24-.61zM844 306.79l.18-.8zM843 310.73c.06-.2.11-.4.17-.6-.06.2-.11.4-.17.6zM843.54 308.77c.07-.25.13-.51.2-.76-.07.25-.13.51-.2.76zM687.14 272.69c17.86 40.53 71.59 59.31 112.72 40 17.6-8.62 24-20.54 26.19-31.74a61.48 61.48 0 00-2-42.12c10.94 10.61 19.7 28.25 21.34 47-.11-1.3-.26-2.6-.44-3.89a80.2 80.2 0 00-4.08-16.28q-1.15-3.17-2.54-6.16c-4.81-10.43-11.55-19.18-18.91-24.68-73.21-14.42-116.72 21.44-132.28 37.87zM787.23 357.17c1.23-.2 2.46-.45 3.68-.72-1.22.27-2.45.55-3.68.72zM794.19 355.64l1.34-.38zM842.29 312.93l.09-.25zM839.76 319.18c.1-.21.2-.42.29-.63-.05.21-.19.45-.29.63zM840.63 317.25c.1-.23.19-.45.29-.67-.1.22-.19.42-.29.67zM810.65 230l.6.23zM832.45 330.89l.21-.27zM833.81 329.12l.42-.59zM830.58 333.11l.43-.48zM828.91 335l.57-.61zM835.1 327.3l.43-.64zM825.49 338.3c.2-.17.38-.35.57-.53-.19.23-.37.36-.57.53zM827.85 336l-.62.62zM823.69 339.9a77.52 77.52 0 01-24.94 14.34 75.94 75.94 0 0017-8.36 80.13 80.13 0 007.94-5.98zM836.33 325.42c.13-.2.26-.4.38-.61-.12.19-.25.41-.38.61zM837.59 323.33l.21-.37zM838.82 321.08l.21-.41zM777.93 358.11h-2.59c.87.04 1.73.03 2.59 0zM687.05 272.78q2 7.28 4.47 13.89-2.43-6.62-4.47-13.89zM712.79 325.42zM716.65 330a96.69 96.69 0 008.28 8.19c.43.38.87.74 1.3 1.11a96 96 0 01-9.58-9.3zM692.22 288.54a140.15 140.15 0 0016.69 31.76c1.07 1.49 2.16 2.95 3.26 4.35a136.15 136.15 0 01-19.95-36.11zM845.58 295.13l-.06 1.09zM845.39 286.17c0 .49.08 1 .11 1.48-.03-.5-.07-.99-.11-1.48zM845.46 297.14c0 .34-.05.68-.08 1 .03-.32.05-.66.08-1zM845.52 288.08c0 .49.05 1 .07 1.45-.01-.48-.04-.96-.07-1.45zM845.28 299.18c0 .32-.07.63-.1.95.03-.32.07-.63.1-.95zM845.6 294.33v-4.46c.05 1.49.05 2.97 0 4.46zM844.6 304c0 .26-.1.51-.14.76.04-.26.1-.51.14-.76zM845 301.47c0 .31-.09.62-.13.93.04-.31.13-.62.13-.93zM738.72 348.06a84.89 84.89 0 01-10.48-7.15 84.89 84.89 0 0010.48 7.15z"/>
      <path class="cls-14" d="M687.05 272.78c-.07-.25-.15-.5-.22-.76.07.26.15.51.22.76zM687.14 272.69c15.56-16.43 59.07-52.29 132.25-37.84l-1.21-.88-1.2-.79h-.08c-.38-.25-.76-.48-1.15-.7a1 1 0 00-.17-.1c-.35-.21-.71-.41-1.07-.6a2.64 2.64 0 01-.29-.15l-1-.48-.45-.2-.82-.37-.69-.27-.6-.23c-.44-.16-.87-.3-1.31-.44C726.15 204.45 686.83 272 686.83 272c.09.25.17.46.31.69z"/>
      <path class="cls-15" d="M686.68 272.21l-.36.49zM686.83 272l-.07.08zM685.89 273.26l-.1.15zM686.08 273a2.71 2.71 0 01-.19.25zM686.76 272.1l-.08.11zM685.79 273.41l-.09.11zM686.23 272.81l-.15.2zM686.32 272.7l-.09.11zM687.05 272.78q2 7.28 4.47 13.89c.23.63.46 1.25.7 1.87a136.15 136.15 0 0019.95 36.11l.54.67.08.1c1.13 1.4 2.27 2.76 3.43 4.06l.43.48a96 96 0 009.58 9.3q1 .84 2 1.65a84.89 84.89 0 0010.48 7.15 78.82 78.82 0 007.32 3.73 72.5 72.5 0 0029.3 6.36h2.59c1.49-.05 3-.15 4.44-.29h.15l.5-.05c1.41-.15 2.81-.34 4.21-.58 1.23-.2 2.46-.45 3.68-.72s2.19-.51 3.28-.81l1.34-.38c1.08-.31 2.15-.66 3.22-1a77.52 77.52 0 0024.94-14.34c.6-.51 1.19-1 1.76-1.56.2-.17.38-.35.57-.53l1.17-1.11.62-.62c.36-.36.71-.72 1.06-1.09l.57-.61c.38-.41.74-.82 1.1-1.23l.43-.48q.74-.87 1.44-1.74l.21-.27 1.15-1.5.42-.59.87-1.23.43-.64.8-1.24c.13-.2.26-.4.38-.61.3-.49.59-1 .88-1.48l.21-.37c.36-.62.7-1.25 1-1.88l.21-.41v-.09c.24-.46.47-.93.69-1.4.1-.21.2-.42.29-.63l.58-1.3c.1-.23.19-.45.29-.67.18-.45.36-.89.53-1.34l.24-.61c.21-.57.41-1.13.6-1.7l.09-.25c.22-.65.42-1.3.62-1.95.06-.2.11-.4.17-.6.13-.46.26-.91.37-1.36.07-.25.13-.51.2-.76.1-.41.2-.81.29-1.22l.18-.8c0-.11 0-.23.07-.34l.18-.9c0-.25.1-.5.14-.76.1-.53.18-1.06.27-1.59 0-.31.09-.62.13-.93l.18-1.34c0-.32.07-.63.1-.95s.07-.68.1-1 0-.68.08-1l.06-.92.06-1.09v-.8-4.46-.34c0-.48 0-1-.07-1.45v-.43c0-.5-.07-1-.11-1.48v-.31c-1.64-18.76-10.4-36.4-21.34-47a61.48 61.48 0 012 42.12c-2.23 11.2-8.59 23.12-26.19 31.74-41.13 19.29-94.86.51-112.72-40-.1-.23-.22-.44-.31-.67.17.07.27.32.32.57z"/>
      <path class="cls-16" d="M983.45 199.32a94.76 94.76 0 006.92 14.54c.2.35.42.7.63 1 5.42-7.73 9.12-12.12 9.12-12.12-14.73-59 14.28-93.32 50.16-107.56-1.56-7-5.59-15.57-16-14.51-14.91 1.51-69.74 52.5-53 111.71q.87 3.47 2.17 6.94z"/>
      <path d="M1205.29 664.89s3.21 8 7.34 21.11c-4.13-13.14-7.34-21.11-7.34-21.11z" fill="#0f6e96"/>
      <path d="M913 629.24C919 649 925.53 668 932.36 686h36.29c-25.89-14.14-43.56-35.08-55.65-56.76z" fill="#3f8bab"/>
      <path d="M1205.24 665l-.06.11-.11.17-.07.11-.07.11-.09.15a1 1 0 00-.08.11 1.88 1.88 0 01-.12.18v.06l-.34.49-.06.07-.21.29-.07.09-.25.32c-.3.38-.65.79-1 1.24-3.57 4-11.23 10.84-26.35 17.4h36.42c-4.13-13.14-7.34-21.11-7.34-21.11z" fill="#0b5371"/>
      <path class="cls-20" d="M1398 322.94l.42.57zM1398.73 323.91zM1393.12 316.84l.91 1.08zM1391 314.41c.72.8 1.4 1.59 2 2.33-1.52-1.78-3.29-3.76-5.31-5.89q1.76 1.86 3.26 3.55zM1260 234.64c-1.46-.52-2.94-1-4.43-1.53zM1386.2 309.26l1.31 1.36zM1394.29 318.24l.76.92zM1266.33 236.91c-1.47-.54-3-1.08-4.47-1.61 1.5.53 3 1.07 4.47 1.61zM1291 535.48l-4.26 2.48a740.42 740.42 0 01-6.28 3.59c-12.44 7.05-24.06 13.23-33.88 18.73-1.63.92-3.22 1.82-4.75 2.7a165.72 165.72 0 00-15.43 9.79c-1.25.93-2.43 1.87-3.56 2.84 1.13-1 2.31-1.91 3.56-2.84 14.23-10.55 42.73-23.82 73-42.36l-2 1.21c-2.09 1.31-4.25 2.6-6.4 3.86zM1397.23 321.91l.48.64zM1204.78 600.77c-.16.4-.31.81-.46 1.22a65.93 65.93 0 013-6.88q-1.4 2.79-2.54 5.66zM1209.84 590.68zM1336.82 270.53l2.91 1.81zM1395.37 319.55l.64.81zM1366.1 291.05c.72.58 1.42 1.16 2.11 1.73-.69-.57-1.39-1.15-2.11-1.73zM1396.35 320.78c.19.24.37.48.56.71-.19-.23-.37-.49-.56-.71zM1214 584.73a61.84 61.84 0 015-5.61 61.84 61.84 0 00-5 5.61zM1201.48 481.92a47.17 47.17 0 002.54-16.15 160.36 160.36 0 01-8.4 29.84 103 103 0 005.86-13.69zM1278.48 241.55c-1.6-.64-3.24-1.27-4.88-1.9 1.64.63 3.28 1.26 4.88 1.9zM1371.46 295.49c.61.52 1.21 1 1.79 1.54a94.99 94.99 0 00-1.79-1.54zM1368.85 293.3zM1201 614.18c-.06.3-.11.61-.16.92.4-2.35.92-4.72 1.57-7.09-.21.78-.42 1.56-.6 2.33q-.49 1.92-.81 3.84zM1374 297.65c.56.49 1.12 1 1.66 1.47-.58-.49-1.14-.98-1.66-1.47zM1203.18 605.3c.07-.23.14-.47.22-.71-.05.15-.09.3-.14.45s-.05.18-.08.26zM1272.49 239.21l-4.58-1.72zM1384.49 307.52c.45.45.9.9 1.32 1.34-.42-.44-.87-.86-1.32-1.34zM1344.25 275.25l3 2zM1199.59 632.69a106 106 0 00.93 11.55l.21 1.51c.44 3 1 5.7 1.49 8.11.17.8.35 1.56.53 2.29a85.83 85.83 0 002.54 8.74 110.21 110.21 0 01-5.73-34q0 .92.03 1.8zM1222.34 576.05q-1.71 1.47-3.25 3 1.54-1.53 3.25-3zM1200.12 619.88c-.14 1.26-.25 2.51-.34 3.75s-.15 2.47-.18 3.68 0 2.42 0 3.6a89.21 89.21 0 011-14.09c0 .31-.1.62-.14.92-.17.72-.26 1.43-.34 2.14zM1347.53 277.42zM1340.64 272.92l2.91 1.87zM1363.21 288.77l2.41 1.91zM1376.32 299.75l1.57 1.42zM1382.64 305.68c.47.46.92.9 1.36 1.35-.44-.45-.89-.89-1.36-1.35zM1253.14 232.29l.34.12-.34-.12zM1378.56 301.79l1.48 1.39zM1380.66 303.77l1.42 1.36zM1315.11 258.26zM1328.63 265.66c1 .58 2 1.17 3 1.76-.97-.59-1.98-1.18-3-1.76zM1324.29 263.2c1 .58 2.09 1.17 3.12 1.76-1.03-.59-2.07-1.18-3.12-1.76zM1310.28 255.79c1.22.61 2.42 1.23 3.61 1.84-1.19-.63-2.39-1.23-3.61-1.84zM1335.76 269.88l-2.44-1.47-.5-.3zM1319.78 260.73c1.1.59 2.17 1.18 3.24 1.77-1.02-.59-2.14-1.18-3.24-1.77zM1299.74 250.71q-10-4.64-21.16-9.12 13.9 5.57 25.94 11.38c-1.52-.75-3.16-1.51-4.78-2.26zM1309.19 255.25l-3.91-1.92zM983.83 225.64c2.14-3.36 4.17-6.41 6-9.1a104.83 104.83 0 00-6 9.1zM1204.72 665.83a1.88 1.88 0 01-.12.18 1.88 1.88 0 00.12-.18zM1203.88 667l-.25.32zM1204.56 666.07l-.34.49zM1203.62 667.34c-.3.38-.64.79-1 1.24.38-.45.7-.86 1-1.24zM1204.89 665.57l-.09.15zM1205 665.35l-.07.11z"/>
      <path class="cls-20" d="M1135.81 615.32c-11.34-32.69-42.31-43.75-73.45-52.61a230.82 230.82 0 01-47.84-10.6c6.68 1 13.1 1.8 19.32 2.4-3.13-1-6.19-2-9.17-3.15a248.08 248.08 0 0037.12 4.52c123.5-.2 142-89.21 142.23-90.11-.11-9.33-2.71-18.55-6.1-27.73a78.45 78.45 0 01-4.88-12.29c-3.57-8.68-7.17-17.36-9.36-26.11a90.54 90.54 0 01-2.93-10.12c-10.18 36.22-21.07 55.55-21.07 55.55s-100.53 54.75-198.79 18.55a115.92 115.92 0 01-59-47.37c-1.31-2.05-2.55-4.13-3.74-6.23q-2.06-3.63-3.86-7.34c-23.48-48.1-17.29-103.2-17.29-103.2 43.86-51.78 112.79-82.92 112.88-83l.07-.11c-46.36 14.91-81.57 40.7-106.82 71-32.72 39.26-48.71 86.09-50.52 126.65-2.81 63.13 23.94 98.51 41 114.51a79.51 79.51 0 0013.64 10.61s1.53 46.5 25.75 90.06c12.05 21.68 29.72 42.62 55.61 56.76h161.73c11.9-19.66 15.71-43.35 5.47-70.64zM1205.16 665.14zM1205.24 665zM1204.16 666.63l-.21.29zM1202.56 668.6c-3.57 4-11.26 10.84-26.37 17.4 15.14-6.56 22.81-13.35 26.37-17.4z"/>
      <path class="cls-21" d="M1200.12 619.88zM1199.6 627.31c0-1.21.09-2.44.18-3.68-.09 1.24-.15 2.47-.18 3.68zM1201 614.18q.35-1.92.81-3.84-.49 1.92-.81 3.84zM1024.67 551.36c3 1.11 6 2.15 9.17 3.15 9.87.94 19.17 1.38 28 1.37a248.08 248.08 0 01-37.17-4.52zM1203.26 605c0-.15.09-.3.14-.45.29-.87.6-1.74.92-2.6.15-.41.3-.82.46-1.22-.56 1.46-1.06 2.88-1.52 4.27zM1398.72 323.9l-.27-.36-.42-.57-.3-.39-.48-.64-.32-.42c-.19-.23-.37-.47-.56-.71l-.34-.42-.64-.81-.32-.39-.76-.92c-.08-.11-.18-.21-.26-.32l-.91-1.08-.08-.09c-.64-.74-1.32-1.53-2-2.33 3.51 3.98 6.03 7.22 7.66 9.45zM1332.82 268.11l-1.17-.69c-1-.59-2-1.18-3-1.76-.4-.24-.81-.47-1.22-.7-1-.59-2.07-1.18-3.12-1.76l-1.27-.7c-1.07-.59-2.14-1.18-3.24-1.77l-1.27-.68c-1.12-.6-2.25-1.19-3.4-1.79l-1.22-.63c-1.19-.61-2.39-1.23-3.61-1.84l-.46-.23-.63-.31-3.91-1.92-.76-.36q-12-5.79-25.94-11.38h-.1c-1.6-.64-3.24-1.27-4.88-1.9l-1.11-.44-4.58-1.72-1.58-.58c-1.47-.54-3-1.08-4.47-1.61l-1.87-.66-4.43-1.53-2.08-.7-.34-.12a45.08 45.08 0 01.41 5.41 37 37 0 01-.49 6.61 30 30 0 01-1.72 6.16 22.57 22.57 0 01-9.38 11.2 25.67 25.67 0 01-4.21 2c-.49.19-1 .35-1.48.52l-.41.12c-.42.13-.84.26-1.27.37l-.26.07c-.51.14-1 .25-1.53.36l-.38.08c-.42.09-.84.16-1.27.24l-.36.06c-.53.08-1 .15-1.58.21h-.3c-.45.05-.89.09-1.34.12h-.42q-.81.06-1.62.09H1221.82c-.55 0-1.1-.06-1.65-.1h-.4l-1.36-.13h-.35l-1.65-.21-.3-.05-1.4-.23-.39-.07-1.65-.33h-.08c-.52-.11-1-.23-1.57-.36l-.38-.09-1.57-.41-1.65-.48-.32-.1c-.47-.14-.94-.3-1.41-.46l-.22-.07c-.54-.18-1.07-.37-1.6-.57l-.22-.08-1.39-.54-.26-.11c-.53-.21-1-.43-1.57-.66l-1.49-.68-.26-.12-.57-.28c-.27 54.78-8.52 98.55-17.29 129.78a90.54 90.54 0 002.93 10.12c2.19 8.75 5.79 17.43 9.36 26.11a76.86 76.86 0 01-2.14-8.92c-10.63-60.3 23.08-99 23.08-99 11.09-12.05 22.53-21.32 34.17-28.07 1.23-.71 2.46-1.39 3.69-2.05l.16-.09c1.18-.62 2.36-1.22 3.54-1.79l.41-.2c1.17-.56 2.33-1.1 3.5-1.61l.36-.16q3.68-1.59 7.35-2.87a1.15 1.15 0 01.17-.06c1.19-.42 2.38-.8 3.58-1.17l.41-.12c1.17-.35 2.35-.68 3.53-1l.36-.09q3.69-1 7.4-1.6h.17c1.2-.21 2.4-.39 3.6-.56l.41-.05c1.18-.16 2.36-.29 3.54-.4h.36q3.7-.34 7.41-.39h4.19c1.18 0 2.36.09 3.54.17h.36c2.46.17 4.92.42 7.37.77h.2c1.19.16 2.38.36 3.57.57l.42.07c1.17.22 2.34.45 3.51.7l.36.08q3.66.8 7.29 1.85l.23.06c1.17.35 2.34.71 3.51 1.09l.43.14c1.16.38 2.31.78 3.46 1.19l.37.14q3.6 1.32 7.16 2.87l.26.11c1.15.5 2.29 1 3.44 1.56l.45.21c1.13.54 2.25 1.09 3.38 1.66l.38.2c2.34 1.19 4.68 2.46 7 3.81l.28.16c1.12.65 2.23 1.32 3.34 2l.47.29c1.1.68 2.19 1.37 3.29 2.09l.39.26q3.42 2.24 6.8 4.68l.3.23c1.09.78 2.16 1.59 3.24 2.4l.47.36c1.07.82 2.12 1.65 3.18 2.49l.4.32q3.3 2.65 6.56 5.49l.33.3c1 .91 2.08 1.83 3.11 2.77l.31.29c-.15-.85-.3-1.7-.46-2.55q-1.5-1.7-3.26-3.55l-.22-.24-1.31-1.36c-.13-.13-.25-.27-.39-.4-.42-.44-.87-.89-1.32-1.34-.16-.16-.32-.33-.49-.49-.44-.45-.89-.89-1.36-1.35l-.56-.55-1.42-1.36-.62-.59-1.48-1.39-.67-.62-1.57-1.42-.7-.63c-.54-.49-1.1-1-1.66-1.47l-.71-.62c-.58-.51-1.18-1-1.79-1.54l-.68-.57c-.63-.54-1.28-1.08-1.93-1.62l-.64-.52c-.69-.57-1.39-1.15-2.11-1.73l-.48-.37-2.41-1.91-.07-.06c-4.69-3.65-9.88-7.43-15.61-11.29l-.29-.2-3-2-.7-.46-2.91-1.87-.91-.58-2.91-1.81-1.06-.65z"/>
      <path class="cls-21" d="M1202.56 668.6c.4-.45.74-.86 1-1.24l.25-.32.07-.09.21-.29.06-.07.34-.49v-.06a1.88 1.88 0 00.12-.18 1 1 0 01.08-.11l.09-.15.07-.11.07-.11.11-.17.06-.11v-.11s-3.1 6.19-14.81 13.64a22.39 22.39 0 002.74-4.18s-22.68-67.24 20.6-103.11c15.11-12.53 46.44-28.42 78.84-51.23-8.13-12.3-13.42-19.79-13.42-19.79s-59.2-17.6-81.32-62.18c3.39 9.18 6 18.4 6.1 27.73a47.17 47.17 0 01-2.54 16.15 103 103 0 01-5.86 13.69c-26.18 66.15-89 72.19-133.26 67.1 31.14 8.86 62.11 19.92 73.45 52.61 10.24 27.29 6.43 51-5.43 70.68h45.81c15.31-6.66 23.01-13.45 26.57-17.5z"/>
      <path class="cls-20" d="M1193.22 674.35a22.39 22.39 0 01-2.74 4.18c11.71-7.45 14.81-13.64 14.81-13.64a85.83 85.83 0 01-2.54-8.74c-.18-.73-.36-1.49-.53-2.29-.53-2.41-1-5.13-1.49-8.11-.07-.49-.14-1-.21-1.51a106 106 0 01-.93-11.55v-1.77-3.6c0-1.22.09-2.44.18-3.68s.2-2.49.34-3.75c.08-.71.17-1.42.27-2.14 0-.3.09-.61.14-.92.08-.57.18-1.15.28-1.72 0-.31.1-.62.16-.92q.35-1.92.81-3.84c.18-.77.39-1.55.6-2.33s.51-1.8.8-2.71c0-.08 0-.17.08-.26.46-1.43 1-2.85 1.52-4.27q1.14-2.87 2.56-5.66c.76-1.49 1.6-3 2.5-4.43.75-1.21 1.55-2.41 2.39-3.59.57-.79 1.17-1.58 1.79-2.36a61.84 61.84 0 015-5.61.46.46 0 00.07-.07q1.54-1.53 3.25-3c.17-.15.34-.3.52-.44 1.13-1 2.31-1.91 3.56-2.84a165.72 165.72 0 0115.43-9.79c1.53-.88 3.12-1.78 4.75-2.7 9.82-5.5 21.44-11.68 33.88-18.73 2.07-1.17 4.17-2.37 6.28-3.59l4.26-2.48a684.9 684.9 0 006.45-3.86l2-1.21c-2.43-3.75-4.71-7.24-6.8-10.4-32.4 22.81-63.73 38.7-78.84 51.23-43.28 35.86-20.6 103.1-20.6 103.1zM1391 314.42c.16.85.31 1.7.46 2.55l.17.15c1 .94 2 1.89 3.05 2.85l.41.39c1.05 1 2.1 2 3.15 3.06l.49.49c-1.64-2.24-4.16-5.48-7.73-9.49z"/>
      <path class="cls-6" d="M989.86 216.54a246.84 246.84 0 00-6 9.1 52 52 0 00-4.86 10.77l.23-.25.14-.14c1.56-1.64 2.6-2.55 2.6-2.55s3.73 24.23 23.44 20.08c10.92-2.29 15.62-8 21.39-12.61 1.17-2.94 2.39-5.87 3.68-8.76 3.19-7.12 6.73-14.06 10.55-20.84 1.91-3.39 3.9-6.73 5.93-10l.34-.53c-6.93.09-35.61-1.86-10.83-42.17a43.26 43.26 0 01-6.1-2.72c-.83-.47-1.72-1.08-1.89-2a3.23 3.23 0 01.33-1.77 19.75 19.75 0 014.1-6.21 3.31 3.31 0 011.49-1 3.57 3.57 0 012.23.5c11.23 5.3 22.5 10.91 31.87 19 1.4 1.22 4.59 5.38 1.15 6a2.18 2.18 0 01-.61 0l-1.71 2.55 2.48 65.07a8.12 8.12 0 014.76 1.45 15.52 15.52 0 013.78 3.41 14.51 14.51 0 012.52 4.5 54.36 54.36 0 0031.1 9c24.17-.46 32.65-14.6 30.55-27.22 0 0 .3.12.83.38.27.14.6.32 1 .55l.32.19.2.13.38.25.21.15.41.29.23.17.45.34.23.18.48.41.23.18.54.49.19.18.64.62.13.12a30.72 30.72 0 012.4 2.79l.14.19c.22.29.43.58.65.89l.21.31.57.87.24.38c.18.29.36.6.54.91l.24.42c.17.32.35.64.52 1l.23.45.51 1.07.21.45.54 1.26.15.36c.45 1.13.87 2.34 1.26 3.62 0 .12.07.25.1.38.15.51.3 1 .44 1.57v.16c12.27-41.91-12.47-88.21-12.47-88.21 10.65-13.84 20.66-23.7 29.61-30.73-.64-1.19-1.32-2.37-2.06-3.54a65.08 65.08 0 00-10.26-12.48 79.44 79.44 0 00-6.6-5.6c-9.34-7.1-21.67-13.44-37.89-18.79-19-6.24-44.89-5.4-68 3.76-35.88 14.24-64.89 48.55-50.16 107.56 0 0-3.7 4.39-9.12 12.12l-1 1.49-.07.11zm148.94-58.14a10.3 10.3 0 01-.4 9.55 1.38 1.38 0 01-2.14.64l-.1-.05a29.36 29.36 0 01-5.68 23.84 41.72 41.72 0 01-8.63 7.82c-8.22 5.82-18 10-28.09 9.5-4.18-.21-8.49-1.33-11.62-4.12a13.09 13.09 0 01-1.48-1.59q-.33-.41-.63-.84c-.14-.21-.28-.42-.41-.64s-.25-.42-.36-.63a13.36 13.36 0 01-.64-1.32l-.09-.21c-.18-.43-.34-.86-.49-1.31l-.24-.75c0-.14-.07-.27-.1-.4a28.08 28.08 0 015.41-24.4c.15-.18.31-.35.46-.52a89.87 89.87 0 017.55-11.9 2.5 2.5 0 01-.57-2c.23-3.63 4.87-6.65 8.14-8.35 7.17-3.71 15.57-5.49 23.19-4.27s14.3 5.63 16.92 11.95zm-51.62-67.61c18.82-.9 34.32 3.53 34.63 9.91s-14.7 12.28-33.52 13.18-34.32-3.54-34.62-9.92 14.7-12.27 33.51-13.17z"/>
      <path class="cls-22" d="M1227.71 199.45zM1229 172.72zM898.19 410q-2.06-3.63-3.86-7.34 1.8 3.73 3.86 7.34zM974.61 431.82c54.24 12.73 114.71 8.63 166.1-15.8 33.26-46.18 48.56-101.67 56.81-156.54-.62-.31-1.23-.63-1.82-1l-.21-.11-1.33-.76h-.06q-.7-.4-1.38-.84l-.12-.08c-.41-.26-.82-.52-1.22-.79l-.13-.09c-.85-.58-1.67-1.18-2.45-1.79l-.14-.12c-.77-.61-1.5-1.23-2.18-1.86l-.13-.12c-4.87-4.54-7.41-9.57-6.06-14.11 5.61-18.95 25.42-27.34 40.43-31-.91-31-6.86-61.78-21.56-88.93a90.29 90.29 0 00-24.08 14c-8.95 7-19 16.89-29.61 30.73 0 0 24.74 46.3 12.47 88.21 0 .16.08.34.12.51.11.46.22.92.33 1.4 0 .26.11.54.16.81.09.45.18.91.26 1.38.06.3.11.6.15.91.08.46.15.94.21 1.42 0 .32.09.65.13 1 .06.49.11 1 .16 1.49 0 .34.07.67.1 1 0 .53.08 1.07.11 1.61 0 .34 0 .68.06 1 0 .6 0 1.22.06 1.85v3.82a20.94 20.94 0 01-.43 3.77 22.12 22.12 0 01-.78 2.92 30.76 30.76 0 01-3.57 7.14c-.34.5-.68 1-1 1.48a46.94 46.94 0 01-5 5.69c-.47.45-1 .91-1.46 1.36-21.4 19.27-65.64 29.5-91.31 4.51a54.59 54.59 0 01-9.55-12.59 96.91 96.91 0 01-9.18 6.66l-1 .61c-1 .62-2 1.25-3.1 1.89-.73.43-1.48.85-2.25 1.28-1.92 1.06-4 2.11-6.12 3.1l-1.3.59c-.87.38-1.76.76-2.66 1.12l-1.36.52c-.92.35-1.84.67-2.78 1s-1.88.6-2.84.87-1.91.5-2.88.72-1.94.41-2.92.57a43.68 43.68 0 01-7.38.62q-1.56 0-3.12-.15a32.07 32.07 0 01-22-11.39c-.38-.43-.75-.87-1.1-1.3l-.34-.42-.7-.89-.37-.49c-.2-.27-.41-.55-.6-.83l-.35-.49c-.2-.28-.39-.57-.58-.85l-.3-.45-.65-1c0-.08-.1-.17-.15-.25-.25-.43-.5-.86-.73-1.28l-.18-.34c-.17-.32-.34-.63-.49-.95-.08-.15-.15-.3-.22-.45s-.27-.56-.4-.84l-.21-.46c-.12-.28-.24-.56-.35-.84l-.18-.44c-.12-.31-.24-.62-.35-.93l-.12-.33q-.23-.63-.42-1.26v-.16q-.16-.54-.3-1.08c0-.13-.07-.26-.1-.39-.08-.28-.15-.57-.21-.85l-.09-.43c-.06-.28-.12-.55-.17-.82s-.05-.28-.07-.42-.1-.58-.14-.86v-.36c-.11-.8-.19-1.61-.23-2.4V266.88v-.8-.39-.81-.35c0-.33 0-.65.08-1v-.15c0-.39.08-.77.13-1.15v-.2c0-.3.08-.61.13-.91l.06-.34c0-.26.09-.51.14-.77s0-.24.07-.36.1-.5.16-.75.05-.22.08-.33c.06-.28.13-.56.2-.83l.06-.24.3-1.06c.11-.34.21-.68.32-1 0-.09.07-.18.1-.28s.16-.49.25-.73l.12-.33c.08-.23.17-.45.25-.68s.09-.21.13-.32.19-.48.29-.72l.1-.25c.27-.64.56-1.28.85-1.9l.11-.21c.11-.23.22-.47.34-.69l.15-.3.31-.6.16-.3.33-.6.15-.27.39-.69.09-.15c.16-.28.33-.55.5-.82l.09-.16.4-.64c.06-.08.11-.17.17-.26l.29-.54c.07-.09.13-.19.19-.28l.32-.48.19-.27c.11-.17.23-.33.34-.49l.16-.22.5-.69.08-.11.41-.55.19-.24c.1-.13.2-.27.31-.4a2.43 2.43 0 01.2-.25c.09-.13.19-.25.28-.36l.21-.26.27-.34.2-.24q.17-.18.3-.36l.21-.23c.13-.16.25-.31.38-.45l.2-.23.24-.26.21-.24c.07-.07.13-.15.19-.22l.23-.25.15-.15a52 52 0 014.88-10.77 104.83 104.83 0 016-9.1c-.09 0-69 31.18-112.88 83q1.56-1.83 3.17-3.63c1.07 58.4 36.57 118.81 94.48 135.89z"/>
      <path class="cls-22" d="M1198 259.73c-.59 118.27-38.34 185.34-38.34 185.34s-100.53 54.75-198.79 18.55a115.92 115.92 0 01-59-47.37 115.92 115.92 0 0059 47.37c98.26 36.2 198.79-18.55 198.79-18.55s10.89-19.33 21.07-55.55c8.77-31.23 17-75 17.29-129.78z"/>
      <path class="cls-23" d="M1227 205.47q.24-1.68.45-3.48c.1-.83.2-1.67.3-2.54a206.78 206.78 0 001.26-26.64v-.09c0-2.19-.12-4.43-.25-6.69 0-.75-.08-1.52-.14-2.28a143.43 143.43 0 00-6.7-35.43 110.36 110.36 0 00-5.58-13.64s-6.3-1.41-17.36 2.78c.08.13.15.27.22.41 14.7 27.15 20.65 57.94 21.56 88.93a90.2 90.2 0 016.24-1.33zM960.89 463.62c98.26 36.2 198.79-18.55 198.79-18.55S1197.43 378 1198 259.73l-.5-.25c-8.25 54.87-23.55 110.36-56.81 156.54-51.39 24.43-111.86 28.53-166.1 15.8-57.91-17.08-93.41-77.49-94.43-136q-1.6 1.8-3.17 3.63s-6.19 55.1 17.33 103.2q1.8 3.7 3.86 7.34c1.19 2.1 2.43 4.18 3.74 6.23a115.92 115.92 0 0058.97 47.4z"/>
      <path class="cls-6" d="M1238.7 204zM1246.3 213a48.33 48.33 0 013.46 6.81 48.33 48.33 0 00-3.46-6.81zM1249.76 219.8c.49 1.18.92 2.38 1.32 3.6-.4-1.22-.83-2.4-1.32-3.6zM1243 208.35c.72.87 1.39 1.79 2 2.75-.58-.96-1.25-1.88-2-2.75zM1240.23 205.31a34.07 34.07 0 012.8 3 34.07 34.07 0 00-2.8-3zM1227.15 265.93q-.81.06-1.62.09.81-.02 1.62-.09zM1228.91 265.78zM1234.33 264.79c-.51.14-1 .25-1.53.36.52-.15 1.02-.22 1.53-.36zM1232.42 265.23c-.42.09-.84.16-1.27.24.43-.08.85-.15 1.27-.24zM1230.79 265.53zM1235.86 264.35c-.42.13-.84.26-1.27.37.41-.11.85-.24 1.27-.37zM1253.55 237.7a37 37 0 01-.49 6.61 37 37 0 00.49-6.61zM1253.06 244.31a30 30 0 01-1.72 6.16 30 30 0 001.72-6.16zM1237.75 263.71c-.49.19-1 .35-1.48.52.5-.17.99-.33 1.48-.52zM1245.47 259.05a23.4 23.4 0 01-3.51 2.62 23.4 23.4 0 003.51-2.62zM1216.09 265.42l-1.4-.23zM1210.62 264.32l-1.57-.41zM1205.4 262.78zM1212.57 264.77c-.52-.11-1-.23-1.57-.36.52.13 1.05.25 1.57.36zM1214.3 265.12l-1.65-.33zM1209 263.89l-1.65-.48zM1203.58 262.13l-1.39-.54zM1207 263.31c-.47-.14-.94-.3-1.41-.46.5.15.97.32 1.41.46zM1201.93 261.48c-.53-.21-1-.43-1.57-.66.52.23 1.04.45 1.57.66zM1200.36 260.82l-1.49-.68zM1223.46 266h-1.45zM1219.75 265.85c-.45 0-.91-.08-1.36-.13zM1218 265.68l-1.65-.21zM1221.8 266c-.55 0-1.1-.06-1.65-.1.55.03 1.1.1 1.65.1zM1225.45 266h-1.56 1.56zM1191.25 255.82zM1192.6 256.7c-.41-.26-.82-.52-1.22-.79.4.27.81.53 1.22.79zM1188.66 253.91zM1194.1 257.62q-.7-.4-1.38-.84.68.44 1.38.84zM1195.49 258.42l-1.33-.76zM1237.72 250.71c16.07-10.72 11.83-32.34.93-46.73a98.85 98.85 0 00-11.69 1.49c-1.93.35-4 .79-6.24 1.33-15 3.68-34.82 12.07-40.43 31-1.35 4.54 1.19 9.57 6.06 14.11l-1-.94c13.28 7.46 37.41 9.72 52.37-.26zm-5.06-9l-35.52-4.64a34 34 0 019.33-8 26 26 0 0112.13-3.63 21.46 21.46 0 016.47.74 12.16 12.16 0 015.87 3.35 11.06 11.06 0 011.72 12.19zM1195.7 258.53c.59.32 1.2.64 1.82 1l.5.25.57.28c-.98-.52-1.95-1.06-2.89-1.53z"/>
      <path class="cls-7" d="M1251.08 223.4c-.4-1.22-.83-2.42-1.32-3.6a48.33 48.33 0 00-3.46-6.81q-.58-1-1.23-1.89c-.65-1-1.32-1.88-2-2.75a34.07 34.07 0 00-2.8-3c-.49-.47-1-.91-1.49-1.33h-.09c10.9 14.39 15.14 36-.93 46.73-15 10-39.09 7.72-52.34.28.31.32.64.63 1 .94l.13.12c.68.63 1.41 1.25 2.18 1.86l.14.12c.78.61 1.6 1.21 2.45 1.79l.13.09c.4.27.81.53 1.22.79l.12.08q.67.44 1.38.84h.06l1.33.76.21.11c.94.51 1.91 1 2.91 1.49l.26.12 1.49.68c.52.23 1 .45 1.57.66l.26.11 1.39.54.22.08c.53.2 1.06.39 1.6.57l.22.07c.47.16.94.32 1.41.46l.32.1 1.65.48 1.57.41.38.09c.52.13 1 .25 1.57.36h.08l1.65.33.39.07 1.4.23.3.05 1.65.21h.35c.45 0 .91.1 1.36.13h.4c.55 0 1.1.08 1.65.1h3.73q.81 0 1.62-.09h.42c.45 0 .89-.07 1.34-.12h.3c.53-.06 1-.13 1.58-.21l.36-.06c.43-.08.85-.15 1.27-.24l.38-.08c.52-.11 1-.22 1.53-.36l.26-.07c.43-.11.85-.24 1.27-.37l.41-.12c.5-.17 1-.33 1.48-.52a25.67 25.67 0 004.21-2 22.57 22.57 0 009.38-11.2 30 30 0 001.72-6.16 37 37 0 00.49-6.61 45.08 45.08 0 00-.41-5.41 50.7 50.7 0 00-2.08-8.85z"/>
      <path class="cls-24" d="M1152.14 237.64l.21.31zM1152.92 238.82l.24.38zM1153.7 240.11l.24.42zM1151.35 236.56l.14.19zM1148.82 233.65l.13.12zM1157.36 248.71c0 .12.07.25.1.38-.03-.09-.07-.26-.1-.38zM1148 232.85l.19.18zM1154.46 241.5l.23.45zM1158.06 251.33c0-.17-.07-.35-.12-.51s0-.11 0-.16c.06.22.06.45.12.67zM1156 244.73l.15.36zM1155.2 243l.21.45zM1145.83 231.08l.23.17zM1144.63 230.26l.2.13zM1143.33 229.52zM1147.22 232.18l.23.18zM1145.21 230.64l.21.15zM1146.51 231.59l.23.18zM1001.65 290.77c18.28 1.79 35.29-8.41 48.88-23 22.44 30.22 69 31.5 95.74 5.56 10.44-12 8.76-31.56-3.27-43.94l.31.15c-.53-.26-.83-.38-.83-.38 2.1 12.62-6.38 26.76-30.55 27.22a54.36 54.36 0 01-31.1-9 8.69 8.69 0 01.12 5.39 7.48 7.48 0 01-.58 1.29l-.38.6-.38.52c-.51.71-1.07 1.36-1.63 2a44 44 0 01-3.66 3.57 65.53 65.53 0 01-8.16 6.12l-.25.16h-.39a85.18 85.18 0 01-11.19.31 67.35 67.35 0 01-11.19-1.45 52.34 52.34 0 01-10.8-3.55 46.63 46.63 0 01-5.07-2.71c-.82-.51-1.62-1.06-2.4-1.64a21 21 0 01-2.36-2l-.86-.85.39-1.2c1.19-3.72 2.46-7.42 3.9-11 .26-.68.55-1.36.82-2-5.77 4.65-10.47 10.32-21.39 12.61-19.71 4.15-23.44-20.08-23.44-20.08s-1 .91-2.6 2.55l.55-.58c-9.08 23.16-2.42 52.96 21.77 55.33zM979 236.39l.23-.25zM969.47 250.18l.11-.21zM968.1 253.37c0-.11.09-.21.13-.32-.04.11-.09.21-.13.32zM967.73 254.38l.12-.33zM968.52 252.33l.1-.25zM970.87 247.48l.15-.27zM970.38 248.38l.16-.3zM971.41 246.52l.09-.15zM969.92 249.28l.15-.3zM972.49 244.75c.06-.08.11-.17.17-.26-.06.09-.11.18-.17.26zM973 244c.07-.09.13-.19.19-.28-.07.07-.13.17-.19.28zM972 245.55l.09-.16zM1159.17 257.25c0 .32.09.65.13 1-.04-.35-.08-.68-.13-1zM1158.81 254.92zM1158.39 252.73c0 .26.11.54.16.81-.05-.27-.11-.54-.16-.81zM1033.4 292.49zM1159.67 262.35c0 .34 0 .68.06 1-.01-.35-.04-.66-.06-1zM1159.38 272.82a22.12 22.12 0 01-.78 2.92 22.12 22.12 0 00.78-2.92zM1159.46 259.72c0 .34.07.67.1 1-.03-.33-.07-.66-.1-1zM1159.79 265.23v.92c.03-.31.01-.61 0-.92zM1023.73 297.46c-.87.38-1.76.76-2.66 1.12.93-.36 1.79-.74 2.66-1.12zM1031.15 293.77c-1.92 1.06-4 2.11-6.12 3.1 2.15-.99 4.2-2.04 6.12-3.1zM1011.21 301.67zM1016.93 300.08zM1019.71 299.1c-.92.35-1.84.67-2.78 1 .94-.33 1.86-.65 2.78-1zM1008.29 302.24a43.68 43.68 0 01-7.38.62 43.68 43.68 0 007.38-.62zM1014.09 301q-1.43.39-2.88.72 1.46-.38 2.88-.72zM1154 284.36a46.94 46.94 0 01-5 5.69 46.94 46.94 0 005-5.69z"/>
      <path class="cls-24" d="M1036.5 290.6c-1 .62-2 1.25-3.1 1.89 1.09-.64 2.12-1.27 3.1-1.89zM1056.2 295.92c25.67 25 69.91 14.76 91.31-4.51-21.4 19.27-65.64 29.5-91.31 4.51zM1037.47 290a96.91 96.91 0 009.18-6.66 96.91 96.91 0 01-9.18 6.66zM975.81 291.32a32.07 32.07 0 0022 11.39 32.07 32.07 0 01-22-11.39zM965.61 268.41v-.31c-.01.1-.01.21 0 .31zM965.6 264.84v-.35c.01.12 0 .23 0 .35zM965.56 266v-.39.39zM965.56 267.23zM965.89 271.17v-.36c-.03.12-.02.24 0 .36zM972.7 287.38l-.35-.49zM969.94 283l-.18-.34zM970.82 284.55c0-.08-.1-.17-.15-.25.05.08.11.17.15.25zM971.77 286l-.3-.45zM973.67 288.7l-.37-.49zM974.71 290l-.34-.42zM967.56 277.77l-.12-.33zM966.67 274.94c0-.13-.07-.26-.1-.39.03.13.06.26.1.39zM966.36 273.7l-.09-.43zM969.27 281.73c-.08-.15-.15-.3-.22-.45.07.15.14.3.22.45zM966.1 272.45c0-.14-.05-.28-.07-.42.02.14.05.28.07.42zM968.65 280.44l-.21-.46zM968.09 279.14l-.18-.44zM967 276.18v-.16.16zM966.19 260c0-.12 0-.24.07-.36-.03.11-.05.23-.07.36zM967.06 256.42zM966 261.1l.06-.34zM966.7 257.72l.06-.24zM966.42 258.88c0-.11.05-.22.08-.33-.03.11-.05.22-.08.33zM967.38 255.39c0-.09.07-.18.1-.28-.03.1-.07.19-.1.28zM965.83 262.21v-.2zM965.69 263.51v-.15.15zM976.16 239.64l.21-.26zM976.64 239l.2-.24zM977.73 237.76l.2-.23zM978.17 237.27l.21-.24zM978.57 236.81l.23-.25zM977.14 238.44l.21-.23zM974 242.46l.16-.22zM974.69 241.55l.08-.11zM975.68 240.25l.2-.25a2.43 2.43 0 00-.2.25zM973.5 243.22l.19-.27zM975.18 240.89l.19-.24z"/>
      <path class="cls-23" d="M1157.9 250.66c-.14-.54-.29-1.06-.44-1.57 0-.13-.07-.26-.1-.38-.39-1.28-.81-2.49-1.26-3.62l-.15-.36-.54-1.26-.21-.45-.51-1.07-.23-.45c-.17-.33-.35-.65-.52-1l-.24-.42c-.18-.31-.36-.62-.54-.91l-.24-.38-.57-.87-.21-.31c-.22-.31-.43-.6-.65-.89l-.14-.19a30.72 30.72 0 00-2.4-2.79l-.13-.12-.64-.62-.19-.18-.54-.49-.23-.18-.48-.41-.23-.18-.45-.34-.23-.17-.41-.29-.21-.15-.38-.25-.2-.13-.32-.19c-.38-.23-.71-.41-1-.55l-.31-.15c12 12.38 13.71 32 3.27 43.94-26.72 25.94-73.3 24.66-95.74-5.56-13.59 14.62-30.6 24.82-48.88 23-24.19-2.37-30.85-32.17-21.77-55.35l-.55.58-.14.14-.23.25-.15.15-.23.25c-.06.07-.12.15-.19.22l-.21.24-.24.26-.2.23c-.13.14-.25.29-.38.45l-.21.23q-.14.18-.3.36l-.2.24-.27.34-.21.26c-.09.11-.19.23-.28.36l-.2.25c-.11.13-.21.27-.31.4l-.19.24-.41.55-.08.11-.5.69-.16.22c-.11.16-.23.32-.34.49l-.19.27-.32.48c-.06.09-.12.19-.19.28l-.33.51c-.06.09-.11.18-.17.26l-.4.64-.09.16c-.17.27-.34.54-.5.82l-.09.15-.39.69-.15.27-.33.6-.16.3-.31.6-.15.3c-.12.22-.23.46-.34.69l-.11.21c-.29.62-.58 1.26-.85 1.9l-.1.25c-.1.24-.2.48-.29.72s-.09.21-.13.32-.17.45-.25.68l-.12.33c-.09.24-.17.49-.25.73s-.07.19-.1.28c-.11.34-.21.68-.32 1l-.3 1.06-.06.24c-.07.27-.14.55-.2.83 0 .11 0 .22-.08.33s-.11.5-.16.75 0 .24-.07.36-.1.51-.14.77l-.06.34c0 .3-.09.61-.13.91v.2c-.05.38-.09.76-.13 1.15v.15c0 .33-.06.65-.08 1V268.33c0 .79.12 1.6.23 2.4v.36c0 .28.09.57.14.86s.05.28.07.42.11.54.17.82l.09.43c.06.28.13.57.21.85 0 .13.06.26.1.39q.14.54.3 1.08v.16q.19.63.42 1.26l.12.33c.11.31.23.62.35.93l.18.44c.11.28.23.56.35.84l.21.46c.13.28.26.56.4.84s.14.3.22.45c.15.32.32.63.49.95l.18.34c.23.42.48.85.73 1.28.05.08.11.17.15.25l.65 1 .3.45c.19.28.38.57.58.85l.35.49c.19.28.4.56.6.83l.37.49.7.89.34.42c.35.43.72.87 1.1 1.3a32.07 32.07 0 0022 11.39q1.56.14 3.12.15a43.68 43.68 0 007.38-.62c1-.16 2-.35 2.92-.57s1.93-.46 2.88-.72 1.9-.56 2.84-.87 1.86-.63 2.78-1l1.36-.52c.9-.36 1.79-.74 2.66-1.12l1.3-.59c2.15-1 4.2-2 6.12-3.1.77-.43 1.52-.85 2.25-1.28 1.09-.64 2.12-1.27 3.1-1.89l1-.61a96.91 96.91 0 009.18-6.66 54.59 54.59 0 009.55 12.59c25.67 25 69.91 14.76 91.31-4.51.5-.45 1-.91 1.46-1.36a46.94 46.94 0 005-5.69c.36-.49.7-1 1-1.48a30.76 30.76 0 003.57-7.14 22.12 22.12 0 00.78-2.92 20.94 20.94 0 00.43-3.77V266v-.92c0-.63 0-1.25-.06-1.85 0-.35 0-.69-.06-1 0-.54-.07-1.08-.11-1.61 0-.35-.07-.68-.1-1 0-.51-.1-1-.16-1.49 0-.33-.08-.66-.13-1-.06-.48-.13-1-.21-1.42 0-.31-.09-.61-.15-.91-.08-.47-.17-.93-.26-1.38 0-.27-.11-.55-.16-.81-.11-.48-.22-.94-.33-1.4-.02-.1-.02-.33-.12-.55z"/>
      <path d="M1053.14 191.72a10.38 10.38 0 116-9.9 10 10 0 010 1.55c2.62-3.57 5.34-7.07 8.22-10.44l1.71-2.55c-4.16-.62-23.25-8.45-29.9-10.83l-2.67-1c-24.78 40.31 3.9 42.26 10.83 42.17q2.8-4.53 5.81-9z" fill="#e2e1e0"/>
      <path d="M1061.79 555.88c-8.78 0-18.08-.43-28-1.37-6.22-.6-12.64-1.38-19.32-2.4a230.82 230.82 0 0047.84 10.6c44.28 5.09 107.08-1 133.26-67.1a160.36 160.36 0 008.4-29.84c-.13.9-18.68 89.91-142.18 90.11z" fill="#d1c6c6"/>
      <path class="cls-6" d="M1232 235.94a9.85 9.85 0 00-3-4.39 11 11 0 00-4.76-2.06 22.51 22.51 0 00-5.5-.45 32.5 32.5 0 00-11 2.55 95.35 95.35 0 00-10.59 5.49l35.52 4.64a13.82 13.82 0 00-.67-5.78zM1197.13 237.08z"/>
      <path d="M1225.07 226.17a21.46 21.46 0 00-6.47-.74 26 26 0 00-12.13 3.63 34 34 0 00-9.33 8 95.35 95.35 0 0110.59-5.49 32.5 32.5 0 0111-2.55 22.51 22.51 0 015.5.45 11 11 0 014.76 2.06 9.85 9.85 0 013 4.39 13.82 13.82 0 01.7 5.78 11.06 11.06 0 00-1.72-12.2 12.16 12.16 0 00-5.9-3.33z" fill="#ce9a95"/>
      <path d="M1088.29 113.88c18.82-.9 33.82-6.8 33.52-13.18s-15.81-10.81-34.63-9.91-33.82 6.8-33.51 13.17 15.8 10.82 34.62 9.92z" fill="#fad9d2"/>
      <path class="cls-29" d="M1048.25 171.94a10.39 10.39 0 104.89 19.78l.14-.21q2.82-4.12 5.79-8.14a10 10 0 000-1.55 10.38 10.38 0 00-10.82-9.88zm.75 15.75a5.38 5.38 0 01-1.2-10.68 2.69 2.69 0 015.3.5 2.79 2.79 0 01-.27 1.29 5.38 5.38 0 01-3.83 8.89z"/>
      <path class="cls-30" d="M1054.13 182.05a5.33 5.33 0 00-1.3-3.25 2.69 2.69 0 01-5.11-1 2.43 2.43 0 01.08-.76 5.39 5.39 0 106.33 5z"/>
      <path class="cls-20" d="M1050.54 180.33a2.7 2.7 0 002.29-1.53 2.79 2.79 0 00.27-1.29 2.69 2.69 0 00-5.3-.5 2.43 2.43 0 00-.08.76 2.69 2.69 0 002.82 2.56z"/>
      <path class="cls-6" d="M1067.29 172.93q-6.39 9.7-12.21 19.71-2.94 5-5.7 10.07t-5.44 10.2c-3.51 6.85-6.83 13.79-9.84 20.85-2.92 6.63-5.42 13.42-7.73 20.26.3.25.63.51.94.75.68.51 1.39 1 2.13 1.47a39.87 39.87 0 004.59 2.51 53.84 53.84 0 0010 3.51 66.5 66.5 0 0010.54 1.68 79 79 0 0010.44.19 73.26 73.26 0 007.82-5.21 42.93 42.93 0 003.68-3.17c.57-.57 1.15-1.14 1.66-1.74a5.64 5.64 0 001.21-1.84 7.14 7.14 0 00.18-4.42 13.67 13.67 0 00-2-4.33 16 16 0 00-3.31-3.56 7.91 7.91 0 00-4.47-1.86l-2.48-65.07z"/>
      <path d="M1022 254l-.39 1.2.86.85a21 21 0 002.36 2c.78.58 1.58 1.13 2.4 1.64a46.63 46.63 0 005.07 2.71 52.34 52.34 0 0010.8 3.55 67.35 67.35 0 0011.19 1.45 85.18 85.18 0 0011.19-.31h.39l.25-.16a65.53 65.53 0 008.16-6.12 44 44 0 003.66-3.57c.56-.65 1.12-1.3 1.63-2l.38-.52.38-.6a7.48 7.48 0 00.58-1.29 8.69 8.69 0 00-.12-5.39 14.51 14.51 0 00-2.52-4.5 15.52 15.52 0 00-3.78-3.41 8.12 8.12 0 00-4.76-1.45 7.91 7.91 0 014.47 1.86 16 16 0 013.31 3.56 13.67 13.67 0 012 4.33 7.14 7.14 0 01-.18 4.42 5.64 5.64 0 01-1.21 1.84c-.51.6-1.09 1.17-1.66 1.74a42.93 42.93 0 01-3.68 3.17 73.26 73.26 0 01-7.82 5.21 79 79 0 01-10.44-.19 66.5 66.5 0 01-10.54-1.68 53.84 53.84 0 01-10-3.51 39.87 39.87 0 01-4.59-2.51c-.74-.46-1.45-1-2.13-1.47-.31-.24-.64-.5-.94-.75 2.31-6.84 4.81-13.63 7.73-20.26 3-7.06 6.33-14 9.84-20.85q2.63-5.15 5.44-10.2t5.7-10.07q5.82-10 12.21-19.71c-2.88 3.37-5.6 6.87-8.22 10.44q-3 4-5.79 8.14l-.14.21q-3 4.47-5.88 9l-.34.53c-2 3.31-4 6.65-5.93 10-3.82 6.78-7.36 13.72-10.55 20.84-1.29 2.89-2.51 5.82-3.68 8.76-.27.68-.56 1.36-.82 2-1.39 3.66-2.66 7.36-3.89 11.07z" fill="#af7875"/>
      <path class="cls-16" d="M1069 170.38a2.18 2.18 0 00.61 0c3.44-.6.25-4.76-1.15-6-9.37-8.14-20.64-13.75-31.87-19a3.57 3.57 0 00-2.23-.5 3.31 3.31 0 00-1.49 1 19.75 19.75 0 00-4.1 6.21 3.23 3.23 0 00-.33 1.77c.17.93 1.06 1.54 1.89 2a43.26 43.26 0 006.1 2.72l2.67 1c6.65 2.35 25.74 10.18 29.9 10.8z"/>
      <path class="cls-7" d="M1077.8 198.29c0-.13-.07-.27-.1-.4.03.11.07.26.1.4zM1079.26 201.88a14.62 14.62 0 01-.64-1.32 13.36 13.36 0 00.64 1.32zM1079.62 202.51c.13.22.27.43.41.64-.14-.21-.28-.42-.41-.64zM1078.53 200.35zM1098.56 160.62c-2.27.5-6 1.89-7.44.45a89.87 89.87 0 00-7.55 11.9c8.87-10 20.79-9.82 29.48-2.49s11 19.45 2.06 30-25.92 9.66-32.13 5.62a10.35 10.35 0 01-2.32-2.13 13.09 13.09 0 001.48 1.59c3.13 2.79 7.44 3.91 11.62 4.12 10.06.52 19.87-3.68 28.09-9.5a41.72 41.72 0 008.63-7.82 29.36 29.36 0 005.68-23.84c-4.46-2.34-8.4-5.39-13.19-7.23-7.42-2.84-16.17-2.48-24.41-.67z"/>
      <path class="cls-20" d="M1083 206.12c6.21 4 23.22 4.94 32.13-5.62s6.77-22.56-2.06-30-20.61-7.54-29.48 2.49c-.15.17-.31.34-.46.52a28.08 28.08 0 00-5.41 24.4c0 .13.07.27.1.4l.24.75c.15.45.31.89.49 1.31l.09.21a14.62 14.62 0 00.64 1.32q.16.31.36.63c.13.22.27.43.41.64s.41.57.63.84a10.35 10.35 0 002.32 2.11zm11.46-30.35a11.91 11.91 0 11-11.33 12.47 11.92 11.92 0 0111.31-12.47z"/>
      <path class="cls-29" d="M1095.58 199.57a11.91 11.91 0 10-12.47-11.33 11.92 11.92 0 0012.47 11.33zm-1.66-18a3.08 3.08 0 115.77 2 6.18 6.18 0 11-5.77-2z"/>
      <path class="cls-30" d="M1095.3 193.85a6.18 6.18 0 004.39-10.21 3.08 3.08 0 01-5.86-1.18 2.8 2.8 0 01.09-.87 6.18 6.18 0 001.38 12.26z"/>
      <path class="cls-20" d="M1097.06 185.4a3.09 3.09 0 10-3.14-3.81 2.8 2.8 0 00-.09.87 3.09 3.09 0 003.23 2.94z"/>
      <path class="cls-16" d="M1098.69 150.72c-3.27 1.7-7.91 4.72-8.14 8.35a2.5 2.5 0 00.57 2c1.42 1.44 5.17.05 7.44-.45 8.24-1.81 17-2.17 24.41.69 4.79 1.84 8.73 4.89 13.19 7.23l.1.05a1.38 1.38 0 002.14-.64 10.3 10.3 0 00.4-9.55c-2.62-6.32-9.3-10.73-16.92-12s-16.02.6-23.19 4.32z"/>
      <path class="cls-6" d="M1479.7 471.89q1.41 7.78 2.31 15.68-.91-7.89-2.31-15.68zM1447.18 388.53c.82 1.43 1.62 2.88 2.43 4.33-.81-1.45-1.61-2.86-2.43-4.33zM1482 487.57q.54 4.77.91 9.56-.36-4.78-.91-9.56zM1483.07 540.31zM1462.43 418.26c.68 1.47 1.35 3 2 4.45-.65-1.49-1.32-2.98-2-4.45zM1483 497.6q.36 4.74.56 9.5-.24-4.75-.56-9.5zM1483.52 507.36zM1444.69 384.25zM1460 413q1.05 2.18 2.07 4.4-1.07-2.18-2.07-4.4zM1466.68 629c-1.17 3.91-2.38 7.77-3.63 11.55 1.25-3.76 2.46-7.62 3.63-11.55zM1449.94 393.46c.77 1.39 1.52 2.79 2.27 4.19-.75-1.4-1.5-2.8-2.27-4.19zM1452.63 398.43q1.11 2.11 2.21 4.24-1.09-2.13-2.21-4.24zM1457.45 407.83q1.13 2.26 2.22 4.56-1.09-2.29-2.22-4.56zM1455.18 403.32q1.14 2.24 2.27 4.5-1.12-2.26-2.27-4.5zM1476.12 455.56q2 7.53 3.38 15.24-1.44-7.69-3.38-15.24zM1457.21 657.1q-1 2.67-2 5.28 1-2.61 2-5.28zM1454.16 665q-3.09 7.72-6.31 14.83 3.21-7.13 6.31-14.83zM1463.05 640.57zM1447.85 679.79q-1.06 2.36-2.14 4.65 1.08-2.29 2.14-4.65zM1476.12 455.56a195.63 195.63 0 00-9.33-27.47 195.63 195.63 0 019.33 27.47zM1483.27 537zM1471.66 611q-1.17 4.61-2.41 9.1 1.25-4.5 2.41-9.1zM1468.41 623.1q-.84 3-1.73 5.92.89-2.94 1.73-5.92zM1480.82 563.33q-.85 6.52-1.91 13 1.09-6.47 1.91-13zM1481.61 556.78q-.37 3.29-.79 6.55.42-3.27.79-6.55zM1482.28 550.21zM1441.92 379.63c.81 1.32 1.61 2.66 2.41 4-.79-1.34-1.6-2.63-2.41-4zM1474.6 598.6zM1478.91 576.32q-.54 3.23-1.11 6.43.57-3.21 1.11-6.43zM1477.8 582.75c-.39 2.14-.79 4.26-1.21 6.38.41-2.13.82-4.24 1.21-6.38zM1476.59 589.13q-.94 4.77-2 9.47 1.06-4.69 2-9.47zM1418.11 345.57q1.4 1.73 2.76 3.48c-.87-1.17-1.87-2.33-2.76-3.48zM1414.83 341.55q1.41 1.69 2.8 3.43-1.39-1.74-2.8-3.43zM1408.48 334.21c1 1.12 2 2.26 3 3.4-.99-1.14-2-2.28-3-3.4zM1411.49 337.63q1.5 1.72 3 3.49-1.49-1.77-3-3.49zM1417.05 657.83c69.66-71.77 57-178.37 14.78-258.58-34.56-64.33-109.29-122.52-183.68-109.49-11.64 6.75-23.08 16-34.17 28.07 0 0-33.71 38.7-23.08 99a76.86 76.86 0 002.14 8.92 78.45 78.45 0 004.88 12.29c22.12 44.58 81.32 62.18 81.32 62.18s5.29 7.49 13.42 19.79c2.09 3.16 4.37 6.65 6.8 10.4 25.35 39.23 66.72 108.29 76.91 155.59h1.78a143.16 143.16 0 0038.9-28.17zM1401.71 326.94q1.5 1.55 3 3.12-1.5-1.57-3-3.12zM1405.16 330.58q1.47 1.56 2.91 3.18-1.44-1.62-2.91-3.18zM1439 374.94q1.24 2 2.47 4-1.22-2.03-2.47-4zM1430.39 362c.87 1.24 1.74 2.5 2.59 3.76a94.93 94.93 0 00-2.59-3.76zM1433.36 366.28zM1421.27 349.57c1 1.23 1.9 2.46 2.84 3.71-.94-1.28-1.89-2.48-2.84-3.71zM1436 370.31c.88 1.35 1.76 2.71 2.62 4.08-.82-1.39-1.7-2.73-2.62-4.08zM1427.28 357.59zM1424.12 353.3q1.41 1.89 2.81 3.81-1.39-1.92-2.81-3.81zM1359 292.83c-2.32-1.35-4.66-2.62-7-3.81 2.32 1.19 4.66 2.46 7 3.81zM1362.6 295c-1.11-.68-2.22-1.35-3.34-2 1.12.64 2.23 1.31 3.34 2zM1347.77 287c-1.15-.54-2.29-1.06-3.44-1.56 1.15.45 2.29.97 3.44 1.56zM1366.36 297.37c-1.1-.72-2.19-1.41-3.29-2.09 1.1.72 2.19 1.37 3.29 2.09zM1351.6 288.82zM1255.54 285.83zM1373.55 302.31q-3.37-2.44-6.8-4.68 3.42 2.24 6.8 4.68zM1298.29 275.5h3.58c-1.19-.01-2.39-.02-3.58 0zM1377.09 304.94c-1.08-.81-2.15-1.62-3.24-2.4 1.09.78 2.15 1.59 3.24 2.4zM1387.7 313.6q-3.26-2.84-6.56-5.49 3.3 2.66 6.56 5.49zM1391.14 316.67c-1-.94-2.07-1.86-3.11-2.77 1.04.91 2.08 1.83 3.11 2.77zM1398.72 323.9l-.49-.49q1.57 1.57 3.14 3.18c-.88-.9-1.76-1.8-2.64-2.68zM1251.84 287.71zM1380.74 307.79c-1.06-.84-2.11-1.67-3.18-2.49 1.07.82 2.12 1.7 3.18 2.49zM1286.38 276.37zM1282.61 277q-3.7.65-7.4 1.6 3.69-1 7.4-1.6zM1270.91 279.76zM1274.85 278.65c-1.18.31-2.36.64-3.53 1 1.17-.36 2.35-.65 3.53-1zM1290.33 275.92c-1.18.11-2.36.24-3.54.4 1.21-.16 2.36-.32 3.54-.4zM1305.83 275.7zM1298.1 275.5q-3.7 0-7.41.39 3.71-.34 7.41-.39zM1344.07 285.28q-3.55-1.54-7.16-2.87 3.6 1.32 7.16 2.87zM1259.45 284c-1.17.51-2.33 1.05-3.5 1.61 1.17-.54 2.33-1.08 3.5-1.61zM1336.54 282.27zM1328.91 279.79q-3.63-1.05-7.29-1.85 3.66.8 7.29 1.85zM1332.65 280.94zM1267.16 281q-3.67 1.27-7.35 2.87 3.68-1.6 7.35-2.87zM1321.26 277.86zM1313.76 276.52c1.19.16 2.38.36 3.57.57-1.19-.21-2.33-.41-3.57-.57zM1306.19 275.72zM1394.67 320c-1-1-2-1.91-3.05-2.85 1.02.9 2.04 1.85 3.05 2.85zM1395.08 320.35c1.05 1 2.1 2 3.15 3.06-1.05-1.04-2.1-2.05-3.15-3.06z"/>
      <path class="cls-7" d="M1447.85 679.79q3.21-7.1 6.31-14.83l1-2.58q1-2.61 2-5.28 2-5.34 3.94-10.91c.64-1.85 1.27-3.73 1.9-5.62 1.25-3.78 2.46-7.64 3.63-11.55q.88-2.94 1.73-5.92l.84-3q1.24-4.5 2.41-9.1c1-4.08 2-8.22 2.94-12.4q1.05-4.7 2-9.47c.42-2.12.82-4.24 1.21-6.38s.75-4.28 1.11-6.43q1-6.47 1.91-13 .42-3.27.79-6.55c.24-2.19.47-4.38.67-6.57.11-1.1.2-2.2.3-3.3.18-2.19.35-4.4.49-6.6.07-1.1.14-2.2.2-3.3.36-6.61.53-13.24.48-19.85v-3.31c0-2.16-.1-4.33-.19-6.49v-.26q-.19-4.75-.56-9.5v-.47q-.37-4.78-.91-9.56-.91-7.89-2.31-15.68c-.07-.36-.13-.72-.2-1.09q-1.44-7.69-3.38-15.24a195.63 195.63 0 00-9.33-27.47c-.68-1.58-1.36-3.15-2.06-4.72-.09-.22-.19-.44-.29-.66-.66-1.49-1.33-3-2-4.45-.13-.28-.25-.55-.38-.82q-1-2.22-2.07-4.4c-.1-.22-.2-.43-.31-.65q-1.1-2.29-2.22-4.56-1.12-2.26-2.27-4.5l-.34-.65q-1.1-2.13-2.21-4.24l-.42-.78c-.75-1.4-1.5-2.8-2.27-4.19l-.33-.6c-.81-1.45-1.61-2.9-2.43-4.33-.82-1.43-1.64-2.85-2.48-4.26l-.36-.62c-.8-1.34-1.6-2.68-2.41-4l-.44-.73q-1.23-2-2.47-4c-.11-.19-.23-.37-.35-.55-.86-1.37-1.74-2.73-2.62-4.08-.88-1.35-1.77-2.68-2.67-4-.13-.18-.25-.37-.38-.56-.85-1.26-1.72-2.52-2.59-3.76l-.47-.67c-.87-1.24-1.75-2.48-2.64-3.7l-.35-.48q-1.4-1.92-2.81-3.81c-.94-1.25-1.89-2.48-2.84-3.71l-.4-.52q-1.36-1.76-2.76-3.48l-.48-.59q-1.39-1.74-2.8-3.43l-.37-.43q-1.47-1.77-3-3.49c-1-1.14-2-2.28-3-3.4l-.41-.45q-1.44-1.62-2.91-3.18l-.48-.52q-1.47-1.57-3-3.12l-.34-.35q-1.56-1.6-3.14-3.18c-1-1-2.1-2.05-3.15-3.06l-.41-.39c-1-1-2-1.91-3.05-2.85l-.17-.15-.31-.29c-1-.94-2.07-1.86-3.11-2.77l-.33-.3q-3.26-2.84-6.56-5.49l-.4-.32c-1.06-.84-2.11-1.67-3.18-2.49l-.47-.36c-1.08-.81-2.15-1.62-3.24-2.4l-.3-.23q-3.37-2.44-6.8-4.68l-.39-.26c-1.1-.72-2.19-1.41-3.29-2.09l-.47-.29c-1.11-.68-2.22-1.35-3.34-2l-.28-.16c-2.32-1.35-4.66-2.62-7-3.81l-.38-.2c-1.13-.57-2.25-1.12-3.38-1.66l-.45-.21c-1.15-.54-2.29-1.06-3.44-1.56l-.26-.11q-3.55-1.54-7.16-2.87l-.37-.14c-1.15-.41-2.3-.81-3.46-1.19l-.43-.14c-1.17-.38-2.34-.74-3.51-1.09l-.23-.06q-3.63-1.05-7.29-1.85l-.36-.08c-1.17-.25-2.34-.48-3.51-.7l-.42-.07c-1.19-.21-2.38-.41-3.57-.57h-.2c-2.45-.35-4.91-.6-7.37-.77h-.36c-1.18-.08-2.36-.13-3.54-.17h-4.19q-3.7 0-7.41.39h-.36c-1.18.11-2.36.24-3.54.4l-.41.05c-1.2.17-2.4.35-3.6.56h-.17q-3.7.65-7.4 1.6l-.36.09c-1.18.31-2.36.64-3.53 1l-.41.12c-1.2.37-2.39.75-3.58 1.17a1.15 1.15 0 00-.17.06q-3.67 1.27-7.35 2.87l-.36.16c-1.17.51-2.33 1.05-3.5 1.61l-.41.2c-1.18.57-2.36 1.17-3.54 1.79l-.16.09c-1.23.66-2.46 1.34-3.69 2.05 74.39-13 149.12 45.16 183.68 109.49 42.22 80.21 54.88 186.81-14.78 258.58a143.16 143.16 0 01-38.9 28.17H1445c.24-.52.49-1 .74-1.56q1.05-2.37 2.11-4.73z"/>
    </g>
  </g>
</svg>
