<svg xmlns="http://www.w3.org/2000/svg" viewBox="0 0 399.43 239.83">
  <defs>
    <style>
      .cls-1{fill:#b24343}.cls-2{fill:#ff7979}.cls-3{fill:#fff}.cls-4{fill:#ff9494}.cls-5{fill:#ffbfbf}
    </style>
  </defs>
  <g id="Layer_2" data-name="Layer 2">
    <g id="dice">
      <rect class="cls-1" x="21.98" y="73.92" width="190.99" height="165.39" rx="8.48" transform="rotate(.35 116.708 156.799)"/>
      <path class="cls-2" d="M208.64 75.31a8.5 8.5 0 011.44 4.78l-.91 148.41a8.48 8.48 0 01-8.53 8.43l-174-1.05A8.56 8.56 0 0123 235a8.47 8.47 0 007 3.75l174 1.06a8.48 8.48 0 008.53-8.43L213.42 83a8.48 8.48 0 00-4.78-7.69z"/>
      <rect class="cls-2" x=".45" y="73.64" width="142.34" height="165.39" rx="8.48" transform="rotate(.35 70.867 155.302)"/>
      <rect class="cls-1" x="215.35" y="43.64" width="155.18" height="171.72" rx="8.48" transform="rotate(29.08 292.959 129.519)"/>
      <path class="cls-2" d="M397.63 90.25a8.38 8.38 0 01-1.05 4.43l-75.22 135.24a8.48 8.48 0 01-11.54 3.29L189 166a8.43 8.43 0 01-2.57-2.19 8.49 8.49 0 004.35 7.11l120.82 67.21a8.5 8.5 0 0011.54-3.29L398.36 99.6a8.47 8.47 0 00-.73-9.35z"/>
      <circle class="cls-3" cx="270.24" cy="117.29" r="16.41"/>
      <circle class="cls-3" cx="291.91" cy="75.99" r="16.41"/>
      <circle class="cls-3" cx="247.76" cy="156.8" r="16.41"/>
      <rect class="cls-2" x="179.96" y="23.01" width="151.76" height="171.72" rx="8.48" transform="rotate(29.08 255.858 108.876)"/>
      <path class="cls-4" d="M143.24 82.56A8.49 8.49 0 00134.8 74L9.44 73.26A8.48 8.48 0 00.9 81.69L0 230.1a8.49 8.49 0 008.43 8.54h7l127.31-72.83z"/>
      <path class="cls-5" d="M17 82.07l125.37.76a7.7 7.7 0 01.83 0v-.32a8.49 8.49 0 00-8.4-8.51L9.44 73.26A8.48 8.48 0 00.9 81.69L0 230.1a8.48 8.48 0 007.61 8.49l.9-148.09A8.48 8.48 0 0117 82.07z"/>
      <path class="cls-4" d="M238.67 1.07a8.49 8.49 0 00-11.54 3.29L151.91 139.6a8.5 8.5 0 003.29 11.54l6.72 3.74 174.16-99.63z"/>
      <path class="cls-5" d="M229.8 12.36a8.48 8.48 0 0111.54-3.29l89 49.48 5.78-3.3-97.45-54.18a8.49 8.49 0 00-11.54 3.29L151.91 139.6a8.49 8.49 0 001.77 10.45 8.33 8.33 0 01.9-2.45z"/>
      <circle class="cls-3" cx="226.49" cy="92.5" r="16.41"/>
      <circle class="cls-3" cx="281.98" cy="123.37" r="16.41"/>
      <circle class="cls-3" cx="248.16" cy="51.2" r="16.41"/>
      <circle class="cls-3" cx="303.66" cy="82.07" r="16.41"/>
      <circle class="cls-3" cx="204.01" cy="132.01" r="16.41"/>
      <circle class="cls-3" cx="259.51" cy="162.87" r="16.41"/>
      <ellipse class="cls-3" cx="45.49" cy="125.59" rx="15.8" ry="13.6" transform="rotate(-89.65 45.487 125.591)"/>
      <ellipse class="cls-3" cx="98.12" cy="125.91" rx="15.8" ry="13.6" transform="rotate(-89.4 98.563 125.957)"/>
      <ellipse class="cls-3" cx="45.11" cy="186.75" rx="15.8" ry="13.6" transform="rotate(-89.65 45.117 186.755)"/>
      <ellipse class="cls-3" cx="97.75" cy="187.07" rx="15.8" ry="13.6" transform="rotate(-89.65 97.754 187.07)"/>
    </g>
  </g>
</svg>
