<svg xmlns="http://www.w3.org/2000/svg" viewBox="0 0 1553 686">
  <defs>
    <style>
      .cls-2{fill:none}.cls-3{fill:#2e475e}.cls-4{fill:#fed406}.cls-5{fill:#f39200}.cls-6{fill:#ddb300}.cls-7{fill:#b66e00}.cls-8{fill:#f7c0b4}.cls-9{fill:#fff}.cls-10{fill:#ededed}.cls-11{fill:#3d2612}.cls-12{fill:#af7871}.cls-13{fill:#cb9f94}.cls-15{fill:#3f0a0a}.cls-16{fill:#5a1111}.cls-18{fill:#72030a}.cls-19{fill:#dadada}.cls-20,.cls-22,.cls-24,.cls-26{fill:#92ba24}.cls-20,.cls-21{opacity:.1}.cls-21,.cls-23,.cls-25,.cls-27{fill:#7ea004}.cls-22,.cls-23{opacity:.35}.cls-24,.cls-25{opacity:.7}
    </style>
  </defs>
  <g style="isolation:isolate">
    <g id="Layer_2" data-name="Layer 2">
      <g id="character">
        <path class="cls-2" d="M1503.31 0zM969.07 0zM1372.55 686z"/>
        <!-- <path class="cls-3" d="M894.59 545.48q-1.65-3.54-3.1-6.69c-2.59-5.61-4.67-10.21-6.18-13.58-15.89 30.32-3.7 47.18 28.62 60.56-4.91-9.94-9.37-19.19-13.3-27.45q-3.27-6.91-6.04-12.84zM1099.5 25.54a61.68 61.68 0 0024.83 17.13q2.54 1 5.16 1.8a129.12 129.12 0 0025 4.75c2 .2 3.9.38 5.88.54 5.91.47 12 .79 18.05 1.11l6.12.32c3.07.17 6.15.35 9.23.57 2 .15 4.11.31 6.16.5 4.11.37 8.21.82 12.28 1.42q3.06.45 6.09 1c4 .75 8.06 1.65 12 2.77 2 .56 4 1.17 5.89 1.84 1 .34 2 .69 2.92 1.06 1.93.73 3.85 1.52 5.74 2.39s3.78 1.79 5.63 2.79 3.69 2.09 5.5 3.25 3.6 2.4 5.36 3.73 3.49 2.75 5.19 4.25 3.38 3.11 5 4.82 3.25 3.5 4.83 5.4a84.5 84.5 0 012.26 2.82c.24.31.47.63.7 1 .48.63 1 1.26 1.42 1.9l.8 1.16c.4.58.81 1.15 1.19 1.73.28.42.54.84.8 1.25s.72 1.12 1.07 1.68.52.87.78 1.31.65 1.09 1 1.64l.74 1.36c.3.54.59 1.09.88 1.63s.46.93.69 1.39.55 1.08.8 1.63.44.94.65 1.41.49 1.09.73 1.64l.6 1.42.66 1.65.54 1.44c.2.55.4 1.1.59 1.65s.34 1 .5 1.47.36 1.1.53 1.65.3 1 .44 1.47.31 1.11.46 1.67.27 1 .39 1.48.28 1.12.41 1.68.23 1 .34 1.49.23 1.12.34 1.68.2 1 .29 1.51.19 1.12.28 1.68.17 1 .24 1.51.15 1.13.23 1.7.13 1 .18 1.52.12 1.13.17 1.69.1 1 .14 1.53.08 1.14.11 1.71.07 1 .09 1.52 0 1.14.06 1.72 0 1 0 1.52v3.25c0 .58 0 1.16-.06 1.74s0 1 0 1.51-.08 1.27-.12 1.9c-.06 1-.14 2-.23 2.94 0 .53-.09 1.06-.15 1.59s-.14 1.16-.21 1.74-.11 1-.18 1.5-.18 1.18-.27 1.77-.14 1-.22 1.47-.21 1.19-.32 1.78-.17 1-.26 1.46-.24 1.19-.37 1.79l-.3 1.44-.42 1.8c-.11.48-.22.95-.34 1.42s-.31 1.21-.47 1.81-.25.94-.38 1.4-.35 1.22-.52 1.83c-.14.45-.27.91-.41 1.37-.19.61-.38 1.22-.58 1.84-.14.45-.29.9-.44 1.35-.2.61-.41 1.23-.63 1.84l-.46 1.32-.69 1.87c-.16.42-.33.85-.49 1.28-.24.63-.49 1.26-.75 1.88-.16.42-.33.83-.5 1.24l-.81 1.91c-.17.4-.35.79-.52 1.19l-.87 1.94-.53 1.13-.94 2-.52 1-1 2-.5 1-1.11 2.08-.48.86c-.4.73-.8 1.45-1.21 2.17l-.4.69c-.45.77-.9 1.55-1.36 2.32-.09.14-.18.28-.26.42q-4.32 7.13-9.38 13.87c-2 2.69-4.13 5.34-6.32 7.92l-.15.18-.71.84a22.76 22.76 0 018.2 3.28c9.07 6 12.15 18.06 11.41 28.89a41.9 41.9 0 01-1.5 8.85q11.08 3.4 22 7.48 2.38.89 4.75 1.81h.08q2.37.92 4.73 1.88c2.47 1 4.94 2 7.41 3.1q15.15 6.52 30 14.58l.4.21c1.32.72 2.63 1.46 3.94 2.2l.9.5c1.21.69 2.43 1.39 3.64 2.1l1.16.68c1.16.68 2.31 1.37 3.46 2.06l1.33.81c1.11.68 2.22 1.36 3.33 2.06.48.29 1 .59 1.42.89 1.09.68 2.17 1.37 3.25 2.07l1.49 1 3.19 2.11 1.48 1c1.07.72 2.13 1.44 3.19 2.18l1.4 1c1.09.76 2.17 1.52 3.26 2.3l1 .73q5.45 3.91 10.83 8.12l1.82 1.42c.84.66 1.68 1.34 2.51 2l2.13 1.71 2.37 2c.75.62 1.5 1.24 2.24 1.87l2.29 1.95 2.31 2 2.22 1.95 2.35 2.1 2.16 2 2.4 2.21 2.1 2c.82.77 1.63 1.55 2.44 2.33l2 1.95 2.51 2.47 2 1.93c.88.88 1.75 1.78 2.63 2.67.6.61 1.2 1.22 1.79 1.84 1 1 2 2 2.92 3.06l1.49 1.56c1.44 1.55 2.89 3.11 4.33 4.69v.05a314.92 314.92 0 0136.62 48.48c1 1.6 1.92 3.21 2.84 4.81q5.55 9.6 10 19.07 3.33 7.09 6.07 14.08c.61 1.56 1.2 3.1 1.76 4.65a210.51 210.51 0 017 22.79 187.93 187.93 0 014.85 30.42q.3 4.2.41 8.31c1.08 42.45-14.05 77.26-36.36 97.12a196.59 196.59 0 01-25.57 19.26q-4.42 2.8-8.94 5.35-9 5.1-18.38 9.21a230.1 230.1 0 01-38.16 12.89 256.57 256.57 0 01-14.55 3.12l-1.41.24h130.76A50 50 0 001553 636V50a50 50 0 00-49.69-50h-418.18c2.38 8.37 6.87 17 14.37 25.54z"/> -->
        <!-- <path class="cls-3" d="M850.28 675.2q-8.28-2.2-16.44-4.94a249.27 249.27 0 01-26.65-10.61c-3.47-1.62-6.91-3.33-10.29-5.12q-2.55-1.35-5-2.76-7.51-4.24-14.7-9.1c-3.19-2.17-6.32-4.42-9.39-6.78A186 186 0 01742 612q-1.92-2.16-3.75-4.48t-3.54-4.81q-.85-1.25-1.68-2.52-2.49-3.84-4.72-8c-1-1.86-1.93-3.76-2.83-5.72s-1.76-4-2.57-6-1.58-4.14-2.3-6.27a67.3 67.3 0 01-1-3.23c-.67-2.17-1.29-4.39-1.85-6.64s-1.08-4.55-1.54-6.89-.86-4.7-1.21-7.11-.64-4.84-.87-7.32c-.12-1.24-.22-2.49-.3-3.74q-.27-3.76-.34-7.63c-.93-48.89 20.74-109 81-166.82 1.56-1.5 3.14-3 4.72-4.44.52-.49 1-.95 1.57-1.43 1.06-1 2.12-1.95 3.19-2.9l1.9-1.66c1-.85 1.93-1.7 2.91-2.54l2-1.7c.94-.8 1.88-1.6 2.83-2.38l2.07-1.69 2.82-2.28 2.11-1.65 2.82-2.2 2.13-1.61 2.83-2.12 2.16-1.56 2.85-2.06 2.16-1.51 2.88-2 2.16-1.45c1-.66 2-1.31 2.93-1.95l2.14-1.39 3-1.91 2.13-1.32 3-1.87 2.1-1.26 3.09-1.84 2.08-1.2c1-.6 2.09-1.2 3.14-1.78l2.06-1.14c1.06-.59 2.13-1.17 3.2-1.75l2-1.07c1.09-.58 2.17-1.15 3.26-1.71l2-1c1.11-.57 2.22-1.12 3.33-1.67l1.95-1 3.41-1.64 1.89-.89 3.49-1.6 1.84-.83 3.57-1.58 1.78-.77 3.66-1.54 1.72-.71 3.76-1.52 1.65-.65 3.86-1.49 1.56-.59 4-1.46 1.46-.53 4.11-1.45 1.36-.47 4.24-1.42 1.25-.41 4.4-1.4 1.1-.35 4.57-1.39 1-.28q2.37-.7 4.76-1.38l.77-.22 5-1.37.57-.15.47-.13a22.43 22.43 0 01-1.26-3.84c-2.05-9.05 2.16-18.92 9-24.52s15.77-7.39 24.28-6.73a26.92 26.92 0 012.78.39 179 179 0 01-7.33-34.47 285.57 285.57 0 01-1.5-39.88c.17-7-1.49-21.77.63-30.84l-.36-.38c-.31-.33-.6-.66-.9-1s-.64-.7-.95-1.06-.69-.78-1-1.18l-.76-.87-.87-1-.86-1-.81-1c-.29-.36-.58-.71-.86-1.07l-.82-1.05c-.27-.34-.54-.68-.8-1l-.86-1.15-.69-.92c-.3-.4-.58-.8-.86-1.2s-.44-.59-.65-.89l-.8-1.17-.64-.93c-.26-.39-.52-.78-.77-1.17l-.62-.93c-.26-.4-.51-.8-.76-1.2l-.57-.9-.76-1.25-.51-.86c-.25-.41-.48-.83-.72-1.25s-.34-.57-.5-.86-.46-.84-.69-1.26l-.48-.86-.68-1.3c-.14-.27-.29-.54-.42-.82-.23-.43-.44-.87-.66-1.31l-.4-.81c-.21-.44-.42-.88-.62-1.32-.13-.27-.26-.54-.38-.81l-.62-1.38-.33-.74c-.2-.48-.4-1-.59-1.42-.1-.24-.21-.48-.3-.71-.2-.48-.38-1-.57-1.43l-.27-.71c-.19-.48-.36-1-.54-1.45-.08-.23-.17-.45-.25-.68-.18-.49-.34-1-.51-1.47-.07-.22-.15-.44-.23-.67l-.48-1.49c-.06-.22-.13-.43-.2-.64-.16-.51-.31-1-.46-1.54 0-.2-.12-.4-.17-.6-.15-.52-.29-1-.43-1.57l-.15-.56c-.14-.53-.27-1.07-.4-1.6 0-.18-.09-.36-.13-.54-.13-.53-.24-1.06-.36-1.59l-.12-.55c-.12-.54-.22-1.08-.33-1.62 0-.17-.07-.34-.1-.51-.11-.55-.2-1.1-.29-1.65l-.09-.49c-.09-.56-.18-1.12-.26-1.68 0-.15 0-.3-.07-.45-.08-.56-.15-1.13-.22-1.69l-.06-.44c-.07-.57-.13-1.14-.19-1.72v-.41q-.09-.87-.15-1.74v-.38c0-.59-.08-1.18-.12-1.77v-.35c0-.6 0-1.2-.07-1.8v-.32-2.12V61.3c0-.62 0-1.24.05-1.86v-.25c0-.62 0-1.24.09-1.87v-.23c0-.63.08-1.26.13-1.89v-.21c0-.63.11-1.26.17-1.89v-.2c.07-.64.14-1.28.22-1.91v-.18c.08-.64.17-1.29.26-1.93a.77.77 0 000-.15c.1-.64.2-1.29.31-1.93a.78.78 0 000-.14c.11-.66.23-1.31.36-2a.52.52 0 010-.11c.12-.66.26-1.31.4-2v-.09c.15-.66.29-1.32.45-2v-.08c.15-.65.31-1.31.48-2v-.09c.17-.66.35-1.31.53-2v-.06c.18-.66.38-1.32.57-2v-.06c.2-.66.41-1.32.62-2 .21-.66.43-1.33.66-2 .23-.66.47-1.33.71-2 .24-.67.5-1.33.76-2A113.08 113.08 0 01960.84 13c.41-.74.82-1.47 1.24-2.2.75-1.29 1.52-2.58 2.32-3.85.39-.62.79-1.24 1.19-1.86q1.65-2.55 3.47-5H49.69A50 50 0 000 50v586a50 50 0 0049.69 50h875.42a335.59 335.59 0 01-74.83-10.8zM1372.57 541.46l-3.79 8.6-.91 2.07-1.56 3.56c-.47 1.06-.94 2.13-1.41 3.22l-1.46 3.32-.74 1.7c-.33.74-.66 1.5-1 2.26l-1.3 3c-.26.59-.52 1.19-.79 1.79l-1.59 3.65-2.57 5.92c17.22-9.91 24.55-22.81 18.43-42.06l-.24.54zM950.85 686H955v-.16c-1.42.05-2.79.16-4.15.16z"/> -->
        <path class="cls-4" d="M1340.54 558.58a449.38 449.38 0 0023.3-40.49c-5.69-8.94-13.46-18.92-23.52-30.16l-58.88-60.16c-.29.82-.59 1.64-.9 2.47l-.18.49c-.31.79-.61 1.59-.93 2.4v.07c-.33.84-.68 1.67-1 2.51-.06.16-.13.31-.19.47-.35.81-.7 1.63-1.06 2.45v.05c-.38.85-.77 1.7-1.16 2.55l-.2.42c-.39.84-.79 1.67-1.2 2.51-.43.87-.87 1.73-1.31 2.6-.07.12-.13.24-.19.36q-1.35 2.58-2.83 5.16l-.18.31q-1.5 2.59-3.15 5.18a2.13 2.13 0 00-.16.25q-1.68 2.59-3.49 5.16l-.16.23q-1.83 2.56-3.83 5.09a1.84 1.84 0 01-.17.22c-.66.83-1.33 1.66-2 2.48a311.77 311.77 0 01-32.6 66 110.16 110.16 0 01-60.87 42.47c33.42 10.12 47.31 30.08 52.23 38.37l39.89-12.37.43 3.57 6.15-1.32h.07c19.53-4.13 37.29-8 52.67-12.18 8.77-12.34 17.29-24.83 25.42-37.16zm-116.51 35l27.88-36.25 29.74 30.31zM1033.84 504.37q-6.49-3.18-12.32-6.75l-.12-.07-2.77-1.75-.11-.07q-5.67-3.66-10.73-7.65l-.14-.11c-.79-.63-1.57-1.26-2.34-1.9l-.16-.12q-4.86-4-9.17-8.31l-.24-.23c-.63-.63-1.26-1.26-1.87-1.9l-.25-.26q-1-1-2-2.07-2-2.2-3.93-4.45l-.13-.15c-.56-.66-1.11-1.33-1.65-2l-.33-.41-1.43-1.8c-.12-.15-.23-.3-.35-.44-.49-.64-1-1.28-1.45-1.91l-.22-.29c-1.11-1.49-2.18-3-3.22-4.49l-.27-.4c-.4-.59-.81-1.19-1.2-1.79-.14-.2-.27-.41-.41-.62l-1-1.6-.42-.66c-.35-.56-.69-1.12-1-1.68l-.34-.54q-1.34-2.22-2.58-4.44c-.12-.21-.24-.42-.35-.64-.29-.52-.58-1-.86-1.56l-.42-.79-.76-1.43c-.13-.27-.27-.54-.41-.8l-.76-1.51-.34-.69c-.36-.73-.71-1.46-1.06-2.18l-.07-.16c-.31-.65-.61-1.29-.9-1.94l-53 54.15c-5 5.64-9.46 11-13.35 16a664.51 664.51 0 0033.71 64q9.19 15.33 19.38 30.37l3.76 1h.07l4.16 1.09c.49-2.72.79-4.24.79-4.24l34.45 4.92c.53-.69 1.13-1.43 1.75-2.21l.1-.12q1.35-1.68 3-3.57l.24-.28.38-.44a23.11 23.11 0 1130.8-27.93l.38-.26c1-.73 2.1-1.45 3.19-2.17l.6-.4c.94-.61 1.89-1.22 2.86-1.83l1-.6c1.12-.69 2.25-1.37 3.41-2l.82-.46c1-.57 2-1.12 3-1.67l1-.54c1.21-.65 2.43-1.29 3.67-1.91l1-.47c1.06-.52 2.13-1 3.22-1.53l1-.45.39-.18c2.85-1.28 5.78-2.51 8.8-3.64-12.92-13.39-23.27-28.24-32.21-44zM1216.18 685.59l-.48.41h4.72z"/>
        <path class="cls-5" d="M1224.43 537.21a311.77 311.77 0 0032.6-66q-2.49 3-5.23 5.88a2.73 2.73 0 01-.23.25c-.52.55-1 1.1-1.59 1.64l-.29.3c-.54.55-1.08 1.09-1.63 1.63l-.25.23c-.62.61-1.25 1.21-1.89 1.81q-4 3.75-8.55 7.28l-.12.09-2.18 1.67-.1.07a134.26 134.26 0 01-12.46 8.21c-22.67 13.71-53 22.73-93.63 22.73H1125c-2.1 0-4.17 0-6.22-.07h-1.35q-3-.09-6-.22l-1-.05c-1.81-.1-3.59-.21-5.35-.33l-.93-.07c-1.92-.14-3.81-.31-5.68-.49l-1.14-.12q-5.76-.6-11.23-1.44l-1-.14q-2.71-.44-5.35-.91l-.55-.11c-1.71-.32-3.4-.65-5.07-1l-.45-.09c-1.74-.38-3.46-.77-5.16-1.19l-.64-.15q-5.17-1.27-10-2.78l-.45-.14c-1.65-.51-3.27-1-4.87-1.58h-.06q-4.92-1.69-9.54-3.59l-.22-.1q-4.58-1.89-8.85-4h-.08c8.94 15.76 19.29 30.61 32.21 44q4.67-1.75 9.62-3.23c55.9-16.53 107.19-22.79 114.58 4.12 3.85 14-9.27 23.49-26.77 30.38a110.16 110.16 0 0060.98-42.49zM1009.38 550a23.11 23.11 0 00-8.28 44.51c.24-.29.5-.58.76-.87v-.05c.38-.44.77-.88 1.18-1.33l.15-.17c.39-.43.78-.85 1.17-1.29l.24-.25q.57-.63 1.17-1.26l.31-.33 1.19-1.24.37-.38 1.2-1.23.42-.41 1.24-1.23.44-.44 1.29-1.24.39-.37c1.36-1.29 2.78-2.6 4.26-3.91l1-.84 1-.85 1.07-.92 1-.83 1.14-.95 1-.83 1.17-.94 1.07-.84 1.2-.92 1.12-.85c.4-.31.81-.61 1.22-.91s.77-.57 1.17-.86l1.23-.88.71-.51a23.11 23.11 0 00-22.6-16.58z"/>
        <path class="cls-6" d="M891.49 538.79l3.1 6.69q2.76 5.91 6 12.84c3.93 8.26 8.39 17.51 13.3 27.45 10.72 4.44 23.65 8.49 38.5 12.53q-10.18-15-19.38-30.37a664.51 664.51 0 01-33.71-64 147.19 147.19 0 00-14 21.29c1.52 3.36 3.6 7.96 6.19 13.57zM1003.78 685.59l-1.64.41h2.4zM1315 595.73c16.47-4.48 30.22-9.31 40.46-15.19l2.57-5.92 1.59-3.65c.27-.6.53-1.2.79-1.79l1.3-3c.33-.76.66-1.52 1-2.26l.74-1.7 1.46-3.32c.47-1.09.94-2.16 1.41-3.22l1.56-3.56.91-2.07 3.79-8.6 1.08-2.44.24-.54a88.88 88.88 0 00-10.05-20.39 449.38 449.38 0 01-23.3 40.49c-8.14 12.34-16.66 24.83-25.55 37.16zM1265.1 685.1l.11.9h5q-2.56-.43-5.11-.9z"/>
        <path class="cls-5" d="M1224.03 593.62l57.62-5.94-29.74-30.31-27.88 36.25zM953.22 277.59l-.47.13.47-.13zM791.85 651.77q-7.51-4.24-14.7-9.1 7.17 4.86 14.7 9.1zM742 612q-1.92-2.16-3.75-4.48 1.8 2.33 3.75 4.48zM960.42 600.45l-4.16-1.09zM913.93 585.77c-32.32-13.38-44.51-30.24-28.62-60.56a147.19 147.19 0 0114-21.29c3.89-5 8.32-10.35 13.35-16l53-54.15c-.23-.49-.45-1-.67-1.48l-.12-.28c-.49-1.09-.95-2.17-1.4-3.25-.07-.17-.14-.35-.22-.52a178.25 178.25 0 01-9.15-29.12c-.11-.52-.23-1-.33-1.54s-.28-1.3-.41-1.95c0-.18-.08-.37-.11-.55-.1-.49-.19-1-.29-1.45l-.09-.5c-.12-.61-.23-1.22-.34-1.81l-.06-.39c-.09-.47-.17-.94-.25-1.4 0-.2-.06-.4-.1-.6-.07-.43-.13-.86-.2-1.28 0-.15-.05-.3-.07-.45-.09-.54-.17-1.06-.24-1.59 0-.18-.06-.37-.08-.56l-.15-1.05c0-.2 0-.4-.08-.6-.05-.39-.1-.76-.15-1.13 0-.21 0-.4-.07-.6-.05-.38-.09-.76-.14-1.13 0-.21-.05-.42-.07-.63s-.06-.51-.08-.77-.05-.41-.07-.61c0-.35-.07-.69-.1-1s0-.47-.07-.71l-.06-.65v-.6c0-.2 0-.39-.05-.58s0-.37 0-.55 0-.62-.07-.92v-.5-.52-1.01a2.28 2.28 0 010-.26c-.37-3-.47-4.63-.47-4.63a259 259 0 0027.64-33 234.3 234.3 0 0019.3-33.44c.43-1 .86-2 1.27-3-7.23 1.26-14.79 0-21.9-2.16-8.89-2.71-18.21-7.91-22.37-16.51-54.23 19.59-104.75 48.84-146.34 92.38-47.34 48.29-71 110.78-63.43 177.06 3.78 30.29 21.77 56.8 48.28 74.79 40.72 26.51 95.32 29.74 137 1.34 10.75-7.31 18.73-15.82 27.06-24.73l-3.76-1c-15.07-4.07-28-8.12-38.72-12.56z"/>
        <path class="cls-7" d="M960.42 600.45l-4.16-1.12h-.07c-8.33 8.91-16.31 17.42-27.06 24.73-41.66 28.4-96.26 25.17-137-1.34-26.51-18-44.5-44.5-48.28-74.79-7.56-66.3 16.15-128.79 63.45-177.08 41.59-43.54 92.11-72.79 146.34-92.38-.14-.29-.29-.58-.42-.88l-.47.13-.57.15-5 1.37-.77.22q-2.38.68-4.76 1.38l-1 .28-4.57 1.39-1.1.35-4.4 1.4-1.25.41-4.24 1.42-1.36.47-4.07 1.44-1.46.53-4 1.46-1.56.59-3.86 1.49-1.65.65-3.76 1.52-1.72.71-3.65 1.55-1.78.77-3.57 1.58-1.84.83-3.49 1.6-1.89.89-3.43 1.64-1.95 1c-1.11.55-2.22 1.1-3.33 1.67l-2 1c-1.09.56-2.17 1.13-3.26 1.71l-2 1.07c-1.07.58-2.14 1.16-3.2 1.75l-2.06 1.14c-1.05.58-2.09 1.18-3.14 1.78L859 316.1l-3.08 1.82-2.1 1.26-3 1.87-2.13 1.32-3 1.91-2.14 1.39c-1 .64-2 1.29-2.93 1.95l-2.16 1.45-2.88 2-2.16 1.51-2.85 2.06-2.16 1.56-2.83 2.12-2.13 1.61-2.82 2.2-2.11 1.65-2.82 2.28-2.07 1.69c-1 .78-1.89 1.58-2.83 2.38l-2 1.7c-1 .84-1.94 1.69-2.91 2.54L804 356c-1.07 1-2.13 1.93-3.19 2.9-.52.48-1 .94-1.57 1.43-1.58 1.46-3.16 2.94-4.72 4.44-60.31 57.85-82 117.93-81 166.82q.07 3.87.34 7.63c.08 1.25.18 2.5.3 3.74q.34 3.72.87 7.32t1.21 7.11c.46 2.34 1 4.63 1.54 6.89s1.18 4.47 1.85 6.64c.33 1.09.68 2.17 1 3.23q1.08 3.2 2.3 6.27t2.57 6c.9 2 1.84 3.86 2.83 5.72q2.22 4.19 4.72 8 .82 1.27 1.68 2.52 1.73 2.49 3.54 4.81T742 612a186 186 0 0025.79 23.89c3.07 2.36 6.2 4.61 9.39 6.78q7.17 4.86 14.7 9.1 2.5 1.41 5 2.76c3.38 1.79 6.82 3.5 10.29 5.12a249.27 249.27 0 0026.65 10.61q8.18 2.74 16.46 4.94a335.59 335.59 0 0074.83 10.8h25.74c1.36 0 2.73-.1 4.08-.16-3.03-33.15 3.2-72.56 5.49-85.39z"/>
        <path class="cls-5" d="M1318.73 293.86q15.15 6.52 30 14.58-14.85-8.08-30-14.58zM1261.13 299.3a52.2 52.2 0 01-14.32 4.64c10.53 27 25.34 44.42 34.92 53.65a81.63 81.63 0 009.54 8.08v.1a1.42 1.42 0 000 .19V376.72c0 .52 0 1.05-.08 1.6a1.48 1.48 0 010 .21c-.06 1.14-.13 2.36-.23 3.63v.16c0 .62-.1 1.26-.15 1.91v.26c0 .65-.11 1.32-.18 2v.14c-.07.7-.14 1.42-.22 2.14-.08.72-.17 1.46-.26 2.2v.27q-.13 1.1-.3 2.22v.26c-.22 1.57-.47 3.18-.75 4.84v.2c-.13.81-.28 1.62-.43 2.44l-.06.33c-.15.83-.31 1.66-.48 2.5v.2c-.17.88-.36 1.76-.55 2.65-.19.87-.39 1.76-.6 2.65 0 .11 0 .22-.08.33-.2.87-.41 1.74-.64 2.62a3.38 3.38 0 01-.08.34 168.84 168.84 0 01-1.5 5.54l-.08.26c-.26.91-.54 1.82-.82 2.74 0 .13-.08.27-.13.4-.28.92-.58 1.84-.89 2.76 0 .1-.06.2-.1.3a70.1 70.1 0 01-1 2.87l58.88 60.16c10.06 11.24 17.83 21.22 23.52 30.16a88.88 88.88 0 0110.05 20.39c6.12 19.25-1.21 32.15-18.43 42.06-10.24 5.88-24 10.71-40.46 15.19-15.38 4.18-33.14 8-52.67 12.18 1.9-.4.9-.18-.07 0 19.4 27.72 50.41 47.93 80.62 53.48 32.19 5.68 89.63-7.15 117.41-40.6 28.68-34.55 48.28-130.18-51.13-249.48-29.12-34.94-69.74-60.49-107.43-84.31q-11-4.08-22-7.48a27.78 27.78 0 01-2.34 5.7c-3.78 6.46-9.95 10.97-16.48 14.16zM1386.54 332.29q5.45 3.91 10.83 8.12-5.37-4.2-10.83-8.12z"/>
        <path class="cls-7" d="M1388.51 682.63a230.1 230.1 0 0038.16-12.89q9.33-4.12 18.38-9.21 4.52-2.55 8.94-5.35a196.59 196.59 0 0025.53-19.26c22.31-19.86 37.44-54.67 36.36-97.12q-.11-4.11-.41-8.31a187.93 187.93 0 00-4.85-30.42 210.51 210.51 0 00-7-22.79c-.56-1.55-1.15-3.09-1.76-4.65q-2.75-7-6.07-14.08-4.44-9.46-10-19.07c-.92-1.6-1.87-3.21-2.84-4.81a314.92 314.92 0 00-36.61-48.62V386c-1.44-1.58-2.89-3.14-4.33-4.69l-1.49-1.56c-1-1-1.94-2.05-2.92-3.06-.59-.62-1.19-1.23-1.79-1.84-.88-.89-1.75-1.79-2.63-2.67l-2-1.93-2.51-2.47-2-1.95c-.81-.78-1.62-1.56-2.44-2.33l-2.1-2-2.4-2.21-2.16-2-2.35-2.1-2.22-1.95-2.31-2-2.29-1.95c-.74-.63-1.49-1.25-2.24-1.87l-2.37-2-2.13-1.71c-.83-.67-1.67-1.35-2.51-2l-1.82-1.42q-5.38-4.2-10.83-8.12l-1-.73c-1.09-.78-2.17-1.54-3.26-2.3l-1.4-1c-1.06-.74-2.12-1.46-3.19-2.18l-1.48-1L1373 323l-1.49-1c-1.08-.7-2.16-1.39-3.25-2.07-.47-.3-.94-.6-1.42-.89-1.11-.7-2.22-1.38-3.33-2.06l-1.33-.81a394.3 394.3 0 00-3.46-2.06l-1.16-.68c-1.21-.71-2.43-1.41-3.64-2.1l-.9-.5c-1.31-.74-2.62-1.48-3.94-2.2l-.4-.21q-14.82-8.08-30-14.58c-2.47-1.06-4.94-2.1-7.41-3.1q-2.36-1-4.73-1.88h-.08q-2.37-.93-4.75-1.81c37.69 23.82 78.31 49.37 107.43 84.31 99.41 119.3 79.81 214.93 51.13 249.48-27.78 33.45-85.22 46.28-117.41 40.6-30.21-5.55-61.22-25.76-80.62-53.48 1-.2 2-.42.07 0h-.07l-6.15 1.32 9 75.85q2.55.46 5.16.9h102.29l1.41-.24c4.87-.94 9.72-1.97 14.56-3.16zM1301.73 287.02z"/>
        <path class="cls-8" d="M953.64 278.47c4.16 8.6 13.48 13.8 22.37 16.51 7.11 2.18 14.67 3.42 21.9 2.16a115.21 115.21 0 006.39-20.29 132.43 132.43 0 01-16.3-34 26.92 26.92 0 00-2.78-.39c-8.51-.66-17.45 1.13-24.28 6.73s-11 15.47-9 24.52a22.43 22.43 0 001.26 3.84c.15.34.3.63.44.92zm16.41-14.21a19.05 19.05 0 0111.17-1.91 19.55 19.55 0 0110.3 4.71 18.93 18.93 0 013.59 4.31c1 1.64 1.47 3.32 2.26 4.93-1.45-1.13-2.45-2.69-3.69-3.82a22.76 22.76 0 00-3.92-3.12 22.44 22.44 0 00-9-3.36 21.44 21.44 0 00-9.57.92 26.26 26.26 0 00-8.87 5 17.1 17.1 0 017.73-7.66zM1237.33 269.79a19 19 0 017.3-4.69 24.26 24.26 0 0110.94-1.36 17.6 17.6 0 015.34 1.53 12.88 12.88 0 014.27 3.33 19.61 19.61 0 00-9.75-2.16 31.49 31.49 0 00-9.61 1.89 20 20 0 00-7.84 5 178 178 0 008.83 30.64 52.2 52.2 0 0014.32-4.64c6.53-3.19 12.7-7.7 16.22-14.06a27.78 27.78 0 002.34-5.7 41.9 41.9 0 001.5-8.85c.74-10.83-2.34-22.92-11.41-28.89a22.76 22.76 0 00-8.2-3.28c-.43.5-.87 1-1.31 1.49l-.28.33c-.66.74-1.32 1.47-2 2.2l-.37.41c-.65.71-1.31 1.41-2 2.11l-.43.45c-.65.69-1.31 1.36-2 2l-.48.48-2 2-.5.49c-.67.65-1.35 1.29-2 1.93l-.52.48c-.68.64-1.37 1.26-2.06 1.88l-.54.48c-.69.62-1.39 1.24-2.1 1.84-.17.16-.35.31-.53.46-.71.61-1.43 1.21-2.16 1.81l-.5.42-2.23 1.8-.47.37-.9.71q.51 3.61 1.13 7.1zM1228 268.68c-.58.39-1.15.79-1.73 1.17l-1.38.91c.45 1.14 1.43 3.57 2.94 7 .01-3.06.07-6.09.17-9.08zM1190.23 514.23c-.91.28-1.83.55-2.75.81h-.11l-2.78.76h-.11l-2.85.73h-.08c-1 .25-2 .48-2.94.72A233.92 233.92 0 011127 523h1.82c40.62 0 71-9 93.63-22.73a151.6 151.6 0 01-32.22 13.96zM949.7 366.59s.1 1.66.47 4.63v-.78-.27-.45a2.09 2.09 0 000-.25v-.42-.18-2.05s.44-.42 1.24-1.24l1.47-1.52.92-1 2.15-2.33.06-.06 1.23-1.37c.85-1 1.77-2 2.74-3.13l.1-.12q1.44-1.66 3-3.57l.08-.1 1.59-1.94.13-.16c.54-.67 1.09-1.35 1.65-2.06 3.39-4.26 7.08-9.18 10.85-14.65a259 259 0 01-27.68 33.02zM1040.35 333.5l-.5.22c.81.64 1.62 1.29 2.43 1.91-.83-.87-1.48-1.63-1.93-2.13z"/>
        <path class="cls-8" d="M1203.33 326.58c-3.8-3.07-8.06-6-12.93-6.37-6.46-.5-13.46.6-17.65 7.15-11.14 17.46-19.76 17.92-40.26 20.83s-47.5 3.55-64.44-8.36c-4-2.84-9.27-8.26-14.52-11.54-1.69.68-3.34 1.27-5 1.88s-3.33 1.28-5 1.95c6 6.64 31.18 31 75.38 31h.85c26.84-.19 45.1-9.45 55.69-17.19a71.87 71.87 0 0015.63-15.33c-1.14-.42-2.3-.82-3.49-1.17-2.36-.72-4.79-1.26-7.37-1.8a19.17 19.17 0 017.87-.78 24.76 24.76 0 0114.38 6.54 19 19 0 014.58 6.44c-2.11-1.59-4.12-3.06-6.21-4.37a55.24 55.24 0 00-6.41-3.47l-.17-.07c-.62.91-1.63 2.27-3 3.95l-6.56 49.43c-63.09 26.53-128.14 1.12-128.14 1.12L1039 334.11l-1.61.72c-1.87.85-3.73 1.75-5.77 2.6a18.08 18.08 0 014.39-4.83 24.56 24.56 0 0112-5 20.12 20.12 0 014.32-.06c-2.57-1.43-5.13-2.26-7.54-1.92-3.65.52-15.57 1.95-19 7.64-2.55 4.16-6 18.39-10.23 26.52 18.72 39.34 66.89 63 176.27 43.25 20.92-3.77 29.63-22.71 33.28-47.88-5.66-11.63-13.77-22.15-21.78-28.57zM1005.27 278.21c-.32-.45-.66-.9-1-1.36a115.21 115.21 0 01-6.39 20.29c-.41 1-.84 2-1.27 3a185.21 185.21 0 008.66-21.93z"/>
        <path class="cls-8" d="M1217.7 275.18l-7.85-111.8s-5.28 2.16-14.38 5.08c-1.52.49-3.14 1-4.87 1.52-3.45 1-7.29 2.15-11.48 3.27-3.14.83-6.48 1.67-10 2.5l-3.56.82c-3.62.81-7.41 1.6-11.33 2.34-1.31.24-2.63.49-4 .72q-4 .72-8.21 1.34t-8.52 1.17a289.4 289.4 0 01-17.53 1.61c-1.67.1-3.35.19-5 .26q-4.53.19-9.15.23h-4.7a209.17 209.17 0 01-38.26-3.84c-1-.21-2.06-.42-3.09-.65l-.69-.15-2.59-.59-.45-.11a163.18 163.18 0 01-19.31-5.91c-.12 1.67-.26 3.34-.42 5q-2.91 30.66-8.07 61.07c-2.69 15.84-6 31.92-13.92 45.88a104.82 104.82 0 01-3.83-5c-.65 6.48-1.11 13-1.3 19.39 2 1.78 2.84 5.76 4.32 7.94a27.8 27.8 0 0011.49 9.83c13.28 5.92 14.12-2.1 28.6-.75 7.17.66 21.35 4.41 32.55 7.35a24.51 24.51 0 01-4.19-3.63 17.88 17.88 0 01-4.61-10.35 13.55 13.55 0 01.93-6.05 15.57 15.57 0 013.13-4.92 34.44 34.44 0 018.07-6.05l3.9-2.3c1.26-.78 2.53-1.56 3.77-2.39a127.5 127.5 0 0019.28-15.66l-.09.07c-.35.25-.7.5-1.07.74l-.34.22c-.3.2-.61.38-.92.57l-.32.18c-.41.24-.83.46-1.26.68l-.3.14-1.09.5-.43.19c-.41.17-.83.33-1.26.49l-.22.08c-.5.18-1 .35-1.54.51l-.45.14-1.27.34-.47.12c-.57.13-1.15.26-1.75.38h-.26c-.52.1-1.06.19-1.61.27l-.57.08c-.52.07-1 .14-1.6.19l-.41.05c-.67.06-1.36.11-2.06.15h-.53c-.56 0-1.13 0-1.72.06H1087.94c-11.49-.3-19.08-4.22-24.07-9.69a30.69 30.69 0 01-5.22-8c-.49-1.08-.92-2.17-1.3-3.27s-.7-2.21-1-3.32l-.27-1.11c-.25-1.11-.46-2.21-.64-3.3s-.31-2.17-.42-3.22c-.21-2.1-.3-4.11-.31-5.95v-1.78a64.36 64.36 0 01.48-6.75l-10.45-1.37 3.49-20.1 73.71 25.4 68-31 4.62 28.69-8.72.86c.06.64.21 2.64.21 5.49v2.4a70.73 70.73 0 01-.8 8.72c-.11.71-.23 1.41-.37 2.13a48.44 48.44 0 01-3.35 10.85c-.32.71-.66 1.4-1 2.09a30.38 30.38 0 01-1.8 3 28.67 28.67 0 01-2.14 2.79c-.52.59-1.06 1.17-1.63 1.72a25.45 25.45 0 01-4.85 3.65q-.54.31-1.11.6a25.49 25.49 0 01-2.37 1.07c-.41.17-.83.32-1.26.46-.86.29-1.75.54-2.68.76a34.46 34.46 0 01-7.68.85h-2.61l-1.57-.1h-.43c-.63-.05-1.24-.13-1.84-.21l-.41-.06q-.72-.11-1.41-.24l-.48-.09c-.57-.12-1.13-.24-1.67-.38-.53-.14-1-.29-1.55-.45l-.44-.14c-.4-.13-.8-.27-1.19-.42-.11 0-.22-.07-.33-.12-.48-.18-1-.38-1.4-.58l-.32-.15-1.06-.52-.36-.19c-.43-.23-.85-.46-1.25-.71h-.06c-.39-.23-.76-.48-1.12-.72l-.33-.23-.89-.66-.23-.18c-.35-.27-.69-.56-1-.85l-.24-.22c-.26-.23-.51-.47-.76-.71l-.26-.25c-.3-.31-.6-.62-.89-.94l-.06-.07c-.27-.3-.52-.6-.77-.91a3.11 3.11 0 01-.23-.28c-.22-.27-.42-.54-.63-.82l-.15-.2c-.24-.34-.48-.68-.7-1-.06-.08-.11-.17-.16-.25l-.52-.83c-.06-.1-.12-.19-.17-.29-.21-.35-.41-.7-.6-1.06v-.06c-.18-.34-.35-.69-.52-1 0-.1-.09-.19-.13-.29-.15-.3-.29-.61-.42-.92a1.42 1.42 0 01-.08-.18c-.16-.37-.31-.73-.45-1.1l-.09-.23c-.12-.3-.23-.61-.33-.91l-.09-.26c-.13-.36-.25-.73-.37-1.1-.11-.36-.22-.72-.32-1.08a2.17 2.17 0 00-.07-.24c-.08-.33-.17-.65-.25-1v-.12c-.09-.36-.17-.73-.25-1.08v-.17c-.07-.31-.13-.62-.19-.92v-.19c-.14-.7-.25-1.39-.34-2.05v-.15c0-.33-.09-.65-.13-1 0 .64-.11 1.29-.2 2v.1c-.09.67-.2 1.35-.34 2.05v.1c-.06.31-.13.62-.2.93a1.36 1.36 0 010 .17c-.16.68-.34 1.38-.56 2.07a1.42 1.42 0 01-.07.22c-.09.3-.19.59-.29.88l-.06.18c-.13.35-.26.69-.4 1 0 .06-.05.11-.07.16-.12.29-.24.58-.37.87 0 .09-.08.18-.13.27q-.21.46-.45.93l-.05.09c-.17.33-.36.67-.55 1l-.15.26-.48.76c-.06.09-.11.18-.17.26l-.42.62c.9-1 1.8-2 2.68-3a88.08 88.08 0 01-23.68 28.55c-1.23 1-2.49 1.92-3.76 2.85s-2.61 1.81-3.84 2.63a31.46 31.46 0 00-6.31 5.21 7.63 7.63 0 00-2.05 5.77 10.92 10.92 0 002.88 6 19.44 19.44 0 006.2 4.42 42.82 42.82 0 008 2.72c2.83.72 5.8 1.32 8.68 1.84a62.13 62.13 0 008.62.91 32 32 0 008.37-.83 24.93 24.93 0 007.72-3.39c2.49-1.57 4.91-3.48 7.54-5.17a35.63 35.63 0 014.09-2.32 20.18 20.18 0 014.43-1.46c-5.61 2.74-9.1 7.66-13.89 11.84a30.58 30.58 0 01-3.93 2.92c-.3.19-.6.36-.91.53a85.23 85.23 0 0034.15-14.56c3.15-2.27 6.19-4.8 9.81-6.22 6.39-2.51 13.6-1.23 20.23.57a141.75 141.75 0 0134.88 14.75c.36-14.39.18-29.43.37-44-1.51-3.41-2.49-5.84-2.94-7-1.62 1.06-3.26 2.07-4.91 3.07-1.15.45-1.9.9-2.66 1.34z"/>
        <path class="cls-9" d="M1122.35 244.18a42.69 42.69 0 00.25 8 35.18 35.18 0 00-.25-8zM1132.44 239.88l-9.39.92a33.59 33.59 0 004.46 12 10.32 10.32 0 01-.67-3.65 10.48 10.48 0 015.6-9.27zM1147.83 249.16a10.48 10.48 0 01-16.88 8.31c7.72 8.67 19.86 12.64 32.35 6.39 10.19-4.7 15.16-17.82 11.22-28.11l-34.19 3.35a10.49 10.49 0 017.5 10.06zM1118.07 249.16a10.52 10.52 0 01-.78 4 47.94 47.94 0 004.39-12.25l-9.81-1.29a10.47 10.47 0 016.2 9.54zM1107.58 259.65a10.48 10.48 0 01-1.66-20.84l-37.8-5c-3.69 4.89-4.89 11.75-4.23 17.7 2.84 14.21 17 21.78 31.24 18.94a32.16 32.16 0 0020.81-15 10.43 10.43 0 01-8.36 4.2zM1112.37 272.42l.09-.07zM1117.57 267.1l.42-.62c-.14.22-.29.43-.44.64z"/>
        <path class="cls-10" d="M1117.55 267.12c.15-.21.3-.42.44-.64s.11-.17.17-.26l.48-.76.15-.26c.19-.33.38-.67.55-1l.05-.09q.24-.47.45-.93c.05-.09.09-.18.13-.27.13-.29.25-.58.37-.87 0-.05.05-.1.07-.16.14-.35.27-.69.4-1l.06-.18c.1-.29.2-.58.29-.88a1.42 1.42 0 00.07-.22c.22-.69.4-1.39.56-2.07a1.36 1.36 0 000-.17c.07-.31.14-.62.2-.93v-.1c.14-.7.25-1.38.34-2.05v-.1c.09-.68.15-1.33.2-2a42.69 42.69 0 01-.25-8 35.18 35.18 0 01.25 8c0 .32.08.64.13 1v.15c.09.66.2 1.35.34 2.05v.19c.06.3.12.61.19.92v.17c.08.35.16.72.25 1.08v.12c.08.32.17.64.25 1a2.17 2.17 0 01.07.24c.1.36.21.72.32 1.08.12.37.24.74.37 1.1l.09.26c.1.3.21.61.33.91l.09.23c.14.37.29.73.45 1.1a1.42 1.42 0 00.08.18c.13.31.27.62.42.92 0 .1.09.19.13.29.17.34.34.69.52 1v.06c.19.36.39.71.6 1.06.05.1.11.19.17.29l.52.83c0 .08.1.17.16.25.22.34.46.68.7 1l.15.2c.21.28.41.55.63.82a3.11 3.11 0 00.23.28c.25.31.5.61.77.91l.06.07c.29.32.59.63.89.94l.26.25c.25.24.5.48.76.71l.24.22c.33.29.67.58 1 .85l.23.18.89.66.33.23c.36.24.73.49 1.12.72h.06c.4.25.82.48 1.25.71l.36.19 1.06.52.32.15c.45.2.92.4 1.4.58.11.05.22.08.33.12.39.15.79.29 1.19.42l.44.14c.51.16 1 .31 1.55.45.54.14 1.1.26 1.67.38l.48.09q.69.13 1.41.24l.41.06c.6.08 1.21.16 1.84.21h.43l1.57.1h2.61a34.46 34.46 0 007.68-.85c.93-.22 1.82-.47 2.68-.76.43-.14.85-.29 1.26-.46a25.49 25.49 0 002.37-1.07q.57-.29 1.11-.6a25.45 25.45 0 004.85-3.65c.57-.55 1.11-1.13 1.63-1.72a28.67 28.67 0 002.14-2.79 30.38 30.38 0 001.8-3c.37-.69.71-1.38 1-2.09a48.44 48.44 0 003.35-10.85c.14-.72.26-1.43.37-2.13s.21-1.4.29-2.08c.3-2.4.45-4.65.51-6.64v-2.4c0-2.85-.15-4.85-.21-5.49l-11.3 1.11c3.94 10.29-1 23.41-11.22 28.11-12.49 6.25-24.63 2.28-32.35-6.39a10.47 10.47 0 01-3.44-4.66 33.59 33.59 0 01-4.46-12l-1.11.11h-.26a47.94 47.94 0 01-4.39 12.25 10.26 10.26 0 01-1.35 2.34 32.16 32.16 0 01-20.81 15c-14.2 2.84-28.4-4.73-31.24-18.94-.66-6 .54-12.81 4.23-17.7l-12.93-1.7a64.36 64.36 0 00-.48 6.75v1.78c0 1.84.1 3.85.31 5.95.11 1.05.25 2.13.42 3.22s.39 2.19.64 3.3l.27 1.11c.29 1.11.62 2.22 1 3.32s.81 2.19 1.3 3.27a30.69 30.69 0 005.22 8c5 5.47 12.58 9.39 24.07 9.69H1090.55c.59 0 1.16 0 1.72-.06h.53c.7 0 1.39-.09 2.06-.15l.41-.05c.55-.05 1.08-.12 1.6-.19l.57-.08c.55-.08 1.09-.17 1.61-.27h.26c.6-.12 1.18-.25 1.75-.38l.47-.12 1.27-.34.45-.14c.53-.16 1-.33 1.54-.51l.22-.08c.43-.16.85-.32 1.26-.49l.43-.19 1.09-.5.3-.14c.43-.22.85-.44 1.26-.68l.32-.18c.31-.19.62-.37.92-.57l.34-.22c.37-.24.72-.49 1.07-.74l.09-.07q2.97-2.45 5.46-5.13z"/>
        <path class="cls-11" d="M1105.92 238.81a10 10 0 011.66-.15 10.42 10.42 0 014.29.93l9.81 1.29h.26l1.11-.11 9.39-.92a10.45 10.45 0 014.89-1.22 10.56 10.56 0 013 .44l34.19-3.35 11.3-1.11 8.72-.86-4.62-28.69-68 31-73.71-25.4-3.49 20.1 10.45 1.37 12.93 1.7z"/>
        <path class="cls-12" d="M1128.37 327.19c.31-.17.61-.34.91-.53a30.58 30.58 0 003.93-2.92c4.79-4.18 8.28-9.1 13.89-11.84a20.18 20.18 0 00-4.43 1.46 35.63 35.63 0 00-4.09 2.32c-2.63 1.69-5 3.6-7.54 5.17a24.93 24.93 0 01-7.72 3.39 32 32 0 01-8.37.83 62.13 62.13 0 01-8.62-.91c-2.88-.52-5.85-1.12-8.68-1.84a42.82 42.82 0 01-8-2.72 19.44 19.44 0 01-6.2-4.42 10.92 10.92 0 01-2.88-6 7.63 7.63 0 012.05-5.77 31.46 31.46 0 016.31-5.21c1.23-.82 2.55-1.71 3.84-2.63s2.53-1.86 3.76-2.85a88.08 88.08 0 0023.68-28.55c-.88 1-1.78 2-2.68 3q-2.49 2.69-5.09 5.23a127.5 127.5 0 01-19.26 15.6c-1.24.83-2.51 1.61-3.77 2.39l-3.9 2.3a34.44 34.44 0 00-8.07 6.05 15.57 15.57 0 00-3.13 4.92 13.55 13.55 0 00-.93 6.05 17.88 17.88 0 004.61 10.35 24.51 24.51 0 004.19 3.63c4.64 1.22 8.78 2.29 11.69 3a85.3 85.3 0 0034.5.5zM980.73 266a22.44 22.44 0 019 3.36 22.76 22.76 0 013.92 3.12c1.24 1.13 2.24 2.69 3.69 3.82-.79-1.61-1.29-3.29-2.26-4.93a18.93 18.93 0 00-3.59-4.31 19.55 19.55 0 00-10.3-4.71 19.05 19.05 0 00-11.17 1.91 17.1 17.1 0 00-7.76 7.69 26.26 26.26 0 018.87-5 21.44 21.44 0 019.6-.95zM1255.43 266.44a19.61 19.61 0 019.75 2.16 12.88 12.88 0 00-4.27-3.33 17.6 17.6 0 00-5.34-1.53 24.26 24.26 0 00-10.94 1.36 19 19 0 00-7.3 4.69c.2 1.18.42 2.35.65 3.51a20 20 0 017.84-5 31.49 31.49 0 019.61-1.86z"/>
        <path class="cls-11" d="M1111.87 239.59a10.42 10.42 0 00-4.29-.93 2.66 2.66 0 11-2.66 2.66 2.66 2.66 0 012.66-2.66 10 10 0 00-1.66.15 10.48 10.48 0 1010 16.66 10.26 10.26 0 001.35-2.34 10.49 10.49 0 00-5.42-13.54z"/>
        <circle class="cls-9" cx="1107.58" cy="241.32" r="2.66"/>
        <path class="cls-11" d="M1147.83 249.16a10.51 10.51 0 00-10.5-10.5 2.78 2.78 0 11-2.77 2.77 2.77 2.77 0 012.77-2.77 10.52 10.52 0 00-10.49 10.5 10.32 10.32 0 00.67 3.65 10.49 10.49 0 0020.32-3.65z"/>
        <path class="cls-13" d="M965.69 433.78c.29.65.59 1.29.9 1.94-.54-1.14-1.06-2.28-1.57-3.42.22.49.44.99.67 1.48zM1273.21 446.78c-.07.12-.13.24-.19.36.06-.14.12-.24.19-.36zM1250 479l-.29.3zM1245.92 483zM1248.06 480.94l-.25.23zM1235.06 492l-.1.07zM1237.36 490.27l-.12.09zM1105.18 522.35l-.93-.07zM1111.51 522.73l-1-.05zM1118.82 523h-1.35zM1251.8 477.12a2.73 2.73 0 01-.23.25 2.73 2.73 0 00.23-.25zM1270.19 452.3l-.18.31zM1266.86 457.79a2.13 2.13 0 00-.16.25 2.13 2.13 0 01.16-.25zM1274.53 444.17zM1263.21 463.2l-.16.23zM1257 471.23zM1259.22 468.52a1.84 1.84 0 01-.17.22 1.84 1.84 0 00.17-.22zM1098.57 521.79l-1.14-.12zM1021.52 497.62l-.12-.07zM1007.79 488.08l-.14-.11zM996 477.64l-.24-.23zM1005.31 486.07l-.16-.12zM1018.63 495.8l-.11-.07zM987.69 468.69l-.13-.15zM1275.93 441.24l-.2.42zM993.87 475.51l-.25-.26zM1086.2 520.23l-1-.14zM991.67 473.18zM1074.28 518.06l-.45-.09zM1068.67 516.78l-.64-.15zM1079.9 519.18l-.55-.11zM1043.06 508.52l-.22-.1zM1058 513.85l-.45-.14zM1033.91 504.41h.08l-.15-.07zM1052.66 512.13h-.06zM985.91 466.55l-.33-.41zM1291.32 374.88zM1290.33 388.72zM1291.18 378.27a1.48 1.48 0 010 .21 1.48 1.48 0 000-.21zM1277.11 438.64v.05zM1291.27 376.47zM1290.94 382.11zM1290.57 386.44v.14c0 .05-.01-.09 0-.14zM1290.78 384.18v.26zM1291.39 370.62zM1291.31 366.39zM1291.27 365.67zM1291.29 366zM1291.37 368.5zM1291.35 367.62zM1291.33 366.92zM1291.38 371.91zM1281.44 427.77zM1282.53 424.57c0 .1-.06.2-.1.3.04-.1.07-.2.1-.3zM1285.24 415.59zM1284.45 418.41l-.08.26zM1283.55 421.41c0 .13-.08.27-.13.4.05-.13.09-.27.13-.4zM1278.36 435.72c-.06.16-.13.31-.19.47.06-.19.13-.31.19-.47zM1279.42 433.14v.07zM1280.53 430.25l-.18.49zM1288.49 401.2l-.06.33zM1289 398.56v.2zM1289.73 393.46v.26zM1286 412.5a3.38 3.38 0 01-.08.34 3.38 3.38 0 00.08-.34zM1290.06 391v.27zM1288 404v.2c0 .07-.06-.1 0-.2zM1286.76 409.55c0 .11 0 .22-.08.33.03-.11.05-.22.08-.33zM1287.36 406.88zM1291.36 373.37zM1190.18 514.25zM969.23 441.06c-.13-.27-.27-.54-.41-.8.18.26.28.53.41.8zM1222.49 500.32zM974.54 450.46l-.34-.54zM970.41 443.28l-.42-.79zM971.62 445.48c-.12-.21-.24-.42-.35-.64.11.22.23.43.35.64zM968.06 438.75l-.34-.69zM1187.32 515.1h.11zM984.15 464.34c-.12-.15-.23-.3-.35-.44.12.1.2.29.35.44zM1125.09 523.05zM1181.5 516.65h.08zM1184.43 515.9h.11zM982.35 462l-.22-.29zM976 452.8l-.42-.66zM978.91 457.21l-.27-.4zM977.44 455c-.14-.2-.27-.41-.41-.62.14.23.27.44.41.62zM1227.81 277.74c-.19 14.56 0 29.6-.37 44 1.13.66 2.26 1.33 3.37 2A20.8 20.8 0 011237 329c4.66 6.58 1.1 15.63-2.56 22.82-1 1.9-2.69 4.14-4.69 3.42-.91-.32-1.69 7.07-2 6.17-.8-2.1-1.71-4.17-2.68-6.22-3.65 25.17-12.36 44.11-33.28 47.88-109.38 19.71-157.55-3.91-176.27-43.25-1.63 3.15-3.38 5.38-5.22 5.76-2.32.47-8.34-24.56-10.51-25.48-4.35-1.83-5.35-7.48-5.35-12.19 0-5.48-.21-28.78 8.23-29.44a3.33 3.33 0 012.58.89c.19-6.43.65-12.91 1.3-19.39-.41-.57-.81-1.15-1.22-1.73a185.21 185.21 0 01-8.63 21.89 234.3 234.3 0 01-19.3 33.44c-3.77 5.47-7.46 10.39-10.85 14.65-2.76 58.03 32 112.78 84.01 138.78 70 29.45 158.3 14.72 206.16-51.54 15.81-24.84 23.28-51.07 25-77.83-9.58-9.23-24.39-26.64-34.92-53.65a178 178 0 01-8.8-30.68c-.23-1.16-.45-2.33-.65-3.51q-.61-3.5-1.11-7.12l-1.4 1.07-.42.32c-.79.6-1.59 1.2-2.4 1.78l-.33.24-2.52 1.8-.22.14-1 .66c-.05 2.99-.11 6.02-.14 9.06zM951 380.55c0-.21-.05-.42-.07-.63-.01.21.07.42.07.63zM951.64 385.62c0-.18-.06-.37-.08-.56.02.19.05.38.08.56zM952 387.66c0-.15-.05-.3-.07-.45-.03.15 0 .3.07.45zM953 393.64l-.09-.5zM951.18 382.28c0-.21 0-.41-.07-.6.02.2.05.39.07.6zM953.39 395.64c0-.18-.08-.37-.11-.55.03.18.07.37.11.55zM951.41 384c0-.2 0-.4-.08-.6.03.21.05.41.08.6zM952.25 389.54c0-.2-.06-.4-.1-.6.04.2.07.4.1.6zM952.56 391.33l-.06-.39zM950.13 370.44v-.27c-.01.09 0 .18 0 .27zM950.17 371.22a2.28 2.28 0 000 .26V371c-.01.08 0 .14 0 .22zM950.31 373.51v-.5zM950.42 375v-.55c-.03.16-.01.35 0 .55zM950.52 376.16v-.6c-.03.2-.01.44 0 .6zM950.1 369.72a2.09 2.09 0 000-.25 2.09 2.09 0 010 .25zM950 367.18zM950.08 369.05v-.18.18zM950 367.49zM950.05 367.88zM950.24 372.49v-.45c-.01.14-.01.3 0 .45zM950.82 379.15c0-.2-.05-.41-.07-.61.02.2.04.46.07.61zM950.65 377.52c0-.24 0-.47-.07-.71.02.24.05.47.07.71z"/>
        <path d="M964.84 350.25l-.13.16-1.59 1.94-.08.1q-1.59 1.91-3 3.57l-.1.12c-1 1.13-1.89 2.17-2.74 3.13l-1.23 1.37-.06.06-2.19 2.3-.92 1-1.47 1.52c-.8.82-1.24 1.24-1.24 1.24v2.65a2.09 2.09 0 010 .25V373.45c0 .3.05.6.07.92s0 .37 0 .55 0 .38.05.58 0 .4 0 .6l.06.65c0 .24 0 .47.07.71s.07.67.1 1c0 .2 0 .41.07.61s0 .51.08.77.05.42.07.63c0 .37.09.75.14 1.13 0 .19 0 .39.07.6.05.37.1.74.15 1.13 0 .2 0 .4.08.6l.15 1.05c0 .19.05.38.08.56.07.53.15 1.05.24 1.59 0 .15 0 .3.07.45.07.42.13.85.2 1.28 0 .2.07.4.1.6.08.46.16.93.25 1.4l.06.39c.11.59.22 1.2.34 1.81l.09.5c.1.48.19 1 .29 1.45 0 .18.07.37.11.55.13.65.26 1.3.41 1.95s.22 1 .33 1.54a178.25 178.25 0 009.15 29.12c.08.17.15.35.22.52.45 1.08.91 2.16 1.4 3.25l.12.28c.51 1.14 1 2.28 1.57 3.42l.07.16c.35.72.7 1.45 1.06 2.18l.34.69.76 1.51c.14.26.28.53.41.8l.76 1.43.42.79c.28.52.57 1 .86 1.56.11.22.23.43.35.64q1.25 2.22 2.58 4.44l.34.54c.34.56.68 1.12 1 1.68l.42.66 1 1.6c.14.21.27.42.41.62.39.6.8 1.2 1.2 1.79l.27.4c1 1.51 2.11 3 3.22 4.49l.22.29c.47.63 1 1.27 1.45 1.91.12.14.23.29.35.44l1.43 1.8.33.41c.54.66 1.09 1.33 1.65 2l.13.15q1.9 2.25 3.93 4.45 1 1.05 2 2.07l.25.26c.61.64 1.24 1.27 1.87 1.9l.24.23q4.31 4.28 9.17 8.31l.16.12c.77.64 1.55 1.27 2.34 1.9l.14.11q5.07 4 10.73 7.65l.11.07 2.77 1.75.12.07q5.84 3.57 12.32 6.75l.15.07q4.27 2.08 8.85 4l.22.1q4.62 1.89 9.54 3.59h.06c1.6.55 3.22 1.07 4.87 1.58l.45.14q4.88 1.5 10 2.78l.64.15c1.7.42 3.42.81 5.16 1.19l.45.09c1.67.36 3.36.69 5.07 1l.55.11q2.64.48 5.35.91l1 .14q5.46.84 11.23 1.44l1.14.12c1.87.18 3.76.35 5.68.49l.93.07c1.76.12 3.54.23 5.35.33l1 .05q2.94.13 6 .22h1.35c2 0 4.12.07 6.22.07h2a233.92 233.92 0 0051.52-5.67c1-.24 2-.47 2.94-.72h.08l2.85-.73h.11l2.78-.76h.11c.92-.26 1.84-.53 2.75-.81a151.6 151.6 0 0032.24-13.9 134.26 134.26 0 0012.9-8.21l.1-.07 2.18-1.67.12-.09q4.52-3.52 8.55-7.28c.64-.6 1.27-1.2 1.89-1.81l.25-.23c.55-.54 1.09-1.08 1.63-1.63l.29-.3c.54-.54 1.07-1.09 1.59-1.64a2.73 2.73 0 00.23-.25q2.75-2.89 5.23-5.88c.68-.82 1.35-1.65 2-2.48a1.84 1.84 0 00.17-.22q2-2.52 3.83-5.09l.16-.23q1.82-2.56 3.49-5.16a2.13 2.13 0 01.16-.25q1.65-2.58 3.15-5.18l.18-.31q1.49-2.58 2.83-5.16c.06-.12.12-.24.19-.36.44-.87.88-1.73 1.31-2.6.41-.84.81-1.67 1.2-2.51l.2-.42c.39-.85.78-1.7 1.16-2.55v-.05c.36-.82.71-1.64 1.06-2.45.06-.16.13-.31.19-.47.35-.84.7-1.67 1-2.51v-.07c.32-.81.62-1.61.93-2.4l.18-.49c.31-.83.61-1.65.9-2.47.34-1 .67-1.92 1-2.87 0-.1.07-.2.1-.3.31-.92.61-1.84.89-2.76 0-.13.09-.27.13-.4.28-.92.56-1.83.82-2.74l.08-.26c.27-.93.53-1.87.78-2.79.25-.93.49-1.84.72-2.75a3.38 3.38 0 00.08-.34c.23-.88.44-1.75.64-2.62 0-.11 0-.22.08-.33.21-.89.41-1.78.6-2.65.19-.89.38-1.77.55-2.65v-.2c.17-.84.33-1.67.48-2.5l.06-.33c.15-.82.3-1.63.43-2.44v-.2c.28-1.66.53-3.27.75-4.84v-.26q.16-1.12.3-2.22v-.27c.09-.74.18-1.48.26-2.2.08-.72.15-1.44.22-2.14v-.14c.07-.68.13-1.35.18-2v-.26c0-.65.1-1.29.15-1.91v-.16c.1-1.27.17-2.49.23-3.63a1.48 1.48 0 000-.21c0-.55.06-1.08.08-1.6v-.2-1.59-1.51-1.46-2.34-1.07-.88-.7-.53-.57a1.42 1.42 0 010-.19v-.1a81.63 81.63 0 01-9.54-8.08c-1.73 26.76-9.2 53-25 77.83-47.86 66.26-136.21 81-206.16 51.54-52-26-86.77-80.71-84.07-138.77-.26.67-.81 1.35-1.35 2.02z" fill="#bc8f86"/>
        <circle class="cls-9" cx="1137.33" cy="241.43" r="2.77"/>
        <path class="cls-15" d="M1005.27 278.21c.41.58.81 1.16 1.22 1.73 1.24 1.68 2.5 3.35 3.83 5 8-14 11.23-30 13.92-45.88q5.15-30.37 8.07-61.07c.16-1.64.3-3.31.42-5a136.93 136.93 0 01-52.93-35.29c-2.12 9.07-.46 23.81-.63 30.84a285.57 285.57 0 001.5 39.88 179 179 0 007.33 34.47 132.43 132.43 0 0016.3 34c.31.42.7.87.97 1.32z"/>
        <path class="cls-16" d="M1268.76 229.58q5.06-6.74 9.38-13.87-4.32 7.13-9.38 13.87zM965.6 5.05c-11.33 43.07 1.54 91.81 38.64 120.58 63.56 50.48 145.59 41.89 218.73 22.53 1.5 41.89-1.4 83.78-3 125.67 1.65-1 3.29-2 4.91-3.07l1.38-.91c23.73-29.06 39-63.14 35.11-102.11-8.52-83.32-109.83-86.16-176.11-106-14.2-3.78-28.4-14.2-31.24-28.4a73.49 73.49 0 01-.38-33.34h-84.57q-1.81 2.5-3.47 5.05zM962.08 10.77zM954.58 26.27A113.08 113.08 0 01960.84 13a113.08 113.08 0 00-6.26 13.27zM1250.49 65.53q-2.77-1.5-5.63-2.79 2.85 1.26 5.63 2.79zM1244.86 62.74c-1.89-.87-3.81-1.66-5.74-2.39 1.93.73 3.88 1.52 5.74 2.39zM1237.12 262c-.76.6-1.53 1.2-2.3 1.78l1.4-1.07zM1262.29 237.68c-.66.78-1.34 1.56-2 2.33l1.31-1.49z"/>
        <path class="cls-16" d="M1228.93 268c-.89.62-1.78 1.23-2.68 1.83.58-.38 1.15-.78 1.73-1.17zM1055.08 179.59l.69.15zM978.54 136.33c.3.33.59.66.9 1-.31-.33-.6-.67-.9-1zM1052 178.89l.45.11z"/>
        <path class="cls-15" d="M1032.73 173a163.18 163.18 0 0019.31 5.91l.45.11 2.59.59.69.15c1 .23 2.06.44 3.09.65a209.17 209.17 0 0038.26 3.84h4.7q4.62 0 9.15-.23a288.658 288.658 0 0022.53-1.87q4.34-.54 8.52-1.17t8.21-1.34c1.34-.23 2.66-.48 4-.72 3.92-.74 7.71-1.53 11.33-2.34l3.56-.82c3.51-.83 6.85-1.67 10-2.5 4.19-1.12 8-2.23 11.48-3.27 1.73-.53 3.35-1 4.87-1.52 9.1-2.92 14.38-5.08 14.38-5.08l7.85 111.8c.76-.44 1.51-.89 2.26-1.34 1.61-41.89 4.51-83.78 3-125.67-73.14 19.36-155.17 28-218.73-22.53-37.1-28.77-50-77.51-38.64-120.58-.4.62-.8 1.24-1.19 1.86-.8 1.27-1.57 2.56-2.32 3.85-.42.73-.83 1.46-1.24 2.2a113.08 113.08 0 00-6.26 13.3c-.26.66-.52 1.32-.76 2-.24.66-.48 1.33-.71 2-.23.66-.45 1.33-.66 2-.21.66-.42 1.32-.62 2v.06c-.19.66-.39 1.32-.57 2v.06c-.18.66-.36 1.31-.53 2v.09c-.17.65-.33 1.31-.48 2v.08c-.16.66-.3 1.32-.45 2v.09c-.14.66-.28 1.31-.4 2a.52.52 0 000 .11c-.13.65-.25 1.3-.36 2a.78.78 0 010 .14c-.11.64-.21 1.29-.31 1.93a.77.77 0 010 .15c-.09.64-.18 1.29-.26 1.93v.18c-.08.63-.15 1.27-.22 1.91v.2c-.06.63-.12 1.26-.17 1.89v.21c-.05.63-.09 1.26-.13 1.89v.23c0 .63-.07 1.25-.09 1.87v.25c0 .62 0 1.24-.05 1.86V65.96c0 .6 0 1.2.07 1.8v.35c0 .59.07 1.18.12 1.77v.38q.06.87.15 1.74v.41c.06.58.12 1.15.19 1.72l.06.44c.07.56.14 1.13.22 1.69 0 .15 0 .3.07.45.08.56.17 1.12.26 1.68l.09.49c.09.55.18 1.1.29 1.65 0 .17.07.34.1.51.11.54.21 1.08.33 1.62l.12.55c.12.53.23 1.06.36 1.59 0 .18.09.36.13.54.13.53.26 1.07.4 1.6l.15.56c.14.53.28 1 .43 1.57 0 .2.12.4.17.6.15.51.3 1 .46 1.54.07.21.14.42.2.64l.48 1.49c.08.23.16.45.23.67.17.49.33 1 .51 1.47.08.23.17.45.25.68.18.49.35 1 .54 1.45l.27.71c.19.47.37 1 .57 1.43.09.23.2.47.3.71.19.47.39.94.59 1.42l.33.74.62 1.38c.12.27.25.54.38.81.2.44.41.88.62 1.32l.4.81c.22.44.43.88.66 1.31.13.28.28.55.42.82l.68 1.3.48.86c.23.42.45.84.69 1.26s.33.58.5.86.47.84.72 1.25l.51.86.76 1.25.57.9c.25.4.5.8.76 1.2l.62.93c.25.39.51.78.77 1.17l.64.93.8 1.17c.21.3.43.59.65.89s.56.8.86 1.2l.69.92.86 1.15c.26.35.53.69.8 1l.82 1.05c.28.36.57.71.86 1.07l.81 1 .86 1 .87 1 .76.87c.34.4.68.79 1 1.18s.64.71.95 1.06.59.66.9 1l.36.38a136.93 136.93 0 0052.83 35.22z"/>
        <path d="M1054 33.29c2.84 14.2 17 24.62 31.24 28.4 66.28 19.89 167.59 22.73 176.11 106.05 3.85 39-11.38 73-35.11 102.11.9-.6 1.79-1.21 2.68-1.83l.22-.14 2.52-1.8.33-.24c.81-.58 1.61-1.18 2.4-1.78l.42-.32c.77-.58 1.54-1.18 2.3-1.78l.47-.37 2.23-1.8.5-.42c.73-.6 1.45-1.2 2.16-1.81.18-.15.36-.3.53-.46.71-.6 1.41-1.22 2.1-1.84l.54-.48c.69-.62 1.38-1.24 2.06-1.88l.52-.48c.68-.64 1.36-1.28 2-1.93l.5-.49 2-2 .48-.48c.67-.68 1.33-1.35 2-2l.43-.45c.67-.7 1.33-1.4 2-2.11l.37-.41c.67-.73 1.33-1.46 2-2.2l.28-.33c.68-.77 1.36-1.55 2-2.33l.15-.18c2.19-2.58 4.29-5.23 6.32-7.92q5.06-6.74 9.38-13.87c.08-.14.17-.28.26-.42.46-.77.91-1.55 1.36-2.32l.4-.69c.41-.72.81-1.44 1.21-2.17l.48-.86 1.11-2.08.5-1 1-2 .52-1c.32-.66.63-1.32.94-2l.53-1.13.87-1.94c.17-.4.35-.79.52-1.19l.81-1.91c.17-.41.34-.82.5-1.24.26-.62.51-1.25.75-1.88.16-.43.33-.86.49-1.28l.69-1.87.46-1.32c.22-.61.43-1.23.63-1.84a189.961 189.961 0 001.02-3.19c.14-.46.27-.92.41-1.37.17-.61.35-1.22.52-1.83s.25-.93.38-1.4.32-1.2.47-1.81.23-.94.34-1.42l.42-1.8.3-1.44c.13-.6.25-1.19.37-1.79s.18-1 .26-1.46.22-1.18.32-1.78.15-1 .22-1.47.19-1.18.27-1.77.12-1 .18-1.5.15-1.16.21-1.74.1-1.06.15-1.59c.09-1 .17-2 .23-2.94 0-.63.09-1.27.12-1.9s0-1 0-1.51 0-1.16.06-1.74v-1.53-1.72-1.52c0-.52 0-1.15-.06-1.72s-.06-1-.09-1.52-.07-1.14-.11-1.71-.09-1-.14-1.53-.1-1.13-.17-1.69-.12-1-.18-1.52-.15-1.13-.23-1.7-.16-1-.24-1.51-.18-1.12-.28-1.68-.19-1-.29-1.51-.22-1.12-.34-1.68-.23-1-.34-1.49-.27-1.12-.41-1.68-.25-1-.39-1.48-.3-1.11-.46-1.67-.29-1-.44-1.47-.35-1.1-.53-1.65-.33-1-.5-1.47-.39-1.1-.59-1.65l-.54-1.44-.66-1.65-.6-1.42c-.24-.55-.48-1.1-.73-1.64s-.42-.94-.65-1.41-.53-1.09-.8-1.63-.45-.93-.69-1.39-.58-1.09-.88-1.63l-.74-1.36c-.31-.55-.64-1.09-1-1.64s-.51-.88-.78-1.31-.71-1.12-1.07-1.68-.52-.83-.8-1.25c-.38-.58-.79-1.15-1.19-1.73l-.8-1.16c-.46-.64-.94-1.27-1.42-1.9-.23-.32-.46-.64-.7-1-.73-1-1.48-1.89-2.26-2.82q-2.37-2.85-4.83-5.4c-1.65-1.71-3.32-3.31-5-4.82s-3.43-2.92-5.19-4.25-3.55-2.57-5.36-3.73-3.64-2.24-5.5-3.25-3.73-1.93-5.63-2.79-3.81-1.66-5.74-2.39c-1-.37-1.94-.72-2.92-1.06-1.94-.67-3.91-1.28-5.89-1.84-4-1.12-8-2-12-2.77q-3-.55-6.09-1c-4.07-.6-8.17-1-12.28-1.42-2-.19-4.11-.35-6.16-.5-3.08-.22-6.16-.4-9.23-.57l-6.12-.32c-6.1-.32-12.14-.64-18.05-1.11-2-.16-3.93-.34-5.88-.54a129.12 129.12 0 01-25-4.75q-2.62-.82-5.16-1.8a61.68 61.68 0 01-24.83-17.13C1092 17 1087.51 8.37 1085.13 0h-31.49a73.49 73.49 0 00.36 33.29z" fill="#7c1e33"/>
        <path class="cls-13" d="M994.38 327.88c0 4.71 1 10.36 5.35 12.19 2.17.92 8.19 25.95 10.51 25.48 1.84-.38 3.59-2.61 5.22-5.76 4.22-8.13 7.68-22.36 10.23-26.52 3.48-5.69 15.4-7.12 19-7.64 2.41-.34 5 .49 7.54 1.92a14.82 14.82 0 012.2.35l-1 .39c5.25 3.28 10.47 8.7 14.52 11.54 16.94 11.91 43.94 11.27 64.44 8.36s29.12-3.37 40.26-20.83c4.19-6.55 11.19-7.65 17.65-7.15 4.87.37 9.13 3.3 12.93 6.37 8 6.44 16.12 16.94 21.68 28.58 1 2 1.88 4.12 2.68 6.22.34.9 1.12-6.49 2-6.17 2 .72 3.73-1.52 4.69-3.42 3.66-7.19 7.22-16.24 2.56-22.82a20.8 20.8 0 00-6.16-5.21 72.72 72.72 0 00-3.37-2 141.75 141.75 0 00-34.75-14.76c-6.63-1.8-13.84-3.08-20.23-.57-3.62 1.42-6.66 3.95-9.81 6.22a86.23 86.23 0 01-68.65 14c-2.91-.67-7-1.74-11.69-3-11.2-2.94-25.38-6.69-32.55-7.35-14.48-1.35-15.32 6.67-28.6.75a27.8 27.8 0 01-11.52-9.83c-1.48-2.18-2.31-6.16-4.32-7.94a3.33 3.33 0 00-2.58-.89c-8.44.71-8.23 24.01-8.23 29.49z"/>
        <path class="cls-18" d="M1190.2 337.43l-.24 1.07c-.22 1-.45 1.93-.69 2.87v.09c-7.39 28.39-25.15 38.25-25.15 38.25l20.66 5.58 6.56-49.43-1 1.19c-.09.14-.12.26-.14.38zM1044.47 338.45c-.08-.17-.14-.32-.21-.48s-.11-.24-.16-.35-.08-.17-.11-.25c-.64-.63-1.21-1.22-1.71-1.74-.81-.62-1.62-1.27-2.43-1.91l-.86.39 17.62 52.31 20.34-7.54c-16.53-7.88-28.51-31.66-32.48-40.43z"/>
        <path class="cls-9" d="M1190 338.5c-.22 1-.45 1.93-.69 2.87.2-.94.43-1.89.69-2.87zM1189.24 341.47c-18.2 23.81-44.62 40.3-77.48 35.51-27.4-3.65-50.4-18.76-67.29-38.53 4 8.77 16 32.52 32.48 40.43l-20.34 7.54s65.05 25.41 128.14-1.12l-20.66-5.58s17.76-9.86 25.15-38.25zM1190.28 337.06c0 .12 0 .24-.07.36.01-.11.04-.23.07-.36zM1044 337.37c0 .08.07.16.11.25-.05-.09-.11-.17-.11-.25z"/>
        <path class="cls-19" d="M1044.26 338c.07.16.13.31.21.48 16.89 19.77 39.89 34.88 67.29 38.53 32.86 4.79 59.28-11.7 77.48-35.51v-.09c.24-.94.47-1.9.69-2.87l.24-1.07c0-.12 0-.24.07-.36a79.53 79.53 0 01-12.61 11.46c-11 8.08-30 17.75-57.79 17.94h-.84c-27.34 0-47.38-9.11-59.42-16.79a95.1 95.1 0 01-15.58-12.35c0 .08.07.16.11.25s.09.23.15.38z"/>
        <path class="cls-12" d="M1048 327.61a24.56 24.56 0 00-12 5 18.08 18.08 0 00-4.39 4.83c2-.85 3.9-1.75 5.77-2.6l1.61-.72.86-.39.5-.22c-.5-.58-.77-.93-.82-1l2.65-2.05c0 .05.52.66 1.44 1.67q2.45-1 5-1.95c1.61-.61 3.26-1.2 5-1.88l1-.39a14.82 14.82 0 00-2.2-.35 20.12 20.12 0 00-4.42.05zM1195.16 330.7c-.05.08-.32.52-.81 1.22l.17.07a55.24 55.24 0 016.41 3.47c2.09 1.31 4.1 2.78 6.21 4.37a19 19 0 00-4.58-6.44 24.76 24.76 0 00-14.38-6.54 19.17 19.17 0 00-7.87.78c2.58.54 5 1.08 7.37 1.8 1.19.35 2.35.75 3.49 1.17.73-1 1.11-1.61 1.12-1.63z"/>
        <path class="cls-12" d="M1039.53 332.5c0 .07.32.42.82 1s1.1 1.26 1.93 2.13c.5.52 1.07 1.11 1.71 1.74a95.1 95.1 0 0015.59 12.32c12 7.68 32.08 16.79 59.42 16.79h.87c27.83-.19 46.79-9.86 57.79-17.94a79.53 79.53 0 0012.61-11.46l1-1.19c1.41-1.68 2.42-3 3-3.95.49-.7.76-1.14.81-1.22l-2.87-1.73s-.39.62-1.12 1.63a71.87 71.87 0 01-15.63 15.33c-10.59 7.74-28.85 17-55.69 17.19h-.77c-44.2 0-69.35-24.37-75.38-31-.92-1-1.41-1.62-1.44-1.67z"/>
        <path class="cls-19" d="M1216.18 685.59s5.18-18.32-.84-67.4l.45-.14c-4.92-8.29-18.81-28.25-52.23-38.37-16 6.31-35.78 10.46-49.51 14-28.69 7.37-42 17.13-39.77 25.5s90.59-10.36 98.61 5.29 15.52 45.06-23.17 46.59-70.72 3.74-70.72 3.74 22.13 5.18 41.6 11.2h95.11z"/>
        <path class="cls-9" d="M1057 552.21l-1 .45zM1052.78 554.19l-1 .47zM1079 674.8s32-2.23 70.72-3.76 31.18-30.95 23.17-46.59-96.37 3.09-98.61-5.29 11.08-18.13 39.77-25.5c13.73-3.52 33.46-7.67 49.51-14 17.5-6.89 30.62-16.35 26.77-30.38-7.39-26.91-58.68-20.65-114.58-4.12q-5 1.47-9.62 3.23c-3 1.13-5.95 2.36-8.8 3.64-28.59 23.79-45.37 61.89-37 100a67.31 67.31 0 0019.75 34h80.5C1101.12 680 1079 674.8 1079 674.8zM1031.27 567.06l1.09-.77-.38.26zM1010.55 584.44l-1.24 1.23zM1016.93 578.48c-1.48 1.31-2.9 2.62-4.26 3.91 1.33-1.29 2.78-2.6 4.26-3.91zM1020.92 575l-1 .83zM1005.82 589.26q-.6.63-1.17 1.26.57-.63 1.17-1.26zM1000.48 595.2q-1.62 1.89-3 3.57 1.38-1.68 3-3.57zM1023.09 573.26l-1 .83zM995.66 601.1c.54-.7 1.12-1.44 1.75-2.22-.62.78-1.22 1.52-1.75 2.21zM1004.41 590.77c-.39.44-.78.86-1.17 1.29.38-.43.76-.86 1.17-1.29zM1007.32 587.69l-1.19 1.24zM1018.86 576.79l-1 .85zM1012.28 582.76L1011 584zM1007.69 587.31l1.2-1.23zM1025.33 571.48l-1.07.84zM1044.19 558.78l-.82.46zM1040 561.29l-1 .6zM1000.72 594.92l1.14-1.31c-.26.29-.52.58-.76.87zM1048.16 556.57l-1 .54zM1036.15 563.72l-.6.4c.19-.12.45-.26.6-.4zM1003.09 592.23c-.41.45-.8.89-1.18 1.33.38-.44.78-.88 1.18-1.33zM1030 567.94c-.4.29-.79.57-1.17.86.42-.29.81-.57 1.17-.86zM1027.65 569.71l-1.12.85z"/>
        <path class="cls-10" d="M1020.34 652.05c-8.39-38.11 8.39-76.21 37-100l-.39.18-1 .45c-1.09.5-2.16 1-3.22 1.53l-1 .47c-1.24.62-2.46 1.26-3.67 1.91l-1 .54c-1 .55-2 1.1-3 1.67l-.82.46c-1.16.68-2.29 1.36-3.41 2l-1 .6c-1 .61-1.92 1.22-2.86 1.83-.2.14-.41.26-.6.4-1.09.72-2.15 1.44-3.19 2.17l-1.09.77-1.23.88c-.4.29-.79.57-1.17.86s-.82.6-1.22.91l-1.12.85-1.2.92-1.07.84-1.17.94-1 .83-1.14.95-1 .83-1.07.92-1 .85-1 .84c-1.48 1.31-2.9 2.62-4.26 3.91l-.39.37L1011 584l-.44.44-1.24 1.23-.42.41-1.2 1.23-.37.38-1.19 1.24-.31.33q-.6.63-1.17 1.26l-.24.25c-.39.43-.79.86-1.17 1.29l-.15.17c-.4.45-.8.89-1.18 1.33v.05l-1.14 1.31-.24.28q-1.62 1.89-3 3.57l-.1.12c-.63.78-1.21 1.52-1.75 2.22-11.31 60.1 8.12 84.48 8.12 84.48l.76.41h35.55a67.31 67.31 0 01-19.78-33.95z"/>
        <path class="cls-19" d="M1003.78 685.59s-19.43-24.38-8.12-84.48l-34.45-4.92s-.3 1.52-.79 4.24c-2.29 12.83-8.52 52.24-5.49 85.38v.16h47.19z"/>
        <path class="cls-9" d="M1265.1 685.1l-9-75.85-.43-3.57-39.89 12.37-.45.14c6 49.08.84 67.4.84 67.4l4.24.41h44.79z"/>
        <path class="cls-20" d="M60.52 598c0-11.19 41.58-21.12 105.64-27.28h-10.77c-77.74 6.88-128.83 18.52-128.83 31.72 0 6.7 13.16 13 36.3 18.48l26.07-7.49c-18.16-4.66-28.41-9.9-28.41-15.43zM577.79 598c0 4.15-5.72 8.13-16.18 11.8l26.71 7.67c15.08-4.61 23.43-9.69 23.43-15 0-13.2-51.1-24.84-128.84-31.72h-10.77c64.06 6.1 105.65 16.03 105.65 27.25zM319.15 631.8c-33.27 0-65.07-.82-94.29-2.32l-10.78 8.66c32.61 1.64 68 2.54 105.07 2.54 46.44 0 90.36-1.41 129.36-3.93l-10.93-8.7c-35.48 2.4-75.75 3.75-118.43 3.75z"/>
        <path class="cls-21" d="M437.58 628.05l10.93 8.7c62.45-4 112.32-10.9 139.81-19.31l-26.71-7.67c-22.55 7.92-67.15 14.44-124.03 18.28zM224.86 629.48c-58.89-3-107.26-8.78-135.93-16.08l-26.07 7.49c33.11 7.84 86.64 14 151.22 17.25z"/>
        <path class="cls-22" d="M90.27 594.08c0-9.46 33.57-17.9 86-23.39h-10.11C102.1 576.85 60.52 586.78 60.52 598c0 5.56 10.25 10.8 28.41 15.43l23-6.6c-13.93-3.89-21.66-8.2-21.66-12.75zM548 594.08c0 3.09-3.57 6.06-10.21 8.86l23.79 6.83c10.46-3.67 16.18-7.65 16.18-11.8 0-11.19-41.59-21.12-105.65-27.28h-10.06c52.41 5.49 85.95 13.93 85.95 23.39zM437.58 628.05l-9.58-7.63c-32.37 2.29-69.44 3.6-108.84 3.6-30 0-58.6-.76-84.84-2.13l-9.45 7.59c29.22 1.5 61 2.32 94.29 2.32 42.67 0 82.94-1.35 118.42-3.75z"/>
        <path class="cls-23" d="M428 620.42l9.59 7.63c56.88-3.84 101.48-10.36 124-18.28l-23.79-6.83c-17.8 7.53-57.71 13.79-109.8 17.48zM111.92 606.8l-23 6.6c28.67 7.3 77 13.06 135.93 16.08l9.45-7.59c-53.95-2.82-97.78-8.24-122.38-15.09z"/>
        <path class="cls-24" d="M90.27 594.08c0 4.55 7.76 8.86 21.65 12.72l19.62-5.63c-10.34-3.19-16.06-6.7-16.06-10.39 0-8 27.07-15.2 69.9-20.09h-9.13c-52.41 5.49-85.98 13.93-85.98 23.39zM522.82 590.78c0 2.15-2 4.24-5.62 6.24l20.62 5.92c6.64-2.8 10.21-5.77 10.21-8.86 0-9.46-33.57-17.9-86-23.39h-9.13c42.85 4.89 69.92 12.08 69.92 20.09zM319.15 617.42c-27.19 0-53.13-.7-76.84-2l-8 6.43c26.24 1.37 54.86 2.13 84.84 2.13 39.4 0 76.47-1.31 108.84-3.6l-8.15-6.48c-29.69 2.26-64.06 3.52-100.69 3.52z"/>
        <path class="cls-25" d="M517.2 597c-13.29 7.24-49.17 13.33-97.36 16.92l8.15 6.48c52.1-3.69 92-9.95 109.83-17.48zM131.54 601.17l-19.62 5.63c24.6 6.85 68.43 12.27 122.39 15.09l8-6.43c-49.82-2.66-89.8-7.82-110.77-14.29z"/>
        <path class="cls-26" d="M115.48 590.78c0 3.69 5.72 7.2 16.06 10.39l106.14-30.48h-52.3c-42.83 4.89-69.9 12.08-69.9 20.09zM522.82 590.78c0-8-27.07-15.2-69.9-20.09H425.5L517.2 597c3.67-2 5.62-4.07 5.62-6.22zM319.15 617.42c36.63 0 71-1.26 100.69-3.48l-54.36-43.25H298l-55.72 44.77c23.72 1.26 49.72 1.96 76.87 1.96z"/>
        <path class="cls-27" d="M517.2 597l-91.7-26.33h-60l54.36 43.25c48.14-3.57 84.05-9.66 97.34-16.92zM242.31 615.46L298 570.69h-60.32l-106.14 30.48c20.97 6.47 60.95 11.63 110.77 14.29z"/>
        <ellipse cx="324.29" cy="597.77" rx="74.48" ry="9.03" style="mix-blend-mode:multiply" fill="#dadada"/>
      </g>
    </g>
  </g>
</svg>
