<svg xmlns="http://www.w3.org/2000/svg" viewBox="0 0 585.19 69.99">
  <defs>
    <style>
      .cls-1,.cls-3,.cls-5,.cls-7{fill:#92ba24}.cls-1,.cls-2{opacity:.1}.cls-2,.cls-4,.cls-6,.cls-8{fill:#7ea004}.cls-3,.cls-4{opacity:.35}.cls-5,.cls-6{opacity:.7}
    </style>
  </defs>
  <g id="Layer_2" data-name="Layer 2">
    <g id="character">
      <path class="cls-1" d="M34 27.28C34 16.08 75.54 6.16 139.6 0h-10.77C51.1 6.88 0 18.52 0 31.72c0 6.7 13.17 13 36.3 18.48l26.08-7.49C44.21 38.08 34 32.84 34 27.28zM551.23 27.28c0 4.15-5.72 8.13-16.18 11.8l26.71 7.67c15.08-4.62 23.43-9.7 23.43-15 0-13.2-51.1-24.84-128.83-31.72h-10.77c64.06 6.13 105.64 16.05 105.64 27.25zM292.6 61.11c-33.28 0-65.08-.83-94.29-2.32l-10.78 8.66c32.61 1.64 68 2.54 105.07 2.54C339 70 383 68.57 422 66.06l-11-8.7c-35.46 2.39-75.72 3.75-118.4 3.75z"/>
      <path class="cls-2" d="M411 57.36l11 8.7c62.46-4 112.32-10.9 139.81-19.31l-26.71-7.67C512.5 47 467.91 53.52 411 57.36zM198.31 58.79C139.41 55.77 91 50 62.38 42.71L36.3 50.2c33.11 7.8 86.7 14 151.23 17.25z"/>
      <path class="cls-3" d="M63.72 23.39c0-9.47 33.56-17.9 86-23.39H139.6C75.54 6.16 34 16.08 34 27.28c0 5.56 10.25 10.8 28.42 15.43l23-6.6c-13.94-3.86-21.7-8.17-21.7-12.72zM521.47 23.39c0 3.08-3.57 6.06-10.2 8.86l23.78 6.83c10.46-3.67 16.18-7.65 16.18-11.8 0-11.2-41.58-21.12-105.64-27.28H435.5c52.41 5.49 85.97 13.92 85.97 23.39zM411 57.36l-9.59-7.63C369.06 52 332 53.32 292.6 53.32c-30 0-58.61-.75-84.85-2.12l-9.44 7.59c29.21 1.49 61 2.32 94.29 2.32 42.68 0 82.94-1.36 118.4-3.75z"/>
      <path class="cls-4" d="M401.43 49.73l9.57 7.63C467.89 53.52 512.48 47 535 39.08l-23.78-6.83C493.45 39.78 453.53 46 401.43 49.73zM85.36 36.11l-23 6.6C91 50 139.41 55.77 198.31 58.79l9.44-7.59C153.8 48.38 110 43 85.36 36.11z"/>
      <path class="cls-5" d="M63.72 23.39c0 4.55 7.76 8.86 21.64 12.72L105 30.48c-10.34-3.2-16.06-6.71-16.06-10.39 0-8 27.07-15.21 69.91-20.09h-9.14C97.28 5.49 63.72 13.92 63.72 23.39zM496.27 20.09c0 2.15-1.95 4.24-5.63 6.24l20.63 5.92c6.63-2.8 10.2-5.78 10.2-8.86 0-9.47-33.56-17.9-86-23.39h-9.14c42.87 4.88 69.94 12.07 69.94 20.09zM292.6 46.73c-27.19 0-53.13-.7-76.84-2l-8 6.43c26.24 1.37 54.87 2.12 84.85 2.12 39.39 0 76.46-1.3 108.83-3.59l-8.14-6.48c-29.71 2.25-64.08 3.52-100.7 3.52z"/>
      <path class="cls-6" d="M490.64 26.33c-13.28 7.24-49.17 13.33-97.35 16.92l8.14 6.48c52.1-3.69 92-9.95 109.84-17.48zM105 30.48l-19.64 5.63C110 43 153.8 48.38 207.75 51.2l8-6.43C165.93 42.11 126 37 105 30.48z"/>
      <path class="cls-7" d="M88.92 20.09c0 3.68 5.72 7.19 16.06 10.39L211.13 0h-52.3C116 4.88 88.92 12.07 88.92 20.09zM496.27 20.09c0-8-27.07-15.21-69.91-20.09h-27.42l91.7 26.33c3.68-2 5.63-4.09 5.63-6.24zM292.6 46.73c36.62 0 71-1.27 100.69-3.48L338.92 0h-67.45l-55.71 44.77c23.71 1.23 49.65 1.96 76.84 1.96z"/>
      <path class="cls-8" d="M490.64 26.33L398.94 0h-60l54.37 43.25c48.16-3.59 84.05-9.68 97.33-16.92zM215.76 44.77L271.47 0h-60.34L105 30.48c21 6.52 60.93 11.63 110.76 14.29z"/>
    </g>
  </g>
</svg>
