<svg xmlns="http://www.w3.org/2000/svg" viewBox="0 0 802.52 1033.84">
  <defs>
    <style>
      .cls-1{fill:#f39200}.cls-2{fill:#b66e00}.cls-5{fill:#f7c0b4}.cls-6{fill:#fff}.cls-7{fill:#ededed}.cls-8{fill:#3d2612}.cls-9{fill:#af7871}.cls-10{fill:#cb9f94}.cls-17{fill:#dadada}
    </style>
  </defs>
  <g id="Layer_2" data-name="Layer 2">
    <g id="character">
      <path class="cls-1" d="M302.19 862.65s-72.64 39.2-111.08 122.59l112.9 13s31.72-68.31 104.23-54.58 77.59 90.21 77.59 90.21l132.65-6.73s-27.88-109-48.86-165-162.1-70.48-267.43.51z"/>
      <path class="cls-2" d="M463.15 950.41C419 906.23 334.3 921 293.8 979.86c-3.71 5.57-11.19 11.14-20.51 14.82l30.71 3.53s31.72-68.31 104.23-54.58 77.59 90.21 77.59 90.21l31.81-1.61c-23.1-21.33-29-59.18-54.48-81.82z"/>
      <path d="M312.38 441.5L169 589.56s41.39 94.69 90 175 43.18 98.1 43.18 98.1S443.2 964 578.55 856c0 0-7.61-19.23 6-63.06s82.72-198.84 82.72-198.84L537.94 462.27z" fill="#fed406"/>
      <path class="cls-1" d="M360.07 626.44C400.57 670.61 474.2 659.57 511 608c26-39.75 39.9-81.41 48.36-123.91l-21.43-21.85-225.55-20.74-35.91 37.08C300.74 532 317 586.69 360.07 626.44z"/>
      <circle class="cls-1" cx="431.18" cy="715.02" r="41.38"/>
      <circle class="cls-1" cx="296.39" cy="643.89" r="23.11"/>
      <path d="M667.22 594.08l-1-1L654.37 581a459.73 459.73 0 01-27.24 48.41c-84.66 128.38-211.5 274.89-369.75 65.39a633.45 633.45 0 01-37.74-56A663.74 663.74 0 01185.1 573L169 589.56s41.39 94.69 90 175 43.18 98.1 43.18 98.1S443.2 964 578.55 856c0 0-7.61-19.23 6-63.06s82.67-198.86 82.67-198.86z" fill="#ddb300"/>
      <path class="cls-1" d="M510.62 664.43l27.88-36.24 29.74 30.31-57.62 5.93zM423.92 329.2c-116.33 0-243.87 11.47-342.85 106.42-101.56 97.43-93.55 201.17-52.51 247.2 84.58 94.87 251 80.9 304 55.27s27.77-39.5-55.21-59.35c-103.6-24.77-149-40.38-78.06-120"/>
      <path class="cls-2" d="M277.34 678.74c-14-3.35-22.81-5.42-34.56-8.62-8.34 8.91-16.32 17.42-27.07 24.73-41.66 28.41-96.26 25.18-137-1.33-26.51-18-44.5-44.5-48.29-74.8-7.57-66.28 16.1-128.77 63.44-177 44.2-46.28 98.49-76.42 156.6-96-60.41 14.49-118.67 41.22-169.42 89.91-101.56 97.43-93.55 201.17-52.51 247.2 84.58 94.87 251 80.9 304 55.27s27.79-39.51-55.19-59.36z"/>
      <path class="cls-1" d="M402.26 329.2c116.33 0 234 21.25 330.73 127.66 94.65 104.14 79.16 208.86 33.12 249.88-86.84 77.34-219.52 57-272.48 31.35s-28.26-41.68 55.21-59.35c100.2-21.2 153.85-35.4 78.06-120"/>
      <path class="cls-2" d="M733 456.86c-44.51-49-93.46-79.89-144.68-99 37.7 23.81 78.32 49.37 107.44 84.31 99.41 119.3 79.8 214.93 51.12 249.47-27.77 33.46-85.21 46.29-117.4 40.61-30.22-5.55-61.23-25.77-80.63-53.49-3.77.82 3.93-.83 0 0-83.47 17.67-108.17 33.71-55.21 59.35s185.64 46 272.48-31.35C812.15 665.72 827.64 561 733 456.86z"/>
      <path class="cls-5" d="M271.8 313.32c-8.5-.66-17.45 1.13-24.27 6.73s-11 15.46-9 24.52c2.59 11.48 13.64 18 24.05 21.23 8.66 2.65 18 3.92 26.59.95 33.38-11.54 6.64-51.57-17.37-53.43zM527.76 311.39c9.37-3.16 20.35-4.21 28.61 1.23 9.07 6 12.14 18.05 11.4 28.89a34.74 34.74 0 01-3.83 14.55c-3.52 6.36-9.69 10.86-16.22 14.05-10.51 5.14-23.15 7.28-33.91 2.67-32.07-13.73-9.54-53.46 13.95-61.39z"/>
      <path class="cls-5" d="M383.78 175c110.85 0 137.66 60.28 127.38 165.82 0 0 21.75 57.66 64.38 96 0 0 9.43 157.05-160.09 157.05S236.29 437.41 236.29 437.41s47.3-46 55.27-93.31S282.74 175 383.78 175z"/>
      <path class="cls-6" d="M342 301.54l67 7.24 63.44-3.56s5 46.61-30.87 46.81-32.58-37-32.58-37 6.42 35.48-34.42 34.41-32.57-47.9-32.57-47.9z"/>
      <path class="cls-7" d="M472.38 305.22l-11.53.65c4.44 10.39-.55 24-11 28.81-20 10-39.11-6.18-40.61-25.92h-.46c-2.45 15.14-10.94 28.94-27.1 32.53-14.2 2.84-28.41-4.73-31.25-18.93-.73-6.63.84-14.4 5.59-19.31L342 301.54s-8.31 46.8 32.53 47.87c28.26.74 33.89-16 34.68-26.42a43.32 43.32 0 01-.26-8 34.72 34.72 0 01.26 8c1.28 10.92 7.19 29.17 32.32 29 35.83-.16 30.85-46.77 30.85-46.77z"/>
      <path class="cls-8" d="M334.82 281.49l-3.49 20.1 77.19 10.14 72.61-7.14-4.63-28.68-67.98 30.98-73.7-25.4z"/>
      <path class="cls-9" d="M406.84 335a88 88 0 01-23.69 28.55c-1.22 1-2.49 1.91-3.76 2.85s-2.6 1.8-3.83 2.63a30.87 30.87 0 00-6.32 5.21 7.55 7.55 0 00-2 5.77 10.89 10.89 0 002.88 6 19.18 19.18 0 006.2 4.42 42.58 42.58 0 008 2.73c2.83.71 5.8 1.31 8.67 1.84a62.25 62.25 0 008.63.9 32 32 0 008.37-.83 24.88 24.88 0 007.71-3.39c2.49-1.57 4.91-3.47 7.54-5.16a35.83 35.83 0 014.09-2.32 20 20 0 014.43-1.46c-5.6 2.73-9.09 7.66-13.88 11.84a32.3 32.3 0 01-3.93 2.92 27.11 27.11 0 01-4.5 2.19 34 34 0 01-9.68 2 56.44 56.44 0 01-9.66-.26c-3.18-.34-6.22-.84-9.35-1.47a46.28 46.28 0 01-9.45-2.93 26.13 26.13 0 01-8.65-6.13 17.92 17.92 0 01-4.66-10.37 13.74 13.74 0 01.94-6 15.52 15.52 0 013.13-4.91 34.09 34.09 0 018.07-6.06l3.89-2.3c1.27-.77 2.54-1.55 3.77-2.38A134.32 134.32 0 00406.84 335zM248.87 342.77a17.17 17.17 0 017.76-7.7 19.09 19.09 0 0111.18-1.9 19.48 19.48 0 0110.29 4.71 18 18 0 013.59 4.31c1 1.63 1.47 3.32 2.26 4.93-1.45-1.13-2.45-2.7-3.69-3.83a23.12 23.12 0 00-3.91-3.11 22.5 22.5 0 00-9-3.37 21.54 21.54 0 00-9.56.92 26.33 26.33 0 00-8.92 5.04zM519.9 353.14a14 14 0 012.38-10.52 18.22 18.22 0 018.94-6.71 24.24 24.24 0 0110.94-1.36 17.83 17.83 0 015.33 1.53 12.94 12.94 0 014.28 3.34 19.62 19.62 0 00-9.75-2.17 31.55 31.55 0 00-9.62 1.89 20 20 0 00-8 5.14 18.48 18.48 0 00-4.5 8.86z"/>
      <circle class="cls-8" cx="394.16" cy="319.97" r="10.49"/>
      <circle class="cls-6" cx="394.16" cy="312.14" r="2.66"/>
      <circle class="cls-8" cx="423.92" cy="319.97" r="10.49"/>
      <path class="cls-10" d="M577.86 436.48s-57-38.46-57-132.23c0-4.77-.1-9.35-.27-13.82-17.21 56.67 13.25 173.43-42.25 183.43C297.45 506.44 284 420.59 294.2 341c-14.58 55.07-57.58 96.62-57.58 96.62S235 593.87 411.68 593.87s166.18-157.39 166.18-157.39z"/>
      <path d="M577.86 436.48a81.51 81.51 0 01-9.54-8.09c-1.73 26.77-9.2 53-25 77.84-47.86 66.27-136.22 81-206.17 51.54-52-26-86.76-80.7-84.06-138.76a208.91 208.91 0 01-16.46 18.63S235 593.87 411.68 593.87s166.18-157.39 166.18-157.39z" fill="#bc8f86"/>
      <circle class="cls-6" cx="423.92" cy="312.25" r="2.77"/>
      <path d="M267.25 279.23c3.19 27.54 12.05 55.08 29.66 76.49 8-14 11.23-30 13.91-45.88q5.16-30.37 8.08-61.07c1.1-11.61 1.74-24.21-4.62-34-6.57-10.1-36.64-24.33-45.81-11.4-5.06 7.12-2.5 27.35-2.71 36a285.42 285.42 0 001.49 39.86z" fill="#3f0a0a"/>
      <path d="M504.29 346l-7.85-111.8S346.31 295.42 266 208.13 267.51 10.81 394.16 0c0 0-49.54 48.91-8.08 96.36s126.37.46 176.92 61.44 7.4 149.86-58.71 188.2z" fill="#5a1111"/>
      <path d="M509.56 219c-73.15 19.36-155.17 27.95-218.73-22.53-37.1-28.77-50-77.51-38.65-120.57C226.25 115.55 226 164.66 266 208.13c80.29 87.29 230.42 26.07 230.42 26.07l7.87 111.8c.76-.43 1.51-.89 2.26-1.34 1.6-41.9 4.51-83.8 3.01-125.66z" opacity=".5" fill="#3f0a0a"/>
      <path d="M563 157.8c-50.54-61-135.45-14-176.91-61.44S394.16 0 394.16 0q-2.75.24-5.47.53c-31 25.28-58 63-48.1 103.57 2.84 14.21 17 24.62 31.25 28.41 66.27 19.88 167.58 22.72 176.1 106 3.85 39-11.37 73.05-35.11 102.12C574 299.92 611.32 216.1 563 157.8z" fill="#7c1e33"/>
      <path class="cls-10" d="M307.62 387.91c13.28 5.92 14.12-2.09 28.59-.75 10.15.94 34.31 8 44.24 10.31a86.18 86.18 0 0068.66-14c3.15-2.28 6.19-4.8 9.8-6.22 6.4-2.52 13.61-1.23 20.24.57a141.55 141.55 0 0138.24 16.77 20.68 20.68 0 016.16 5.21c4.67 6.59 1.1 15.63-2.55 22.83-1 1.9-2.69 4.13-4.7 3.42-.91-.33-1.68 7.07-2 6.17-5.36-14.07-14.94-27.23-24.35-34.81-3.8-3.06-8.07-6-12.93-6.37-6.46-.5-13.47.61-17.65 7.16-11.17 17.43-19.79 17.9-40.29 20.8s-47.5 3.55-64.44-8.36c-6.36-4.47-15.61-15.29-23.31-14.2-3.65.51-15.57 1.94-19.06 7.64s-8.82 30.92-15.45 32.27c-2.31.47-8.33-24.56-10.51-25.47-4.34-1.83-5.34-7.48-5.35-12.2 0-5.48-.21-28.78 8.24-29.43 4.09-.32 4.91 5.89 6.9 8.82a27.8 27.8 0 0011.52 9.84z"/>
      <path d="M325.09 403.48l18.1 53.75 128.15-1.11 7-52.64s-63.03 72.71-153.25 0z" fill="#72030a"/>
      <path class="cls-6" d="M329.63 406s13.49 34 33.91 43.73l-20.35 7.53s65.05 25.41 128.15-1.11l-20.66-5.59s21-11.62 26.82-46c0 0-23.71 34.32-71.05 31.09S345.11 420 329.63 406z"/>
      <path class="cls-17" d="M398.35 447.8c32.86 4.79 59.28-11.7 77.48-35.52.64-2.45 1.21-5 1.67-7.76 0 0-23.71 34.32-71.05 31.09S345.11 420 329.63 406c0 0 .5 1.23 1.43 3.3 16.94 19.7 39.88 34.84 67.29 38.5z"/>
      <path class="cls-9" d="M318.2 408.24a18.07 18.07 0 014.39-4.83 24.71 24.71 0 0112-5 18.13 18.13 0 016.52.3c-2 .85-4 1.54-5.9 2.27s-3.79 1.45-5.65 2.22-3.7 1.58-5.56 2.44-3.76 1.76-5.8 2.6zM466.89 398.45a19.06 19.06 0 017.88-.78 24.52 24.52 0 017.72 2.09 24.25 24.25 0 016.65 4.44 18.84 18.84 0 014.58 6.45c-2.11-1.59-4.11-3.07-6.2-4.37a51.77 51.77 0 00-6.42-3.47 53.27 53.27 0 00-6.83-2.57c-2.36-.71-4.79-1.24-7.38-1.79z"/>
      <path d="M327.44 402.29s26 33.7 79 33.32 73.86-35 73.86-35" fill="none" stroke="#af7871" stroke-miterlimit="10" stroke-width="3.35"/>
      <path class="cls-17" d="M504.65 692.62c-1 .27-15.31-39.71-78.85-47.08s-85.8 33.06-86.69 66.08 27.14 66 61.52 72.46c71.93 13.51 112.83-38.47 112.83-38.47z"/>
      <path class="cls-6" d="M277.34 678.74s29.08-46.21 85-62.74 107.19-22.79 114.58 4.11-47.58 37-76.27 44.37-42 17.12-39.77 25.5 90.59-10.37 98.6 5.28 15.53 45.07-23.16 46.6-70.72 3.75-70.72 3.75 49.52 11.6 65.6 20.26 3 43-19.27 42.26-100.23-39.3-131.13-57.07-10.8-64.79-3.46-72.32z"/>
      <path class="cls-7" d="M365.62 777.78c-28.4-7.57-52.07-26.51-58.7-54.91-8.39-38.12 8.4-76.24 37-100-43.88 19.8-66.6 55.9-66.6 55.9-7.33 7.53-27.44 54.54 3.46 72.32s108.81 56.29 131.11 57.07c19.65.68 32.1-25.92 23.79-38.18-19.6 13.81-46.25 14.37-70.06 7.8z"/>
      <path class="cls-17" d="M282.25 671.92L247.8 667s-12 59.77-4.76 101.33l47.32-11.92s-19.43-24.41-8.11-84.49z"/>
      <path class="cls-6" d="M501.92 689l40.35-12.51 10.05 84.72-49.55-4.82s5.23-18.3-.85-67.39z"/>
    </g>
  </g>
</svg>
