<svg xmlns="http://www.w3.org/2000/svg" viewBox="0 0 313.49 291.96">
  <defs>
    <clipPath id="clip-path" transform="translate(57.43 51.71)">
      <circle cx="102.06" cy="102.06" r="102.04" fill="none"/>
    </clipPath>
    <style>
      .cls-5{fill:none}.cls-4{fill:#1d1d1b}.cls-5{stroke:#1d1d1b;stroke-miterlimit:10;stroke-width:1.11px}
    </style>
  </defs>
  <g id="Layer_2" data-name="Layer 2">
    <g id="ball">
      <circle cx="159.49" cy="153.77" r="102.04" fill="#e1e3e2"/>
      <circle cx="152.52" cy="126.17" r="73.57" fill="#fff"/>
      <path class="cls-4" d="M101.16 59.07S76.75 70.3 57.7 89.61c0 0 2.1 26.57 14.27 47.47a126.2 126.2 0 0051.6 2.77s15-26.11 18.68-47.81c0-.04-25.17-23.28-41.09-32.97z" transform="translate(57.43 51.71)"/>
      <path class="cls-5" d="M159.49 153.77l-92.83-27.28M159.49 153.77l-63.43 73.07M159.49 153.77l50.61 82.46M159.57 153.85l93.73-23.98M159.49 153.77l-2.74-96.71"/>
      <g clip-path="url(#clip-path)">
        <path class="cls-4" d="M136.23 159.42s-13.76 23.07-18.53 49.78c0 0 16.78 20.71 38.64 31.05a126.15 126.15 0 0044.09-26.94s-2.4-30-11.66-50c0 .01-33.93-4.92-52.54-3.89zM172.85 84s18.19 19.77 42.43 32c0 0 24.64-10.18 40.78-28.18a126.11 126.11 0 00-13.24-50.02s-29.46-6.26-51.24-3.07c0 0-14.4 31.1-18.73 49.27zM99.51 30.41s24-12.09 42.33-32.08c0 0-3.06-26.48-16-46.93a126.09 126.09 0 00-51.66-.9S60.14-22.87 57.26-1c0 0 25.99 22.3 42.25 31.41zM25.37 80.09s-.1-26.86-9.78-52.21c0 0-25-9.1-49.11-6.7A126.22 126.22 0 00-57.43 67s17.53 24.49 35.76 36.83c0-.01 31.61-13.27 47.04-23.74zM62.39 211.81s-.1-26.87-9.78-52.21c0 0-25-9.1-49.11-6.7a126.22 126.22 0 00-23.91 45.81s17.53 24.49 35.76 36.82c0 0 31.65-13.25 47.04-23.72z" transform="translate(57.43 51.71)"/>
      </g>
    </g>
  </g>
</svg>
