<svg xmlns="http://www.w3.org/2000/svg" viewBox="0 0 333.58 349.31">
  <defs>
    <style>
      .cls-5{fill:#1d1d1b}
    </style>
  </defs>
  <g style="isolation:isolate">
    <g id="Layer_2" data-name="Layer 2">
      <g id="bomb">
        <path fill="#f39200" d="M138.21 29.73l-32.04 20.61L100.62 0 89.27 49.48 51.23.27l24.78 54.67-40.99-18.27 32.77 28.94L0 78.89l63.59 4.17-30.43 34.95L77 93.34l8.54 37.14 11.76-43.6 22.1 17.92-13.87-36.63 32.68-38.44z"/>
        <path fill="#ffde00" d="M80.63 85.11l-22.92 12.9 17.08-19.62-33.13-2.17 37.88-7.42-14.6-12.9 21.84 9.74-11.59-25.56 16.78 21.71 6.79-29.56 3.01 27.34 8.82-5.67-11.22 13.2 7.93 20.95-13.04-10.57-8.3 30.78-5.33-23.15z"/>
        <path transform="rotate(-27 164.215 130.263)" fill="#3c3c3b" d="M132.34 98.37h63.78v63.78h-63.78z"/>
        <path class="cls-5" transform="rotate(-27 164.215 130.263)" d="M132.34 98.37h63.78v63.78h-63.78z"/>
        <path d="M144.43 104.56l11.21-5.71c-2.55-5.38-20.36-38.06-63.14-34.62a5.59 5.59 0 00-5.17 4.9A5.52 5.52 0 0093 75.25c36.7-.93 49.74 25.48 51.43 29.31z" fill="#1a1c22"/>
        <circle class="cls-5" cx="215.85" cy="231.58" r="117.74"/>
        <ellipse cx="177.03" cy="165.44" rx="43.43" ry="33.59" transform="rotate(-28.12 177.038 165.444)" fill="#232323"/>
        <path d="M304.47 154.12A117.72 117.72 0 01112 287a117.73 117.73 0 10192.47-132.88z" style="mix-blend-mode:multiply" fill="#3c3c3b"/>
      </g>
    </g>
  </g>
</svg>
