<svg xmlns="http://www.w3.org/2000/svg" viewBox="0 0 1553 686">
  <defs>
    <style>
      .cls-2{fill:none}.cls-5{fill:#63723a}.cls-6{fill:#586439}.cls-8{fill:#cb9f94}.cls-9{fill:#474532}.cls-10{fill:#be1622}.cls-11{fill:#8f101a}.cls-12{fill:#48a}.cls-13{fill:#59a3c1}.cls-16{fill:#f7c0b4}.cls-18{fill:#353426}.cls-20{fill:#7e8c51}.cls-21{fill:#dadada}.cls-22{fill:#647040}.cls-23{fill:#545e2d}.cls-24{fill:#b4c17c}.cls-25{fill:#7b6a58}.cls-26{fill:#c6c6c6}.cls-28{fill:#fad399}.cls-29{fill:#7e8c4f}.cls-34{fill:#fff}.cls-37{fill:#af7871}.cls-38{fill:#72030a}
    </style>
  </defs>
  <g style="isolation:isolate">
    <g id="Layer_2" data-name="Layer 2">
      <g id="character">
        <path class="cls-2" d="M1503 0zM49.69 686z"/>
        <!-- <path d="M1553 636V50a50 50 0 00-49.69-50H49.69A50 50 0 000 50v586a50 50 0 0049.69 50h1453.62a50 50 0 0049.69-50z" fill="#2e475e"/> -->
        <ellipse cx="367.17" cy="634.07" rx="165.87" ry="12.49" style="mix-blend-mode:multiply" fill="#ccc"/>
        <path class="cls-2" d="M827.05 390.66q-1.63-2.24-3.34-4.48a15.35 15.35 0 01-16 2.17A204.12 204.12 0 00796 441.47c-.23 2.93-.39 5.8-.48 8.58 0 .93 0 1.85-.07 2.76s0 1.82 0 2.71v2.66c0 1.75.06 3.47.13 5.15s.16 3.32.27 4.92c0 .7.1 1.38.16 2.05 12.47 7 43.49 23.12 67.72 26.06.27-15.36-2.37-58.58-36.68-105.7z"/>
        <path class="cls-2" d="M961 655.88c-3 .24-7.29.52-12.24.74-1.85.08-3.79.16-5.78.22l-4 .1h-6.07c-2.7 0-5.36 0-7.88-.16-1.26-.05-2.49-.11-3.67-.2-2.37-.16-4.55-.39-6.45-.7-1-.15-1.83-.32-2.63-.52a16 16 0 01-1.54-.44c-20.66-4.06-37-35.24-39-74.38-35.13-12.67-78.49-23.81-93.33-27.5a15.15 15.15 0 01-3.43 1.28c-8.67 2-20.21-3.19-22.4-12.49-.08-.31-.14-.61-.19-.92a.78.78 0 000-.14c0-.26-.07-.53-.1-.8v.03a13.73 13.73 0 010-1.81c.22-5.92 4-11.61 9-14.91 0-1.16-.11-2.33-.15-3.47a1.34 1.34 0 000-.2c-.06-1.88-.11-3.73-.14-5.56a271.79 271.79 0 011.62-35.92A12.4 12.4 0 01760 478a11.59 11.59 0 01-1.63-.36c-.27-.08-.53-.17-.8-.27a12.78 12.78 0 01-3-1.63 14.72 14.72 0 01-1.41-1.12l-.16-.15a29.52 29.52 0 013.1 5.72c.31.76.59 1.54.85 2.33.26.8.49 1.62.68 2.46 1.69 7.12.84 14-1.84 19.1a18.39 18.39 0 01-1.49 2.38 17.42 17.42 0 01-1.16 1.39 14.78 14.78 0 01-2 1.76c-.23.17-.47.33-.71.49a12.8 12.8 0 01-4 1.7 14.3 14.3 0 01-4.5.3 19.36 19.36 0 01-5.65-1.41 23 23 0 01-2.78-1.36c-.61-.35-1.21-.73-1.79-1.14a24.4 24.4 0 01-2.55-2c-.54-.49-1.07-1-1.58-1.56a25.75 25.75 0 01-2.77-3.57 24.38 24.38 0 01-3.21-7.55c-.1-.42-.19-.83-.26-1.25v-.18c-.06-.36-.12-.72-.16-1.08a.34.34 0 010-.1q-.08-.58-.12-1.17c0-.42-.05-.83-.06-1.24-.23-10.81 6.72-20.59 14.64-22.46 5-1.17 10.11.8 14.27 4.86a24.26 24.26 0 01-3.91-13.74v-1.11a23.56 23.56 0 011.42-6.66c.26-.68.54-1.33.85-2l.12-.24c.28-.57.59-1.12.92-1.66l.24-.4.06-.1c5.26-8.26 15.12-12.39 22.39-10.57 6.57-19 15-32.77 22.56-42.31.1-.11.19-.23.28-.35q.92-1.14 1.8-2.19l.25-.3c.58-.69 1.17-1.37 1.74-2v-.07c.59-.65 1.16-1.28 1.73-1.88l.26-.29 1.14-1.18a15.33 15.33 0 01-3.35-9.57 15.54 15.54 0 01.14-1.94c-11.82-5.78-22.74-17.3-29.41-32.58a75.61 75.61 0 01-3.09-8.41q-.31-1-.6-2.1c-.56-2.1-1-4.19-1.39-6.27-.24-1.39-.44-2.77-.59-4.14q-.35-3.09-.4-6.09a52 52 0 014.1-21.86 36.4 36.4 0 016.35-9.84l28.49 65.32 6 13.67a15.5 15.5 0 015.83-1.15h.23L815.4 347l7.6-73.38c.46.26.92.54 1.37.83l.43.29c.3.2.6.39.89.6l.52.39.78.58.54.44.72.59.55.49.67.61.55.53.63.62.55.57.6.65.53.61.58.67.52.64.54.7.51.67.52.72.49.71c.17.24.33.48.48.73s.33.49.49.75l.45.74.48.79c.14.24.27.49.41.74s.31.55.46.84.25.48.37.72.32.6.47.91.2.42.3.63c.64 1.36 1.24 2.76 1.79 4.21a1.67 1.67 0 00.08.2c.15.42.3.84.44 1.26.07.18.13.35.19.53.14.4.27.8.39 1.21.07.21.14.41.2.62.12.39.23.79.34 1.19.07.23.13.45.19.67.11.4.21.8.31 1.2l.18.7.27 1.22c.05.23.11.47.16.71l.24 1.24c0 .24.09.48.13.72l.21 1.26c0 .24.07.48.11.73.06.42.12.85.17 1.28 0 .25.06.49.09.73.05.44.1.88.14 1.32 0 .23.05.47.07.71 0 .45.08.9.11 1.35v.7c0 .47 0 .93.07 1.4V322.23c0 .57 0 1.15-.06 1.72-.06 1.42-.17 2.85-.32 4.29-1.66 16.09-8.23 30-17.3 39.13a15.25 15.25 0 01.56 12.56c12.9 7 32.27 21.18 50.19 48.75a29.31 29.31 0 016.75-6.35 8 8 0 014.84-1.71c3.89.29 5.6 4.91 6.65 8.65a93.38 93.38 0 006.12 15.93c4.13 8.39 9.43 19.63 15.84 26.43a143 143 0 0115.64 21.43c8.16 2.69 20.24 7 26.7 10V302.85A68.49 68.49 0 01982 253.31c-17.53-10.67-29.7-34-29.7-61 0-28.14 13.17-52.23 31.85-62.24l-.2-16.47A158.22 158.22 0 011030.12 0H50A50 50 0 000 50v586a50 50 0 0050 50h921.67c2-10.12 4.4-21 7.38-32.15a85.71 85.71 0 01-18.05 2.03zM1503 0h-246.33a157.42 157.42 0 0145.12 95h.68l.25 14.07a857.34 857.34 0 01102.86-9.4s98 51.61 111.83 189.4c0 0-1.68.73-4.84 2-2.71 1.11-6.51 2.63-11.28 4.46-2.39.91-5 1.89-7.87 2.94l-2.93 1.07c-3.19 1.15-6.64 2.37-10.31 3.63 2.06 12 5 30 8.33 52.08l24.5 2.54s19.38 58.35 10.16 110.14l-2.24 1.5 4.43 43.51-18.36 2.83q1.08 14.21 1.92 28.52c.47-.3.94-.59 1.4-.9l4.06 24.11a34.1 34.1 0 01-4.13 4q.36 9.09.57 18.12a115.29 115.29 0 01-8.55 9.11l4.48 29.24 3.74-.57 5.16 33.68-36.94 5.66-5.17-33.67 3.09-.48-1.73-11.25a302.25 302.25 0 01-69.29 36.4V686h48.23l-.84-5.47a9.74 9.74 0 018.16-11.1l72-11.06a9.75 9.75 0 0110.68 6.45A49.76 49.76 0 001553 636V50a50 50 0 00-50-50zM989.18 651.3q-2.29 8.15-4.39 16.93c-1.45 6.08-2.73 12-3.86 17.77h44.67v-52.3a127.65 127.65 0 01-36.42 17.6z"/>
        <path class="cls-2" d="M1521.91 671.09l-46.23 7.09a9.73 9.73 0 00-8.08 7.82h35.4a49.79 49.79 0 0029.2-9.42 9.74 9.74 0 00-10.29-5.49z"/>
        <path class="cls-5" d="M1015.78 288.9c.41 3.41.87 7 1.37 10.61q3.4-6.15 7.11-11.88c-2.83.37-5.67.78-8.48 1.27zM1025.6 422.18v-43.44q-2.76-8.33-5.21-17.26c-4.55 24.1-2.8 44.43 5.21 60.7zM914.82 655.93c-1-.15-1.83-.32-2.63-.52.81.2 1.68.37 2.63.52z"/>
        <path class="cls-5" d="M959.07 572.55a149 149 0 01-3 30.16c2.32-.07 4.65-.23 7-.51 27.7-3.2 50.41-20.34 62.55-44v-83.52a87.36 87.36 0 01-12.96-12.68c-21.33-25.79-26.93-63.42-16.2-108.82a211.68 211.68 0 0113.6-39.63c-1.3-8-2.37-15.7-3.23-22.85a86.34 86.34 0 00-18.66 6.39l-9.24-31.67a138.63 138.63 0 0120.52-6.14 41.91 41.91 0 01-17.38-6A68.49 68.49 0 00961 302.85v200.23c-6.46-3-18.54-7.31-26.7-10 2.44 4.05 4.73 8.25 6.81 12.53 10.89 15.08 17.96 39.44 17.96 66.94zM1025.07 342.86c.17.75.35 1.51.53 2.26v-3.85c-.18.53-.36 1.06-.53 1.59zM948.72 656.62zM942.94 656.84l-4 .1zM936.89 657h-4.07 4.07z"/>
        <path class="cls-6" d="M963.05 602.2c-2.34.28-4.67.44-7 .51-6.38 30.85-22.25 52.71-40.82 52.71a23.5 23.5 0 01-4.59-.45 16 16 0 001.54.44c.8.2 1.68.37 2.63.52 1.9.31 4.08.54 6.45.7 1.18.09 2.41.15 3.67.2 2.52.11 5.18.16 7.88.16h6.07l4-.1c2-.06 3.93-.14 5.78-.22 4.95-.22 9.28-.5 12.24-.74a85.71 85.71 0 0018.09-2c9.29-34.55 23.91-70.91 46.55-90.55v-5.08c-12.08 23.56-34.79 40.7-62.49 43.9zM1025.6 633.7v-57.82c-14.4 15.67-26.79 41.32-36.42 75.42a127.65 127.65 0 0036.42-17.6z"/>
        <path d="M956.06 602.71a149 149 0 003-30.16c0-27.5-7.09-51.86-18-66.94 6.53 13.42 11 27.6 11.84 40.17 2.54 39.48-31 53.77-74.78 37.21-2.13-.8-4.31-1.61-6.52-2.4 2 39.14 18.38 70.32 39 74.38a23.5 23.5 0 004.59.45c18.62 0 34.49-21.86 40.87-52.71z" fill="#32391d"/>
        <path class="cls-8" d="M952.91 545.78c-.8-12.57-5.31-26.75-11.84-40.17-2.08-4.28-4.37-8.48-6.81-12.53a143 143 0 00-15.64-21.43l-2.92 18.69a57.55 57.55 0 01-9.91-1.63c.11.33.21.67.31 1 .18.57.36 1.14.53 1.72.35 1.17.7 2.36 1 3.55.15.53.31 1 .46 1.59.49 1.74 1 3.49 1.45 5.28a46.64 46.64 0 01-15.16 8.37c-.83.26-1.69.5-2.57.71l-.88.2c-.6.13-1.2.24-1.81.34s-1.23.17-1.85.23-1.26.1-1.9.12h-2a27.5 27.5 0 01-4.94-.63 30.17 30.17 0 01-15.15-8.87V502a1.5 1.5 0 010-.2v-.07a2 2 0 000-.25v-1.02-.53c0-.92.11-2.11.13-3.53-24.23-2.94-55.25-19.09-67.72-26.06.07.9.15 1.78.23 2.65a163.53 163.53 0 002.42 16.4c.12.6.24 1.19.37 1.76 2.83 13.28 6.32 20.75 6.32 20.75a37.48 37.48 0 01-3.45 5.65 30.37 30.37 0 01-3.13 3.55 27.09 27.09 0 01-14.46 7.31 18.86 18.86 0 011.05 1.93v.06c.21.45.38.9.55 1.37 0 .11.09.21.13.32a17 17 0 01.51 1.76 17.53 17.53 0 01-4.72 16.75 15.25 15.25 0 01-3.57 2.52c14.84 3.69 58.2 14.83 93.33 27.5 2.21.79 4.39 1.6 6.52 2.4 44.13 16.53 77.66 2.24 75.12-37.24zm-99.39 10.78c-.51-1.48-1-3-1.46-4.45l-1.14-4.55-.8-4.63-.5-4.67-.14-4.69c.06-1.56.09-3.13.16-4.69l.51-4.66c.26-1.54.54-3.08.84-4.61a56.44 56.44 0 016.77-17.27A90.83 90.83 0 00853.3 520c-.17 1.51-.33 3-.53 4.5l-.28 4.51c0 1.5 0 3-.06 4.51l.2 4.51.42 4.49.67 4.46.9 4.43c.4 1.45.77 2.91 1.13 4.38a91.82 91.82 0 006.84 16.92 56.23 56.23 0 01-9.07-16.15z"/>
        <path class="cls-9" d="M1025.6 315.91a76.89 76.89 0 015.68-29.08c-2.32.23-4.66.49-7 .8q-3.69 5.73-7.11 11.88c1.87 13.38 4.42 28.19 7.92 43.35.17-.53.35-1.06.53-1.59zM1020.39 361.48c-.29-1.06-.59-2.11-.88-3.18-4.07-15.3-7.14-30.57-9.45-44.75a211.68 211.68 0 00-13.6 39.63c-10.73 45.4-5.13 83 16.2 108.82a87.36 87.36 0 0012.94 12.68v-52.5c-8.01-16.27-9.76-36.6-5.21-60.7z"/>
        <path class="cls-10" d="M801.89 383.87l-1.14 1.18 1.14-1.18zM761 519.77c0 1.14.1 2.31.15 3.47-.07-1.16-.15-2.33-.15-3.47zM798.76 387.22c.59-.65 1.16-1.28 1.73-1.88-.57.6-1.14 1.23-1.73 1.88zM794.92 391.79q.92-1.14 1.8-2.19-.88 1.05-1.8 2.19zM795.42 455.52v-2.71c.01.91.01 1.82 0 2.71zM761 519.57c-.06-1.87-.11-3.73-.14-5.56 0 1.83.05 3.68.14 5.56zM797 389.3c.58-.69 1.17-1.37 1.74-2-.6.63-1.19 1.31-1.74 2zM795.52 450.05zM781 488.47c16.56-28.6 13.83-61.86 11.79-93.89.64-.84 1.26-1.65 1.88-2.44-7.54 9.54-16 23.3-22.56 42.31a12.5 12.5 0 011.36.4c7.35 2.74 10.81 12.19 8.74 22.3a.31.31 0 010 .08c-.13.62-.28 1.24-.45 1.87 0 .14-.07.28-.11.43-.22.77-.47 1.53-.76 2.3A27.22 27.22 0 01770 475.67c-.54.32-1.08.62-1.62.88a15.66 15.66 0 01-1.66.68 14.22 14.22 0 01-3.34.79c-.3 0-.6.06-.89.07a271.79 271.79 0 00-1.66 35.91A126.58 126.58 0 00781 488.47zM805.34 511.86a37.48 37.48 0 01-3.45 5.65 37.48 37.48 0 003.45-5.65zM798.76 521.06a27.65 27.65 0 01-3.36 2.78 27.65 27.65 0 003.36-2.78zM801.89 517.51a30.37 30.37 0 01-3.13 3.55 30.37 30.37 0 003.13-3.55z"/>
        <path class="cls-11" d="M766.89 520.68c6.82-1.61 13.7 1.69 17.41 7.69a27.09 27.09 0 0014.46-7.31 30.37 30.37 0 003.13-3.55 37.48 37.48 0 003.45-5.65s-3.49-7.47-6.32-20.75c-.13-.57-.25-1.16-.37-1.76a163.53 163.53 0 01-2.42-16.4c-.08-.87-.16-1.75-.23-2.65-.06-.67-.11-1.35-.16-2.05q-.17-2.4-.27-4.92c-.07-1.68-.11-3.4-.13-5.15v-2.66-2.71c0-.91 0-1.83.07-2.76.09-2.78.25-5.65.48-8.58a204.12 204.12 0 0111.67-53.12 15.42 15.42 0 01-5.78-4.48l-1.14 1.18-.26.29c-.57.6-1.14 1.23-1.73 1.88v.07c-.57.64-1.16 1.32-1.74 2l-.25.3q-.88 1-1.8 2.19c-.09.12-.18.24-.28.35-.62.79-1.24 1.6-1.88 2.44 2 32 4.77 65.29-11.79 93.89A126.58 126.58 0 01760.83 514c0 1.83.08 3.69.14 5.56a1.34 1.34 0 010 .2c0 1.14.1 2.31.15 3.46a18.22 18.22 0 015.77-2.54z"/>
        <path class="cls-10" d="M823.71 386.18q1.71 2.25 3.34 4.48c16.31 17.3 33.89 34.29 44.62 55.28a33.5 33.5 0 016.76-17.23c-17.93-27.58-37.3-41.71-50.2-48.71a15.33 15.33 0 01-4.52 6.18zM863.45 501.76zM863.47 501.44zM863.51 501zM863.55 500.53zM885.41 511.82c.64 0 1.27-.06 1.9-.12-.63.06-1.26.1-1.9.12zM863.58 500zM863.42 502zM885.41 511.82h-1zM906.1 489.71c-.1-.33-.2-.67-.31-1 .11.29.21.67.31 1zM907.67 495c-.34-1.19-.69-2.38-1-3.55.33 1.15.66 2.34 1 3.55zM908.13 496.57c.49 1.74 1 3.49 1.45 5.28-.47-1.79-.96-3.54-1.45-5.28zM894.42 510.22zM891 511.13c-.6.13-1.2.24-1.81.34.58-.1 1.18-.21 1.81-.34z"/>
        <path class="cls-11" d="M885.86 478.63c-8.27-7-13.89-17.38-14.34-28.24a31.71 31.71 0 01.14-4.46c-10.73-21-28.31-38-44.62-55.28 34.31 47.12 37 90.32 36.67 105.7 0 1.42-.08 2.61-.13 3.53v1.53a2 2 0 010 .25v.07a1.5 1.5 0 000 .2v.38a30.17 30.17 0 0015.15 8.87 27.5 27.5 0 004.94.63h2c.64 0 1.27-.06 1.9-.12s1.24-.14 1.85-.23 1.21-.21 1.81-.34l.88-.2c.88-.21 1.74-.45 2.57-.71a46.64 46.64 0 0015.16-8.37c-.47-1.79-1-3.54-1.45-5.28-.15-.54-.31-1.06-.46-1.59-.34-1.19-.69-2.38-1-3.55-.17-.58-.35-1.15-.53-1.72-.1-.33-.2-.67-.31-1a49.74 49.74 0 01-20.23-10.07z"/>
        <path class="cls-12" d="M763.6 318.86q-.35-3.09-.4-6.09.06 3 .4 6.09zM808.1 360.06l-6-13.67 1.35 3.09c-11.8 1.2-23.78-1.18-33.32-7.73-.31-.65-.61-1.31-.9-2a75.61 75.61 0 01-3.09-8.41 75.61 75.61 0 003.09 8.41c6.67 15.28 17.59 26.8 29.41 32.58a15.39 15.39 0 019.46-12.27zM765.58 329.27c-.56-2.1-1-4.19-1.39-6.27.36 2.08.81 4.17 1.39 6.27zM845.35 322.25c0 .57 0 1.15-.06 1.72.03-.57.05-1.15.06-1.72zM830.65 279.61l.55.57zM831.8 280.83l.53.61zM834 283.45l.51.67zM832.91 282.11l.52.64zM827.67 367.39c9.07-9.12 15.64-23 17.3-39.13.15-1.44.26-2.87.32-4.29a50.9 50.9 0 01-29.89 23l-1.24 11.9a15.39 15.39 0 0113.51 8.52zM825.69 275.36l.52.39zM829.47 278.46l.55.53zM828.25 277.36l.55.49zM824.37 274.47l.43.29zM827 276.33l.54.44zM843.51 304.19l.27 1.22zM841.27 296.81c.15.42.3.84.44 1.26-.14-.42-.29-.84-.44-1.26zM836.91 287.77l.48.79zM841.9 298.6c.14.4.27.8.39 1.21-.12-.41-.29-.81-.39-1.21zM842.49 300.43c.12.39.23.79.34 1.19-.11-.4-.22-.8-.34-1.19zM839.4 292.4c.64 1.36 1.24 2.76 1.79 4.21-.55-1.45-1.19-2.85-1.79-4.21zM837.8 289.3c.15.28.31.55.46.84-.15-.29-.26-.56-.46-.84zM838.63 290.86c.16.3.32.6.47.91-.1-.31-.31-.61-.47-.91zM845.37 320.26v0zM836 286.28c.17.25.33.49.49.75-.19-.26-.35-.5-.49-.75zM843 302.29c.11.4.21.8.31 1.2-.08-.4-.18-.8-.31-1.2zM844.89 312.08c.05.44.1.88.14 1.32-.03-.4-.09-.88-.14-1.32zM844.63 310.07zM845.1 314.11c0 .45.08.9.11 1.35-.03-.46-.07-.9-.11-1.35zM845.34 318.22v1.46c.03-.49.01-.98 0-1.46zM845.25 316.16c0 .47 0 .93.07 1.4-.02-.47-.04-.93-.07-1.4zM835 284.84l.49.71zM844.31 308.08l.21 1.26zM843.94 306.12l.24 1.24z"/>
        <path class="cls-13" d="M770.17 341.75c9.54 6.55 21.52 8.93 33.32 7.73l-1.35-3.09-28.49-65.32a36.4 36.4 0 00-6.35 9.84 52 52 0 00-4.1 21.86q.06 3 .4 6.09c.15 1.37.35 2.75.59 4.14.36 2.08.83 4.17 1.39 6.27q.28 1.05.6 2.1a75.61 75.61 0 003.09 8.41c.29.66.59 1.32.9 1.97zM845.29 324c0-.57.05-1.15.06-1.72v-.43-2.14-1.46-.66c0-.47 0-.93-.07-1.4v-.7c0-.45-.07-.9-.11-1.35 0-.24 0-.48-.07-.71 0-.44-.09-.88-.14-1.32 0-.24 0-.48-.09-.73 0-.43-.11-.86-.17-1.28 0-.25-.07-.49-.11-.73l-.21-1.26c0-.24-.09-.48-.13-.72l-.24-1.24c-.05-.24-.11-.48-.16-.71l-.27-1.22-.18-.7c-.1-.4-.2-.8-.31-1.2-.06-.22-.12-.44-.19-.67-.11-.4-.22-.8-.34-1.19-.06-.21-.13-.41-.2-.62-.12-.41-.25-.81-.39-1.21-.06-.18-.12-.35-.19-.53-.14-.42-.29-.84-.44-1.26a1.67 1.67 0 01-.08-.2c-.55-1.45-1.15-2.85-1.79-4.21-.1-.21-.2-.43-.3-.63s-.31-.61-.47-.91-.24-.49-.37-.72-.31-.56-.46-.84-.27-.5-.41-.74l-.48-.79-.45-.74c-.16-.26-.32-.5-.49-.75s-.31-.49-.48-.73l-.49-.71-.52-.72-.51-.67-.54-.7-.52-.64-.58-.67-.53-.61-.6-.65-.55-.57-.72-.64-.55-.53-.67-.61-.55-.49-.72-.59-.54-.44-.78-.58-.52-.39c-.29-.21-.59-.4-.89-.6l-.43-.29c-.45-.29-.91-.57-1.37-.83L815.4 347a50.9 50.9 0 0029.89-23z"/>
        <path d="M807.67 388.35a15.38 15.38 0 106.49-29.43h-.23a15.54 15.54 0 00-15.39 15.39 15.33 15.33 0 003.35 9.57 15.42 15.42 0 005.78 4.47zm5.69-27.35a7.76 7.76 0 11-7.76 7.76 7.75 7.75 0 017.76-7.76z" fill="#afddf3"/>
        <circle cx="813.36" cy="368.76" r="7.76" transform="rotate(-67.5 813.366 368.754)" fill="#cfebf8"/>
        <path class="cls-16" d="M773.14 547.15c7.51-1.77 12.45-8.92 12.21-16.85a18.86 18.86 0 00-1.05-1.93c-3.71-6-10.59-9.3-17.41-7.69a18.22 18.22 0 00-5.76 2.55c-5 3.3-8.82 9-9 14.91 3.87 7.08 13.5 10.79 21.01 9.01zM752.24 540.82c0-.26-.07-.53-.1-.8.03.27.06.54.1.8zM752.09 538.15a13.73 13.73 0 000 1.81 13.73 13.73 0 010-1.81zM752.45 541.88zM785.37 530.35c.21.44.38.9.55 1.37-.17-.47-.34-.92-.55-1.37zM786.05 532a17 17 0 01.51 1.76 17 17 0 00-.51-1.76z"/>
        <path class="cls-8" d="M786.57 533.82a17 17 0 00-.51-1.76c0-.11-.09-.21-.13-.32-.17-.47-.34-.93-.55-1.37v-.06c.24 7.93-4.7 15.08-12.21 16.85s-17.17-1.93-21-9a13.73 13.73 0 000 1.81v.03c0 .27.06.54.1.8a.78.78 0 010 .14c0 .31.11.61.19.92 2.19 9.3 13.73 14.54 22.4 12.49a15.64 15.64 0 007-3.8 17.53 17.53 0 004.71-16.73z"/>
        <path class="cls-16" d="M721.37 492.05c-.06-.36-.12-.72-.16-1.08.04.36.1.72.16 1.08zM721.2 490.87q-.08-.58-.12-1.17.05.59.12 1.17zM721.08 489.69c0-.42-.05-.83-.06-1.24-.02.41.03.82.06 1.24zM742 512.1a14.3 14.3 0 004.5-.3 12.8 12.8 0 004-1.7 12.8 12.8 0 01-4 1.7 14.3 14.3 0 01-4.5.3zM756.07 480.16zM751.82 473.29a19.83 19.83 0 01-1.77-2.26l-.12-.19c-4.16-4.06-9.31-6-14.27-4.86-7.92 1.87-14.87 11.65-14.64 22.46 4.63 9.78 15.23 15.41 23.15 13.54s12.71-11.14 11.9-21.82a29.52 29.52 0 00-3.1-5.72c-.39-.36-.78-.74-1.15-1.15zM756.93 482.52zM751.16 509.61a14.78 14.78 0 002-1.76 14.78 14.78 0 01-2 1.76zM754.28 506.46a17.42 17.42 0 01-1.16 1.39 17.42 17.42 0 001.16-1.39zM755.77 504.08a18.39 18.39 0 01-1.49 2.38 18.39 18.39 0 001.49-2.38zM721.66 493.48zM727.64 504.6a25.75 25.75 0 01-2.77-3.57 25.75 25.75 0 002.77 3.57zM731.77 508.19a24.4 24.4 0 01-2.55-2 24.4 24.4 0 002.55 2zM727.64 504.6c.51.55 1 1.07 1.58 1.56-.54-.49-1.07-1.01-1.58-1.56zM736.34 510.69a23 23 0 01-2.78-1.36 23 23 0 002.78 1.36z"/>
        <path class="cls-8" d="M744.17 502c-7.92 1.87-18.52-3.76-23.15-13.54 0 .41 0 .82.06 1.24q0 .58.12 1.17a.34.34 0 000 .1c0 .36.1.72.16 1.08v.18c.07.42.16.83.26 1.25a24.38 24.38 0 003.21 7.55 25.75 25.75 0 002.77 3.57c.51.55 1 1.07 1.58 1.56a24.4 24.4 0 002.55 2c.58.41 1.18.79 1.79 1.14a23 23 0 002.78 1.36 19.36 19.36 0 005.7 1.44 14.3 14.3 0 004.5-.3 12.8 12.8 0 004-1.7c.24-.16.48-.32.71-.49a14.78 14.78 0 002-1.76 17.42 17.42 0 001.16-1.39 18.39 18.39 0 001.49-2.38c2.68-5.07 3.53-12 1.84-19.1-.19-.84-.42-1.66-.68-2.46-.26-.79-.54-1.57-.85-2.33.71 10.65-4.09 19.92-12 21.81z"/>
        <path class="cls-16" d="M761 468.24c7.34 2.74 16.14-2.12 21.2-11.09 2.07-10.11-1.39-19.56-8.74-22.3a12.5 12.5 0 00-1.36-.4c-7.27-1.82-17.13 2.31-22.39 10.57-1.54 10.3 3.93 20.48 11.29 23.22zM749.39 445.51l.24-.4zM748.35 447.41l.12-.24zM754.54 475.71a14.72 14.72 0 01-1.41-1.12 14.72 14.72 0 001.41 1.12zM760 478a11.59 11.59 0 01-1.63-.36 11.59 11.59 0 001.63.36zM754.54 475.71a12.78 12.78 0 003 1.63 12.78 12.78 0 01-3-1.63zM782.17 457.22c-.13.62-.28 1.24-.45 1.87.17-.63.28-1.25.45-1.87zM760 478a12.4 12.4 0 002.44.12c.29 0 .59 0 .89-.07A12.79 12.79 0 01760 478zM781.61 459.52zM770 475.67c-.54.32-1.08.62-1.62.88.5-.26 1.04-.55 1.62-.88zM766.68 477.23a14.22 14.22 0 01-3.34.79 14.22 14.22 0 003.34-.79zM746 457.15a24.26 24.26 0 003.89 13.69l.12.19a24.33 24.33 0 01-4.01-13.88zM751.82 473.29c.37.41.76.79 1.15 1.15l.16.15a17.83 17.83 0 01-1.31-1.3zM750.05 471a19.83 19.83 0 001.77 2.26 19.83 19.83 0 01-1.77-2.26z"/>
        <path class="cls-8" d="M763.34 478a14.22 14.22 0 003.34-.79 15.66 15.66 0 001.66-.68c.54-.26 1.08-.56 1.62-.88a27.22 27.22 0 0010.89-13.85c.29-.77.54-1.53.76-2.3 0-.15.07-.29.11-.43.17-.63.32-1.25.45-1.87a.31.31 0 000-.08c-5.06 9-13.86 13.83-21.2 11.09s-12.8-12.89-11.28-23.21l-.06.1-.24.4c-.33.54-.64 1.09-.92 1.66l-.12.24c-.31.64-.59 1.29-.85 2a23.56 23.56 0 00-1.42 6.66v1.11a24.33 24.33 0 004 13.88 19.83 19.83 0 001.77 2.26 17.83 17.83 0 001.31 1.3 14.72 14.72 0 001.41 1.12 12.78 12.78 0 003 1.63c.27.1.53.19.8.27a11.59 11.59 0 001.63.37 12.79 12.79 0 003.34 0z"/>
        <path d="M854.62 551.44l-.9-4.43-.67-4.46-.42-4.49-.2-4.51c0-1.5.06-3 .06-4.51l.28-4.51c.2-1.49.36-3 .53-4.5a90.83 90.83 0 014.46-17.69 56.44 56.44 0 00-6.76 17.27c-.3 1.53-.58 3.07-.84 4.61l-.51 4.66c-.07 1.56-.1 3.13-.16 4.69l.14 4.69.5 4.67.8 4.63 1.14 4.55c.46 1.49 1 3 1.46 4.45a56.23 56.23 0 009.07 16.18 91.82 91.82 0 01-6.84-16.92c-.37-1.47-.76-2.93-1.14-4.38z" fill="#aa756b"/>
        <path class="cls-8" d="M871.52 450.39c.45 10.86 6.07 21.2 14.34 28.24a49.74 49.74 0 0019.93 10.08 57.55 57.55 0 009.91 1.63l2.92-18.69c-6.41-6.8-11.71-18-15.84-26.43a93.38 93.38 0 01-6.12-15.93c-1-3.74-2.76-8.36-6.65-8.65a8 8 0 00-4.84 1.71 29.31 29.31 0 00-6.75 6.35 33.5 33.5 0 00-6.76 17.23 31.71 31.71 0 00-.14 4.46z"/>
        <path class="cls-9" d="M1519.11 451.63l1.82 17.81 2.24-1.5c9.22-51.79-10.17-110.14-10.17-110.14l-24.5-2.54c2.93 19.61 6.11 42.46 9.13 67.29 11.37 6.45 19.48 16.64 21.48 29.08z"/>
        <path class="cls-18" d="M1497.5 542.94l-3.73.58 1.16 7.59a78.26 78.26 0 0014-6.82q-.83-14.29-1.92-28.52l-16.38 2.51zM1502.24 598.72a115.29 115.29 0 008.55-9.11q-.21-9-.57-18.12a70.29 70.29 0 01-11 7.51zM1440.18 315.71c-3.09.88-6.26 1.75-9.48 2.62q-7.26 1.95-15 3.86c-3.33.82-6.73 1.63-10.17 2.42v333.12a302.25 302.25 0 0069.29-36.4l-4.82-31.4a161.82 161.82 0 01-25.13 3.72l-3.15-36.82a119.4 119.4 0 0023.28.49l-1.41-9.18-3.08.47-.81-25.59-34.7 5.33-12.44-60.35c-3.52-24.2 17.25-47.4 46.57-51.9 14.21-2.18 27.81.45 38.51 6.47-3-24.83-6.2-47.68-9.13-67.29-3.29-22.1-6.27-40.08-8.33-52.08q-6.6 2.28-14.15 4.71c-7.91 2.53-16.57 5.18-25.85 7.8z"/>
        <path class="cls-9" d="M1302.77 113.2c24.61 40.72 47.65 82 85 114.35 38 32.19 82.52 50.18 129.09 56.86.18 1.54.36 3.08.51 4.64 0 0-1.68.73-4.84 2 3.16-1.3 4.84-2 4.84-2-13.87-137.79-111.83-189.4-111.83-189.4a857.34 857.34 0 00-102.86 9.4v.72zM1512.57 291.08zM1501.29 295.54c-2.39.91-5 1.89-7.87 2.94 2.85-1.05 5.48-2.03 7.87-2.94zM1466 307.89q7.54-2.43 14.15-4.71c3.67-1.26 7.12-2.48 10.31-3.63-6.98 2.53-15.2 5.37-24.46 8.34zM1415.75 322.19q7.68-1.9 15-3.86-7.31 1.95-15 3.86zM1440.18 315.71zM1415.75 322.19c-3.33.82-6.73 1.63-10.17 2.42 3.42-.79 6.84-1.61 10.17-2.42z"/>
        <path d="M1516.9 284.41c-46.57-6.68-91.11-24.67-129.09-56.86-37.39-32.33-60.43-73.63-85-114.35l.27 21.86c17.23 11.84 28.73 33 28.73 57.24a71.27 71.27 0 01-16.06 45.62h9.76c10-2.6 22-.51 30.75 3.59a48.88 48.88 0 016.21 3.53l-.67.44c1.85.88 3.64 1.85 5.4 2.88l.18.1c.84.49 1.66 1 2.47 1.51l.37.24c.46.29.93.58 1.39.89s.64.46 1 .68l.31.22c.59.42 1.18.82 1.75 1.25a76.49 76.49 0 017.5 6.42l.34.32c.59.57 1.16 1.16 1.72 1.75.23.23.45.47.67.7.52.56 1 1.12 1.53 1.69l.75.86c.47.56.94 1.12 1.4 1.69l.76 1c.44.57.88 1.13 1.31 1.71l.68 1q1.2 1.68 2.31 3.42l.67 1c.32.52.62 1.05.92 1.57s.56 1 .83 1.45.55 1 .82 1.54.55 1 .81 1.57.49 1 .73 1.52.52 1.13.77 1.7.43 1 .64 1.48.5 1.26.74 1.89c.17.46.36.91.52 1.37.31.85.59 1.7.87 2.56.08.26.17.51.25.77.35 1.1.66 2.22 1 3.35.1.4.19.8.28 1.2.19.76.37 1.53.54 2.3l.27 1.37a84.502 84.502 0 01.61 3.63c.1.74.2 1.5.28 2.25 0 .46.11.92.15 1.39.08.82.14 1.65.19 2.48 0 .4.06.79.08 1.19.06 1.23.09 2.47.09 3.71v9.54c3.44-.79 6.84-1.6 10.17-2.42q7.68-1.9 15-3.86c3.22-.87 6.39-1.74 9.48-2.62a736.49 736.49 0 0025.85-7.82c9.23-3 17.45-5.81 24.46-8.34l2.93-1.07c2.85-1.05 5.48-2 7.87-2.94 4.77-1.83 8.57-3.35 11.28-4.46 3.16-1.3 4.84-2 4.84-2-.32-1.62-.5-3.11-.68-4.7z" fill="#393827"/>
        <path class="cls-20" d="M1132.07 650.19l-1.58-.05-2.94-.11-1.39-.06-3.92-.22-1.34-.1c-.84 0-1.68-.11-2.5-.18l-1.76-.14-1.89-.18-1.85-.18-1.56-.17c-2.44-.27-4.76-.58-7-.91l-.79-.12-2.16-.36-.62-.11c-3.32-.58-6.36-1.24-9.11-1.95a67.86 67.86 0 01-12.45-4.38 126.13 126.13 0 0053.5 22.64v-13.4zM1120.7 441c-56-5.55-78-81.46-86.16-154.45l-3.26.3a76.89 76.89 0 00-5.68 29.08v29.21c.86 3.65 1.78 7.32 2.76 11 8.78 32.95 20.51 59.57 34.87 79.12q15.48 21.06 35 31h20.57l1.37 7.43q3.57.65 7.24 1c1.79.17 3.56.29 5.32.39v-33.56a112.9 112.9 0 01-12.03-.52zM1068.34 628.5c.91-9.08 24.6-11.13 24.6-11.13s-11.53-.34-23.45 0-14.22-11.46-11.53-21.62c1.69-6.36 13.38-8 21.88-8.28-27.74-2.49-32.25-25.91-16.68-29.06a41.17 41.17 0 014.59-.63c-12.43-1.25-23.63 2.22-34.14 10.57-.77.62-1.53 1.26-2.29 1.93 6.14 18.82 15.08 36.57 28.53 52.43a110.11 110.11 0 009.32 9.86 7.44 7.44 0 01-.83-4.07zM1269 462c-10.29-12.44-16.9-27.63-19.81-45.12q-12.12 23.17-28.92 38.55a110.12 110.12 0 01-14 10.83h57.59l5.57 25.6h-108.81l1.74-9a136.63 136.63 0 01-19.38 1.56V529c1.18 6.82 2.72 14.29 4.74 22.35l2.18.56a105.81 105.81 0 0125.29 10.49c3.22 1.85 6 3.76 7.35 5.63l5.31.8h.33l.2-.36c1.42.69 2.81 1.34 4.19 2l.82.37c1.29.59 2.57 1.14 3.83 1.68l1 .4c1.14.47 2.27.93 3.39 1.37l1 .38c1 .37 1.93.72 2.89 1.07l1.32.47c1 .34 2 .67 2.92 1l1.62.51 1.65.49c1 .28 1.91.55 2.84.79l1.08.28c2.13.55 4.2 1 6.21 1.38h.12c1.39.26 2.76.48 4.09.66 27.78 3.77 42.68-8.92 50.64-24.05 2.62-10.26 4.87-20.74 7.39-31.39q.89-4 1.76-8v-39.39A88 88 0 011269 462z"/>
        <path class="cls-20" d="M1075.61 538.54a12.48 12.48 0 01-1.53-4.14c-.54-4.36 3.46-8.28 7.78-9.1s8.73.69 12.72 2.55c11.78 5.46 22.05 14 34.23 18.48 1.29.48 2.6.89 3.92 1.29v-46.38a154.36 154.36 0 01-.14-17.06c-2-.11-4-.25-6-.43-1.57-.15-3.13-.33-4.67-.55l1.59 8.66h-92l4.19-25.6h45.3a119.42 119.42 0 01-25.12-25.71c-11.91-16.22-22-37-30.25-61.81v170.42c.87 4 1.85 7.87 2.91 11.76 12.94-10.1 27.4-14.06 43-11.75a77 77 0 0113.59 3.32 74.39 74.39 0 01-9.52-13.95zM1278.32 353.72c-7.61 32.21-4.65 58.15 8.75 77.21V361.4a315.09 315.09 0 012.14-38.1 147 147 0 00-10.89 30.42zM1143 440.94v34.36a125.21 125.21 0 0021.23-2l1.36-7h21.61a98.43 98.43 0 0026.89-17.56c14.54-13.28 25.37-30.65 33.42-49.81a180.78 180.78 0 015.26-45.71 210.24 210.24 0 0115-42.61c.49-5.21.88-10.32 1.18-15.26-12-.26-20 0-20 0l1.06-41.66a33.92 33.92 0 01-9.58-9.87c-2.19 105.79-27.53 189.3-97.43 197.12zM1307.89 245.83a60.49 60.49 0 01-9.17 6.39q4.79.27 9.34.67c-.06-2.35-.06-4.71-.17-7.06z"/>
        <path class="cls-21" d="M1132.73 441.52v33.54q5.2.3 10.25.24v-34.36a97.6 97.6 0 01-10.25.58zM1135.17 650.26h-2.44v13.4l.85.15 7.72-13.43h-4.68zM1139.43 484.41c-.27 5.64-.47 21.35 3.55 44.59v-44.59h-1.69zM1132.73 547.62c2.46.73 5 1.36 7.45 2a274.27 274.27 0 01-7.45-48.33zM1382.09 259.67a76.49 76.49 0 00-7.5-6.42c-.57-.43-1.16-.83-1.75-1.25a77.31 77.31 0 019.25 7.67z"/>
        <path class="cls-22" d="M1166.58 684l-.12-.05c-.91-.36-1.8-.73-2.68-1.09l-.43-.18c-1.85-.77-3.65-1.53-5.37-2.27l-.3-.13-2.27-1-.33-.15q-2.46-1.08-4.69-2.11l-.36-.16-2-.91-.17-.08-2.09-1-.1-.05-1.8-.86-.31-.15-3.42-1.68-.21-.1-1.3-.65-.26-.14c-.94-.47-1.78-.91-2.54-1.3l-.23-.12-.91-.48-.13-.07-.9-.48-.12-.06-.65-.35-.14-.07-.47-.26-.11-.06-.41-.23h-.06l-.2-.11h-.13l2.18-3.78-.85-.15a126.13 126.13 0 01-53.5-22.64c-5.47-2.65-8.66-5.58-10.06-8.41a110.11 110.11 0 01-9.32-9.86c-13.45-15.86-22.39-33.61-28.53-52.43a73.37 73.37 0 00-5.72 5.61V686h141.6c0-.57.12-1.14.17-1.71z"/>
        <path class="cls-21" d="M1277.93 557.29c8.32-15.8 9.1-34.23 9.15-39.36q-.87 4-1.76 8c-2.52 10.62-4.77 21.07-7.39 31.36zM1025.6 549.16v14.14c.79-.69 1.6-1.35 2.41-2l.5-.38c-1.06-3.92-2.04-7.81-2.91-11.76z"/>
        <path class="cls-22" d="M1405.58 516.54c-.76 94.41-27.32 144.83-63.64 169.46h63.64V516.54z"/>
        <path class="cls-21" d="M1307.89 245.83c.06 2.35.11 4.71.17 7.06h.24c5.22-5.32 10.53-10.2 15.83-14.63.44-.14.89-.25 1.34-.37h-9.76a64.25 64.25 0 01-7.82 7.94zM1405.22 307.69c0-.47-.1-.93-.15-1.39.05.46.11.92.15 1.39zM1388.5 266.68c-.46-.57-.93-1.13-1.4-1.69.47.56.9 1.12 1.4 1.69zM1390.57 269.35c-.43-.58-.87-1.14-1.31-1.71.44.57.88 1.13 1.31 1.71zM1393.56 273.73q-1.11-1.74-2.31-3.42 1.2 1.69 2.31 3.42zM1395.15 276.35c-.3-.52-.6-1.05-.92-1.57.32.52.62 1.05.92 1.57zM1372.53 251.78c-.32-.22-.63-.46-1-.68s-.93-.6-1.39-.89c.86.51 1.62 1.03 2.39 1.57zM1386.35 264.13c-.5-.57-1-1.13-1.53-1.69.52.56 1.03 1.12 1.53 1.69zM1396.8 279.34c-.27-.52-.53-1-.82-1.54.29.51.55 1.02.82 1.54zM1384.15 261.74c-.56-.59-1.13-1.18-1.72-1.75.57.57 1.16 1.16 1.72 1.75zM1404.18 300.42l-.27-1.37zM1404.79 304.05zM1398.34 282.43c-.24-.51-.48-1-.73-1.52.25.5.49 1.01.73 1.52zM1405.49 311.36c0-.4 0-.79-.08-1.19.03.4.06.83.08 1.19zM1403.37 296.75c-.09-.4-.18-.8-.28-1.2.1.45.19.8.28 1.2zM1369.81 250c-.81-.52-1.63-1-2.47-1.51.84.51 1.66.96 2.47 1.51zM1402.13 292.2c-.08-.26-.17-.51-.25-.77.12.26.17.51.25.77zM1399.75 285.61c-.21-.5-.43-1-.64-1.48.21.49.43.98.64 1.48zM1401 288.87c-.16-.46-.35-.91-.52-1.37.18.5.37.91.52 1.37zM1361.74 245.49q2.77 1.32 5.42 2.87c-1.76-1-3.55-2-5.4-2.88z"/>
        <path class="cls-23" d="M1405.58 324.61v-9.54c0-1.24 0-2.48-.09-3.71 0-.4 0-.79-.08-1.19-.05-.83-.11-1.66-.19-2.48 0-.47-.1-.93-.15-1.39-.08-.75-.18-1.51-.28-2.25a84.502 84.502 0 00-.61-3.63l-.27-1.37c-.17-.77-.35-1.54-.54-2.3-.09-.4-.18-.8-.28-1.2-.3-1.13-.61-2.25-1-3.35-.08-.26-.17-.51-.25-.77-.28-.86-.56-1.71-.87-2.56-.16-.46-.35-.91-.52-1.37-.24-.63-.49-1.26-.74-1.89s-.43-1-.64-1.48-.51-1.14-.77-1.7-.48-1-.73-1.52-.53-1.05-.81-1.57-.53-1-.82-1.54-.55-1-.83-1.45-.6-1.05-.92-1.57l-.67-1q-1.11-1.74-2.31-3.42l-.68-1c-.43-.58-.87-1.14-1.31-1.71l-.76-1c-.46-.57-.93-1.13-1.4-1.69l-.75-.86c-.5-.57-1-1.13-1.53-1.69-.22-.23-.44-.47-.67-.7-.56-.59-1.13-1.18-1.72-1.75l-.34-.32a77.31 77.31 0 00-9.25-7.67l-.31-.22a73.85 73.85 0 00-2.35-1.57l-.37-.24c-.81-.52-1.63-1-2.47-1.51l-.18-.1q-2.64-1.55-5.42-2.87c-5.71 3.68-11.84 8-18.11 12.85 19.43 4.28 30.86 9.06 30.86 9.06l-12.87 44.11c-15.25-7.67-36.67-11.78-56.75-13.95a162.34 162.34 0 00-15.66 25.74 315.09 315.09 0 00-2.14 38.1v69.53l.78 1.1v47l-.78-.54v38h118.51V324.61zm-25.25 155.31a34.33 34.33 0 11-26-41 34.33 34.33 0 0126 41zm5.92-31a42.41 42.41 0 00-79.31.81l-14.65-5.36a58 58 0 01108.49-1.14z"/>
        <path class="cls-24" d="M1278.82 277.1c-.1 4.47-.28 9.19-.53 14.11a216 216 0 0130-38.29h-.24q-4.56-.4-9.34-.67a57.12 57.12 0 01-11 4.78v1.09c.05 8.77-3.71 16.23-8.89 18.98zM1248.93 295.34s8-.29 20 0c.4-6.42.65-12.58.78-18.37-5-2.84-8.54-10.06-8.62-18.56a33.11 33.11 0 01-11.07-4.71zM1304.87 297.56c20.08 2.17 41.5 6.28 56.75 13.95l12.87-44.11s-11.43-4.78-30.86-9.06a205.2 205.2 0 00-38.76 39.22zM1024.26 287.63c2.36-.31 4.7-.57 7-.8l3.26-.3q-.74-6.58-1.32-13.12a42 42 0 01-6.08-4.14l-1.4-1.19a44.58 44.58 0 01-3.8-3.86c-.39-.44-.77-.9-1.13-1.35a49.54 49.54 0 01-1.57-2.09c-.33-.47-.65-.95-1-1.42-.46-.72-.89-1.44-1.3-2.16l-.25-.47a27.26 27.26 0 01-3.82 1.48c.52 7.92 1.39 18.48 2.86 30.69 2.88-.49 5.72-.9 8.55-1.27zM1003.54 259.51a39.57 39.57 0 01-4.09-.23 138.63 138.63 0 00-20.52 6.14l9.24 31.67a86.34 86.34 0 0118.66-6.39c-1.5-12.33-2.4-23.06-3-31.2z"/>
        <path class="cls-9" d="M1252.75 353.18a180.78 180.78 0 00-5.26 45.71c11.77-28 17.57-59.87 20.26-88.32a210.24 210.24 0 00-15 42.61zM1324.13 238.29c-5.3 4.43-10.61 9.31-15.83 14.63a216 216 0 00-30 38.29c-1.08 21.11-3.69 46-9.37 70.36-4.9 21-11.51 39.52-19.78 55.31 2.91 17.49 9.52 32.68 19.81 45.12a88 88 0 0018.12 16.52l.78.54V432l-.78-1.1c-13.4-19.06-16.36-45-8.75-77.21a147 147 0 0110.89-30.42 162.34 162.34 0 0115.66-25.74 205.2 205.2 0 0138.76-39.22c6.27-4.89 12.4-9.17 18.11-12.85l.67-.44a48.88 48.88 0 00-6.21-3.53c-8.7-4.1-20.8-6.19-30.75-3.59-.46.1-.89.25-1.33.39z"/>
        <path class="cls-25" d="M1493.77 543.52l-30.13 4.62 1.41 9.18a108 108 0 0029.88-6.21zM1470.05 589.93l4.82 31.4 1.73 11.25 30.12-4.62-4.48-29.24-3-19.72a110.16 110.16 0 01-29.19 10.93z"/>
        <path class="cls-21" d="M1497.64 422.55c-10.7-6-24.3-8.65-38.51-6.47-29.32 4.5-50.09 27.7-46.57 51.9l12.44 60.37 34.77-5.33-29.26 4.48-11.06-53.74c-3.13-21.55 15.36-42.2 41.46-46.2s49.93 10.15 53.4 31.64l5.57 54.59-29.27 4.49 16.38-2.51 18.39-2.82-4.43-43.51-1.82-17.81c-2.02-12.44-10.13-22.63-21.49-29.08z"/>
        <path class="cls-26" d="M1463.63 522.13l3-55.1L1486 518.7l4.54-.69.07.27 29.27-4.49-5.57-54.59c-3.47-21.49-27.3-35.65-53.4-31.64s-44.59 24.65-41.46 46.2l11.06 53.74 29.26-4.48v-.29z"/>
        <path class="cls-26" d="M1497.5 542.94l-6.9-24.66-.08-.27-4.54.69.1.28-22.46 3.44.01-.29-3.89.6.01.29.81 25.59 3.08-.47 30.13-4.63 3.73-.57z"/>
        <path fill="#9d9d9c" d="M1463.63 522.13l-.01.29 22.46-3.44-.1-.28-19.36-51.67-2.99 55.1z"/>
        <path class="cls-21" d="M1473.51 633.06l5.17 33.67 36.94-5.66-5.17-33.68-3.73.57-30.12 4.62-3.09.48z"/>
        <path class="cls-21" d="M1533.17 658.37l-72 11.06a9.74 9.74 0 00-8.16 11.1l.84 5.47h13.79a9.73 9.73 0 018.08-7.82l46.23-7.09a9.74 9.74 0 0110.29 5.49 50.6 50.6 0 0011.65-11.76 9.75 9.75 0 00-10.72-6.45z"/>
        <path class="cls-9" d="M1465.05 557.32a119.4 119.4 0 01-23.28-.49l3.15 36.82a161.82 161.82 0 0025.13-3.72 110.16 110.16 0 0029.16-10.93 70.29 70.29 0 0011-7.51 34.1 34.1 0 004.13-4l-4.06-24.11c-.46.31-.93.6-1.4.9a78.26 78.26 0 01-14 6.82 108 108 0 01-29.83 6.22z"/>
        <path class="cls-28" d="M1344.24 475l.48 11.23c3.46-.15 14.33.11 14.06-6.23-.28-6.58-11.08-5.13-14.54-5zM1355.73 464.28c-.26-6-9.26-4.71-12.15-4.58l.44 10.18c2.88-.12 11.98.12 11.71-5.6z"/>
        <path class="cls-28" d="M1354.35 438.91a34.33 34.33 0 1026 41 34.33 34.33 0 00-26-41zm14.55 41.69c-.4 8.08-6.31 10.5-14.86 11.36l.36 8.46-5.1.22-.36-8.35c-1.32.06-2.67.11-4.07.14l.35 8.38-5.09.22-.37-8.48-3.64.13-6.64.28.75-6.13s3.78-.11 3.71-.16a1.82 1.82 0 001.85-1.77l-1-23a2.62 2.62 0 00-3-2.11c.06-.07-3.7.16-3.7.16l-.23-5.45 7-.29c1.06 0 2.14-.11 3.25-.18l-.36-8.38 5.1-.22.35 8.22c1.36-.09 2.73-.17 4.07-.23l-.35-8.16 5.1-.22.36 8.38c6.61.3 11.91 2.1 12.75 8.11.62 4.41-1.11 7.14-4 8.77 4.92 1.03 8.1 3.79 7.77 10.3z"/>
        <path class="cls-24" d="M1359.45 407.78a58.12 58.12 0 00-67.16 36.62l14.65 5.36a42.41 42.41 0 0179.31-.81l14.53-5.69a58 58 0 00-41.33-35.48z"/>
        <path class="cls-5" d="M1164.21 473.28a104.79 104.79 0 0023-7h-21.61zM1160.62 491.86h108.81l-5.57-25.6h-57.59a110.15 110.15 0 01-43.91 16.59zM1098.23 466.26a79 79 0 0021.94 7.43l-1.37-7.43zM1081 466.26h-45.22l-4.19 25.6h92l-1.59-8.66a89.12 89.12 0 01-41-16.94z"/>
        <path class="cls-16" d="M1110.41 170.19c-28.78 0-52.2-.26-69.67-.55-.26 10.09-.39 22.56-.18 36.49 29.57-20.22 72.41-33 73.46-34.07-1.2-.64-2.4-1.26-3.61-1.87zM1100.92 410.91c3.48-9.14 14.62-15.83 27.84-15.83 9 0 17 3.1 22.32 7.94a111.15 111.15 0 0032.92-34.27c25.21-41.17 21.89-91-.34-130.8-.5 9.66-1.37 19.31-2.7 28.9-1.09 8-2.44 16-4.19 24-.85 4-1.85 7.9-2.91 11.83-.55 2-1.13 3.92-1.77 5.87-.36 1-.64 1.93-1.1 3a24.43 24.43 0 01-1.45 2.84 25.62 25.62 0 01-3.88 5.08 18.26 18.26 0 01-5.31 3.75 23.39 23.39 0 01-12.53 1.63 36.55 36.55 0 01-6.13-1.22 46.08 46.08 0 01-5.81-2.17 64.75 64.75 0 01-10.59-6.22c-3.32-2.36-6.46-4.92-9.52-7.59s-5.9-5.56-8.79-8.37a100.38 100.38 0 00-9-8 39.69 39.69 0 00-7-4.44 91.16 91.16 0 01-16.06-6.77l8.24 3.46a79.8 79.8 0 0027.11 5.29 63.86 63.86 0 009.07-.57 52.31 52.31 0 008.85-1.93c1.45-.41 2.85-1 4.27-1.49s2.78-1.16 4.11-1.87a50 50 0 007.67-4.7 44.07 44.07 0 0012-13.16c3-5.11 4.66-10.94 6.17-16.87s3-12.09 5.91-17.8a33.64 33.64 0 015.43-7.84q-1.86-2.52-3.84-5c-.85 0-1.71-.06-2.58-.11q.9-.45 1.83-.81a141.92 141.92 0 00-15.85-16.4 184.84 184.84 0 00-39.2-28.15l16.56 30.59a.41.41 0 01.07-.11l.74 1.62c-18.56 36.65-37 57-53.66 66.75l-1.27.74c-.85.47-1.69.92-2.53 1.34-1.26.63-2.5 1.2-3.74 1.71-.82.34-1.64.66-2.45 1s-1.61.56-2.41.8-1.59.46-2.38.66l-1.18.28a42.86 42.86 0 01-4.6.77 40 40 0 01-11.79-.36l-.39-.08c6.47 56.33 21.77 113.42 55.84 133.08z"/>
        <path class="cls-8" d="M1177.47 219.18c.51-.35 1-.67 1.56-1-1.24-.18-2.51-.31-3.79-.4-1.77-.14-3.57-.19-5.41-.26q2 2.44 3.84 5l.08-.09a25.59 25.59 0 013.72-3.25z"/>
        <path class="cls-8" d="M1110.86 170.19h-.45c1.21.61 2.41 1.23 3.61 1.87a184.84 184.84 0 0139.2 28.15 141.92 141.92 0 0115.85 16.4 24.71 24.71 0 016.09-1.52 24.25 24.25 0 018.39.46 20.21 20.21 0 017.69 3.64 14.5 14.5 0 015 6.69 30.55 30.55 0 00-6.44-4.42 32.3 32.3 0 00-5.64-2.2q0 9.34-.51 18.68c22.23 39.77 25.55 89.63.34 130.8a111.15 111.15 0 01-32.91 34.26 19.55 19.55 0 016.42 11.32c57-19.37 74.58-107.31 72.65-211.72q-.23-4.78-.22-9.77c-.23-7.7-.56-15.49-1-23.32l-13.36-.09h-5.95c-13.41.23-48.83.77-98.76.77z"/>
        <path class="cls-9" d="M1040.74 169.64h-3.17a209.71 209.71 0 011.1 22.71c0 5.33-.15 10.51-.47 15.49.78-.56 1.56-1.11 2.36-1.66-.21-13.98-.08-26.45.18-36.54zM1229.93 192.85v-.55a178.89 178.89 0 011.3-22.76h-2.28c.42 7.82.75 15.61.98 23.31zM1157.5 414.34a16.22 16.22 0 01.21 2.61c0 12.08-13 21.87-29 21.87s-29-9.79-29-21.87a17.16 17.16 0 011.12-6c-34.07-19.66-49.37-76.75-55.92-133.18l-.62-.12c-.66-.14-1.32-.3-2-.47q-.48-.12-1-.27c-.64-.18-1.27-.39-1.89-.6l-.93-.34c-.52-.2-1-.4-1.55-.62s-.77-.33-1.15-.51c-.93-.43-1.83-.9-2.71-1.39q.58 6.52 1.32 13.12c8.13 73 30.14 148.9 86.16 154.45a112.9 112.9 0 0012 .54 97.6 97.6 0 0010.25-.58c69.92-7.82 95.26-91.33 97.46-197.14-6.64-10.24-9.51-24.72-10.29-41.18 2.12 104.34-15.42 192.34-72.46 211.68zM1252.48 36.82q2.44 3.82 4.63 7.83l.05.1q3.22 5.93 5.88 12.2l.12.3q1.71 4.08 3.16 8.31l.18.52c.44 1.31.86 2.62 1.26 3.94l.09.28c.42 1.42.83 2.85 1.21 4.29l.12.46c.33 1.25.63 2.5.93 3.76.06.27.13.55.19.83.63 2.8 1.17 5.64 1.62 8.5.06.35.11.7.16 1q.27 1.77.48 3.54c0 .28.08.56.11.84.17 1.42.31 2.85.43 4.28 0 .31.05.63.07.94.09 1.15.17 2.31.23 3.47l.06 1.21c.06 1.45.11 2.9.13 4.35h.08l.21 17.34a55.78 55.78 0 0129.16 9.9l-.27-21.86V109l-.3-14h-.68a157.42 157.42 0 00-45.12-95h-38.75a135.92 135.92 0 0134.56 36.82zM984 113.59l.2 16.47a40.79 40.79 0 0118.77-5l-.17-14v-5.78c0-1.48.11-3 .2-4.43a.76.76 0 010-.15c.09-1.52.22-3 .37-4.55 0-.36.07-.72.11-1.08.15-1.45.32-2.88.52-4.31v-.2c.21-1.51.45-3 .71-4.5 0-.32.11-.64.17-1q.39-2.14.84-4.26a1.16 1.16 0 010-.18c.32-1.5.67-3 1-4.46l.21-.81c.36-1.42.75-2.84 1.17-4.24v-.12c.44-1.48.9-3 1.39-4.41.07-.22.14-.43.22-.64.48-1.43 1-2.84 1.51-4.25q.84-2.2 1.74-4.36c.06-.16.13-.31.2-.47q1.82-4.31 3.92-8.47c0-.1.11-.21.16-.32q2.14-4.2 4.56-8.24l.13-.21q1.22-2 2.49-4A136.12 136.12 0 011058.48 0h-28.36A158.22 158.22 0 00984 113.59z"/>
        <path class="cls-18" d="M1318.17 181.73c0 31-22.55 56-50.36 56s-34.56-25.09-34.56-56c0-4.18.13-8.25.41-12.17h-2.44a178.89 178.89 0 00-1.3 22.76v.55q0 5 .22 9.77c.78 16.46 3.65 30.94 10.29 41.18a33.92 33.92 0 009.58 9.87 33.11 33.11 0 0011.07 4.71 2.81 2.81 0 010-.29c0-11.14 6-20.17 13.34-20.17 7.12 0 12.92 8.45 13.3 19.08a57.12 57.12 0 0011-4.78 60.49 60.49 0 009.17-6.39 64.25 64.25 0 007.82-7.91 71.27 71.27 0 0016.06-45.62c0-24.2-11.5-45.4-28.73-57.24a55.78 55.78 0 00-29.16-9.9v1c24.95 3.27 44.29 26.89 44.29 55.55z"/>
        <path class="cls-9" d="M1233.66 169.56c-.28 3.92-.41 8-.41 12.17 0 31 6.75 56 34.56 56s50.36-25.09 50.36-56c0-28.66-19.34-52.28-44.28-55.62l.53 43.7z"/>
        <path class="cls-18" d="M1003.54 259.51h.34c-.68-10.17-.79-16.31-.8-16.5l9.11-.14c0 .17.12 5.87.73 15.35a27.26 27.26 0 003.82-1.48l-.14-.26c-.38-.72-.74-1.45-1.06-2.18-.22-.49-.42-1-.62-1.46a29.53 29.53 0 01-1.74-6.45 23.34 23.34 0 01-.22-2.72c0-.67 0-1.32.07-2s.12-1.07.2-1.6c0-.21.07-.41.11-.62s.1-.58.17-.86c.12-.61.27-1.22.44-1.82a27.25 27.25 0 01-7.39 1c-23.57 0-42.67-25.09-42.67-56 0-29.38 17.21-53.46 39.11-55.83v-.8a40.79 40.79 0 00-18.77 5c-18.68 10-31.85 34.1-31.85 62.24 0 27 12.17 50.34 29.7 61a41.91 41.91 0 0017.38 6 39.57 39.57 0 004.08.13zM1037.57 169.59h-2.06c.24 3.92.34 8 .34 12.18 0 11-.72 21.24-2.71 29.89 1.62-1.31 3.31-2.58 5.06-3.83.32-5 .47-10.16.47-15.49a209.71 209.71 0 00-1.1-22.75z"/>
        <path class="cls-9" d="M1033.14 211.62c2-8.65 2.71-18.9 2.71-29.89 0-4.18-.1-8.26-.34-12.18-18.23-.32-28.57-.65-28.57-.65.18-.26.37-.52.56-.77h-4l-.5-42.2c-21.9 2.37-39.11 26.45-39.11 55.83 0 31 19.1 56 42.67 56a27.25 27.25 0 007.39-1c2.55-9.11 9.74-17.57 19.19-25.14z"/>
        <path class="cls-29" d="M1209.63 169.4l5.95.04-5.95-.04zM1231.22 169.54l2.44.02 40.75.25-58.83-.37 13.36.09 2.28.01zM1269.18 75.05zM1266.5 66.08zM1263.16 57.25q1.71 4.08 3.16 8.31-1.46-4.23-3.16-8.31zM1270.3 79.64zM1017.49 48.09q2.14-4.2 4.56-8.24-2.41 4.04-4.56 8.24zM1022.18 39.64q1.22-2 2.49-4-1.27 1.99-2.49 4zM1257.16 44.75q3.22 5.93 5.88 12.2-2.64-6.27-5.88-12.2zM1252.48 36.82q2.44 3.82 4.63 7.83-2.19-4.01-4.63-7.83zM1267.85 70.3zM1273.46 103.46zM1024.67 35.66a113.78 113.78 0 0034.07 75 116.78 116.78 0 0152.39-12.25c31.63 0 60.11 12.33 80.12 32a114.16 114.16 0 0061.23-93.59A135.92 135.92 0 001217.92 0h-29.63c-1.56 9.52-23.2 17.07-49.68 17.07S1090.49 9.52 1088.93 0h-30.45a136.12 136.12 0 00-33.81 35.66zM1272.08 89.18q.27 1.77.48 3.54-.21-1.72-.48-3.54zM1273.67 107.82l-.08.01.08-.01zM1272.67 93.56c.17 1.42.31 2.85.43 4.28-.1-1.43-.26-2.84-.43-4.28zM1273.17 98.78zM1002.88 105.29c0-1.48.11-3 .2-4.43-.08 1.47-.15 2.95-.2 4.43zM1002.82 111.07v-4.62c0 1.55-.02 3.07 0 4.62zM1004.12 90.57zM1005.88 80.67c.32-1.5.67-3 1-4.46-.33 1.48-.68 2.96-1 4.46zM1003.57 95.08zM1013.41 56.88q1.82-4.31 3.92-8.47-2.12 4.16-3.92 8.47zM1003.09 100.71zM1005 85.11q.39-2.14.84-4.26-.45 2.15-.84 4.26zM1010 66c.48-1.43 1-2.84 1.51-4.25-.58 1.4-1.08 2.81-1.51 4.25zM1008.34 71c.44-1.48.9-3 1.39-4.41-.49 1.5-.95 2.97-1.39 4.41zM1011.47 61.71q.84-2.2 1.74-4.36-.9 2.16-1.74 4.36zM1007.14 75.4zM1007.5 168.13l-4-.03 4 .03z"/>
        <path class="cls-5" d="M1215.58 168.46v1l58.84.37-.53-43.7v-1l-.21-17.34h-.08c0-1.45-.07-2.9-.13-4.35l-.06-1.21c-.06-1.16-.14-2.32-.23-3.47 0-.31 0-.63-.07-.94-.12-1.43-.26-2.86-.43-4.28 0-.28-.07-.56-.11-.84q-.21-1.77-.48-3.54c0-.34-.1-.69-.16-1-.45-2.86-1-5.7-1.62-8.5-.06-.28-.13-.56-.19-.83-.3-1.26-.6-2.51-.93-3.76l-.12-.46c-.38-1.44-.79-2.87-1.21-4.29l-.09-.28c-.4-1.32-.82-2.63-1.26-3.94l-.18-.52q-1.46-4.23-3.16-8.31L1263 57q-2.64-6.27-5.88-12.2l-.05-.1q-2.19-4-4.63-7.83a114.16 114.16 0 01-61.23 93.59 99.34 99.34 0 0124.37 38z"/>
        <path class="cls-5" d="M1209.63 169.4h5.95v-.15zM1003.5 168.1h4v-.08l-.61-.33c8.77-24.54 27.51-44.91 51.8-57.09a113.78 113.78 0 01-34.07-75q-1.28 2-2.49 4l-.13.21q-2.41 4-4.56 8.24c0 .11-.11.22-.16.32q-2.12 4.16-3.92 8.47c-.07.16-.14.31-.2.47q-.9 2.16-1.74 4.36c-.53 1.41-1 2.82-1.51 4.25-.08.21-.15.42-.22.64-.49 1.46-1 2.93-1.39 4.41v.12c-.42 1.4-.81 2.82-1.17 4.24l-.21.81c-.38 1.48-.73 3-1 4.46a1.16 1.16 0 000 .18q-.45 2.12-.84 4.26c-.06.32-.12.64-.17 1-.26 1.49-.5 3-.71 4.5v.2c-.2 1.43-.37 2.86-.52 4.31 0 .36-.07.72-.11 1.08-.15 1.51-.28 3-.37 4.55a.76.76 0 000 .15c-.09 1.47-.15 3-.2 4.43v1.16c0 1.54-.05 3.07 0 4.62l.17 14v.8z"/>
        <path class="cls-16" d="M1020.81 262.87zM1021.94 264.22zM1018.29 259.36zM1027.14 269.27l-1.4-1.19zM1035.93 274.8c.38.18.77.34 1.15.51-.38-.17-.77-.31-1.15-.51zM1042.41 277.14zM1015.54 254.29c.32.73.68 1.46 1.06 2.18-.38-.72-.74-1.47-1.06-2.18zM1013.18 246.38a23.34 23.34 0 01-.22-2.72 23.34 23.34 0 00.22 2.72zM1014.92 252.83a29.53 29.53 0 01-1.74-6.45 29.53 29.53 0 001.74 6.45zM1013.23 240.1c0-.21.07-.41.11-.62-.04.21-.08.41-.11.62zM1015.91 231.69c10.11 24.9 63.67 52 114.68-29L1114 172.07c-1 1.1-43.89 13.85-73.46 34.07-.8.55-1.58 1.1-2.36 1.66-1.75 1.25-3.44 2.52-5.06 3.83-9.45 7.57-16.64 16-19.19 25.18-.17.6-.32 1.21-.44 1.82a30.82 30.82 0 012.42-6.94zm41.86-31.1c13.31-5.1 24.84-7.29 25.76-4.89s-9.13 8.47-22.43 13.57-24.85 7.28-25.76 4.89 9.12-8.47 22.43-13.57z"/>
        <path class="cls-8" d="M1018.29 259.36c.3.47.62.95 1 1.42.5.7 1 1.4 1.57 2.09.36.45.74.91 1.13 1.35a44.58 44.58 0 003.8 3.86l1.4 1.19a42 42 0 006.08 4.14c.88.49 1.78 1 2.71 1.39.38.18.77.34 1.15.51s1 .42 1.55.62l.93.34c.62.21 1.25.42 1.89.6q.48.15 1 .27c.65.17 1.31.33 2 .47l.62.12.39.08a40 40 0 0011.79.36 42.86 42.86 0 004.6-.77l1.18-.28c.79-.2 1.58-.42 2.38-.66s1.6-.51 2.41-.8 1.63-.61 2.45-1c1.24-.51 2.48-1.08 3.74-1.71.84-.42 1.68-.87 2.53-1.34l1.27-.74c16.64-9.77 35.1-30.1 53.66-66.75l-.74-1.62a.41.41 0 00-.07.11c-51 81-104.57 53.93-114.68 29a30.82 30.82 0 00-2.4 6.93c-.07.28-.12.57-.17.86s-.08.41-.11.62c-.08.53-.15 1.06-.2 1.6s-.08 1.29-.07 2a23.34 23.34 0 00.22 2.72 29.53 29.53 0 001.74 6.45c.2.48.4 1 .62 1.46.32.73.68 1.46 1.06 2.18l.14.26.25.47c.29.76.72 1.48 1.18 2.2z"/>
        <path d="M1138.61 17.07c26.48 0 48.12-7.55 49.68-17.07h-99.36c1.56 9.52 23.2 17.07 49.68 17.07z" fill="#98a372"/>
        <path d="M1006.94 167.72l.61.33c6.52-9 18-16.89 32.82-22.92a142.51 142.51 0 0114-4.81l.47-.13c1.22-.36 2.46-.69 3.71-1l.8-.22c3.15-.81 6.4-1.56 9.73-2.22l.66-.13c1.43-.28 2.87-.54 4.33-.8l1-.17c1.38-.23 2.77-.45 4.17-.65l1-.15 3.2-.43h.06l1.24-.15.71-.08 2.31-.25h.35c1.35-.14 2.7-.27 4.07-.38h.58c1.33-.1 2.66-.21 4-.29 3.43-.22 6.9-.35 10.42-.41H1117.17l3.12.09h.3l1.36.07q1.71.07 3.39.18l1.24.08 2.66.19.83.08 1 .09c1.23.11 2.45.23 3.67.36l.8.08c1.3.15 2.6.3 3.89.47l.53.07c1.39.18 2.76.37 4.12.58h.27c1.46.22 2.9.46 4.34.71 31.63 5.56 56.44 17.92 66.75 33.39v.15-1a99.34 99.34 0 00-24.33-38.05c-20-19.7-48.49-32-80.12-32a116.78 116.78 0 00-52.39 12.25c-24.15 12.16-42.89 32.53-51.66 57.07z" fill="#62703b"/>
        <path class="cls-9" d="M1128.76 395.08c-13.22 0-24.36 6.69-27.84 15.83a17.16 17.16 0 00-1.12 6c0 12.08 13 21.87 29 21.87s29-9.79 29-21.87a16.22 16.22 0 00-.21-2.61 19.55 19.55 0 00-6.42-11.32c-5.4-4.8-13.43-7.9-22.41-7.9z"/>
        <path class="cls-18" d="M1269.71 276.94c.11-4.29.15-8.38.15-12.23h9.14c0 3.85 0 8-.15 12.39 5.2-2.75 8.94-10.21 8.94-19v-1.09c-.38-10.63-6.18-19.08-13.3-19.08-7.37 0-13.34 9-13.34 20.17a2.81 2.81 0 000 .29c.02 8.49 3.58 15.71 8.56 18.55z"/>
        <path class="cls-18" d="M1278.29 291.21c.25-4.92.43-9.64.53-14.11s.15-8.54.15-12.39h-9.11c0 3.85 0 7.94-.15 12.23-.13 5.79-.38 11.95-.78 18.37-.3 4.94-.69 10.05-1.18 15.26-2.69 28.45-8.49 60.29-20.26 88.32-8 19.16-18.88 36.53-33.42 49.81a98.43 98.43 0 01-26.89 17.56 104.79 104.79 0 01-23 7 125.21 125.21 0 01-21.23 2q-5 .06-10.25-.24c-1.76-.1-3.53-.22-5.32-.39q-3.67-.33-7.24-1a79 79 0 01-21.94-7.43q-19.47-9.94-35-31c-14.36-19.55-26.09-46.17-34.87-79.12-1-3.66-1.9-7.33-2.76-11-.18-.75-.36-1.51-.53-2.26-3.5-15.16-6-30-7.92-43.35-.5-3.65-1-7.2-1.37-10.61a571.66 571.66 0 01-2.86-30.69c-.61-9.48-.72-15.18-.73-15.35l-9.11.14c0 .19.12 6.33.8 16.5.55 8.14 1.45 18.87 3 31.2.86 7.15 1.93 14.82 3.23 22.85 2.31 14.18 5.38 29.45 9.45 44.75.29 1.07.59 2.12.88 3.18q2.46 8.94 5.21 17.26c8.21 24.84 18.34 45.59 30.25 61.81a119.42 119.42 0 0025.13 25.75 89.12 89.12 0 0041 16.94c1.54.22 3.1.4 4.67.55 2 .18 4 .32 6 .43.08-1.61.17-2.55.2-2.8l3.4.36 3.39.36c0 .08-.08.86-.15 2.31h3.55a136.63 136.63 0 0019.38-1.56 108.71 108.71 0 0057.86-27.42q16.77-15.33 28.92-38.55c8.27-15.79 14.88-34.27 19.78-55.31 5.6-24.4 8.21-49.25 9.29-70.36z"/>
        <path class="cls-18" d="M1139.43 484.41c.07-1.45.15-2.23.15-2.31l-3.39-.36-3.4-.36c0 .25-.12 1.19-.2 2.8a154.36 154.36 0 00.14 17.06 274.27 274.27 0 007.45 48.33c2.51.59 5 1.15 7.54 1.78-2-8.06-3.56-15.53-4.74-22.35-3.98-23.24-3.82-38.95-3.55-44.59zM1169.61 685.18l-2.24-.89c0 .57-.12 1.14-.17 1.71h4.52l-1.94-.76z"/>
        <path d="M1006.94 168.9s10.34.33 28.57.65h5.23l-.28-18.74h-.09v-5.76c-14.84 6-26.3 13.92-32.82 22.92v.08c-.24.33-.43.59-.61.85z" fill="#3f4628"/>
        <path class="cls-16" d="M1110.41 170.19a179.2 179.2 0 00-21.23-9 19.24 19.24 0 01-12.14 5.16c-8.43.36-16-5.09-19.89-13.33q-8.24-1.36-16.69-2.08l.28 18.74c17.47.25 40.89.51 69.67.51z"/>
        <path class="cls-8" d="M1040.37 150.89h.09q8.46.71 16.69 2.08a29.82 29.82 0 01-2.79-11.44v-1.22a142.51 142.51 0 00-14 4.81zM1131.2 133.58zM1144.48 135.18zM1140.09 134.56zM1135.67 134c1.3.15 2.6.3 3.89.47-1.29-.15-2.56-.3-3.89-.47zM1111.13 132.69h4.61c-1.53.01-3.07 0-4.61 0zM1096.52 133.16h.28c-1.35.08-2.68.19-4 .29l3.59-.26zM1130.15 133.49l-.83-.08zM1120.33 132.87l-3.12-.09h.28c.95.03 1.9.05 2.84.09zM1129.32 133.41l-2.66-.19h.41zM1144.7 154.19c-7.4 12.13-21.65 16.92-31.83 10.71-6.58-4-9.81-11.62-9.31-19.77a5 5 0 01-2.19 1.08 4.16 4.16 0 00-2.14 0 4.69 4.69 0 01-2-.94 26.37 26.37 0 01-8.06 15.88 179.2 179.2 0 0121.23 9h.45c49.93 0 85.35-.54 98.77-.79l5.95-.11c-10.31-15.47-35.12-27.83-66.75-33.39a28.41 28.41 0 01-4.12 18.33zM1125.37 133.13h.05q-1.68-.1-3.39-.18h.4c.99.05 1.97.12 2.94.18zM1120.67 132.89h-.3.29zM1079.19 135c-1.4.2-2.79.42-4.17.65 1.37-.23 2.74-.44 4.13-.65zM1091.43 133.55l.78-.07c-1.37.11-2.72.24-4.07.38l1.56-.15zM1083.47 134.39l-3.2.43 1.44-.19zM1084.77 134.23l-1.24.15.72-.08zM1087.79 133.9l-2.31.25 1-.11zM1054.8 140.18a80.305 80.305 0 000 0zM1100.3 142.44a36.56 36.56 0 013.69-9.63l3.23-.08c-3.52.06-7 .19-10.42.41a37.12 37.12 0 013.5 9.3zM1069.7 136.59c1.43-.28 2.87-.55 4.33-.8-1.46.26-2.9.52-4.33.8zM1059.31 138.94z"/>
        <path d="M1061.1 209.27c13.3-5.1 23.35-11.17 22.43-13.57s-12.45-.21-25.76 4.89-23.35 11.17-22.43 13.57 12.45.2 25.76-4.89z" fill="#fad9d2"/>
        <path class="cls-34" d="M1122.43 133h-.4l-1.36-.07zM1117.49 132.79h-1.57zM1128 133.65a42.74 42.74 0 00-23.2 10.44c-.39.35-.79.71-1.21 1-.5 8.15 2.73 15.77 9.31 19.77 10.18 6.21 24.43 1.42 31.83-10.71a28.41 28.41 0 004.12-18.3c-1.44-.25-2.88-.49-4.34-.71h-.27c-1.36-.21-2.74-.4-4.12-.58l-.53-.07c-1.29-.17-2.59-.32-3.89-.47l-.8-.08c-1.22-.13-2.44-.25-3.67-.36l-1-.09-.87-.07a8.57 8.57 0 01-1.36.23zm1.45 21.66a11 11 0 11-11-11 11 11 0 0110.97 11zM1127.07 133.25h-.41l-1.24-.08h-.05zM1096.38 133.17zM1057.15 153c3.92 8.24 11.46 13.69 19.89 13.33a19.24 19.24 0 0012.14-5.16 26.37 26.37 0 008.06-15.88c-.49-.36-1-.78-1.41-1.18a42.76 42.76 0 00-16.64-9.12c-1.39.21-2.76.42-4.13.65l-1 .17c-1.46.25-2.9.52-4.33.8l-.66.13c-3.33.66-6.58 1.41-9.73 2.22l-.8.22c-1.25.33-2.49.66-3.71 1l-.47.13v1.22a29.82 29.82 0 002.79 11.47zm15-10a11 11 0 11-11 11 11 11 0 0111.03-11zM1081.71 134.63l-1.44.19-1 .15zM1091.43 133.55l-1.73.16zM1086.49 134l-1 .11-.71.08-.52.07z"/>
        <path d="M1061.17 154a11 11 0 1011-11 4.24 4.24 0 11-4.24 4.24 4.24 4.24 0 014.24-4.24 11 11 0 00-11 11z"/>
        <circle class="cls-34" cx="1072.18" cy="147.2" r="4.24"/>
        <path d="M1107.39 155.31a11 11 0 1011-11 11 11 0 00-11 11zm15.7-6.44a4.24 4.24 0 11-4.24-4.24 4.24 4.24 0 014.24 4.24z"/>
        <circle class="cls-34" cx="1118.85" cy="148.87" r="4.24"/>
        <path class="cls-11" d="M989.18 651.3c9.63-34.1 22-59.75 36.42-75.42a73.37 73.37 0 015.72-5.61c.76-.67 1.52-1.31 2.29-1.93 10.51-8.35 21.71-11.82 34.14-10.57a169.81 169.81 0 0122.26 0c-1.73-1.67-3.36-3.44-4.92-5.26a77 77 0 00-13.59-3.32c-15.59-2.31-30 1.65-43 11.75l-.5.38c-.81.65-1.62 1.31-2.41 2-22.64 19.64-37.26 56-46.55 90.55-3 11.11-5.42 22-7.38 32.15h9.26c1.13-5.73 2.41-11.69 3.86-17.77q2.1-8.81 4.4-16.95z"/>
        <path class="cls-16" d="M1091.69 645.35zM1130.49 650.14l1.58.05zM1104.37 647.89zM1181.23 573.7a18.91 18.91 0 01-4.18 2 88.2 88.2 0 01-52.7 1.94 81.35 81.35 0 01-34.35-19.89 169.81 169.81 0 00-22.26 0 41.17 41.17 0 00-4.59.63c-15.57 3.15-11.06 26.57 16.68 29.06-8.5.31-20.19 1.92-21.88 8.28-2.69 10.16-.38 22 11.53 21.62s23.45 0 23.45 0-23.69 2-24.6 11.13a7.44 7.44 0 00.83 4.06c1.4 2.83 4.59 5.76 10.06 8.41a67.86 67.86 0 0012.45 4.38c37.03-9.96 65.59-40.87 89.56-71.62zM1101.42 647.41l2.16.36zM1112.9 649l1.85.18c-.62-.09-1.24-.18-1.85-.18zM1126.16 650l1.39.06zM1120.9 649.65l1.34.1zM1183.44 570.86l1.86-2.42 2.55.39-5.31-.8a3.85 3.85 0 01.9 2.83zM1116.64 649.33l1.76.14zM1188.19 568.88h-.33zM1135.17 650.26h1.45z"/>
        <path class="cls-8" d="M1187.85 568.83l-2.55-.39-1.86 2.42a4.42 4.42 0 01-2.21 2.84c-24 30.75-52.53 61.66-89.55 71.65 2.75.71 5.79 1.37 9.11 1.95l.62.11 2.16.36.79.12c2.21.33 4.53.64 7 .91l1.56.17c.61.07 1.23.12 1.85.18l1.89.18 1.76.14c.82.07 1.66.13 2.5.18l1.34.1 3.92.22 1.39.06 2.94.11 1.58.05h9.23l46.89-81.45h-.33z"/>
        <path class="cls-16" d="M1124.35 577.61a88.2 88.2 0 0052.7-1.94 18.91 18.91 0 004.18-2 4.42 4.42 0 002.21-2.84 3.85 3.85 0 00-.9-2.83c-1.37-1.87-4.13-3.78-7.35-5.63a105.81 105.81 0 00-25.29-10.49l-2.18-.56c-2.51-.63-5-1.19-7.54-1.78s-5-1.22-7.45-2c-1.32-.4-2.63-.81-3.92-1.29-12.18-4.49-22.45-13-34.23-18.48-4-1.86-8.4-3.37-12.72-2.55s-8.32 4.74-7.78 9.1a12.48 12.48 0 001.53 4.14 74.39 74.39 0 009.48 14c1.56 1.82 3.19 3.59 4.92 5.26a81.35 81.35 0 0034.34 19.89z"/>
        <path class="cls-23" d="M1209.68 577.21c-1-.31-1.93-.64-2.92-1 .99.36 1.96.69 2.92 1zM1213 578.21l-1.65-.49zM1216.87 579.28l-1.08-.28zM1205.44 575.76c-1-.35-1.92-.7-2.89-1.07.97.37 1.93.72 2.89 1.07zM1223.2 580.68h-.12zM1192.58 570.49zM1201.57 574.31zM1197.23 572.54c-1.26-.54-2.54-1.09-3.83-1.68 1.29.59 2.6 1.14 3.83 1.68zM1405.58 516.54h-118.51v1.39c0 5.13-.83 23.56-9.15 39.36-8 15.13-22.86 27.82-50.64 24.05 2.48 36-4 71.54-17.08 104.66h131.73c36.33-24.63 62.89-75 63.65-169.46zm-120.26 147.8l32.26-45.74-49.72-21.27L1271 590l58.81 25.17-38 53.81zm16.3-2.17l34.61-50.87-50.6-19.59 2.89-7.46 60 23.22-40.27 59.2zM1148.06 675.93l2 .91zM1158 680.38c1.72.74 3.52 1.5 5.37 2.27-1.87-.77-3.67-1.53-5.37-2.27zM1150.39 677q2.23 1 4.69 2.11-2.46-1.11-4.69-2.11zM1131.79 667.75l.41.23zM1163.78 682.83c.88.36 1.77.73 2.68 1.09-.91-.36-1.8-.73-2.68-1.09zM1143.59 673.8l-3.42-1.68zM1155.41 679.26l2.27 1zM1131.53 667.61l.2.11zM1131.4 667.54h.06zM1145.8 674.86l2.09 1zM1143.9 674l1.8.86zM1138.66 671.37l1.3.65zM1132.78 668.3l-.47-.26zM1132.92 668.37l.65.35zM1135.86 669.93c.76.39 1.6.83 2.54 1.3-.94-.47-1.79-.91-2.54-1.3zM1134.72 669.33l.91.48zM1133.69 668.78l.9.48zM1169.61 685.18l-3-1.21.79.32zM1171.72 686l-2-.76z"/>
        <path d="M1227.29 581.34c-1.33-.18-2.7-.4-4.09-.66h-.12c-2-.38-4.08-.83-6.21-1.38l-1.08-.28c-.93-.24-1.88-.51-2.84-.79l-1.65-.49-1.62-.51c-1-.31-1.93-.64-2.92-1l-1.32-.47c-1-.35-1.92-.7-2.89-1.07l-1-.38c-1.12-.44-2.25-.9-3.39-1.37l-1-.4c-1.26-.54-2.54-1.09-3.83-1.68l-.82-.37c-1.38-.63-2.77-1.28-4.19-2l-.2.36-46.89 81.45-7.72 13.43-2.18 3.78h.13l.2.11h.06l.41.23.11.06.47.26.14.07.65.35.12.06.9.48.13.07.91.48.23.12c.75.39 1.6.83 2.54 1.3l.26.14 1.3.65.21.1 3.42 1.68.31.15 1.8.86.1.05 2.09 1 .17.08 2 .91.36.16q2.23 1 4.69 2.11l.33.15 2.27 1 .3.13c1.72.74 3.52 1.5 5.37 2.27l.43.18c.88.36 1.77.73 2.68 1.09l.12.05 3 1.21.17.06 2 .76h38.48c13.12-33.01 19.58-68.56 17.1-104.55zm-52 99.53a7.11 7.11 0 117.11-7.11 7.11 7.11 0 01-7.14 7.11z" fill="#66703d"/>
        <path class="cls-23" d="M1175.26 666.65a7.11 7.11 0 107.11 7.11 7.11 7.11 0 00-7.11-7.11z"/>
        <path class="cls-28" d="M1329.82 615.14l-58.81-25.17-3.15 7.36 49.73 21.27-32.27 45.74 6.54 4.61 37.96-53.81z"/>
        <path class="cls-28" d="M1348.51 607.47l-59.99-23.22-2.89 7.46 50.6 19.59-34.6 50.87 6.61 4.5 40.27-59.2z"/>
        <path d="M1361.14 470.36c2.89-1.63 4.62-4.36 4-8.77-.84-6-6.14-7.81-12.75-8.11l-.36-8.38-5.1.22.35 8.16c-1.34.06-2.71.14-4.07.23l-.35-8.22-5.1.22.36 8.38c-1.11.07-2.19.14-3.25.18l-7 .29.23 5.45s3.76-.23 3.7-.16a2.62 2.62 0 013 2.11l1 23a1.82 1.82 0 01-1.85 1.77c.07.05-3.71.16-3.71.16l-.75 6.13 6.64-.28 3.64-.13.37 8.48 5.09-.22-.35-8.38c1.4 0 2.75-.08 4.07-.14l.36 8.35 5.1-.22-.41-8.48c8.55-.86 14.46-3.28 14.86-11.36.37-6.55-2.81-9.31-7.72-10.28zm-17.56-10.66c2.89-.13 11.89-1.43 12.15 4.58.24 5.76-8.83 5.48-11.71 5.6zm15.2 20.32c.27 6.34-10.6 6.08-14.06 6.23l-.48-11.23c3.46-.15 14.26-1.6 14.54 5z" fill="#fdedd6"/>
        <path class="cls-37" d="M1169.83 217.54c1.84.07 3.64.12 5.41.26 1.28.09 2.55.22 3.79.4a26.41 26.41 0 012.82-1.4l2.3-1v3.44a32.3 32.3 0 015.64 2.2 30.55 30.55 0 016.44 4.42 14.5 14.5 0 00-5-6.69 20.21 20.21 0 00-7.69-3.64 24.25 24.25 0 00-8.39-.46 24.71 24.71 0 00-6.09 1.52q-.93.36-1.83.81c.89.08 1.77.11 2.6.14z"/>
        <path class="cls-38" d="M1169.76 305.85c.39-1.33.77-2.66 1.14-4 1-3.87 1.94-7.77 2.73-11.7q2.41-11.79 4-23.74c1.08-7.95 1.82-16 2.33-24 .53-7.11.71-14.24.81-21.37-.46.27-.93.55-1.37.86a21.92 21.92 0 00-3.24 2.79 27.15 27.15 0 00-2.77 3.43c.39 19-1.22 38.29-12.33 55.4-10.56 15.48-31 22.54-49.2 18.74 1.59 1.43 3.19 2.84 4.84 4.18 2.3 1.86 4.66 3.67 7.06 5.39 14.08-6.71 30.3-8.2 46-5.98zM1074.88 280c2.69 1.26 5.44 2.42 8.24 3.46z"/>
        <path class="cls-34" d="M1167 312.86a25.47 25.47 0 002.24-5.28c.18-.57.35-1.15.52-1.73-15.7-2.22-31.92-.73-46 6 .85.61 1.71 1.21 2.57 1.79a63.06 63.06 0 0010.41 5.76 37.75 37.75 0 0011.32 2.93 20.78 20.78 0 0011.14-1.61 18.65 18.65 0 007.8-7.86zM1161 283.54c11.11-17.11 12.72-36.41 12.33-55.4a35.46 35.46 0 00-2.24 3.71c-2.78 5.22-4.25 11.11-5.85 17.06s-3.33 12.09-6.71 17.54a46.61 46.61 0 01-12.93 13.71 56.53 56.53 0 01-35.45 10 76.4 76.4 0 01-17.92-3.05 40.08 40.08 0 016 3.57 102.24 102.24 0 019.36 7.74l4.19 3.82c18.22 3.84 38.7-3.24 49.22-18.7z"/>
        <path class="cls-37" d="M1184.15 215.83l-2.3 1a26.41 26.41 0 00-2.82 1.4c-.53.31-1 .63-1.56 1a25.59 25.59 0 00-3.72 3.23l-.08.09a33.64 33.64 0 00-5.43 7.84c-3 5.71-4.39 11.89-5.91 17.8s-3.15 11.76-6.17 16.87a44.07 44.07 0 01-12 13.16 50 50 0 01-7.67 4.7c-1.33.71-2.73 1.27-4.11 1.87s-2.82 1.08-4.27 1.49a52.31 52.31 0 01-8.85 1.93 63.86 63.86 0 01-9.07.57 79.8 79.8 0 01-27.11-5.29c-2.8-1-5.55-2.2-8.24-3.46a91.16 91.16 0 0016.06 6.77 39.69 39.69 0 017 4.44 100.38 100.38 0 019 8c2.89 2.81 5.73 5.69 8.79 8.37s6.2 5.23 9.52 7.59a64.75 64.75 0 0010.59 6.22 46.08 46.08 0 005.81 2.17 36.55 36.55 0 006.13 1.22 23.39 23.39 0 0012.53-1.63 18.26 18.26 0 005.31-3.75 25.62 25.62 0 003.88-5.08 24.43 24.43 0 001.45-2.84c.46-1 .74-2 1.1-3 .64-1.95 1.22-3.91 1.77-5.87 1.06-3.93 2.06-7.87 2.91-11.83 1.75-7.93 3.1-15.93 4.19-24 1.33-9.59 2.2-19.24 2.7-28.9q.48-9.33.51-18.68v-.91zM1148 322.33a37.75 37.75 0 01-11.32-2.93 63.06 63.06 0 01-10.41-5.76c-.86-.58-1.72-1.18-2.57-1.79-2.4-1.72-4.76-3.53-7.06-5.39-1.65-1.34-3.25-2.75-4.84-4.18l-4.19-3.82a102.24 102.24 0 00-9.36-7.74 40.08 40.08 0 00-6-3.57 76.4 76.4 0 0017.92 3.05 56.53 56.53 0 0035.45-10 46.61 46.61 0 0012.93-13.71c3.38-5.45 5.12-11.61 6.71-17.54s3.07-11.84 5.85-17.06a35.46 35.46 0 012.24-3.71 27.15 27.15 0 012.77-3.43 21.92 21.92 0 013.24-2.79c.44-.31.91-.59 1.37-.86-.1 7.13-.28 14.26-.81 21.37-.51 8-1.25 16-2.33 24s-2.37 15.88-4 23.74c-.79 3.93-1.73 7.83-2.73 11.7-.37 1.35-.75 2.68-1.14 4-.17.58-.34 1.16-.52 1.73a25.47 25.47 0 01-2.24 5.28 18.65 18.65 0 01-7.82 7.86 20.78 20.78 0 01-11.14 1.55z"/>
        <path d="M1100.3 142.44c.16.69.3 1.37.41 2a1.7 1.7 0 01-.19 1.44.76.76 0 01-.22.18 1.63 1.63 0 001.07.14 5 5 0 002.19-1.08c.42-.33.82-.69 1.21-1a42.74 42.74 0 0123.2-10.44 8.57 8.57 0 001.31-.23l-2.25-.16-1.7-.12c-1-.06-1.95-.1-2.94-.15l-1.77-.09h-.29c-.94 0-1.89-.06-2.84-.08h-10.27l-3.23.08a36.56 36.56 0 00-3.69 9.51z"/>
        <path d="M1079.21 135a42.76 42.76 0 0116.64 9.12c.45.4.92.82 1.41 1.18a4.69 4.69 0 002 .94 1.63 1.63 0 001.07-.14.76.76 0 01-.22-.18 1.7 1.7 0 01-.19-1.44c.11-.64.25-1.32.41-2a37.12 37.12 0 00-3.5-9.3H1096.41l-3.59.26h-.58l-.78.07-1.73.16-1.56.15h-.35l-1.3.14-2.24.26-.72.08h-.06l-1.76.24z"/>
        <path d="M1100.71 144.45c-.11-.64-.25-1.32-.41-2-.16.69-.3 1.37-.41 2a1.7 1.7 0 00.19 1.44.22.22 0 00.44 0 1.7 1.7 0 00.19-1.44z"/>
      </g>
    </g>
  </g>
</svg>
