<svg xmlns="http://www.w3.org/2000/svg" viewBox="0 0 829.5 870.66">
  <defs>
    <style>
      .cls-2{fill:#63723a}.cls-20,.cls-3{fill:#dadada}.cls-3{mix-blend-mode:multiply}.cls-5{fill:#cb9f94}.cls-6{fill:#474532}.cls-7{fill:#be1622}.cls-8{fill:#8f101a}.cls-9{fill:#48a}.cls-10{fill:#59a3c1}.cls-13{fill:#f7c0b4}.cls-15{fill:#353426}.cls-17{fill:#545e2d}.cls-18{fill:#b4c17c}.cls-21{fill:#c6c6c6}.cls-38{fill:none;stroke-miterlimit:10}.cls-34{fill:#fff}.cls-38{stroke:#fad399;stroke-width:8px}.cls-40{fill:#af7871}
    </style>
  </defs>
  <g style="isolation:isolate">
    <g id="Layer_2" data-name="Layer 2">
      <g id="character">
        <path class="cls-2" d="M308.7 281.32a68.75 68.75 0 00-68.7 68.75v200.24c-6.94-3.22-20.39-8-28.46-10.59-46.69-15.13-51.24 37.81-51.91 64.27s9.13 84.57 27.89 97.22c6.75 4.55 40.66 2.83 52.48 1.9 0 0 72.41 2.27 114.12-81.51S411 281.32 411 281.32z"/>
        <path class="cls-3" d="M348.79 281.32c1.67 108 1.49 218-41.84 319.13-11.39 26.19-35.3 45.55-64.91 49-30.35 3.68-58.46-11.21-81.95-30.27 2.26 29.06 11.68 71.48 27.38 82.06 6.75 4.55 40.66 2.83 52.48 1.9 0 0 72.41 2.27 114.12-81.51S411 281.32 411 281.32z"/>
        <ellipse cx="194.22" cy="619.77" rx="43.83" ry="82.87" fill="#32391d"/>
        <path class="cls-5" d="M69.43 514.33s57.52 34.72 87.69 29.11-5.42-41.85 9.79-43.13c23.52-2 62.45 53.23 65 92.7s-31 53.76-74.78 37.2S52 599 52 599s-24.63-65.68 17.43-84.67z"/>
        <path class="cls-6" d="M385.13 292.26a50.13 50.13 0 00-6.21-3.53c-9.09-4.28-21.9-6.39-32.09-3.22-29.21 24.49-58.93 62.18-71.38 114.89-10.73 45.4-5.13 83 16.2 108.82a87.84 87.84 0 0018.9 17.06v-47c-14.07-19.16-17.29-45.48-9.52-78.31 12.82-54.28 54.31-89.65 84.1-108.71z"/>
        <path class="cls-7" d="M92.35 421.31S34 456.71 40.23 572.83c0 0 30.61 13.4 44.09-13.75 0 0-26.95-57.82 8.03-137.77z"/>
        <path class="cls-8" d="M92.35 421.31s-9.6 5.82-20.6 20.49c2 32 4.77 65.29-11.79 93.89a126 126 0 01-20.15 25.54c.07 3.78.2 7.64.42 11.6 0 0 30.61 13.4 44.09-13.75 0 0-26.95-57.82 8.03-137.77z"/>
        <path class="cls-7" d="M92.38 420.9s66.42 15.75 96.19 128.17c0 0-25 22.16-46.19.47 0 0 7.86-63.31-50-128.64z"/>
        <path class="cls-8" d="M151.07 494c-10.68-21.37-28.52-38.58-45-56.09 42.89 58.89 36.35 111.66 36.35 111.66 21.17 21.69 46.19-.47 46.19-.47-7.66-28.9-17.73-51.4-28.48-68.9a32.31 32.31 0 00-9.06 13.8z"/>
        <path class="cls-9" d="M52.64 328.29c-11.79 12.86-14.12 36.38-4.38 58.71s28.56 36.63 46 36.74z"/>
        <path class="cls-9" d="M102 320.86c15.13 8.68 24.48 30.39 22 54.62S107.84 419 91.26 424.43z"/>
        <path class="cls-10" d="M48.26 387c.29.67.59 1.32.89 2 9.55 6.56 21.53 8.93 33.33 7.73l-29.84-68.44c-11.79 12.86-14.12 36.38-4.38 58.71zM124.28 371.2c1.06-22.48-8.06-42.17-22.29-50.34l-7.61 73.39a55.64 55.64 0 0021.78-12.68 55 55 0 008.12-10.37z"/>
        <circle cx="92.92" cy="421.52" r="15.39" fill="#afddf3"/>
        <circle cx="92.35" cy="415.98" r="7.76" fill="#cfebf8"/>
        <path class="cls-13" d="M65.55 581c2.2 9.3-3 18.5-11.71 20.55s-20.21-3.15-22.41-12.45 5.78-19.1 14.45-21.2 17.48 3.83 19.67 13.1z"/>
        <path class="cls-5" d="M52.13 594.37c-7.51 1.78-17.18-1.92-21.05-9a13.88 13.88 0 00.35 3.73c2.2 9.3 13.74 14.54 22.41 12.49S67.75 590.34 65.55 581a18.59 18.59 0 00-1.21-3.53c.24 7.98-4.69 15.13-12.21 16.9z"/>
        <path class="cls-13" d="M36.6 532.2c3 12.66-2 24.66-11.13 26.82S3.63 553.35.65 540.7s4.87-25.34 14-27.5 18.96 6.35 21.95 19z"/>
        <path class="cls-5" d="M23.15 549.2c-7.91 1.87-18.51-3.76-23.15-13.53a24.32 24.32 0 00.64 5c3 12.65 15.69 20.48 24.82 18.32s14.13-14.13 11.14-26.79a33 33 0 00-1.54-4.81c.81 10.67-3.99 19.94-11.91 21.81z"/>
        <path class="cls-13" d="M59.84 509c-4.38 11.74-14.8 18.69-23.27 15.52s-14.46-16.23-10.08-28S44 478.91 52.43 482.07s11.79 15.24 7.41 26.93z"/>
        <path class="cls-5" d="M40 515.46c-7.34-2.74-12.81-12.93-11.29-23.23a23.8 23.8 0 00-2.19 4.37c-4.38 11.73 1.61 24.8 10.08 28s18.86-3.82 23.24-15.6a30.8 30.8 0 001.34-4.68c-5.07 9.02-13.87 13.88-21.18 11.14z"/>
        <path d="M136.75 549.57a91.3 91.3 0 00-4.47 17.68c-.16 1.51-.32 3-.52 4.5l-.28 4.51c0 1.51 0 3-.06 4.51l.2 4.51.42 4.49.67 4.46.9 4.43c.4 1.45.77 2.91 1.13 4.38a92.48 92.48 0 006.83 16.96 56.57 56.57 0 01-9.07-16.18c-.5-1.48-1-3-1.45-4.45l-1.14-4.55-.8-4.63-.5-4.66-.14-4.7c.05-1.56.08-3.13.16-4.69l.51-4.66c.25-1.54.54-3.08.84-4.61a56.29 56.29 0 016.77-17.3z" fill="#aa756b"/>
        <path class="cls-5" d="M197.61 518.87c-6.42-6.8-11.71-18-15.84-26.42a93.7 93.7 0 01-6.12-15.93c-1.06-3.75-2.77-8.37-6.65-8.66a8 8 0 00-4.84 1.71c-9 6.05-14.09 17.19-13.65 28s6.07 21.2 14.34 28.24 19 10.89 29.84 11.71"/>
        <path class="cls-6" d="M757.47 401.44L792 405s19.38 58.35 10.16 110.14l-29.73 20s-27.17-99.14-14.96-133.7z"/>
        <path class="cls-15" d="M756.22 333.84s30.15 160.58 33.56 303c0 0-45.17 56.38-146.14 80.61S581.81 273.21 634 259.18s121.69 2.82 122.22 74.66z"/>
        <path class="cls-6" d="M462 181.51s107.11-31.58 222.57-34.64c0 0 98 51.61 111.83 189.4 0 0-140.33 61.57-272.75 49.57S357.16 205.85 462 181.51z"/>
        <path class="cls-3" d="M579.46 156.61c-68 10.31-117.46 24.9-117.46 24.9-104.84 24.34-70.78 192.33 61.65 204.33s272.75-49.57 272.75-49.57c-.16-1.56-.33-3.1-.51-4.64C749.32 325 704.78 307 666.8 274.77c-38.55-33.34-61.8-76.21-87.34-118.16z"/>
        <path d="M428.28 285.14h179.14a77.15 77.15 0 0177.15 77.15v423.3a77.16 77.16 0 01-77.15 77.16H381.74a77.16 77.16 0 01-77.15-77.16V363.13A77.16 77.16 0 01380.37 286z" fill="#7e8c51"/>
        <path class="cls-3" d="M411.72 285.44v577.31h10.24v-577.5l-10.24.19z"/>
        <path class="cls-3" d="M684.57 362.29a77.15 77.15 0 00-77.15-77.15h-20.75c1.51 55.29 1.93 110.54-1.86 166.14-3.42 41-11.39 80.85-20.5 121.84-10.25 43.28-15.94 83.78-60.31 117.29-48.39 36.52-125.27 27.33-165.12-20.49-18.38-21.68-28.37-46.86-34.25-73.54v189.21a77.16 77.16 0 0077.15 77.16h225.64a77.16 77.16 0 0077.15-77.16z"/>
        <path class="cls-17" d="M684.57 563.76V362.29a77.17 77.17 0 00-59.13-75c-2.78-.15-59.38-1.72-59.38 121.35v155.12z"/>
        <path class="cls-18" d="M527.92 342.56s75.11-2.73 112.69 16.17l12.86-44.1S600.68 292.49 529 300.9zM348.09 332.7s-53.94-2-80.93 11.62l-9.24-31.68s37.91-15.9 89.41-9.86z"/>
        <path class="cls-6" d="M641.42 292.26a50.13 50.13 0 00-6.21-3.53c-9.09-4.28-21.91-6.39-32.09-3.22-29.21 24.49-58.93 62.18-71.39 114.89-10.73 45.4-5.12 83 16.21 108.82a87.61 87.61 0 0018.9 17.06v-47c-14.08-19.16-17.29-45.48-9.53-78.31 12.82-54.28 54.31-89.65 84.11-108.71z"/>
        <path transform="rotate(-8.72 763.674 630.894)" fill="#7b6a58" d="M748.24 566.9h30.48v127.7h-30.48z"/>
        <path class="cls-20" d="M738.12 463.31C708.8 467.8 688 491 691.55 515.2L704 575.57l100.38-15.4-6.25-61.32c-3.92-24.14-30.69-40.04-60.01-35.54z"/>
        <path class="cls-21" d="M739.88 474.78c-26.1 4-44.59 24.65-41.46 46.2l11.06 53.75L798.84 561l-5.56-54.6c-3.47-21.47-27.28-35.62-53.4-31.62z"/>
        <path class="cls-21" d="M776.49 590.16l-36.95 5.67-.81-25.88 30.78-4.72 6.98 24.93z"/>
        <path fill="#9d9d9c" d="M765.07 566.2l-19.47-51.95-2.99 55.39 22.46-3.44z"/>
        <path class="cls-20" transform="rotate(-8.72 773.74 694.39)" d="M754.87 677.25h37.38v34.07h-37.38z"/>
        <path class="cls-20" d="M812.16 705.6l-72 11a9.75 9.75 0 00-8.16 11.1l6.12 39.87a9.76 9.76 0 0011.11 8.16l72-11.06a9.73 9.73 0 008.15-11.1l-6.11-39.87a9.74 9.74 0 00-11.11-8.1zm2.67 39.26a9.76 9.76 0 01-8.15 11.14l-46.23 7.09a9.74 9.74 0 01-11.11-8.15l-2.82-18.4a9.74 9.74 0 018.15-11.11l46.23-7.09a9.74 9.74 0 0111.1 8.12z"/>
        <path class="cls-6" d="M720.76 604.05s39.29 5.78 68.52-13.44l4.06 24.11s-18 22.43-69.43 26.15z"/>
        <circle cx="625.82" cy="519.63" r="34.33" fill="#fad399"/>
        <path d="M672.5 493.33a50.21 50.21 0 00-93.9 1" stroke="#b4c17c" stroke-width="15.61" fill="none" stroke-miterlimit="10"/>
        <path class="cls-2" d="M444.56 513.48h98.29l5.57 25.61H439.61l4.95-25.61zM314.74 513.48h83.05l4.71 25.61h-91.95l4.19-25.61z"/>
        <path class="cls-13" d="M314.34 198.71s-20 271 85.87 281.51c101.61 10.06 123.18-118.74 113.65-264.39S316.87 63.05 314.34 198.71z"/>
        <path class="cls-13" d="M314.34 198.71s-20 271 85.87 281.51c101.61 10.06 123.18-118.74 113.65-264.39S316.87 63.05 314.34 198.71z"/>
        <path class="cls-5" d="M513.86 215.83c-9.53-145.66-197-152.78-199.52-17.12 0 0 2-1.64 1.91-.84 43.7 3 83.06 18.86 116 49.57 46.65 41 64.87 112.74 30.75 168.56-20 32.62-51.64 47.86-85.72 57a58.34 58.34 0 0023 7.2c101.54 10.08 123.11-118.72 113.58-264.37z"/>
        <path class="cls-6" d="M517.48 214.2c-4.76-72.73-52.33-112.13-100.65-117.7 43.5 5.35 86.27 42.39 90.55 110.7 8.91 142-11.25 267.61-106.25 257.8-99-10.22-80.28-274.49-80.28-274.49 1.15-63.75 42.45-95.15 85.93-94.69-48.51-.88-94.81 32.49-96.08 100.64 0 0-20.75 280.88 89 291.74 105.3 10.43 127.66-123.05 117.78-274z"/>
        <path d="M567.71 223.14l-.79-66h-.09c-1-79.58-66.43-143.31-146.24-142.36S276.86 81.06 277.81 160.63l.73 60.7" stroke="#474532" stroke-width="29.61" fill="none" stroke-miterlimit="10"/>
        <path class="cls-15" d="M610.76 239.52c0-37.12-27-67.21-60.39-67.21s-41.46 30.09-41.46 67.21 8.11 67.21 41.46 67.21 60.39-30.09 60.39-67.21z"/>
        <path class="cls-6" d="M597.16 229c0-30.95-22.55-56-50.36-56s-34.57 25-34.57 56 6.76 56 34.57 56 50.36-25.1 50.36-56z"/>
        <path class="cls-15" d="M231.35 239.52c0-37.12 22.92-67.21 51.18-67.21s35.13 30.09 35.13 67.21-6.87 67.21-35.13 67.21-51.18-30.09-51.18-67.21z"/>
        <path class="cls-6" d="M242.88 229c0-30.95 19.1-56 42.67-56s29.29 25.09 29.29 56-5.72 56-29.29 56-42.67-25.1-42.67-56z"/>
        <path d="M553.4 217l-.74-62h-.08a135.39 135.39 0 10-270.77 3.24l.68 57z" fill="#7e8c4f"/>
        <path d="M552.66 155.05h-.08a134.74 134.74 0 00-21.11-71 114.13 114.13 0 01-227.81-1.16 134.8 134.8 0 00-21.85 75.41l.68 57L553.4 217z" opacity=".5" fill="#63723a"/>
        <path class="cls-13" d="M393 219.28c-1.51 1.63-97.42 29.56-101 69.64-2.42 27.19 57.46 82.77 118.37-37.53"/>
        <path class="cls-5" d="M294.9 278.91a29 29 0 00-2.88 10c-2.42 27.19 57.46 82.77 118.37-37.53l-.74-1.62C358.62 331 305 303.82 294.9 278.91z"/>
        <ellipse cx="417.6" cy="46.12" rx="49.78" ry="18.17" fill="#98a372"/>
        <path d="M390.12 192.83c48.89 0 90.31 2.45 104.45 23.68v-.83C480.43 175 439 145.6 390.12 145.6c-48.6 0-89.81 29.08-104.19 69.34l.62.33c14.9-20.58 55.63-22.44 103.57-22.44z" fill="#62703b"/>
        <ellipse class="cls-6" cx="407.74" cy="464.17" rx="28.96" ry="21.87"/>
        <ellipse class="cls-15" cx="553.4" cy="305.31" rx="13.34" ry="20.17"/>
        <path d="M286.63 290.15S290.24 515.92 406 526.43c132.32 12 147.41-141.27 147.41-214.49" stroke-width="9.11" stroke="#353426" fill="none" stroke-miterlimit="10"/>
        <path d="M415.18 529s-4.95 46.87 23.93 118.44c40.48 100.34-36.85 221.42-36.85 221.42" stroke-width="6.83" stroke="#353426" fill="none" stroke-miterlimit="10"/>
        <path d="M285.93 216.12s12.32.39 33.8.74l-.37-24.51c-15.31 6.22-27.03 14.41-33.43 23.77z" fill="#3f4628"/>
        <path class="cls-13" d="M494.57 216.51c-14.14-21.23-55.56-36.6-104.45-36.6-27 0-51.67 4.68-70.76 12.44l.37 24.51c17.56.29 41.13.55 70.12.55 64.43 0 104.72-.9 104.72-.9z"/>
        <path class="cls-5" d="M494.57 216.51c-14.14-21.23-55.56-36.6-104.45-36.6-27 0-51.67 4.68-70.76 12.44v5.76c24.92 2.08 48.4 8.38 70 19.3h.45c64.47 0 104.76-.9 104.76-.9z"/>
        <ellipse cx="338.42" cy="252.15" rx="25.8" ry="4.65" transform="rotate(-20.95 338.466 252.172)" fill="#fad9d2"/>
        <path class="cls-34" d="M391.86 212.13c10.18 6.2 24.43 1.41 31.83-10.72a28.41 28.41 0 004.12-18.3 219.26 219.26 0 00-37.69-3.2h-3.88c-6.67 11.97-4.24 26.18 5.62 32.22zM356 213.53c11.91-.51 21.08-12.43 20.47-26.62a30.7 30.7 0 00-1-6.53 196.67 196.67 0 00-42.19 7.15v1.23C334 203 344.11 214 356 213.53z"/>
        <circle cx="351.17" cy="201.2" r="11.01"/>
        <circle class="cls-34" cx="351.17" cy="194.42" r="4.24"/>
        <circle cx="397.39" cy="202.53" r="11.01"/>
        <circle class="cls-34" cx="397.84" cy="196.09" r="4.24"/>
        <path d="M475.58 780.53s-39.52-166.94-125.75-179.69-102.25 185.27-102.25 185.27" stroke="#8f101a" stroke-width="9" fill="none" stroke-miterlimit="10"/>
        <path class="cls-13" d="M467.28 616.12s-100.37-15.52-125.14-10.5c-17.12 3.47-10 31.45 25.67 29.15 0 0-28.17-2-30.86 8.19s-.38 21.95 11.53 21.62 23.45 0 23.45 0-23.69 2.06-24.6 11.13 16.85 21.72 73 21.84z"/>
        <path class="cls-5" d="M370.67 692.57c11.41 2.95 27.53 4.94 49.62 5l47-81.44-3-.46c-24.8 32.4-54.49 66.33-93.62 76.9z"/>
        <path class="cls-13" d="M428.89 599.13c-7-1.89-14.26-3.06-21.09-5.58-12.18-4.49-22.45-13-34.23-18.48-4-1.85-8.4-3.37-12.72-2.55s-8.32 4.74-7.78 9.11a12.56 12.56 0 001.53 4.14c9.91 19 28.14 33.23 48.74 39.06a88.16 88.16 0 0052.66-1.94c11.15-3.9 6-8.75-1.85-13.27a106 106 0 00-25.26-10.49z"/>
        <path class="cls-17" d="M566.06 563.76s2.85 101.22-98.68 52l-57 99s271.73 154 274.18-151z"/>
        <path d="M506.28 628.56c-10.88-1.47-23.71-5.45-38.9-12.82l-57 99a358.7 358.7 0 0074.11 29.62c16.24-36.21 24.51-75.73 21.79-115.8z" fill="#66703d"/>
        <circle class="cls-17" cx="454.25" cy="720.98" r="7.11"/>
        <g opacity=".5">
          <path class="cls-38" d="M548.42 640.87l54.27 23.22-35.11 49.78"/>
          <path class="cls-38" d="M566.06 635.2l55.3 21.41-37.44 55.04"/>
        </g>
        <path d="M644.13 508.82c-.84-6-6.14-7.82-12.75-8.12l-.36-8.38-5.1.22.35 8.16c-1.34.06-2.71.14-4.07.23l-.35-8.22-5.1.22.36 8.38c-1.11.07-2.19.14-3.25.18l-7 .3.24 5.44s3.76-.23 3.7-.16a2.63 2.63 0 013 2.11l1 23a1.8 1.8 0 01-1.84 1.77c.07.06-3.71.16-3.71.16l-.75 6.13 6.64-.28 3.64-.13.37 8.48 5.09-.22-.35-8.38c1.39 0 2.75-.08 4.07-.14l.36 8.35 5.1-.22-.36-8.46c8.55-.86 14.46-3.28 14.86-11.36.32-6.51-2.85-9.27-7.77-10.23 2.9-1.64 4.63-4.37 4-8.77zm-6.36 18.42c.27 6.34-10.6 6.08-14.06 6.23l-.48-11.23c3.46-.14 14.25-1.6 14.54 5zm-3-15.74c.24 5.77-8.83 5.48-11.71 5.6l-.44-10.18c2.83-.13 11.84-1.43 12.1 4.58z" fill="#fdedd6"/>
        <path class="cls-40" d="M446.24 264.65a23.92 23.92 0 017.91-2.33 24.29 24.29 0 018.4.46 20.21 20.21 0 017.69 3.64 14.57 14.57 0 015 6.69 30.37 30.37 0 00-6.44-4.41 32 32 0 00-7-2.58 47.43 47.43 0 00-7.53-1.1c-2.63-.2-5.27-.22-8.03-.37z"/>
        <path d="M353.87 327.2c14.26 7.19 30.52 11.21 46.31 8.84s30.93-11.82 37.87-26.2c3.75-7.78 5-16.5 7.74-24.68s7.64-16.4 15.67-19.58c0 51.4-10.73 88.13-13.09 93.08-1.95 4.08-4.8 7.88-8.76 10a21.26 21.26 0 01-11.82 2.16c-12.06-.89-22.56-8.33-31.89-16s-17.9-18.66-29.42-22.33" fill="#72030a"/>
        <path class="cls-34" d="M401.82 359.5c7.8 5.82 16.39 10.66 26 11.37a21.26 21.26 0 0011.82-2.16c4-2.17 6.81-6 8.76-10a44.52 44.52 0 001.89-5.38c-16.53-2.63-33.72-1.16-48.47 6.17zM440 330.76c11.65-17.92 12.86-38.23 12.27-58.09a41.67 41.67 0 00-6.5 12.49c-2.75 8.18-4 16.9-7.74 24.68-6.94 14.38-22.07 23.82-37.87 26.2-11.34 1.7-22.92.1-33.83-3.6l.13.05c8.94 2.85 16.09 10.07 23.19 16.76 18.47 4.35 39.59-2.68 50.35-18.49z"/>
        <path class="cls-40" d="M353.87 327.2c11.1 5.21 23.15 8.67 35.35 8.75a63.86 63.86 0 009.07-.57 52.31 52.31 0 008.85-1.93c1.45-.41 2.85-1 4.27-1.49s2.78-1.16 4.11-1.87a51 51 0 007.67-4.7 44.15 44.15 0 0012-13.15c3-5.12 4.66-10.95 6.17-16.88s3-12.09 5.91-17.8a33.67 33.67 0 015.5-7.92 25.59 25.59 0 013.73-3.23 23.23 23.23 0 014.38-2.39l2.3-1v2.53a354.31 354.31 0 01-3.21 48.49c-1.09 8-2.44 16-4.2 24-.84 4-1.84 7.9-2.9 11.83-.55 2-1.13 3.92-1.77 5.87-.36 1-.64 1.93-1.1 3a24.43 24.43 0 01-1.45 2.84 25.71 25.71 0 01-3.88 5.08 18.26 18.26 0 01-5.31 3.75 23.39 23.39 0 01-12.58 1.59 36.35 36.35 0 01-6.13-1.22 45.51 45.51 0 01-5.81-2.17 64.7 64.7 0 01-10.59-6.21c-3.32-2.37-6.47-4.93-9.52-7.6s-5.91-5.56-8.79-8.37a101.78 101.78 0 00-9-8 37.93 37.93 0 00-10.46-5.92 37.73 37.73 0 0110.8 5.45 102.11 102.11 0 019.35 7.74c3 2.71 5.94 5.47 9 8s6.33 4.94 9.63 7.19a63.74 63.74 0 0010.41 5.75 38.08 38.08 0 0011.33 2.92 21 21 0 0011.17-1.56 18.67 18.67 0 007.82-7.87 25.79 25.79 0 002.24-5.28c.59-1.89 1.13-3.81 1.66-5.74 1-3.87 1.94-7.76 2.73-11.7 1.61-7.85 2.93-15.78 4-23.74s1.82-15.95 2.33-24 .76-16 .85-24.07l2.3 1.56a19.53 19.53 0 00-3.71 2 22.53 22.53 0 00-3.24 2.79 31.17 31.17 0 00-5 7.14c-2.79 5.22-4.25 11.12-5.85 17.07s-3.34 12.08-6.71 17.53a46.61 46.61 0 01-12.93 13.71 56.53 56.53 0 01-35.45 10 83 83 0 01-35.34-10.2z"/>
        <path d="M379.7 191.68a1.71 1.71 0 01-.19 1.44.92.92 0 01-.22.17 1.62 1.62 0 001.07.14 7.39 7.39 0 003.4-2.12A42.78 42.78 0 01407 180.87a7.8 7.8 0 001.35-.24c-5.92-.47-12-.72-18.19-.72-2.41 0-4.78.05-7.14.12a36.56 36.56 0 00-3.69 9.63c.12.7.26 1.34.37 2.02z"/>
        <path d="M378.22 193.43a1.63 1.63 0 001.07-.14.92.92 0 01-.22-.17 1.71 1.71 0 01-.2-1.44c.12-.65.26-1.32.42-2a37.12 37.12 0 00-3.5-9.3q-9.06.57-17.61 1.83a43 43 0 0116.64 9.12 7.34 7.34 0 003.4 2.1z"/>
        <path d="M379.7 191.68c-.11-.65-.25-1.32-.41-2-.16.7-.3 1.37-.42 2a1.71 1.71 0 00.2 1.44.23.23 0 00.44 0 1.71 1.71 0 00.19-1.44z"/>
      </g>
    </g>
  </g>
</svg>
